<?xml version="1.0" encoding="UTF-8" standalone="no"?>
<!DOCTYPE svg PUBLIC "-//W3C//DTD SVG 1.1//EN"
 "http://www.w3.org/Graphics/SVG/1.1/DTD/svg11.dtd">
<!-- Generated by graphviz version 2.40.1 (20161225.0304)
 -->
<!-- Title: G Pages: 1 -->
<svg width="2593pt" height="1646pt"
 viewBox="0.00 0.00 2593.13 1646.49" xmlns="http://www.w3.org/2000/svg" xmlns:xlink="http://www.w3.org/1999/xlink">
<g id="graph0" class="graph" transform="scale(1 1) rotate(0) translate(7.992 1638.4935)">
<title>G</title>
<polygon fill="#eeeeff" stroke="transparent" points="-7.992,7.992 -7.992,-1638.4935 2585.1366,-1638.4935 2585.1366,7.992 -7.992,7.992"/>
<!-- ../f&#45;utility.js -->
<g id="node1" class="node">
<title>../f&#45;utility.js</title>
<ellipse fill="none" stroke="#242424" stroke-width="4" cx="480.7349" cy="-426.9638" rx="79.3981" ry="79.3981"/>
<text text-anchor="middle" x="480.7349" y="-424.5638" font-family="Fira Code" font-size="12.00" fill="#242424">../f&#45;utility.js</text>
</g>
<!-- entrust/entrust.js -->
<g id="node2" class="node">
<title>entrust/entrust.js</title>
<ellipse fill="none" stroke="#0c821d" stroke-width="4" cx="199.7349" cy="-129.7839" rx="92.9895" ry="92.9895"/>
<text text-anchor="middle" x="199.7349" y="-127.3839" font-family="Fira Code" font-size="12.00" fill="#0c821d">entrust/entrust.js</text>
</g>
<!-- ../f&#45;utility.js&#45;&gt;entrust/entrust.js -->
<g id="edge1" class="edge">
<title>../f&#45;utility.js&#45;&gt;entrust/entrust.js</title>
<path fill="none" stroke="#242424" d="M425.4744,-370.227C414.7497,-359.5672 403.4963,-348.6188 392.7349,-338.5677 353.5935,-302.0096 338.6709,-298.3527 301.7349,-259.5677 287.8928,-245.0326 273.99,-228.7364 261.0957,-212.7305"/>
<polygon fill="#242424" stroke="#242424" points="263.8246,-210.5388 254.8515,-204.9054 258.3531,-214.9049 263.8246,-210.5388"/>
</g>
<!-- fantasy&#45;land/index.js -->
<g id="node3" class="node">
<title>fantasy&#45;land/index.js</title>
<ellipse fill="none" stroke="#0c821d" stroke-width="4" cx="584.7349" cy="-129.7839" rx="106.5817" ry="106.5817"/>
<text text-anchor="middle" x="584.7349" y="-127.3839" font-family="Fira Code" font-size="12.00" fill="#0c821d">fantasy&#45;land/index.js</text>
</g>
<!-- ../f&#45;utility.js&#45;&gt;fantasy&#45;land/index.js -->
<g id="edge2" class="edge">
<title>../f&#45;utility.js&#45;&gt;fantasy&#45;land/index.js</title>
<path fill="none" stroke="#242424" d="M506.9785,-351.9728C518.7718,-318.2734 532.9298,-277.8171 545.914,-240.7146"/>
<polygon fill="#242424" stroke="#242424" points="549.3646,-241.4503 549.3643,-230.8555 542.7575,-239.1381 549.3646,-241.4503"/>
</g>
<!-- katsu&#45;curry/katsu&#45;curry.js -->
<g id="node4" class="node">
<title>katsu&#45;curry/katsu&#45;curry.js</title>
<ellipse fill="none" stroke="#0c821d" stroke-width="4" cx="1432.7349" cy="-129.7839" rx="129.5681" ry="129.5681"/>
<text text-anchor="middle" x="1432.7349" y="-127.3839" font-family="Fira Code" font-size="12.00" fill="#0c821d">katsu&#45;curry/katsu&#45;curry.js</text>
</g>
<!-- ../f&#45;utility.js&#45;&gt;katsu&#45;curry/katsu&#45;curry.js -->
<g id="edge3" class="edge">
<title>../f&#45;utility.js&#45;&gt;katsu&#45;curry/katsu&#45;curry.js</title>
<path fill="none" stroke="#242424" d="M532.3373,-366.5598C543.7442,-355.9848 556.4282,-346.0054 569.7349,-338.5677 802.5395,-208.4441 1114.8538,-158.8418 1292.8681,-140.3571"/>
<polygon fill="#242424" stroke="#242424" points="1293.4887,-143.812 1303.0819,-139.3154 1292.7784,-136.8482 1293.4887,-143.812"/>
</g>
<!-- ../package.json -->
<g id="node5" class="node">
<title>../package.json</title>
<ellipse fill="none" stroke="#0c821d" stroke-width="4" cx="154.7349" cy="-1304.7078" rx="79.3981" ry="79.3981"/>
<text text-anchor="middle" x="154.7349" y="-1302.3078" font-family="Fira Code" font-size="12.00" fill="#0c821d">../package.json</text>
</g>
<!-- array.js -->
<g id="node6" class="node">
<title>array.js</title>
<ellipse fill="none" stroke="#242424" stroke-width="4" cx="622.7349" cy="-961.5414" rx="47.0167" ry="47.0167"/>
<text text-anchor="middle" x="622.7349" y="-959.1414" font-family="Fira Code" font-size="12.00" fill="#242424">array.js</text>
</g>
<!-- array.js&#45;&gt;entrust/entrust.js -->
<g id="edge4" class="edge">
<title>array.js&#45;&gt;entrust/entrust.js</title>
<path fill="none" stroke="#242424" d="M590.0374,-927.4663C524.1323,-856.7809 375.1286,-686.4749 298.7349,-515.3599 265.9714,-441.9725 280.4618,-416.478 260.7349,-338.5677 251.5847,-302.4294 240.4206,-263.1156 230.1565,-228.4493"/>
<polygon fill="#242424" stroke="#242424" points="233.4928,-227.3891 227.2878,-218.8014 226.7831,-229.3842 233.4928,-227.3891"/>
</g>
<!-- array.js&#45;&gt;katsu&#45;curry/katsu&#45;curry.js -->
<g id="edge5" class="edge">
<title>array.js&#45;&gt;katsu&#45;curry/katsu&#45;curry.js</title>
<path fill="none" stroke="#242424" d="M642.8022,-918.9136C653.0278,-897.9198 665.9739,-872.4014 678.7349,-850.1521 687.1634,-835.4567 833.1786,-606.7471 844.7349,-594.3599 884.573,-551.6575 918.9537,-564.9894 949.7349,-515.3599 991.8648,-447.4327 933.6984,-401.6902 982.7349,-338.5677 1059.3839,-239.9011 1193.6691,-186.0133 1295.6538,-157.8382"/>
<polygon fill="#242424" stroke="#242424" points="1296.6833,-161.1855 1305.4194,-155.1912 1294.852,-154.4293 1296.6833,-161.1855"/>
</g>
<!-- filter.js -->
<g id="node7" class="node">
<title>filter.js</title>
<ellipse fill="none" stroke="#242424" stroke-width="4" cx="666.7349" cy="-682.756" rx="51.7142" ry="51.7142"/>
<text text-anchor="middle" x="666.7349" y="-680.356" font-family="Fira Code" font-size="12.00" fill="#242424">filter.js</text>
</g>
<!-- array.js&#45;&gt;filter.js -->
<g id="edge6" class="edge">
<title>array.js&#45;&gt;filter.js</title>
<path fill="none" stroke="#242424" d="M630.0995,-914.879C637.5076,-867.941 648.9677,-795.3298 657.0955,-743.8317"/>
<polygon fill="#242424" stroke="#242424" points="660.5726,-744.2508 658.6744,-733.8274 653.6582,-743.1595 660.5726,-744.2508"/>
</g>
<!-- delegate&#45;fast.js -->
<g id="node9" class="node">
<title>delegate&#45;fast.js</title>
<ellipse fill="none" stroke="#242424" stroke-width="4" cx="856.7349" cy="-426.9638" rx="83.5954" ry="83.5954"/>
<text text-anchor="middle" x="856.7349" y="-424.5638" font-family="Fira Code" font-size="12.00" fill="#242424">delegate&#45;fast.js</text>
</g>
<!-- filter.js&#45;&gt;delegate&#45;fast.js -->
<g id="edge11" class="edge">
<title>filter.js&#45;&gt;delegate&#45;fast.js</title>
<path fill="none" stroke="#242424" d="M697.6846,-641.0893C725.46,-603.696 766.9084,-547.895 800.5295,-502.6318"/>
<polygon fill="#242424" stroke="#242424" points="803.3429,-504.7137 806.4962,-494.599 797.7235,-500.5397 803.3429,-504.7137"/>
</g>
<!-- fast.js/filter.js -->
<g id="node10" class="node">
<title>fast.js/filter.js</title>
<ellipse fill="none" stroke="#0c821d" stroke-width="4" cx="666.7349" cy="-426.9638" rx="88.2923" ry="88.2923"/>
<text text-anchor="middle" x="666.7349" y="-424.5638" font-family="Fira Code" font-size="12.00" fill="#0c821d">fast.js/filter.js</text>
</g>
<!-- filter.js&#45;&gt;fast.js/filter.js -->
<g id="edge10" class="edge">
<title>filter.js&#45;&gt;fast.js/filter.js</title>
<path fill="none" stroke="#242424" d="M666.7349,-630.9926C666.7349,-600.7023 666.7349,-561.4543 666.7349,-525.4836"/>
<polygon fill="#242424" stroke="#242424" points="670.235,-525.4351 666.7349,-515.4351 663.235,-525.4352 670.235,-525.4351"/>
</g>
<!-- choice.js -->
<g id="node8" class="node">
<title>choice.js</title>
<ellipse fill="none" stroke="#242424" stroke-width="4" cx="1844.7349" cy="-682.756" rx="51.7142" ry="51.7142"/>
<text text-anchor="middle" x="1844.7349" y="-680.356" font-family="Fira Code" font-size="12.00" fill="#242424">choice.js</text>
</g>
<!-- choice.js&#45;&gt;katsu&#45;curry/katsu&#45;curry.js -->
<g id="edge7" class="edge">
<title>choice.js&#45;&gt;katsu&#45;curry/katsu&#45;curry.js</title>
<path fill="none" stroke="#242424" d="M1847.3333,-631.1151C1848.3779,-559.1131 1840.6584,-427.4199 1778.7349,-338.5677 1726.8017,-264.0502 1638.9067,-211.506 1564.7046,-177.7683"/>
<polygon fill="#242424" stroke="#242424" points="1565.8201,-174.433 1555.2627,-173.5424 1562.9604,-180.8223 1565.8201,-174.433"/>
</g>
<!-- delegate&#45;fast.js&#45;&gt;entrust/entrust.js -->
<g id="edge8" class="edge">
<title>delegate&#45;fast.js&#45;&gt;entrust/entrust.js</title>
<path fill="none" stroke="#242424" d="M801.0696,-364.2759C789.6155,-354.3607 776.9774,-345.2062 763.7349,-338.5677 577.5108,-245.2128 480.7248,-366.1378 301.7349,-259.5677 283.8538,-248.9214 267.9098,-233.8721 254.2427,-217.7743"/>
<polygon fill="#242424" stroke="#242424" points="256.76,-215.3239 247.7177,-209.8023 251.343,-219.7576 256.76,-215.3239"/>
</g>
<!-- delegate&#45;fast.js&#45;&gt;katsu&#45;curry/katsu&#45;curry.js -->
<g id="edge9" class="edge">
<title>delegate&#45;fast.js&#45;&gt;katsu&#45;curry/katsu&#45;curry.js</title>
<path fill="none" stroke="#242424" d="M916.214,-367.8589C928.3978,-357.3588 941.5455,-347.0752 954.7349,-338.5677 1063.8427,-268.1911 1200.6692,-211.1563 1299.9428,-174.5935"/>
<polygon fill="#242424" stroke="#242424" points="1301.2437,-177.8445 1309.4305,-171.1193 1298.8367,-171.2713 1301.2437,-177.8445"/>
</g>
<!-- flip.js -->
<g id="node11" class="node">
<title>flip.js</title>
<ellipse fill="none" stroke="#242424" stroke-width="4" cx="2534.7349" cy="-961.5414" rx="42.3196" ry="42.3196"/>
<text text-anchor="middle" x="2534.7349" y="-959.1414" font-family="Fira Code" font-size="12.00" fill="#242424">flip.js</text>
</g>
<!-- flip.js&#45;&gt;katsu&#45;curry/katsu&#45;curry.js -->
<g id="edge12" class="edge">
<title>flip.js&#45;&gt;katsu&#45;curry/katsu&#45;curry.js</title>
<path fill="none" stroke="#242424" d="M2519.7438,-921.7174C2510.7121,-899.8114 2498.1732,-872.6027 2483.7349,-850.1521 2321.045,-597.1803 2289.9942,-506.8905 2040.7349,-338.5677 1895.7169,-240.6382 1700.2682,-184.3481 1570.5603,-155.4265"/>
<polygon fill="#242424" stroke="#242424" points="1571.0777,-151.9566 1560.5587,-153.2216 1569.5707,-158.7925 1571.0777,-151.9566"/>
</g>
<!-- future.js -->
<g id="node12" class="node">
<title>future.js</title>
<ellipse fill="none" stroke="#242424" stroke-width="4" cx="72.7349" cy="-426.9638" rx="51.7142" ry="51.7142"/>
<text text-anchor="middle" x="72.7349" y="-424.5638" font-family="Fira Code" font-size="12.00" fill="#242424">future.js</text>
</g>
<!-- future.js&#45;&gt;entrust/entrust.js -->
<g id="edge13" class="edge">
<title>future.js&#45;&gt;entrust/entrust.js</title>
<path fill="none" stroke="#242424" d="M93.1397,-379.2167C110.863,-337.7441 137.0669,-276.4271 159.0582,-224.9674"/>
<polygon fill="#242424" stroke="#242424" points="162.4011,-226.0514 163.1124,-215.4805 155.9642,-223.3006 162.4011,-226.0514"/>
</g>
<!-- index.js -->
<g id="node13" class="node">
<title>index.js</title>
<ellipse fill="none" stroke="#242424" stroke-width="4" cx="1220.7349" cy="-1583.4931" rx="47.0167" ry="47.0167"/>
<text text-anchor="middle" x="1220.7349" y="-1581.0932" font-family="Fira Code" font-size="12.00" fill="#242424">index.js</text>
</g>
<!-- index.js&#45;&gt;katsu&#45;curry/katsu&#45;curry.js -->
<g id="edge14" class="edge">
<title>index.js&#45;&gt;katsu&#45;curry/katsu&#45;curry.js</title>
<path fill="none" stroke="#242424" d="M1267.7322,-1579.9965C1389.7019,-1569.8668 1711.4136,-1536.075 1776.7349,-1457.4848 1863.0294,-1353.6612 1804.7451,-984.5277 1791.7349,-850.1521 1780.5719,-734.8543 1765.8669,-707.6553 1741.7349,-594.3599 1717.4293,-480.2494 1743.8009,-437.9806 1682.7349,-338.5677 1650.0696,-285.3899 1599.1044,-239.259 1551.6891,-203.9827"/>
<polygon fill="#242424" stroke="#242424" points="1553.632,-201.0671 1543.4999,-197.97 1549.4892,-206.7096 1553.632,-201.0671"/>
</g>
<!-- index.js&#45;&gt;../package.json -->
<g id="edge16" class="edge">
<title>index.js&#45;&gt;../package.json</title>
<path fill="none" stroke="#242424" d="M1173.6684,-1582.6896C1000.8961,-1578.9469 403.5815,-1558.7873 247.7349,-1457.4848 222.0052,-1440.7601 202.2812,-1414.1797 187.7606,-1387.8457"/>
<polygon fill="#242424" stroke="#242424" points="190.8135,-1386.1319 183.0345,-1378.939 184.6301,-1389.4131 190.8135,-1386.1319"/>
</g>
<!-- index.js&#45;&gt;array.js -->
<g id="edge17" class="edge">
<title>index.js&#45;&gt;array.js</title>
<path fill="none" stroke="#242424" d="M1173.5865,-1581.8357C1037.0196,-1575.9495 645.9681,-1551.0735 568.7349,-1457.4848 482.298,-1352.7433 550.0287,-1286.438 568.7349,-1151.9307 575.2732,-1104.9168 590.4814,-1053.1977 603.0976,-1015.5442"/>
<polygon fill="#242424" stroke="#242424" points="606.5052,-1016.3946 606.4097,-1005.8002 599.8776,-1014.1418 606.5052,-1016.3946"/>
</g>
<!-- index.js&#45;&gt;filter.js -->
<g id="edge19" class="edge">
<title>index.js&#45;&gt;filter.js</title>
<path fill="none" stroke="#242424" d="M1173.6346,-1582.4894C1030.688,-1578.3548 606.4822,-1557.7045 522.7349,-1457.4848 341.6157,-1240.7408 546.312,-869.6796 632.3057,-734.2015"/>
<polygon fill="#242424" stroke="#242424" points="635.3531,-735.9327 637.7929,-725.6226 629.4561,-732.1609 635.3531,-735.9327"/>
</g>
<!-- index.js&#45;&gt;choice.js -->
<g id="edge18" class="edge">
<title>index.js&#45;&gt;choice.js</title>
<path fill="none" stroke="#242424" d="M1268.011,-1580.9436C1397.5285,-1572.8866 1753.1822,-1543.221 1824.7349,-1457.4848 1914.1012,-1350.4039 1871.8373,-908.6449 1852.5337,-744.5203"/>
<polygon fill="#242424" stroke="#242424" points="1855.9531,-743.6346 1851.2971,-734.1177 1849.0021,-744.461 1855.9531,-743.6346"/>
</g>
<!-- index.js&#45;&gt;flip.js -->
<g id="edge20" class="edge">
<title>index.js&#45;&gt;flip.js</title>
<path fill="none" stroke="#242424" d="M1267.7311,-1580.7351C1428.4379,-1570.7 1954.3689,-1532.7108 2103.7349,-1457.4848 2318.3354,-1349.4046 2347.1904,-1270.6433 2483.7349,-1072.9307 2496.8819,-1053.8942 2508.0641,-1030.9249 2516.5776,-1010.8017"/>
<polygon fill="#242424" stroke="#242424" points="2519.844,-1012.0612 2520.4188,-1001.482 2513.3722,-1009.3937 2519.844,-1012.0612"/>
</g>
<!-- index.js&#45;&gt;future.js -->
<g id="edge21" class="edge">
<title>index.js&#45;&gt;future.js</title>
<path fill="none" stroke="#242424" d="M1173.6433,-1581.9818C966.3366,-1574.854 141.9581,-1541.3689 66.7349,-1457.4848 -61.3842,-1314.6145 29.4296,-687.5619 62.2225,-488.1093"/>
<polygon fill="#242424" stroke="#242424" points="65.6995,-488.5354 63.8789,-478.0982 58.7934,-487.3927 65.6995,-488.5354"/>
</g>
<!-- katsu&#45;curry/lib/utils/length.js -->
<g id="node14" class="node">
<title>katsu&#45;curry/lib/utils/length.js</title>
<ellipse fill="none" stroke="#0c821d" stroke-width="4" cx="760.7349" cy="-1304.7078" rx="152.5545" ry="152.5545"/>
<text text-anchor="middle" x="760.7349" y="-1302.3078" font-family="Fira Code" font-size="12.00" fill="#0c821d">katsu&#45;curry/lib/utils/length.js</text>
</g>
<!-- index.js&#45;&gt;katsu&#45;curry/lib/utils/length.js -->
<g id="edge15" class="edge">
<title>index.js&#45;&gt;katsu&#45;curry/lib/utils/length.js</title>
<path fill="none" stroke="#242424" d="M1175.7444,-1569.423C1116.1623,-1549.6424 1009.1309,-1510.0657 927.7349,-1457.4848 910.432,-1446.3073 893.2127,-1433.3012 876.7685,-1419.6842"/>
<polygon fill="#242424" stroke="#242424" points="878.6687,-1416.7094 868.7611,-1412.9558 874.1655,-1422.0686 878.6687,-1416.7094"/>
</g>
<!-- iterate.js -->
<g id="node15" class="node">
<title>iterate.js</title>
<ellipse fill="none" stroke="#242424" stroke-width="4" cx="1642.7349" cy="-682.756" rx="56.412" ry="56.412"/>
<text text-anchor="middle" x="1642.7349" y="-680.356" font-family="Fira Code" font-size="12.00" fill="#242424">iterate.js</text>
</g>
<!-- index.js&#45;&gt;iterate.js -->
<g id="edge22" class="edge">
<title>index.js&#45;&gt;iterate.js</title>
<path fill="none" stroke="#242424" d="M1267.7862,-1578.3176C1377.8033,-1565.1485 1646.5763,-1526.4362 1699.7349,-1457.4848 1741.1932,-1403.7098 1714.8292,-1218.1326 1699.7349,-1151.9307 1691.0738,-1113.9437 1671.3176,-1110.6957 1661.7349,-1072.9307 1633.5995,-962.0499 1634.2919,-827.8956 1638.0379,-749.2753"/>
<polygon fill="#242424" stroke="#242424" points="1641.5465,-749.1933 1638.5586,-739.0286 1634.5555,-748.838 1641.5465,-749.1933"/>
</g>
<!-- map.js -->
<g id="node16" class="node">
<title>map.js</title>
<ellipse fill="none" stroke="#242424" stroke-width="4" cx="345.7349" cy="-426.9638" rx="37.623" ry="37.623"/>
<text text-anchor="middle" x="345.7349" y="-424.5638" font-family="Fira Code" font-size="12.00" fill="#242424">map.js</text>
</g>
<!-- index.js&#45;&gt;map.js -->
<g id="edge23" class="edge">
<title>index.js&#45;&gt;map.js</title>
<path fill="none" stroke="#242424" d="M1173.9126,-1579.1785C1014.0741,-1564.0074 497.0675,-1511.1296 446.7349,-1457.4848 180.8892,-1174.1447 291.9377,-634.7047 332.9763,-473.5488"/>
<polygon fill="#242424" stroke="#242424" points="336.4629,-474.0449 335.5735,-463.4875 329.6851,-472.2953 336.4629,-474.0449"/>
</g>
<!-- math.js -->
<g id="node17" class="node">
<title>math.js</title>
<ellipse fill="none" stroke="#242424" stroke-width="4" cx="1956.7349" cy="-682.756" rx="42.3196" ry="42.3196"/>
<text text-anchor="middle" x="1956.7349" y="-680.356" font-family="Fira Code" font-size="12.00" fill="#242424">math.js</text>
</g>
<!-- index.js&#45;&gt;math.js -->
<g id="edge24" class="edge">
<title>index.js&#45;&gt;math.js</title>
<path fill="none" stroke="#242424" d="M1267.8395,-1581.261C1402.4416,-1573.8555 1784.3027,-1545.3542 1865.7349,-1457.4848 1963.0319,-1352.4966 1961.6923,-892.634 1958.2714,-735.5625"/>
<polygon fill="#242424" stroke="#242424" points="1961.7626,-735.1398 1958.0334,-725.223 1954.7645,-735.3009 1961.7626,-735.1398"/>
</g>
<!-- path.js -->
<g id="node18" class="node">
<title>path.js</title>
<ellipse fill="none" stroke="#242424" stroke-width="4" cx="1255.7349" cy="-1304.7078" rx="42.3196" ry="42.3196"/>
<text text-anchor="middle" x="1255.7349" y="-1302.3078" font-family="Fira Code" font-size="12.00" fill="#242424">path.js</text>
</g>
<!-- index.js&#45;&gt;path.js -->
<g id="edge25" class="edge">
<title>index.js&#45;&gt;path.js</title>
<path fill="none" stroke="#242424" d="M1226.5931,-1536.8307C1232.8326,-1487.1317 1242.6855,-1408.6503 1249.1794,-1356.9242"/>
<polygon fill="#242424" stroke="#242424" points="1252.6583,-1357.3103 1250.4314,-1346.9522 1245.7129,-1356.4383 1252.6583,-1357.3103"/>
</g>
<!-- random&#45;floor.js -->
<g id="node19" class="node">
<title>random&#45;floor.js</title>
<ellipse fill="none" stroke="#242424" stroke-width="4" cx="975.7349" cy="-682.756" rx="79.3981" ry="79.3981"/>
<text text-anchor="middle" x="975.7349" y="-680.356" font-family="Fira Code" font-size="12.00" fill="#242424">random&#45;floor.js</text>
</g>
<!-- index.js&#45;&gt;random&#45;floor.js -->
<g id="edge26" class="edge">
<title>index.js&#45;&gt;random&#45;floor.js</title>
<path fill="none" stroke="#242424" d="M1174.1654,-1576.1845C1112.9232,-1563.7995 1007.6111,-1532.2945 960.7349,-1457.4848 890.6208,-1345.5896 936.8619,-949.7203 962.2352,-771.2102"/>
<polygon fill="#242424" stroke="#242424" points="965.7352,-771.4587 963.6883,-761.0635 958.8059,-770.4663 965.7352,-771.4587"/>
</g>
<!-- random&#45;shuffle.js -->
<g id="node20" class="node">
<title>random&#45;shuffle.js</title>
<ellipse fill="none" stroke="#0c821d" stroke-width="4" cx="1404.7349" cy="-1304.7078" rx="88.2923" ry="88.2923"/>
<text text-anchor="middle" x="1404.7349" y="-1302.3078" font-family="Fira Code" font-size="12.00" fill="#0c821d">random&#45;shuffle.js</text>
</g>
<!-- index.js&#45;&gt;random&#45;shuffle.js -->
<g id="edge27" class="edge">
<title>index.js&#45;&gt;random&#45;shuffle.js</title>
<path fill="none" stroke="#242424" d="M1247.5606,-1544.8025C1264.6724,-1519.9717 1287.2213,-1486.9713 1306.7349,-1457.4848 1321.5386,-1435.1154 1337.3331,-1410.73 1351.8226,-1388.1428"/>
<polygon fill="#242424" stroke="#242424" points="1354.8597,-1389.8903 1357.3071,-1379.582 1348.9655,-1386.1142 1354.8597,-1389.8903"/>
</g>
<!-- random&#45;take.js -->
<g id="node21" class="node">
<title>random&#45;take.js</title>
<ellipse fill="none" stroke="#242424" stroke-width="4" cx="1147.7349" cy="-961.5414" rx="74.7005" ry="74.7005"/>
<text text-anchor="middle" x="1147.7349" y="-959.1414" font-family="Fira Code" font-size="12.00" fill="#242424">random&#45;take.js</text>
</g>
<!-- index.js&#45;&gt;random&#45;take.js -->
<g id="edge28" class="edge">
<title>index.js&#45;&gt;random&#45;take.js</title>
<path fill="none" stroke="#242424" d="M1206.4073,-1538.4529C1199.3816,-1514.6202 1191.4393,-1484.7253 1186.7349,-1457.4848 1162.0702,-1314.6652 1152.9833,-1145.9804 1149.6498,-1046.7094"/>
<polygon fill="#242424" stroke="#242424" points="1153.139,-1046.3165 1149.317,-1036.435 1146.1426,-1046.5431 1153.139,-1046.3165"/>
</g>
<!-- random&#45;word.js -->
<g id="node22" class="node">
<title>random&#45;word.js</title>
<ellipse fill="none" stroke="#242424" stroke-width="4" cx="1044.7349" cy="-1304.7078" rx="74.7005" ry="74.7005"/>
<text text-anchor="middle" x="1044.7349" y="-1302.3078" font-family="Fira Code" font-size="12.00" fill="#242424">random&#45;word.js</text>
</g>
<!-- index.js&#45;&gt;random&#45;word.js -->
<g id="edge29" class="edge">
<title>index.js&#45;&gt;random&#45;word.js</title>
<path fill="none" stroke="#242424" d="M1193.108,-1545.1261C1175.6048,-1520.4225 1152.7631,-1487.4423 1133.7349,-1457.4848 1117.6876,-1432.2204 1100.9535,-1404.0385 1086.3837,-1378.8264"/>
<polygon fill="#242424" stroke="#242424" points="1089.3486,-1376.9613 1081.3251,-1370.0421 1083.2825,-1380.4546 1089.3486,-1376.9613"/>
</g>
<!-- random.js -->
<g id="node23" class="node">
<title>random.js</title>
<ellipse fill="none" stroke="#0c821d" stroke-width="4" cx="1638.7349" cy="-1304.7078" rx="51.7142" ry="51.7142"/>
<text text-anchor="middle" x="1638.7349" y="-1302.3078" font-family="Fira Code" font-size="12.00" fill="#0c821d">random.js</text>
</g>
<!-- index.js&#45;&gt;random.js -->
<g id="edge30" class="edge">
<title>index.js&#45;&gt;random.js</title>
<path fill="none" stroke="#242424" d="M1267.6312,-1578.6273C1341.5006,-1568.6197 1485.5057,-1539.3009 1572.7349,-1457.4848 1598.7866,-1433.0498 1615.0683,-1396.5881 1624.9407,-1365.413"/>
<polygon fill="#242424" stroke="#242424" points="1628.394,-1366.0834 1627.9251,-1355.499 1621.6911,-1364.0656 1628.394,-1366.0834"/>
</g>
<!-- reduce.js -->
<g id="node24" class="node">
<title>reduce.js</title>
<ellipse fill="none" stroke="#242424" stroke-width="4" cx="1291.7349" cy="-961.5414" rx="51.7142" ry="51.7142"/>
<text text-anchor="middle" x="1291.7349" y="-959.1414" font-family="Fira Code" font-size="12.00" fill="#242424">reduce.js</text>
</g>
<!-- index.js&#45;&gt;reduce.js -->
<g id="edge31" class="edge">
<title>index.js&#45;&gt;reduce.js</title>
<path fill="none" stroke="#242424" d="M1211.546,-1537.1557C1197.378,-1457.3967 1174.7973,-1289.4769 1204.7349,-1151.9307 1210.6222,-1124.8822 1240.3123,-1062.6028 1263.3905,-1016.6027"/>
<polygon fill="#242424" stroke="#242424" points="1266.5349,-1018.1404 1267.909,-1007.635 1260.2836,-1014.9905 1266.5349,-1018.1404"/>
</g>
<!-- reject.js -->
<g id="node25" class="node">
<title>reject.js</title>
<ellipse fill="none" stroke="#242424" stroke-width="4" cx="739.7349" cy="-961.5414" rx="51.7142" ry="51.7142"/>
<text text-anchor="middle" x="739.7349" y="-959.1414" font-family="Fira Code" font-size="12.00" fill="#242424">reject.js</text>
</g>
<!-- index.js&#45;&gt;reject.js -->
<g id="edge32" class="edge">
<title>index.js&#45;&gt;reject.js</title>
<path fill="none" stroke="#242424" d="M1173.3824,-1581.3492C1040.9543,-1574.2657 671.7075,-1546.723 598.7349,-1457.4848 555.7518,-1404.9207 572.5532,-1214.5809 598.7349,-1151.9307 618.0026,-1105.8249 648.6391,-1112.8209 678.7349,-1072.9307 691.6303,-1055.8386 703.5199,-1035.6855 713.3113,-1017.2531"/>
<polygon fill="#242424" stroke="#242424" points="716.4262,-1018.8491 717.9446,-1008.3636 710.2188,-1015.6137 716.4262,-1018.8491"/>
</g>
<!-- string.js -->
<g id="node26" class="node">
<title>string.js</title>
<ellipse fill="none" stroke="#242424" stroke-width="4" cx="199.7349" cy="-426.9638" rx="51.7142" ry="51.7142"/>
<text text-anchor="middle" x="199.7349" y="-424.5638" font-family="Fira Code" font-size="12.00" fill="#242424">string.js</text>
</g>
<!-- index.js&#45;&gt;string.js -->
<g id="edge33" class="edge">
<title>index.js&#45;&gt;string.js</title>
<path fill="none" stroke="#242424" d="M1173.798,-1580.4697C994.2947,-1568.4594 358.2688,-1521.6388 296.7349,-1457.4848 262.9828,-1422.2955 216.728,-705.8534 203.4406,-488.768"/>
<polygon fill="#242424" stroke="#242424" points="206.9172,-488.2775 202.8145,-478.5093 199.9302,-488.704 206.9172,-488.2775"/>
</g>
<!-- ternary.js -->
<g id="node27" class="node">
<title>ternary.js</title>
<ellipse fill="none" stroke="#242424" stroke-width="4" cx="1474.7349" cy="-682.756" rx="56.412" ry="56.412"/>
<text text-anchor="middle" x="1474.7349" y="-680.356" font-family="Fira Code" font-size="12.00" fill="#242424">ternary.js</text>
</g>
<!-- index.js&#45;&gt;ternary.js -->
<g id="edge34" class="edge">
<title>index.js&#45;&gt;ternary.js</title>
<path fill="none" stroke="#242424" d="M1267.5901,-1577.9541C1333.061,-1567.4162 1449.7186,-1537.8173 1501.7349,-1457.4848 1576.8316,-1341.5078 1514.0961,-913.1938 1486.3172,-748.1727"/>
<polygon fill="#242424" stroke="#242424" points="1489.7419,-747.4334 1484.62,-738.159 1482.8404,-748.6033 1489.7419,-747.4334"/>
</g>
<!-- triplet.js -->
<g id="node28" class="node">
<title>triplet.js</title>
<ellipse fill="none" stroke="#242424" stroke-width="4" cx="1726.7349" cy="-961.5414" rx="56.412" ry="56.412"/>
<text text-anchor="middle" x="1726.7349" y="-959.1414" font-family="Fira Code" font-size="12.00" fill="#242424">triplet.js</text>
</g>
<!-- index.js&#45;&gt;triplet.js -->
<g id="edge35" class="edge">
<title>index.js&#45;&gt;triplet.js</title>
<path fill="none" stroke="#242424" d="M1267.5502,-1579.1907C1382.7836,-1567.5352 1674.9966,-1531.156 1732.7349,-1457.4848 1831.6592,-1331.2624 1783.4713,-1126.2084 1749.8645,-1023.8297"/>
<polygon fill="#242424" stroke="#242424" points="1753.1519,-1022.6241 1746.6632,-1014.2487 1746.5128,-1024.8425 1753.1519,-1022.6241"/>
</g>
<!-- types.js -->
<g id="node29" class="node">
<title>types.js</title>
<ellipse fill="none" stroke="#242424" stroke-width="4" cx="1543.7349" cy="-426.9638" rx="47.0167" ry="47.0167"/>
<text text-anchor="middle" x="1543.7349" y="-424.5638" font-family="Fira Code" font-size="12.00" fill="#242424">types.js</text>
</g>
<!-- index.js&#45;&gt;types.js -->
<g id="edge36" class="edge">
<title>index.js&#45;&gt;types.js</title>
<path fill="none" stroke="#242424" d="M1267.8322,-1580.1972C1339.3273,-1572.3721 1473.3047,-1546.0272 1533.7349,-1457.4848 1588.6007,-1377.0954 1557.4227,-688.8679 1546.8322,-484.1648"/>
<polygon fill="#242424" stroke="#242424" points="1550.3147,-483.7359 1546.299,-473.9315 1543.3242,-484.1001 1550.3147,-483.7359"/>
</g>
<!-- which.js -->
<g id="node30" class="node">
<title>which.js</title>
<ellipse fill="none" stroke="#242424" stroke-width="4" cx="2047.7349" cy="-1304.7078" rx="47.0167" ry="47.0167"/>
<text text-anchor="middle" x="2047.7349" y="-1302.3078" font-family="Fira Code" font-size="12.00" fill="#242424">which.js</text>
</g>
<!-- index.js&#45;&gt;which.js -->
<g id="edge37" class="edge">
<title>index.js&#45;&gt;which.js</title>
<path fill="none" stroke="#242424" d="M1267.777,-1579.7749C1408.3525,-1567.9637 1822.5426,-1527.8723 1935.7349,-1457.4848 1974.4472,-1433.412 2004.0732,-1390.6173 2023.1029,-1356.4326"/>
<polygon fill="#242424" stroke="#242424" points="2026.2598,-1357.9531 2027.9496,-1347.4939 2020.1062,-1354.6165 2026.2598,-1357.9531"/>
</g>
<!-- iterate.js&#45;&gt;katsu&#45;curry/katsu&#45;curry.js -->
<g id="edge38" class="edge">
<title>iterate.js&#45;&gt;katsu&#45;curry/katsu&#45;curry.js</title>
<path fill="none" stroke="#242424" d="M1644.8991,-626.4177C1645.5665,-556.2045 1639.9612,-433.8513 1599.7349,-338.5677 1583.3421,-299.7382 1557.5672,-262.1864 1531.1285,-229.8913"/>
<polygon fill="#242424" stroke="#242424" points="1533.4825,-227.2479 1524.3978,-221.7963 1528.1,-231.7233 1533.4825,-227.2479"/>
</g>
<!-- map.js&#45;&gt;entrust/entrust.js -->
<g id="edge39" class="edge">
<title>map.js&#45;&gt;entrust/entrust.js</title>
<path fill="none" stroke="#242424" d="M328.9869,-392.8735C308.724,-351.6289 273.7895,-280.5204 245.3445,-222.6212"/>
<polygon fill="#242424" stroke="#242424" points="248.3891,-220.8807 240.8382,-213.4487 242.1063,-223.9674 248.3891,-220.8807"/>
</g>
<!-- map.js&#45;&gt;fantasy&#45;land/index.js -->
<g id="edge40" class="edge">
<title>map.js&#45;&gt;fantasy&#45;land/index.js</title>
<path fill="none" stroke="#242424" d="M361.2308,-392.4645C369.5256,-375.5479 380.5389,-355.2727 392.7349,-338.5677 421.6457,-298.9683 436.3562,-295.4817 469.7349,-259.5677 482.099,-246.2645 495.0222,-232.0239 507.5543,-218.0264"/>
<polygon fill="#242424" stroke="#242424" points="510.4196,-220.0724 514.4703,-210.2825 505.1986,-215.4096 510.4196,-220.0724"/>
</g>
<!-- map.js&#45;&gt;katsu&#45;curry/katsu&#45;curry.js -->
<g id="edge42" class="edge">
<title>map.js&#45;&gt;katsu&#45;curry/katsu&#45;curry.js</title>
<path fill="none" stroke="#242424" d="M356.7273,-390.5171C364.069,-372.242 375.5887,-351.3369 392.7349,-338.5677 428.9469,-311.5997 1020.1617,-203.3972 1294.6733,-154.2691"/>
<polygon fill="#242424" stroke="#242424" points="1295.4762,-157.6811 1304.7037,-152.475 1294.2437,-150.7904 1295.4762,-157.6811"/>
</g>
<!-- fast.js/map.js -->
<g id="node31" class="node">
<title>fast.js/map.js</title>
<ellipse fill="none" stroke="#0c821d" stroke-width="4" cx="385.7349" cy="-129.7839" rx="74.7005" ry="74.7005"/>
<text text-anchor="middle" x="385.7349" y="-127.3839" font-family="Fira Code" font-size="12.00" fill="#0c821d">fast.js/map.js</text>
</g>
<!-- map.js&#45;&gt;fast.js/map.js -->
<g id="edge41" class="edge">
<title>map.js&#45;&gt;fast.js/map.js</title>
<path fill="none" stroke="#242424" d="M350.8009,-389.3258C356.7009,-345.4924 366.6291,-271.7307 374.3967,-214.0209"/>
<polygon fill="#242424" stroke="#242424" points="377.9058,-214.1871 375.7712,-203.8096 370.9684,-213.2533 377.9058,-214.1871"/>
</g>
<!-- math.js&#45;&gt;katsu&#45;curry/katsu&#45;curry.js -->
<g id="edge43" class="edge">
<title>math.js&#45;&gt;katsu&#45;curry/katsu&#45;curry.js</title>
<path fill="none" stroke="#242424" d="M1950.1139,-640.7784C1937.1133,-570.5925 1902.2768,-428.2998 1822.7349,-338.5677 1753.9896,-261.0154 1649.3561,-207.2104 1565.7697,-173.6656"/>
<polygon fill="#242424" stroke="#242424" points="1567.0473,-170.4071 1556.4612,-169.9783 1564.4693,-176.9151 1567.0473,-170.4071"/>
</g>
<!-- path.js&#45;&gt;katsu&#45;curry/katsu&#45;curry.js -->
<g id="edge44" class="edge">
<title>path.js&#45;&gt;katsu&#45;curry/katsu&#45;curry.js</title>
<path fill="none" stroke="#242424" d="M1267.3767,-1263.6937C1276.7925,-1232.4627 1291.1758,-1188.7219 1307.7349,-1151.9307 1324.3194,-1115.0831 1340.7473,-1111.5194 1352.7349,-1072.9307 1375.9206,-998.2952 1408.8248,-513.7578 1424.1998,-269.7444"/>
<polygon fill="#242424" stroke="#242424" points="1427.6945,-269.9377 1424.829,-259.7377 1420.7083,-269.4983 1427.6945,-269.9377"/>
</g>
<!-- path.js&#45;&gt;reduce.js -->
<g id="edge45" class="edge">
<title>path.js&#45;&gt;reduce.js</title>
<path fill="none" stroke="#242424" d="M1260.1853,-1262.2846C1266.4749,-1202.3297 1278.0034,-1092.4358 1285.2468,-1023.3888"/>
<polygon fill="#242424" stroke="#242424" points="1288.7646,-1023.4012 1286.3271,-1013.0905 1281.8028,-1022.6708 1288.7646,-1023.4012"/>
</g>
<!-- random&#45;floor.js&#45;&gt;katsu&#45;curry/katsu&#45;curry.js -->
<g id="edge46" class="edge">
<title>random&#45;floor.js&#45;&gt;katsu&#45;curry/katsu&#45;curry.js</title>
<path fill="none" stroke="#242424" d="M996.343,-606.1326C1023.5785,-504.9178 1068.21,-339.2484 1068.7349,-338.5677 1127.4145,-262.4841 1222.245,-209.3799 1300.4024,-175.7718"/>
<polygon fill="#242424" stroke="#242424" points="1302.0056,-178.8938 1309.8476,-171.7697 1299.2746,-172.4486 1302.0056,-178.8938"/>
</g>
<!-- random&#45;take.js&#45;&gt;katsu&#45;curry/katsu&#45;curry.js -->
<g id="edge47" class="edge">
<title>random&#45;take.js&#45;&gt;katsu&#45;curry/katsu&#45;curry.js</title>
<path fill="none" stroke="#242424" d="M1144.8092,-886.7109C1143.94,-811.2977 1148.3,-692.37 1177.7349,-594.3599 1216.1012,-466.6109 1292.7924,-334.5615 1352.0971,-244.0516"/>
<polygon fill="#242424" stroke="#242424" points="1355.0216,-245.9744 1357.5988,-235.6977 1349.1755,-242.1242 1355.0216,-245.9744"/>
</g>
<!-- random&#45;take.js&#45;&gt;iterate.js -->
<g id="edge48" class="edge">
<title>random&#45;take.js&#45;&gt;iterate.js</title>
<path fill="none" stroke="#242424" d="M1184.8509,-896.4338C1197.4394,-879.2036 1212.904,-862.1002 1230.7349,-850.1521 1348.4929,-771.2453 1413.988,-836.581 1539.7349,-771.1521 1560.0379,-760.588 1579.761,-745.3161 1596.4219,-730.4292"/>
<polygon fill="#242424" stroke="#242424" points="1598.8345,-732.9658 1603.8525,-723.6346 1594.1107,-727.7999 1598.8345,-732.9658"/>
</g>
<!-- random&#45;take.js&#45;&gt;random&#45;floor.js -->
<g id="edge49" class="edge">
<title>random&#45;take.js&#45;&gt;random&#45;floor.js</title>
<path fill="none" stroke="#242424" d="M1108.4902,-897.9318C1083.0214,-856.6508 1049.6924,-802.6296 1022.801,-759.0429"/>
<polygon fill="#242424" stroke="#242424" points="1025.7423,-757.1443 1017.5128,-750.4715 1019.7849,-760.8199 1025.7423,-757.1443"/>
</g>
<!-- random&#45;word.js&#45;&gt;katsu&#45;curry/katsu&#45;curry.js -->
<g id="edge50" class="edge">
<title>random&#45;word.js&#45;&gt;katsu&#45;curry/katsu&#45;curry.js</title>
<path fill="none" stroke="#242424" d="M1042.6462,-1229.7853C1041.3207,-1139.2564 1042.8687,-982.5952 1063.7349,-850.1521 1100.4582,-617.06 1082.6064,-539.8632 1205.7349,-338.5677 1235.0014,-290.7218 1278.323,-247.075 1319.2978,-212.2017"/>
<polygon fill="#242424" stroke="#242424" points="1321.7845,-214.6837 1327.1866,-205.5695 1317.2799,-209.3256 1321.7845,-214.6837"/>
</g>
<!-- random&#45;word.js&#45;&gt;array.js -->
<g id="edge51" class="edge">
<title>random&#45;word.js&#45;&gt;array.js</title>
<path fill="none" stroke="#242424" d="M1006.1223,-1240.3991C984.8956,-1209.8238 956.0965,-1175.0018 922.7349,-1151.9307 828.9825,-1087.0965 765.2495,-1147.148 678.7349,-1072.9307 661.3619,-1058.0271 648.786,-1036.4284 640.0086,-1016.2094"/>
<polygon fill="#242424" stroke="#242424" points="643.1561,-1014.6602 636.1202,-1006.739 636.6807,-1017.319 643.1561,-1014.6602"/>
</g>
<!-- random&#45;word.js&#45;&gt;random&#45;take.js -->
<g id="edge52" class="edge">
<title>random&#45;word.js&#45;&gt;random&#45;take.js</title>
<path fill="none" stroke="#242424" d="M1066.2017,-1233.1866C1082.8382,-1177.7587 1105.9018,-1100.9172 1123.2552,-1043.1007"/>
<polygon fill="#242424" stroke="#242424" points="1126.6847,-1043.8493 1126.2073,-1033.2652 1119.9802,-1041.8369 1126.6847,-1043.8493"/>
</g>
<!-- reduce.js&#45;&gt;delegate&#45;fast.js -->
<g id="edge54" class="edge">
<title>reduce.js&#45;&gt;delegate&#45;fast.js</title>
<path fill="none" stroke="#242424" d="M1268.2821,-915.405C1257.6109,-895.1131 1244.5274,-871.1658 1231.7349,-850.1521 1209.6197,-813.8243 1201.2611,-806.5824 1177.7349,-771.1521 1126.0173,-693.2655 1126.2053,-663.9192 1063.7349,-594.3599 1025.3739,-551.6459 975.503,-510.971 934.3241,-480.4133"/>
<polygon fill="#242424" stroke="#242424" points="936.3381,-477.5499 926.2102,-474.4391 932.1877,-483.1867 936.3381,-477.5499"/>
</g>
<!-- fast.js/reduce.js -->
<g id="node32" class="node">
<title>fast.js/reduce.js</title>
<ellipse fill="none" stroke="#0c821d" stroke-width="4" cx="1274.7349" cy="-682.756" rx="88.2923" ry="88.2923"/>
<text text-anchor="middle" x="1274.7349" y="-680.356" font-family="Fira Code" font-size="12.00" fill="#0c821d">fast.js/reduce.js</text>
</g>
<!-- reduce.js&#45;&gt;fast.js/reduce.js -->
<g id="edge53" class="edge">
<title>reduce.js&#45;&gt;fast.js/reduce.js</title>
<path fill="none" stroke="#242424" d="M1288.5772,-909.7574C1286.3813,-873.747 1283.3855,-824.6183 1280.7424,-781.2741"/>
<polygon fill="#242424" stroke="#242424" points="1284.234,-781.0278 1280.1318,-771.2594 1277.247,-781.454 1284.234,-781.0278"/>
</g>
<!-- reject.js&#45;&gt;katsu&#45;curry/katsu&#45;curry.js -->
<g id="edge55" class="edge">
<title>reject.js&#45;&gt;katsu&#45;curry/katsu&#45;curry.js</title>
<path fill="none" stroke="#242424" d="M768.033,-918.1606C791.4568,-880.5864 824.1233,-824.0905 844.7349,-771.1521 874.0744,-695.7973 844.9284,-662.9658 887.7349,-594.3599 916.8038,-547.7712 954.2945,-562.3349 982.7349,-515.3599 1024.3589,-446.6096 971.6667,-402.2189 1020.7349,-338.5677 1089.0607,-249.9357 1205.3358,-195.8905 1296.9736,-165.0628"/>
<polygon fill="#242424" stroke="#242424" points="1298.2118,-168.3398 1306.6069,-161.8766 1296.0136,-161.6939 1298.2118,-168.3398"/>
</g>
<!-- reject.js&#45;&gt;filter.js -->
<g id="edge56" class="edge">
<title>reject.js&#45;&gt;filter.js</title>
<path fill="none" stroke="#242424" d="M726.5997,-911.3782C714.208,-864.0545 695.6179,-793.0595 682.4463,-742.7573"/>
<polygon fill="#242424" stroke="#242424" points="685.8067,-741.7732 679.8876,-732.986 679.035,-743.5464 685.8067,-741.7732"/>
</g>
<!-- string.js&#45;&gt;entrust/entrust.js -->
<g id="edge57" class="edge">
<title>string.js&#45;&gt;entrust/entrust.js</title>
<path fill="none" stroke="#242424" d="M199.7349,-375.199C199.7349,-336.0751 199.7349,-281.0885 199.7349,-233.078"/>
<polygon fill="#242424" stroke="#242424" points="203.235,-232.9471 199.7349,-222.9472 196.235,-232.9472 203.235,-232.9471"/>
</g>
<!-- ternary.js&#45;&gt;katsu&#45;curry/katsu&#45;curry.js -->
<g id="edge58" class="edge">
<title>ternary.js&#45;&gt;katsu&#45;curry/katsu&#45;curry.js</title>
<path fill="none" stroke="#242424" d="M1470.4766,-626.691C1464.1643,-543.5836 1452.1253,-385.078 1443.3365,-269.3646"/>
<polygon fill="#242424" stroke="#242424" points="1446.824,-269.0651 1442.5766,-259.359 1439.8441,-269.5953 1446.824,-269.0651"/>
</g>
<!-- triplet.js&#45;&gt;katsu&#45;curry/katsu&#45;curry.js -->
<g id="edge59" class="edge">
<title>triplet.js&#45;&gt;katsu&#45;curry/katsu&#45;curry.js</title>
<path fill="none" stroke="#242424" d="M1731.5943,-905.5041C1738.8726,-790.7395 1741.8474,-524.1593 1634.7349,-338.5677 1609.8449,-295.4413 1574.1095,-254.5264 1539.5956,-220.5314"/>
<polygon fill="#242424" stroke="#242424" points="1541.8605,-217.8516 1532.2536,-213.3839 1536.9776,-222.8674 1541.8605,-217.8516"/>
</g>
<!-- types.js&#45;&gt;katsu&#45;curry/katsu&#45;curry.js -->
<g id="edge60" class="edge">
<title>types.js&#45;&gt;katsu&#45;curry/katsu&#45;curry.js</title>
<path fill="none" stroke="#242424" d="M1527.237,-382.7939C1515.1682,-350.4823 1498.1241,-304.8502 1481.8271,-261.2181"/>
<polygon fill="#242424" stroke="#242424" points="1485.0318,-259.7951 1478.254,-251.6519 1478.4743,-262.2445 1485.0318,-259.7951"/>
</g>
<!-- which.js&#45;&gt;katsu&#45;curry/katsu&#45;curry.js -->
<g id="edge63" class="edge">
<title>which.js&#45;&gt;katsu&#45;curry/katsu&#45;curry.js</title>
<path fill="none" stroke="#242424" d="M2038.4917,-1258.3308C2029.6826,-1211.7091 2017.0047,-1137.6674 2011.7349,-1072.9307 2009.5777,-1046.4302 2013.7931,-620.2487 2007.7349,-594.3599 1978.948,-471.344 1973.8631,-427.1031 1883.7349,-338.5677 1795.9462,-252.3305 1665.9889,-197.3786 1568.0991,-165.6197"/>
<polygon fill="#242424" stroke="#242424" points="1569.0204,-162.2397 1558.4294,-162.5239 1566.886,-168.9064 1569.0204,-162.2397"/>
</g>
<!-- which.js&#45;&gt;flip.js -->
<g id="edge64" class="edge">
<title>which.js&#45;&gt;flip.js</title>
<path fill="none" stroke="#242424" d="M2086.9594,-1278.2414C2135.3263,-1246.1977 2220.614,-1191.6011 2297.7349,-1151.9307 2377.602,-1110.8477 2419.3526,-1135.5524 2483.7349,-1072.9307 2500.7246,-1056.4056 2512.5867,-1033.1613 2520.5661,-1012.1785"/>
<polygon fill="#242424" stroke="#242424" points="2523.8737,-1013.3236 2523.9636,-1002.7292 2517.2865,-1010.9552 2523.8737,-1013.3236"/>
</g>
<!-- which.js&#45;&gt;triplet.js -->
<g id="edge65" class="edge">
<title>which.js&#45;&gt;triplet.js</title>
<path fill="none" stroke="#242424" d="M2015.4865,-1270.2324C1958.0392,-1208.8182 1837.8622,-1080.3425 1772.108,-1010.0477"/>
<polygon fill="#242424" stroke="#242424" points="1774.5301,-1007.5135 1765.1427,-1002.6014 1769.4179,-1012.2954 1774.5301,-1007.5135"/>
</g>
<!-- fast.js/array/every.js -->
<g id="node33" class="node">
<title>fast.js/array/every.js</title>
<ellipse fill="none" stroke="#0c821d" stroke-width="4" cx="2131.7349" cy="-961.5414" rx="111.2787" ry="111.2787"/>
<text text-anchor="middle" x="2131.7349" y="-959.1414" font-family="Fira Code" font-size="12.00" fill="#0c821d">fast.js/array/every.js</text>
</g>
<!-- which.js&#45;&gt;fast.js/array/every.js -->
<g id="edge61" class="edge">
<title>which.js&#45;&gt;fast.js/array/every.js</title>
<path fill="none" stroke="#242424" d="M2058.9764,-1258.7829C2070.1369,-1213.1888 2087.7116,-1141.3903 2102.7923,-1079.781"/>
<polygon fill="#242424" stroke="#242424" points="2106.2119,-1080.5315 2105.1899,-1069.9861 2099.4126,-1078.8671 2106.2119,-1080.5315"/>
</g>
<!-- fast.js/array/some.js -->
<g id="node34" class="node">
<title>fast.js/array/some.js</title>
<ellipse fill="none" stroke="#0c821d" stroke-width="4" cx="2367.7349" cy="-961.5414" rx="106.5817" ry="106.5817"/>
<text text-anchor="middle" x="2367.7349" y="-959.1414" font-family="Fira Code" font-size="12.00" fill="#0c821d">fast.js/array/some.js</text>
</g>
<!-- which.js&#45;&gt;fast.js/array/some.js -->
<g id="edge62" class="edge">
<title>which.js&#45;&gt;fast.js/array/some.js</title>
<path fill="none" stroke="#242424" d="M2079.8829,-1270.2324C2128.15,-1218.471 2220.8385,-1119.0723 2288.0275,-1047.0192"/>
<polygon fill="#242424" stroke="#242424" points="2290.5968,-1049.396 2294.8569,-1039.6954 2285.4772,-1044.622 2290.5968,-1049.396"/>
</g>
</g>
</svg>
