<?xml version="1.0" encoding="UTF-8" standalone="no"?>
<!DOCTYPE svg PUBLIC "-//W3C//DTD SVG 1.1//EN"
 "http://www.w3.org/Graphics/SVG/1.1/DTD/svg11.dtd">
<!-- Generated by graphviz version 2.40.1 (20161225.0304)
 -->
<!-- Title: G Pages: 1 -->
<svg width="2629pt" height="1628pt"
 viewBox="0.00 0.00 2629.18 1628.09" xmlns="http://www.w3.org/2000/svg" xmlns:xlink="http://www.w3.org/1999/xlink">
<g id="graph0" class="graph" transform="scale(1 1) rotate(0) translate(7.992 1620.0989)">
<title>G</title>
<polygon fill="#eeeeff" stroke="transparent" points="-7.992,7.992 -7.992,-1620.0989 2621.1923,-1620.0989 2621.1923,7.992 -7.992,7.992"/>
<!-- array.js -->
<g id="node1" class="node">
<title>array.js</title>
<ellipse fill="none" stroke="#242424" stroke-width="4" cx="824.7907" cy="-943.1468" rx="47.0167" ry="47.0167"/>
<text text-anchor="middle" x="824.7907" y="-940.7468" font-family="Fira Code" font-size="12.00" fill="#242424">array.js</text>
</g>
<!-- entrust/entrust.js -->
<g id="node2" class="node">
<title>entrust/entrust.js</title>
<ellipse fill="none" stroke="#0c821d" stroke-width="4" cx="512.7907" cy="-129.7839" rx="92.9895" ry="92.9895"/>
<text text-anchor="middle" x="512.7907" y="-127.3839" font-family="Fira Code" font-size="12.00" fill="#0c821d">entrust/entrust.js</text>
</g>
<!-- array.js&#45;&gt;entrust/entrust.js -->
<g id="edge1" class="edge">
<title>array.js&#45;&gt;entrust/entrust.js</title>
<path fill="none" stroke="#242424" d="M828.5738,-896.1614C837.8051,-771.3495 857.153,-434.5039 805.7907,-338.5677 763.4689,-259.5178 676.4774,-203.4714 608.2223,-169.4871"/>
<polygon fill="#242424" stroke="#242424" points="609.6681,-166.298 599.1478,-165.043 606.5892,-172.5846 609.6681,-166.298"/>
</g>
<!-- katsu&#45;curry/katsu&#45;curry.js -->
<g id="node3" class="node">
<title>katsu&#45;curry/katsu&#45;curry.js</title>
<ellipse fill="none" stroke="#0c821d" stroke-width="4" cx="1485.7907" cy="-129.7839" rx="129.5681" ry="129.5681"/>
<text text-anchor="middle" x="1485.7907" y="-127.3839" font-family="Fira Code" font-size="12.00" fill="#0c821d">katsu&#45;curry/katsu&#45;curry.js</text>
</g>
<!-- array.js&#45;&gt;katsu&#45;curry/katsu&#45;curry.js -->
<g id="edge2" class="edge">
<title>array.js&#45;&gt;katsu&#45;curry/katsu&#45;curry.js</title>
<path fill="none" stroke="#242424" d="M847.9925,-902.1886C889.5232,-827.4257 977.1355,-662.9292 1029.7907,-515.3599 1056.9665,-439.198 1022.5326,-401.9182 1072.7907,-338.5677 1142.4782,-250.7262 1258.9275,-196.6096 1350.4421,-165.5534"/>
<polygon fill="#242424" stroke="#242424" points="1351.684,-168.8288 1360.0611,-162.3424 1349.4674,-162.189 1351.684,-168.8288"/>
</g>
<!-- filter.js -->
<g id="node4" class="node">
<title>filter.js</title>
<ellipse fill="none" stroke="#242424" stroke-width="4" cx="708.7907" cy="-673.5587" rx="51.7142" ry="51.7142"/>
<text text-anchor="middle" x="708.7907" y="-671.1587" font-family="Fira Code" font-size="12.00" fill="#242424">filter.js</text>
</g>
<!-- array.js&#45;&gt;filter.js -->
<g id="edge3" class="edge">
<title>array.js&#45;&gt;filter.js</title>
<path fill="none" stroke="#242424" d="M806.1533,-899.8328C786.4187,-853.969 755.1726,-781.352 733.4191,-730.7962"/>
<polygon fill="#242424" stroke="#242424" points="736.5046,-729.1117 729.3371,-721.3093 730.0746,-731.8785 736.5046,-729.1117"/>
</g>
<!-- delegate&#45;fast.js -->
<g id="node6" class="node">
<title>delegate&#45;fast.js</title>
<ellipse fill="none" stroke="#242424" stroke-width="4" cx="936.7907" cy="-426.9638" rx="83.5954" ry="83.5954"/>
<text text-anchor="middle" x="936.7907" y="-424.5638" font-family="Fira Code" font-size="12.00" fill="#242424">delegate&#45;fast.js</text>
</g>
<!-- filter.js&#45;&gt;delegate&#45;fast.js -->
<g id="edge8" class="edge">
<title>filter.js&#45;&gt;delegate&#45;fast.js</title>
<path fill="none" stroke="#242424" d="M743.916,-635.5687C778.2307,-598.4554 831.2464,-541.1159 873.0173,-495.9383"/>
<polygon fill="#242424" stroke="#242424" points="875.6648,-498.2304 879.8838,-488.5118 870.525,-493.4783 875.6648,-498.2304"/>
</g>
<!-- fast.js/filter.js -->
<g id="node7" class="node">
<title>fast.js/filter.js</title>
<ellipse fill="none" stroke="#0c821d" stroke-width="4" cx="708.7907" cy="-426.9638" rx="88.2923" ry="88.2923"/>
<text text-anchor="middle" x="708.7907" y="-424.5638" font-family="Fira Code" font-size="12.00" fill="#0c821d">fast.js/filter.js</text>
</g>
<!-- filter.js&#45;&gt;fast.js/filter.js -->
<g id="edge7" class="edge">
<title>filter.js&#45;&gt;fast.js/filter.js</title>
<path fill="none" stroke="#242424" d="M708.7907,-621.8643C708.7907,-593.9627 708.7907,-558.5745 708.7907,-525.6318"/>
<polygon fill="#242424" stroke="#242424" points="712.2908,-525.4976 708.7907,-515.4977 705.2908,-525.4977 712.2908,-525.4976"/>
</g>
<!-- choice.js -->
<g id="node5" class="node">
<title>choice.js</title>
<ellipse fill="none" stroke="#242424" stroke-width="4" cx="1826.7907" cy="-673.5587" rx="51.7142" ry="51.7142"/>
<text text-anchor="middle" x="1826.7907" y="-671.1587" font-family="Fira Code" font-size="12.00" fill="#242424">choice.js</text>
</g>
<!-- choice.js&#45;&gt;katsu&#45;curry/katsu&#45;curry.js -->
<g id="edge4" class="edge">
<title>choice.js&#45;&gt;katsu&#45;curry/katsu&#45;curry.js</title>
<path fill="none" stroke="#242424" d="M1827.6659,-621.7916C1826.5095,-552.2175 1816.0283,-427.0705 1760.7907,-338.5677 1723.9607,-279.558 1664.0155,-231.1462 1609.4782,-195.8492"/>
<polygon fill="#242424" stroke="#242424" points="1611.089,-192.7253 1600.7761,-190.2973 1607.324,-198.6266 1611.089,-192.7253"/>
</g>
<!-- delegate&#45;fast.js&#45;&gt;entrust/entrust.js -->
<g id="edge5" class="edge">
<title>delegate&#45;fast.js&#45;&gt;entrust/entrust.js</title>
<path fill="none" stroke="#242424" d="M875.9017,-369.2563C863.8982,-358.686 851.1774,-348.0189 838.7907,-338.5677 762.342,-280.237 669.5171,-221.8917 602.5006,-181.7683"/>
<polygon fill="#242424" stroke="#242424" points="604.0143,-178.5958 593.6337,-176.4758 600.4266,-184.6065 604.0143,-178.5958"/>
</g>
<!-- delegate&#45;fast.js&#45;&gt;katsu&#45;curry/katsu&#45;curry.js -->
<g id="edge6" class="edge">
<title>delegate&#45;fast.js&#45;&gt;katsu&#45;curry/katsu&#45;curry.js</title>
<path fill="none" stroke="#242424" d="M996.6865,-367.8586C1008.7815,-357.4171 1021.7901,-347.1549 1034.7907,-338.5677 1135.716,-271.9039 1261.3473,-215.6432 1354.3626,-178.3823"/>
<polygon fill="#242424" stroke="#242424" points="1355.8339,-181.5637 1363.8282,-174.6109 1353.243,-175.0609 1355.8339,-181.5637"/>
</g>
<!-- flip.js -->
<g id="node8" class="node">
<title>flip.js</title>
<ellipse fill="none" stroke="#242424" stroke-width="4" cx="2570.7907" cy="-943.1468" rx="42.3196" ry="42.3196"/>
<text text-anchor="middle" x="2570.7907" y="-940.7468" font-family="Fira Code" font-size="12.00" fill="#242424">flip.js</text>
</g>
<!-- flip.js&#45;&gt;katsu&#45;curry/katsu&#45;curry.js -->
<g id="edge9" class="edge">
<title>flip.js&#45;&gt;katsu&#45;curry/katsu&#45;curry.js</title>
<path fill="none" stroke="#242424" d="M2581.7218,-901.8539C2607.5849,-793.8809 2660.0158,-500.3602 2514.7907,-338.5677 2398.0123,-208.4673 1878.5482,-156.1153 1625.3964,-138.0416"/>
<polygon fill="#242424" stroke="#242424" points="1625.6162,-134.5485 1615.3945,-137.3354 1625.1231,-141.5311 1625.6162,-134.5485"/>
</g>
<!-- future.js -->
<g id="node9" class="node">
<title>future.js</title>
<ellipse fill="none" stroke="#242424" stroke-width="4" cx="391.7907" cy="-426.9638" rx="51.7142" ry="51.7142"/>
<text text-anchor="middle" x="391.7907" y="-424.5638" font-family="Fira Code" font-size="12.00" fill="#242424">future.js</text>
</g>
<!-- future.js&#45;&gt;entrust/entrust.js -->
<g id="edge10" class="edge">
<title>future.js&#45;&gt;entrust/entrust.js</title>
<path fill="none" stroke="#242424" d="M411.3659,-378.8864C428.178,-337.5952 452.9275,-276.8096 473.7691,-225.622"/>
<polygon fill="#242424" stroke="#242424" points="477.083,-226.7643 477.6124,-216.1827 470.5998,-224.1246 477.083,-226.7643"/>
</g>
<!-- index.js -->
<g id="node10" class="node">
<title>index.js</title>
<ellipse fill="none" stroke="#242424" stroke-width="4" cx="1353.7907" cy="-1565.0986" rx="47.0167" ry="47.0167"/>
<text text-anchor="middle" x="1353.7907" y="-1562.6986" font-family="Fira Code" font-size="12.00" fill="#242424">index.js</text>
</g>
<!-- index.js&#45;&gt;array.js -->
<g id="edge13" class="edge">
<title>index.js&#45;&gt;array.js</title>
<path fill="none" stroke="#242424" d="M1306.7895,-1564.2281C1162.5734,-1560.4707 730.9759,-1540.7752 645.7907,-1439.0903 602.1864,-1387.0402 620.7759,-1196.6614 645.7907,-1133.5361 672.1696,-1066.9682 734.0589,-1010.1152 777.6468,-976.3003"/>
<polygon fill="#242424" stroke="#242424" points="780.0063,-978.9024 785.8319,-970.0529 775.7592,-973.338 780.0063,-978.9024"/>
</g>
<!-- index.js&#45;&gt;katsu&#45;curry/katsu&#45;curry.js -->
<g id="edge11" class="edge">
<title>index.js&#45;&gt;katsu&#45;curry/katsu&#45;curry.js</title>
<path fill="none" stroke="#242424" d="M1400.2462,-1557.4482C1496.2817,-1540.5862 1711.269,-1497.0671 1753.7907,-1439.0903 1811.8152,-1359.9758 1748.0806,-532.8453 1663.7907,-338.5677 1646.0199,-297.6083 1617.3985,-258.6524 1588.2551,-225.7242"/>
<polygon fill="#242424" stroke="#242424" points="1590.5299,-223.0194 1581.2412,-217.9231 1585.3244,-227.6995 1590.5299,-223.0194"/>
</g>
<!-- index.js&#45;&gt;filter.js -->
<g id="edge15" class="edge">
<title>index.js&#45;&gt;filter.js</title>
<path fill="none" stroke="#242424" d="M1306.8115,-1560.8498C1147.0799,-1545.9451 632.1598,-1493.9629 583.7907,-1439.0903 539.1565,-1388.4548 545.9843,-894.9194 569.7907,-831.7575 587.8761,-783.7742 627.8675,-740.8826 660.3329,-711.9064"/>
<polygon fill="#242424" stroke="#242424" points="662.7626,-714.4311 667.9807,-705.2103 658.1514,-709.1645 662.7626,-714.4311"/>
</g>
<!-- index.js&#45;&gt;choice.js -->
<g id="edge14" class="edge">
<title>index.js&#45;&gt;choice.js</title>
<path fill="none" stroke="#242424" d="M1400.4581,-1558.8256C1504.2683,-1543.8346 1749.0755,-1502.3982 1798.7907,-1439.0903 1841.7546,-1384.3793 1833.1936,-907.7529 1828.6309,-735.409"/>
<polygon fill="#242424" stroke="#242424" points="1832.1249,-735.136 1828.3567,-725.234 1825.1274,-735.3247 1832.1249,-735.136"/>
</g>
<!-- index.js&#45;&gt;flip.js -->
<g id="edge16" class="edge">
<title>index.js&#45;&gt;flip.js</title>
<path fill="none" stroke="#242424" d="M1400.994,-1563.8811C1568.1147,-1558.7851 2129.5562,-1534.7432 2276.7907,-1439.0903 2441.4856,-1332.0938 2526.431,-1097.7621 2557.1238,-994.1498"/>
<polygon fill="#242424" stroke="#242424" points="2560.5731,-994.8233 2560.0105,-984.2434 2553.8526,-992.865 2560.5731,-994.8233"/>
</g>
<!-- index.js&#45;&gt;future.js -->
<g id="edge17" class="edge">
<title>index.js&#45;&gt;future.js</title>
<path fill="none" stroke="#242424" d="M1306.8254,-1561.7942C1132.3804,-1549.0698 528.7297,-1500.8522 470.7907,-1439.0903 341.81,-1301.5993 373.2262,-687.1404 387.0382,-488.8628"/>
<polygon fill="#242424" stroke="#242424" points="390.548,-488.8464 387.7617,-478.6245 383.5654,-488.3529 390.548,-488.8464"/>
</g>
<!-- katsu&#45;curry/lib/utils/length.js -->
<g id="node11" class="node">
<title>katsu&#45;curry/lib/utils/length.js</title>
<ellipse fill="none" stroke="#0c821d" stroke-width="4" cx="807.7907" cy="-1286.3132" rx="152.5545" ry="152.5545"/>
<text text-anchor="middle" x="807.7907" y="-1283.9132" font-family="Fira Code" font-size="12.00" fill="#0c821d">katsu&#45;curry/lib/utils/length.js</text>
</g>
<!-- index.js&#45;&gt;katsu&#45;curry/lib/utils/length.js -->
<g id="edge12" class="edge">
<title>index.js&#45;&gt;katsu&#45;curry/lib/utils/length.js</title>
<path fill="none" stroke="#242424" d="M1307.4283,-1556.2607C1233.2714,-1540.7266 1085.1091,-1503.8707 974.7907,-1439.0903 957.0275,-1428.6595 939.5366,-1416.0944 922.9512,-1402.7064"/>
<polygon fill="#242424" stroke="#242424" points="924.8319,-1399.7216 914.8848,-1396.0738 920.386,-1405.1285 924.8319,-1399.7216"/>
</g>
<!-- iterate.js -->
<g id="node12" class="node">
<title>iterate.js</title>
<ellipse fill="none" stroke="#242424" stroke-width="4" cx="1409.7907" cy="-673.5587" rx="56.412" ry="56.412"/>
<text text-anchor="middle" x="1409.7907" y="-671.1587" font-family="Fira Code" font-size="12.00" fill="#242424">iterate.js</text>
</g>
<!-- index.js&#45;&gt;iterate.js -->
<g id="edge18" class="edge">
<title>index.js&#45;&gt;iterate.js</title>
<path fill="none" stroke="#242424" d="M1400.0356,-1556.4262C1491.2075,-1538.2883 1688.7172,-1493.4864 1727.7907,-1439.0903 1767.4041,-1383.9422 1747.2285,-1198.5954 1727.7907,-1133.5361 1681.8688,-979.8339 1622.3178,-962.7992 1529.7907,-831.7575 1504.4196,-795.8257 1474.5281,-756.4113 1450.9254,-725.9125"/>
<polygon fill="#242424" stroke="#242424" points="1453.6507,-723.7154 1444.7563,-717.9587 1448.1195,-728.0056 1453.6507,-723.7154"/>
</g>
<!-- map.js -->
<g id="node13" class="node">
<title>map.js</title>
<ellipse fill="none" stroke="#242424" stroke-width="4" cx="284.7907" cy="-426.9638" rx="37.623" ry="37.623"/>
<text text-anchor="middle" x="284.7907" y="-424.5638" font-family="Fira Code" font-size="12.00" fill="#242424">map.js</text>
</g>
<!-- index.js&#45;&gt;map.js -->
<g id="edge19" class="edge">
<title>index.js&#45;&gt;map.js</title>
<path fill="none" stroke="#242424" d="M1306.6623,-1562.391C1120.9901,-1551.2741 447.0026,-1506.5157 381.7907,-1439.0903 117.0078,-1165.32 229.6511,-634.0648 271.6023,-473.826"/>
<polygon fill="#242424" stroke="#242424" points="275.077,-474.3778 274.2586,-463.8146 268.3111,-472.5826 275.077,-474.3778"/>
</g>
<!-- math.js -->
<g id="node14" class="node">
<title>math.js</title>
<ellipse fill="none" stroke="#242424" stroke-width="4" cx="1983.7907" cy="-673.5587" rx="42.3196" ry="42.3196"/>
<text text-anchor="middle" x="1983.7907" y="-671.1587" font-family="Fira Code" font-size="12.00" fill="#242424">math.js</text>
</g>
<!-- index.js&#45;&gt;math.js -->
<g id="edge20" class="edge">
<title>index.js&#45;&gt;math.js</title>
<path fill="none" stroke="#242424" d="M1400.6868,-1560.6522C1519.3083,-1548.4373 1826.7796,-1510.4394 1895.7907,-1439.0903 1993.9832,-1337.5709 1990.0634,-882.7321 1985.6758,-726.4714"/>
<polygon fill="#242424" stroke="#242424" points="1989.1657,-726.0741 1985.3738,-716.181 1982.1687,-726.2794 1989.1657,-726.0741"/>
</g>
<!-- random&#45;floor.js -->
<g id="node15" class="node">
<title>random&#45;floor.js</title>
<ellipse fill="none" stroke="#242424" stroke-width="4" cx="1180.7907" cy="-673.5587" rx="79.3981" ry="79.3981"/>
<text text-anchor="middle" x="1180.7907" y="-671.1587" font-family="Fira Code" font-size="12.00" fill="#242424">random&#45;floor.js</text>
</g>
<!-- index.js&#45;&gt;random&#45;floor.js -->
<g id="edge21" class="edge">
<title>index.js&#45;&gt;random&#45;floor.js</title>
<path fill="none" stroke="#242424" d="M1307.6688,-1555.1427C1221.8619,-1535.5844 1043.1706,-1489.6283 1007.7907,-1439.0903 968.8496,-1383.4654 996.6742,-1200.5209 1007.7907,-1133.5361 1030.9926,-993.7274 1059.1793,-963.7464 1110.7907,-831.7575 1120.6831,-806.4589 1132.3231,-779.2896 1143.241,-754.7293"/>
<polygon fill="#242424" stroke="#242424" points="1146.5016,-756.0114 1147.3849,-745.4535 1140.1103,-753.1562 1146.5016,-756.0114"/>
</g>
<!-- random&#45;shuffle.js -->
<g id="node16" class="node">
<title>random&#45;shuffle.js</title>
<ellipse fill="none" stroke="#0c821d" stroke-width="4" cx="1432.7907" cy="-1286.3132" rx="88.2923" ry="88.2923"/>
<text text-anchor="middle" x="1432.7907" y="-1283.9132" font-family="Fira Code" font-size="12.00" fill="#0c821d">random&#45;shuffle.js</text>
</g>
<!-- index.js&#45;&gt;random&#45;shuffle.js -->
<g id="edge22" class="edge">
<title>index.js&#45;&gt;random&#45;shuffle.js</title>
<path fill="none" stroke="#242424" d="M1366.6592,-1519.6864C1377.2516,-1482.3066 1392.6265,-1428.0497 1405.8863,-1381.2566"/>
<polygon fill="#242424" stroke="#242424" points="1409.3222,-1381.9689 1408.6813,-1371.3935 1402.5874,-1380.0604 1409.3222,-1381.9689"/>
</g>
<!-- random&#45;take.js -->
<g id="node17" class="node">
<title>random&#45;take.js</title>
<ellipse fill="none" stroke="#242424" stroke-width="4" cx="1194.7907" cy="-943.1468" rx="74.7005" ry="74.7005"/>
<text text-anchor="middle" x="1194.7907" y="-940.7468" font-family="Fira Code" font-size="12.00" fill="#242424">random&#45;take.js</text>
</g>
<!-- index.js&#45;&gt;random&#45;take.js -->
<g id="edge23" class="edge">
<title>index.js&#45;&gt;random&#45;take.js</title>
<path fill="none" stroke="#242424" d="M1313.027,-1541.4599C1279.6828,-1519.6103 1234.7387,-1483.8047 1213.7907,-1439.0903 1180.7248,-1368.51 1184.905,-1150.0039 1190.2017,-1027.8981"/>
<polygon fill="#242424" stroke="#242424" points="1193.7014,-1027.9799 1190.6502,-1017.834 1186.7084,-1027.6682 1193.7014,-1027.9799"/>
</g>
<!-- random&#45;word.js -->
<g id="node18" class="node">
<title>random&#45;word.js</title>
<ellipse fill="none" stroke="#242424" stroke-width="4" cx="1091.7907" cy="-1286.3132" rx="74.7005" ry="74.7005"/>
<text text-anchor="middle" x="1091.7907" y="-1283.9132" font-family="Fira Code" font-size="12.00" fill="#242424">random&#45;word.js</text>
</g>
<!-- index.js&#45;&gt;random&#45;word.js -->
<g id="edge24" class="edge">
<title>index.js&#45;&gt;random&#45;word.js</title>
<path fill="none" stroke="#242424" d="M1312.64,-1541.9148C1275.0221,-1519.255 1219.5105,-1481.9767 1180.7907,-1439.0903 1160.5496,-1416.6711 1142.7198,-1388.9152 1128.4381,-1363.2373"/>
<polygon fill="#242424" stroke="#242424" points="1131.3984,-1361.3555 1123.5363,-1354.2536 1125.2536,-1364.7083 1131.3984,-1361.3555"/>
</g>
<!-- random.js -->
<g id="node19" class="node">
<title>random.js</title>
<ellipse fill="none" stroke="#0c821d" stroke-width="4" cx="1666.7907" cy="-1286.3132" rx="51.7142" ry="51.7142"/>
<text text-anchor="middle" x="1666.7907" y="-1283.9132" font-family="Fira Code" font-size="12.00" fill="#0c821d">random.js</text>
</g>
<!-- index.js&#45;&gt;random.js -->
<g id="edge25" class="edge">
<title>index.js&#45;&gt;random.js</title>
<path fill="none" stroke="#242424" d="M1399.2514,-1552.353C1453.7188,-1534.9719 1544.6377,-1498.9543 1600.7907,-1439.0903 1625.0482,-1413.2295 1641.2156,-1377.055 1651.4749,-1346.3976"/>
<polygon fill="#242424" stroke="#242424" points="1654.8774,-1347.2491 1654.601,-1336.6579 1648.2123,-1345.1098 1654.8774,-1347.2491"/>
</g>
<!-- reduce.js -->
<g id="node20" class="node">
<title>reduce.js</title>
<ellipse fill="none" stroke="#242424" stroke-width="4" cx="1274.7907" cy="-1286.3132" rx="51.7142" ry="51.7142"/>
<text text-anchor="middle" x="1274.7907" y="-1283.9132" font-family="Fira Code" font-size="12.00" fill="#242424">reduce.js</text>
</g>
<!-- index.js&#45;&gt;reduce.js -->
<g id="edge26" class="edge">
<title>index.js&#45;&gt;reduce.js</title>
<path fill="none" stroke="#242424" d="M1340.9221,-1519.6864C1327.5318,-1472.4329 1306.4987,-1398.2085 1291.7572,-1346.1869"/>
<polygon fill="#242424" stroke="#242424" points="1295.083,-1345.0854 1288.9891,-1336.4185 1288.3481,-1346.9939 1295.083,-1345.0854"/>
</g>
<!-- reject.js -->
<g id="node21" class="node">
<title>reject.js</title>
<ellipse fill="none" stroke="#242424" stroke-width="4" cx="630.7907" cy="-943.1468" rx="51.7142" ry="51.7142"/>
<text text-anchor="middle" x="630.7907" y="-940.7468" font-family="Fira Code" font-size="12.00" fill="#242424">reject.js</text>
</g>
<!-- index.js&#45;&gt;reject.js -->
<g id="edge27" class="edge">
<title>index.js&#45;&gt;reject.js</title>
<path fill="none" stroke="#242424" d="M1306.8031,-1560.5734C1151.3304,-1545.1335 660.8693,-1492.5182 615.7907,-1439.0903 561.7475,-1375.0376 598.5236,-1121.8419 619.2817,-1004.0325"/>
<polygon fill="#242424" stroke="#242424" points="622.7457,-1004.5434 621.0532,-994.0847 615.8541,-1003.3161 622.7457,-1004.5434"/>
</g>
<!-- string.js -->
<g id="node22" class="node">
<title>string.js</title>
<ellipse fill="none" stroke="#242424" stroke-width="4" cx="512.7907" cy="-426.9638" rx="51.7142" ry="51.7142"/>
<text text-anchor="middle" x="512.7907" y="-424.5638" font-family="Fira Code" font-size="12.00" fill="#242424">string.js</text>
</g>
<!-- index.js&#45;&gt;string.js -->
<g id="edge28" class="edge">
<title>index.js&#45;&gt;string.js</title>
<path fill="none" stroke="#242424" d="M1306.9199,-1561.2199C1142.4455,-1547.1505 598.7504,-1496.5936 547.7907,-1439.0903 423.0612,-1298.3445 482.3482,-686.0704 505.2074,-488.599"/>
<polygon fill="#242424" stroke="#242424" points="508.7145,-488.7411 506.3982,-478.4026 501.7618,-487.9291 508.7145,-488.7411"/>
</g>
<!-- ternary.js -->
<g id="node23" class="node">
<title>ternary.js</title>
<ellipse fill="none" stroke="#242424" stroke-width="4" cx="1539.7907" cy="-673.5587" rx="56.412" ry="56.412"/>
<text text-anchor="middle" x="1539.7907" y="-671.1587" font-family="Fira Code" font-size="12.00" fill="#242424">ternary.js</text>
</g>
<!-- index.js&#45;&gt;ternary.js -->
<g id="edge29" class="edge">
<title>index.js&#45;&gt;ternary.js</title>
<path fill="none" stroke="#242424" d="M1397.7364,-1547.7138C1440.1665,-1528.2856 1501.9584,-1492.388 1529.7907,-1439.0903 1592.6282,-1318.7587 1561.5548,-903.0704 1546.4294,-739.9724"/>
<polygon fill="#242424" stroke="#242424" points="1549.8753,-739.2303 1545.4573,-729.6005 1542.9058,-739.8835 1549.8753,-739.2303"/>
</g>
<!-- triplet.js -->
<g id="node24" class="node">
<title>triplet.js</title>
<ellipse fill="none" stroke="#242424" stroke-width="4" cx="1906.7907" cy="-943.1468" rx="56.412" ry="56.412"/>
<text text-anchor="middle" x="1906.7907" y="-940.7468" font-family="Fira Code" font-size="12.00" fill="#242424">triplet.js</text>
</g>
<!-- index.js&#45;&gt;triplet.js -->
<g id="edge30" class="edge">
<title>index.js&#45;&gt;triplet.js</title>
<path fill="none" stroke="#242424" d="M1400.6093,-1559.4717C1510.175,-1545.3142 1778.4137,-1504.5972 1836.7907,-1439.0903 1943.8666,-1318.9365 1932.7024,-1113.2835 1918.3011,-1008.5693"/>
<polygon fill="#242424" stroke="#242424" points="1921.7348,-1007.8557 1916.8559,-998.4511 1914.8051,-1008.8455 1921.7348,-1007.8557"/>
</g>
<!-- types.js -->
<g id="node25" class="node">
<title>types.js</title>
<ellipse fill="none" stroke="#242424" stroke-width="4" cx="1607.7907" cy="-426.9638" rx="47.0167" ry="47.0167"/>
<text text-anchor="middle" x="1607.7907" y="-424.5638" font-family="Fira Code" font-size="12.00" fill="#242424">types.js</text>
</g>
<!-- index.js&#45;&gt;types.js -->
<g id="edge31" class="edge">
<title>index.js&#45;&gt;types.js</title>
<path fill="none" stroke="#242424" d="M1399.162,-1551.7872C1448.8239,-1534.5813 1526.2383,-1499.4269 1562.7907,-1439.0903 1612.2549,-1357.4401 1610.1864,-686.3699 1608.4157,-484.3142"/>
<polygon fill="#242424" stroke="#242424" points="1611.9146,-484.1735 1608.3238,-474.2057 1604.9149,-484.2371 1611.9146,-484.1735"/>
</g>
<!-- which.js -->
<g id="node26" class="node">
<title>which.js</title>
<ellipse fill="none" stroke="#242424" stroke-width="4" cx="2220.7907" cy="-1286.3132" rx="47.0167" ry="47.0167"/>
<text text-anchor="middle" x="2220.7907" y="-1283.9132" font-family="Fira Code" font-size="12.00" fill="#242424">which.js</text>
</g>
<!-- index.js&#45;&gt;which.js -->
<g id="edge32" class="edge">
<title>index.js&#45;&gt;which.js</title>
<path fill="none" stroke="#242424" d="M1401.1447,-1562.7525C1511.3281,-1555.8641 1791.7111,-1530.0348 2004.7907,-1439.0903 2070.8701,-1410.8868 2136.8393,-1360.1116 2178.1632,-1324.8772"/>
<polygon fill="#242424" stroke="#242424" points="2180.5446,-1327.4455 2185.8394,-1318.2686 2175.9775,-1322.1406 2180.5446,-1327.4455"/>
</g>
<!-- iterate.js&#45;&gt;katsu&#45;curry/katsu&#45;curry.js -->
<g id="edge33" class="edge">
<title>iterate.js&#45;&gt;katsu&#45;curry/katsu&#45;curry.js</title>
<path fill="none" stroke="#242424" d="M1417.6023,-617.6673C1429.0006,-536.1126 1450.5548,-381.8941 1466.3897,-268.5965"/>
<polygon fill="#242424" stroke="#242424" points="1469.8894,-268.8413 1467.8074,-258.4531 1462.9568,-267.8723 1469.8894,-268.8413"/>
</g>
<!-- map.js&#45;&gt;entrust/entrust.js -->
<g id="edge34" class="edge">
<title>map.js&#45;&gt;entrust/entrust.js</title>
<path fill="none" stroke="#242424" d="M300.4555,-392.3009C308.6193,-375.5334 319.291,-355.4347 330.7907,-338.5677 363.1687,-291.0774 404.9893,-242.4177 440.3758,-204.0341"/>
<polygon fill="#242424" stroke="#242424" points="443.1307,-206.2107 447.3627,-196.4978 437.9973,-201.4517 443.1307,-206.2107"/>
</g>
<!-- map.js&#45;&gt;katsu&#45;curry/katsu&#45;curry.js -->
<g id="edge37" class="edge">
<title>map.js&#45;&gt;katsu&#45;curry/katsu&#45;curry.js</title>
<path fill="none" stroke="#242424" d="M295.2648,-390.3968C302.3699,-372.0876 313.6582,-351.1884 330.7907,-338.5677 411.9615,-278.773 1057.8854,-186.6544 1346.877,-147.923"/>
<polygon fill="#242424" stroke="#242424" points="1347.5578,-151.3632 1357.0053,-146.5679 1346.6294,-144.4251 1347.5578,-151.3632"/>
</g>
<!-- fantasy&#45;land/index.js -->
<g id="node27" class="node">
<title>fantasy&#45;land/index.js</title>
<ellipse fill="none" stroke="#0c821d" stroke-width="4" cx="106.7907" cy="-129.7839" rx="106.5817" ry="106.5817"/>
<text text-anchor="middle" x="106.7907" y="-127.3839" font-family="Fira Code" font-size="12.00" fill="#0c821d">fantasy&#45;land/index.js</text>
</g>
<!-- map.js&#45;&gt;fantasy&#45;land/index.js -->
<g id="edge35" class="edge">
<title>map.js&#45;&gt;fantasy&#45;land/index.js</title>
<path fill="none" stroke="#242424" d="M265.2324,-394.3103C241.7382,-355.0856 201.215,-287.43 167.0328,-230.3612"/>
<polygon fill="#242424" stroke="#242424" points="169.963,-228.4417 161.8219,-221.6613 163.9578,-232.0387 169.963,-228.4417"/>
</g>
<!-- fast.js/map.js -->
<g id="node28" class="node">
<title>fast.js/map.js</title>
<ellipse fill="none" stroke="#0c821d" stroke-width="4" cx="305.7907" cy="-129.7839" rx="74.7005" ry="74.7005"/>
<text text-anchor="middle" x="305.7907" y="-127.3839" font-family="Fira Code" font-size="12.00" fill="#0c821d">fast.js/map.js</text>
</g>
<!-- map.js&#45;&gt;fast.js/map.js -->
<g id="edge36" class="edge">
<title>map.js&#45;&gt;fast.js/map.js</title>
<path fill="none" stroke="#242424" d="M287.4717,-389.0239C290.5644,-345.2565 295.7453,-271.9406 299.8097,-214.4231"/>
<polygon fill="#242424" stroke="#242424" points="303.3153,-214.4654 300.529,-204.2435 296.3328,-213.9719 303.3153,-214.4654"/>
</g>
<!-- math.js&#45;&gt;katsu&#45;curry/katsu&#45;curry.js -->
<g id="edge38" class="edge">
<title>math.js&#45;&gt;katsu&#45;curry/katsu&#45;curry.js</title>
<path fill="none" stroke="#242424" d="M1987.2949,-631.1478C1990.681,-562.4215 1987.6261,-425.651 1920.7907,-338.5677 1847.8018,-243.4668 1720.4779,-189.4468 1622.3773,-160.297"/>
<polygon fill="#242424" stroke="#242424" points="1623.2575,-156.9079 1612.6775,-157.4671 1621.297,-163.6278 1623.2575,-156.9079"/>
</g>
<!-- random&#45;floor.js&#45;&gt;katsu&#45;curry/katsu&#45;curry.js -->
<g id="edge39" class="edge">
<title>random&#45;floor.js&#45;&gt;katsu&#45;curry/katsu&#45;curry.js</title>
<path fill="none" stroke="#242424" d="M1190.8081,-594.8924C1202.4903,-523.9706 1226.5704,-418.8061 1273.7907,-338.5677 1300.3184,-293.4909 1339.0246,-251.4112 1376.1264,-217.0091"/>
<polygon fill="#242424" stroke="#242424" points="1378.5134,-219.5691 1383.5213,-210.2325 1373.7841,-214.4083 1378.5134,-219.5691"/>
</g>
<!-- random&#45;take.js&#45;&gt;katsu&#45;curry/katsu&#45;curry.js -->
<g id="edge40" class="edge">
<title>random&#45;take.js&#45;&gt;katsu&#45;curry/katsu&#45;curry.js</title>
<path fill="none" stroke="#242424" d="M1222.4485,-873.7429C1236.6152,-837.758 1253.9583,-793.0223 1268.7907,-752.7575 1330.7651,-584.5184 1398.0896,-389.0814 1441.0458,-262.6223"/>
<polygon fill="#242424" stroke="#242424" points="1444.4524,-263.4752 1444.353,-252.8808 1437.824,-261.2248 1444.4524,-263.4752"/>
</g>
<!-- random&#45;take.js&#45;&gt;iterate.js -->
<g id="edge41" class="edge">
<title>random&#45;take.js&#45;&gt;iterate.js</title>
<path fill="none" stroke="#242424" d="M1241.4425,-884.6502C1279.1908,-837.3177 1331.8646,-771.2701 1368.1913,-725.7201"/>
<polygon fill="#242424" stroke="#242424" points="1371.0523,-727.7461 1374.5511,-717.7456 1365.5796,-723.3815 1371.0523,-727.7461"/>
</g>
<!-- random&#45;take.js&#45;&gt;random&#45;floor.js -->
<g id="edge42" class="edge">
<title>random&#45;take.js&#45;&gt;random&#45;floor.js</title>
<path fill="none" stroke="#242424" d="M1190.9095,-868.4095C1189.2081,-835.6476 1187.1978,-796.9359 1185.4191,-762.6853"/>
<polygon fill="#242424" stroke="#242424" points="1188.9137,-762.4878 1184.8997,-752.6828 1181.9231,-762.8509 1188.9137,-762.4878"/>
</g>
<!-- random&#45;word.js&#45;&gt;array.js -->
<g id="edge44" class="edge">
<title>random&#45;word.js&#45;&gt;array.js</title>
<path fill="none" stroke="#242424" d="M1045.8917,-1227.3208C993.2378,-1159.6465 908.033,-1050.1354 860.2295,-988.6952"/>
<polygon fill="#242424" stroke="#242424" points="862.9263,-986.4617 854.0232,-980.7185 857.4016,-990.7602 862.9263,-986.4617"/>
</g>
<!-- random&#45;word.js&#45;&gt;katsu&#45;curry/katsu&#45;curry.js -->
<g id="edge43" class="edge">
<title>random&#45;word.js&#45;&gt;katsu&#45;curry/katsu&#45;curry.js</title>
<path fill="none" stroke="#242424" d="M1082.1842,-1212.329C1067.7482,-1084.6343 1046.7504,-815.31 1092.7907,-594.3599 1118.071,-473.0378 1126.6918,-435.593 1203.7907,-338.5677 1247.5879,-283.451 1309.3117,-235.5487 1363.8511,-199.5796"/>
<polygon fill="#242424" stroke="#242424" points="1366.0772,-202.3062 1372.5388,-193.9099 1362.2515,-196.4441 1366.0772,-202.3062"/>
</g>
<!-- random&#45;word.js&#45;&gt;random&#45;take.js -->
<g id="edge45" class="edge">
<title>random&#45;word.js&#45;&gt;random&#45;take.js</title>
<path fill="none" stroke="#242424" d="M1113.2575,-1214.792C1129.8939,-1159.3642 1152.9576,-1082.5226 1170.311,-1024.7061"/>
<polygon fill="#242424" stroke="#242424" points="1173.7405,-1025.4547 1173.263,-1014.8707 1167.0359,-1023.4424 1173.7405,-1025.4547"/>
</g>
<!-- reduce.js&#45;&gt;delegate&#45;fast.js -->
<g id="edge47" class="edge">
<title>reduce.js&#45;&gt;delegate&#45;fast.js</title>
<path fill="none" stroke="#242424" d="M1281.1999,-1235.0664C1297.8728,-1093.3527 1336.7663,-699.7272 1268.7907,-594.3599 1215.2651,-511.3913 1107.1787,-467.809 1028.8394,-446.1665"/>
<polygon fill="#242424" stroke="#242424" points="1029.5234,-442.7262 1018.9575,-443.5086 1027.7052,-449.4859 1029.5234,-442.7262"/>
</g>
<!-- fast.js/reduce.js -->
<g id="node29" class="node">
<title>fast.js/reduce.js</title>
<ellipse fill="none" stroke="#0c821d" stroke-width="4" cx="1432.7907" cy="-943.1468" rx="88.2923" ry="88.2923"/>
<text text-anchor="middle" x="1432.7907" y="-940.7468" font-family="Fira Code" font-size="12.00" fill="#0c821d">fast.js/reduce.js</text>
</g>
<!-- reduce.js&#45;&gt;fast.js/reduce.js -->
<g id="edge46" class="edge">
<title>reduce.js&#45;&gt;fast.js/reduce.js</title>
<path fill="none" stroke="#242424" d="M1292.9075,-1237.6724C1304.4962,-1207.4186 1320.2279,-1167.873 1335.7907,-1133.5361 1351.3283,-1099.2546 1369.7865,-1062.2406 1386.4096,-1030.045"/>
<polygon fill="#242424" stroke="#242424" points="1389.5523,-1031.5874 1391.0455,-1021.0983 1383.3371,-1028.3668 1389.5523,-1031.5874"/>
</g>
<!-- reject.js&#45;&gt;katsu&#45;curry/katsu&#45;curry.js -->
<g id="edge48" class="edge">
<title>reject.js&#45;&gt;katsu&#45;curry/katsu&#45;curry.js</title>
<path fill="none" stroke="#242424" d="M621.1455,-892.2115C597.7884,-762.3878 544.8604,-423.3697 611.7907,-338.5677 701.7436,-224.5955 1122.9551,-165.9826 1346.1482,-142.4799"/>
<polygon fill="#242424" stroke="#242424" points="1346.7142,-145.94 1356.297,-141.4211 1345.9878,-138.9778 1346.7142,-145.94"/>
</g>
<!-- reject.js&#45;&gt;filter.js -->
<g id="edge49" class="edge">
<title>reject.js&#45;&gt;filter.js</title>
<path fill="none" stroke="#242424" d="M645.188,-893.386C658.2837,-848.1237 677.635,-781.2408 691.5505,-733.1452"/>
<polygon fill="#242424" stroke="#242424" points="694.9281,-734.0643 694.3453,-723.4855 688.2039,-732.1187 694.9281,-734.0643"/>
</g>
<!-- string.js&#45;&gt;entrust/entrust.js -->
<g id="edge50" class="edge">
<title>string.js&#45;&gt;entrust/entrust.js</title>
<path fill="none" stroke="#242424" d="M512.7907,-375.199C512.7907,-336.0751 512.7907,-281.0885 512.7907,-233.078"/>
<polygon fill="#242424" stroke="#242424" points="516.2908,-232.9471 512.7907,-222.9472 509.2908,-232.9472 516.2908,-232.9471"/>
</g>
<!-- ternary.js&#45;&gt;katsu&#45;curry/katsu&#45;curry.js -->
<g id="edge51" class="edge">
<title>ternary.js&#45;&gt;katsu&#45;curry/katsu&#45;curry.js</title>
<path fill="none" stroke="#242424" d="M1534.2151,-617.4134C1526.1259,-535.9555 1510.8759,-382.3901 1499.6428,-269.2735"/>
<polygon fill="#242424" stroke="#242424" points="1503.1081,-268.7503 1498.637,-259.1452 1496.1424,-269.4421 1503.1081,-268.7503"/>
</g>
<!-- triplet.js&#45;&gt;katsu&#45;curry/katsu&#45;curry.js -->
<g id="edge52" class="edge">
<title>triplet.js&#45;&gt;katsu&#45;curry/katsu&#45;curry.js</title>
<path fill="none" stroke="#242424" d="M1913.1973,-887.2554C1923.2945,-771.9442 1930.2088,-504.5867 1802.7907,-338.5677 1753.3581,-274.1597 1678.0826,-223.3883 1613.2886,-188.046"/>
<polygon fill="#242424" stroke="#242424" points="1614.6832,-184.8218 1604.2192,-183.1616 1611.364,-190.9848 1614.6832,-184.8218"/>
</g>
<!-- types.js&#45;&gt;katsu&#45;curry/katsu&#45;curry.js -->
<g id="edge53" class="edge">
<title>types.js&#45;&gt;katsu&#45;curry/katsu&#45;curry.js</title>
<path fill="none" stroke="#242424" d="M1589.9202,-383.433C1576.45,-350.621 1557.2351,-303.8155 1538.9711,-259.3261"/>
<polygon fill="#242424" stroke="#242424" points="1542.1261,-257.7952 1535.0906,-249.8736 1535.6506,-260.4537 1542.1261,-257.7952"/>
</g>
<!-- which.js&#45;&gt;katsu&#45;curry/katsu&#45;curry.js -->
<g id="edge56" class="edge">
<title>which.js&#45;&gt;katsu&#45;curry/katsu&#45;curry.js</title>
<path fill="none" stroke="#242424" d="M2226.0868,-1239.4201C2232.1566,-1206.012 2245.1306,-1162.1337 2272.7907,-1133.5361 2341.829,-1062.158 2425.335,-1136.23 2481.7907,-1054.5361 2538.0812,-973.0813 2520.7124,-922.7994 2481.7907,-831.7575 2323.898,-462.4303 1852.3368,-254.8024 1619.2391,-172.1768"/>
<polygon fill="#242424" stroke="#242424" points="1620.2796,-168.8326 1609.6848,-168.8128 1617.9548,-175.4353 1620.2796,-168.8326"/>
</g>
<!-- which.js&#45;&gt;flip.js -->
<g id="edge57" class="edge">
<title>which.js&#45;&gt;flip.js</title>
<path fill="none" stroke="#242424" d="M2261.5367,-1262.3821C2322.9522,-1224.6653 2439.9947,-1146.1799 2514.7907,-1054.5361 2529.9227,-1035.9955 2542.4298,-1012.692 2551.7567,-992.1983"/>
<polygon fill="#242424" stroke="#242424" points="2554.9775,-993.5688 2555.8162,-983.0072 2548.5743,-990.7406 2554.9775,-993.5688"/>
</g>
<!-- which.js&#45;&gt;triplet.js -->
<g id="edge58" class="edge">
<title>which.js&#45;&gt;triplet.js</title>
<path fill="none" stroke="#242424" d="M2188.9547,-1251.5201C2132.7681,-1190.1145 2015.8911,-1062.3812 1951.5919,-992.1095"/>
<polygon fill="#242424" stroke="#242424" points="1954.1109,-989.6778 1944.7781,-984.6628 1948.9466,-994.4032 1954.1109,-989.6778"/>
</g>
<!-- fast.js/array/every.js -->
<g id="node30" class="node">
<title>fast.js/array/every.js</title>
<ellipse fill="none" stroke="#0c821d" stroke-width="4" cx="2129.7907" cy="-943.1468" rx="111.2787" ry="111.2787"/>
<text text-anchor="middle" x="2129.7907" y="-940.7468" font-family="Fira Code" font-size="12.00" fill="#0c821d">fast.js/array/every.js</text>
</g>
<!-- which.js&#45;&gt;fast.js/array/every.js -->
<g id="edge54" class="edge">
<title>which.js&#45;&gt;fast.js/array/every.js</title>
<path fill="none" stroke="#242424" d="M2208.7066,-1240.7434C2196.591,-1195.055 2177.4307,-1122.8002 2161.0239,-1060.9291"/>
<polygon fill="#242424" stroke="#242424" points="2164.3621,-1059.8628 2158.4158,-1051.094 2157.596,-1061.6571 2164.3621,-1059.8628"/>
</g>
<!-- fast.js/array/some.js -->
<g id="node31" class="node">
<title>fast.js/array/some.js</title>
<ellipse fill="none" stroke="#0c821d" stroke-width="4" cx="2365.7907" cy="-943.1468" rx="106.5817" ry="106.5817"/>
<text text-anchor="middle" x="2365.7907" y="-940.7468" font-family="Fira Code" font-size="12.00" fill="#0c821d">fast.js/array/some.js</text>
</g>
<!-- which.js&#45;&gt;fast.js/array/some.js -->
<g id="edge55" class="edge">
<title>which.js&#45;&gt;fast.js/array/some.js</title>
<path fill="none" stroke="#242424" d="M2239.155,-1242.8509C2259.4198,-1194.8909 2292.7949,-1115.9032 2320.1954,-1051.0556"/>
<polygon fill="#242424" stroke="#242424" points="2323.5242,-1052.1696 2324.1924,-1041.5958 2317.0762,-1049.445 2323.5242,-1052.1696"/>
</g>
</g>
</svg>
