<?xml version="1.0" encoding="UTF-8" standalone="no"?>
<!DOCTYPE svg PUBLIC "-//W3C//DTD SVG 1.1//EN"
 "http://www.w3.org/Graphics/SVG/1.1/DTD/svg11.dtd">
<!-- Generated by graphviz version 2.40.1 (20161225.0304)
 -->
<!-- Title: G Pages: 1 -->
<svg width="3402pt" height="1610pt"
 viewBox="0.00 0.00 3402.19 1609.70" xmlns="http://www.w3.org/2000/svg" xmlns:xlink="http://www.w3.org/1999/xlink">
<g id="graph0" class="graph" transform="scale(1 1) rotate(0) translate(7.992 1601.7043)">
<title>G</title>
<polygon fill="#eeeeff" stroke="transparent" points="-7.992,7.992 -7.992,-1601.7043 3394.1991,-1601.7043 3394.1991,7.992 -7.992,7.992"/>
<!-- ../f&#45;utility.js -->
<g id="node1" class="node">
<title>../f&#45;utility.js</title>
<ellipse fill="none" stroke="#242424" stroke-width="4" cx="273.6002" cy="-426.9638" rx="79.3981" ry="79.3981"/>
<text text-anchor="middle" x="273.6002" y="-424.5638" font-family="Fira Code" font-size="12.00" fill="#242424">../f&#45;utility.js</text>
</g>
<!-- entrust/entrust.js -->
<g id="node2" class="node">
<title>entrust/entrust.js</title>
<ellipse fill="none" stroke="#0c821d" stroke-width="4" cx="517.6002" cy="-129.7839" rx="92.9895" ry="92.9895"/>
<text text-anchor="middle" x="517.6002" y="-127.3839" font-family="Fira Code" font-size="12.00" fill="#0c821d">entrust/entrust.js</text>
</g>
<!-- ../f&#45;utility.js&#45;&gt;entrust/entrust.js -->
<g id="edge1" class="edge">
<title>../f&#45;utility.js&#45;&gt;entrust/entrust.js</title>
<path fill="none" stroke="#242424" d="M323.8613,-365.7483C360.9397,-320.5886 411.7296,-258.7289 452.0042,-209.6765"/>
<polygon fill="#242424" stroke="#242424" points="454.7334,-211.8681 458.374,-201.9184 449.3233,-207.4261 454.7334,-211.8681"/>
</g>
<!-- fantasy&#45;land/index.js -->
<g id="node3" class="node">
<title>fantasy&#45;land/index.js</title>
<ellipse fill="none" stroke="#0c821d" stroke-width="4" cx="273.6002" cy="-129.7839" rx="106.5817" ry="106.5817"/>
<text text-anchor="middle" x="273.6002" y="-127.3839" font-family="Fira Code" font-size="12.00" fill="#0c821d">fantasy&#45;land/index.js</text>
</g>
<!-- ../f&#45;utility.js&#45;&gt;fantasy&#45;land/index.js -->
<g id="edge2" class="edge">
<title>../f&#45;utility.js&#45;&gt;fantasy&#45;land/index.js</title>
<path fill="none" stroke="#242424" d="M273.6002,-347.7154C273.6002,-316.8623 273.6002,-280.8675 273.6002,-247.1246"/>
<polygon fill="#242424" stroke="#242424" points="277.1003,-246.7331 273.6002,-236.7331 270.1003,-246.7332 277.1003,-246.7331"/>
</g>
<!-- katsu&#45;curry/katsu&#45;curry.js -->
<g id="node4" class="node">
<title>katsu&#45;curry/katsu&#45;curry.js</title>
<ellipse fill="none" stroke="#0c821d" stroke-width="4" cx="1593.6002" cy="-129.7839" rx="129.5681" ry="129.5681"/>
<text text-anchor="middle" x="1593.6002" y="-127.3839" font-family="Fira Code" font-size="12.00" fill="#0c821d">katsu&#45;curry/katsu&#45;curry.js</text>
</g>
<!-- ../f&#45;utility.js&#45;&gt;katsu&#45;curry/katsu&#45;curry.js -->
<g id="edge3" class="edge">
<title>../f&#45;utility.js&#45;&gt;katsu&#45;curry/katsu&#45;curry.js</title>
<path fill="none" stroke="#242424" d="M324.1417,-365.8186C335.4601,-355.3047 348.1392,-345.5373 361.6002,-338.5677 550.5282,-240.7475 1173.1534,-170.262 1454.0043,-142.6469"/>
<polygon fill="#242424" stroke="#242424" points="1454.6472,-146.1007 1464.2584,-141.6427 1453.9649,-139.1341 1454.6472,-146.1007"/>
</g>
<!-- ../package.json -->
<g id="node5" class="node">
<title>../package.json</title>
<ellipse fill="none" stroke="#0c821d" stroke-width="4" cx="2703.6002" cy="-1286.3132" rx="79.3981" ry="79.3981"/>
<text text-anchor="middle" x="2703.6002" y="-1283.9132" font-family="Fira Code" font-size="12.00" fill="#0c821d">../package.json</text>
</g>
<!-- array.js -->
<g id="node6" class="node">
<title>array.js</title>
<ellipse fill="none" stroke="#242424" stroke-width="4" cx="903.6002" cy="-961.5414" rx="47.0167" ry="47.0167"/>
<text text-anchor="middle" x="903.6002" y="-959.1414" font-family="Fira Code" font-size="12.00" fill="#242424">array.js</text>
</g>
<!-- array.js&#45;&gt;entrust/entrust.js -->
<g id="edge4" class="edge">
<title>array.js&#45;&gt;entrust/entrust.js</title>
<path fill="none" stroke="#242424" d="M873.2147,-925.1419C842.9721,-887.9067 796.3253,-827.6637 762.6002,-771.1521 698.2483,-663.3205 682.719,-634.3528 642.6002,-515.3599 616.9236,-439.203 628.6017,-415.269 604.6002,-338.5677 592.597,-300.2095 576.2847,-259.1488 561.0277,-223.6784"/>
<polygon fill="#242424" stroke="#242424" points="564.1549,-222.0924 556.9666,-214.3092 557.7323,-224.8763 564.1549,-222.0924"/>
</g>
<!-- array.js&#45;&gt;katsu&#45;curry/katsu&#45;curry.js -->
<g id="edge5" class="edge">
<title>array.js&#45;&gt;katsu&#45;curry/katsu&#45;curry.js</title>
<path fill="none" stroke="#242424" d="M901.2944,-914.3768C897.8472,-828.1196 894.4693,-648.8002 922.6002,-594.3599 948.6016,-544.0407 993.3164,-563.8425 1022.6002,-515.3599 1063.9259,-446.9405 1004.5623,-400.0833 1055.6002,-338.5677 1154.7132,-219.1074 1330.9082,-167.7713 1454.5853,-145.8562"/>
<polygon fill="#242424" stroke="#242424" points="1455.2575,-149.292 1464.5151,-144.1397 1454.0651,-142.3943 1455.2575,-149.292"/>
</g>
<!-- filter.js -->
<g id="node7" class="node">
<title>filter.js</title>
<ellipse fill="none" stroke="#242424" stroke-width="4" cx="823.6002" cy="-682.756" rx="51.7142" ry="51.7142"/>
<text text-anchor="middle" x="823.6002" y="-680.356" font-family="Fira Code" font-size="12.00" fill="#242424">filter.js</text>
</g>
<!-- array.js&#45;&gt;filter.js -->
<g id="edge6" class="edge">
<title>array.js&#45;&gt;filter.js</title>
<path fill="none" stroke="#242424" d="M890.5687,-916.1292C876.9673,-868.7308 855.5788,-794.1957 840.6443,-742.1516"/>
<polygon fill="#242424" stroke="#242424" points="843.9635,-741.0292 837.841,-732.3826 837.2351,-742.9601 843.9635,-741.0292"/>
</g>
<!-- delegate&#45;fast.js -->
<g id="node9" class="node">
<title>delegate&#45;fast.js</title>
<ellipse fill="none" stroke="#242424" stroke-width="4" cx="929.6002" cy="-426.9638" rx="83.5954" ry="83.5954"/>
<text text-anchor="middle" x="929.6002" y="-424.5638" font-family="Fira Code" font-size="12.00" fill="#242424">delegate&#45;fast.js</text>
</g>
<!-- filter.js&#45;&gt;delegate&#45;fast.js -->
<g id="edge11" class="edge">
<title>filter.js&#45;&gt;delegate&#45;fast.js</title>
<path fill="none" stroke="#242424" d="M843.4136,-634.9435C857.5062,-600.9362 876.8368,-554.2888 893.6201,-513.7886"/>
<polygon fill="#242424" stroke="#242424" points="896.897,-515.0232 897.492,-504.4451 890.4303,-512.3434 896.897,-515.0232"/>
</g>
<!-- fast.js/filter.js -->
<g id="node10" class="node">
<title>fast.js/filter.js</title>
<ellipse fill="none" stroke="#0c821d" stroke-width="4" cx="739.6002" cy="-426.9638" rx="88.2923" ry="88.2923"/>
<text text-anchor="middle" x="739.6002" y="-424.5638" font-family="Fira Code" font-size="12.00" fill="#0c821d">fast.js/filter.js</text>
</g>
<!-- filter.js&#45;&gt;fast.js/filter.js -->
<g id="edge10" class="edge">
<title>filter.js&#45;&gt;fast.js/filter.js</title>
<path fill="none" stroke="#242424" d="M807.4041,-633.4367C796.922,-601.5172 782.9389,-558.9366 770.3947,-520.7375"/>
<polygon fill="#242424" stroke="#242424" points="773.6848,-519.5382 767.2394,-511.1294 767.0342,-521.7223 773.6848,-519.5382"/>
</g>
<!-- choice.js -->
<g id="node8" class="node">
<title>choice.js</title>
<ellipse fill="none" stroke="#242424" stroke-width="4" cx="2514.6002" cy="-682.756" rx="51.7142" ry="51.7142"/>
<text text-anchor="middle" x="2514.6002" y="-680.356" font-family="Fira Code" font-size="12.00" fill="#242424">choice.js</text>
</g>
<!-- choice.js&#45;&gt;katsu&#45;curry/katsu&#45;curry.js -->
<g id="edge7" class="edge">
<title>choice.js&#45;&gt;katsu&#45;curry/katsu&#45;curry.js</title>
<path fill="none" stroke="#242424" d="M2519.8245,-631.3126C2524.3801,-556.49 2520.8584,-417.9347 2444.6002,-338.5677 2347.333,-237.3353 1947.9634,-173.5478 1732.6699,-145.8329"/>
<polygon fill="#242424" stroke="#242424" points="1732.922,-142.3367 1722.5589,-144.5404 1732.0344,-149.2802 1732.922,-142.3367"/>
</g>
<!-- delegate&#45;fast.js&#45;&gt;entrust/entrust.js -->
<g id="edge8" class="edge">
<title>delegate&#45;fast.js&#45;&gt;entrust/entrust.js</title>
<path fill="none" stroke="#242424" d="M870.2451,-367.548C859.3555,-357.5238 847.864,-347.4874 836.6002,-338.5677 762.7307,-280.0713 672.3716,-222.0702 606.7051,-182.1026"/>
<polygon fill="#242424" stroke="#242424" points="608.3784,-179.024 598.0133,-176.8298 604.7478,-185.0089 608.3784,-179.024"/>
</g>
<!-- delegate&#45;fast.js&#45;&gt;katsu&#45;curry/katsu&#45;curry.js -->
<g id="edge9" class="edge">
<title>delegate&#45;fast.js&#45;&gt;katsu&#45;curry/katsu&#45;curry.js</title>
<path fill="none" stroke="#242424" d="M988.6884,-367.2332C1000.9074,-356.7892 1014.1679,-346.6863 1027.6002,-338.5677 1164.2621,-255.968 1338.8996,-197.7004 1457.8059,-164.0799"/>
<polygon fill="#242424" stroke="#242424" points="1459.0178,-167.3751 1467.6999,-161.3029 1457.1261,-160.6356 1459.0178,-167.3751"/>
</g>
<!-- flip.js -->
<g id="node11" class="node">
<title>flip.js</title>
<ellipse fill="none" stroke="#242424" stroke-width="4" cx="1847.6002" cy="-961.5414" rx="42.3196" ry="42.3196"/>
<text text-anchor="middle" x="1847.6002" y="-959.1414" font-family="Fira Code" font-size="12.00" fill="#242424">flip.js</text>
</g>
<!-- flip.js&#45;&gt;katsu&#45;curry/katsu&#45;curry.js -->
<g id="edge12" class="edge">
<title>flip.js&#45;&gt;katsu&#45;curry/katsu&#45;curry.js</title>
<path fill="none" stroke="#242424" d="M1865.5079,-923.0663C1891.108,-868.027 1935.1565,-773.1692 1935.6002,-771.1521 1948.2379,-713.6888 1927.4963,-341.847 1925.6002,-338.5677 1881.7208,-262.6803 1798.0085,-210.3169 1725.6253,-177.0099"/>
<polygon fill="#242424" stroke="#242424" points="1726.9579,-173.7713 1716.4041,-172.8405 1724.0739,-180.1496 1726.9579,-173.7713"/>
</g>
<!-- future.js -->
<g id="node12" class="node">
<title>future.js</title>
<ellipse fill="none" stroke="#242424" stroke-width="4" cx="422.6002" cy="-426.9638" rx="51.7142" ry="51.7142"/>
<text text-anchor="middle" x="422.6002" y="-424.5638" font-family="Fira Code" font-size="12.00" fill="#242424">future.js</text>
</g>
<!-- future.js&#45;&gt;entrust/entrust.js -->
<g id="edge13" class="edge">
<title>future.js&#45;&gt;entrust/entrust.js</title>
<path fill="none" stroke="#242424" d="M438.3941,-377.557C451.3806,-336.9327 470.186,-278.1055 486.2143,-227.9654"/>
<polygon fill="#242424" stroke="#242424" points="489.5653,-228.9773 489.2764,-218.3864 482.8977,-226.8458 489.5653,-228.9773"/>
</g>
<!-- index.js -->
<g id="node13" class="node">
<title>index.js</title>
<ellipse fill="none" stroke="#242424" stroke-width="4" cx="1631.6002" cy="-1546.704" rx="47.0167" ry="47.0167"/>
<text text-anchor="middle" x="1631.6002" y="-1544.304" font-family="Fira Code" font-size="12.00" fill="#242424">index.js</text>
</g>
<!-- index.js&#45;&gt;katsu&#45;curry/katsu&#45;curry.js -->
<g id="edge14" class="edge">
<title>index.js&#45;&gt;katsu&#45;curry/katsu&#45;curry.js</title>
<path fill="none" stroke="#242424" d="M1678.8074,-1544.9619C1829.9244,-1538.5088 2298.6449,-1511.4347 2414.6002,-1420.6957 2587.4758,-1285.4144 2596.6002,-1181.0568 2596.6002,-961.5414 2596.6002,-961.5414 2596.6002,-961.5414 2596.6002,-682.756 2596.6002,-590.4099 2536.3013,-377.8927 2493.6002,-338.5677 2383.7168,-237.3722 1957.2883,-172.9072 1733.1133,-145.2946"/>
<polygon fill="#242424" stroke="#242424" points="1733.2733,-141.7881 1722.9222,-144.0475 1732.423,-148.7363 1733.2733,-141.7881"/>
</g>
<!-- index.js&#45;&gt;../package.json -->
<g id="edge16" class="edge">
<title>index.js&#45;&gt;../package.json</title>
<path fill="none" stroke="#242424" d="M1678.7652,-1545.6342C1851.9279,-1540.9539 2450.8539,-1517.9164 2610.6002,-1420.6957 2632.115,-1407.6019 2649.8913,-1387.4307 2663.9349,-1366.6647"/>
<polygon fill="#242424" stroke="#242424" points="2667.01,-1368.3561 2669.527,-1358.0646 2661.1415,-1364.5402 2667.01,-1368.3561"/>
</g>
<!-- index.js&#45;&gt;array.js -->
<g id="edge17" class="edge">
<title>index.js&#45;&gt;array.js</title>
<path fill="none" stroke="#242424" d="M1584.2764,-1543.6083C1453.604,-1534.0914 1092.008,-1500.9077 1009.6002,-1420.6957 899.3007,-1313.3352 893.8737,-1115.7758 898.746,-1018.5883"/>
<polygon fill="#242424" stroke="#242424" points="902.2533,-1018.5528 899.3151,-1008.3736 895.2642,-1018.1634 902.2533,-1018.5528"/>
</g>
<!-- index.js&#45;&gt;filter.js -->
<g id="edge19" class="edge">
<title>index.js&#45;&gt;filter.js</title>
<path fill="none" stroke="#242424" d="M1584.3765,-1545.5559C1437.7793,-1540.9686 994.5779,-1519.067 898.6002,-1420.6957 717.2111,-1234.783 775.096,-883.7286 807.8107,-743.1749"/>
<polygon fill="#242424" stroke="#242424" points="811.3159,-743.5617 810.2154,-733.0242 804.5044,-741.948 811.3159,-743.5617"/>
</g>
<!-- index.js&#45;&gt;choice.js -->
<g id="edge18" class="edge">
<title>index.js&#45;&gt;choice.js</title>
<path fill="none" stroke="#242424" d="M1678.8336,-1542.2686C1812.2172,-1529.0391 2188.7238,-1486.6338 2291.6002,-1420.6957 2451.4266,-1318.2557 2481.7354,-1253.7347 2539.6002,-1072.9307 2575.5882,-960.4826 2551.1303,-820.7137 2531.7528,-742.6632"/>
<polygon fill="#242424" stroke="#242424" points="2535.0336,-741.3622 2529.1794,-732.5315 2528.249,-743.0854 2535.0336,-741.3622"/>
</g>
<!-- index.js&#45;&gt;flip.js -->
<g id="edge20" class="edge">
<title>index.js&#45;&gt;flip.js</title>
<path fill="none" stroke="#242424" d="M1673.7496,-1525.846C1711.397,-1504.8101 1764.6382,-1468.6126 1791.6002,-1420.6957 1865.5614,-1289.2516 1861.1411,-1103.5403 1853.5392,-1013.936"/>
<polygon fill="#242424" stroke="#242424" points="1857.0054,-1013.4012 1852.626,-1003.7539 1850.0334,-1014.0266 1857.0054,-1013.4012"/>
</g>
<!-- index.js&#45;&gt;future.js -->
<g id="edge21" class="edge">
<title>index.js&#45;&gt;future.js</title>
<path fill="none" stroke="#242424" d="M1584.6422,-1544.1437C1393.0884,-1533.2756 677.4847,-1488.3918 604.6002,-1420.6957 334.958,-1170.2485 385.0584,-662.7888 411.9078,-487.8577"/>
<polygon fill="#242424" stroke="#242424" points="415.3928,-488.2253 413.482,-477.8042 408.4771,-487.1424 415.3928,-488.2253"/>
</g>
<!-- katsu&#45;curry/utils/length.js -->
<g id="node14" class="node">
<title>katsu&#45;curry/utils/length.js</title>
<ellipse fill="none" stroke="#0c821d" stroke-width="4" cx="2935.6002" cy="-1286.3132" rx="134.2651" ry="134.2651"/>
<text text-anchor="middle" x="2935.6002" y="-1283.9132" font-family="Fira Code" font-size="12.00" fill="#0c821d">katsu&#45;curry/utils/length.js</text>
</g>
<!-- index.js&#45;&gt;katsu&#45;curry/utils/length.js -->
<g id="edge15" class="edge">
<title>index.js&#45;&gt;katsu&#45;curry/utils/length.js</title>
<path fill="none" stroke="#242424" d="M1678.6574,-1545.5277C1869.8357,-1540.1527 2587.8601,-1514.0202 2791.6002,-1420.6957 2807.6012,-1413.3663 2822.9888,-1403.5522 2837.3629,-1392.5487"/>
<polygon fill="#242424" stroke="#242424" points="2839.5666,-1395.2683 2845.2418,-1386.3215 2835.226,-1389.7765 2839.5666,-1395.2683"/>
</g>
<!-- iterate.js -->
<g id="node15" class="node">
<title>iterate.js</title>
<ellipse fill="none" stroke="#242424" stroke-width="4" cx="1239.6002" cy="-682.756" rx="56.412" ry="56.412"/>
<text text-anchor="middle" x="1239.6002" y="-680.356" font-family="Fira Code" font-size="12.00" fill="#242424">iterate.js</text>
</g>
<!-- index.js&#45;&gt;iterate.js -->
<g id="edge22" class="edge">
<title>index.js&#45;&gt;iterate.js</title>
<path fill="none" stroke="#242424" d="M1588.5725,-1527.199C1548.6588,-1506.6902 1491.1135,-1470.4645 1461.6002,-1420.6957 1396.3131,-1310.6009 1440.6607,-964.2233 1382.6002,-850.1521 1359.6448,-805.0518 1333.3574,-809.7261 1300.6002,-771.1521 1292.0403,-761.0722 1283.5415,-749.7929 1275.7269,-738.7525"/>
<polygon fill="#242424" stroke="#242424" points="1278.4825,-736.5849 1269.8947,-730.3801 1272.7387,-740.5861 1278.4825,-736.5849"/>
</g>
<!-- map.js -->
<g id="node16" class="node">
<title>map.js</title>
<ellipse fill="none" stroke="#242424" stroke-width="4" cx="138.6002" cy="-426.9638" rx="37.623" ry="37.623"/>
<text text-anchor="middle" x="138.6002" y="-424.5638" font-family="Fira Code" font-size="12.00" fill="#242424">map.js</text>
</g>
<!-- index.js&#45;&gt;map.js -->
<g id="edge23" class="edge">
<title>index.js&#45;&gt;map.js</title>
<path fill="none" stroke="#242424" d="M1584.2801,-1544.7511C1373.957,-1535.6676 530.309,-1494.8239 440.6002,-1420.6957 141.0316,-1173.1564 131.8174,-638.1093 136.3942,-475.0826"/>
<polygon fill="#242424" stroke="#242424" points="139.8986,-474.9937 136.7127,-464.8893 132.902,-474.775 139.8986,-474.9937"/>
</g>
<!-- math.js -->
<g id="node17" class="node">
<title>math.js</title>
<ellipse fill="none" stroke="#242424" stroke-width="4" cx="1631.6002" cy="-961.5414" rx="42.3196" ry="42.3196"/>
<text text-anchor="middle" x="1631.6002" y="-959.1414" font-family="Fira Code" font-size="12.00" fill="#242424">math.js</text>
</g>
<!-- index.js&#45;&gt;math.js -->
<g id="edge24" class="edge">
<title>index.js&#45;&gt;math.js</title>
<path fill="none" stroke="#242424" d="M1631.6002,-1499.3134C1631.6002,-1391.2679 1631.6002,-1127.328 1631.6002,-1014.3085"/>
<polygon fill="#242424" stroke="#242424" points="1635.1003,-1014.1742 1631.6002,-1004.1742 1628.1003,-1014.1742 1635.1003,-1014.1742"/>
</g>
<!-- object.js -->
<g id="node18" class="node">
<title>object.js</title>
<ellipse fill="none" stroke="#242424" stroke-width="4" cx="1711.6002" cy="-682.756" rx="51.7142" ry="51.7142"/>
<text text-anchor="middle" x="1711.6002" y="-680.356" font-family="Fira Code" font-size="12.00" fill="#242424">object.js</text>
</g>
<!-- index.js&#45;&gt;object.js -->
<g id="edge25" class="edge">
<title>index.js&#45;&gt;object.js</title>
<path fill="none" stroke="#242424" d="M1636.871,-1499.7362C1639.5171,-1476.0383 1642.7565,-1446.8447 1645.6002,-1420.6957 1662.4043,-1266.1722 1668.6157,-1227.7349 1682.6002,-1072.9307 1693.0693,-957.0404 1702.5131,-821.5338 1707.6158,-744.5593"/>
<polygon fill="#242424" stroke="#242424" points="1711.11,-744.7612 1708.2766,-734.5523 1704.1252,-744.3 1711.11,-744.7612"/>
</g>
<!-- path.js -->
<g id="node19" class="node">
<title>path.js</title>
<ellipse fill="none" stroke="#242424" stroke-width="4" cx="1561.6002" cy="-1286.3132" rx="42.3196" ry="42.3196"/>
<text text-anchor="middle" x="1561.6002" y="-1283.9132" font-family="Fira Code" font-size="12.00" fill="#242424">path.js</text>
</g>
<!-- index.js&#45;&gt;path.js -->
<g id="edge26" class="edge">
<title>index.js&#45;&gt;path.js</title>
<path fill="none" stroke="#242424" d="M1619.327,-1501.0494C1607.0272,-1455.2958 1588.1302,-1385.0014 1575.3367,-1337.4114"/>
<polygon fill="#242424" stroke="#242424" points="1578.6801,-1336.3663 1572.704,-1327.6178 1571.9201,-1338.1836 1578.6801,-1336.3663"/>
</g>
<!-- random&#45;floor.js -->
<g id="node20" class="node">
<title>random&#45;floor.js</title>
<ellipse fill="none" stroke="#242424" stroke-width="4" cx="1010.6002" cy="-682.756" rx="79.3981" ry="79.3981"/>
<text text-anchor="middle" x="1010.6002" y="-680.356" font-family="Fira Code" font-size="12.00" fill="#242424">random&#45;floor.js</text>
</g>
<!-- index.js&#45;&gt;random&#45;floor.js -->
<g id="edge27" class="edge">
<title>index.js&#45;&gt;random&#45;floor.js</title>
<path fill="none" stroke="#242424" d="M1584.4708,-1543.3565C1460.4881,-1533.5058 1130.0628,-1500.1676 1061.6002,-1420.6957 979.831,-1325.7774 993.079,-946.8836 1004.0063,-772.0216"/>
<polygon fill="#242424" stroke="#242424" points="1007.5134,-772.0206 1004.6558,-761.8184 1000.5275,-771.5758 1007.5134,-772.0206"/>
</g>
<!-- random&#45;shuffle.js -->
<g id="node21" class="node">
<title>random&#45;shuffle.js</title>
<ellipse fill="none" stroke="#0c821d" stroke-width="4" cx="3176.6002" cy="-1286.3132" rx="88.2923" ry="88.2923"/>
<text text-anchor="middle" x="3176.6002" y="-1283.9132" font-family="Fira Code" font-size="12.00" fill="#0c821d">random&#45;shuffle.js</text>
</g>
<!-- index.js&#45;&gt;random&#45;shuffle.js -->
<g id="edge28" class="edge">
<title>index.js&#45;&gt;random&#45;shuffle.js</title>
<path fill="none" stroke="#242424" d="M1678.6896,-1544.9117C1913.7777,-1535.6577 2954.0405,-1490.989 3078.6002,-1420.6957 3098.6629,-1409.3736 3115.7387,-1392.0569 3129.7409,-1373.5815"/>
<polygon fill="#242424" stroke="#242424" points="3132.9092,-1375.1755 3135.9577,-1365.0287 3127.2469,-1371.0597 3132.9092,-1375.1755"/>
</g>
<!-- random&#45;take.js -->
<g id="node22" class="node">
<title>random&#45;take.js</title>
<ellipse fill="none" stroke="#242424" stroke-width="4" cx="1177.6002" cy="-961.5414" rx="74.7005" ry="74.7005"/>
<text text-anchor="middle" x="1177.6002" y="-959.1414" font-family="Fira Code" font-size="12.00" fill="#242424">random&#45;take.js</text>
</g>
<!-- index.js&#45;&gt;random&#45;take.js -->
<g id="edge29" class="edge">
<title>index.js&#45;&gt;random&#45;take.js</title>
<path fill="none" stroke="#242424" d="M1584.8477,-1541.619C1514.4458,-1531.4508 1381.5978,-1502.08 1307.6002,-1420.6957 1304.3495,-1417.1205 1236.7412,-1174.7091 1200.3434,-1043.6105"/>
<polygon fill="#242424" stroke="#242424" points="1203.6111,-1042.2967 1197.5639,-1033.5972 1196.8661,-1044.169 1203.6111,-1042.2967"/>
</g>
<!-- random&#45;word.js -->
<g id="node23" class="node">
<title>random&#45;word.js</title>
<ellipse fill="none" stroke="#242424" stroke-width="4" cx="1145.6002" cy="-1286.3132" rx="74.7005" ry="74.7005"/>
<text text-anchor="middle" x="1145.6002" y="-1283.9132" font-family="Fira Code" font-size="12.00" fill="#242424">random&#45;word.js</text>
</g>
<!-- index.js&#45;&gt;random&#45;word.js -->
<g id="edge30" class="edge">
<title>index.js&#45;&gt;random&#45;word.js</title>
<path fill="none" stroke="#242424" d="M1585.2775,-1537.7196C1513.9019,-1522.3322 1374.7117,-1486.0882 1273.6002,-1420.6957 1245.6474,-1402.6177 1219.4085,-1377.2432 1198.0529,-1353.4063"/>
<polygon fill="#242424" stroke="#242424" points="1200.5306,-1350.924 1191.2949,-1345.7323 1195.2773,-1355.5503 1200.5306,-1350.924"/>
</g>
<!-- random.js -->
<g id="node24" class="node">
<title>random.js</title>
<ellipse fill="none" stroke="#0c821d" stroke-width="4" cx="3334.6002" cy="-1286.3132" rx="51.7142" ry="51.7142"/>
<text text-anchor="middle" x="3334.6002" y="-1283.9132" font-family="Fira Code" font-size="12.00" fill="#0c821d">random.js</text>
</g>
<!-- index.js&#45;&gt;random.js -->
<g id="edge31" class="edge">
<title>index.js&#45;&gt;random.js</title>
<path fill="none" stroke="#242424" d="M1678.9005,-1545.9115C1934.0438,-1541.2645 3139.6445,-1514.4466 3273.6002,-1420.6957 3298.1845,-1403.49 3313.0418,-1373.9014 3321.9266,-1346.861"/>
<polygon fill="#242424" stroke="#242424" points="3325.3521,-1347.6285 3324.9367,-1337.0418 3318.6595,-1345.5768 3325.3521,-1347.6285"/>
</g>
<!-- reduce.js -->
<g id="node25" class="node">
<title>reduce.js</title>
<ellipse fill="none" stroke="#242424" stroke-width="4" cx="1481.6002" cy="-961.5414" rx="51.7142" ry="51.7142"/>
<text text-anchor="middle" x="1481.6002" y="-959.1414" font-family="Fira Code" font-size="12.00" fill="#242424">reduce.js</text>
</g>
<!-- index.js&#45;&gt;reduce.js -->
<g id="edge32" class="edge">
<title>index.js&#45;&gt;reduce.js</title>
<path fill="none" stroke="#242424" d="M1593.3547,-1519.121C1565.0156,-1496.2765 1528.3563,-1461.0951 1510.6002,-1420.6957 1452.4997,-1288.5035 1461.9962,-1114.0376 1472.5924,-1022.9273"/>
<polygon fill="#242424" stroke="#242424" points="1476.0945,-1023.1193 1473.8186,-1012.7718 1469.145,-1022.2801 1476.0945,-1023.1193"/>
</g>
<!-- reject.js -->
<g id="node26" class="node">
<title>reject.js</title>
<ellipse fill="none" stroke="#242424" stroke-width="4" cx="1321.6002" cy="-961.5414" rx="51.7142" ry="51.7142"/>
<text text-anchor="middle" x="1321.6002" y="-959.1414" font-family="Fira Code" font-size="12.00" fill="#242424">reject.js</text>
</g>
<!-- index.js&#45;&gt;reject.js -->
<g id="edge33" class="edge">
<title>index.js&#45;&gt;reject.js</title>
<path fill="none" stroke="#242424" d="M1585.3846,-1536.4881C1528.9451,-1521.4256 1435.1422,-1487.5113 1387.6002,-1420.6957 1302.1209,-1300.5629 1305.1478,-1117.4252 1313.8079,-1022.84"/>
<polygon fill="#242424" stroke="#242424" points="1317.294,-1023.1513 1314.7729,-1012.8608 1310.3265,-1022.4774 1317.294,-1023.1513"/>
</g>
<!-- string.js -->
<g id="node27" class="node">
<title>string.js</title>
<ellipse fill="none" stroke="#242424" stroke-width="4" cx="543.6002" cy="-426.9638" rx="51.7142" ry="51.7142"/>
<text text-anchor="middle" x="543.6002" y="-424.5638" font-family="Fira Code" font-size="12.00" fill="#242424">string.js</text>
</g>
<!-- index.js&#45;&gt;string.js -->
<g id="edge34" class="edge">
<title>index.js&#45;&gt;string.js</title>
<path fill="none" stroke="#242424" d="M1584.7121,-1542.8515C1414.743,-1528.476 837.7511,-1475.9522 777.6002,-1420.6957 504.049,-1169.4031 521.5597,-663.5614 536.9069,-488.3599"/>
<polygon fill="#242424" stroke="#242424" points="540.4028,-488.5629 537.8192,-478.2879 533.4313,-487.9314 540.4028,-488.5629"/>
</g>
<!-- ternary.js -->
<g id="node28" class="node">
<title>ternary.js</title>
<ellipse fill="none" stroke="#242424" stroke-width="4" cx="1837.6002" cy="-682.756" rx="56.412" ry="56.412"/>
<text text-anchor="middle" x="1837.6002" y="-680.356" font-family="Fira Code" font-size="12.00" fill="#242424">ternary.js</text>
</g>
<!-- index.js&#45;&gt;ternary.js -->
<g id="edge35" class="edge">
<title>index.js&#45;&gt;ternary.js</title>
<path fill="none" stroke="#242424" d="M1648.7399,-1502.6536C1657.5168,-1478.7128 1667.7645,-1448.4124 1674.6002,-1420.6957 1736.0532,-1171.5202 1691.3228,-1096.4058 1763.6002,-850.1521 1774.5141,-812.9678 1791.8245,-773.2201 1806.9596,-741.7911"/>
<polygon fill="#242424" stroke="#242424" points="1810.1371,-743.2603 1811.3699,-732.7375 1803.844,-740.1948 1810.1371,-743.2603"/>
</g>
<!-- triplet.js -->
<g id="node29" class="node">
<title>triplet.js</title>
<ellipse fill="none" stroke="#242424" stroke-width="4" cx="2474.6002" cy="-961.5414" rx="56.412" ry="56.412"/>
<text text-anchor="middle" x="2474.6002" y="-959.1414" font-family="Fira Code" font-size="12.00" fill="#242424">triplet.js</text>
</g>
<!-- index.js&#45;&gt;triplet.js -->
<g id="edge36" class="edge">
<title>index.js&#45;&gt;triplet.js</title>
<path fill="none" stroke="#242424" d="M1678.4452,-1540.2334C1794.1119,-1523.5612 2089.7286,-1476.5093 2170.6002,-1420.6957 2316.5696,-1319.9548 2410.6243,-1124.0982 2451.351,-1023.8848"/>
<polygon fill="#242424" stroke="#242424" points="2454.6445,-1025.0756 2455.1258,-1014.4917 2448.1493,-1022.4654 2454.6445,-1025.0756"/>
</g>
<!-- types.js -->
<g id="node30" class="node">
<title>types.js</title>
<ellipse fill="none" stroke="#242424" stroke-width="4" cx="1869.6002" cy="-426.9638" rx="47.0167" ry="47.0167"/>
<text text-anchor="middle" x="1869.6002" y="-424.5638" font-family="Fira Code" font-size="12.00" fill="#242424">types.js</text>
</g>
<!-- index.js&#45;&gt;types.js -->
<g id="edge37" class="edge">
<title>index.js&#45;&gt;types.js</title>
<path fill="none" stroke="#242424" d="M1660.111,-1509.0214C1676.8628,-1484.9851 1696.9713,-1452.4765 1708.6002,-1420.6957 1719.6209,-1390.577 1780.0649,-877.6326 1796.6002,-850.1521 1826.8931,-799.8074 1876.2443,-823.6651 1902.6002,-771.1521 1949.7915,-677.1253 1916.9025,-550.5277 1891.4614,-480.0228"/>
<polygon fill="#242424" stroke="#242424" points="1894.6764,-478.6251 1887.9301,-470.4558 1888.1095,-481.0491 1894.6764,-478.6251"/>
</g>
<!-- which.js -->
<g id="node31" class="node">
<title>which.js</title>
<ellipse fill="none" stroke="#242424" stroke-width="4" cx="2114.6002" cy="-1286.3132" rx="47.0167" ry="47.0167"/>
<text text-anchor="middle" x="2114.6002" y="-1283.9132" font-family="Fira Code" font-size="12.00" fill="#242424">which.js</text>
</g>
<!-- index.js&#45;&gt;which.js -->
<g id="edge38" class="edge">
<title>index.js&#45;&gt;which.js</title>
<path fill="none" stroke="#242424" d="M1673.1985,-1524.2779C1761.6464,-1476.5946 1968.1205,-1365.2821 2064.0044,-1313.5899"/>
<polygon fill="#242424" stroke="#242424" points="2065.7892,-1316.604 2072.9306,-1308.7777 2062.4674,-1310.4424 2065.7892,-1316.604"/>
</g>
<!-- iterate.js&#45;&gt;katsu&#45;curry/katsu&#45;curry.js -->
<g id="edge39" class="edge">
<title>iterate.js&#45;&gt;katsu&#45;curry/katsu&#45;curry.js</title>
<path fill="none" stroke="#242424" d="M1247.3101,-626.7725C1259.2883,-555.0285 1287.549,-429.1249 1347.6002,-338.5677 1381.2584,-287.8111 1430.6978,-242.5091 1476.4432,-207.1834"/>
<polygon fill="#242424" stroke="#242424" points="1478.8124,-209.7782 1484.6389,-200.9293 1474.5658,-204.2134 1478.8124,-209.7782"/>
</g>
<!-- map.js&#45;&gt;entrust/entrust.js -->
<g id="edge40" class="edge">
<title>map.js&#45;&gt;entrust/entrust.js</title>
<path fill="none" stroke="#242424" d="M150.9023,-390.7893C158.5093,-373.038 169.8696,-352.5266 185.6002,-338.5677 258.324,-274.0349 308.3205,-312.9236 389.6002,-259.5677 411.204,-245.3859 432.0494,-227.046 450.422,-208.6437"/>
<polygon fill="#242424" stroke="#242424" points="453.1001,-210.9117 457.6038,-201.3217 448.1028,-206.01 453.1001,-210.9117"/>
</g>
<!-- map.js&#45;&gt;fantasy&#45;land/index.js -->
<g id="edge41" class="edge">
<title>map.js&#45;&gt;fantasy&#45;land/index.js</title>
<path fill="none" stroke="#242424" d="M154.3506,-392.2919C171.6429,-354.2259 200.2592,-291.2317 225.1248,-236.4942"/>
<polygon fill="#242424" stroke="#242424" points="228.4504,-237.6359 229.3998,-227.0837 222.0771,-234.7407 228.4504,-237.6359"/>
</g>
<!-- map.js&#45;&gt;katsu&#45;curry/katsu&#45;curry.js -->
<g id="edge43" class="edge">
<title>map.js&#45;&gt;katsu&#45;curry/katsu&#45;curry.js</title>
<path fill="none" stroke="#242424" d="M149.1574,-390.608C156.4152,-372.1244 167.9926,-350.9966 185.6002,-338.5677 211.5565,-320.2456 1104.944,-196.5574 1454.9459,-148.6685"/>
<polygon fill="#242424" stroke="#242424" points="1455.4543,-152.1316 1464.8877,-147.3086 1454.5056,-145.1962 1455.4543,-152.1316"/>
</g>
<!-- fast.js/map.js -->
<g id="node32" class="node">
<title>fast.js/map.js</title>
<ellipse fill="none" stroke="#0c821d" stroke-width="4" cx="74.6002" cy="-129.7839" rx="74.7005" ry="74.7005"/>
<text text-anchor="middle" x="74.6002" y="-127.3839" font-family="Fira Code" font-size="12.00" fill="#0c821d">fast.js/map.js</text>
</g>
<!-- map.js&#45;&gt;fast.js/map.js -->
<g id="edge42" class="edge">
<title>map.js&#45;&gt;fast.js/map.js</title>
<path fill="none" stroke="#242424" d="M130.6239,-389.9266C121.137,-345.8746 105.0113,-270.9959 92.4898,-212.8532"/>
<polygon fill="#242424" stroke="#242424" points="95.8818,-211.9785 90.3548,-202.9395 89.0386,-213.4523 95.8818,-211.9785"/>
</g>
<!-- math.js&#45;&gt;katsu&#45;curry/katsu&#45;curry.js -->
<g id="edge44" class="edge">
<title>math.js&#45;&gt;katsu&#45;curry/katsu&#45;curry.js</title>
<path fill="none" stroke="#242424" d="M1630.3742,-918.8476C1627.384,-817.9044 1619.1093,-556.6291 1607.6002,-338.5677 1606.4243,-316.2886 1605.0069,-292.6835 1603.5316,-269.6708"/>
<polygon fill="#242424" stroke="#242424" points="1607.0119,-269.2527 1602.8734,-259.4996 1600.0265,-269.7048 1607.0119,-269.2527"/>
</g>
<!-- object.js&#45;&gt;katsu&#45;curry/katsu&#45;curry.js -->
<g id="edge45" class="edge">
<title>object.js&#45;&gt;katsu&#45;curry/katsu&#45;curry.js</title>
<path fill="none" stroke="#242424" d="M1702.7349,-631.8413C1690.8059,-564.5089 1668.4358,-442.2549 1645.6002,-338.5677 1640.3924,-314.9214 1634.4881,-289.8644 1628.5739,-265.6271"/>
<polygon fill="#242424" stroke="#242424" points="1631.9112,-264.5403 1626.1306,-255.6614 1625.1126,-266.2073 1631.9112,-264.5403"/>
</g>
<!-- path.js&#45;&gt;katsu&#45;curry/katsu&#45;curry.js -->
<g id="edge46" class="edge">
<title>path.js&#45;&gt;katsu&#45;curry/katsu&#45;curry.js</title>
<path fill="none" stroke="#242424" d="M1562.777,-1243.7801C1567.1305,-1086.4376 1582.4456,-532.9258 1589.7148,-270.208"/>
<polygon fill="#242424" stroke="#242424" points="1593.2237,-269.9289 1590.0018,-259.8359 1586.2264,-269.7352 1593.2237,-269.9289"/>
</g>
<!-- path.js&#45;&gt;math.js -->
<g id="edge47" class="edge">
<title>path.js&#45;&gt;math.js</title>
<path fill="none" stroke="#242424" d="M1570.5368,-1244.8507C1583.2892,-1185.6848 1606.6913,-1077.1086 1620.5263,-1012.9197"/>
<polygon fill="#242424" stroke="#242424" points="1623.9759,-1013.5262 1622.6615,-1003.0132 1617.133,-1012.0513 1623.9759,-1013.5262"/>
</g>
<!-- path.js&#45;&gt;reduce.js -->
<g id="edge48" class="edge">
<title>path.js&#45;&gt;reduce.js</title>
<path fill="none" stroke="#242424" d="M1551.3869,-1244.8507C1537.4724,-1188.3631 1512.4639,-1086.8372 1496.4683,-1021.9008"/>
<polygon fill="#242424" stroke="#242424" points="1499.7719,-1020.6782 1493.9816,-1011.8056 1492.975,-1022.3525 1499.7719,-1020.6782"/>
</g>
<!-- random&#45;floor.js&#45;&gt;katsu&#45;curry/katsu&#45;curry.js -->
<g id="edge49" class="edge">
<title>random&#45;floor.js&#45;&gt;katsu&#45;curry/katsu&#45;curry.js</title>
<path fill="none" stroke="#242424" d="M1031.1973,-606.1236C1058.4198,-504.8982 1103.036,-339.2162 1103.6002,-338.5677 1194.0319,-234.6149 1345.1925,-180.9415 1455.7524,-154.2345"/>
<polygon fill="#242424" stroke="#242424" points="1456.7256,-157.6009 1465.6492,-151.8895 1455.1116,-150.7896 1456.7256,-157.6009"/>
</g>
<!-- random&#45;take.js&#45;&gt;katsu&#45;curry/katsu&#45;curry.js -->
<g id="edge50" class="edge">
<title>random&#45;take.js&#45;&gt;katsu&#45;curry/katsu&#45;curry.js</title>
<path fill="none" stroke="#242424" d="M1166.5918,-887.6795C1151.9813,-760.6441 1141.3925,-499.0025 1270.6002,-338.5677 1322.5003,-274.1243 1399.84,-223.1483 1465.8289,-187.7019"/>
<polygon fill="#242424" stroke="#242424" points="1467.8679,-190.5822 1475.0611,-182.8035 1464.587,-184.3987 1467.8679,-190.5822"/>
</g>
<!-- random&#45;take.js&#45;&gt;iterate.js -->
<g id="edge51" class="edge">
<title>random&#45;take.js&#45;&gt;iterate.js</title>
<path fill="none" stroke="#242424" d="M1193.809,-888.658C1203.5081,-845.0456 1215.7303,-790.0877 1225.1076,-747.9226"/>
<polygon fill="#242424" stroke="#242424" points="1228.5508,-748.562 1227.3052,-738.0407 1221.7177,-747.0423 1228.5508,-748.562"/>
</g>
<!-- random&#45;take.js&#45;&gt;random&#45;floor.js -->
<g id="edge52" class="edge">
<title>random&#45;take.js&#45;&gt;random&#45;floor.js</title>
<path fill="none" stroke="#242424" d="M1139.0773,-897.2323C1114.5652,-856.3125 1082.6824,-803.0882 1056.8105,-759.8982"/>
<polygon fill="#242424" stroke="#242424" points="1059.6946,-757.9019 1051.5532,-751.1219 1053.6895,-761.4991 1059.6946,-757.9019"/>
</g>
<!-- random&#45;word.js&#45;&gt;katsu&#45;curry/katsu&#45;curry.js -->
<g id="edge53" class="edge">
<title>random&#45;word.js&#45;&gt;katsu&#45;curry/katsu&#45;curry.js</title>
<path fill="none" stroke="#242424" d="M1123.6938,-1214.9968C1112.2168,-1173.901 1099.374,-1121.01 1093.6002,-1072.9307 1081.7946,-974.6243 1085.0835,-948.7978 1093.6002,-850.1521 1103.5258,-735.1868 1114.0113,-431.3638 1182.6002,-338.5677 1249.1057,-248.5902 1365.5456,-194.6213 1457.5473,-164.1662"/>
<polygon fill="#242424" stroke="#242424" points="1458.7924,-167.4417 1467.2198,-161.0206 1456.6275,-160.7849 1458.7924,-167.4417"/>
</g>
<!-- random&#45;word.js&#45;&gt;array.js -->
<g id="edge54" class="edge">
<title>random&#45;word.js&#45;&gt;array.js</title>
<path fill="none" stroke="#242424" d="M1100.9316,-1226.3666C1053.8103,-1163.1282 980.5846,-1064.857 937.8365,-1007.4876"/>
<polygon fill="#242424" stroke="#242424" points="940.5389,-1005.2566 931.7573,-999.3291 934.9258,-1009.4391 940.5389,-1005.2566"/>
</g>
<!-- random&#45;word.js&#45;&gt;random&#45;take.js -->
<g id="edge55" class="edge">
<title>random&#45;word.js&#45;&gt;random&#45;take.js</title>
<path fill="none" stroke="#242424" d="M1152.9416,-1211.804C1157.8113,-1162.3815 1164.2122,-1097.418 1169.272,-1046.065"/>
<polygon fill="#242424" stroke="#242424" points="1172.7677,-1046.2796 1170.2652,-1035.9846 1165.8015,-1045.5931 1172.7677,-1046.2796"/>
</g>
<!-- reduce.js&#45;&gt;delegate&#45;fast.js -->
<g id="edge57" class="edge">
<title>reduce.js&#45;&gt;delegate&#45;fast.js</title>
<path fill="none" stroke="#242424" d="M1456.2551,-916.2972C1435.158,-878.054 1404.7736,-821.5972 1380.6002,-771.1521 1343.64,-694.0236 1364.6567,-655.2539 1304.6002,-594.3599 1226.7062,-515.3798 1104.9758,-470.5695 1021.467,-447.5684"/>
<polygon fill="#242424" stroke="#242424" points="1022.2993,-444.1679 1011.7325,-444.9381 1020.4733,-450.9255 1022.2993,-444.1679"/>
</g>
<!-- fast.js/reduce.js -->
<g id="node33" class="node">
<title>fast.js/reduce.js</title>
<ellipse fill="none" stroke="#0c821d" stroke-width="4" cx="1477.6002" cy="-682.756" rx="88.2923" ry="88.2923"/>
<text text-anchor="middle" x="1477.6002" y="-680.356" font-family="Fira Code" font-size="12.00" fill="#0c821d">fast.js/reduce.js</text>
</g>
<!-- reduce.js&#45;&gt;fast.js/reduce.js -->
<g id="edge56" class="edge">
<title>reduce.js&#45;&gt;fast.js/reduce.js</title>
<path fill="none" stroke="#242424" d="M1480.8572,-909.7574C1480.3405,-873.747 1479.6356,-824.6183 1479.0137,-781.2741"/>
<polygon fill="#242424" stroke="#242424" points="1482.5132,-781.2082 1478.87,-771.2594 1475.5139,-781.3086 1482.5132,-781.2082"/>
</g>
<!-- reject.js&#45;&gt;katsu&#45;curry/katsu&#45;curry.js -->
<g id="edge58" class="edge">
<title>reject.js&#45;&gt;katsu&#45;curry/katsu&#45;curry.js</title>
<path fill="none" stroke="#242424" d="M1325.4543,-910.0735C1331.8286,-838.1366 1347.3243,-704.0245 1380.6002,-594.3599 1417.1271,-473.9812 1478.5265,-344.4446 1526.045,-252.8165"/>
<polygon fill="#242424" stroke="#242424" points="1529.2305,-254.2769 1530.7444,-243.7908 1523.0217,-251.0441 1529.2305,-254.2769"/>
</g>
<!-- reject.js&#45;&gt;filter.js -->
<g id="edge59" class="edge">
<title>reject.js&#45;&gt;filter.js</title>
<path fill="none" stroke="#242424" d="M1305.6764,-912.2083C1296.1799,-890.1611 1281.9279,-865.6963 1261.6002,-850.1521 1138.7085,-756.1794 1059.8992,-842.4418 922.6002,-771.1521 901.8519,-760.379 881.9992,-744.2601 865.5913,-728.7252"/>
<polygon fill="#242424" stroke="#242424" points="867.9168,-726.1048 858.3041,-721.6499 863.0406,-731.127 867.9168,-726.1048"/>
</g>
<!-- string.js&#45;&gt;entrust/entrust.js -->
<g id="edge60" class="edge">
<title>string.js&#45;&gt;entrust/entrust.js</title>
<path fill="none" stroke="#242424" d="M539.101,-375.5383C535.668,-336.2993 530.8266,-280.9623 526.6069,-232.7311"/>
<polygon fill="#242424" stroke="#242424" points="530.075,-232.2122 525.7167,-222.5553 523.1016,-232.8223 530.075,-232.2122"/>
</g>
<!-- ternary.js&#45;&gt;katsu&#45;curry/katsu&#45;curry.js -->
<g id="edge61" class="edge">
<title>ternary.js&#45;&gt;katsu&#45;curry/katsu&#45;curry.js</title>
<path fill="none" stroke="#242424" d="M1814.8644,-631.2303C1777.5927,-546.7624 1702.4148,-376.3882 1650.091,-257.8079"/>
<polygon fill="#242424" stroke="#242424" points="1653.2884,-256.384 1646.0492,-248.648 1646.8841,-259.2099 1653.2884,-256.384"/>
</g>
<!-- triplet.js&#45;&gt;katsu&#45;curry/katsu&#45;curry.js -->
<g id="edge62" class="edge">
<title>triplet.js&#45;&gt;katsu&#45;curry/katsu&#45;curry.js</title>
<path fill="none" stroke="#242424" d="M2468.4152,-905.571C2451.5199,-752.7985 2405.7637,-339.9068 2404.6002,-338.5677 2317.4034,-238.214 1940.9103,-174.6917 1732.9521,-146.5915"/>
<polygon fill="#242424" stroke="#242424" points="1733.249,-143.1001 1722.8724,-145.2394 1732.3183,-150.038 1733.249,-143.1001"/>
</g>
<!-- types.js&#45;&gt;katsu&#45;curry/katsu&#45;curry.js -->
<g id="edge63" class="edge">
<title>types.js&#45;&gt;katsu&#45;curry/katsu&#45;curry.js</title>
<path fill="none" stroke="#242424" d="M1837.3993,-392.2919C1801.1997,-353.3144 1740.7266,-288.2007 1689.0671,-232.5768"/>
<polygon fill="#242424" stroke="#242424" points="1691.5349,-230.0908 1682.1652,-225.1453 1686.4058,-234.8544 1691.5349,-230.0908"/>
</g>
<!-- which.js&#45;&gt;katsu&#45;curry/katsu&#45;curry.js -->
<g id="edge66" class="edge">
<title>which.js&#45;&gt;katsu&#45;curry/katsu&#45;curry.js</title>
<path fill="none" stroke="#242424" d="M2122.6123,-1239.9816C2129.745,-1211.3263 2142.8805,-1175.6176 2166.6002,-1151.9307 2235.6915,-1082.9349 2316.3476,-1153.4365 2371.6002,-1072.9307 2427.6282,-991.2951 2405.3431,-943.2377 2371.6002,-850.1521 2270.6694,-571.717 2169.9815,-530.704 1944.6002,-338.5677 1876.2978,-280.3403 1789.7213,-228.648 1719.6434,-191.2648"/>
<polygon fill="#242424" stroke="#242424" points="1721.2196,-188.1391 1710.745,-186.5474 1717.9408,-194.3237 1721.2196,-188.1391"/>
</g>
<!-- which.js&#45;&gt;flip.js -->
<g id="edge67" class="edge">
<title>which.js&#45;&gt;flip.js</title>
<path fill="none" stroke="#242424" d="M2077.5581,-1256.7005C2031.2649,-1218.2204 1951.7892,-1147.1317 1899.6002,-1072.9307 1886.245,-1053.9427 1874.8511,-1030.9807 1866.1628,-1010.8498"/>
<polygon fill="#242424" stroke="#242424" points="1869.3444,-1009.3866 1862.2414,-1001.5254 1862.8918,-1012.1003 1869.3444,-1009.3866"/>
</g>
<!-- which.js&#45;&gt;triplet.js -->
<g id="edge68" class="edge">
<title>which.js&#45;&gt;triplet.js</title>
<path fill="none" stroke="#242424" d="M2148.7523,-1253.7508C2179.4152,-1225.2975 2226.2931,-1183.6889 2270.6002,-1151.9307 2326.7914,-1111.6542 2355.0261,-1121.1185 2404.6002,-1072.9307 2420.0118,-1057.95 2433.5516,-1038.9319 2444.5132,-1020.8688"/>
<polygon fill="#242424" stroke="#242424" points="2447.6194,-1022.4917 2449.6842,-1012.1 2441.5897,-1018.936 2447.6194,-1022.4917"/>
</g>
<!-- fast.js/array/every.js -->
<g id="node34" class="node">
<title>fast.js/array/every.js</title>
<ellipse fill="none" stroke="#0c821d" stroke-width="4" cx="2019.6002" cy="-961.5414" rx="111.2787" ry="111.2787"/>
<text text-anchor="middle" x="2019.6002" y="-959.1414" font-family="Fira Code" font-size="12.00" fill="#0c821d">fast.js/array/every.js</text>
</g>
<!-- which.js&#45;&gt;fast.js/array/every.js -->
<g id="edge64" class="edge">
<title>which.js&#45;&gt;fast.js/array/every.js</title>
<path fill="none" stroke="#242424" d="M2101.3908,-1241.1551C2089.1011,-1199.1407 2070.2537,-1134.7082 2053.7477,-1078.2799"/>
<polygon fill="#242424" stroke="#242424" points="2057.0751,-1077.188 2050.9083,-1068.5728 2050.3566,-1079.1533 2057.0751,-1077.188"/>
</g>
<!-- fast.js/array/some.js -->
<g id="node35" class="node">
<title>fast.js/array/some.js</title>
<ellipse fill="none" stroke="#0c821d" stroke-width="4" cx="2255.6002" cy="-961.5414" rx="106.5817" ry="106.5817"/>
<text text-anchor="middle" x="2255.6002" y="-959.1414" font-family="Fira Code" font-size="12.00" fill="#0c821d">fast.js/array/some.js</text>
</g>
<!-- which.js&#45;&gt;fast.js/array/some.js -->
<g id="edge65" class="edge">
<title>which.js&#45;&gt;fast.js/array/some.js</title>
<path fill="none" stroke="#242424" d="M2133.3239,-1243.186C2152.5229,-1198.964 2183.1394,-1128.4437 2208.9324,-1069.0335"/>
<polygon fill="#242424" stroke="#242424" points="2212.2561,-1070.1664 2213.0281,-1059.5997 2205.8351,-1067.3787 2212.2561,-1070.1664"/>
</g>
</g>
</svg>
