<?xml version="1.0" encoding="UTF-8" standalone="no"?>
<!DOCTYPE svg PUBLIC "-//W3C//DTD SVG 1.1//EN"
 "http://www.w3.org/Graphics/SVG/1.1/DTD/svg11.dtd">
<!-- Generated by graphviz version 2.40.1 (20161225.0304)
 -->
<!-- Title: G Pages: 1 -->
<svg width="3658pt" height="1873pt"
 viewBox="0.00 0.00 3657.89 1872.64" xmlns="http://www.w3.org/2000/svg" xmlns:xlink="http://www.w3.org/1999/xlink">
<g id="graph0" class="graph" transform="scale(1 1) rotate(0) translate(7.992 1864.6432)">
<title>G</title>
<polygon fill="#eeeeff" stroke="transparent" points="-7.992,7.992 -7.992,-1864.6432 3649.9006,-1864.6432 3649.9006,7.992 -7.992,7.992"/>
<!-- ../package.json -->
<g id="node1" class="node">
<title>../package.json</title>
<ellipse fill="none" stroke="#0c821d" stroke-width="4" cx="79.1988" cy="-1525.2604" rx="79.3981" ry="79.3981"/>
<text text-anchor="middle" x="79.1988" y="-1522.8604" font-family="Fira Code" font-size="12.00" fill="#0c821d">../package.json</text>
</g>
<!-- ap.js -->
<g id="node2" class="node">
<title>ap.js</title>
<ellipse fill="none" stroke="#242424" stroke-width="4" cx="1344.1988" cy="-1525.2604" rx="33.4262" ry="33.4262"/>
<text text-anchor="middle" x="1344.1988" y="-1522.8604" font-family="Fira Code" font-size="12.00" fill="#242424">ap.js</text>
</g>
<!-- Ⓜ katsu&#45;curry/katsu&#45;curry.js -->
<g id="node3" class="node">
<title>Ⓜ katsu&#45;curry/katsu&#45;curry.js</title>
<ellipse fill="none" stroke="#0c821d" stroke-width="4" cx="1615.1988" cy="-153.4077" rx="153.3154" ry="153.3154"/>
<text text-anchor="middle" x="1615.1988" y="-152.2077" font-family="Fira Code" font-size="12.00" fill="#0c821d">Ⓜ katsu&#45;curry/katsu&#45;curry.js</text>
</g>
<!-- ap.js&#45;&gt;Ⓜ katsu&#45;curry/katsu&#45;curry.js -->
<g id="edge1" class="edge">
<title>ap.js&#45;&gt;Ⓜ katsu&#45;curry/katsu&#45;curry.js</title>
<path fill="none" stroke="#242424" d="M1333.3371,-1493.5024C1318.5453,-1448.4273 1292.8077,-1363.0129 1283.1988,-1287.8863 1251.4248,-1039.4638 1216.8482,-966.1529 1282.1988,-724.383 1326.9671,-558.7591 1433.023,-391.8434 1513.511,-281.6352"/>
<polygon fill="#242424" stroke="#242424" points="1516.4093,-283.6015 1519.5042,-273.4688 1510.7659,-279.4599 1516.4093,-283.6015"/>
</g>
<!-- map.js -->
<g id="node4" class="node">
<title>map.js</title>
<ellipse fill="none" stroke="#242424" stroke-width="4" cx="770.1988" cy="-1154.3444" rx="37.623" ry="37.623"/>
<text text-anchor="middle" x="770.1988" y="-1151.9444" font-family="Fira Code" font-size="12.00" fill="#242424">map.js</text>
</g>
<!-- ap.js&#45;&gt;map.js -->
<g id="edge2" class="edge">
<title>ap.js&#45;&gt;map.js</title>
<path fill="none" stroke="#242424" d="M1314.6165,-1509.8625C1215.7766,-1458.3932 902.6464,-1295.1504 893.1988,-1287.8863 857.2652,-1260.2576 822.8896,-1221.5301 799.6605,-1192.8912"/>
<polygon fill="#242424" stroke="#242424" points="802.1013,-1190.3401 793.1165,-1184.7254 796.6389,-1194.7176 802.1013,-1190.3401"/>
</g>
<!-- reduce.js -->
<g id="node5" class="node">
<title>reduce.js</title>
<ellipse fill="none" stroke="#242424" stroke-width="4" cx="1344.1988" cy="-1154.3444" rx="51.7142" ry="51.7142"/>
<text text-anchor="middle" x="1344.1988" y="-1151.9444" font-family="Fira Code" font-size="12.00" fill="#242424">reduce.js</text>
</g>
<!-- ap.js&#45;&gt;reduce.js -->
<g id="edge3" class="edge">
<title>ap.js&#45;&gt;reduce.js</title>
<path fill="none" stroke="#242424" d="M1344.1988,-1492.0177C1344.1988,-1429.9888 1344.1988,-1295.7347 1344.1988,-1216.4669"/>
<polygon fill="#242424" stroke="#242424" points="1347.6989,-1216.134 1344.1988,-1206.1341 1340.6989,-1216.1341 1347.6989,-1216.134"/>
</g>
<!-- types.js -->
<g id="node6" class="node">
<title>types.js</title>
<ellipse fill="none" stroke="#242424" stroke-width="4" cx="1563.1988" cy="-1154.3444" rx="47.0167" ry="47.0167"/>
<text text-anchor="middle" x="1563.1988" y="-1151.9444" font-family="Fira Code" font-size="12.00" fill="#242424">types.js</text>
</g>
<!-- ap.js&#45;&gt;types.js -->
<g id="edge4" class="edge">
<title>ap.js&#45;&gt;types.js</title>
<path fill="none" stroke="#242424" d="M1364.9047,-1499.002C1397.8609,-1456.4106 1463.028,-1368.8559 1507.1988,-1287.8863 1521.0162,-1262.5576 1533.6995,-1233.1001 1543.4885,-1208.3062"/>
<polygon fill="#242424" stroke="#242424" points="1546.8622,-1209.288 1547.2297,-1198.6996 1540.3393,-1206.7477 1546.8622,-1209.288"/>
</g>
<!-- map.js&#45;&gt;Ⓜ katsu&#45;curry/katsu&#45;curry.js -->
<g id="edge56" class="edge">
<title>map.js&#45;&gt;Ⓜ katsu&#45;curry/katsu&#45;curry.js</title>
<path fill="none" stroke="#242424" d="M763.8295,-1116.8079C757.523,-1088.2618 745.609,-1049.1895 724.1988,-1020.8025 687.2996,-971.879 639.514,-996.1469 611.1988,-941.8025 489.0719,-707.4089 611.6785,-545.6169 822.1988,-385.8153 1008.7449,-244.212 1279.8447,-188.6985 1451.8023,-167.0604"/>
<polygon fill="#242424" stroke="#242424" points="1452.463,-170.5055 1461.9591,-165.8072 1451.6058,-163.5582 1452.463,-170.5055"/>
</g>
<!-- Ⓜ fast.js/map.js -->
<g id="node41" class="node">
<title>Ⓜ fast.js/map.js</title>
<ellipse fill="none" stroke="#0c821d" stroke-width="4" cx="714.1988" cy="-833.0928" rx="93.6213" ry="93.6213"/>
<text text-anchor="middle" x="714.1988" y="-831.8928" font-family="Fira Code" font-size="12.00" fill="#0c821d">Ⓜ fast.js/map.js</text>
</g>
<!-- map.js&#45;&gt;Ⓜ fast.js/map.js -->
<g id="edge55" class="edge">
<title>map.js&#45;&gt;Ⓜ fast.js/map.js</title>
<path fill="none" stroke="#242424" d="M763.6653,-1116.864C755.9718,-1072.7291 742.8745,-997.5948 732.089,-935.7221"/>
<polygon fill="#242424" stroke="#242424" points="735.4759,-934.77 730.3105,-925.5197 728.5799,-935.9722 735.4759,-934.77"/>
</g>
<!-- delegate&#45;fast.js -->
<g id="node12" class="node">
<title>delegate&#45;fast.js</title>
<ellipse fill="none" stroke="#242424" stroke-width="4" cx="2170.1988" cy="-515.5992" rx="83.5954" ry="83.5954"/>
<text text-anchor="middle" x="2170.1988" y="-513.1992" font-family="Fira Code" font-size="12.00" fill="#242424">delegate&#45;fast.js</text>
</g>
<!-- reduce.js&#45;&gt;delegate&#45;fast.js -->
<g id="edge73" class="edge">
<title>reduce.js&#45;&gt;delegate&#45;fast.js</title>
<path fill="none" stroke="#242424" d="M1331.3531,-1104.2008C1306.8351,-1003.3095 1259.8381,-780.6123 1307.1988,-724.383 1373.7336,-645.3892 1664.8896,-669.9794 1765.1988,-645.383 1875.7977,-618.2635 2000.1325,-576.7145 2081.5094,-547.9657"/>
<polygon fill="#242424" stroke="#242424" points="2082.9605,-551.1648 2091.2166,-544.5251 2080.6219,-544.567 2082.9605,-551.1648"/>
</g>
<!-- Ⓜ fast.js/reduce.js -->
<g id="node42" class="node">
<title>Ⓜ fast.js/reduce.js</title>
<ellipse fill="none" stroke="#0c821d" stroke-width="4" cx="1425.1988" cy="-833.0928" rx="108.9199" ry="108.9199"/>
<text text-anchor="middle" x="1425.1988" y="-831.8928" font-family="Fira Code" font-size="12.00" fill="#0c821d">Ⓜ fast.js/reduce.js</text>
</g>
<!-- reduce.js&#45;&gt;Ⓜ fast.js/reduce.js -->
<g id="edge72" class="edge">
<title>reduce.js&#45;&gt;Ⓜ fast.js/reduce.js</title>
<path fill="none" stroke="#242424" d="M1356.8551,-1104.1488C1367.3269,-1062.6166 1382.6124,-1001.9933 1396.0735,-948.6057"/>
<polygon fill="#242424" stroke="#242424" points="1399.513,-949.2798 1398.5642,-938.7275 1392.7255,-947.5683 1399.513,-949.2798"/>
</g>
<!-- types.js&#45;&gt;Ⓜ katsu&#45;curry/katsu&#45;curry.js -->
<g id="edge80" class="edge">
<title>types.js&#45;&gt;Ⓜ katsu&#45;curry/katsu&#45;curry.js</title>
<path fill="none" stroke="#242424" d="M1566.2481,-1107.0803C1568.9888,-1064.0148 1573.0545,-998.6472 1576.1988,-941.8025 1588.1412,-725.9008 1600.1778,-476.6398 1607.6558,-317.1599"/>
<polygon fill="#242424" stroke="#242424" points="1611.1698,-316.9392 1608.1417,-306.7864 1604.1775,-316.6116 1611.1698,-316.9392"/>
</g>
<!-- array.js -->
<g id="node7" class="node">
<title>array.js</title>
<ellipse fill="none" stroke="#242424" stroke-width="4" cx="2193.1988" cy="-1154.3444" rx="47.0167" ry="47.0167"/>
<text text-anchor="middle" x="2193.1988" y="-1151.9444" font-family="Fira Code" font-size="12.00" fill="#242424">array.js</text>
</g>
<!-- array.js&#45;&gt;Ⓜ katsu&#45;curry/katsu&#45;curry.js -->
<g id="edge6" class="edge">
<title>array.js&#45;&gt;Ⓜ katsu&#45;curry/katsu&#45;curry.js</title>
<path fill="none" stroke="#242424" d="M2196.3259,-1107.1835C2202.0021,-1009.7955 2210.5428,-790.0758 2177.1988,-724.383 2151.563,-673.8766 2105.9873,-694.1613 2077.1988,-645.383 2017.7638,-544.6783 2101.5962,-481.3744 2034.1988,-385.8153 1971.2235,-296.526 1862.565,-237.6795 1771.6819,-201.5425"/>
<polygon fill="#242424" stroke="#242424" points="1772.6904,-198.1787 1762.1026,-197.7909 1770.1376,-204.6967 1772.6904,-198.1787"/>
</g>
<!-- Ⓜ entrust/entrust.js -->
<g id="node8" class="node">
<title>Ⓜ entrust/entrust.js</title>
<ellipse fill="none" stroke="#0c821d" stroke-width="4" cx="2598.1988" cy="-153.4077" rx="113.8526" ry="113.8526"/>
<text text-anchor="middle" x="2598.1988" y="-152.2077" font-family="Fira Code" font-size="12.00" fill="#0c821d">Ⓜ entrust/entrust.js</text>
</g>
<!-- array.js&#45;&gt;Ⓜ entrust/entrust.js -->
<g id="edge5" class="edge">
<title>array.js&#45;&gt;Ⓜ entrust/entrust.js</title>
<path fill="none" stroke="#242424" d="M2220.8741,-1115.9012C2250.7377,-1073.8796 2299.128,-1004.2022 2337.1988,-941.8025 2415.3925,-813.6397 2451.5778,-787.7635 2499.1988,-645.383 2536.1812,-534.8106 2513.9185,-500.0606 2537.1988,-385.8153 2544.7362,-348.8264 2554.5669,-308.9479 2564.1279,-272.8443"/>
<polygon fill="#242424" stroke="#242424" points="2567.6203,-273.3311 2566.8153,-262.7669 2560.8567,-271.5274 2567.6203,-273.3311"/>
</g>
<!-- filter.js -->
<g id="node9" class="node">
<title>filter.js</title>
<ellipse fill="none" stroke="#242424" stroke-width="4" cx="2276.1988" cy="-833.0928" rx="51.7142" ry="51.7142"/>
<text text-anchor="middle" x="2276.1988" y="-830.6928" font-family="Fira Code" font-size="12.00" fill="#242424">filter.js</text>
</g>
<!-- array.js&#45;&gt;filter.js -->
<g id="edge7" class="edge">
<title>array.js&#45;&gt;filter.js</title>
<path fill="none" stroke="#242424" d="M2205.0025,-1108.6581C2219.6379,-1052.012 2244.6206,-955.3162 2260.7634,-892.8356"/>
<polygon fill="#242424" stroke="#242424" points="2264.1625,-893.6706 2263.2754,-883.113 2257.3851,-891.9195 2264.1625,-893.6706"/>
</g>
<!-- filter.js&#45;&gt;delegate&#45;fast.js -->
<g id="edge15" class="edge">
<title>filter.js&#45;&gt;delegate&#45;fast.js</title>
<path fill="none" stroke="#242424" d="M2259.7526,-783.8327C2243.8331,-736.1504 2219.335,-662.773 2199.9832,-604.81"/>
<polygon fill="#242424" stroke="#242424" points="2203.2882,-603.6569 2196.8015,-595.28 2196.6485,-605.8737 2203.2882,-603.6569"/>
</g>
<!-- Ⓜ fast.js/filter.js -->
<g id="node15" class="node">
<title>Ⓜ fast.js/filter.js</title>
<ellipse fill="none" stroke="#0c821d" stroke-width="4" cx="2381.1988" cy="-515.5992" rx="108.9199" ry="108.9199"/>
<text text-anchor="middle" x="2381.1988" y="-514.3992" font-family="Fira Code" font-size="12.00" fill="#0c821d">Ⓜ fast.js/filter.js</text>
</g>
<!-- filter.js&#45;&gt;Ⓜ fast.js/filter.js -->
<g id="edge14" class="edge">
<title>filter.js&#45;&gt;Ⓜ fast.js/filter.js</title>
<path fill="none" stroke="#242424" d="M2292.4899,-783.8327C2306.1835,-742.4265 2326.2852,-681.6442 2343.8921,-628.4053"/>
<polygon fill="#242424" stroke="#242424" points="2347.2177,-629.4963 2347.0346,-618.9031 2340.5717,-627.2983 2347.2177,-629.4963"/>
</g>
<!-- chain.js -->
<g id="node10" class="node">
<title>chain.js</title>
<ellipse fill="none" stroke="#242424" stroke-width="4" cx="2425.1988" cy="-1525.2604" rx="47.0167" ry="47.0167"/>
<text text-anchor="middle" x="2425.1988" y="-1522.8604" font-family="Fira Code" font-size="12.00" fill="#242424">chain.js</text>
</g>
<!-- Ⓜ flatmap&#45;fast/index.js -->
<g id="node11" class="node">
<title>Ⓜ flatmap&#45;fast/index.js</title>
<ellipse fill="none" stroke="#0c821d" stroke-width="4" cx="2425.1988" cy="-1154.3444" rx="128.651" ry="128.651"/>
<text text-anchor="middle" x="2425.1988" y="-1153.1444" font-family="Fira Code" font-size="12.00" fill="#0c821d">Ⓜ flatmap&#45;fast/index.js</text>
</g>
<!-- chain.js&#45;&gt;Ⓜ flatmap&#45;fast/index.js -->
<g id="edge8" class="edge">
<title>chain.js&#45;&gt;Ⓜ flatmap&#45;fast/index.js</title>
<path fill="none" stroke="#242424" d="M2425.1988,-1477.9069C2425.1988,-1431.4683 2425.1988,-1358.3773 2425.1988,-1293.4053"/>
<polygon fill="#242424" stroke="#242424" points="2428.6989,-1293.0527 2425.1988,-1283.0527 2421.6989,-1293.0527 2428.6989,-1293.0527"/>
</g>
<!-- chain.js&#45;&gt;delegate&#45;fast.js -->
<g id="edge9" class="edge">
<title>chain.js&#45;&gt;delegate&#45;fast.js</title>
<path fill="none" stroke="#242424" d="M2454.9155,-1488.5993C2488.8063,-1444.2043 2542.2314,-1365.6705 2563.1988,-1287.8863 2594.0938,-1173.2734 2601.1814,-1133.2656 2563.1988,-1020.8025 2510.1896,-863.8469 2444.1855,-850.8697 2337.1988,-724.383 2306.1301,-687.6515 2293.7197,-682.571 2263.1988,-645.383 2249.8241,-629.0867 2236.188,-611.0184 2223.6263,-593.6692"/>
<polygon fill="#242424" stroke="#242424" points="2226.2314,-591.2969 2217.5518,-585.221 2220.5481,-595.3834 2226.2314,-591.2969"/>
</g>
<!-- delegate&#45;fast.js&#45;&gt;Ⓜ katsu&#45;curry/katsu&#45;curry.js -->
<g id="edge12" class="edge">
<title>delegate&#45;fast.js&#45;&gt;Ⓜ katsu&#45;curry/katsu&#45;curry.js</title>
<path fill="none" stroke="#242424" d="M2125.5888,-444.5881C2110.369,-423.947 2092.1117,-402.4944 2072.1988,-385.8153 1981.8101,-310.1057 1862.6046,-250.5209 1768.6048,-210.6443"/>
<polygon fill="#242424" stroke="#242424" points="1769.8747,-207.3815 1759.3001,-206.7264 1767.1581,-213.8329 1769.8747,-207.3815"/>
</g>
<!-- delegate&#45;fast.js&#45;&gt;Ⓜ entrust/entrust.js -->
<g id="edge11" class="edge">
<title>delegate&#45;fast.js&#45;&gt;Ⓜ entrust/entrust.js</title>
<path fill="none" stroke="#242424" d="M2214.6146,-444.4044C2228.8394,-424.3229 2245.523,-403.2237 2263.1988,-385.8153 2331.3924,-318.6533 2421.0076,-257.6017 2490.3901,-214.9427"/>
<polygon fill="#242424" stroke="#242424" points="2492.4713,-217.7727 2499.1782,-209.5711 2488.8205,-211.8001 2492.4713,-217.7727"/>
</g>
<!-- choice.js -->
<g id="node13" class="node">
<title>choice.js</title>
<ellipse fill="none" stroke="#242424" stroke-width="4" cx="1212.1988" cy="-515.5992" rx="51.7142" ry="51.7142"/>
<text text-anchor="middle" x="1212.1988" y="-513.1992" font-family="Fira Code" font-size="12.00" fill="#242424">choice.js</text>
</g>
<!-- choice.js&#45;&gt;Ⓜ katsu&#45;curry/katsu&#45;curry.js -->
<g id="edge10" class="edge">
<title>choice.js&#45;&gt;Ⓜ katsu&#45;curry/katsu&#45;curry.js</title>
<path fill="none" stroke="#242424" d="M1230.0147,-467.108C1241.1701,-441.0967 1257.3934,-409.5964 1278.1988,-385.8153 1332.2777,-324.0018 1406.2043,-270.6366 1471.0398,-230.6884"/>
<polygon fill="#242424" stroke="#242424" points="1473.0058,-233.5888 1479.7152,-225.3892 1469.3568,-227.6151 1473.0058,-233.5888"/>
</g>
<!-- either.js -->
<g id="node14" class="node">
<title>either.js</title>
<ellipse fill="none" stroke="#242424" stroke-width="4" cx="2719.1988" cy="-515.5992" rx="51.7142" ry="51.7142"/>
<text text-anchor="middle" x="2719.1988" y="-513.1992" font-family="Fira Code" font-size="12.00" fill="#242424">either.js</text>
</g>
<!-- either.js&#45;&gt;Ⓜ entrust/entrust.js -->
<g id="edge13" class="edge">
<title>either.js&#45;&gt;Ⓜ entrust/entrust.js</title>
<path fill="none" stroke="#242424" d="M2702.7543,-466.3755C2686.0641,-416.4163 2659.6038,-337.2123 2637.4789,-270.9856"/>
<polygon fill="#242424" stroke="#242424" points="2640.7361,-269.6893 2634.2478,-261.3136 2634.0968,-271.9074 2640.7361,-269.6893"/>
</g>
<!-- flip.js -->
<g id="node16" class="node">
<title>flip.js</title>
<ellipse fill="none" stroke="#242424" stroke-width="4" cx="256.1988" cy="-1154.3444" rx="42.3196" ry="42.3196"/>
<text text-anchor="middle" x="256.1988" y="-1151.9444" font-family="Fira Code" font-size="12.00" fill="#242424">flip.js</text>
</g>
<!-- flip.js&#45;&gt;Ⓜ katsu&#45;curry/katsu&#45;curry.js -->
<g id="edge16" class="edge">
<title>flip.js&#45;&gt;Ⓜ katsu&#45;curry/katsu&#45;curry.js</title>
<path fill="none" stroke="#242424" d="M268.2215,-1113.6274C277.1868,-1086.3306 290.86,-1050.1487 308.1988,-1020.8025 331.472,-981.4123 354.4419,-983.0687 374.1988,-941.8025 483.0115,-714.5259 307.5371,-564.5083 485.1988,-385.8153 618.804,-251.4346 1172.2772,-188.7342 1451.9264,-165.1673"/>
<polygon fill="#242424" stroke="#242424" points="1452.4935,-168.6322 1462.1673,-164.3115 1451.9105,-161.6566 1452.4935,-168.6322"/>
</g>
<!-- future.js -->
<g id="node17" class="node">
<title>future.js</title>
<ellipse fill="none" stroke="#242424" stroke-width="4" cx="2769.1988" cy="-833.0928" rx="51.7142" ry="51.7142"/>
<text text-anchor="middle" x="2769.1988" y="-830.6928" font-family="Fira Code" font-size="12.00" fill="#242424">future.js</text>
</g>
<!-- future.js&#45;&gt;Ⓜ entrust/entrust.js -->
<g id="edge17" class="edge">
<title>future.js&#45;&gt;Ⓜ entrust/entrust.js</title>
<path fill="none" stroke="#242424" d="M2781.5625,-782.7152C2799.9374,-698.0273 2827.5031,-522.9451 2780.1988,-385.8153 2778.7339,-381.5686 2724.2472,-312.2185 2675.2752,-250.3743"/>
<polygon fill="#242424" stroke="#242424" points="2677.9794,-248.1514 2669.0265,-242.486 2672.4924,-252.4979 2677.9794,-248.1514"/>
</g>
<!-- index.js -->
<g id="node18" class="node">
<title>index.js</title>
<ellipse fill="none" stroke="#242424" stroke-width="4" cx="1695.1988" cy="-1809.6428" rx="47.0167" ry="47.0167"/>
<text text-anchor="middle" x="1695.1988" y="-1807.2429" font-family="Fira Code" font-size="12.00" fill="#242424">index.js</text>
</g>
<!-- index.js&#45;&gt;../package.json -->
<g id="edge20" class="edge">
<title>index.js&#45;&gt;../package.json</title>
<path fill="none" stroke="#242424" d="M1647.9254,-1808.3032C1404.6272,-1801.0695 300.0218,-1763.9849 172.1988,-1683.6345 144.6733,-1666.3318 124.3209,-1637.6875 109.7941,-1609.4813"/>
<polygon fill="#242424" stroke="#242424" points="112.8506,-1607.7662 105.2806,-1600.3537 106.5759,-1610.8691 112.8506,-1607.7662"/>
</g>
<!-- index.js&#45;&gt;ap.js -->
<g id="edge21" class="edge">
<title>index.js&#45;&gt;ap.js</title>
<path fill="none" stroke="#242424" d="M1648.7139,-1801.4024C1584.984,-1787.7778 1470.716,-1754.6706 1403.1988,-1683.6345 1373.0261,-1651.8892 1357.9807,-1603.321 1350.68,-1568.3401"/>
<polygon fill="#242424" stroke="#242424" points="1354.0917,-1567.5496 1348.7372,-1558.4074 1347.2219,-1568.8933 1354.0917,-1567.5496"/>
</g>
<!-- index.js&#45;&gt;Ⓜ katsu&#45;curry/katsu&#45;curry.js -->
<g id="edge18" class="edge">
<title>index.js&#45;&gt;Ⓜ katsu&#45;curry/katsu&#45;curry.js</title>
<path fill="none" stroke="#242424" d="M1697.2439,-1762.4248C1703.6518,-1615.3162 1723.489,-1166.4159 1733.1988,-1020.8025 1744.3405,-853.7154 1758.0813,-812.6898 1765.1988,-645.383 1770.1022,-530.1238 1797.8083,-496.474 1765.1988,-385.8153 1754.607,-349.8726 1736.537,-314.2497 1716.5312,-282.0905"/>
<polygon fill="#242424" stroke="#242424" points="1719.4327,-280.1303 1711.1256,-273.5544 1713.5188,-283.8754 1719.4327,-280.1303"/>
</g>
<!-- index.js&#45;&gt;map.js -->
<g id="edge31" class="edge">
<title>index.js&#45;&gt;map.js</title>
<path fill="none" stroke="#242424" d="M1648.1218,-1808.4499C1496.9305,-1803.6649 1027.2144,-1781.0878 918.1988,-1683.6345 776.6969,-1557.1403 765.7384,-1307.656 767.8866,-1202.6875"/>
<polygon fill="#242424" stroke="#242424" points="771.3929,-1202.4809 768.1496,-1192.3948 764.3952,-1202.3021 771.3929,-1202.4809"/>
</g>
<!-- index.js&#45;&gt;reduce.js -->
<g id="edge41" class="edge">
<title>index.js&#45;&gt;reduce.js</title>
<path fill="none" stroke="#242424" d="M1649.0393,-1799.4898C1592.0226,-1784.4224 1496.4281,-1750.4314 1446.1988,-1683.6345 1360.0863,-1569.1186 1413.4205,-1507.557 1386.1988,-1366.8863 1376.2752,-1315.6053 1364.7592,-1257.4182 1356.2983,-1214.9069"/>
<polygon fill="#242424" stroke="#242424" points="1359.7105,-1214.1204 1354.3248,-1204.9966 1352.8453,-1215.4876 1359.7105,-1214.1204"/>
</g>
<!-- index.js&#45;&gt;types.js -->
<g id="edge46" class="edge">
<title>index.js&#45;&gt;types.js</title>
<path fill="none" stroke="#242424" d="M1682.4999,-1764.3401C1676.0112,-1740.4356 1668.2336,-1710.5557 1662.1988,-1683.6345 1623.8352,-1512.4954 1588.531,-1307.9278 1572.4062,-1210.8427"/>
<polygon fill="#242424" stroke="#242424" points="1575.854,-1210.2391 1570.767,-1200.9454 1568.9481,-1211.3829 1575.854,-1210.2391"/>
</g>
<!-- index.js&#45;&gt;array.js -->
<g id="edge22" class="edge">
<title>index.js&#45;&gt;array.js</title>
<path fill="none" stroke="#242424" d="M1741.8426,-1802.7837C1843.7523,-1786.804 2081.2508,-1743.828 2132.1988,-1683.6345 2247.4034,-1547.5239 2223.6903,-1316.2564 2204.9528,-1210.3348"/>
<polygon fill="#242424" stroke="#242424" points="2208.3939,-1209.6947 2203.1599,-1200.483 2201.5071,-1210.9481 2208.3939,-1209.6947"/>
</g>
<!-- index.js&#45;&gt;filter.js -->
<g id="edge26" class="edge">
<title>index.js&#45;&gt;filter.js</title>
<path fill="none" stroke="#242424" d="M1742.3046,-1804.2639C1853.9575,-1790.5218 2129.8562,-1750.4199 2190.1988,-1683.6345 2294.5843,-1568.1037 2285.6304,-1070.5922 2279.0032,-894.86"/>
<polygon fill="#242424" stroke="#242424" points="2282.496,-894.6035 2278.6109,-884.7467 2275.5013,-894.8749 2282.496,-894.6035"/>
</g>
<!-- index.js&#45;&gt;chain.js -->
<g id="edge23" class="edge">
<title>index.js&#45;&gt;chain.js</title>
<path fill="none" stroke="#242424" d="M1742.0998,-1803.3699C1864.2201,-1786.4446 2189.015,-1737.4731 2282.1988,-1683.6345 2328.6726,-1656.7835 2368.3459,-1609.5972 2394.0305,-1573.694"/>
<polygon fill="#242424" stroke="#242424" points="2397.0482,-1575.4871 2399.9344,-1565.2929 2391.321,-1571.4622 2397.0482,-1575.4871"/>
</g>
<!-- index.js&#45;&gt;choice.js -->
<g id="edge24" class="edge">
<title>index.js&#45;&gt;choice.js</title>
<path fill="none" stroke="#242424" d="M1648.7645,-1801.0804C1554.9324,-1782.8139 1347.7784,-1737.2833 1302.1988,-1683.6345 1159.4361,-1515.5979 1193.9425,-794.3073 1207.8469,-577.4827"/>
<polygon fill="#242424" stroke="#242424" points="1211.3565,-577.4463 1208.5126,-567.2404 1204.3713,-576.9923 1211.3565,-577.4463"/>
</g>
<!-- index.js&#45;&gt;either.js -->
<g id="edge25" class="edge">
<title>index.js&#45;&gt;either.js</title>
<path fill="none" stroke="#242424" d="M1742.191,-1805.9006C1912.5239,-1791.91 2490.624,-1740.559 2549.1988,-1683.6345 2629.5701,-1605.5277 2696.7213,-807.9635 2714.5561,-577.5919"/>
<polygon fill="#242424" stroke="#242424" points="2718.0645,-577.6159 2715.3433,-567.3765 2711.0852,-577.078 2718.0645,-577.6159"/>
</g>
<!-- index.js&#45;&gt;flip.js -->
<g id="edge27" class="edge">
<title>index.js&#45;&gt;flip.js</title>
<path fill="none" stroke="#242424" d="M1648.1087,-1808.0648C1428.6992,-1800.3089 513.2313,-1763.3479 416.1988,-1683.6345 270.1462,-1563.6505 254.1109,-1315.1231 254.4914,-1206.7654"/>
<polygon fill="#242424" stroke="#242424" points="257.9915,-1206.7548 254.5756,-1196.7257 250.9917,-1206.696 257.9915,-1206.7548"/>
</g>
<!-- index.js&#45;&gt;future.js -->
<g id="edge28" class="edge">
<title>index.js&#45;&gt;future.js</title>
<path fill="none" stroke="#242424" d="M1742.2169,-1806.9385C1928.2561,-1795.7935 2605.99,-1750.8247 2672.1988,-1683.6345 2686.1138,-1669.5133 2744.2494,-1087.7424 2763.1988,-894.6539"/>
<polygon fill="#242424" stroke="#242424" points="2766.6853,-894.9619 2764.1778,-884.6681 2759.7187,-894.2788 2766.6853,-894.9619"/>
</g>
<!-- Ⓜ katsu&#45;curry/utils/length.js -->
<g id="node19" class="node">
<title>Ⓜ katsu&#45;curry/utils/length.js</title>
<ellipse fill="none" stroke="#0c821d" stroke-width="4" cx="2882.1988" cy="-1525.2604" rx="158.2483" ry="158.2483"/>
<text text-anchor="middle" x="2882.1988" y="-1524.0604" font-family="Fira Code" font-size="12.00" fill="#0c821d">Ⓜ katsu&#45;curry/utils/length.js</text>
</g>
<!-- index.js&#45;&gt;Ⓜ katsu&#45;curry/utils/length.js -->
<g id="edge19" class="edge">
<title>index.js&#45;&gt;Ⓜ katsu&#45;curry/utils/length.js</title>
<path fill="none" stroke="#242424" d="M1742.222,-1807.6011C1917.8062,-1799.3991 2533.9767,-1765.2754 2710.1988,-1683.6345 2730.0013,-1674.4603 2749.0727,-1662.1539 2766.8465,-1648.4357"/>
<polygon fill="#242424" stroke="#242424" points="2769.255,-1650.9929 2774.9196,-1642.0395 2764.9079,-1645.5063 2769.255,-1650.9929"/>
</g>
<!-- invert.js -->
<g id="node20" class="node">
<title>invert.js</title>
<ellipse fill="none" stroke="#242424" stroke-width="4" cx="1132.1988" cy="-833.0928" rx="51.7142" ry="51.7142"/>
<text text-anchor="middle" x="1132.1988" y="-830.6928" font-family="Fira Code" font-size="12.00" fill="#242424">invert.js</text>
</g>
<!-- index.js&#45;&gt;invert.js -->
<g id="edge29" class="edge">
<title>index.js&#45;&gt;invert.js</title>
<path fill="none" stroke="#242424" d="M1648.4589,-1804.3483C1538.4309,-1790.8565 1268.133,-1751.3797 1212.1988,-1683.6345 1165.2098,-1626.7233 1178.7442,-1093.9854 1169.1988,-1020.8025 1163.6031,-977.9013 1154.123,-930.0621 1146.1599,-893.4162"/>
<polygon fill="#242424" stroke="#242424" points="1149.5218,-892.4071 1143.9587,-883.3904 1142.6847,-893.9084 1149.5218,-892.4071"/>
</g>
<!-- iterate.js -->
<g id="node21" class="node">
<title>iterate.js</title>
<ellipse fill="none" stroke="#242424" stroke-width="4" cx="1860.1988" cy="-833.0928" rx="56.412" ry="56.412"/>
<text text-anchor="middle" x="1860.1988" y="-830.6928" font-family="Fira Code" font-size="12.00" fill="#242424">iterate.js</text>
</g>
<!-- index.js&#45;&gt;iterate.js -->
<g id="edge30" class="edge">
<title>index.js&#45;&gt;iterate.js</title>
<path fill="none" stroke="#242424" d="M1720.6801,-1769.8601C1735.1928,-1745.7142 1752.7149,-1713.8233 1764.1988,-1683.6345 1828.3675,-1514.9492 1833.8614,-1467.0987 1855.1988,-1287.8863 1871.5423,-1150.6184 1867.8707,-988.4035 1863.9159,-899.5576"/>
<polygon fill="#242424" stroke="#242424" points="1867.4025,-899.1838 1863.446,-889.3555 1860.4099,-899.506 1867.4025,-899.1838"/>
</g>
<!-- math.js -->
<g id="node22" class="node">
<title>math.js</title>
<ellipse fill="none" stroke="#242424" stroke-width="4" cx="1456.1988" cy="-1154.3444" rx="42.3196" ry="42.3196"/>
<text text-anchor="middle" x="1456.1988" y="-1151.9444" font-family="Fira Code" font-size="12.00" fill="#242424">math.js</text>
</g>
<!-- index.js&#45;&gt;math.js -->
<g id="edge32" class="edge">
<title>index.js&#45;&gt;math.js</title>
<path fill="none" stroke="#242424" d="M1649.8236,-1795.7419C1601.0896,-1778.1789 1525.8587,-1742.8683 1490.1988,-1683.6345 1442.6001,-1604.5693 1448.6963,-1324.8125 1453.5831,-1207.1257"/>
<polygon fill="#242424" stroke="#242424" points="1457.0889,-1207.0636 1454.0208,-1196.9228 1450.0954,-1206.7636 1457.0889,-1207.0636"/>
</g>
<!-- object.js -->
<g id="node23" class="node">
<title>object.js</title>
<ellipse fill="none" stroke="#242424" stroke-width="4" cx="979.1988" cy="-1525.2604" rx="51.7142" ry="51.7142"/>
<text text-anchor="middle" x="979.1988" y="-1522.8604" font-family="Fira Code" font-size="12.00" fill="#242424">object.js</text>
</g>
<!-- index.js&#45;&gt;object.js -->
<g id="edge33" class="edge">
<title>index.js&#45;&gt;object.js</title>
<path fill="none" stroke="#242424" d="M1648.2529,-1805.3032C1553.9925,-1795.1166 1336.8248,-1764.1489 1174.1988,-1683.6345 1115.9976,-1654.8197 1059.5276,-1605.9417 1022.4668,-1570.0902"/>
<polygon fill="#242424" stroke="#242424" points="1024.4557,-1567.1397 1014.8594,-1562.6495 1019.5611,-1572.144 1024.4557,-1567.1397"/>
</g>
<!-- path.js -->
<g id="node24" class="node">
<title>path.js</title>
<ellipse fill="none" stroke="#242424" stroke-width="4" cx="1541.1988" cy="-1525.2604" rx="42.3196" ry="42.3196"/>
<text text-anchor="middle" x="1541.1988" y="-1522.8604" font-family="Fira Code" font-size="12.00" fill="#242424">path.js</text>
</g>
<!-- index.js&#45;&gt;path.js -->
<g id="edge34" class="edge">
<title>index.js&#45;&gt;path.js</title>
<path fill="none" stroke="#242424" d="M1664.9736,-1773.5568C1645.5956,-1749.2272 1620.8559,-1715.8106 1603.1988,-1683.6345 1584.2104,-1649.0324 1568.1477,-1607.3856 1557.1325,-1575.485"/>
<polygon fill="#242424" stroke="#242424" points="1560.4118,-1574.2569 1553.8784,-1565.9163 1553.7846,-1576.5107 1560.4118,-1574.2569"/>
</g>
<!-- random&#45;floor.js -->
<g id="node25" class="node">
<title>random&#45;floor.js</title>
<ellipse fill="none" stroke="#242424" stroke-width="4" cx="2089.1988" cy="-833.0928" rx="79.3981" ry="79.3981"/>
<text text-anchor="middle" x="2089.1988" y="-830.6928" font-family="Fira Code" font-size="12.00" fill="#242424">random&#45;floor.js</text>
</g>
<!-- index.js&#45;&gt;random&#45;floor.js -->
<g id="edge35" class="edge">
<title>index.js&#45;&gt;random&#45;floor.js</title>
<path fill="none" stroke="#242424" d="M1741.7442,-1802.1289C1838.5443,-1785.4532 2056.1527,-1742.152 2099.1988,-1683.6345 2143.4081,-1623.5357 2111.5875,-1128.2943 2096.2244,-922.3717"/>
<polygon fill="#242424" stroke="#242424" points="2099.6992,-921.9036 2095.4609,-912.1935 2092.7189,-922.4273 2099.6992,-921.9036"/>
</g>
<!-- random&#45;shuffle.js -->
<g id="node26" class="node">
<title>random&#45;shuffle.js</title>
<ellipse fill="none" stroke="#0c821d" stroke-width="4" cx="3147.1988" cy="-1525.2604" rx="88.2923" ry="88.2923"/>
<text text-anchor="middle" x="3147.1988" y="-1522.8604" font-family="Fira Code" font-size="12.00" fill="#0c821d">random&#45;shuffle.js</text>
</g>
<!-- index.js&#45;&gt;random&#45;shuffle.js -->
<g id="edge36" class="edge">
<title>index.js&#45;&gt;random&#45;shuffle.js</title>
<path fill="none" stroke="#242424" d="M1742.3272,-1807.7359C1968.4446,-1798.2577 2935.8764,-1753.8538 3049.1988,-1683.6345 3074.8801,-1667.7213 3094.8699,-1642.3262 3109.9017,-1616.4907"/>
<polygon fill="#242424" stroke="#242424" points="3112.978,-1618.1604 3114.8104,-1607.7252 3106.8705,-1614.7401 3112.978,-1618.1604"/>
</g>
<!-- random&#45;take.js -->
<g id="node27" class="node">
<title>random&#45;take.js</title>
<ellipse fill="none" stroke="#242424" stroke-width="4" cx="1977.1988" cy="-1154.3444" rx="74.7005" ry="74.7005"/>
<text text-anchor="middle" x="1977.1988" y="-1151.9444" font-family="Fira Code" font-size="12.00" fill="#242424">random&#45;take.js</text>
</g>
<!-- index.js&#45;&gt;random&#45;take.js -->
<g id="edge37" class="edge">
<title>index.js&#45;&gt;random&#45;take.js</title>
<path fill="none" stroke="#242424" d="M1739.7254,-1793.4914C1785.0555,-1774.5584 1853.4563,-1738.6016 1888.1988,-1683.6345 1964.1035,-1563.5435 1906.5986,-1506.8085 1931.1988,-1366.8863 1938.7623,-1323.8666 1948.8846,-1276.3205 1957.7082,-1237.1258"/>
<polygon fill="#242424" stroke="#242424" points="1961.1271,-1237.8747 1959.9211,-1227.3488 1954.2998,-1236.3294 1961.1271,-1237.8747"/>
</g>
<!-- random&#45;word.js -->
<g id="node28" class="node">
<title>random&#45;word.js</title>
<ellipse fill="none" stroke="#242424" stroke-width="4" cx="2015.1988" cy="-1525.2604" rx="74.7005" ry="74.7005"/>
<text text-anchor="middle" x="2015.1988" y="-1522.8604" font-family="Fira Code" font-size="12.00" fill="#242424">random&#45;word.js</text>
</g>
<!-- index.js&#45;&gt;random&#45;word.js -->
<g id="edge38" class="edge">
<title>index.js&#45;&gt;random&#45;word.js</title>
<path fill="none" stroke="#242424" d="M1739.862,-1793.9791C1790.1516,-1774.5294 1871.9145,-1737.2389 1926.1988,-1683.6345 1949.0835,-1661.0365 1967.8583,-1631.3126 1982.1662,-1603.7254"/>
<polygon fill="#242424" stroke="#242424" points="1985.4595,-1604.9686 1986.8467,-1594.465 1979.2121,-1601.811 1985.4595,-1604.9686"/>
</g>
<!-- random.js -->
<g id="node29" class="node">
<title>random.js</title>
<ellipse fill="none" stroke="#0c821d" stroke-width="4" cx="3305.1988" cy="-1525.2604" rx="51.7142" ry="51.7142"/>
<text text-anchor="middle" x="3305.1988" y="-1522.8604" font-family="Fira Code" font-size="12.00" fill="#0c821d">random.js</text>
</g>
<!-- index.js&#45;&gt;random.js -->
<g id="edge39" class="edge">
<title>index.js&#45;&gt;random.js</title>
<path fill="none" stroke="#242424" d="M1742.3168,-1808.756C1988.5712,-1803.7351 3121.0407,-1775.7447 3244.1988,-1683.6345 3274.6939,-1660.8271 3289.9454,-1620.6827 3297.5724,-1586.5197"/>
<polygon fill="#242424" stroke="#242424" points="3301.0261,-1587.1005 3299.6154,-1576.6 3294.17,-1585.6883 3301.0261,-1587.1005"/>
</g>
<!-- range.js -->
<g id="node30" class="node">
<title>range.js</title>
<ellipse fill="none" stroke="#242424" stroke-width="4" cx="1709.1988" cy="-515.5992" rx="47.0167" ry="47.0167"/>
<text text-anchor="middle" x="1709.1988" y="-513.1992" font-family="Fira Code" font-size="12.00" fill="#242424">range.js</text>
</g>
<!-- index.js&#45;&gt;range.js -->
<g id="edge40" class="edge">
<title>index.js&#45;&gt;range.js</title>
<path fill="none" stroke="#242424" d="M1695.309,-1762.5168C1695.6361,-1640.1465 1696.8003,-1302.2229 1700.1988,-1020.8025 1702.1617,-858.2609 1705.9985,-666.3284 1707.9679,-572.7169"/>
<polygon fill="#242424" stroke="#242424" points="1711.4693,-572.6821 1708.1813,-562.6104 1704.4709,-572.5342 1711.4693,-572.6821"/>
</g>
<!-- reject.js -->
<g id="node31" class="node">
<title>reject.js</title>
<ellipse fill="none" stroke="#242424" stroke-width="4" cx="1794.1988" cy="-1154.3444" rx="51.7142" ry="51.7142"/>
<text text-anchor="middle" x="1794.1988" y="-1151.9444" font-family="Fira Code" font-size="12.00" fill="#242424">reject.js</text>
</g>
<!-- index.js&#45;&gt;reject.js -->
<g id="edge42" class="edge">
<title>index.js&#45;&gt;reject.js</title>
<path fill="none" stroke="#242424" d="M1708.5732,-1764.4808C1715.2467,-1740.6148 1722.9857,-1710.7269 1728.1988,-1683.6345 1760.4766,-1515.8867 1780.5068,-1315.0588 1789.1802,-1215.9289"/>
<polygon fill="#242424" stroke="#242424" points="1792.6821,-1216.0574 1790.0584,-1205.7926 1785.7082,-1215.4531 1792.6821,-1216.0574"/>
</g>
<!-- string.js -->
<g id="node32" class="node">
<title>string.js</title>
<ellipse fill="none" stroke="#242424" stroke-width="4" cx="2598.1988" cy="-515.5992" rx="51.7142" ry="51.7142"/>
<text text-anchor="middle" x="2598.1988" y="-513.1992" font-family="Fira Code" font-size="12.00" fill="#242424">string.js</text>
</g>
<!-- index.js&#45;&gt;string.js -->
<g id="edge43" class="edge">
<title>index.js&#45;&gt;string.js</title>
<path fill="none" stroke="#242424" d="M1742.3064,-1808.574C1894.7349,-1804.1565 2371.0429,-1782.5474 2481.1988,-1683.6345 2645.9541,-1535.695 2615.3107,-797.3206 2602.2811,-577.4629"/>
<polygon fill="#242424" stroke="#242424" points="2605.7694,-577.1615 2601.6748,-567.3899 2598.782,-577.5821 2605.7694,-577.1615"/>
</g>
<!-- ternary.js -->
<g id="node33" class="node">
<title>ternary.js</title>
<ellipse fill="none" stroke="#242424" stroke-width="4" cx="309.1988" cy="-833.0928" rx="56.412" ry="56.412"/>
<text text-anchor="middle" x="309.1988" y="-830.6928" font-family="Fira Code" font-size="12.00" fill="#242424">ternary.js</text>
</g>
<!-- index.js&#45;&gt;ternary.js -->
<g id="edge44" class="edge">
<title>index.js&#45;&gt;ternary.js</title>
<path fill="none" stroke="#242424" d="M1647.8083,-1808.8938C1411.3213,-1804.7102 366.1408,-1780.7966 263.1988,-1683.6345 155.6717,-1582.1448 168.1923,-1163.9554 205.1988,-1020.8025 217.7591,-972.2154 245.8951,-922.7894 269.7383,-886.8593"/>
<polygon fill="#242424" stroke="#242424" points="272.6951,-888.7346 275.3797,-878.4855 266.8896,-884.8234 272.6951,-888.7346"/>
</g>
<!-- triplet.js -->
<g id="node34" class="node">
<title>triplet.js</title>
<ellipse fill="none" stroke="#242424" stroke-width="4" cx="373.1988" cy="-1154.3444" rx="56.412" ry="56.412"/>
<text text-anchor="middle" x="373.1988" y="-1151.9444" font-family="Fira Code" font-size="12.00" fill="#242424">triplet.js</text>
</g>
<!-- index.js&#45;&gt;triplet.js -->
<g id="edge45" class="edge">
<title>index.js&#45;&gt;triplet.js</title>
<path fill="none" stroke="#242424" d="M1648.211,-1806.874C1451.3285,-1794.9113 699.0408,-1745.4657 614.1988,-1683.6345 459.7448,-1571.0714 401.9396,-1335.5956 382.3009,-1220.5112"/>
<polygon fill="#242424" stroke="#242424" points="385.7172,-1219.7179 380.6255,-1210.4268 378.8118,-1220.8652 385.7172,-1219.7179"/>
</g>
<!-- which.js -->
<g id="node35" class="node">
<title>which.js</title>
<ellipse fill="none" stroke="#242424" stroke-width="4" cx="670.1988" cy="-1525.2604" rx="47.0167" ry="47.0167"/>
<text text-anchor="middle" x="670.1988" y="-1522.8604" font-family="Fira Code" font-size="12.00" fill="#242424">which.js</text>
</g>
<!-- index.js&#45;&gt;which.js -->
<g id="edge47" class="edge">
<title>index.js&#45;&gt;which.js</title>
<path fill="none" stroke="#242424" d="M1648.0133,-1806.9232C1487.9142,-1797.0729 967.2213,-1759.7629 820.1988,-1683.6345 771.0078,-1658.1633 729.059,-1610.0943 702.1359,-1573.5671"/>
<polygon fill="#242424" stroke="#242424" points="704.6515,-1571.0731 695.9545,-1565.0222 698.98,-1575.1759 704.6515,-1571.0731"/>
</g>
<!-- invert.js&#45;&gt;Ⓜ katsu&#45;curry/katsu&#45;curry.js -->
<g id="edge48" class="edge">
<title>invert.js&#45;&gt;Ⓜ katsu&#45;curry/katsu&#45;curry.js</title>
<path fill="none" stroke="#242424" d="M1119.0991,-782.909C1099.1359,-694.6465 1071.2743,-509.2957 1151.1988,-385.8153 1219.1452,-280.8407 1349.8017,-221.379 1455.1992,-188.9355"/>
<polygon fill="#242424" stroke="#242424" points="1456.4339,-192.2188 1464.9937,-185.9754 1454.4088,-185.5181 1456.4339,-192.2188"/>
</g>
<!-- iterate.js&#45;&gt;Ⓜ katsu&#45;curry/katsu&#45;curry.js -->
<g id="edge49" class="edge">
<title>iterate.js&#45;&gt;Ⓜ katsu&#45;curry/katsu&#45;curry.js</title>
<path fill="none" stroke="#242424" d="M1869.1036,-777.3223C1880.5193,-689.85 1892.6765,-516.86 1836.1988,-385.8153 1815.3326,-337.3996 1779.668,-293.0045 1743.0066,-256.2793"/>
<polygon fill="#242424" stroke="#242424" points="1745.2423,-253.5684 1735.6651,-249.0376 1740.3265,-258.5519 1745.2423,-253.5684"/>
</g>
<!-- math.js&#45;&gt;Ⓜ katsu&#45;curry/katsu&#45;curry.js -->
<g id="edge57" class="edge">
<title>math.js&#45;&gt;Ⓜ katsu&#45;curry/katsu&#45;curry.js</title>
<path fill="none" stroke="#242424" d="M1470.7254,-1114.3502C1480.5941,-1087.6828 1494.1736,-1051.9398 1507.1988,-1020.8025 1522.0891,-985.2066 1533.4969,-979.1477 1543.1988,-941.8025 1574.3669,-821.8282 1576.0447,-509.1747 1588.1988,-385.8153 1590.4292,-363.1778 1592.9758,-339.3231 1595.5935,-315.867"/>
<polygon fill="#242424" stroke="#242424" points="1599.0812,-316.1716 1596.719,-305.8435 1592.1249,-315.3904 1599.0812,-316.1716"/>
</g>
<!-- object.js&#45;&gt;Ⓜ katsu&#45;curry/katsu&#45;curry.js -->
<g id="edge58" class="edge">
<title>object.js&#45;&gt;Ⓜ katsu&#45;curry/katsu&#45;curry.js</title>
<path fill="none" stroke="#242424" d="M957.4619,-1478.2695C936.8382,-1431.2223 907.0073,-1356.1977 893.1988,-1287.8863 873.3267,-1189.5775 800.617,-466.4969 860.1988,-385.8153 931.0044,-289.9353 1253.7132,-217.1149 1453.6159,-180.2411"/>
<polygon fill="#242424" stroke="#242424" points="1454.4285,-183.6505 1463.6333,-178.4044 1453.166,-176.7653 1454.4285,-183.6505"/>
</g>
<!-- object.js&#45;&gt;map.js -->
<g id="edge59" class="edge">
<title>object.js&#45;&gt;map.js</title>
<path fill="none" stroke="#242424" d="M947.9995,-1484.0445C914.0731,-1437.9637 859.6891,-1360.28 822.1988,-1287.8863 807.5896,-1259.676 794.6174,-1226.3845 785.2836,-1200.0987"/>
<polygon fill="#242424" stroke="#242424" points="788.4941,-1198.6763 781.8886,-1190.3927 781.8866,-1200.9875 788.4941,-1198.6763"/>
</g>
<!-- object.js&#45;&gt;reduce.js -->
<g id="edge60" class="edge">
<title>object.js&#45;&gt;reduce.js</title>
<path fill="none" stroke="#242424" d="M1015.5308,-1488.3395C1083.0838,-1419.6917 1227.7459,-1272.6848 1300.5071,-1198.7443"/>
<polygon fill="#242424" stroke="#242424" points="1303.224,-1200.9734 1307.7433,-1191.3908 1298.2346,-1196.0636 1303.224,-1200.9734"/>
</g>
<!-- path.js&#45;&gt;Ⓜ katsu&#45;curry/katsu&#45;curry.js -->
<g id="edge61" class="edge">
<title>path.js&#45;&gt;Ⓜ katsu&#45;curry/katsu&#45;curry.js</title>
<path fill="none" stroke="#242424" d="M1558.2573,-1486.3188C1577.5084,-1440.0619 1607.6447,-1360.0603 1619.1988,-1287.8863 1674.0088,-945.5101 1651.5445,-537.5312 1632.1655,-316.0838"/>
<polygon fill="#242424" stroke="#242424" points="1635.6417,-315.6592 1631.2744,-306.0064 1628.6689,-316.2758 1635.6417,-315.6592"/>
</g>
<!-- path.js&#45;&gt;reduce.js -->
<g id="edge63" class="edge">
<title>path.js&#45;&gt;reduce.js</title>
<path fill="none" stroke="#242424" d="M1518.9333,-1488.8336C1491.08,-1442.7313 1442.5148,-1360.5576 1405.1988,-1287.8863 1392.4535,-1263.0654 1379.4543,-1235.0535 1368.7488,-1211.1181"/>
<polygon fill="#242424" stroke="#242424" points="1371.8747,-1209.5335 1364.6128,-1201.8189 1365.4788,-1212.3783 1371.8747,-1209.5335"/>
</g>
<!-- path.js&#45;&gt;math.js -->
<g id="edge62" class="edge">
<title>path.js&#45;&gt;math.js</title>
<path fill="none" stroke="#242424" d="M1531.6957,-1483.7913C1516.0765,-1415.6339 1485.0179,-1280.1028 1468.0094,-1205.8825"/>
<polygon fill="#242424" stroke="#242424" points="1471.3511,-1204.7955 1465.7057,-1195.83 1464.528,-1206.3591 1471.3511,-1204.7955"/>
</g>
<!-- random&#45;floor.js&#45;&gt;Ⓜ katsu&#45;curry/katsu&#45;curry.js -->
<g id="edge64" class="edge">
<title>random&#45;floor.js&#45;&gt;Ⓜ katsu&#45;curry/katsu&#45;curry.js</title>
<path fill="none" stroke="#242424" d="M2069.7851,-756.1279C2061.4905,-722.2556 2051.9542,-681.9351 2044.1988,-645.383 2019.8487,-530.6185 2062.7285,-482.4467 1996.1988,-385.8153 1941.0933,-305.7771 1848.5373,-248.3814 1768.4512,-210.6528"/>
<polygon fill="#242424" stroke="#242424" points="1769.7939,-207.4174 1759.2502,-206.3781 1766.8445,-213.7657 1769.7939,-207.4174"/>
</g>
<!-- random&#45;take.js&#45;&gt;Ⓜ katsu&#45;curry/katsu&#45;curry.js -->
<g id="edge65" class="edge">
<title>random&#45;take.js&#45;&gt;Ⓜ katsu&#45;curry/katsu&#45;curry.js</title>
<path fill="none" stroke="#242424" d="M1973.542,-1079.6521C1964.2208,-910.7473 1935.6088,-504.8706 1871.1988,-385.8153 1842.105,-332.0383 1795.6358,-284.2628 1750.2237,-246.2263"/>
<polygon fill="#242424" stroke="#242424" points="1752.2941,-243.3968 1742.3565,-239.7234 1747.8344,-248.7923 1752.2941,-243.3968"/>
</g>
<!-- random&#45;take.js&#45;&gt;iterate.js -->
<g id="edge66" class="edge">
<title>random&#45;take.js&#45;&gt;iterate.js</title>
<path fill="none" stroke="#242424" d="M1951.6672,-1084.2414C1931.1794,-1027.987 1902.6813,-949.7388 1882.9636,-895.5989"/>
<polygon fill="#242424" stroke="#242424" points="1886.2214,-894.3162 1879.5105,-886.1177 1879.644,-896.7117 1886.2214,-894.3162"/>
</g>
<!-- random&#45;take.js&#45;&gt;random&#45;floor.js -->
<g id="edge67" class="edge">
<title>random&#45;take.js&#45;&gt;random&#45;floor.js</title>
<path fill="none" stroke="#242424" d="M2001.7777,-1083.8444C2018.8724,-1034.8112 2041.7429,-969.2114 2059.8037,-917.4074"/>
<polygon fill="#242424" stroke="#242424" points="2063.1304,-918.497 2063.1175,-907.9022 2056.5205,-916.1925 2063.1304,-918.497"/>
</g>
<!-- random&#45;word.js&#45;&gt;Ⓜ katsu&#45;curry/katsu&#45;curry.js -->
<g id="edge68" class="edge">
<title>random&#45;word.js&#45;&gt;Ⓜ katsu&#45;curry/katsu&#45;curry.js</title>
<path fill="none" stroke="#242424" d="M2032.9795,-1452.8001C2043.5182,-1406.0586 2055.8335,-1343.7742 2061.1988,-1287.8863 2072.5423,-1169.7257 2099.0767,-1133.3009 2061.1988,-1020.8025 2047.13,-979.0177 2018.3718,-982.4103 2001.1988,-941.8025 1963.1299,-851.7836 1983.0902,-820.9795 1968.1988,-724.383 1944.9932,-573.8541 1992.652,-516.9582 1915.1988,-385.8153 1877.9962,-322.8242 1816.6258,-270.7532 1759.0521,-231.9801"/>
<polygon fill="#242424" stroke="#242424" points="1760.8545,-228.9755 1750.5886,-226.3562 1756.9804,-234.8058 1760.8545,-228.9755"/>
</g>
<!-- random&#45;word.js&#45;&gt;array.js -->
<g id="edge69" class="edge">
<title>random&#45;word.js&#45;&gt;array.js</title>
<path fill="none" stroke="#242424" d="M2047.6398,-1457.66C2082.3815,-1385.2653 2136.7562,-1271.9594 2168.2852,-1206.2593"/>
<polygon fill="#242424" stroke="#242424" points="2171.5951,-1207.4517 2172.7662,-1196.9218 2165.2842,-1204.4231 2171.5951,-1207.4517"/>
</g>
<!-- random&#45;word.js&#45;&gt;random&#45;take.js -->
<g id="edge70" class="edge">
<title>random&#45;word.js&#45;&gt;random&#45;take.js</title>
<path fill="none" stroke="#242424" d="M2007.5547,-1450.6462C2001.28,-1389.4 1992.3955,-1302.679 1985.8589,-1238.8753"/>
<polygon fill="#242424" stroke="#242424" points="1989.3318,-1238.4306 1984.8308,-1228.8394 1982.3682,-1239.1441 1989.3318,-1238.4306"/>
</g>
<!-- range.js&#45;&gt;Ⓜ katsu&#45;curry/katsu&#45;curry.js -->
<g id="edge71" class="edge">
<title>range.js&#45;&gt;Ⓜ katsu&#45;curry/katsu&#45;curry.js</title>
<path fill="none" stroke="#242424" d="M1697.3888,-470.0941C1687.0175,-430.1322 1671.2969,-369.5592 1656.3723,-312.0533"/>
<polygon fill="#242424" stroke="#242424" points="1659.6912,-310.9085 1653.7913,-302.1084 1652.9157,-312.667 1659.6912,-310.9085"/>
</g>
<!-- reject.js&#45;&gt;Ⓜ katsu&#45;curry/katsu&#45;curry.js -->
<g id="edge74" class="edge">
<title>reject.js&#45;&gt;Ⓜ katsu&#45;curry/katsu&#45;curry.js</title>
<path fill="none" stroke="#242424" d="M1793.7253,-1102.7143C1793.1188,-1021.9844 1792.4477,-860.958 1795.1988,-724.383 1795.9065,-689.2537 1797.532,-680.5131 1798.1988,-645.383 1800.3881,-530.0404 1835.9642,-494.8222 1798.1988,-385.8153 1783.7632,-344.148 1758.4234,-304.2858 1731.1182,-269.7054"/>
<polygon fill="#242424" stroke="#242424" points="1733.5103,-267.0947 1724.5179,-261.4923 1728.0539,-271.4796 1733.5103,-267.0947"/>
</g>
<!-- reject.js&#45;&gt;filter.js -->
<g id="edge75" class="edge">
<title>reject.js&#45;&gt;filter.js</title>
<path fill="none" stroke="#242424" d="M1817.9309,-1108.1568C1835.1225,-1079.0653 1860.9694,-1042.9506 1893.1988,-1020.8025 2001.1754,-946.6007 2065.6229,-1010.4731 2177.1988,-941.8025 2201.4873,-926.8539 2223.432,-904.2471 2240.4525,-883.5141"/>
<polygon fill="#242424" stroke="#242424" points="2243.2083,-885.6722 2246.7293,-875.6795 2237.7453,-881.2954 2243.2083,-885.6722"/>
</g>
<!-- string.js&#45;&gt;Ⓜ katsu&#45;curry/katsu&#45;curry.js -->
<g id="edge77" class="edge">
<title>string.js&#45;&gt;Ⓜ katsu&#45;curry/katsu&#45;curry.js</title>
<path fill="none" stroke="#242424" d="M2573.8958,-469.936C2556.6279,-441.713 2530.9107,-406.9619 2499.1988,-385.8153 2277.5653,-238.0227 1966.4788,-184.1229 1778.56,-164.5276"/>
<polygon fill="#242424" stroke="#242424" points="1778.8966,-161.0438 1768.5924,-163.5083 1778.1845,-168.0075 1778.8966,-161.0438"/>
</g>
<!-- string.js&#45;&gt;Ⓜ entrust/entrust.js -->
<g id="edge76" class="edge">
<title>string.js&#45;&gt;Ⓜ entrust/entrust.js</title>
<path fill="none" stroke="#242424" d="M2598.1988,-463.706C2598.1988,-415.2459 2598.1988,-341.0305 2598.1988,-277.3311"/>
<polygon fill="#242424" stroke="#242424" points="2601.6989,-277.2036 2598.1988,-267.2036 2594.6989,-277.2036 2601.6989,-277.2036"/>
</g>
<!-- ternary.js&#45;&gt;Ⓜ katsu&#45;curry/katsu&#45;curry.js -->
<g id="edge78" class="edge">
<title>ternary.js&#45;&gt;Ⓜ katsu&#45;curry/katsu&#45;curry.js</title>
<path fill="none" stroke="#242424" d="M308.1183,-776.5368C309.5769,-681.0712 327.237,-488.3604 439.1988,-385.8153 585.327,-251.9775 1164.7781,-188.6549 1452.0267,-164.9971"/>
<polygon fill="#242424" stroke="#242424" points="1452.4389,-168.4751 1462.1205,-164.1722 1451.8686,-161.4984 1452.4389,-168.4751"/>
</g>
<!-- triplet.js&#45;&gt;Ⓜ katsu&#45;curry/katsu&#45;curry.js -->
<g id="edge79" class="edge">
<title>triplet.js&#45;&gt;Ⓜ katsu&#45;curry/katsu&#45;curry.js</title>
<path fill="none" stroke="#242424" d="M399.0416,-1103.9701C419.8924,-1061.6197 448.7011,-999.0035 467.1988,-941.8025 544.925,-701.4483 407.7229,-565.5758 585.1988,-385.8153 704.8258,-264.6484 1193.2119,-196.9519 1452.1789,-168.9274"/>
<polygon fill="#242424" stroke="#242424" points="1452.865,-172.3739 1462.4338,-167.8254 1452.117,-165.4139 1452.865,-172.3739"/>
</g>
<!-- which.js&#45;&gt;Ⓜ katsu&#45;curry/katsu&#45;curry.js -->
<g id="edge83" class="edge">
<title>which.js&#45;&gt;Ⓜ katsu&#45;curry/katsu&#45;curry.js</title>
<path fill="none" stroke="#242424" d="M698.4152,-1487.2097C730.9587,-1441.7997 784.2039,-1362.6024 817.1988,-1287.8863 901.8838,-1096.1195 953.6313,-542.2346 1093.1988,-385.8153 1187.7109,-279.8916 1339.6706,-219.7679 1455.3199,-187.3389"/>
<polygon fill="#242424" stroke="#242424" points="1456.2781,-190.7053 1464.9852,-184.6692 1454.4143,-183.958 1456.2781,-190.7053"/>
</g>
<!-- which.js&#45;&gt;flip.js -->
<g id="edge84" class="edge">
<title>which.js&#45;&gt;flip.js</title>
<path fill="none" stroke="#242424" d="M626.5675,-1507.4131C551.4926,-1474.6344 397.3721,-1397.964 308.1988,-1287.8863 288.9653,-1264.144 276.2183,-1232.4482 268.1606,-1205.8939"/>
<polygon fill="#242424" stroke="#242424" points="271.4385,-1204.6298 265.2983,-1195.9957 264.7141,-1206.5745 271.4385,-1204.6298"/>
</g>
<!-- which.js&#45;&gt;triplet.js -->
<g id="edge85" class="edge">
<title>which.js&#45;&gt;triplet.js</title>
<path fill="none" stroke="#242424" d="M643.3914,-1486.5472C619.2205,-1453.0184 581.6594,-1404.1775 543.1988,-1366.8863 501.2712,-1326.2336 475.3446,-1332.9503 438.1988,-1287.8863 420.8968,-1266.8961 406.8165,-1240.5275 396.2408,-1216.7779"/>
<polygon fill="#242424" stroke="#242424" points="399.3995,-1215.2642 392.2152,-1207.4772 392.9754,-1218.0447 399.3995,-1215.2642"/>
</g>
<!-- Ⓜ fast.js/array/every.js -->
<g id="node43" class="node">
<title>Ⓜ fast.js/array/every.js</title>
<ellipse fill="none" stroke="#0c821d" stroke-width="4" cx="581.1988" cy="-1154.3444" rx="133.5838" ry="133.5838"/>
<text text-anchor="middle" x="581.1988" y="-1153.1444" font-family="Fira Code" font-size="12.00" fill="#0c821d">Ⓜ fast.js/array/every.js</text>
</g>
<!-- which.js&#45;&gt;Ⓜ fast.js/array/every.js -->
<g id="edge81" class="edge">
<title>which.js&#45;&gt;Ⓜ fast.js/array/every.js</title>
<path fill="none" stroke="#242424" d="M659.1964,-1479.4068C648.1372,-1433.3164 630.5262,-1359.9211 614.8349,-1294.5258"/>
<polygon fill="#242424" stroke="#242424" points="618.1713,-1293.43 612.4346,-1284.5227 611.3645,-1295.0633 618.1713,-1293.43"/>
</g>
<!-- Ⓜ fast.js/array/some.js -->
<g id="node44" class="node">
<title>Ⓜ fast.js/array/some.js</title>
<ellipse fill="none" stroke="#0c821d" stroke-width="4" cx="1031.1988" cy="-1154.3444" rx="128.651" ry="128.651"/>
<text text-anchor="middle" x="1031.1988" y="-1153.1444" font-family="Fira Code" font-size="12.00" fill="#0c821d">Ⓜ fast.js/array/some.js</text>
</g>
<!-- which.js&#45;&gt;Ⓜ fast.js/array/some.js -->
<g id="edge82" class="edge">
<title>which.js&#45;&gt;Ⓜ fast.js/array/some.js</title>
<path fill="none" stroke="#242424" d="M703.1922,-1491.3608C754.9577,-1438.1734 857.2583,-1333.0628 933.9189,-1254.2964"/>
<polygon fill="#242424" stroke="#242424" points="936.7886,-1256.3661 941.2551,-1246.7588 931.7722,-1251.4839 936.7886,-1256.3661"/>
</g>
<!-- map&#45;performance.fixture.js -->
<g id="node36" class="node">
<title>map&#45;performance.fixture.js</title>
<ellipse fill="none" stroke="#242424" stroke-width="4" cx="3068.1988" cy="-515.5992" rx="129.5681" ry="129.5681"/>
<text text-anchor="middle" x="3068.1988" y="-513.1992" font-family="Fira Code" font-size="12.00" fill="#242424">map&#45;performance.fixture.js</text>
</g>
<!-- map&#45;performance.fixture.js&#45;&gt;Ⓜ entrust/entrust.js -->
<g id="edge50" class="edge">
<title>map&#45;performance.fixture.js&#45;&gt;Ⓜ entrust/entrust.js</title>
<path fill="none" stroke="#242424" d="M2951.1758,-459.0325C2880.1332,-421.5065 2790.0061,-367.9999 2720.1988,-306.8153 2702.5095,-291.311 2685.478,-272.9945 2670.0388,-254.5151"/>
<polygon fill="#242424" stroke="#242424" points="2672.578,-252.0925 2663.5222,-246.5931 2667.172,-256.5394 2672.578,-252.0925"/>
</g>
<!-- Ⓜ fast.js/index.js -->
<g id="node37" class="node">
<title>Ⓜ fast.js/index.js</title>
<ellipse fill="none" stroke="#0c821d" stroke-width="4" cx="2833.1988" cy="-153.4077" rx="103.9872" ry="103.9872"/>
<text text-anchor="middle" x="2833.1988" y="-152.2077" font-family="Fira Code" font-size="12.00" fill="#0c821d">Ⓜ fast.js/index.js</text>
</g>
<!-- map&#45;performance.fixture.js&#45;&gt;Ⓜ fast.js/index.js -->
<g id="edge51" class="edge">
<title>map&#45;performance.fixture.js&#45;&gt;Ⓜ fast.js/index.js</title>
<path fill="none" stroke="#242424" d="M2997.3724,-406.4386C2964.8624,-356.333 2926.6604,-297.4545 2895.2915,-249.1075"/>
<polygon fill="#242424" stroke="#242424" points="2898.097,-247.001 2889.7178,-240.5171 2892.2247,-250.8111 2898.097,-247.001"/>
</g>
<!-- Ⓜ ramda/src/curry.js -->
<g id="node38" class="node">
<title>Ⓜ ramda/src/curry.js</title>
<ellipse fill="none" stroke="#0c821d" stroke-width="4" cx="3068.1988" cy="-153.4077" rx="113.8526" ry="113.8526"/>
<text text-anchor="middle" x="3068.1988" y="-152.2077" font-family="Fira Code" font-size="12.00" fill="#0c821d">Ⓜ ramda/src/curry.js</text>
</g>
<!-- map&#45;performance.fixture.js&#45;&gt;Ⓜ ramda/src/curry.js -->
<g id="edge52" class="edge">
<title>map&#45;performance.fixture.js&#45;&gt;Ⓜ ramda/src/curry.js</title>
<path fill="none" stroke="#242424" d="M3068.1988,-385.6071C3068.1988,-350.4283 3068.1988,-312.4473 3068.1988,-277.5961"/>
<polygon fill="#242424" stroke="#242424" points="3071.6989,-277.3726 3068.1988,-267.3726 3064.6989,-277.3727 3071.6989,-277.3726"/>
</g>
<!-- Ⓜ ramda/src/map.js -->
<g id="node39" class="node">
<title>Ⓜ ramda/src/map.js</title>
<ellipse fill="none" stroke="#0c821d" stroke-width="4" cx="3303.1988" cy="-153.4077" rx="103.9872" ry="103.9872"/>
<text text-anchor="middle" x="3303.1988" y="-152.2077" font-family="Fira Code" font-size="12.00" fill="#0c821d">Ⓜ ramda/src/map.js</text>
</g>
<!-- map&#45;performance.fixture.js&#45;&gt;Ⓜ ramda/src/map.js -->
<g id="edge53" class="edge">
<title>map&#45;performance.fixture.js&#45;&gt;Ⓜ ramda/src/map.js</title>
<path fill="none" stroke="#242424" d="M3139.0252,-406.4386C3171.5352,-356.333 3209.7372,-297.4545 3241.1061,-249.1075"/>
<polygon fill="#242424" stroke="#242424" points="3244.1729,-250.8111 3246.6798,-240.5171 3238.3006,-247.001 3244.1729,-250.8111"/>
</g>
<!-- Ⓜ testperf/index.js -->
<g id="node40" class="node">
<title>Ⓜ testperf/index.js</title>
<ellipse fill="none" stroke="#0c821d" stroke-width="4" cx="3533.1988" cy="-153.4077" rx="108.9199" ry="108.9199"/>
<text text-anchor="middle" x="3533.1988" y="-152.2077" font-family="Fira Code" font-size="12.00" fill="#0c821d">Ⓜ testperf/index.js</text>
</g>
<!-- map&#45;performance.fixture.js&#45;&gt;Ⓜ testperf/index.js -->
<g id="edge54" class="edge">
<title>map&#45;performance.fixture.js&#45;&gt;Ⓜ testperf/index.js</title>
<path fill="none" stroke="#242424" d="M3185.6629,-459.5306C3256.8702,-422.1907 3347.0157,-368.7047 3416.1988,-306.8153 3434.1905,-290.7204 3451.3249,-271.5293 3466.6588,-252.2608"/>
<polygon fill="#242424" stroke="#242424" points="3469.4828,-254.3314 3472.8918,-244.3 3463.9712,-250.016 3469.4828,-254.3314"/>
</g>
</g>
</svg>
