<?xml version="1.0" encoding="UTF-8" standalone="no"?>
<!DOCTYPE svg PUBLIC "-//W3C//DTD SVG 1.1//EN"
 "http://www.w3.org/Graphics/SVG/1.1/DTD/svg11.dtd">
<!-- Generated by graphviz version 2.40.1 (20161225.0304)
 -->
<!-- Title: G Pages: 1 -->
<svg width="2864pt" height="1427pt"
 viewBox="0.00 0.00 2863.59 1427.48" xmlns="http://www.w3.org/2000/svg" xmlns:xlink="http://www.w3.org/1999/xlink">
<g id="graph0" class="graph" transform="scale(1 1) rotate(0) translate(7.992 1419.4904)">
<title>G</title>
<polygon fill="#eeeeff" stroke="transparent" points="-7.992,7.992 -7.992,-1419.4904 2855.5937,-1419.4904 2855.5937,7.992 -7.992,7.992"/>
<!-- array.js -->
<g id="node1" class="node">
<title>array.js</title>
<ellipse fill="none" stroke="#242424" stroke-width="4" cx="386.9947" cy="-742.5383" rx="47.0167" ry="47.0167"/>
<text text-anchor="middle" x="386.9947" y="-740.1383" font-family="Fira Code" font-size="12.00" fill="#242424">array.js</text>
</g>
<!-- entrust/entrust.js -->
<g id="node2" class="node">
<title>entrust/entrust.js</title>
<ellipse fill="none" stroke="#0c821d" stroke-width="4" cx="92.9947" cy="-445.3584" rx="92.9895" ry="92.9895"/>
<text text-anchor="middle" x="92.9947" y="-442.9584" font-family="Fira Code" font-size="12.00" fill="#0c821d">entrust/entrust.js</text>
</g>
<!-- array.js&#45;&gt;entrust/entrust.js -->
<g id="edge1" class="edge">
<title>array.js&#45;&gt;entrust/entrust.js</title>
<path fill="none" stroke="#242424" d="M362.7105,-702.1442C348.167,-679.8021 328.3824,-652.3551 306.9947,-631.149 263.7382,-588.2597 241.1375,-591.9166 194.9947,-552.149 184.1069,-542.7655 173.0961,-532.3703 162.5382,-521.8566"/>
<polygon fill="#242424" stroke="#242424" points="164.8363,-519.2035 155.3084,-514.57 159.8672,-524.1339 164.8363,-519.2035"/>
</g>
<!-- choice.js -->
<g id="node3" class="node">
<title>choice.js</title>
<ellipse fill="none" stroke="#242424" stroke-width="4" cx="2108.9947" cy="-445.3584" rx="51.7142" ry="51.7142"/>
<text text-anchor="middle" x="2108.9947" y="-442.9584" font-family="Fira Code" font-size="12.00" fill="#242424">choice.js</text>
</g>
<!-- katsu&#45;curry/katsu&#45;curry.js -->
<g id="node4" class="node">
<title>katsu&#45;curry/katsu&#45;curry.js</title>
<ellipse fill="none" stroke="#0c821d" stroke-width="4" cx="1431.9947" cy="-129.7839" rx="129.5681" ry="129.5681"/>
<text text-anchor="middle" x="1431.9947" y="-127.3839" font-family="Fira Code" font-size="12.00" fill="#0c821d">katsu&#45;curry/katsu&#45;curry.js</text>
</g>
<!-- choice.js&#45;&gt;katsu&#45;curry/katsu&#45;curry.js -->
<g id="edge2" class="edge">
<title>choice.js&#45;&gt;katsu&#45;curry/katsu&#45;curry.js</title>
<path fill="none" stroke="#242424" d="M2084.1479,-400.057C2070.5578,-378.8605 2051.9976,-354.7758 2029.9947,-338.5677 1891.5011,-236.5486 1698.9851,-181.2517 1570.1742,-153.6694"/>
<polygon fill="#242424" stroke="#242424" points="1570.7462,-150.2131 1560.2386,-151.5698 1569.2989,-157.0618 1570.7462,-150.2131"/>
</g>
<!-- filter.js -->
<g id="node5" class="node">
<title>filter.js</title>
<ellipse fill="none" stroke="#242424" stroke-width="4" cx="1549.9947" cy="-1085.7047" rx="51.7142" ry="51.7142"/>
<text text-anchor="middle" x="1549.9947" y="-1083.3047" font-family="Fira Code" font-size="12.00" fill="#242424">filter.js</text>
</g>
<!-- fast.js/filter.js -->
<g id="node6" class="node">
<title>fast.js/filter.js</title>
<ellipse fill="none" stroke="#0c821d" stroke-width="4" cx="1697.9947" cy="-742.5383" rx="88.2923" ry="88.2923"/>
<text text-anchor="middle" x="1697.9947" y="-740.1383" font-family="Fira Code" font-size="12.00" fill="#0c821d">fast.js/filter.js</text>
</g>
<!-- filter.js&#45;&gt;fast.js/filter.js -->
<g id="edge3" class="edge">
<title>filter.js&#45;&gt;fast.js/filter.js</title>
<path fill="none" stroke="#242424" d="M1570.5735,-1037.9889C1593.3224,-985.2413 1630.4938,-899.0523 1658.8328,-833.3427"/>
<polygon fill="#242424" stroke="#242424" points="1662.2008,-834.3713 1662.9472,-823.8028 1655.7731,-831.5992 1662.2008,-834.3713"/>
</g>
<!-- flip.js -->
<g id="node7" class="node">
<title>flip.js</title>
<ellipse fill="none" stroke="#242424" stroke-width="4" cx="1548.9947" cy="-742.5383" rx="42.3196" ry="42.3196"/>
<text text-anchor="middle" x="1548.9947" y="-740.1383" font-family="Fira Code" font-size="12.00" fill="#242424">flip.js</text>
</g>
<!-- filter.js&#45;&gt;flip.js -->
<g id="edge4" class="edge">
<title>filter.js&#45;&gt;flip.js</title>
<path fill="none" stroke="#242424" d="M1549.8439,-1033.9577C1549.6562,-969.5301 1549.3373,-860.0786 1549.1482,-795.2194"/>
<polygon fill="#242424" stroke="#242424" points="1552.6483,-795.1962 1549.1191,-785.2065 1545.6483,-795.2167 1552.6483,-795.1962"/>
</g>
<!-- flip.js&#45;&gt;katsu&#45;curry/katsu&#45;curry.js -->
<g id="edge5" class="edge">
<title>flip.js&#45;&gt;katsu&#45;curry/katsu&#45;curry.js</title>
<path fill="none" stroke="#242424" d="M1540.9529,-700.4212C1524.1762,-612.5583 1484.8058,-406.367 1458.2786,-267.4381"/>
<polygon fill="#242424" stroke="#242424" points="1461.7048,-266.7201 1456.3913,-257.554 1454.829,-268.033 1461.7048,-266.7201"/>
</g>
<!-- future.js -->
<g id="node8" class="node">
<title>future.js</title>
<ellipse fill="none" stroke="#242424" stroke-width="4" cx="245.9947" cy="-742.5383" rx="51.7142" ry="51.7142"/>
<text text-anchor="middle" x="245.9947" y="-740.1383" font-family="Fira Code" font-size="12.00" fill="#242424">future.js</text>
</g>
<!-- future.js&#45;&gt;entrust/entrust.js -->
<g id="edge6" class="edge">
<title>future.js&#45;&gt;entrust/entrust.js</title>
<path fill="none" stroke="#242424" d="M222.2564,-696.43C200.4365,-654.0481 167.4509,-589.9786 140.2632,-537.1705"/>
<polygon fill="#242424" stroke="#242424" points="143.2955,-535.4137 135.6062,-528.1249 137.0718,-538.6179 143.2955,-535.4137"/>
</g>
<!-- index.js -->
<g id="node9" class="node">
<title>index.js</title>
<ellipse fill="none" stroke="#242424" stroke-width="4" cx="1450.9947" cy="-1364.4901" rx="47.0167" ry="47.0167"/>
<text text-anchor="middle" x="1450.9947" y="-1362.0901" font-family="Fira Code" font-size="12.00" fill="#242424">index.js</text>
</g>
<!-- index.js&#45;&gt;array.js -->
<g id="edge9" class="edge">
<title>index.js&#45;&gt;array.js</title>
<path fill="none" stroke="#242424" d="M1403.9705,-1361.8812C1215.4772,-1350.9833 521.4507,-1306.4802 452.9947,-1238.4818 334.9091,-1121.1854 356.6227,-901.622 375.0126,-798.6056"/>
<polygon fill="#242424" stroke="#242424" points="378.4658,-799.1784 376.8334,-788.7101 371.5814,-797.9116 378.4658,-799.1784"/>
</g>
<!-- index.js&#45;&gt;choice.js -->
<g id="edge10" class="edge">
<title>index.js&#45;&gt;choice.js</title>
<path fill="none" stroke="#242424" d="M1498.1426,-1361.487C1627.3966,-1352.2541 1982.9432,-1319.827 2060.9947,-1238.4818 2256.1214,-1035.1208 2170.3708,-651.2005 2127.783,-504.442"/>
<polygon fill="#242424" stroke="#242424" points="2131.0991,-503.3125 2124.9196,-494.7064 2124.3835,-505.2877 2131.0991,-503.3125"/>
</g>
<!-- index.js&#45;&gt;katsu&#45;curry/katsu&#45;curry.js -->
<g id="edge7" class="edge">
<title>index.js&#45;&gt;katsu&#45;curry/katsu&#45;curry.js</title>
<path fill="none" stroke="#242424" d="M1498.2757,-1362.757C1638.2706,-1356.597 2046.3622,-1330.8999 2133.9947,-1238.4818 2227.1727,-1140.2154 2187.2319,-766.5298 2183.9947,-631.149 2180.8827,-501.0013 2250.9861,-440.4918 2169.9947,-338.5677 2095.6967,-245.0669 1763.1697,-180.0885 1570.7794,-149.5689"/>
<polygon fill="#242424" stroke="#242424" points="1571.2962,-146.1072 1560.8733,-148.0082 1570.2067,-153.0219 1571.2962,-146.1072"/>
</g>
<!-- index.js&#45;&gt;filter.js -->
<g id="edge11" class="edge">
<title>index.js&#45;&gt;filter.js</title>
<path fill="none" stroke="#242424" d="M1466.791,-1320.0074C1483.699,-1272.3944 1510.5981,-1196.6462 1529.2132,-1144.2257"/>
<polygon fill="#242424" stroke="#242424" points="1532.5402,-1145.3158 1532.5884,-1134.7211 1525.9438,-1142.9733 1532.5402,-1145.3158"/>
</g>
<!-- index.js&#45;&gt;flip.js -->
<g id="edge12" class="edge">
<title>index.js&#45;&gt;flip.js</title>
<path fill="none" stroke="#242424" d="M1453.837,-1317.5001C1459.8602,-1221.4319 1474.5445,-1005.4946 1488.9947,-932.9276 1498.7181,-884.0985 1516.4237,-830.1152 1530.0905,-792.1401"/>
<polygon fill="#242424" stroke="#242424" points="1533.5195,-792.9521 1533.6491,-782.3581 1526.9412,-790.559 1533.5195,-792.9521"/>
</g>
<!-- index.js&#45;&gt;future.js -->
<g id="edge13" class="edge">
<title>index.js&#45;&gt;future.js</title>
<path fill="none" stroke="#242424" d="M1403.8507,-1362.2216C1204.5852,-1352.2138 438.0404,-1309.3391 358.9947,-1238.4818 234.9027,-1127.2444 232.3582,-910.5027 239.5928,-804.255"/>
<polygon fill="#242424" stroke="#242424" points="243.1028,-804.2458 240.3439,-794.0165 236.1216,-803.7336 243.1028,-804.2458"/>
</g>
<!-- katsu&#45;curry/lib/utils/length.js -->
<g id="node10" class="node">
<title>katsu&#45;curry/lib/utils/length.js</title>
<ellipse fill="none" stroke="#0c821d" stroke-width="4" cx="2378.9947" cy="-1085.7047" rx="152.5545" ry="152.5545"/>
<text text-anchor="middle" x="2378.9947" y="-1083.3047" font-family="Fira Code" font-size="12.00" fill="#0c821d">katsu&#45;curry/lib/utils/length.js</text>
</g>
<!-- index.js&#45;&gt;katsu&#45;curry/lib/utils/length.js -->
<g id="edge8" class="edge">
<title>index.js&#45;&gt;katsu&#45;curry/lib/utils/length.js</title>
<path fill="none" stroke="#242424" d="M1497.8478,-1360.2489C1643.1195,-1346.5555 2083.8789,-1300.7677 2211.9947,-1238.4818 2230.8243,-1229.3274 2249.05,-1217.3656 2266.1076,-1204.1616"/>
<polygon fill="#242424" stroke="#242424" points="2268.7315,-1206.5471 2274.3849,-1197.5867 2264.3776,-1201.0659 2268.7315,-1206.5471"/>
</g>
<!-- iterate.js -->
<g id="node11" class="node">
<title>iterate.js</title>
<ellipse fill="none" stroke="#242424" stroke-width="4" cx="696.9947" cy="-445.3584" rx="56.412" ry="56.412"/>
<text text-anchor="middle" x="696.9947" y="-442.9584" font-family="Fira Code" font-size="12.00" fill="#242424">iterate.js</text>
</g>
<!-- index.js&#45;&gt;iterate.js -->
<g id="edge14" class="edge">
<title>index.js&#45;&gt;iterate.js</title>
<path fill="none" stroke="#242424" d="M1403.9447,-1361.1853C1231.348,-1348.5924 640.1923,-1301.1465 585.9947,-1238.4818 497.7076,-1136.4016 550.0909,-761.2485 585.9947,-631.149 589.8962,-617.012 630.324,-551.0158 661.2746,-501.6729"/>
<polygon fill="#242424" stroke="#242424" points="664.38,-503.3093 666.7371,-492.98 658.453,-499.5849 664.38,-503.3093"/>
</g>
<!-- map.js -->
<g id="node12" class="node">
<title>map.js</title>
<ellipse fill="none" stroke="#242424" stroke-width="4" cx="489.9947" cy="-742.5383" rx="37.623" ry="37.623"/>
<text text-anchor="middle" x="489.9947" y="-740.1383" font-family="Fira Code" font-size="12.00" fill="#242424">map.js</text>
</g>
<!-- index.js&#45;&gt;map.js -->
<g id="edge15" class="edge">
<title>index.js&#45;&gt;map.js</title>
<path fill="none" stroke="#242424" d="M1403.9288,-1361.326C1226.1766,-1348.9303 602.7091,-1301.2509 541.9947,-1238.4818 423.1141,-1115.5779 456.7191,-887.1104 478.2806,-789.1276"/>
<polygon fill="#242424" stroke="#242424" points="481.7279,-789.7512 480.5172,-779.2257 474.8999,-788.2088 481.7279,-789.7512"/>
</g>
<!-- math.js -->
<g id="node13" class="node">
<title>math.js</title>
<ellipse fill="none" stroke="#242424" stroke-width="4" cx="1171.9947" cy="-445.3584" rx="42.3196" ry="42.3196"/>
<text text-anchor="middle" x="1171.9947" y="-442.9584" font-family="Fira Code" font-size="12.00" fill="#242424">math.js</text>
</g>
<!-- index.js&#45;&gt;math.js -->
<g id="edge16" class="edge">
<title>index.js&#45;&gt;math.js</title>
<path fill="none" stroke="#242424" d="M1408.0946,-1344.3288C1292.2175,-1287.1313 973.8051,-1111.1544 856.9947,-853.9276 816.0552,-763.7751 805.6019,-715.7794 856.9947,-631.149 896.5128,-566.0732 943.2915,-590.615 1008.9947,-552.149 1050.5358,-527.8288 1096.2529,-497.5537 1128.6713,-475.4562"/>
<polygon fill="#242424" stroke="#242424" points="1130.7531,-478.2726 1137.0311,-469.7381 1126.8012,-472.4949 1130.7531,-478.2726"/>
</g>
<!-- random&#45;floor.js -->
<g id="node14" class="node">
<title>random&#45;floor.js</title>
<ellipse fill="none" stroke="#242424" stroke-width="4" cx="849.9947" cy="-445.3584" rx="79.3981" ry="79.3981"/>
<text text-anchor="middle" x="849.9947" y="-442.9584" font-family="Fira Code" font-size="12.00" fill="#242424">random&#45;floor.js</text>
</g>
<!-- index.js&#45;&gt;random&#45;floor.js -->
<g id="edge17" class="edge">
<title>index.js&#45;&gt;random&#45;floor.js</title>
<path fill="none" stroke="#242424" d="M1403.8919,-1360.7697C1236.6082,-1347.0951 678.2982,-1297.3387 625.9947,-1238.4818 581.1589,-1188.0281 578.1973,-688.9847 612.9947,-631.149 651.6369,-566.9232 703.9268,-599.5441 761.9947,-552.149 774.4019,-542.0223 786.3147,-529.9281 797.1492,-517.5777"/>
<polygon fill="#242424" stroke="#242424" points="799.9038,-519.742 803.7506,-509.8701 794.5873,-515.1884 799.9038,-519.742"/>
</g>
<!-- random&#45;shuffle.js -->
<g id="node15" class="node">
<title>random&#45;shuffle.js</title>
<ellipse fill="none" stroke="#0c821d" stroke-width="4" cx="2637.9947" cy="-1085.7047" rx="88.2923" ry="88.2923"/>
<text text-anchor="middle" x="2637.9947" y="-1083.3047" font-family="Fira Code" font-size="12.00" fill="#0c821d">random&#45;shuffle.js</text>
</g>
<!-- index.js&#45;&gt;random&#45;shuffle.js -->
<g id="edge18" class="edge">
<title>index.js&#45;&gt;random&#45;shuffle.js</title>
<path fill="none" stroke="#242424" d="M1498.1587,-1361.4293C1695.8081,-1348.2821 2451.3228,-1294.7136 2540.9947,-1238.4818 2564.9381,-1223.4672 2584.0315,-1200.1413 2598.7269,-1176.1986"/>
<polygon fill="#242424" stroke="#242424" points="2601.8727,-1177.7547 2603.9429,-1167.364 2595.8448,-1174.1958 2601.8727,-1177.7547"/>
</g>
<!-- random&#45;take.js -->
<g id="node16" class="node">
<title>random&#45;take.js</title>
<ellipse fill="none" stroke="#242424" stroke-width="4" cx="696.9947" cy="-742.5383" rx="74.7005" ry="74.7005"/>
<text text-anchor="middle" x="696.9947" y="-740.1383" font-family="Fira Code" font-size="12.00" fill="#242424">random&#45;take.js</text>
</g>
<!-- index.js&#45;&gt;random&#45;take.js -->
<g id="edge19" class="edge">
<title>index.js&#45;&gt;random&#45;take.js</title>
<path fill="none" stroke="#242424" d="M1404.1191,-1360.6204C1240.2902,-1346.6292 700.5283,-1296.4281 650.9947,-1238.4818 606.8746,-1186.8683 642.965,-1000.3521 650.9947,-932.9276 655.3135,-896.6633 664.1047,-857.3178 672.8556,-823.8589"/>
<polygon fill="#242424" stroke="#242424" points="676.2549,-824.6948 675.4415,-814.1312 669.4898,-822.8964 676.2549,-824.6948"/>
</g>
<!-- random&#45;word.js -->
<g id="node17" class="node">
<title>random&#45;word.js</title>
<ellipse fill="none" stroke="#242424" stroke-width="4" cx="734.9947" cy="-1085.7047" rx="74.7005" ry="74.7005"/>
<text text-anchor="middle" x="734.9947" y="-1083.3047" font-family="Fira Code" font-size="12.00" fill="#242424">random&#45;word.js</text>
</g>
<!-- index.js&#45;&gt;random&#45;word.js -->
<g id="edge20" class="edge">
<title>index.js&#45;&gt;random&#45;word.js</title>
<path fill="none" stroke="#242424" d="M1403.971,-1360.0396C1274.8439,-1347.0537 918.1457,-1305.8133 823.9947,-1238.4818 798.5338,-1220.2735 779.2352,-1192.3303 765.2295,-1165.2967"/>
<polygon fill="#242424" stroke="#242424" points="768.2771,-1163.5652 760.6814,-1156.1791 762.0132,-1166.6899 768.2771,-1163.5652"/>
</g>
<!-- random.js -->
<g id="node18" class="node">
<title>random.js</title>
<ellipse fill="none" stroke="#0c821d" stroke-width="4" cx="2795.9947" cy="-1085.7047" rx="51.7142" ry="51.7142"/>
<text text-anchor="middle" x="2795.9947" y="-1083.3047" font-family="Fira Code" font-size="12.00" fill="#0c821d">random.js</text>
</g>
<!-- index.js&#45;&gt;random.js -->
<g id="edge21" class="edge">
<title>index.js&#45;&gt;random.js</title>
<path fill="none" stroke="#242424" d="M1498.1217,-1362.738C1717.7226,-1354.1942 2634.2101,-1314.2071 2734.9947,-1238.4818 2763.8606,-1216.7931 2779.0928,-1179.2675 2787.1173,-1146.8358"/>
<polygon fill="#242424" stroke="#242424" points="2790.5587,-1147.487 2789.3833,-1136.9575 2783.7359,-1145.9218 2790.5587,-1147.487"/>
</g>
<!-- reduce.js -->
<g id="node19" class="node">
<title>reduce.js</title>
<ellipse fill="none" stroke="#242424" stroke-width="4" cx="1931.9947" cy="-1085.7047" rx="51.7142" ry="51.7142"/>
<text text-anchor="middle" x="1931.9947" y="-1083.3047" font-family="Fira Code" font-size="12.00" fill="#242424">reduce.js</text>
</g>
<!-- index.js&#45;&gt;reduce.js -->
<g id="edge22" class="edge">
<title>index.js&#45;&gt;reduce.js</title>
<path fill="none" stroke="#242424" d="M1497.4149,-1355.5155C1593.6436,-1336.1146 1810.5324,-1288.0061 1865.9947,-1238.4818 1892.7342,-1214.6051 1909.0576,-1177.9862 1918.7805,-1146.5848"/>
<polygon fill="#242424" stroke="#242424" points="1922.2544,-1147.1765 1921.7102,-1136.5956 1915.5373,-1145.2064 1922.2544,-1147.1765"/>
</g>
<!-- reject.js -->
<g id="node20" class="node">
<title>reject.js</title>
<ellipse fill="none" stroke="#242424" stroke-width="4" cx="1697.9947" cy="-1085.7047" rx="51.7142" ry="51.7142"/>
<text text-anchor="middle" x="1697.9947" y="-1083.3047" font-family="Fira Code" font-size="12.00" fill="#242424">reject.js</text>
</g>
<!-- index.js&#45;&gt;reject.js -->
<g id="edge23" class="edge">
<title>index.js&#45;&gt;reject.js</title>
<path fill="none" stroke="#242424" d="M1491.0578,-1339.3943C1525.7745,-1316.2428 1575.8197,-1279.3495 1610.9947,-1238.4818 1635.8063,-1209.6547 1657.0765,-1172.6935 1672.3743,-1142.3468"/>
<polygon fill="#242424" stroke="#242424" points="1675.6238,-1143.6719 1676.9275,-1133.1576 1669.3515,-1140.5641 1675.6238,-1143.6719"/>
</g>
<!-- string.js -->
<g id="node21" class="node">
<title>string.js</title>
<ellipse fill="none" stroke="#242424" stroke-width="4" cx="154.9947" cy="-1085.7047" rx="51.7142" ry="51.7142"/>
<text text-anchor="middle" x="154.9947" y="-1083.3047" font-family="Fira Code" font-size="12.00" fill="#242424">string.js</text>
</g>
<!-- index.js&#45;&gt;string.js -->
<g id="edge24" class="edge">
<title>index.js&#45;&gt;string.js</title>
<path fill="none" stroke="#242424" d="M1403.7522,-1362.893C1216.6964,-1356.0043 528.5443,-1325.1565 330.9947,-1238.4818 277.2573,-1214.9045 227.9195,-1169.0071 195.2435,-1133.6469"/>
<polygon fill="#242424" stroke="#242424" points="197.4396,-1130.8599 188.1208,-1125.819 192.2621,-1135.5709 197.4396,-1130.8599"/>
</g>
<!-- ternary.js -->
<g id="node22" class="node">
<title>ternary.js</title>
<ellipse fill="none" stroke="#242424" stroke-width="4" cx="1805.9947" cy="-445.3584" rx="56.412" ry="56.412"/>
<text text-anchor="middle" x="1805.9947" y="-442.9584" font-family="Fira Code" font-size="12.00" fill="#242424">ternary.js</text>
</g>
<!-- index.js&#45;&gt;ternary.js -->
<g id="edge25" class="edge">
<title>index.js&#45;&gt;ternary.js</title>
<path fill="none" stroke="#242424" d="M1497.8624,-1359.5718C1566.7546,-1349.6797 1694.1858,-1320.7325 1758.9947,-1238.4818 1930.5928,-1020.702 1861.6956,-655.947 1824.1761,-509.2847"/>
<polygon fill="#242424" stroke="#242424" points="1827.543,-508.3248 1821.6428,-499.5249 1820.7675,-510.0835 1827.543,-508.3248"/>
</g>
<!-- triplet.js -->
<g id="node23" class="node">
<title>triplet.js</title>
<ellipse fill="none" stroke="#242424" stroke-width="4" cx="1431.9947" cy="-742.5383" rx="56.412" ry="56.412"/>
<text text-anchor="middle" x="1431.9947" y="-740.1383" font-family="Fira Code" font-size="12.00" fill="#242424">triplet.js</text>
</g>
<!-- index.js&#45;&gt;triplet.js -->
<g id="edge26" class="edge">
<title>index.js&#45;&gt;triplet.js</title>
<path fill="none" stroke="#242424" d="M1449.5589,-1317.4877C1446.2164,-1208.074 1437.9063,-936.0496 1434.0371,-809.3931"/>
<polygon fill="#242424" stroke="#242424" points="1437.5253,-808.9511 1433.7215,-799.0627 1430.5286,-809.1649 1437.5253,-808.9511"/>
</g>
<!-- types.js -->
<g id="node24" class="node">
<title>types.js</title>
<ellipse fill="none" stroke="#242424" stroke-width="4" cx="1973.9947" cy="-445.3584" rx="47.0167" ry="47.0167"/>
<text text-anchor="middle" x="1973.9947" y="-442.9584" font-family="Fira Code" font-size="12.00" fill="#242424">types.js</text>
</g>
<!-- index.js&#45;&gt;types.js -->
<g id="edge27" class="edge">
<title>index.js&#45;&gt;types.js</title>
<path fill="none" stroke="#242424" d="M1497.9811,-1359.6525C1616.1048,-1346.5712 1921.1537,-1306.8056 1992.9947,-1238.4818 2092.383,-1143.9594 2144.063,-762.015 2102.9947,-631.149 2090.1848,-590.3296 2072.4006,-587.287 2047.9947,-552.149 2034.437,-532.6295 2019.5042,-511.0878 2006.6247,-492.4949"/>
<polygon fill="#242424" stroke="#242424" points="2009.4351,-490.4055 2000.864,-484.1776 2003.6806,-494.3912 2009.4351,-490.4055"/>
</g>
<!-- which.js -->
<g id="node25" class="node">
<title>which.js</title>
<ellipse fill="none" stroke="#242424" stroke-width="4" cx="1352.9947" cy="-1085.7047" rx="47.0167" ry="47.0167"/>
<text text-anchor="middle" x="1352.9947" y="-1083.3047" font-family="Fira Code" font-size="12.00" fill="#242424">which.js</text>
</g>
<!-- index.js&#45;&gt;which.js -->
<g id="edge28" class="edge">
<title>index.js&#45;&gt;which.js</title>
<path fill="none" stroke="#242424" d="M1435.358,-1320.0074C1418.163,-1271.0919 1390.5292,-1192.4809 1372.0728,-1139.9771"/>
<polygon fill="#242424" stroke="#242424" points="1375.3563,-1138.7637 1368.738,-1130.4903 1368.7525,-1141.0852 1375.3563,-1138.7637"/>
</g>
<!-- iterate.js&#45;&gt;katsu&#45;curry/katsu&#45;curry.js -->
<g id="edge29" class="edge">
<title>iterate.js&#45;&gt;katsu&#45;curry/katsu&#45;curry.js</title>
<path fill="none" stroke="#242424" d="M718.8201,-393.4682C729.3336,-373.8638 743.6918,-352.8625 761.9947,-338.5677 918.3962,-216.4165 1147.0074,-165.1838 1292.6246,-144.0746"/>
<polygon fill="#242424" stroke="#242424" points="1293.121,-147.5393 1302.5288,-142.6667 1292.1358,-140.6089 1293.121,-147.5393"/>
</g>
<!-- map.js&#45;&gt;entrust/entrust.js -->
<g id="edge30" class="edge">
<title>map.js&#45;&gt;entrust/entrust.js</title>
<path fill="none" stroke="#242424" d="M482.7352,-705.2764C476.198,-681.0753 464.2307,-650.5375 442.9947,-631.149 357.5653,-553.1519 293.1052,-613.4358 194.9947,-552.149 182.6276,-544.4237 170.7211,-534.8599 159.6809,-524.656"/>
<polygon fill="#242424" stroke="#242424" points="161.8335,-521.8724 152.1811,-517.5041 157.0026,-526.9383 161.8335,-521.8724"/>
</g>
<!-- map.js&#45;&gt;katsu&#45;curry/katsu&#45;curry.js -->
<g id="edge33" class="edge">
<title>map.js&#45;&gt;katsu&#45;curry/katsu&#45;curry.js</title>
<path fill="none" stroke="#242424" d="M504.775,-707.5175C514.5554,-685.2455 528.0996,-656.0224 541.9947,-631.149 562.4949,-594.4522 578.4381,-591.1991 593.9947,-552.149 629.6773,-462.5792 566.5714,-409.3899 631.9947,-338.5677 720.7581,-242.4795 1088.6514,-177.382 1293.2142,-147.8538"/>
<polygon fill="#242424" stroke="#242424" points="1293.7295,-151.3158 1303.1313,-146.4317 1292.7357,-144.3867 1293.7295,-151.3158"/>
</g>
<!-- fantasy&#45;land/index.js -->
<g id="node26" class="node">
<title>fantasy&#45;land/index.js</title>
<ellipse fill="none" stroke="#0c821d" stroke-width="4" cx="310.9947" cy="-445.3584" rx="106.5817" ry="106.5817"/>
<text text-anchor="middle" x="310.9947" y="-442.9584" font-family="Fira Code" font-size="12.00" fill="#0c821d">fantasy&#45;land/index.js</text>
</g>
<!-- map.js&#45;&gt;fantasy&#45;land/index.js -->
<g id="edge31" class="edge">
<title>map.js&#45;&gt;fantasy&#45;land/index.js</title>
<path fill="none" stroke="#242424" d="M477.1872,-706.7401C468.6497,-684.427 456.535,-655.4412 442.9947,-631.149 425.4614,-599.693 403.7103,-567.1199 382.9568,-538.2001"/>
<polygon fill="#242424" stroke="#242424" points="385.5406,-535.8001 376.8451,-529.7472 379.8681,-539.9016 385.5406,-535.8001"/>
</g>
<!-- fast.js/map.js -->
<g id="node27" class="node">
<title>fast.js/map.js</title>
<ellipse fill="none" stroke="#0c821d" stroke-width="4" cx="509.9947" cy="-445.3584" rx="74.7005" ry="74.7005"/>
<text text-anchor="middle" x="509.9947" y="-442.9584" font-family="Fira Code" font-size="12.00" fill="#0c821d">fast.js/map.js</text>
</g>
<!-- map.js&#45;&gt;fast.js/map.js -->
<g id="edge32" class="edge">
<title>map.js&#45;&gt;fast.js/map.js</title>
<path fill="none" stroke="#242424" d="M492.5481,-704.5984C495.4936,-660.831 500.4277,-587.5151 504.2986,-529.9976"/>
<polygon fill="#242424" stroke="#242424" points="507.8042,-530.0305 504.9837,-519.818 500.82,-529.5604 507.8042,-530.0305"/>
</g>
<!-- math.js&#45;&gt;katsu&#45;curry/katsu&#45;curry.js -->
<g id="edge34" class="edge">
<title>math.js&#45;&gt;katsu&#45;curry/katsu&#45;curry.js</title>
<path fill="none" stroke="#242424" d="M1199.0835,-412.4794C1232.885,-371.4529 1292.3805,-299.2404 1342.7773,-238.0714"/>
<polygon fill="#242424" stroke="#242424" points="1345.5335,-240.2302 1349.191,-230.2867 1340.1309,-235.7791 1345.5335,-240.2302"/>
</g>
<!-- random&#45;floor.js&#45;&gt;katsu&#45;curry/katsu&#45;curry.js -->
<g id="edge35" class="edge">
<title>random&#45;floor.js&#45;&gt;katsu&#45;curry/katsu&#45;curry.js</title>
<path fill="none" stroke="#242424" d="M897.1546,-381.6896C910.7288,-366.2037 926.3942,-350.6441 942.9947,-338.5677 1051.486,-259.644 1194.4015,-203.0407 1297.6861,-168.8522"/>
<polygon fill="#242424" stroke="#242424" points="1298.8315,-172.16 1307.2412,-165.7158 1296.6483,-165.5091 1298.8315,-172.16"/>
</g>
<!-- random&#45;take.js&#45;&gt;katsu&#45;curry/katsu&#45;curry.js -->
<g id="edge36" class="edge">
<title>random&#45;take.js&#45;&gt;katsu&#45;curry/katsu&#45;curry.js</title>
<path fill="none" stroke="#242424" d="M739.0198,-680.6149C752.6752,-663.2621 768.7845,-645.2951 785.9947,-631.149 844.8109,-582.8044 892.2177,-612.9849 937.9947,-552.149 996.2147,-474.777 921.0202,-414.5878 980.9947,-338.5677 1058.4575,-240.3807 1192.7869,-186.4479 1294.7524,-158.1331"/>
<polygon fill="#242424" stroke="#242424" points="1295.7881,-161.4785 1304.516,-155.4723 1293.9476,-154.7248 1295.7881,-161.4785"/>
</g>
<!-- random&#45;take.js&#45;&gt;iterate.js -->
<g id="edge37" class="edge">
<title>random&#45;take.js&#45;&gt;iterate.js</title>
<path fill="none" stroke="#242424" d="M696.9947,-667.9309C696.9947,-619.9773 696.9947,-558.2218 696.9947,-511.9311"/>
<polygon fill="#242424" stroke="#242424" points="700.4948,-511.7061 696.9947,-501.7062 693.4948,-511.7062 700.4948,-511.7061"/>
</g>
<!-- random&#45;take.js&#45;&gt;random&#45;floor.js -->
<g id="edge38" class="edge">
<title>random&#45;take.js&#45;&gt;random&#45;floor.js</title>
<path fill="none" stroke="#242424" d="M731.3309,-675.8453C754.341,-631.1517 784.7523,-572.0822 809.027,-524.9321"/>
<polygon fill="#242424" stroke="#242424" points="812.1748,-526.4643 813.6404,-515.9713 805.9512,-523.2601 812.1748,-526.4643"/>
</g>
<!-- random&#45;word.js&#45;&gt;array.js -->
<g id="edge40" class="edge">
<title>random&#45;word.js&#45;&gt;array.js</title>
<path fill="none" stroke="#242424" d="M671.0711,-1046.8435C606.9835,-1005.3786 508.6469,-934.6413 442.9947,-853.9276 428.9685,-836.6836 417.1839,-815.3494 408.0995,-795.9815"/>
<polygon fill="#242424" stroke="#242424" points="411.1851,-794.3116 403.8589,-786.6581 404.8133,-797.2099 411.1851,-794.3116"/>
</g>
<!-- random&#45;word.js&#45;&gt;katsu&#45;curry/katsu&#45;curry.js -->
<g id="edge39" class="edge">
<title>random&#45;word.js&#45;&gt;katsu&#45;curry/katsu&#45;curry.js</title>
<path fill="none" stroke="#242424" d="M750.0546,-1012.4699C759.2926,-966.9117 771.189,-907.0797 780.9947,-853.9276 799.2174,-755.1517 759.4797,-712.0608 818.9947,-631.149 864.8092,-568.8634 915.8482,-603.1142 973.9947,-552.149 1060.654,-476.1927 1039.0405,-419.5783 1120.9947,-338.5677 1176.5378,-283.6641 1248.4104,-234.3258 1309.0682,-197.4139"/>
<polygon fill="#242424" stroke="#242424" points="1311.1832,-200.2253 1317.933,-192.0588 1307.5638,-194.2336 1311.1832,-200.2253"/>
</g>
<!-- random&#45;word.js&#45;&gt;random&#45;take.js -->
<g id="edge41" class="edge">
<title>random&#45;word.js&#45;&gt;random&#45;take.js</title>
<path fill="none" stroke="#242424" d="M726.7493,-1011.2427C720.7364,-956.9425 712.581,-883.2927 706.3288,-826.8313"/>
<polygon fill="#242424" stroke="#242424" points="709.8035,-826.409 705.2241,-816.855 702.846,-827.1795 709.8035,-826.409"/>
</g>
<!-- reduce.js&#45;&gt;katsu&#45;curry/katsu&#45;curry.js -->
<g id="edge43" class="edge">
<title>reduce.js&#45;&gt;katsu&#45;curry/katsu&#45;curry.js</title>
<path fill="none" stroke="#242424" d="M1926.5054,-1034.1878C1921.5929,-987.2415 1914.3594,-915.9687 1908.9947,-853.9276 1904.0483,-796.7234 1903.4263,-385.949 1870.9947,-338.5677 1801.9556,-237.7042 1670.5276,-184.1422 1569.3982,-156.6434"/>
<polygon fill="#242424" stroke="#242424" points="1570.2732,-153.2545 1559.7092,-154.0629 1568.4716,-160.0187 1570.2732,-153.2545"/>
</g>
<!-- fast.js/reduce.js -->
<g id="node28" class="node">
<title>fast.js/reduce.js</title>
<ellipse fill="none" stroke="#0c821d" stroke-width="4" cx="2005.9947" cy="-742.5383" rx="88.2923" ry="88.2923"/>
<text text-anchor="middle" x="2005.9947" y="-740.1383" font-family="Fira Code" font-size="12.00" fill="#0c821d">fast.js/reduce.js</text>
</g>
<!-- reduce.js&#45;&gt;fast.js/reduce.js -->
<g id="edge42" class="edge">
<title>reduce.js&#45;&gt;fast.js/reduce.js</title>
<path fill="none" stroke="#242424" d="M1942.9137,-1035.0693C1953.9998,-983.6587 1971.4418,-902.7736 1985.1778,-839.0742"/>
<polygon fill="#242424" stroke="#242424" points="1988.6624,-839.5187 1987.349,-829.0056 1981.8197,-838.0431 1988.6624,-839.5187"/>
</g>
<!-- reject.js&#45;&gt;katsu&#45;curry/katsu&#45;curry.js -->
<g id="edge45" class="edge">
<title>reject.js&#45;&gt;katsu&#45;curry/katsu&#45;curry.js</title>
<path fill="none" stroke="#242424" d="M1723.3386,-1040.3813C1747.2281,-994.8683 1781.3394,-921.9272 1794.9947,-853.9276 1814.4887,-756.8529 1825.5136,-725.3409 1794.9947,-631.149 1791.3502,-619.9008 1621.0529,-387.0237 1515.0347,-242.6577"/>
<polygon fill="#242424" stroke="#242424" points="1517.8327,-240.5547 1509.0922,-234.5668 1512.1909,-244.6984 1517.8327,-240.5547"/>
</g>
<!-- reject.js&#45;&gt;fast.js/filter.js -->
<g id="edge44" class="edge">
<title>reject.js&#45;&gt;fast.js/filter.js</title>
<path fill="none" stroke="#242424" d="M1697.9947,-1033.9577C1697.9947,-983.1424 1697.9947,-904.3189 1697.9947,-841.4566"/>
<polygon fill="#242424" stroke="#242424" points="1701.4948,-841.1139 1697.9947,-831.1139 1694.4948,-841.1139 1701.4948,-841.1139"/>
</g>
<!-- string.js&#45;&gt;entrust/entrust.js -->
<g id="edge46" class="edge">
<title>string.js&#45;&gt;entrust/entrust.js</title>
<path fill="none" stroke="#242424" d="M149.9997,-1034.1152C139.793,-928.6982 116.378,-686.8644 102.9481,-548.158"/>
<polygon fill="#242424" stroke="#242424" points="106.4065,-547.5583 101.9589,-537.9421 99.439,-548.2329 106.4065,-547.5583"/>
</g>
<!-- ternary.js&#45;&gt;katsu&#45;curry/katsu&#45;curry.js -->
<g id="edge47" class="edge">
<title>ternary.js&#45;&gt;katsu&#45;curry/katsu&#45;curry.js</title>
<path fill="none" stroke="#242424" d="M1779.154,-395.8997C1767.3962,-376.7573 1752.5077,-355.441 1735.9947,-338.5677 1682.7476,-284.1589 1613.3826,-235.2519 1554.3587,-198.4732"/>
<polygon fill="#242424" stroke="#242424" points="1556.0744,-195.419 1545.7285,-193.1356 1552.3923,-201.3724 1556.0744,-195.419"/>
</g>
<!-- triplet.js&#45;&gt;katsu&#45;curry/katsu&#45;curry.js -->
<g id="edge48" class="edge">
<title>triplet.js&#45;&gt;katsu&#45;curry/katsu&#45;curry.js</title>
<path fill="none" stroke="#242424" d="M1431.9947,-686.2634C1431.9947,-592.5508 1431.9947,-401.8094 1431.9947,-269.9588"/>
<polygon fill="#242424" stroke="#242424" points="1435.4948,-269.7765 1431.9947,-259.7765 1428.4948,-269.7765 1435.4948,-269.7765"/>
</g>
<!-- types.js&#45;&gt;katsu&#45;curry/katsu&#45;curry.js -->
<g id="edge49" class="edge">
<title>types.js&#45;&gt;katsu&#45;curry/katsu&#45;curry.js</title>
<path fill="none" stroke="#242424" d="M1953.6349,-402.8557C1941.6212,-381.3425 1924.703,-356.135 1903.9947,-338.5677 1805.4491,-254.9693 1668.1327,-199.2996 1567.0072,-166.6231"/>
<polygon fill="#242424" stroke="#242424" points="1567.9272,-163.2428 1557.3363,-163.5325 1565.7962,-169.9106 1567.9272,-163.2428"/>
</g>
<!-- which.js&#45;&gt;katsu&#45;curry/katsu&#45;curry.js -->
<g id="edge52" class="edge">
<title>which.js&#45;&gt;katsu&#45;curry/katsu&#45;curry.js</title>
<path fill="none" stroke="#242424" d="M1352.9252,-1038.5055C1353.1434,-955.8325 1355.1223,-779.5018 1366.9947,-631.149 1376.854,-507.9516 1395.5328,-368.5952 1410.346,-268.1292"/>
<polygon fill="#242424" stroke="#242424" points="1413.8101,-268.629 1411.8125,-258.2242 1406.8856,-267.6037 1413.8101,-268.629"/>
</g>
<!-- which.js&#45;&gt;flip.js -->
<g id="edge53" class="edge">
<title>which.js&#45;&gt;flip.js</title>
<path fill="none" stroke="#242424" d="M1379.4462,-1046.3661C1409.5197,-1000.9311 1459.3203,-923.4937 1496.9947,-853.9276 1508.0058,-833.5956 1519.0105,-810.5225 1528.0419,-790.6699"/>
<polygon fill="#242424" stroke="#242424" points="1531.2552,-792.0584 1532.1766,-781.5037 1524.8743,-789.1801 1531.2552,-792.0584"/>
</g>
<!-- which.js&#45;&gt;triplet.js -->
<g id="edge54" class="edge">
<title>which.js&#45;&gt;triplet.js</title>
<path fill="none" stroke="#242424" d="M1363.5671,-1039.7798C1377.3041,-980.1076 1401.3741,-875.5504 1416.9953,-807.6939"/>
<polygon fill="#242424" stroke="#242424" points="1420.499,-808.0753 1419.3317,-797.5449 1413.6774,-806.5048 1420.499,-808.0753"/>
</g>
<!-- fast.js/array/every.js -->
<g id="node29" class="node">
<title>fast.js/array/every.js</title>
<ellipse fill="none" stroke="#0c821d" stroke-width="4" cx="1208.9947" cy="-742.5383" rx="111.2787" ry="111.2787"/>
<text text-anchor="middle" x="1208.9947" y="-740.1383" font-family="Fira Code" font-size="12.00" fill="#0c821d">fast.js/array/every.js</text>
</g>
<!-- which.js&#45;&gt;fast.js/array/every.js -->
<g id="edge50" class="edge">
<title>which.js&#45;&gt;fast.js/array/every.js</title>
<path fill="none" stroke="#242424" d="M1334.757,-1042.2424C1315.0647,-995.3138 1282.9066,-918.6777 1256.0392,-854.65"/>
<polygon fill="#242424" stroke="#242424" points="1259.2124,-853.1665 1252.1156,-845.2998 1252.7577,-855.8751 1259.2124,-853.1665"/>
</g>
<!-- fast.js/array/some.js -->
<g id="node30" class="node">
<title>fast.js/array/some.js</title>
<ellipse fill="none" stroke="#0c821d" stroke-width="4" cx="972.9947" cy="-742.5383" rx="106.5817" ry="106.5817"/>
<text text-anchor="middle" x="972.9947" y="-740.1383" font-family="Fira Code" font-size="12.00" fill="#0c821d">fast.js/array/some.js</text>
</g>
<!-- which.js&#45;&gt;fast.js/array/some.js -->
<g id="edge51" class="edge">
<title>which.js&#45;&gt;fast.js/array/some.js</title>
<path fill="none" stroke="#242424" d="M1317.1065,-1055.0856C1265.8983,-1011.1961 1169.1842,-927.562 1088.9947,-853.9276 1078.5514,-844.338 1067.6868,-834.1698 1056.979,-824.03"/>
<polygon fill="#242424" stroke="#242424" points="1059.26,-821.3694 1049.5981,-817.0221 1054.4402,-826.4458 1059.26,-821.3694"/>
</g>
</g>
</svg>
