<?xml version="1.0" encoding="UTF-8" standalone="no"?>
<!DOCTYPE svg PUBLIC "-//W3C//DTD SVG 1.1//EN"
 "http://www.w3.org/Graphics/SVG/1.1/DTD/svg11.dtd">
<!-- Generated by graphviz version 2.40.1 (20161225.0304)
 -->
<!-- Title: G Pages: 1 -->
<svg width="2493pt" height="1646pt"
 viewBox="0.00 0.00 2492.98 1646.49" xmlns="http://www.w3.org/2000/svg" xmlns:xlink="http://www.w3.org/1999/xlink">
<g id="graph0" class="graph" transform="scale(1 1) rotate(0) translate(7.992 1638.4935)">
<title>G</title>
<polygon fill="#eeeeff" stroke="transparent" points="-7.992,7.992 -7.992,-1638.4935 2484.9912,-1638.4935 2484.9912,7.992 -7.992,7.992"/>
<!-- ../f&#45;utility.js -->
<g id="node1" class="node">
<title>../f&#45;utility.js</title>
<ellipse fill="none" stroke="#242424" stroke-width="4" cx="396.5895" cy="-426.9638" rx="79.3981" ry="79.3981"/>
<text text-anchor="middle" x="396.5895" y="-424.5638" font-family="Fira Code" font-size="12.00" fill="#242424">../f&#45;utility.js</text>
</g>
<!-- entrust/entrust.js -->
<g id="node2" class="node">
<title>entrust/entrust.js</title>
<ellipse fill="none" stroke="#0c821d" stroke-width="4" cx="136.5895" cy="-129.7839" rx="92.9895" ry="92.9895"/>
<text text-anchor="middle" x="136.5895" y="-127.3839" font-family="Fira Code" font-size="12.00" fill="#0c821d">entrust/entrust.js</text>
</g>
<!-- ../f&#45;utility.js&#45;&gt;entrust/entrust.js -->
<g id="edge1" class="edge">
<title>../f&#45;utility.js&#45;&gt;entrust/entrust.js</title>
<path fill="none" stroke="#242424" d="M340.8002,-370.4314C309.9427,-338.5314 271.3311,-297.5591 238.5895,-259.5677 225.4861,-244.3633 211.9178,-227.7639 199.1198,-211.671"/>
<polygon fill="#242424" stroke="#242424" points="201.8555,-209.4879 192.9044,-203.8198 196.3672,-213.8328 201.8555,-209.4879"/>
</g>
<!-- fantasy&#45;land/index.js -->
<g id="node3" class="node">
<title>fantasy&#45;land/index.js</title>
<ellipse fill="none" stroke="#0c821d" stroke-width="4" cx="521.5895" cy="-129.7839" rx="106.5817" ry="106.5817"/>
<text text-anchor="middle" x="521.5895" y="-127.3839" font-family="Fira Code" font-size="12.00" fill="#0c821d">fantasy&#45;land/index.js</text>
</g>
<!-- ../f&#45;utility.js&#45;&gt;fantasy&#45;land/index.js -->
<g id="edge2" class="edge">
<title>../f&#45;utility.js&#45;&gt;fantasy&#45;land/index.js</title>
<path fill="none" stroke="#242424" d="M427.3281,-353.8848C441.9889,-319.0295 459.8255,-276.6242 476.0213,-238.1195"/>
<polygon fill="#242424" stroke="#242424" points="479.4496,-238.996 480.1007,-228.4212 472.9972,-236.2819 479.4496,-238.996"/>
</g>
<!-- katsu&#45;curry/katsu&#45;curry.js -->
<g id="node4" class="node">
<title>katsu&#45;curry/katsu&#45;curry.js</title>
<ellipse fill="none" stroke="#0c821d" stroke-width="4" cx="1343.5895" cy="-129.7839" rx="129.5681" ry="129.5681"/>
<text text-anchor="middle" x="1343.5895" y="-127.3839" font-family="Fira Code" font-size="12.00" fill="#0c821d">katsu&#45;curry/katsu&#45;curry.js</text>
</g>
<!-- ../f&#45;utility.js&#45;&gt;katsu&#45;curry/katsu&#45;curry.js -->
<g id="edge3" class="edge">
<title>../f&#45;utility.js&#45;&gt;katsu&#45;curry/katsu&#45;curry.js</title>
<path fill="none" stroke="#242424" d="M448.1998,-366.5738C459.606,-355.9977 472.2878,-346.0142 485.5895,-338.5677 716.7058,-209.1857 1026.6627,-159.3449 1203.7761,-140.6126"/>
<polygon fill="#242424" stroke="#242424" points="1204.3544,-144.0714 1213.9391,-139.5564 1203.6308,-137.1089 1204.3544,-144.0714"/>
</g>
<!-- ../package.json -->
<g id="node5" class="node">
<title>../package.json</title>
<ellipse fill="none" stroke="#0c821d" stroke-width="4" cx="283.5895" cy="-1304.7078" rx="79.3981" ry="79.3981"/>
<text text-anchor="middle" x="283.5895" y="-1302.3078" font-family="Fira Code" font-size="12.00" fill="#0c821d">../package.json</text>
</g>
<!-- array.js -->
<g id="node6" class="node">
<title>array.js</title>
<ellipse fill="none" stroke="#242424" stroke-width="4" cx="562.5895" cy="-961.5414" rx="47.0167" ry="47.0167"/>
<text text-anchor="middle" x="562.5895" y="-959.1414" font-family="Fira Code" font-size="12.00" fill="#242424">array.js</text>
</g>
<!-- array.js&#45;&gt;entrust/entrust.js -->
<g id="edge4" class="edge">
<title>array.js&#45;&gt;entrust/entrust.js</title>
<path fill="none" stroke="#242424" d="M528.271,-929.123C457.5228,-860.195 295.3384,-690.9658 214.5895,-515.3599 173.0671,-425.0604 153.5469,-312.8264 144.432,-232.7758"/>
<polygon fill="#242424" stroke="#242424" points="147.8943,-232.2412 143.3187,-222.6854 140.9366,-233.0089 147.8943,-232.2412"/>
</g>
<!-- array.js&#45;&gt;katsu&#45;curry/katsu&#45;curry.js -->
<g id="edge5" class="edge">
<title>array.js&#45;&gt;katsu&#45;curry/katsu&#45;curry.js</title>
<path fill="none" stroke="#242424" d="M583.3263,-919.2824C593.7134,-898.3776 606.6021,-872.8275 618.5895,-850.1521 679.3604,-735.1987 675.2154,-692.4346 760.5895,-594.3599 798.9339,-550.3113 834.8083,-564.9894 865.5895,-515.3599 907.7194,-447.4327 849.6882,-401.795 898.5895,-338.5677 974.0128,-241.0487 1106.0223,-187.105 1206.7343,-158.6113"/>
<polygon fill="#242424" stroke="#242424" points="1207.6811,-161.9809 1216.3799,-155.9327 1205.808,-155.2362 1207.6811,-161.9809"/>
</g>
<!-- filter.js -->
<g id="node7" class="node">
<title>filter.js</title>
<ellipse fill="none" stroke="#242424" stroke-width="4" cx="582.5895" cy="-682.756" rx="51.7142" ry="51.7142"/>
<text text-anchor="middle" x="582.5895" y="-680.356" font-family="Fira Code" font-size="12.00" fill="#242424">filter.js</text>
</g>
<!-- array.js&#45;&gt;filter.js -->
<g id="edge6" class="edge">
<title>array.js&#45;&gt;filter.js</title>
<path fill="none" stroke="#242424" d="M565.9597,-914.5645C569.3098,-867.8653 574.4669,-795.9794 578.1494,-744.648"/>
<polygon fill="#242424" stroke="#242424" points="581.6407,-744.8942 578.8653,-734.6693 574.6586,-744.3932 581.6407,-744.8942"/>
</g>
<!-- delegate&#45;fast.js -->
<g id="node9" class="node">
<title>delegate&#45;fast.js</title>
<ellipse fill="none" stroke="#242424" stroke-width="4" cx="772.5895" cy="-426.9638" rx="83.5954" ry="83.5954"/>
<text text-anchor="middle" x="772.5895" y="-424.5638" font-family="Fira Code" font-size="12.00" fill="#242424">delegate&#45;fast.js</text>
</g>
<!-- filter.js&#45;&gt;delegate&#45;fast.js -->
<g id="edge11" class="edge">
<title>filter.js&#45;&gt;delegate&#45;fast.js</title>
<path fill="none" stroke="#242424" d="M613.5392,-641.0893C641.3146,-603.696 682.763,-547.895 716.3841,-502.6318"/>
<polygon fill="#242424" stroke="#242424" points="719.1976,-504.7137 722.3508,-494.599 713.5782,-500.5397 719.1976,-504.7137"/>
</g>
<!-- fast.js/filter.js -->
<g id="node10" class="node">
<title>fast.js/filter.js</title>
<ellipse fill="none" stroke="#0c821d" stroke-width="4" cx="582.5895" cy="-426.9638" rx="88.2923" ry="88.2923"/>
<text text-anchor="middle" x="582.5895" y="-424.5638" font-family="Fira Code" font-size="12.00" fill="#0c821d">fast.js/filter.js</text>
</g>
<!-- filter.js&#45;&gt;fast.js/filter.js -->
<g id="edge10" class="edge">
<title>filter.js&#45;&gt;fast.js/filter.js</title>
<path fill="none" stroke="#242424" d="M582.5895,-630.9926C582.5895,-600.7023 582.5895,-561.4543 582.5895,-525.4836"/>
<polygon fill="#242424" stroke="#242424" points="586.0896,-525.4351 582.5895,-515.4351 579.0896,-525.4352 586.0896,-525.4351"/>
</g>
<!-- choice.js -->
<g id="node8" class="node">
<title>choice.js</title>
<ellipse fill="none" stroke="#242424" stroke-width="4" cx="1704.5895" cy="-682.756" rx="51.7142" ry="51.7142"/>
<text text-anchor="middle" x="1704.5895" y="-680.356" font-family="Fira Code" font-size="12.00" fill="#242424">choice.js</text>
</g>
<!-- choice.js&#45;&gt;katsu&#45;curry/katsu&#45;curry.js -->
<g id="edge7" class="edge">
<title>choice.js&#45;&gt;katsu&#45;curry/katsu&#45;curry.js</title>
<path fill="none" stroke="#242424" d="M1706.2732,-631.1257C1706.1814,-559.7189 1697.066,-429.3639 1638.5895,-338.5677 1597.7083,-275.0916 1530.0807,-225.1594 1469.8834,-190.0632"/>
<polygon fill="#242424" stroke="#242424" points="1471.4741,-186.9406 1461.0598,-184.9929 1467.9864,-193.0099 1471.4741,-186.9406"/>
</g>
<!-- delegate&#45;fast.js&#45;&gt;entrust/entrust.js -->
<g id="edge8" class="edge">
<title>delegate&#45;fast.js&#45;&gt;entrust/entrust.js</title>
<path fill="none" stroke="#242424" d="M716.8809,-364.3618C705.4312,-354.438 692.8057,-345.2585 679.5895,-338.5677 501.938,-248.6304 409.2763,-362.1095 238.5895,-259.5677 220.7507,-248.8508 204.8249,-233.771 191.1622,-217.6657"/>
<polygon fill="#242424" stroke="#242424" points="193.6796,-215.2153 184.6385,-209.6918 188.2617,-219.6478 193.6796,-215.2153"/>
</g>
<!-- delegate&#45;fast.js&#45;&gt;katsu&#45;curry/katsu&#45;curry.js -->
<g id="edge9" class="edge">
<title>delegate&#45;fast.js&#45;&gt;katsu&#45;curry/katsu&#45;curry.js</title>
<path fill="none" stroke="#242424" d="M832.0951,-367.9C844.2766,-357.3961 857.4166,-347.1007 870.5895,-338.5677 978.2396,-268.836 1113.0794,-211.9015 1211.2178,-175.2032"/>
<polygon fill="#242424" stroke="#242424" points="1212.4452,-178.481 1220.5984,-171.7152 1210.0055,-171.9199 1212.4452,-178.481"/>
</g>
<!-- flip.js -->
<g id="node11" class="node">
<title>flip.js</title>
<ellipse fill="none" stroke="#242424" stroke-width="4" cx="2434.5895" cy="-961.5414" rx="42.3196" ry="42.3196"/>
<text text-anchor="middle" x="2434.5895" y="-959.1414" font-family="Fira Code" font-size="12.00" fill="#242424">flip.js</text>
</g>
<!-- flip.js&#45;&gt;katsu&#45;curry/katsu&#45;curry.js -->
<g id="edge12" class="edge">
<title>flip.js&#45;&gt;katsu&#45;curry/katsu&#45;curry.js</title>
<path fill="none" stroke="#242424" d="M2419.9182,-921.5076C2410.9848,-899.537 2398.438,-872.3336 2383.5895,-850.1521 2210.6589,-591.818 2165.2954,-510.9416 1906.5895,-338.5677 1774.2152,-250.3677 1599.6295,-193.136 1480.1788,-161.2901"/>
<polygon fill="#242424" stroke="#242424" points="1480.7997,-157.8342 1470.2375,-158.6644 1479.0121,-164.6021 1480.7997,-157.8342"/>
</g>
<!-- future.js -->
<g id="node12" class="node">
<title>future.js</title>
<ellipse fill="none" stroke="#242424" stroke-width="4" cx="56.5895" cy="-426.9638" rx="51.7142" ry="51.7142"/>
<text text-anchor="middle" x="56.5895" y="-424.5638" font-family="Fira Code" font-size="12.00" fill="#242424">future.js</text>
</g>
<!-- future.js&#45;&gt;entrust/entrust.js -->
<g id="edge13" class="edge">
<title>future.js&#45;&gt;entrust/entrust.js</title>
<path fill="none" stroke="#242424" d="M70.07,-376.8873C80.8824,-336.7218 96.4001,-279.0775 109.7284,-229.5663"/>
<polygon fill="#242424" stroke="#242424" points="113.143,-230.3462 112.3628,-219.7801 106.3836,-228.5266 113.143,-230.3462"/>
</g>
<!-- index.js -->
<g id="node13" class="node">
<title>index.js</title>
<ellipse fill="none" stroke="#242424" stroke-width="4" cx="1167.5895" cy="-1583.4931" rx="47.0167" ry="47.0167"/>
<text text-anchor="middle" x="1167.5895" y="-1581.0932" font-family="Fira Code" font-size="12.00" fill="#242424">index.js</text>
</g>
<!-- index.js&#45;&gt;katsu&#45;curry/katsu&#45;curry.js -->
<g id="edge14" class="edge">
<title>index.js&#45;&gt;katsu&#45;curry/katsu&#45;curry.js</title>
<path fill="none" stroke="#242424" d="M1214.0341,-1576.1108C1275.522,-1563.6186 1381.9439,-1531.9669 1431.5895,-1457.4848 1492.7927,-1365.6632 1456.5895,-1071.891 1456.5895,-961.5414 1456.5895,-961.5414 1456.5895,-961.5414 1456.5895,-682.756 1456.5895,-537.2294 1418.5571,-374.4424 1386.621,-263.4021"/>
<polygon fill="#242424" stroke="#242424" points="1389.8938,-262.121 1383.7473,-253.4914 1383.1707,-264.0705 1389.8938,-262.121"/>
</g>
<!-- index.js&#45;&gt;../package.json -->
<g id="edge16" class="edge">
<title>index.js&#45;&gt;../package.json</title>
<path fill="none" stroke="#242424" d="M1120.4153,-1581.1106C969.3269,-1572.7031 500.0736,-1540.3394 376.5895,-1457.4848 351.2225,-1440.4642 331.6178,-1413.9631 317.0929,-1387.7817"/>
<polygon fill="#242424" stroke="#242424" points="320.1618,-1386.0983 312.3609,-1378.9293 313.9885,-1389.3983 320.1618,-1386.0983"/>
</g>
<!-- index.js&#45;&gt;array.js -->
<g id="edge17" class="edge">
<title>index.js&#45;&gt;array.js</title>
<path fill="none" stroke="#242424" d="M1120.298,-1581.5486C986.1816,-1574.9465 608.2604,-1548.4571 533.5895,-1457.4848 479.6754,-1391.8006 525.9431,-1133.3913 550.1091,-1017.8699"/>
<polygon fill="#242424" stroke="#242424" points="553.5917,-1018.3173 552.2334,-1007.8099 546.7428,-1016.871 553.5917,-1018.3173"/>
</g>
<!-- index.js&#45;&gt;filter.js -->
<g id="edge19" class="edge">
<title>index.js&#45;&gt;filter.js</title>
<path fill="none" stroke="#242424" d="M1120.1488,-1581.9881C981.7553,-1576.5044 583.3196,-1552.5874 504.5895,-1457.4848 418.5253,-1353.5228 477.61,-981.9677 506.5895,-850.1521 515.3844,-810.148 534.4603,-768.1853 551.2994,-736.2807"/>
<polygon fill="#242424" stroke="#242424" points="554.5614,-737.6042 556.2086,-727.1382 548.3942,-734.2926 554.5614,-737.6042"/>
</g>
<!-- index.js&#45;&gt;choice.js -->
<g id="edge18" class="edge">
<title>index.js&#45;&gt;choice.js</title>
<path fill="none" stroke="#242424" d="M1214.7175,-1578.336C1326.3768,-1565.0863 1602.0055,-1525.9951 1659.5895,-1457.4848 1705.0084,-1403.4481 1706.2214,-918.6683 1705.1676,-744.6187"/>
<polygon fill="#242424" stroke="#242424" points="1708.6675,-744.5701 1705.1023,-734.5931 1701.6676,-744.6158 1708.6675,-744.5701"/>
</g>
<!-- index.js&#45;&gt;flip.js -->
<g id="edge20" class="edge">
<title>index.js&#45;&gt;flip.js</title>
<path fill="none" stroke="#242424" d="M1214.708,-1580.6745C1372.7376,-1570.5942 1882.0425,-1532.8534 2025.5895,-1457.4848 2232.3363,-1348.9336 2253.7681,-1267.0285 2383.5895,-1072.9307 2396.4005,-1053.7768 2407.5025,-1030.8846 2416.0474,-1010.8488"/>
<polygon fill="#242424" stroke="#242424" points="2419.2978,-1012.1478 2419.9115,-1001.5707 2412.8358,-1009.4565 2419.2978,-1012.1478"/>
</g>
<!-- index.js&#45;&gt;future.js -->
<g id="edge21" class="edge">
<title>index.js&#45;&gt;future.js</title>
<path fill="none" stroke="#242424" d="M1120.6092,-1580.6368C935.5003,-1568.9535 263.3661,-1522.3317 195.5895,-1457.4848 -79.3605,-1194.4197 4.2278,-665.923 42.3337,-487.435"/>
<polygon fill="#242424" stroke="#242424" points="45.8022,-487.9547 44.4986,-477.4404 38.9609,-486.4728 45.8022,-487.9547"/>
</g>
<!-- katsu&#45;curry/lib/utils/length.js -->
<g id="node14" class="node">
<title>katsu&#45;curry/lib/utils/length.js</title>
<ellipse fill="none" stroke="#0c821d" stroke-width="4" cx="723.5895" cy="-1304.7078" rx="152.5545" ry="152.5545"/>
<text text-anchor="middle" x="723.5895" y="-1302.3078" font-family="Fira Code" font-size="12.00" fill="#0c821d">katsu&#45;curry/lib/utils/length.js</text>
</g>
<!-- index.js&#45;&gt;katsu&#45;curry/lib/utils/length.js -->
<g id="edge15" class="edge">
<title>index.js&#45;&gt;katsu&#45;curry/lib/utils/length.js</title>
<path fill="none" stroke="#242424" d="M1122.6728,-1568.0572C1065.9604,-1547.4748 966.624,-1507.7291 890.5895,-1457.4848 873.4036,-1446.1282 856.2535,-1433.0164 839.8451,-1419.3444"/>
<polygon fill="#242424" stroke="#242424" points="841.7506,-1416.3724 831.8528,-1412.593 837.2334,-1421.7198 841.7506,-1416.3724"/>
</g>
<!-- iterate.js -->
<g id="node15" class="node">
<title>iterate.js</title>
<ellipse fill="none" stroke="#242424" stroke-width="4" cx="1540.5895" cy="-682.756" rx="56.412" ry="56.412"/>
<text text-anchor="middle" x="1540.5895" y="-680.356" font-family="Fira Code" font-size="12.00" fill="#242424">iterate.js</text>
</g>
<!-- index.js&#45;&gt;iterate.js -->
<g id="edge22" class="edge">
<title>index.js&#45;&gt;iterate.js</title>
<path fill="none" stroke="#242424" d="M1214.3821,-1576.8646C1315.9151,-1561.4248 1551.0703,-1519.5924 1597.5895,-1457.4848 1638.2957,-1403.1383 1612.6838,-1218.1326 1597.5895,-1151.9307 1588.9284,-1113.9437 1569.1722,-1110.6957 1559.5895,-1072.9307 1531.4541,-962.0499 1532.1465,-827.8956 1535.8925,-749.2753"/>
<polygon fill="#242424" stroke="#242424" points="1539.4011,-749.1933 1536.4132,-739.0286 1532.4101,-748.838 1539.4011,-749.1933"/>
</g>
<!-- map.js -->
<g id="node16" class="node">
<title>map.js</title>
<ellipse fill="none" stroke="#242424" stroke-width="4" cx="261.5895" cy="-426.9638" rx="37.623" ry="37.623"/>
<text text-anchor="middle" x="261.5895" y="-424.5638" font-family="Fira Code" font-size="12.00" fill="#242424">map.js</text>
</g>
<!-- index.js&#45;&gt;map.js -->
<g id="edge23" class="edge">
<title>index.js&#45;&gt;map.js</title>
<path fill="none" stroke="#242424" d="M1120.5649,-1582.0202C977.2269,-1576.5205 549.8883,-1552.3259 456.5895,-1457.4848 408.3631,-1408.4612 419.8247,-1219.602 407.5895,-1151.9307 361.1914,-895.3076 296.5082,-589.5163 271.7655,-474.1352"/>
<polygon fill="#242424" stroke="#242424" points="275.157,-473.2578 269.636,-464.2151 268.3129,-474.727 275.157,-473.2578"/>
</g>
<!-- math.js -->
<g id="node17" class="node">
<title>math.js</title>
<ellipse fill="none" stroke="#242424" stroke-width="4" cx="1822.5895" cy="-961.5414" rx="42.3196" ry="42.3196"/>
<text text-anchor="middle" x="1822.5895" y="-959.1414" font-family="Fira Code" font-size="12.00" fill="#242424">math.js</text>
</g>
<!-- index.js&#45;&gt;math.js -->
<g id="edge24" class="edge">
<title>index.js&#45;&gt;math.js</title>
<path fill="none" stroke="#242424" d="M1214.7122,-1581.6748C1350.254,-1575.3686 1736.3745,-1549.5026 1813.5895,-1457.4848 1921.293,-1329.1338 1870.4794,-1109.4041 1839.8899,-1011.3385"/>
<polygon fill="#242424" stroke="#242424" points="1843.1826,-1010.1433 1836.817,-1001.6739 1836.5116,-1012.2643 1843.1826,-1010.1433"/>
</g>
<!-- path.js -->
<g id="node18" class="node">
<title>path.js</title>
<ellipse fill="none" stroke="#242424" stroke-width="4" cx="1762.5895" cy="-1304.7078" rx="42.3196" ry="42.3196"/>
<text text-anchor="middle" x="1762.5895" y="-1302.3078" font-family="Fira Code" font-size="12.00" fill="#242424">path.js</text>
</g>
<!-- index.js&#45;&gt;path.js -->
<g id="edge25" class="edge">
<title>index.js&#45;&gt;path.js</title>
<path fill="none" stroke="#242424" d="M1214.46,-1578.2561C1331.5677,-1564.3007 1632.8319,-1522.7723 1706.5895,-1457.4848 1735.3444,-1432.0321 1749.3515,-1390.5323 1756.1651,-1357.2045"/>
<polygon fill="#242424" stroke="#242424" points="1759.6472,-1357.6254 1758.0571,-1347.1506 1752.768,-1356.3307 1759.6472,-1357.6254"/>
</g>
<!-- random&#45;floor.js -->
<g id="node19" class="node">
<title>random&#45;floor.js</title>
<ellipse fill="none" stroke="#242424" stroke-width="4" cx="891.5895" cy="-682.756" rx="79.3981" ry="79.3981"/>
<text text-anchor="middle" x="891.5895" y="-680.356" font-family="Fira Code" font-size="12.00" fill="#242424">random&#45;floor.js</text>
</g>
<!-- index.js&#45;&gt;random&#45;floor.js -->
<g id="edge26" class="edge">
<title>index.js&#45;&gt;random&#45;floor.js</title>
<path fill="none" stroke="#242424" d="M1121.2603,-1574.2756C1063.7766,-1560.1246 967.9378,-1527.0278 923.5895,-1457.4848 887.5686,-1401 888.218,-963.9216 890.2887,-772.2951"/>
<polygon fill="#242424" stroke="#242424" points="893.789,-772.2868 890.4011,-762.2483 886.7894,-772.2085 893.789,-772.2868"/>
</g>
<!-- random&#45;shuffle.js -->
<g id="node20" class="node">
<title>random&#45;shuffle.js</title>
<ellipse fill="none" stroke="#0c821d" stroke-width="4" cx="1302.5895" cy="-1304.7078" rx="88.2923" ry="88.2923"/>
<text text-anchor="middle" x="1302.5895" y="-1302.3078" font-family="Fira Code" font-size="12.00" fill="#0c821d">random&#45;shuffle.js</text>
</g>
<!-- index.js&#45;&gt;random&#45;shuffle.js -->
<g id="edge27" class="edge">
<title>index.js&#45;&gt;random&#45;shuffle.js</title>
<path fill="none" stroke="#242424" d="M1188.0931,-1541.1516C1207.0154,-1502.0758 1235.7194,-1442.7997 1259.6528,-1393.3754"/>
<polygon fill="#242424" stroke="#242424" points="1262.8545,-1394.7942 1264.0628,-1384.2685 1256.5543,-1391.7434 1262.8545,-1394.7942"/>
</g>
<!-- random&#45;take.js -->
<g id="node21" class="node">
<title>random&#45;take.js</title>
<ellipse fill="none" stroke="#242424" stroke-width="4" cx="1082.5895" cy="-961.5414" rx="74.7005" ry="74.7005"/>
<text text-anchor="middle" x="1082.5895" y="-959.1414" font-family="Fira Code" font-size="12.00" fill="#242424">random&#45;take.js</text>
</g>
<!-- index.js&#45;&gt;random&#45;take.js -->
<g id="edge28" class="edge">
<title>index.js&#45;&gt;random&#45;take.js</title>
<path fill="none" stroke="#242424" d="M1161.2007,-1536.7457C1146.9207,-1432.2576 1112.249,-1178.5623 1094.0992,-1045.7587"/>
<polygon fill="#242424" stroke="#242424" points="1097.5369,-1045.0641 1092.715,-1035.6302 1090.6014,-1046.0121 1097.5369,-1045.0641"/>
</g>
<!-- random&#45;word.js -->
<g id="node22" class="node">
<title>random&#45;word.js</title>
<ellipse fill="none" stroke="#242424" stroke-width="4" cx="1007.5895" cy="-1304.7078" rx="74.7005" ry="74.7005"/>
<text text-anchor="middle" x="1007.5895" y="-1302.3078" font-family="Fira Code" font-size="12.00" fill="#242424">random&#45;word.js</text>
</g>
<!-- index.js&#45;&gt;random&#45;word.js -->
<g id="edge29" class="edge">
<title>index.js&#45;&gt;random&#45;word.js</title>
<path fill="none" stroke="#242424" d="M1144.1528,-1542.6568C1119.4549,-1499.6229 1080.031,-1430.9304 1049.8767,-1378.3893"/>
<polygon fill="#242424" stroke="#242424" points="1052.7543,-1376.3717 1044.741,-1369.4408 1046.6831,-1379.8561 1052.7543,-1376.3717"/>
</g>
<!-- random.js -->
<g id="node23" class="node">
<title>random.js</title>
<ellipse fill="none" stroke="#0c821d" stroke-width="4" cx="1536.5895" cy="-1304.7078" rx="51.7142" ry="51.7142"/>
<text text-anchor="middle" x="1536.5895" y="-1302.3078" font-family="Fira Code" font-size="12.00" fill="#0c821d">random.js</text>
</g>
<!-- index.js&#45;&gt;random.js -->
<g id="edge30" class="edge">
<title>index.js&#45;&gt;random.js</title>
<path fill="none" stroke="#242424" d="M1214.1785,-1575.4754C1279.4419,-1561.9873 1398.1907,-1528.9004 1470.5895,-1457.4848 1495.9252,-1432.4933 1512.1594,-1396.1841 1522.1854,-1365.2331"/>
<polygon fill="#242424" stroke="#242424" points="1525.6175,-1365.9811 1525.2261,-1355.3935 1518.9295,-1363.9143 1525.6175,-1365.9811"/>
</g>
<!-- reduce.js -->
<g id="node24" class="node">
<title>reduce.js</title>
<ellipse fill="none" stroke="#242424" stroke-width="4" cx="1226.5895" cy="-961.5414" rx="51.7142" ry="51.7142"/>
<text text-anchor="middle" x="1226.5895" y="-959.1414" font-family="Fira Code" font-size="12.00" fill="#242424">reduce.js</text>
</g>
<!-- index.js&#45;&gt;reduce.js -->
<g id="edge31" class="edge">
<title>index.js&#45;&gt;reduce.js</title>
<path fill="none" stroke="#242424" d="M1164.1019,-1536.5598C1159.0842,-1456.9563 1152.4853,-1290.5983 1172.5895,-1151.9307 1179.1512,-1106.6722 1193.4879,-1057.0073 1205.7406,-1019.7535"/>
<polygon fill="#242424" stroke="#242424" points="1209.1246,-1020.6693 1208.9684,-1010.0756 1202.4842,-1018.4545 1209.1246,-1020.6693"/>
</g>
<!-- reject.js -->
<g id="node25" class="node">
<title>reject.js</title>
<ellipse fill="none" stroke="#242424" stroke-width="4" cx="679.5895" cy="-961.5414" rx="51.7142" ry="51.7142"/>
<text text-anchor="middle" x="679.5895" y="-959.1414" font-family="Fira Code" font-size="12.00" fill="#242424">reject.js</text>
</g>
<!-- index.js&#45;&gt;reject.js -->
<g id="edge32" class="edge">
<title>index.js&#45;&gt;reject.js</title>
<path fill="none" stroke="#242424" d="M1120.5111,-1581.092C990.6612,-1573.3893 632.3669,-1544.4931 561.5895,-1457.4848 518.7414,-1404.8106 540.7135,-1216.5428 561.5895,-1151.9307 574.901,-1110.7315 595.4804,-1109.544 618.5895,-1072.9307 629.8635,-1055.0686 641.2421,-1034.9761 651.0682,-1016.8239"/>
<polygon fill="#242424" stroke="#242424" points="654.411,-1017.9968 656.0563,-1007.5305 648.2432,-1014.6863 654.411,-1017.9968"/>
</g>
<!-- string.js -->
<g id="node26" class="node">
<title>string.js</title>
<ellipse fill="none" stroke="#242424" stroke-width="4" cx="136.5895" cy="-682.756" rx="51.7142" ry="51.7142"/>
<text text-anchor="middle" x="136.5895" y="-680.356" font-family="Fira Code" font-size="12.00" fill="#242424">string.js</text>
</g>
<!-- index.js&#45;&gt;string.js -->
<g id="edge33" class="edge">
<title>index.js&#45;&gt;string.js</title>
<path fill="none" stroke="#242424" d="M1120.384,-1582.6069C971.1092,-1578.7765 513.332,-1558.8281 414.5895,-1457.4848 366.7375,-1408.3724 391.9896,-1217.3958 371.5895,-1151.9307 321.6576,-991.6959 221.8873,-819.1036 169.8704,-734.9247"/>
<polygon fill="#242424" stroke="#242424" points="172.7794,-732.9745 164.5316,-726.3242 166.8321,-736.6663 172.7794,-732.9745"/>
</g>
<!-- ternary.js -->
<g id="node27" class="node">
<title>ternary.js</title>
<ellipse fill="none" stroke="#242424" stroke-width="4" cx="1301.5895" cy="-426.9638" rx="56.412" ry="56.412"/>
<text text-anchor="middle" x="1301.5895" y="-424.5638" font-family="Fira Code" font-size="12.00" fill="#242424">ternary.js</text>
</g>
<!-- index.js&#45;&gt;ternary.js -->
<g id="edge34" class="edge">
<title>index.js&#45;&gt;ternary.js</title>
<path fill="none" stroke="#242424" d="M1169.8805,-1536.2327C1175.2297,-1431.4025 1189.3293,-1185.9449 1205.5895,-1151.9307 1227.4157,-1106.2732 1267.2853,-1119.285 1287.5895,-1072.9307 1332.3752,-970.6857 1315.9877,-637.0046 1306.4738,-493.5286"/>
<polygon fill="#242424" stroke="#242424" points="1309.9371,-492.8635 1305.7736,-483.1211 1302.9529,-493.3335 1309.9371,-492.8635"/>
</g>
<!-- triplet.js -->
<g id="node28" class="node">
<title>triplet.js</title>
<ellipse fill="none" stroke="#242424" stroke-width="4" cx="1624.5895" cy="-961.5414" rx="56.412" ry="56.412"/>
<text text-anchor="middle" x="1624.5895" y="-959.1414" font-family="Fira Code" font-size="12.00" fill="#242424">triplet.js</text>
</g>
<!-- index.js&#45;&gt;triplet.js -->
<g id="edge35" class="edge">
<title>index.js&#45;&gt;triplet.js</title>
<path fill="none" stroke="#242424" d="M1214.2794,-1577.9106C1321.4034,-1564.0447 1579.5633,-1524.2541 1630.5895,-1457.4848 1680.6952,-1391.9201 1652.4108,-1146.5381 1635.0297,-1027.3436"/>
<polygon fill="#242424" stroke="#242424" points="1638.4627,-1026.6325 1633.5399,-1017.2508 1631.5378,-1027.6547 1638.4627,-1026.6325"/>
</g>
<!-- types.js -->
<g id="node29" class="node">
<title>types.js</title>
<ellipse fill="none" stroke="#242424" stroke-width="4" cx="1381.5895" cy="-682.756" rx="47.0167" ry="47.0167"/>
<text text-anchor="middle" x="1381.5895" y="-680.356" font-family="Fira Code" font-size="12.00" fill="#242424">types.js</text>
</g>
<!-- index.js&#45;&gt;types.js -->
<g id="edge36" class="edge">
<title>index.js&#45;&gt;types.js</title>
<path fill="none" stroke="#242424" d="M1213.598,-1573.4518C1268.9395,-1558.6361 1359.4028,-1525.0436 1399.5895,-1457.4848 1471.4769,-1336.6336 1413.9644,-896.5966 1390.443,-739.2096"/>
<polygon fill="#242424" stroke="#242424" points="1393.8946,-738.6253 1388.9446,-729.258 1386.9726,-739.6676 1393.8946,-738.6253"/>
</g>
<!-- which.js -->
<g id="node30" class="node">
<title>which.js</title>
<ellipse fill="none" stroke="#242424" stroke-width="4" cx="1969.5895" cy="-1304.7078" rx="47.0167" ry="47.0167"/>
<text text-anchor="middle" x="1969.5895" y="-1302.3078" font-family="Fira Code" font-size="12.00" fill="#242424">which.js</text>
</g>
<!-- index.js&#45;&gt;which.js -->
<g id="edge37" class="edge">
<title>index.js&#45;&gt;which.js</title>
<path fill="none" stroke="#242424" d="M1214.5267,-1579.0487C1349.9132,-1565.5722 1738.3697,-1522.0941 1846.5895,-1457.4848 1887.5191,-1433.0492 1920.4658,-1389.6531 1941.9211,-1355.3402"/>
<polygon fill="#242424" stroke="#242424" points="1945.169,-1356.7373 1947.3952,-1346.379 1939.1954,-1353.0882 1945.169,-1356.7373"/>
</g>
<!-- iterate.js&#45;&gt;katsu&#45;curry/katsu&#45;curry.js -->
<g id="edge38" class="edge">
<title>iterate.js&#45;&gt;katsu&#45;curry/katsu&#45;curry.js</title>
<path fill="none" stroke="#242424" d="M1535.1835,-626.5321C1527.1457,-556.9602 1508.6981,-435.7909 1470.5895,-338.5677 1458.1534,-306.8405 1441.019,-274.4693 1423.3586,-244.9815"/>
<polygon fill="#242424" stroke="#242424" points="1426.2948,-243.0733 1418.1174,-236.3368 1420.309,-246.7024 1426.2948,-243.0733"/>
</g>
<!-- map.js&#45;&gt;entrust/entrust.js -->
<g id="edge39" class="edge">
<title>map.js&#45;&gt;entrust/entrust.js</title>
<path fill="none" stroke="#242424" d="M246.8829,-391.9996C229.735,-351.2315 200.681,-282.1575 176.6968,-225.1365"/>
<polygon fill="#242424" stroke="#242424" points="179.8448,-223.5932 172.7413,-215.7324 173.3923,-226.3073 179.8448,-223.5932"/>
</g>
<!-- map.js&#45;&gt;fantasy&#45;land/index.js -->
<g id="edge40" class="edge">
<title>map.js&#45;&gt;fantasy&#45;land/index.js</title>
<path fill="none" stroke="#242424" d="M276.2453,-391.8117C284.3337,-374.7347 295.4157,-354.513 308.5895,-338.5677 344.2227,-295.4382 366.1191,-298.1944 406.5895,-259.5677 419.7276,-247.0282 433.0599,-233.1914 445.7653,-219.3649"/>
<polygon fill="#242424" stroke="#242424" points="448.6073,-221.4425 452.7542,-211.693 443.4325,-216.7285 448.6073,-221.4425"/>
</g>
<!-- map.js&#45;&gt;katsu&#45;curry/katsu&#45;curry.js -->
<g id="edge42" class="edge">
<title>map.js&#45;&gt;katsu&#45;curry/katsu&#45;curry.js</title>
<path fill="none" stroke="#242424" d="M272.5867,-390.5235C279.9298,-372.2503 291.4493,-351.3449 308.5895,-338.5677 344.599,-311.7245 932.2566,-203.5839 1205.6744,-154.3797"/>
<polygon fill="#242424" stroke="#242424" points="1206.4429,-157.7977 1215.6654,-152.5827 1205.2038,-150.9082 1206.4429,-157.7977"/>
</g>
<!-- fast.js/map.js -->
<g id="node31" class="node">
<title>fast.js/map.js</title>
<ellipse fill="none" stroke="#0c821d" stroke-width="4" cx="322.5895" cy="-129.7839" rx="74.7005" ry="74.7005"/>
<text text-anchor="middle" x="322.5895" y="-127.3839" font-family="Fira Code" font-size="12.00" fill="#0c821d">fast.js/map.js</text>
</g>
<!-- map.js&#45;&gt;fast.js/map.js -->
<g id="edge41" class="edge">
<title>map.js&#45;&gt;fast.js/map.js</title>
<path fill="none" stroke="#242424" d="M269.2535,-389.6267C278.2979,-345.5642 293.6109,-270.9621 305.5151,-212.9673"/>
<polygon fill="#242424" stroke="#242424" points="308.9627,-213.5775 307.545,-203.078 302.1057,-212.17 308.9627,-213.5775"/>
</g>
<!-- math.js&#45;&gt;katsu&#45;curry/katsu&#45;curry.js -->
<g id="edge43" class="edge">
<title>math.js&#45;&gt;katsu&#45;curry/katsu&#45;curry.js</title>
<path fill="none" stroke="#242424" d="M1834.3873,-920.7397C1862.5541,-814.35 1922.5551,-523.8941 1798.5895,-338.5677 1727.422,-232.1735 1587.5478,-179.0952 1481.5755,-153.2009"/>
<polygon fill="#242424" stroke="#242424" points="1482.2925,-149.7737 1471.7529,-150.8544 1480.666,-156.5822 1482.2925,-149.7737"/>
</g>
<!-- path.js&#45;&gt;katsu&#45;curry/katsu&#45;curry.js -->
<g id="edge44" class="edge">
<title>path.js&#45;&gt;katsu&#45;curry/katsu&#45;curry.js</title>
<path fill="none" stroke="#242424" d="M1763.5705,-1261.9243C1766.7482,-1118.4924 1775.9703,-659.9855 1765.5895,-594.3599 1746.9158,-476.3071 1756.4604,-432.5266 1682.5895,-338.5677 1628.2038,-269.3927 1544.0762,-217.3864 1473.2364,-182.5797"/>
<polygon fill="#242424" stroke="#242424" points="1474.7482,-179.4231 1464.2232,-178.2081 1471.6933,-185.7213 1474.7482,-179.4231"/>
</g>
<!-- path.js&#45;&gt;math.js -->
<g id="edge45" class="edge">
<title>path.js&#45;&gt;math.js</title>
<path fill="none" stroke="#242424" d="M1769.9467,-1262.6288C1780.9298,-1199.8117 1801.5931,-1081.6292 1813.5036,-1013.5081"/>
<polygon fill="#242424" stroke="#242424" points="1816.9915,-1013.8806 1815.2661,-1003.4272 1810.0961,-1012.6749 1816.9915,-1013.8806"/>
</g>
<!-- path.js&#45;&gt;reduce.js -->
<g id="edge46" class="edge">
<title>path.js&#45;&gt;reduce.js</title>
<path fill="none" stroke="#242424" d="M1733.7266,-1273.3138C1702.364,-1240.375 1649.7277,-1188.4133 1597.5895,-1151.9307 1494.0613,-1079.489 1359.251,-1017.3286 1283.9355,-985.1029"/>
<polygon fill="#242424" stroke="#242424" points="1285.1775,-981.8277 1274.6054,-981.1338 1282.4373,-988.2691 1285.1775,-981.8277"/>
</g>
<!-- random&#45;floor.js&#45;&gt;katsu&#45;curry/katsu&#45;curry.js -->
<g id="edge47" class="edge">
<title>random&#45;floor.js&#45;&gt;katsu&#45;curry/katsu&#45;curry.js</title>
<path fill="none" stroke="#242424" d="M912.1982,-606.1331C939.4344,-504.9188 984.0666,-339.2499 984.5895,-338.5677 1042.1218,-263.5079 1134.9454,-210.554 1211.7918,-176.7583"/>
<polygon fill="#242424" stroke="#242424" points="1213.2977,-179.9203 1221.0807,-172.7317 1210.5136,-173.4978 1213.2977,-179.9203"/>
</g>
<!-- random&#45;take.js&#45;&gt;katsu&#45;curry/katsu&#45;curry.js -->
<g id="edge48" class="edge">
<title>random&#45;take.js&#45;&gt;katsu&#45;curry/katsu&#45;curry.js</title>
<path fill="none" stroke="#242424" d="M1074.9532,-887.2966C1069.4913,-812.0839 1067.1367,-693.0772 1093.5895,-594.3599 1127.9242,-466.2292 1203.4242,-334.3842 1262.5232,-244.0365"/>
<polygon fill="#242424" stroke="#242424" points="1265.617,-245.7021 1268.1893,-235.4242 1259.7691,-241.8546 1265.617,-245.7021"/>
</g>
<!-- random&#45;take.js&#45;&gt;iterate.js -->
<g id="edge49" class="edge">
<title>random&#45;take.js&#45;&gt;iterate.js</title>
<path fill="none" stroke="#242424" d="M1119.9553,-896.8001C1132.5493,-879.578 1147.9543,-862.3871 1165.5895,-850.1521 1269.0194,-778.3943 1326.8722,-831.0569 1437.5895,-771.1521 1457.7189,-760.2609 1477.4002,-744.91 1494.076,-730.0512"/>
<polygon fill="#242424" stroke="#242424" points="1496.4789,-732.5968 1501.5171,-723.2766 1491.7663,-727.4207 1496.4789,-732.5968"/>
</g>
<!-- random&#45;take.js&#45;&gt;random&#45;floor.js -->
<g id="edge50" class="edge">
<title>random&#45;take.js&#45;&gt;random&#45;floor.js</title>
<path fill="none" stroke="#242424" d="M1040.2005,-899.6699C1011.2909,-857.4732 972.8604,-801.3797 942.3228,-756.8067"/>
<polygon fill="#242424" stroke="#242424" points="945.0607,-754.6104 936.5214,-748.339 939.286,-758.5668 945.0607,-754.6104"/>
</g>
<!-- random&#45;word.js&#45;&gt;katsu&#45;curry/katsu&#45;curry.js -->
<g id="edge51" class="edge">
<title>random&#45;word.js&#45;&gt;katsu&#45;curry/katsu&#45;curry.js</title>
<path fill="none" stroke="#242424" d="M997.2644,-1230.7204C977.2737,-1060.2576 949.0674,-632.0211 1119.5895,-338.5677 1147.4423,-290.6356 1189.7715,-247.1101 1230.1619,-212.3544"/>
<polygon fill="#242424" stroke="#242424" points="1232.5872,-214.8866 1237.9427,-205.745 1228.0553,-209.5516 1232.5872,-214.8866"/>
</g>
<!-- random&#45;word.js&#45;&gt;array.js -->
<g id="edge52" class="edge">
<title>random&#45;word.js&#45;&gt;array.js</title>
<path fill="none" stroke="#242424" d="M969.4902,-1240.4202C948.3014,-1209.6606 919.3827,-1174.6702 885.5895,-1151.9307 782.918,-1082.8429 713.5334,-1152.3047 618.5895,-1072.9307 601.0283,-1058.2493 588.4197,-1036.6893 579.6687,-1016.4391"/>
<polygon fill="#242424" stroke="#242424" points="582.8152,-1014.8859 575.797,-1006.949 576.3339,-1017.5302 582.8152,-1014.8859"/>
</g>
<!-- random&#45;word.js&#45;&gt;random&#45;take.js -->
<g id="edge53" class="edge">
<title>random&#45;word.js&#45;&gt;random&#45;take.js</title>
<path fill="none" stroke="#242424" d="M1023.5869,-1231.5109C1035.5593,-1176.7309 1051.9481,-1101.7431 1064.4153,-1044.6986"/>
<polygon fill="#242424" stroke="#242424" points="1067.9008,-1045.1425 1066.6167,-1034.6258 1061.0622,-1043.6479 1067.9008,-1045.1425"/>
</g>
<!-- reduce.js&#45;&gt;delegate&#45;fast.js -->
<g id="edge55" class="edge">
<title>reduce.js&#45;&gt;delegate&#45;fast.js</title>
<path fill="none" stroke="#242424" d="M1204.7017,-914.7378C1194.2738,-894.2105 1180.9479,-870.2637 1166.5895,-850.1521 1138.8118,-811.2441 1122.8753,-808.938 1093.5895,-771.1521 1036.3161,-697.255 1042.0599,-663.9192 979.5895,-594.3599 941.2286,-551.6459 891.3577,-510.971 850.1788,-480.4133"/>
<polygon fill="#242424" stroke="#242424" points="852.1928,-477.5499 842.0649,-474.4391 848.0423,-483.1867 852.1928,-477.5499"/>
</g>
<!-- fast.js/reduce.js -->
<g id="node32" class="node">
<title>fast.js/reduce.js</title>
<ellipse fill="none" stroke="#0c821d" stroke-width="4" cx="1190.5895" cy="-682.756" rx="88.2923" ry="88.2923"/>
<text text-anchor="middle" x="1190.5895" y="-680.356" font-family="Fira Code" font-size="12.00" fill="#0c821d">fast.js/reduce.js</text>
</g>
<!-- reduce.js&#45;&gt;fast.js/reduce.js -->
<g id="edge54" class="edge">
<title>reduce.js&#45;&gt;fast.js/reduce.js</title>
<path fill="none" stroke="#242424" d="M1219.9446,-910.083C1215.2703,-873.8846 1208.8692,-824.314 1203.2371,-780.6992"/>
<polygon fill="#242424" stroke="#242424" points="1206.6881,-780.094 1201.9362,-770.6246 1199.7457,-780.9905 1206.6881,-780.094"/>
</g>
<!-- reject.js&#45;&gt;katsu&#45;curry/katsu&#45;curry.js -->
<g id="edge56" class="edge">
<title>reject.js&#45;&gt;katsu&#45;curry/katsu&#45;curry.js</title>
<path fill="none" stroke="#242424" d="M702.093,-914.6433C719.7191,-876.6055 743.9583,-821.2681 760.5895,-771.1521 786.0591,-694.4028 760.7831,-662.9658 803.5895,-594.3599 832.6585,-547.7712 870.1492,-562.3349 898.5895,-515.3599 940.2135,-446.6096 887.6787,-402.3399 936.5895,-338.5677 1003.806,-250.9279 1118.1132,-196.8911 1208.5061,-165.8126"/>
<polygon fill="#242424" stroke="#242424" points="1209.6581,-169.1178 1218.0099,-162.5989 1207.4157,-162.4867 1209.6581,-169.1178"/>
</g>
<!-- reject.js&#45;&gt;filter.js -->
<g id="edge57" class="edge">
<title>reject.js&#45;&gt;filter.js</title>
<path fill="none" stroke="#242424" d="M662.5824,-912.6617C645.9419,-864.8355 620.5872,-791.9642 602.8975,-741.1226"/>
<polygon fill="#242424" stroke="#242424" points="606.169,-739.8741 599.5771,-731.5796 599.5577,-742.1744 606.169,-739.8741"/>
</g>
<!-- string.js&#45;&gt;entrust/entrust.js -->
<g id="edge58" class="edge">
<title>string.js&#45;&gt;entrust/entrust.js</title>
<path fill="none" stroke="#242424" d="M136.5895,-630.7337C136.5895,-540.0171 136.5895,-351.3047 136.5895,-233.1563"/>
<polygon fill="#242424" stroke="#242424" points="140.0896,-233.0097 136.5895,-223.0097 133.0896,-233.0098 140.0896,-233.0097"/>
</g>
<!-- ternary.js&#45;&gt;katsu&#45;curry/katsu&#45;curry.js -->
<g id="edge59" class="edge">
<title>ternary.js&#45;&gt;katsu&#45;curry/katsu&#45;curry.js</title>
<path fill="none" stroke="#242424" d="M1309.4894,-371.0665C1313.6054,-341.9428 1318.8394,-304.9091 1323.9637,-268.6507"/>
<polygon fill="#242424" stroke="#242424" points="1327.4712,-268.8432 1325.4051,-258.4518 1320.5401,-267.8636 1327.4712,-268.8432"/>
</g>
<!-- triplet.js&#45;&gt;katsu&#45;curry/katsu&#45;curry.js -->
<g id="edge60" class="edge">
<title>triplet.js&#45;&gt;katsu&#45;curry/katsu&#45;curry.js</title>
<path fill="none" stroke="#242424" d="M1627.0445,-905.1727C1628.991,-832.4961 1628.327,-702.5863 1605.5895,-594.3599 1580.5913,-475.3724 1568.5407,-444.3448 1508.5895,-338.5677 1488.324,-302.8114 1462.2179,-266.6935 1436.7778,-234.7832"/>
<polygon fill="#242424" stroke="#242424" points="1439.3228,-232.3629 1430.3283,-226.7638 1433.868,-236.7499 1439.3228,-232.3629"/>
</g>
<!-- types.js&#45;&gt;katsu&#45;curry/katsu&#45;curry.js -->
<g id="edge61" class="edge">
<title>types.js&#45;&gt;katsu&#45;curry/katsu&#45;curry.js</title>
<path fill="none" stroke="#242424" d="M1380.5234,-635.6536C1378.7971,-569.3044 1374.7292,-444.5708 1366.5895,-338.5677 1364.8628,-316.0803 1362.628,-292.2723 1360.2313,-269.0945"/>
<polygon fill="#242424" stroke="#242424" points="1363.6813,-268.4331 1359.1578,-258.8525 1356.7194,-269.1629 1363.6813,-268.4331"/>
</g>
<!-- which.js&#45;&gt;katsu&#45;curry/katsu&#45;curry.js -->
<g id="edge64" class="edge">
<title>which.js&#45;&gt;katsu&#45;curry/katsu&#45;curry.js</title>
<path fill="none" stroke="#242424" d="M1955.7437,-1259.4606C1942.1553,-1213.0955 1922.0006,-1138.6867 1911.5895,-1072.9307 1885.9666,-911.097 1945.0721,-468.7595 1845.5895,-338.5677 1758.6489,-224.7893 1598.464,-172.5416 1482.3733,-148.8545"/>
<polygon fill="#242424" stroke="#242424" points="1482.8291,-145.3765 1472.3379,-146.8553 1481.4614,-152.2416 1482.8291,-145.3765"/>
</g>
<!-- which.js&#45;&gt;flip.js -->
<g id="edge65" class="edge">
<title>which.js&#45;&gt;flip.js</title>
<path fill="none" stroke="#242424" d="M2009.4022,-1279.6915C2059.2973,-1248.6334 2147.7282,-1194.5525 2225.5895,-1151.9307 2294.4573,-1114.232 2329.0337,-1129.3896 2383.5895,-1072.9307 2399.9209,-1056.0297 2411.6557,-1032.9657 2419.7193,-1012.2079"/>
<polygon fill="#242424" stroke="#242424" points="2423.1035,-1013.1462 2423.2778,-1002.5528 2416.5355,-1010.7254 2423.1035,-1013.1462"/>
</g>
<!-- which.js&#45;&gt;triplet.js -->
<g id="edge66" class="edge">
<title>which.js&#45;&gt;triplet.js</title>
<path fill="none" stroke="#242424" d="M1936.196,-1271.4917C1874.6032,-1210.2262 1742.9489,-1079.2717 1672.0844,-1008.7838"/>
<polygon fill="#242424" stroke="#242424" points="1674.1448,-1005.8966 1664.5866,-1001.3258 1669.2082,-1010.8595 1674.1448,-1005.8966"/>
</g>
<!-- fast.js/array/every.js -->
<g id="node33" class="node">
<title>fast.js/array/every.js</title>
<ellipse fill="none" stroke="#0c821d" stroke-width="4" cx="2031.5895" cy="-961.5414" rx="111.2787" ry="111.2787"/>
<text text-anchor="middle" x="2031.5895" y="-959.1414" font-family="Fira Code" font-size="12.00" fill="#0c821d">fast.js/array/every.js</text>
</g>
<!-- which.js&#45;&gt;fast.js/array/every.js -->
<g id="edge62" class="edge">
<title>which.js&#45;&gt;fast.js/array/every.js</title>
<path fill="none" stroke="#242424" d="M1977.9511,-1258.4268C1986.1231,-1213.1953 1998.9101,-1142.4202 2009.9495,-1081.3176"/>
<polygon fill="#242424" stroke="#242424" points="2013.4421,-1081.6718 2011.7759,-1071.2088 2006.5537,-1080.4272 2013.4421,-1081.6718"/>
</g>
<!-- fast.js/array/some.js -->
<g id="node34" class="node">
<title>fast.js/array/some.js</title>
<ellipse fill="none" stroke="#0c821d" stroke-width="4" cx="2267.5895" cy="-961.5414" rx="106.5817" ry="106.5817"/>
<text text-anchor="middle" x="2267.5895" y="-959.1414" font-family="Fira Code" font-size="12.00" fill="#0c821d">fast.js/array/some.js</text>
</g>
<!-- which.js&#45;&gt;fast.js/array/some.js -->
<g id="edge63" class="edge">
<title>which.js&#45;&gt;fast.js/array/some.js</title>
<path fill="none" stroke="#242424" d="M2000.6374,-1268.9541C2045.2253,-1217.6083 2128.8209,-1121.3426 2190.6324,-1050.1626"/>
<polygon fill="#242424" stroke="#242424" points="2193.3853,-1052.3304 2197.2994,-1042.4851 2188.1,-1047.7407 2193.3853,-1052.3304"/>
</g>
</g>
</svg>
