<?xml version="1.0" encoding="UTF-8" standalone="no"?>
<!DOCTYPE svg PUBLIC "-//W3C//DTD SVG 1.1//EN"
 "http://www.w3.org/Graphics/SVG/1.1/DTD/svg11.dtd">
<!-- Generated by graphviz version 2.40.1 (20161225.0304)
 -->
<!-- Title: G Pages: 1 -->
<svg width="4297pt" height="1771pt"
 viewBox="0.00 0.00 4296.66 1770.89" xmlns="http://www.w3.org/2000/svg" xmlns:xlink="http://www.w3.org/1999/xlink">
<g id="graph0" class="graph" transform="scale(1 1) rotate(0) translate(7.992 1762.8977)">
<title>G</title>
<polygon fill="#eeeeff" stroke="transparent" points="-7.992,7.992 -7.992,-1762.8977 4288.6701,-1762.8977 4288.6701,7.992 -7.992,7.992"/>
<!-- ../package.json -->
<g id="node1" class="node">
<title>../package.json</title>
<ellipse fill="none" stroke="#0c821d" stroke-width="4" cx="2827.8201" cy="-1458.28" rx="79.3981" ry="79.3981"/>
<text text-anchor="middle" x="2827.8201" y="-1455.88" font-family="Fira Code" font-size="12.00" fill="#0c821d">../package.json</text>
</g>
<!-- ap.js -->
<g id="node2" class="node">
<title>ap.js</title>
<ellipse fill="none" stroke="#242424" stroke-width="4" cx="2431.8201" cy="-1458.28" rx="33.4262" ry="33.4262"/>
<text text-anchor="middle" x="2431.8201" y="-1455.88" font-family="Fira Code" font-size="12.00" fill="#242424">ap.js</text>
</g>
<!-- Ⓜ katsu&#45;curry/katsu&#45;curry.js -->
<g id="node3" class="node">
<title>Ⓜ katsu&#45;curry/katsu&#45;curry.js</title>
<ellipse fill="none" stroke="#0c821d" stroke-width="4" cx="1950.8201" cy="-153.4077" rx="153.3154" ry="153.3154"/>
<text text-anchor="middle" x="1950.8201" y="-152.2077" font-family="Fira Code" font-size="12.00" fill="#0c821d">Ⓜ katsu&#45;curry/katsu&#45;curry.js</text>
</g>
<!-- ap.js&#45;&gt;Ⓜ katsu&#45;curry/katsu&#45;curry.js -->
<g id="edge1" class="edge">
<title>ap.js&#45;&gt;Ⓜ katsu&#45;curry/katsu&#45;curry.js</title>
<path fill="none" stroke="#242424" d="M2438.1219,-1425.505C2451.795,-1348.1413 2480.0095,-1148.6464 2441.8201,-988.5871 2375.428,-710.3249 2180.5262,-433.1564 2057.1795,-278.4542"/>
<polygon fill="#242424" stroke="#242424" points="2059.6095,-275.8891 2050.6284,-270.2685 2054.1442,-280.263 2059.6095,-275.8891"/>
</g>
<!-- map.js -->
<g id="node4" class="node">
<title>map.js</title>
<ellipse fill="none" stroke="#242424" stroke-width="4" cx="2803.8201" cy="-795.911" rx="37.623" ry="37.623"/>
<text text-anchor="middle" x="2803.8201" y="-793.511" font-family="Fira Code" font-size="12.00" fill="#242424">map.js</text>
</g>
<!-- ap.js&#45;&gt;map.js -->
<g id="edge2" class="edge">
<title>ap.js&#45;&gt;map.js</title>
<path fill="none" stroke="#242424" d="M2460.4104,-1440.935C2532.3595,-1397.0338 2716.4398,-1283.0581 2733.8201,-1255.671 2739.345,-1246.965 2780.6461,-959.2508 2797.0922,-843.47"/>
<polygon fill="#242424" stroke="#242424" points="2800.5716,-843.8617 2798.5117,-833.4691 2793.6411,-842.878 2800.5716,-843.8617"/>
</g>
<!-- reduce.js -->
<g id="node5" class="node">
<title>reduce.js</title>
<ellipse fill="none" stroke="#242424" stroke-width="4" cx="2498.8201" cy="-795.911" rx="51.7142" ry="51.7142"/>
<text text-anchor="middle" x="2498.8201" y="-793.511" font-family="Fira Code" font-size="12.00" fill="#242424">reduce.js</text>
</g>
<!-- ap.js&#45;&gt;reduce.js -->
<g id="edge3" class="edge">
<title>ap.js&#45;&gt;reduce.js</title>
<path fill="none" stroke="#242424" d="M2440.3329,-1425.9173C2450.4114,-1386.1475 2466.8333,-1316.458 2474.8201,-1255.671 2493.4242,-1114.0759 2497.75,-946.1681 2498.6659,-857.6536"/>
<polygon fill="#242424" stroke="#242424" points="2502.1669,-857.5516 2498.7594,-847.5197 2495.1672,-857.487 2502.1669,-857.5516"/>
</g>
<!-- types.js -->
<g id="node6" class="node">
<title>types.js</title>
<ellipse fill="none" stroke="#242424" stroke-width="4" cx="2385.8201" cy="-1122.129" rx="47.0167" ry="47.0167"/>
<text text-anchor="middle" x="2385.8201" y="-1119.7291" font-family="Fira Code" font-size="12.00" fill="#242424">types.js</text>
</g>
<!-- ap.js&#45;&gt;types.js -->
<g id="edge4" class="edge">
<title>ap.js&#45;&gt;types.js</title>
<path fill="none" stroke="#242424" d="M2427.2835,-1425.1286C2419.4414,-1367.821 2403.2641,-1249.6033 2393.5976,-1178.9644"/>
<polygon fill="#242424" stroke="#242424" points="2397.044,-1178.3336 2392.2204,-1168.9005 2390.1086,-1179.2827 2397.044,-1178.3336"/>
</g>
<!-- map.js&#45;&gt;Ⓜ katsu&#45;curry/katsu&#45;curry.js -->
<g id="edge86" class="edge">
<title>map.js&#45;&gt;Ⓜ katsu&#45;curry/katsu&#45;curry.js</title>
<path fill="none" stroke="#242424" d="M2785.3351,-762.8117C2765.0592,-725.2069 2732.8732,-661.4852 2713.8201,-603.2348 2683.1974,-509.6131 2736.2814,-459.4195 2670.8201,-385.8153 2596.1583,-301.8661 2299.7849,-226.3358 2111.3418,-185.4579"/>
<polygon fill="#242424" stroke="#242424" points="2111.8455,-181.9861 2101.3321,-183.2971 2110.3684,-188.8285 2111.8455,-181.9861"/>
</g>
<!-- Ⓜ fast.js/map.js -->
<g id="node46" class="node">
<title>Ⓜ fast.js/map.js</title>
<ellipse fill="none" stroke="#0c821d" stroke-width="4" cx="2816.8201" cy="-494.525" rx="93.6213" ry="93.6213"/>
<text text-anchor="middle" x="2816.8201" y="-493.3251" font-family="Fira Code" font-size="12.00" fill="#0c821d">Ⓜ fast.js/map.js</text>
</g>
<!-- map.js&#45;&gt;Ⓜ fast.js/map.js -->
<g id="edge85" class="edge">
<title>map.js&#45;&gt;Ⓜ fast.js/map.js</title>
<path fill="none" stroke="#242424" d="M2805.4534,-758.0454C2807.1707,-718.2323 2809.9484,-653.8338 2812.3281,-598.6658"/>
<polygon fill="#242424" stroke="#242424" points="2815.8331,-598.6217 2812.7674,-588.4802 2808.8396,-598.32 2815.8331,-598.6217"/>
</g>
<!-- delegate&#45;fast.js -->
<g id="node12" class="node">
<title>delegate&#45;fast.js</title>
<ellipse fill="none" stroke="#242424" stroke-width="4" cx="1371.8201" cy="-494.525" rx="83.5954" ry="83.5954"/>
<text text-anchor="middle" x="1371.8201" y="-492.1251" font-family="Fira Code" font-size="12.00" fill="#242424">delegate&#45;fast.js</text>
</g>
<!-- reduce.js&#45;&gt;delegate&#45;fast.js -->
<g id="edge103" class="edge">
<title>reduce.js&#45;&gt;delegate&#45;fast.js</title>
<path fill="none" stroke="#242424" d="M2448.9401,-782.5719C2274.4279,-735.9033 1689.6175,-579.5115 1462.8026,-518.8559"/>
<polygon fill="#242424" stroke="#242424" points="1463.4916,-515.4172 1452.9269,-516.2149 1461.6832,-522.1796 1463.4916,-515.4172"/>
</g>
<!-- Ⓜ fast.js/reduce.js -->
<g id="node18" class="node">
<title>Ⓜ fast.js/reduce.js</title>
<ellipse fill="none" stroke="#0c821d" stroke-width="4" cx="2481.8201" cy="-494.525" rx="108.9199" ry="108.9199"/>
<text text-anchor="middle" x="2481.8201" y="-493.3251" font-family="Fira Code" font-size="12.00" fill="#0c821d">Ⓜ fast.js/reduce.js</text>
</g>
<!-- reduce.js&#45;&gt;Ⓜ fast.js/reduce.js -->
<g id="edge102" class="edge">
<title>reduce.js&#45;&gt;Ⓜ fast.js/reduce.js</title>
<path fill="none" stroke="#242424" d="M2495.8977,-744.1009C2493.8722,-708.1914 2491.0901,-658.8694 2488.5338,-613.5495"/>
<polygon fill="#242424" stroke="#242424" points="2492.0158,-613.1301 2487.9581,-603.3431 2485.0269,-613.5244 2492.0158,-613.1301"/>
</g>
<!-- types.js&#45;&gt;Ⓜ katsu&#45;curry/katsu&#45;curry.js -->
<g id="edge110" class="edge">
<title>types.js&#45;&gt;Ⓜ katsu&#45;curry/katsu&#45;curry.js</title>
<path fill="none" stroke="#242424" d="M2366.4259,-1078.9393C2306.0131,-944.4032 2119.207,-528.3963 2017.8605,-302.7031"/>
<polygon fill="#242424" stroke="#242424" points="2020.9853,-301.1175 2013.6959,-293.4288 2014.5995,-303.985 2020.9853,-301.1175"/>
</g>
<!-- array.js -->
<g id="node7" class="node">
<title>array.js</title>
<ellipse fill="none" stroke="#242424" stroke-width="4" cx="1039.8201" cy="-1122.129" rx="47.0167" ry="47.0167"/>
<text text-anchor="middle" x="1039.8201" y="-1119.7291" font-family="Fira Code" font-size="12.00" fill="#242424">array.js</text>
</g>
<!-- array.js&#45;&gt;Ⓜ katsu&#45;curry/katsu&#45;curry.js -->
<g id="edge6" class="edge">
<title>array.js&#45;&gt;Ⓜ katsu&#45;curry/katsu&#45;curry.js</title>
<path fill="none" stroke="#242424" d="M1023.3219,-1077.6468C980.2627,-953.0982 878.7563,-596.2745 1042.8201,-385.8153 1133.6176,-269.3412 1552.158,-201.1953 1788.0176,-171.4012"/>
<polygon fill="#242424" stroke="#242424" points="1788.5796,-174.8582 1798.0663,-170.141 1787.7085,-167.9126 1788.5796,-174.8582"/>
</g>
<!-- Ⓜ entrust/entrust.js -->
<g id="node8" class="node">
<title>Ⓜ entrust/entrust.js</title>
<ellipse fill="none" stroke="#0c821d" stroke-width="4" cx="3165.8201" cy="-795.911" rx="113.8526" ry="113.8526"/>
<text text-anchor="middle" x="3165.8201" y="-794.711" font-family="Fira Code" font-size="12.00" fill="#0c821d">Ⓜ entrust/entrust.js</text>
</g>
<!-- array.js&#45;&gt;Ⓜ entrust/entrust.js -->
<g id="edge5" class="edge">
<title>array.js&#45;&gt;Ⓜ entrust/entrust.js</title>
<path fill="none" stroke="#242424" d="M1046.4875,-1075.4955C1053.4223,-1045.4284 1067.4738,-1008.3717 1095.8201,-988.5871 1255.8854,-876.8681 2659.347,-947.5358 2850.8201,-909.5871 2919.7059,-895.9344 2993.713,-869.8584 3052.6733,-846.1217"/>
<polygon fill="#242424" stroke="#242424" points="3054.0543,-849.3386 3062.0038,-842.3345 3051.4216,-842.8525 3054.0543,-849.3386"/>
</g>
<!-- filter.js -->
<g id="node9" class="node">
<title>filter.js</title>
<ellipse fill="none" stroke="#242424" stroke-width="4" cx="1348.8201" cy="-795.911" rx="51.7142" ry="51.7142"/>
<text text-anchor="middle" x="1348.8201" y="-793.511" font-family="Fira Code" font-size="12.00" fill="#242424">filter.js</text>
</g>
<!-- array.js&#45;&gt;filter.js -->
<g id="edge7" class="edge">
<title>array.js&#45;&gt;filter.js</title>
<path fill="none" stroke="#242424" d="M1052.3177,-1076.6486C1061.3669,-1049.2555 1075.5899,-1014.7342 1095.8201,-988.5871 1150.8195,-917.5016 1238.1765,-858.9101 1294.4983,-825.6677"/>
<polygon fill="#242424" stroke="#242424" points="1296.3898,-828.6164 1303.2614,-820.5522 1292.8607,-822.571 1296.3898,-828.6164"/>
</g>
<!-- filter.js&#45;&gt;delegate&#45;fast.js -->
<g id="edge42" class="edge">
<title>filter.js&#45;&gt;delegate&#45;fast.js</title>
<path fill="none" stroke="#242424" d="M1352.7478,-744.4433C1356.0075,-701.7294 1360.7283,-639.8687 1364.6576,-588.3805"/>
<polygon fill="#242424" stroke="#242424" points="1368.161,-588.4673 1365.4322,-578.23 1361.1813,-587.9346 1368.161,-588.4673"/>
</g>
<!-- Ⓜ fast.js/filter.js -->
<g id="node17" class="node">
<title>Ⓜ fast.js/filter.js</title>
<ellipse fill="none" stroke="#0c821d" stroke-width="4" cx="1160.8201" cy="-494.525" rx="108.9199" ry="108.9199"/>
<text text-anchor="middle" x="1160.8201" y="-493.3251" font-family="Fira Code" font-size="12.00" fill="#0c821d">Ⓜ fast.js/filter.js</text>
</g>
<!-- filter.js&#45;&gt;Ⓜ fast.js/filter.js -->
<g id="edge41" class="edge">
<title>filter.js&#45;&gt;Ⓜ fast.js/filter.js</title>
<path fill="none" stroke="#242424" d="M1321.4833,-752.0869C1296.0157,-711.2593 1257.0975,-648.869 1223.9439,-595.72"/>
<polygon fill="#242424" stroke="#242424" points="1226.7261,-593.567 1218.4639,-586.9348 1220.7869,-597.2718 1226.7261,-593.567"/>
</g>
<!-- chain.js -->
<g id="node10" class="node">
<title>chain.js</title>
<ellipse fill="none" stroke="#242424" stroke-width="4" cx="1349.8201" cy="-1458.28" rx="47.0167" ry="47.0167"/>
<text text-anchor="middle" x="1349.8201" y="-1455.88" font-family="Fira Code" font-size="12.00" fill="#242424">chain.js</text>
</g>
<!-- Ⓜ flatmap&#45;fast/index.js -->
<g id="node11" class="node">
<title>Ⓜ flatmap&#45;fast/index.js</title>
<ellipse fill="none" stroke="#0c821d" stroke-width="4" cx="1233.8201" cy="-1122.129" rx="128.651" ry="128.651"/>
<text text-anchor="middle" x="1233.8201" y="-1120.9291" font-family="Fira Code" font-size="12.00" fill="#0c821d">Ⓜ flatmap&#45;fast/index.js</text>
</g>
<!-- chain.js&#45;&gt;Ⓜ flatmap&#45;fast/index.js -->
<g id="edge8" class="edge">
<title>chain.js&#45;&gt;Ⓜ flatmap&#45;fast/index.js</title>
<path fill="none" stroke="#242424" d="M1334.4162,-1413.6418C1320.3175,-1372.7858 1298.7349,-1310.2426 1279.1707,-1253.5485"/>
<polygon fill="#242424" stroke="#242424" points="1282.3681,-1252.0844 1275.7974,-1243.7731 1275.751,-1254.3679 1282.3681,-1252.0844"/>
</g>
<!-- chain.js&#45;&gt;delegate&#45;fast.js -->
<g id="edge9" class="edge">
<title>chain.js&#45;&gt;delegate&#45;fast.js</title>
<path fill="none" stroke="#242424" d="M1359.1357,-1411.855C1382.0807,-1291.3188 1437.5077,-958.5476 1409.8201,-682.2348 1406.6629,-650.7276 1400.5959,-616.685 1394.2209,-586.3537"/>
<polygon fill="#242424" stroke="#242424" points="1397.5671,-585.2643 1392.0509,-576.2187 1390.7222,-586.7299 1397.5671,-585.2643"/>
</g>
<!-- delegate&#45;fast.js&#45;&gt;Ⓜ katsu&#45;curry/katsu&#45;curry.js -->
<g id="edge39" class="edge">
<title>delegate&#45;fast.js&#45;&gt;Ⓜ katsu&#45;curry/katsu&#45;curry.js</title>
<path fill="none" stroke="#242424" d="M1423.7736,-428.61C1437.6953,-413.395 1453.4576,-398.0905 1469.8201,-385.8153 1569.8983,-310.7364 1698.0655,-250.2493 1796.9298,-209.8233"/>
<polygon fill="#242424" stroke="#242424" points="1798.4569,-212.9807 1806.4039,-205.9739 1795.8219,-206.4956 1798.4569,-212.9807"/>
</g>
<!-- choice.js -->
<g id="node13" class="node">
<title>choice.js</title>
<ellipse fill="none" stroke="#242424" stroke-width="4" cx="922.8201" cy="-1458.28" rx="51.7142" ry="51.7142"/>
<text text-anchor="middle" x="922.8201" y="-1455.88" font-family="Fira Code" font-size="12.00" fill="#242424">choice.js</text>
</g>
<!-- choice.js&#45;&gt;Ⓜ katsu&#45;curry/katsu&#45;curry.js -->
<g id="edge10" class="edge">
<title>choice.js&#45;&gt;Ⓜ katsu&#45;curry/katsu&#45;curry.js</title>
<path fill="none" stroke="#242424" d="M901.9746,-1410.8691C833.5863,-1247.2659 634.4594,-699.2487 886.8201,-385.8153 998.0387,-247.6811 1517.5724,-187.1967 1787.3047,-164.7344"/>
<polygon fill="#242424" stroke="#242424" points="1787.906,-168.1968 1797.5845,-163.8867 1787.3306,-161.2205 1787.906,-168.1968"/>
</g>
<!-- debug.js -->
<g id="node14" class="node">
<title>debug.js</title>
<ellipse fill="none" stroke="#242424" stroke-width="4" cx="1565.8201" cy="-1707.8974" rx="47.0167" ry="47.0167"/>
<text text-anchor="middle" x="1565.8201" y="-1705.4974" font-family="Fira Code" font-size="12.00" fill="#242424">debug.js</text>
</g>
<!-- debug.js&#45;&gt;ap.js -->
<g id="edge18" class="edge">
<title>debug.js&#45;&gt;ap.js</title>
<path fill="none" stroke="#242424" d="M1612.8695,-1705.3245C1763.0103,-1696.3601 2228.0851,-1662.5461 2351.8201,-1581.889 2382.026,-1562.1992 2403.233,-1526.6802 2416.1873,-1498.7534"/>
<polygon fill="#242424" stroke="#242424" points="2419.3895,-1500.1661 2420.2652,-1489.6075 2412.9962,-1497.3154 2419.3895,-1500.1661"/>
</g>
<!-- debug.js&#45;&gt;map.js -->
<g id="edge24" class="edge">
<title>debug.js&#45;&gt;map.js</title>
<path fill="none" stroke="#242424" d="M1612.9464,-1705.0051C1802.7134,-1692.9642 2504.347,-1644.5059 2579.8201,-1581.889 2668.5934,-1508.2375 2590.9904,-1427.9682 2658.8201,-1334.671 2694.2147,-1285.9869 2739.3326,-1308.1439 2768.8201,-1255.671 2807.8248,-1186.2622 2807.3461,-947.1297 2805.1934,-843.9395"/>
<polygon fill="#242424" stroke="#242424" points="2808.6895,-843.7206 2804.9672,-833.8012 2801.6912,-843.8768 2808.6895,-843.7206"/>
</g>
<!-- debug.js&#45;&gt;types.js -->
<g id="edge38" class="edge">
<title>debug.js&#45;&gt;types.js</title>
<path fill="none" stroke="#242424" d="M1593.7115,-1669.8174C1609.967,-1645.7624 1629.4454,-1613.375 1640.8201,-1581.889 1678.614,-1477.273 1600.0692,-1412.2125 1679.8201,-1334.671 1876.4535,-1143.485 2056.9999,-1397.3618 2291.8201,-1255.671 2323.0341,-1236.8364 2346.6066,-1203.2315 2362.3391,-1174.4457"/>
<polygon fill="#242424" stroke="#242424" points="2365.5972,-1175.7711 2367.1713,-1165.2939 2359.407,-1172.5027 2365.5972,-1175.7711"/>
</g>
<!-- debug.js&#45;&gt;array.js -->
<g id="edge19" class="edge">
<title>debug.js&#45;&gt;array.js</title>
<path fill="none" stroke="#242424" d="M1518.5908,-1705.783C1324.279,-1696.6096 593.6231,-1657.2833 526.8201,-1581.889 490.387,-1540.7704 496.3004,-1380.351 526.8201,-1334.671 630.8188,-1179.0117 872.2179,-1137.2069 982.7284,-1126.094"/>
<polygon fill="#242424" stroke="#242424" points="983.0667,-1129.5777 992.6875,-1125.1404 982.3994,-1122.6096 983.0667,-1129.5777"/>
</g>
<!-- debug.js&#45;&gt;Ⓜ entrust/entrust.js -->
<g id="edge11" class="edge">
<title>debug.js&#45;&gt;Ⓜ entrust/entrust.js</title>
<path fill="none" stroke="#242424" d="M1612.7844,-1704.4141C1868.3503,-1685.4126 3080.6685,-1594.658 3094.8201,-1581.889 3189.6175,-1496.3535 3184.0132,-1118.7398 3173.955,-919.6914"/>
<polygon fill="#242424" stroke="#242424" points="3177.4385,-919.2792 3173.4269,-909.4733 3170.4478,-919.6407 3177.4385,-919.2792"/>
</g>
<!-- debug.js&#45;&gt;Ⓜ flatmap&#45;fast/index.js -->
<g id="edge16" class="edge">
<title>debug.js&#45;&gt;Ⓜ flatmap&#45;fast/index.js</title>
<path fill="none" stroke="#242424" d="M1518.7111,-1705.6048C1328.2639,-1695.864 622.3788,-1655.0206 557.8201,-1581.889 521.4626,-1540.7036 521.906,-1376.2437 557.8201,-1334.671 715.8097,-1151.7879 878.9871,-1362.3967 1095.8201,-1255.671 1111.8466,-1247.7827 1127.2094,-1237.3469 1141.4844,-1225.7753"/>
<polygon fill="#242424" stroke="#242424" points="1143.8746,-1228.339 1149.3003,-1219.2389 1139.3839,-1222.9693 1143.8746,-1228.339"/>
</g>
<!-- debug.js&#45;&gt;delegate&#45;fast.js -->
<g id="edge21" class="edge">
<title>debug.js&#45;&gt;delegate&#45;fast.js</title>
<path fill="none" stroke="#242424" d="M1518.8524,-1703.8318C1399.3148,-1692.4711 1088.2965,-1656.2354 1021.8201,-1581.889 973.1732,-1527.483 988.0494,-1328.5314 983.8201,-1255.671 976.9412,-1137.1665 945.0334,-1100.7754 983.8201,-988.5871 1000.7494,-939.6201 1206.3216,-691.1349 1311.1607,-566.304"/>
<polygon fill="#242424" stroke="#242424" points="1313.8566,-568.5362 1317.6107,-558.6287 1308.4976,-564.0327 1313.8566,-568.5362"/>
</g>
<!-- debug.js&#45;&gt;choice.js -->
<g id="edge20" class="edge">
<title>debug.js&#45;&gt;choice.js</title>
<path fill="none" stroke="#242424" d="M1518.9139,-1702.7501C1396.9056,-1688.5801 1073.2469,-1645.7632 988.8201,-1581.889 967.5059,-1565.7636 952.3305,-1540.7133 941.9503,-1517.3683"/>
<polygon fill="#242424" stroke="#242424" points="945.0432,-1515.6953 937.9294,-1507.844 938.5943,-1518.4179 945.0432,-1515.6953"/>
</g>
<!-- Ⓜ fast.js/array/every.js -->
<g id="node15" class="node">
<title>Ⓜ fast.js/array/every.js</title>
<ellipse fill="none" stroke="#0c821d" stroke-width="4" cx="1666.8201" cy="-1122.129" rx="133.5838" ry="133.5838"/>
<text text-anchor="middle" x="1666.8201" y="-1120.9291" font-family="Fira Code" font-size="12.00" fill="#0c821d">Ⓜ fast.js/array/every.js</text>
</g>
<!-- debug.js&#45;&gt;Ⓜ fast.js/array/every.js -->
<g id="edge12" class="edge">
<title>debug.js&#45;&gt;Ⓜ fast.js/array/every.js</title>
<path fill="none" stroke="#242424" d="M1560.3856,-1660.9341C1553.4689,-1589.4848 1545.253,-1449.6402 1570.8201,-1334.671 1577.1966,-1305.9971 1587.669,-1276.5056 1599.4036,-1248.9626"/>
<polygon fill="#242424" stroke="#242424" points="1602.6528,-1250.2672 1603.4274,-1239.7007 1596.2325,-1247.4778 1602.6528,-1250.2672"/>
</g>
<!-- Ⓜ fast.js/array/some.js -->
<g id="node16" class="node">
<title>Ⓜ fast.js/array/some.js</title>
<ellipse fill="none" stroke="#0c821d" stroke-width="4" cx="2153.8201" cy="-1122.129" rx="128.651" ry="128.651"/>
<text text-anchor="middle" x="2153.8201" y="-1120.9291" font-family="Fira Code" font-size="12.00" fill="#0c821d">Ⓜ fast.js/array/some.js</text>
</g>
<!-- debug.js&#45;&gt;Ⓜ fast.js/array/some.js -->
<g id="edge13" class="edge">
<title>debug.js&#45;&gt;Ⓜ fast.js/array/some.js</title>
<path fill="none" stroke="#242424" d="M1581.6494,-1663.4304C1589.7312,-1639.4999 1599.2229,-1609.3386 1605.8201,-1581.889 1631.8466,-1473.5972 1569.9202,-1415.2372 1646.8201,-1334.671 1762.6208,-1213.3492 1867.8341,-1334.5945 2015.8201,-1255.671 2031.4572,-1247.3314 2046.5504,-1236.6974 2060.6513,-1225.0815"/>
<polygon fill="#242424" stroke="#242424" points="2063.0114,-1227.6693 2068.3802,-1218.5355 2058.4873,-1222.3277 2063.0114,-1227.6693"/>
</g>
<!-- debug.js&#45;&gt;Ⓜ fast.js/filter.js -->
<g id="edge14" class="edge">
<title>debug.js&#45;&gt;Ⓜ fast.js/filter.js</title>
<path fill="none" stroke="#242424" d="M1518.8156,-1706.8109C1300.9229,-1701.3001 396.2463,-1673.0275 313.8201,-1581.889 276.9698,-1541.1438 292.6934,-1385.3836 313.8201,-1334.671 467.1775,-966.5502 868.9759,-676.9179 1058.7541,-555.9458"/>
<polygon fill="#242424" stroke="#242424" points="1060.7855,-558.802 1067.3525,-550.4878 1057.0341,-552.8921 1060.7855,-558.802"/>
</g>
<!-- debug.js&#45;&gt;Ⓜ fast.js/reduce.js -->
<g id="edge15" class="edge">
<title>debug.js&#45;&gt;Ⓜ fast.js/reduce.js</title>
<path fill="none" stroke="#242424" d="M1612.8787,-1704.6325C1735.8017,-1695.029 2061.4668,-1662.3318 2125.8201,-1581.889 2194.4577,-1496.0908 2190.2322,-1423.6852 2125.8201,-1334.671 2059.9881,-1243.6945 1951.6521,-1346.6474 1885.8201,-1255.671 1851.026,-1207.5874 1860.5762,-1042.3031 1885.8201,-988.5871 1986.7151,-773.8948 2231.7908,-620.393 2374.2758,-545.7587"/>
<polygon fill="#242424" stroke="#242424" points="2376.2527,-548.6757 2383.5101,-540.9569 2373.0232,-542.4652 2376.2527,-548.6757"/>
</g>
<!-- Ⓜ katsu&#45;curry/debug.js -->
<g id="node19" class="node">
<title>Ⓜ katsu&#45;curry/debug.js</title>
<ellipse fill="none" stroke="#0c821d" stroke-width="4" cx="690.8201" cy="-1458.28" rx="123.7182" ry="123.7182"/>
<text text-anchor="middle" x="690.8201" y="-1457.08" font-family="Fira Code" font-size="12.00" fill="#0c821d">Ⓜ katsu&#45;curry/debug.js</text>
</g>
<!-- debug.js&#45;&gt;Ⓜ katsu&#45;curry/debug.js -->
<g id="edge17" class="edge">
<title>debug.js&#45;&gt;Ⓜ katsu&#45;curry/debug.js</title>
<path fill="none" stroke="#242424" d="M1518.9698,-1703.3126C1376.8404,-1688.8731 952.725,-1641.7253 828.8201,-1581.889 813.4456,-1574.4644 798.5137,-1564.8043 784.5019,-1554.1549"/>
<polygon fill="#242424" stroke="#242424" points="786.3928,-1551.1902 776.3618,-1547.7798 782.0767,-1556.7012 786.3928,-1551.1902"/>
</g>
<!-- invert.js -->
<g id="node20" class="node">
<title>invert.js</title>
<ellipse fill="none" stroke="#242424" stroke-width="4" cx="1194.8201" cy="-1458.28" rx="51.7142" ry="51.7142"/>
<text text-anchor="middle" x="1194.8201" y="-1455.88" font-family="Fira Code" font-size="12.00" fill="#242424">invert.js</text>
</g>
<!-- debug.js&#45;&gt;invert.js -->
<g id="edge22" class="edge">
<title>debug.js&#45;&gt;invert.js</title>
<path fill="none" stroke="#242424" d="M1519.4526,-1699.0615C1454.6624,-1684.6277 1336.505,-1650.4534 1260.8201,-1581.889 1241.2502,-1564.1604 1226.4104,-1539.2435 1215.8076,-1516.4212"/>
<polygon fill="#242424" stroke="#242424" points="1218.9345,-1514.8392 1211.6652,-1507.1315 1212.5413,-1517.6901 1218.9345,-1514.8392"/>
</g>
<!-- iterate.js -->
<g id="node21" class="node">
<title>iterate.js</title>
<ellipse fill="none" stroke="#242424" stroke-width="4" cx="121.8201" cy="-795.911" rx="56.412" ry="56.412"/>
<text text-anchor="middle" x="121.8201" y="-793.511" font-family="Fira Code" font-size="12.00" fill="#242424">iterate.js</text>
</g>
<!-- debug.js&#45;&gt;iterate.js -->
<g id="edge23" class="edge">
<title>debug.js&#45;&gt;iterate.js</title>
<path fill="none" stroke="#242424" d="M1518.614,-1707.5361C1278.2606,-1705.2185 198.0032,-1688.8734 99.8201,-1581.889 -87.5879,-1377.6817 36.1223,-1002.9744 95.3254,-856.6839"/>
<polygon fill="#242424" stroke="#242424" points="98.5834,-857.9634 99.1277,-847.3826 92.1039,-855.3146 98.5834,-857.9634"/>
</g>
<!-- math.js -->
<g id="node22" class="node">
<title>math.js</title>
<ellipse fill="none" stroke="#242424" stroke-width="4" cx="2610.8201" cy="-795.911" rx="42.3196" ry="42.3196"/>
<text text-anchor="middle" x="2610.8201" y="-793.511" font-family="Fira Code" font-size="12.00" fill="#242424">math.js</text>
</g>
<!-- debug.js&#45;&gt;math.js -->
<g id="edge25" class="edge">
<title>debug.js&#45;&gt;math.js</title>
<path fill="none" stroke="#242424" d="M1612.7801,-1704.676C1790.1395,-1692.0719 2412.2968,-1643.7327 2473.8201,-1581.889 2512.9093,-1542.5963 2497.8972,-1389.3726 2506.8201,-1334.671 2536.1185,-1155.0582 2579.6051,-943.4896 2599.7884,-847.6824"/>
<polygon fill="#242424" stroke="#242424" points="2603.2593,-848.185 2601.9,-837.6777 2596.4102,-846.7393 2603.2593,-848.185"/>
</g>
<!-- object.js -->
<g id="node23" class="node">
<title>object.js</title>
<ellipse fill="none" stroke="#242424" stroke-width="4" cx="2883.8201" cy="-1122.129" rx="51.7142" ry="51.7142"/>
<text text-anchor="middle" x="2883.8201" y="-1119.7291" font-family="Fira Code" font-size="12.00" fill="#242424">object.js</text>
</g>
<!-- debug.js&#45;&gt;object.js -->
<g id="edge26" class="edge">
<title>debug.js&#45;&gt;object.js</title>
<path fill="none" stroke="#242424" d="M1612.8797,-1703.893C1817.0199,-1686.3424 2617.5222,-1615.5919 2658.8201,-1581.889 2748.3982,-1508.785 2684.1292,-1435.997 2739.8201,-1334.671 2761.7204,-1294.8246 2778.7229,-1292.9039 2804.8201,-1255.671 2822.4458,-1230.5243 2840.0396,-1201.2921 2854.1346,-1176.5997"/>
<polygon fill="#242424" stroke="#242424" points="2857.279,-1178.1499 2859.1628,-1167.7239 2851.1884,-1174.6995 2857.279,-1178.1499"/>
</g>
<!-- path.js -->
<g id="node24" class="node">
<title>path.js</title>
<ellipse fill="none" stroke="#242424" stroke-width="4" cx="2682.8201" cy="-1122.129" rx="42.3196" ry="42.3196"/>
<text text-anchor="middle" x="2682.8201" y="-1119.7291" font-family="Fira Code" font-size="12.00" fill="#242424">path.js</text>
</g>
<!-- debug.js&#45;&gt;path.js -->
<g id="edge27" class="edge">
<title>debug.js&#45;&gt;path.js</title>
<path fill="none" stroke="#242424" d="M1612.8083,-1704.412C1793.3321,-1690.6459 2435.7965,-1638.0604 2506.8201,-1581.889 2573.371,-1529.255 2642.5607,-1281.7008 2670.2628,-1173.245"/>
<polygon fill="#242424" stroke="#242424" points="2673.6673,-1174.058 2672.7346,-1163.5043 2666.8824,-1172.3362 2673.6673,-1174.058"/>
</g>
<!-- random&#45;floor.js -->
<g id="node25" class="node">
<title>random&#45;floor.js</title>
<ellipse fill="none" stroke="#242424" stroke-width="4" cx="319.8201" cy="-795.911" rx="79.3981" ry="79.3981"/>
<text text-anchor="middle" x="319.8201" y="-793.511" font-family="Fira Code" font-size="12.00" fill="#242424">random&#45;floor.js</text>
</g>
<!-- debug.js&#45;&gt;random&#45;floor.js -->
<g id="edge28" class="edge">
<title>debug.js&#45;&gt;random&#45;floor.js</title>
<path fill="none" stroke="#242424" d="M1518.6931,-1706.9359C1297.0617,-1701.9382 365.6581,-1675.4533 280.8201,-1581.889 207.0154,-1500.493 267.233,-1443.7023 280.8201,-1334.671 285.2989,-1298.7301 295.6,-1291.5116 300.8201,-1255.671 319.4088,-1128.0408 322.1082,-978.5334 321.5664,-885.5046"/>
<polygon fill="#242424" stroke="#242424" points="325.0648,-885.259 321.4924,-875.2846 318.065,-885.3097 325.0648,-885.259"/>
</g>
<!-- random&#45;shuffle.js -->
<g id="node26" class="node">
<title>random&#45;shuffle.js</title>
<ellipse fill="none" stroke="#0c821d" stroke-width="4" cx="1776.8201" cy="-1458.28" rx="88.2923" ry="88.2923"/>
<text text-anchor="middle" x="1776.8201" y="-1455.88" font-family="Fira Code" font-size="12.00" fill="#0c821d">random&#45;shuffle.js</text>
</g>
<!-- debug.js&#45;&gt;random&#45;shuffle.js -->
<g id="edge29" class="edge">
<title>debug.js&#45;&gt;random&#45;shuffle.js</title>
<path fill="none" stroke="#242424" d="M1596.8155,-1672.5107C1618.7513,-1647.3591 1648.7781,-1612.7114 1674.8201,-1581.889 1687.5881,-1566.7772 1701.1325,-1550.524 1714.0369,-1534.9292"/>
<polygon fill="#242424" stroke="#242424" points="1717.0466,-1536.7817 1720.7193,-1526.8437 1711.6508,-1532.3223 1717.0466,-1536.7817"/>
</g>
<!-- random&#45;take.js -->
<g id="node27" class="node">
<title>random&#45;take.js</title>
<ellipse fill="none" stroke="#242424" stroke-width="4" cx="216.8201" cy="-1122.129" rx="74.7005" ry="74.7005"/>
<text text-anchor="middle" x="216.8201" y="-1119.7291" font-family="Fira Code" font-size="12.00" fill="#242424">random&#45;take.js</text>
</g>
<!-- debug.js&#45;&gt;random&#45;take.js -->
<g id="edge30" class="edge">
<title>debug.js&#45;&gt;random&#45;take.js</title>
<path fill="none" stroke="#242424" d="M1518.6149,-1707.2062C1288.8915,-1703.3651 295.2475,-1681.0754 204.8201,-1581.889 111.0157,-1478.9986 150.5691,-1302.9621 185.3286,-1201.1647"/>
<polygon fill="#242424" stroke="#242424" points="188.6933,-1202.1449 188.6728,-1191.5501 182.0818,-1199.8452 188.6933,-1202.1449"/>
</g>
<!-- random&#45;word.js -->
<g id="node28" class="node">
<title>random&#45;word.js</title>
<ellipse fill="none" stroke="#242424" stroke-width="4" cx="397.8201" cy="-1458.28" rx="74.7005" ry="74.7005"/>
<text text-anchor="middle" x="397.8201" y="-1455.88" font-family="Fira Code" font-size="12.00" fill="#242424">random&#45;word.js</text>
</g>
<!-- debug.js&#45;&gt;random&#45;word.js -->
<g id="edge31" class="edge">
<title>debug.js&#45;&gt;random&#45;word.js</title>
<path fill="none" stroke="#242424" d="M1518.7321,-1707.3655C1334.747,-1704.5421 665.7605,-1687.0967 486.8201,-1581.889 466.9629,-1570.2141 450.3146,-1552.1724 436.9905,-1533.4487"/>
<polygon fill="#242424" stroke="#242424" points="439.8249,-1531.3929 431.2941,-1525.1099 434.0448,-1535.3415 439.8249,-1531.3929"/>
</g>
<!-- random.js -->
<g id="node29" class="node">
<title>random.js</title>
<ellipse fill="none" stroke="#0c821d" stroke-width="4" cx="1934.8201" cy="-1458.28" rx="51.7142" ry="51.7142"/>
<text text-anchor="middle" x="1934.8201" y="-1455.88" font-family="Fira Code" font-size="12.00" fill="#0c821d">random.js</text>
</g>
<!-- debug.js&#45;&gt;random.js -->
<g id="edge32" class="edge">
<title>debug.js&#45;&gt;random.js</title>
<path fill="none" stroke="#242424" d="M1612.1213,-1699.6949C1677.7327,-1685.917 1798.1769,-1652.4082 1873.8201,-1581.889 1892.5823,-1564.3978 1906.3269,-1539.8838 1915.9665,-1517.2943"/>
<polygon fill="#242424" stroke="#242424" points="1919.3202,-1518.3386 1919.8491,-1507.757 1912.8368,-1515.6992 1919.3202,-1518.3386"/>
</g>
<!-- range.js -->
<g id="node30" class="node">
<title>range.js</title>
<ellipse fill="none" stroke="#242424" stroke-width="4" cx="1077.8201" cy="-1458.28" rx="47.0167" ry="47.0167"/>
<text text-anchor="middle" x="1077.8201" y="-1455.88" font-family="Fira Code" font-size="12.00" fill="#242424">range.js</text>
</g>
<!-- debug.js&#45;&gt;range.js -->
<g id="edge33" class="edge">
<title>debug.js&#45;&gt;range.js</title>
<path fill="none" stroke="#242424" d="M1519.4667,-1699.4438C1420.4353,-1680.5959 1192.463,-1632.7667 1133.8201,-1581.889 1113.5655,-1564.3165 1100.2517,-1537.9355 1091.7108,-1514.0522"/>
<polygon fill="#242424" stroke="#242424" points="1094.9533,-1512.7138 1088.4467,-1504.3523 1088.3189,-1514.9464 1094.9533,-1512.7138"/>
</g>
<!-- reject.js -->
<g id="node31" class="node">
<title>reject.js</title>
<ellipse fill="none" stroke="#242424" stroke-width="4" cx="1466.8201" cy="-1458.28" rx="51.7142" ry="51.7142"/>
<text text-anchor="middle" x="1466.8201" y="-1455.88" font-family="Fira Code" font-size="12.00" fill="#242424">reject.js</text>
</g>
<!-- debug.js&#45;&gt;reject.js -->
<g id="edge34" class="edge">
<title>debug.js&#45;&gt;reject.js</title>
<path fill="none" stroke="#242424" d="M1548.4623,-1664.1317C1532.1023,-1622.8818 1507.4897,-1560.8239 1489.5665,-1515.6325"/>
<polygon fill="#242424" stroke="#242424" points="1492.789,-1514.2639 1485.8488,-1506.2587 1486.2821,-1516.8447 1492.789,-1514.2639"/>
</g>
<!-- string.js -->
<g id="node32" class="node">
<title>string.js</title>
<ellipse fill="none" stroke="#242424" stroke-width="4" cx="3094.8201" cy="-1122.129" rx="51.7142" ry="51.7142"/>
<text text-anchor="middle" x="3094.8201" y="-1119.7291" font-family="Fira Code" font-size="12.00" fill="#242424">string.js</text>
</g>
<!-- debug.js&#45;&gt;string.js -->
<g id="edge35" class="edge">
<title>debug.js&#45;&gt;string.js</title>
<path fill="none" stroke="#242424" d="M1613.0826,-1704.2556C1863.5207,-1684.9095 3024.6332,-1594.5847 3037.8201,-1581.889 3145.7949,-1477.9363 3126.7768,-1281.7056 3108.4357,-1182.6234"/>
<polygon fill="#242424" stroke="#242424" points="3111.8671,-1181.9325 3106.5536,-1172.7664 3104.9913,-1183.2454 3111.8671,-1181.9325"/>
</g>
<!-- ternary.js -->
<g id="node33" class="node">
<title>ternary.js</title>
<ellipse fill="none" stroke="#242424" stroke-width="4" cx="2060.8201" cy="-1458.28" rx="56.412" ry="56.412"/>
<text text-anchor="middle" x="2060.8201" y="-1455.88" font-family="Fira Code" font-size="12.00" fill="#242424">ternary.js</text>
</g>
<!-- debug.js&#45;&gt;ternary.js -->
<g id="edge36" class="edge">
<title>debug.js&#45;&gt;ternary.js</title>
<path fill="none" stroke="#242424" d="M1612.1118,-1699.0829C1710.4504,-1679.6159 1936.0708,-1630.789 1995.8201,-1581.889 2015.111,-1566.101 2029.391,-1543.0571 2039.5735,-1521.132"/>
<polygon fill="#242424" stroke="#242424" points="2042.8443,-1522.3895 2043.6892,-1511.8284 2036.4427,-1519.5575 2042.8443,-1522.3895"/>
</g>
<!-- triplet.js -->
<g id="node34" class="node">
<title>triplet.js</title>
<ellipse fill="none" stroke="#242424" stroke-width="4" cx="1950.8201" cy="-1122.129" rx="56.412" ry="56.412"/>
<text text-anchor="middle" x="1950.8201" y="-1119.7291" font-family="Fira Code" font-size="12.00" fill="#242424">triplet.js</text>
</g>
<!-- debug.js&#45;&gt;triplet.js -->
<g id="edge37" class="edge">
<title>debug.js&#45;&gt;triplet.js</title>
<path fill="none" stroke="#242424" d="M1568.5436,-1660.9008C1574.4064,-1566.3744 1589.2887,-1360.0717 1608.8201,-1334.671 1667.3292,-1258.5795 1728.8219,-1307.1736 1809.8201,-1255.671 1845.8386,-1232.7686 1880.7151,-1199.8597 1906.7706,-1172.442"/>
<polygon fill="#242424" stroke="#242424" points="1909.5882,-1174.5543 1913.8793,-1164.8673 1904.4839,-1169.764 1909.5882,-1174.5543"/>
</g>
<!-- invert.js&#45;&gt;Ⓜ katsu&#45;curry/katsu&#45;curry.js -->
<g id="edge75" class="edge">
<title>invert.js&#45;&gt;Ⓜ katsu&#45;curry/katsu&#45;curry.js</title>
<path fill="none" stroke="#242424" d="M1178.7989,-1409.02C1168.8781,-1384.4007 1154.1074,-1355.4995 1133.8201,-1334.671 1081.2473,-1280.6956 1025.9541,-1318.1366 983.8201,-1255.671 929.7434,-1175.4997 893.9456,-460.9553 954.8201,-385.8153 1058.2607,-258.134 1532.7727,-193.5931 1787.7094,-167.6347"/>
<polygon fill="#242424" stroke="#242424" points="1788.2103,-171.102 1797.808,-166.6149 1787.507,-164.1374 1788.2103,-171.102"/>
</g>
<!-- iterate.js&#45;&gt;Ⓜ katsu&#45;curry/katsu&#45;curry.js -->
<g id="edge76" class="edge">
<title>iterate.js&#45;&gt;Ⓜ katsu&#45;curry/katsu&#45;curry.js</title>
<path fill="none" stroke="#242424" d="M113.8562,-740.0475C104.6512,-651.1142 101.5454,-478.0001 198.8201,-385.8153 313.3233,-277.3034 1374.5044,-193.1508 1787.4712,-164.2479"/>
<polygon fill="#242424" stroke="#242424" points="1787.9719,-167.7216 1797.704,-163.5338 1787.4845,-160.7386 1787.9719,-167.7216"/>
</g>
<!-- math.js&#45;&gt;Ⓜ katsu&#45;curry/katsu&#45;curry.js -->
<g id="edge87" class="edge">
<title>math.js&#45;&gt;Ⓜ katsu&#45;curry/katsu&#45;curry.js</title>
<path fill="none" stroke="#242424" d="M2615.5041,-753.5579C2624.8546,-660.8089 2641.548,-443.4242 2599.8201,-385.8153 2541.2384,-304.9384 2283.2307,-230.7423 2110.7023,-188.8867"/>
<polygon fill="#242424" stroke="#242424" points="2111.2954,-185.4294 2100.7534,-186.4859 2109.6533,-192.2341 2111.2954,-185.4294"/>
</g>
<!-- object.js&#45;&gt;Ⓜ katsu&#45;curry/katsu&#45;curry.js -->
<g id="edge88" class="edge">
<title>object.js&#45;&gt;Ⓜ katsu&#45;curry/katsu&#45;curry.js</title>
<path fill="none" stroke="#242424" d="M2894.5698,-1071.4378C2924.8493,-922.7843 3003.375,-491.7799 2919.8201,-385.8153 2821.2317,-260.7852 2363.4339,-195.3996 2113.968,-168.5276"/>
<polygon fill="#242424" stroke="#242424" points="2114.031,-165.0145 2103.7158,-167.4323 2113.2873,-171.9749 2114.031,-165.0145"/>
</g>
<!-- object.js&#45;&gt;map.js -->
<g id="edge89" class="edge">
<title>object.js&#45;&gt;map.js</title>
<path fill="none" stroke="#242424" d="M2871.4954,-1071.8724C2856.1752,-1009.4009 2830.2313,-903.6088 2815.3096,-842.7622"/>
<polygon fill="#242424" stroke="#242424" points="2818.7049,-841.9119 2812.9238,-833.0333 2811.9063,-843.5792 2818.7049,-841.9119"/>
</g>
<!-- object.js&#45;&gt;reduce.js -->
<g id="edge90" class="edge">
<title>object.js&#45;&gt;reduce.js</title>
<path fill="none" stroke="#242424" d="M2848.1703,-1084.7265C2819.2774,-1055.8798 2776.4893,-1016.3483 2733.8201,-988.5871 2662.6304,-942.2702 2621.833,-967.6184 2559.8201,-909.5871 2543.3729,-894.1959 2530.4339,-873.3532 2520.7851,-853.7178"/>
<polygon fill="#242424" stroke="#242424" points="2523.8742,-852.0622 2516.4475,-844.5061 2517.5411,-855.0443 2523.8742,-852.0622"/>
</g>
<!-- path.js&#45;&gt;Ⓜ katsu&#45;curry/katsu&#45;curry.js -->
<g id="edge91" class="edge">
<title>path.js&#45;&gt;Ⓜ katsu&#45;curry/katsu&#45;curry.js</title>
<path fill="none" stroke="#242424" d="M2682.4103,-1079.586C2680.6045,-930.8198 2671.3687,-439.9823 2627.8201,-385.8153 2562.2106,-304.2084 2289.5999,-229.3295 2110.9574,-187.6854"/>
<polygon fill="#242424" stroke="#242424" points="2111.7265,-184.2709 2101.1943,-185.4207 2110.1447,-191.0899 2111.7265,-184.2709"/>
</g>
<!-- path.js&#45;&gt;reduce.js -->
<g id="edge93" class="edge">
<title>path.js&#45;&gt;reduce.js</title>
<path fill="none" stroke="#242424" d="M2661.128,-1085.4729C2636.2678,-1043.2742 2594.4876,-971.7741 2559.8201,-909.5871 2549.1827,-890.5057 2537.7959,-869.4624 2527.7749,-850.7222"/>
<polygon fill="#242424" stroke="#242424" points="2530.7703,-848.901 2522.9746,-841.7262 2524.5945,-852.1965 2530.7703,-848.901"/>
</g>
<!-- path.js&#45;&gt;math.js -->
<g id="edge92" class="edge">
<title>path.js&#45;&gt;math.js</title>
<path fill="none" stroke="#242424" d="M2673.6281,-1080.482C2660.5113,-1021.0525 2636.4406,-911.9928 2622.2103,-847.518"/>
<polygon fill="#242424" stroke="#242424" points="2625.5872,-846.5781 2620.0141,-837.5675 2618.7517,-848.0868 2625.5872,-846.5781"/>
</g>
<!-- random&#45;floor.js&#45;&gt;Ⓜ katsu&#45;curry/katsu&#45;curry.js -->
<g id="edge94" class="edge">
<title>random&#45;floor.js&#45;&gt;Ⓜ katsu&#45;curry/katsu&#45;curry.js</title>
<path fill="none" stroke="#242424" d="M313.4784,-716.7702C310.7335,-623.4294 321.9169,-470.311 412.8201,-385.8153 512.6921,-292.9829 1412.2939,-201.9703 1787.5658,-167.6889"/>
<polygon fill="#242424" stroke="#242424" points="1788.0555,-171.1589 1797.6966,-166.7656 1787.4201,-164.1878 1788.0555,-171.1589"/>
</g>
<!-- random&#45;take.js&#45;&gt;Ⓜ katsu&#45;curry/katsu&#45;curry.js -->
<g id="edge95" class="edge">
<title>random&#45;take.js&#45;&gt;Ⓜ katsu&#45;curry/katsu&#45;curry.js</title>
<path fill="none" stroke="#242424" d="M215.0585,-1047.5309C212.8188,-877.8846 218.0063,-471.2465 315.8201,-385.8153 425.7777,-289.7776 1395.7707,-199.44 1787.6472,-166.527"/>
<polygon fill="#242424" stroke="#242424" points="1787.9769,-170.0117 1797.6497,-165.6889 1787.3924,-163.0362 1787.9769,-170.0117"/>
</g>
<!-- random&#45;take.js&#45;&gt;iterate.js -->
<g id="edge96" class="edge">
<title>random&#45;take.js&#45;&gt;iterate.js</title>
<path fill="none" stroke="#242424" d="M195.8543,-1050.1353C179.2907,-993.2577 156.389,-914.6162 140.4603,-859.919"/>
<polygon fill="#242424" stroke="#242424" points="143.7268,-858.6177 137.5703,-849.9951 137.0059,-860.5749 143.7268,-858.6177"/>
</g>
<!-- random&#45;take.js&#45;&gt;random&#45;floor.js -->
<g id="edge97" class="edge">
<title>random&#45;take.js&#45;&gt;random&#45;floor.js</title>
<path fill="none" stroke="#242424" d="M239.2966,-1050.9422C255.0666,-1000.996 276.2275,-933.9759 292.8991,-881.1742"/>
<polygon fill="#242424" stroke="#242424" points="296.2841,-882.0775 295.9575,-871.4877 289.609,-879.9698 296.2841,-882.0775"/>
</g>
<!-- random&#45;word.js&#45;&gt;Ⓜ katsu&#45;curry/katsu&#45;curry.js -->
<g id="edge98" class="edge">
<title>random&#45;word.js&#45;&gt;Ⓜ katsu&#45;curry/katsu&#45;curry.js</title>
<path fill="none" stroke="#242424" d="M400.649,-1383.4088C412.3594,-1186.7726 472.5417,-652.5146 781.8201,-385.8153 930.7367,-257.4004 1502.8702,-191.5612 1787.7332,-166.1632"/>
<polygon fill="#242424" stroke="#242424" points="1788.092,-169.6452 1797.7443,-165.2768 1787.4745,-162.6725 1788.092,-169.6452"/>
</g>
<!-- random&#45;word.js&#45;&gt;array.js -->
<g id="edge99" class="edge">
<title>random&#45;word.js&#45;&gt;array.js</title>
<path fill="none" stroke="#242424" d="M434.4438,-1392.9085C448.6273,-1372.0959 466.4023,-1350.4145 486.8201,-1334.671 643.6468,-1213.7463 877.3846,-1154.4908 983.6319,-1132.5436"/>
<polygon fill="#242424" stroke="#242424" points="984.407,-1135.9577 993.509,-1130.5353 983.0122,-1129.0981 984.407,-1135.9577"/>
</g>
<!-- random&#45;word.js&#45;&gt;random&#45;take.js -->
<g id="edge100" class="edge">
<title>random&#45;word.js&#45;&gt;random&#45;take.js</title>
<path fill="none" stroke="#242424" d="M362.2763,-1392.2685C332.0171,-1336.0715 288.5661,-1255.3749 257.0401,-1196.8251"/>
<polygon fill="#242424" stroke="#242424" points="260.1052,-1195.135 252.2826,-1187.9896 253.9419,-1198.4537 260.1052,-1195.135"/>
</g>
<!-- range.js&#45;&gt;Ⓜ katsu&#45;curry/katsu&#45;curry.js -->
<g id="edge101" class="edge">
<title>range.js&#45;&gt;Ⓜ katsu&#45;curry/katsu&#45;curry.js</title>
<path fill="none" stroke="#242424" d="M1049.2755,-1420.615C1009.1204,-1367.2646 940.1148,-1274.0989 933.8201,-1255.671 902.5744,-1164.1989 860.3318,-461.2116 920.8201,-385.8153 1027.7776,-252.4967 1525.437,-190.087 1787.8509,-166.0219"/>
<polygon fill="#242424" stroke="#242424" points="1788.2136,-169.5035 1797.8557,-165.1125 1787.5799,-162.5322 1788.2136,-169.5035"/>
</g>
<!-- reject.js&#45;&gt;Ⓜ katsu&#45;curry/katsu&#45;curry.js -->
<g id="edge104" class="edge">
<title>reject.js&#45;&gt;Ⓜ katsu&#45;curry/katsu&#45;curry.js</title>
<path fill="none" stroke="#242424" d="M1467.2232,-1406.3227C1469.1975,-1318.3934 1478.912,-1135.4817 1523.8201,-988.5871 1603.51,-727.921 1761.5319,-451.0844 1861.3875,-290.6554"/>
<polygon fill="#242424" stroke="#242424" points="1864.3663,-292.4931 1866.6909,-282.1564 1858.4276,-288.7873 1864.3663,-292.4931"/>
</g>
<!-- reject.js&#45;&gt;filter.js -->
<g id="edge105" class="edge">
<title>reject.js&#45;&gt;filter.js</title>
<path fill="none" stroke="#242424" d="M1457.7567,-1407.4048C1436.3713,-1287.3618 1382.8339,-986.8409 1359.7237,-857.116"/>
<polygon fill="#242424" stroke="#242424" points="1363.114,-856.1906 1357.9143,-846.9594 1356.2225,-857.4183 1363.114,-856.1906"/>
</g>
<!-- string.js&#45;&gt;Ⓜ katsu&#45;curry/katsu&#45;curry.js -->
<g id="edge107" class="edge">
<title>string.js&#45;&gt;Ⓜ katsu&#45;curry/katsu&#45;curry.js</title>
<path fill="none" stroke="#242424" d="M3080.5173,-1072.3022C3068.7388,-1029.4921 3052.4615,-965.9402 3042.8201,-909.5871 3023.0949,-794.2964 3068.3798,-473.3683 2990.8201,-385.8153 2876.4361,-256.6934 2376.8635,-192.3664 2113.9581,-166.9504"/>
<polygon fill="#242424" stroke="#242424" points="2114.2235,-163.4599 2103.9351,-165.9893 2113.5552,-170.428 2114.2235,-163.4599"/>
</g>
<!-- string.js&#45;&gt;Ⓜ entrust/entrust.js -->
<g id="edge106" class="edge">
<title>string.js&#45;&gt;Ⓜ entrust/entrust.js</title>
<path fill="none" stroke="#242424" d="M3105.8359,-1071.5154C3114.8013,-1030.323 3127.8287,-970.467 3139.454,-917.0532"/>
<polygon fill="#242424" stroke="#242424" points="3142.9002,-917.6762 3141.6071,-907.1606 3136.0604,-916.1875 3142.9002,-917.6762"/>
</g>
<!-- ternary.js&#45;&gt;Ⓜ katsu&#45;curry/katsu&#45;curry.js -->
<g id="edge108" class="edge">
<title>ternary.js&#45;&gt;Ⓜ katsu&#45;curry/katsu&#45;curry.js</title>
<path fill="none" stroke="#242424" d="M2041.283,-1405.5281C2030.5619,-1381.7909 2015.417,-1354.6759 1995.8201,-1334.671 1945.0093,-1282.8022 1889.7166,-1318.2069 1852.8201,-1255.671 1761.1321,-1100.269 1856.7516,-579.4999 1914.1736,-313.1868"/>
<polygon fill="#242424" stroke="#242424" points="1917.6748,-313.5552 1916.3693,-303.0412 1910.8332,-312.0746 1917.6748,-313.5552"/>
</g>
<!-- triplet.js&#45;&gt;Ⓜ katsu&#45;curry/katsu&#45;curry.js -->
<g id="edge109" class="edge">
<title>triplet.js&#45;&gt;Ⓜ katsu&#45;curry/katsu&#45;curry.js</title>
<path fill="none" stroke="#242424" d="M1950.8201,-1065.8593C1950.8201,-922.3912 1950.8201,-538.661 1950.8201,-317.2008"/>
<polygon fill="#242424" stroke="#242424" points="1954.3202,-317.1061 1950.8201,-307.1061 1947.3202,-317.1062 1954.3202,-317.1061"/>
</g>
<!-- either.js -->
<g id="node35" class="node">
<title>either.js</title>
<ellipse fill="none" stroke="#242424" stroke-width="4" cx="3254.8201" cy="-1122.129" rx="51.7142" ry="51.7142"/>
<text text-anchor="middle" x="3254.8201" y="-1119.7291" font-family="Fira Code" font-size="12.00" fill="#242424">either.js</text>
</g>
<!-- either.js&#45;&gt;Ⓜ entrust/entrust.js -->
<g id="edge40" class="edge">
<title>either.js&#45;&gt;Ⓜ entrust/entrust.js</title>
<path fill="none" stroke="#242424" d="M3241.206,-1072.2284C3229.8368,-1030.5559 3213.16,-969.4293 3198.3806,-915.2573"/>
<polygon fill="#242424" stroke="#242424" points="3201.7492,-914.3067 3195.7405,-905.5805 3194.996,-916.1492 3201.7492,-914.3067"/>
</g>
<!-- flip.js -->
<g id="node36" class="node">
<title>flip.js</title>
<ellipse fill="none" stroke="#242424" stroke-width="4" cx="3487.8201" cy="-1122.129" rx="42.3196" ry="42.3196"/>
<text text-anchor="middle" x="3487.8201" y="-1119.7291" font-family="Fira Code" font-size="12.00" fill="#242424">flip.js</text>
</g>
<!-- flip.js&#45;&gt;Ⓜ katsu&#45;curry/katsu&#45;curry.js -->
<g id="edge43" class="edge">
<title>flip.js&#45;&gt;Ⓜ katsu&#45;curry/katsu&#45;curry.js</title>
<path fill="none" stroke="#242424" d="M3478.624,-1080.4602C3470.9076,-1052.4047 3457.7204,-1015.7186 3436.8201,-988.5871 3400.0881,-940.9041 3358.6287,-960.6863 3326.8201,-909.5871 3272.6803,-822.6141 3332.718,-774.8004 3288.8201,-682.2348 3213.731,-523.8976 3179.8809,-474.6392 3028.8201,-385.8153 2875.095,-295.4249 2374.2452,-213.5173 2112.8838,-175.613"/>
<polygon fill="#242424" stroke="#242424" points="2113.3196,-172.1397 2102.9216,-174.1728 2112.3179,-179.0677 2113.3196,-172.1397"/>
</g>
<!-- future.js -->
<g id="node37" class="node">
<title>future.js</title>
<ellipse fill="none" stroke="#242424" stroke-width="4" cx="3375.8201" cy="-1122.129" rx="51.7142" ry="51.7142"/>
<text text-anchor="middle" x="3375.8201" y="-1119.7291" font-family="Fira Code" font-size="12.00" fill="#242424">future.js</text>
</g>
<!-- future.js&#45;&gt;Ⓜ entrust/entrust.js -->
<g id="edge44" class="edge">
<title>future.js&#45;&gt;Ⓜ entrust/entrust.js</title>
<path fill="none" stroke="#242424" d="M3357.3793,-1073.7661C3346.6601,-1047.7643 3332.075,-1015.589 3315.8201,-988.5871 3295.6493,-955.0805 3270.5361,-920.7009 3246.6624,-890.4291"/>
<polygon fill="#242424" stroke="#242424" points="3249.2571,-888.0685 3240.2963,-882.4156 3243.7761,-892.4227 3249.2571,-888.0685"/>
</g>
<!-- index.js -->
<g id="node38" class="node">
<title>index.js</title>
<ellipse fill="none" stroke="#242424" stroke-width="4" cx="2257.8201" cy="-1707.8974" rx="47.0167" ry="47.0167"/>
<text text-anchor="middle" x="2257.8201" y="-1705.4974" font-family="Fira Code" font-size="12.00" fill="#242424">index.js</text>
</g>
<!-- index.js&#45;&gt;../package.json -->
<g id="edge46" class="edge">
<title>index.js&#45;&gt;../package.json</title>
<path fill="none" stroke="#242424" d="M2304.9904,-1705.5456C2395.6665,-1698.9775 2597.4652,-1674.2589 2734.8201,-1581.889 2752.9858,-1569.6727 2769.0123,-1552.7034 2782.42,-1535.2465"/>
<polygon fill="#242424" stroke="#242424" points="2785.2391,-1537.3209 2788.3943,-1527.2068 2779.6205,-1533.1457 2785.2391,-1537.3209"/>
</g>
<!-- index.js&#45;&gt;ap.js -->
<g id="edge47" class="edge">
<title>index.js&#45;&gt;ap.js</title>
<path fill="none" stroke="#242424" d="M2294.9015,-1678.6692C2322.793,-1655.0612 2360.2771,-1619.651 2384.8201,-1581.889 2401.0948,-1556.8487 2412.9652,-1525.3414 2420.7052,-1500.4041"/>
<polygon fill="#242424" stroke="#242424" points="2424.1537,-1501.0888 2423.67,-1490.505 2417.448,-1499.0804 2424.1537,-1501.0888"/>
</g>
<!-- index.js&#45;&gt;Ⓜ katsu&#45;curry/katsu&#45;curry.js -->
<g id="edge45" class="edge">
<title>index.js&#45;&gt;Ⓜ katsu&#45;curry/katsu&#45;curry.js</title>
<path fill="none" stroke="#242424" d="M2305.03,-1705.1937C2495.2649,-1693.9284 3205.6234,-1648.1971 3419.8201,-1581.889 3832.7266,-1454.0671 4276.8201,-1554.3677 4276.8201,-1122.129 4276.8201,-1122.129 4276.8201,-1122.129 4276.8201,-795.911 4276.8201,-744.6874 4292.252,-720.1597 4257.8201,-682.2348 3966.6834,-361.564 2590.6356,-210.4187 2113.8911,-167.0491"/>
<polygon fill="#242424" stroke="#242424" points="2114.1057,-163.5543 2103.8307,-166.1377 2113.4741,-170.5257 2114.1057,-163.5543"/>
</g>
<!-- index.js&#45;&gt;map.js -->
<g id="edge58" class="edge">
<title>index.js&#45;&gt;map.js</title>
<path fill="none" stroke="#242424" d="M2304.7081,-1704.1681C2470.5536,-1690.51 3022.2092,-1640.9263 3072.8201,-1581.889 3144.3317,-1498.4712 3097.7926,-1441.6701 3072.8201,-1334.671 3063.9205,-1296.5392 3048.7111,-1291.8855 3033.8201,-1255.671 2986.2373,-1139.9508 3002.2321,-1099.7587 2944.8201,-988.5871 2914.4945,-929.8654 2867.2494,-869.55 2835.9236,-832.4044"/>
<polygon fill="#242424" stroke="#242424" points="2838.2481,-829.7351 2829.1035,-824.3847 2832.9156,-834.27 2838.2481,-829.7351"/>
</g>
<!-- index.js&#45;&gt;reduce.js -->
<g id="edge68" class="edge">
<title>index.js&#45;&gt;reduce.js</title>
<path fill="none" stroke="#242424" d="M2303.541,-1695.2059C2354.5948,-1678.4029 2435.1239,-1643.458 2473.8201,-1581.889 2620.1759,-1349.0242 2551.6652,-995.9189 2515.8292,-856.0288"/>
<polygon fill="#242424" stroke="#242424" points="2519.1079,-854.7298 2513.204,-845.9323 2512.3331,-856.4913 2519.1079,-854.7298"/>
</g>
<!-- index.js&#45;&gt;types.js -->
<g id="edge73" class="edge">
<title>index.js&#45;&gt;types.js</title>
<path fill="none" stroke="#242424" d="M2291.1587,-1674.4933C2312.549,-1650.7882 2338.6924,-1617.0458 2351.8201,-1581.889 2378.7804,-1509.6876 2384.4187,-1285.9209 2385.5578,-1179.4938"/>
<polygon fill="#242424" stroke="#242424" points="2389.0598,-1179.2956 2385.6572,-1169.2621 2382.0601,-1179.2275 2389.0598,-1179.2956"/>
</g>
<!-- index.js&#45;&gt;array.js -->
<g id="edge48" class="edge">
<title>index.js&#45;&gt;array.js</title>
<path fill="none" stroke="#242424" d="M2210.8736,-1705.0327C2026.6934,-1693.3601 1360.3107,-1646.8976 1293.8201,-1581.889 1214.3336,-1504.1743 1321.5223,-1424.342 1255.8201,-1334.671 1208.9471,-1270.6983 1150.146,-1313.4488 1095.8201,-1255.671 1075.5103,-1234.0707 1062.0285,-1204.0311 1053.3939,-1177.912"/>
<polygon fill="#242424" stroke="#242424" points="1056.6539,-1176.6107 1050.3178,-1168.1193 1049.9756,-1178.7086 1056.6539,-1176.6107"/>
</g>
<!-- index.js&#45;&gt;filter.js -->
<g id="edge52" class="edge">
<title>index.js&#45;&gt;filter.js</title>
<path fill="none" stroke="#242424" d="M2235.508,-1666.4024C2223.0633,-1642.2032 2207.8889,-1610.8337 2196.8201,-1581.889 2155.9877,-1475.114 2212.4531,-1409.256 2125.8201,-1334.671 1921.3182,-1158.6091 1735.5366,-1422.9876 1523.8201,-1255.671 1519.6559,-1252.3801 1416.3592,-976.7641 1370.4579,-853.901"/>
<polygon fill="#242424" stroke="#242424" points="1373.6361,-852.4068 1366.8581,-844.2637 1367.0786,-854.8562 1373.6361,-852.4068"/>
</g>
<!-- index.js&#45;&gt;chain.js -->
<g id="edge49" class="edge">
<title>index.js&#45;&gt;chain.js</title>
<path fill="none" stroke="#242424" d="M2210.809,-1706.7344C2051.4649,-1701.9279 1534.6064,-1679.0077 1405.8201,-1581.889 1384.0661,-1565.4842 1370.5385,-1538.6751 1362.2442,-1514.2099"/>
<polygon fill="#242424" stroke="#242424" points="1365.5639,-1513.0996 1359.2108,-1504.6209 1358.8899,-1515.2109 1365.5639,-1513.0996"/>
</g>
<!-- index.js&#45;&gt;choice.js -->
<g id="edge50" class="edge">
<title>index.js&#45;&gt;choice.js</title>
<path fill="none" stroke="#242424" d="M2210.9134,-1704.1369C1991.5375,-1686.4201 1075.1594,-1610.928 1021.8201,-1581.889 992.857,-1566.121 969.3019,-1537.9946 952.445,-1512.5515"/>
<polygon fill="#242424" stroke="#242424" points="955.3339,-1510.5727 946.9869,-1504.0475 949.4429,-1514.3538 955.3339,-1510.5727"/>
</g>
<!-- index.js&#45;&gt;invert.js -->
<g id="edge55" class="edge">
<title>index.js&#45;&gt;invert.js</title>
<path fill="none" stroke="#242424" d="M2210.8271,-1704.494C2023.9975,-1690.6234 1340.121,-1636.4967 1260.8201,-1581.889 1238.5328,-1566.5417 1223.1529,-1541.1943 1212.8855,-1517.4346"/>
<polygon fill="#242424" stroke="#242424" points="1216.0867,-1516.0158 1209.0628,-1508.0839 1209.6072,-1518.6647 1216.0867,-1516.0158"/>
</g>
<!-- index.js&#45;&gt;iterate.js -->
<g id="edge56" class="edge">
<title>index.js&#45;&gt;iterate.js</title>
<path fill="none" stroke="#242424" d="M2210.766,-1704.1268C2105.3597,-1695.7447 1842.2395,-1675.1781 1621.8201,-1660.889 1464.4614,-1650.688 324.9555,-1684.0325 204.8201,-1581.889 -7.432,-1401.4248 64.7922,-1012.7977 103.7569,-859.7321"/>
<polygon fill="#242424" stroke="#242424" points="107.1597,-860.5529 106.272,-849.9953 100.3821,-858.8021 107.1597,-860.5529"/>
</g>
<!-- index.js&#45;&gt;math.js -->
<g id="edge59" class="edge">
<title>index.js&#45;&gt;math.js</title>
<path fill="none" stroke="#242424" d="M2304.4094,-1700.4165C2366.5474,-1687.787 2474.957,-1655.9527 2528.8201,-1581.889 2614.0603,-1464.6807 2614.4557,-1005.6166 2611.9916,-848.7757"/>
<polygon fill="#242424" stroke="#242424" points="2615.4857,-848.3907 2611.8182,-838.4509 2608.4867,-848.5083 2615.4857,-848.3907"/>
</g>
<!-- index.js&#45;&gt;object.js -->
<g id="edge60" class="edge">
<title>index.js&#45;&gt;object.js</title>
<path fill="none" stroke="#242424" d="M2304.9198,-1703.8108C2466.3113,-1689.339 2989.7448,-1638.3541 3037.8201,-1581.889 3109.049,-1498.2297 3071.7055,-1439.19 3037.8201,-1334.671 3016.4111,-1268.6354 2965.946,-1205.9258 2928.5885,-1165.9691"/>
<polygon fill="#242424" stroke="#242424" points="2930.7247,-1163.1353 2921.3043,-1158.287 2925.6451,-1167.9517 2930.7247,-1163.1353"/>
</g>
<!-- index.js&#45;&gt;path.js -->
<g id="edge61" class="edge">
<title>index.js&#45;&gt;path.js</title>
<path fill="none" stroke="#242424" d="M2303.8339,-1698.1953C2392.0346,-1678.6386 2579.8098,-1632.0503 2620.8201,-1581.889 2717.8662,-1463.1882 2704.8668,-1266.7953 2691.8215,-1173.8914"/>
<polygon fill="#242424" stroke="#242424" points="2695.2691,-1173.2779 2690.3599,-1163.8891 2688.3426,-1174.2901 2695.2691,-1173.2779"/>
</g>
<!-- index.js&#45;&gt;random&#45;floor.js -->
<g id="edge62" class="edge">
<title>index.js&#45;&gt;random&#45;floor.js</title>
<path fill="none" stroke="#242424" d="M2210.7043,-1704.4407C1969.9091,-1686.6773 887.039,-1605.5792 861.8201,-1581.889 780.7969,-1505.7777 872.4028,-1434.658 823.8201,-1334.671 720.6418,-1122.322 504.7541,-936.4539 391.9552,-849.022"/>
<polygon fill="#242424" stroke="#242424" points="394.0709,-846.2337 384.0148,-842.898 389.7958,-851.7767 394.0709,-846.2337"/>
</g>
<!-- index.js&#45;&gt;random&#45;shuffle.js -->
<g id="edge63" class="edge">
<title>index.js&#45;&gt;random&#45;shuffle.js</title>
<path fill="none" stroke="#242424" d="M2211.0526,-1701.5357C2134.5634,-1689.2794 1980.5511,-1656.6849 1873.8201,-1581.889 1857.9357,-1570.7574 1843.3918,-1556.2733 1830.6694,-1541.1579"/>
<polygon fill="#242424" stroke="#242424" points="1833.2186,-1538.7459 1824.1849,-1533.2103 1827.7949,-1543.1712 1833.2186,-1538.7459"/>
</g>
<!-- index.js&#45;&gt;random&#45;take.js -->
<g id="edge64" class="edge">
<title>index.js&#45;&gt;random&#45;take.js</title>
<path fill="none" stroke="#242424" d="M2210.7611,-1704.2014C2105.3448,-1695.9699 1842.2059,-1675.6884 1621.8201,-1660.889 1476.5491,-1651.1338 424.0846,-1676.9709 313.8201,-1581.889 206.9477,-1489.7324 200.2187,-1312.1858 207.0918,-1206.7331"/>
<polygon fill="#242424" stroke="#242424" points="210.6052,-1206.6664 207.8204,-1196.4441 203.6226,-1206.1719 210.6052,-1206.6664"/>
</g>
<!-- index.js&#45;&gt;random&#45;word.js -->
<g id="edge65" class="edge">
<title>index.js&#45;&gt;random&#45;word.js</title>
<path fill="none" stroke="#242424" d="M2210.6151,-1704.4099C1936.2635,-1684.1394 559.0642,-1582.3657 557.8201,-1581.889 521.1174,-1567.8269 485.9116,-1542.4182 457.9151,-1518.2789"/>
<polygon fill="#242424" stroke="#242424" points="460.0374,-1515.4846 450.2145,-1511.5145 455.4176,-1520.7437 460.0374,-1515.4846"/>
</g>
<!-- index.js&#45;&gt;random.js -->
<g id="edge66" class="edge">
<title>index.js&#45;&gt;random.js</title>
<path fill="none" stroke="#242424" d="M2212.1311,-1695.9748C2155.1445,-1679.0601 2057.6967,-1643.1416 1995.8201,-1581.889 1977.6649,-1563.917 1964.0441,-1539.4399 1954.3328,-1517.0079"/>
<polygon fill="#242424" stroke="#242424" points="1957.4721,-1515.4409 1950.4084,-1507.5444 1951.006,-1518.1223 1957.4721,-1515.4409"/>
</g>
<!-- index.js&#45;&gt;range.js -->
<g id="edge67" class="edge">
<title>index.js&#45;&gt;range.js</title>
<path fill="none" stroke="#242424" d="M2210.9155,-1703.9393C2003.6556,-1686.2846 1178.2443,-1614.1794 1133.8201,-1581.889 1111.6967,-1565.8084 1098.1223,-1538.8931 1089.8928,-1514.2765"/>
<polygon fill="#242424" stroke="#242424" points="1093.2031,-1513.1347 1086.8906,-1504.6257 1086.5191,-1515.214 1093.2031,-1513.1347"/>
</g>
<!-- index.js&#45;&gt;reject.js -->
<g id="edge69" class="edge">
<title>index.js&#45;&gt;reject.js</title>
<path fill="none" stroke="#242424" d="M2211.0703,-1702.7087C2110.8729,-1690.5206 1869.1559,-1655.3772 1679.8201,-1581.889 1621.0899,-1559.0937 1559.4022,-1521.5887 1517.6185,-1493.8591"/>
<polygon fill="#242424" stroke="#242424" points="1519.531,-1490.9276 1509.2735,-1488.2751 1515.6381,-1496.7453 1519.531,-1490.9276"/>
</g>
<!-- index.js&#45;&gt;string.js -->
<g id="edge70" class="edge">
<title>index.js&#45;&gt;string.js</title>
<path fill="none" stroke="#242424" d="M2304.958,-1704.7795C2480.7489,-1692.6808 3090.898,-1646.2966 3146.8201,-1581.889 3246.3336,-1467.2756 3170.6116,-1271.3738 3124.126,-1176.6274"/>
<polygon fill="#242424" stroke="#242424" points="3127.1754,-1174.8991 3119.5869,-1167.5055 3120.9084,-1178.0177 3127.1754,-1174.8991"/>
</g>
<!-- index.js&#45;&gt;ternary.js -->
<g id="edge71" class="edge">
<title>index.js&#45;&gt;ternary.js</title>
<path fill="none" stroke="#242424" d="M2228.5399,-1670.7967C2195.1036,-1628.4297 2140.1496,-1558.798 2102.3112,-1510.8531"/>
<polygon fill="#242424" stroke="#242424" points="2104.8661,-1508.4409 2095.9235,-1502.7593 2099.3712,-1512.7775 2104.8661,-1508.4409"/>
</g>
<!-- index.js&#45;&gt;triplet.js -->
<g id="edge72" class="edge">
<title>index.js&#45;&gt;triplet.js</title>
<path fill="none" stroke="#242424" d="M2250.7833,-1661.2151C2235.8259,-1562.512 2201.8245,-1341.1107 2196.8201,-1334.671 2142.9612,-1265.365 2079.1576,-1316.4366 2015.8201,-1255.671 1995.8624,-1236.5237 1981.2179,-1209.9777 1970.9379,-1185.5944"/>
<polygon fill="#242424" stroke="#242424" points="1974.062,-1183.9833 1967.0726,-1176.021 1967.5711,-1186.6041 1974.062,-1183.9833"/>
</g>
<!-- index.js&#45;&gt;either.js -->
<g id="edge51" class="edge">
<title>index.js&#45;&gt;either.js</title>
<path fill="none" stroke="#242424" d="M2304.9753,-1705.1935C2489.9532,-1694.1306 3159.0152,-1649.6659 3222.8201,-1581.889 3325.023,-1473.3238 3295.389,-1279.1957 3271.6987,-1181.5991"/>
<polygon fill="#242424" stroke="#242424" points="3275.0947,-1180.7522 3269.2845,-1171.8927 3268.3017,-1182.4418 3275.0947,-1180.7522"/>
</g>
<!-- index.js&#45;&gt;flip.js -->
<g id="edge53" class="edge">
<title>index.js&#45;&gt;flip.js</title>
<path fill="none" stroke="#242424" d="M2305.0924,-1705.3893C2503.1407,-1694.4844 3259.6104,-1648.7211 3340.8201,-1581.889 3465.0581,-1479.6464 3485.6262,-1272.1453 3488.1456,-1174.7905"/>
<polygon fill="#242424" stroke="#242424" points="3491.6488,-1174.6669 3488.3533,-1164.5976 3484.6502,-1174.5242 3491.6488,-1174.6669"/>
</g>
<!-- index.js&#45;&gt;future.js -->
<g id="edge54" class="edge">
<title>index.js&#45;&gt;future.js</title>
<path fill="none" stroke="#242424" d="M2304.8292,-1705.2109C2494.9289,-1693.9295 3200.0887,-1647.895 3272.8201,-1581.889 3385.437,-1479.6858 3388.8039,-1283.4367 3382.208,-1183.6498"/>
<polygon fill="#242424" stroke="#242424" points="3385.6813,-1183.1504 3381.4747,-1173.4265 3378.6992,-1183.6513 3385.6813,-1183.1504"/>
</g>
<!-- length.js -->
<g id="node39" class="node">
<title>length.js</title>
<ellipse fill="none" stroke="#242424" stroke-width="4" cx="2976.8201" cy="-1458.28" rx="51.7142" ry="51.7142"/>
<text text-anchor="middle" x="2976.8201" y="-1455.88" font-family="Fira Code" font-size="12.00" fill="#242424">length.js</text>
</g>
<!-- index.js&#45;&gt;length.js -->
<g id="edge57" class="edge">
<title>index.js&#45;&gt;length.js</title>
<path fill="none" stroke="#242424" d="M2304.9873,-1704.281C2439.0304,-1693.1815 2818.7704,-1655.7877 2915.8201,-1581.889 2936.6538,-1566.0252 2950.8221,-1541.1393 2960.2168,-1517.8424"/>
<polygon fill="#242424" stroke="#242424" points="2963.5506,-1518.9223 2963.833,-1508.3313 2957.0075,-1516.4346 2963.5506,-1518.9223"/>
</g>
<!-- which.js -->
<g id="node40" class="node">
<title>which.js</title>
<ellipse fill="none" stroke="#242424" stroke-width="4" cx="2295.8201" cy="-1458.28" rx="47.0167" ry="47.0167"/>
<text text-anchor="middle" x="2295.8201" y="-1455.88" font-family="Fira Code" font-size="12.00" fill="#242424">which.js</text>
</g>
<!-- index.js&#45;&gt;which.js -->
<g id="edge74" class="edge">
<title>index.js&#45;&gt;which.js</title>
<path fill="none" stroke="#242424" d="M2264.923,-1661.2391C2271.2206,-1619.8707 2280.4361,-1559.3351 2287.1634,-1515.1449"/>
<polygon fill="#242424" stroke="#242424" points="2290.6426,-1515.5456 2288.6875,-1505.1327 2283.7223,-1514.492 2290.6426,-1515.5456"/>
</g>
<!-- length.js&#45;&gt;Ⓜ katsu&#45;curry/katsu&#45;curry.js -->
<g id="edge77" class="edge">
<title>length.js&#45;&gt;Ⓜ katsu&#45;curry/katsu&#45;curry.js</title>
<path fill="none" stroke="#242424" d="M2979.2997,-1406.7251C2988.5872,-1203.5548 3017.584,-465.474 2952.8201,-385.8153 2848.4273,-257.4138 2370.0075,-193.1175 2113.8455,-167.4054"/>
<polygon fill="#242424" stroke="#242424" points="2113.9967,-163.9032 2103.6992,-166.3954 2113.3033,-170.8688 2113.9967,-163.9032"/>
</g>
<!-- length.js&#45;&gt;object.js -->
<g id="edge78" class="edge">
<title>length.js&#45;&gt;object.js</title>
<path fill="none" stroke="#242424" d="M2962.9975,-1408.3178C2946.307,-1347.9899 2918.2594,-1246.6107 2900.4155,-1182.1137"/>
<polygon fill="#242424" stroke="#242424" points="2903.6824,-1180.7956 2897.6426,-1172.0909 2896.9358,-1182.6621 2903.6824,-1180.7956"/>
</g>
<!-- length.js&#45;&gt;path.js -->
<g id="edge79" class="edge">
<title>length.js&#45;&gt;path.js</title>
<path fill="none" stroke="#242424" d="M2958.4201,-1409.8591C2947.9913,-1385.8879 2933.484,-1357.3126 2915.8201,-1334.671 2882.4609,-1291.9112 2863.125,-1291.958 2822.8201,-1255.671 2787.4157,-1223.796 2748.2704,-1186.2516 2720.3957,-1159.1029"/>
<polygon fill="#242424" stroke="#242424" points="2722.8053,-1156.5639 2713.2036,-1152.0852 2717.9167,-1161.5741 2722.8053,-1156.5639"/>
</g>
<!-- which.js&#45;&gt;Ⓜ katsu&#45;curry/katsu&#45;curry.js -->
<g id="edge113" class="edge">
<title>which.js&#45;&gt;Ⓜ katsu&#45;curry/katsu&#45;curry.js</title>
<path fill="none" stroke="#242424" d="M2301.2057,-1411.3473C2309.7115,-1326.1294 2322.3497,-1140.6965 2291.8201,-988.5871 2240.7769,-734.2722 2113.0553,-459.4564 2029.233,-297.1075"/>
<polygon fill="#242424" stroke="#242424" points="2032.2339,-295.291 2024.5268,-288.0211 2026.0182,-298.5105 2032.2339,-295.291"/>
</g>
<!-- which.js&#45;&gt;Ⓜ fast.js/array/every.js -->
<g id="edge111" class="edge">
<title>which.js&#45;&gt;Ⓜ fast.js/array/every.js</title>
<path fill="none" stroke="#242424" d="M2272.631,-1417.0933C2255.1864,-1389.777 2228.8355,-1355.2881 2196.8201,-1334.671 2076.919,-1257.4576 2017.2759,-1310.9661 1885.8201,-1255.671 1851.9576,-1241.4272 1817.1779,-1222.4962 1785.5885,-1203.3781"/>
<polygon fill="#242424" stroke="#242424" points="1787.1242,-1200.2146 1776.7667,-1197.9845 1783.4728,-1206.1869 1787.1242,-1200.2146"/>
</g>
<!-- which.js&#45;&gt;Ⓜ fast.js/array/some.js -->
<g id="edge112" class="edge">
<title>which.js&#45;&gt;Ⓜ fast.js/array/some.js</title>
<path fill="none" stroke="#242424" d="M2277.4016,-1414.6788C2259.8074,-1373.0286 2232.4125,-1308.1777 2207.8822,-1250.1081"/>
<polygon fill="#242424" stroke="#242424" points="2211.0873,-1248.701 2203.9718,-1240.8511 2204.639,-1251.4249 2211.0873,-1248.701"/>
</g>
<!-- which.js&#45;&gt;triplet.js -->
<g id="edge115" class="edge">
<title>which.js&#45;&gt;triplet.js</title>
<path fill="none" stroke="#242424" d="M2282.8933,-1412.9892C2273.3851,-1386.9523 2258.0173,-1355.4007 2234.8201,-1334.671 2157.6657,-1265.7234 2092.7864,-1324.8284 2015.8201,-1255.671 1995.0716,-1237.0276 1980.2516,-1210.294 1970.0548,-1185.6368"/>
<polygon fill="#242424" stroke="#242424" points="1973.2996,-1184.3244 1966.3704,-1176.3096 1966.7891,-1186.8962 1973.2996,-1184.3244"/>
</g>
<!-- which.js&#45;&gt;flip.js -->
<g id="edge114" class="edge">
<title>which.js&#45;&gt;flip.js</title>
<path fill="none" stroke="#242424" d="M2316.1455,-1415.6393C2332.0133,-1387.4741 2356.8966,-1352.5705 2389.8201,-1334.671 2594.8111,-1223.223 3249.7592,-1395.1349 3436.8201,-1255.671 3462.3602,-1236.6295 3475.1102,-1203.1075 3481.4751,-1174.4145"/>
<polygon fill="#242424" stroke="#242424" points="3484.9289,-1174.9924 3483.4707,-1164.4984 3478.0665,-1173.6113 3484.9289,-1174.9924"/>
</g>
<!-- map&#45;performance.fixture.js -->
<g id="node41" class="node">
<title>map&#45;performance.fixture.js</title>
<ellipse fill="none" stroke="#242424" stroke-width="4" cx="3677.8201" cy="-1122.129" rx="129.5681" ry="129.5681"/>
<text text-anchor="middle" x="3677.8201" y="-1119.7291" font-family="Fira Code" font-size="12.00" fill="#242424">map&#45;performance.fixture.js</text>
</g>
<!-- map&#45;performance.fixture.js&#45;&gt;Ⓜ entrust/entrust.js -->
<g id="edge80" class="edge">
<title>map&#45;performance.fixture.js&#45;&gt;Ⓜ entrust/entrust.js</title>
<path fill="none" stroke="#242424" d="M3589.2084,-1026.9681C3573.321,-1012.9334 3556.2457,-999.5374 3538.8201,-988.5871 3453.6827,-935.0871 3415.7407,-956.5312 3326.8201,-909.5871 3305.9038,-898.5448 3284.5445,-885.1775 3264.5065,-871.546"/>
<polygon fill="#242424" stroke="#242424" points="3266.2265,-868.4809 3256.0048,-865.6938 3262.2574,-874.2469 3266.2265,-868.4809"/>
</g>
<!-- Ⓜ fast.js/index.js -->
<g id="node42" class="node">
<title>Ⓜ fast.js/index.js</title>
<ellipse fill="none" stroke="#0c821d" stroke-width="4" cx="3439.8201" cy="-795.911" rx="103.9872" ry="103.9872"/>
<text text-anchor="middle" x="3439.8201" y="-794.711" font-family="Fira Code" font-size="12.00" fill="#0c821d">Ⓜ fast.js/index.js</text>
</g>
<!-- map&#45;performance.fixture.js&#45;&gt;Ⓜ fast.js/index.js -->
<g id="edge81" class="edge">
<title>map&#45;performance.fixture.js&#45;&gt;Ⓜ fast.js/index.js</title>
<path fill="none" stroke="#242424" d="M3601.2053,-1017.1159C3570.8848,-975.5567 3536.3413,-928.2092 3507.0141,-888.0114"/>
<polygon fill="#242424" stroke="#242424" points="3509.7514,-885.825 3501.0301,-879.8093 3504.0965,-889.9507 3509.7514,-885.825"/>
</g>
<!-- Ⓜ ramda/src/curry.js -->
<g id="node43" class="node">
<title>Ⓜ ramda/src/curry.js</title>
<ellipse fill="none" stroke="#0c821d" stroke-width="4" cx="3674.8201" cy="-795.911" rx="113.8526" ry="113.8526"/>
<text text-anchor="middle" x="3674.8201" y="-794.711" font-family="Fira Code" font-size="12.00" fill="#0c821d">Ⓜ ramda/src/curry.js</text>
</g>
<!-- map&#45;performance.fixture.js&#45;&gt;Ⓜ ramda/src/curry.js -->
<g id="edge82" class="edge">
<title>map&#45;performance.fixture.js&#45;&gt;Ⓜ ramda/src/curry.js</title>
<path fill="none" stroke="#242424" d="M3676.6258,-992.2617C3676.4063,-968.3972 3676.1777,-943.5412 3675.9599,-919.8562"/>
<polygon fill="#242424" stroke="#242424" points="3679.4592,-919.7508 3675.8673,-909.7835 3672.4595,-919.8153 3679.4592,-919.7508"/>
</g>
<!-- Ⓜ ramda/src/map.js -->
<g id="node44" class="node">
<title>Ⓜ ramda/src/map.js</title>
<ellipse fill="none" stroke="#0c821d" stroke-width="4" cx="3909.8201" cy="-795.911" rx="103.9872" ry="103.9872"/>
<text text-anchor="middle" x="3909.8201" y="-794.711" font-family="Fira Code" font-size="12.00" fill="#0c821d">Ⓜ ramda/src/map.js</text>
</g>
<!-- map&#45;performance.fixture.js&#45;&gt;Ⓜ ramda/src/map.js -->
<g id="edge83" class="edge">
<title>map&#45;performance.fixture.js&#45;&gt;Ⓜ ramda/src/map.js</title>
<path fill="none" stroke="#242424" d="M3753.1438,-1016.2154C3782.2953,-975.2251 3815.3711,-928.7168 3843.5953,-889.0304"/>
<polygon fill="#242424" stroke="#242424" points="3846.5979,-890.8475 3849.5413,-880.6697 3840.8934,-886.7905 3846.5979,-890.8475"/>
</g>
<!-- Ⓜ testperf/index.js -->
<g id="node45" class="node">
<title>Ⓜ testperf/index.js</title>
<ellipse fill="none" stroke="#0c821d" stroke-width="4" cx="4139.8201" cy="-795.911" rx="108.9199" ry="108.9199"/>
<text text-anchor="middle" x="4139.8201" y="-794.711" font-family="Fira Code" font-size="12.00" fill="#0c821d">Ⓜ testperf/index.js</text>
</g>
<!-- map&#45;performance.fixture.js&#45;&gt;Ⓜ testperf/index.js -->
<g id="edge84" class="edge">
<title>map&#45;performance.fixture.js&#45;&gt;Ⓜ testperf/index.js</title>
<path fill="none" stroke="#242424" d="M3792.2465,-1060.0898C3861.4684,-1020.5334 3950.1045,-966.205 4022.8201,-909.5871 4034.077,-900.8223 4045.4341,-891.1052 4056.416,-881.15"/>
<polygon fill="#242424" stroke="#242424" points="4058.9549,-883.5704 4063.9531,-874.2287 4054.2202,-878.4145 4058.9549,-883.5704"/>
</g>
</g>
</svg>
