<?xml version="1.0" encoding="UTF-8" standalone="no"?>
<!DOCTYPE svg PUBLIC "-//W3C//DTD SVG 1.1//EN"
 "http://www.w3.org/Graphics/SVG/1.1/DTD/svg11.dtd">
<!-- Generated by graphviz version 2.40.1 (20161225.0304)
 -->
<!-- Title: G Pages: 1 -->
<svg width="3459pt" height="1741pt"
 viewBox="0.00 0.00 3459.23 1740.85" xmlns="http://www.w3.org/2000/svg" xmlns:xlink="http://www.w3.org/1999/xlink">
<g id="graph0" class="graph" transform="scale(1 1) rotate(0) translate(7.992 1732.8614)">
<title>G</title>
<polygon fill="#eeeeff" stroke="transparent" points="-7.992,7.992 -7.992,-1732.8614 3451.2332,-1732.8614 3451.2332,7.992 -7.992,7.992"/>
<!-- ../package.json -->
<g id="node1" class="node">
<title>../package.json</title>
<ellipse fill="none" stroke="#0c821d" stroke-width="4" cx="79.1988" cy="-1411.4226" rx="79.3981" ry="79.3981"/>
<text text-anchor="middle" x="79.1988" y="-1409.0226" font-family="Fira Code" font-size="12.00" fill="#0c821d">../package.json</text>
</g>
<!-- ap.js -->
<g id="node2" class="node">
<title>ap.js</title>
<ellipse fill="none" stroke="#242424" stroke-width="4" cx="1419.1988" cy="-1411.4226" rx="33.4262" ry="33.4262"/>
<text text-anchor="middle" x="1419.1988" y="-1409.0226" font-family="Fira Code" font-size="12.00" fill="#242424">ap.js</text>
</g>
<!-- ✪katsu&#45;curry/katsu&#45;curry.js -->
<g id="node3" class="node">
<title>✪katsu&#45;curry/katsu&#45;curry.js</title>
<ellipse fill="none" stroke="#0c821d" stroke-width="4" cx="901.1988" cy="-135.8316" rx="135.6633" ry="135.6633"/>
<text text-anchor="middle" x="901.1988" y="-133.4316" font-family="Fira Code" font-size="12.00" fill="#0c821d">✪katsu&#45;curry/katsu&#45;curry.js</text>
</g>
<!-- ap.js&#45;&gt;✪katsu&#45;curry/katsu&#45;curry.js -->
<g id="edge1" class="edge">
<title>ap.js&#45;&gt;✪katsu&#45;curry/katsu&#45;curry.js</title>
<path fill="none" stroke="#242424" d="M1420.9674,-1377.9665C1426.5054,-1278.5359 1444.7349,-989.7013 1471.1988,-957.1184 1541.4645,-870.6056 1643.9742,-968.4925 1709.1988,-878.1184 1758.3282,-810.0456 1737.0684,-768.4198 1709.1988,-689.2308 1677.1595,-598.1942 1514.7473,-408.1123 1437.1988,-350.6631 1317.9292,-262.3062 1157.3297,-204.2924 1043.1027,-171.0786"/>
<polygon fill="#242424" stroke="#242424" points="1043.8134,-167.6411 1033.2353,-168.2375 1041.8765,-174.3678 1043.8134,-167.6411"/>
</g>
<!-- map.js -->
<g id="node4" class="node">
<title>map.js</title>
<ellipse fill="none" stroke="#242424" stroke-width="4" cx="1226.1988" cy="-1074.5554" rx="37.623" ry="37.623"/>
<text text-anchor="middle" x="1226.1988" y="-1072.1554" font-family="Fira Code" font-size="12.00" fill="#242424">map.js</text>
</g>
<!-- ap.js&#45;&gt;map.js -->
<g id="edge2" class="edge">
<title>ap.js&#45;&gt;map.js</title>
<path fill="none" stroke="#242424" d="M1402.6869,-1382.3553C1386.5355,-1353.9423 1361.224,-1309.467 1339.1988,-1270.9924 1308.6431,-1217.6162 1273.2691,-1156.18 1250.3548,-1116.43"/>
<polygon fill="#242424" stroke="#242424" points="1253.262,-1114.465 1245.2351,-1107.5499 1247.1977,-1117.9613 1253.262,-1114.465"/>
</g>
<!-- reduce.js -->
<g id="node5" class="node">
<title>reduce.js</title>
<ellipse fill="none" stroke="#242424" stroke-width="4" cx="1372.1988" cy="-1074.5554" rx="51.7142" ry="51.7142"/>
<text text-anchor="middle" x="1372.1988" y="-1072.1554" font-family="Fira Code" font-size="12.00" fill="#242424">reduce.js</text>
</g>
<!-- ap.js&#45;&gt;reduce.js -->
<g id="edge3" class="edge">
<title>ap.js&#45;&gt;reduce.js</title>
<path fill="none" stroke="#242424" d="M1414.6067,-1378.509C1406.7801,-1322.4127 1390.7395,-1207.4433 1380.7845,-1136.0921"/>
<polygon fill="#242424" stroke="#242424" points="1384.2099,-1135.314 1379.3616,-1125.8936 1377.277,-1136.2813 1384.2099,-1135.314"/>
</g>
<!-- types.js -->
<g id="node6" class="node">
<title>types.js</title>
<ellipse fill="none" stroke="#242424" stroke-width="4" cx="1809.1988" cy="-1074.5554" rx="47.0167" ry="47.0167"/>
<text text-anchor="middle" x="1809.1988" y="-1072.1554" font-family="Fira Code" font-size="12.00" fill="#242424">types.js</text>
</g>
<!-- ap.js&#45;&gt;types.js -->
<g id="edge4" class="edge">
<title>ap.js&#45;&gt;types.js</title>
<path fill="none" stroke="#242424" d="M1437.0325,-1383.3379C1457.8782,-1352.3801 1494.9517,-1302.7661 1537.1988,-1270.9924 1606.3714,-1218.9682 1646.6507,-1244.8366 1715.1988,-1191.9924 1739.8825,-1172.9635 1761.9808,-1146.1541 1778.5397,-1122.954"/>
<polygon fill="#242424" stroke="#242424" points="1781.5248,-1124.7927 1784.3843,-1114.591 1775.7871,-1120.7828 1781.5248,-1124.7927"/>
</g>
<!-- map.js&#45;&gt;✪katsu&#45;curry/katsu&#45;curry.js -->
<g id="edge56" class="edge">
<title>map.js&#45;&gt;✪katsu&#45;curry/katsu&#45;curry.js</title>
<path fill="none" stroke="#242424" d="M1235.5306,-1037.8682C1243.459,-1012.7035 1256.9949,-979.8765 1278.1988,-957.1184 1329.2941,-902.2782 1388.5566,-942.3442 1427.1988,-878.1184 1488.599,-776.0673 1408.0988,-442.4432 1332.1988,-350.6631 1258.0853,-261.0432 1137.2668,-205.3886 1042.3782,-173.2477"/>
<polygon fill="#242424" stroke="#242424" points="1043.2902,-169.8624 1032.6965,-170.019 1041.0757,-176.5029 1043.2902,-169.8624"/>
</g>
<!-- ✪fast.js/map.js -->
<g id="node41" class="node">
<title>✪fast.js/map.js</title>
<ellipse fill="none" stroke="#0c821d" stroke-width="4" cx="1337.1988" cy="-783.6746" rx="80.796" ry="80.796"/>
<text text-anchor="middle" x="1337.1988" y="-781.2746" font-family="Fira Code" font-size="12.00" fill="#0c821d">✪fast.js/map.js</text>
</g>
<!-- map.js&#45;&gt;✪fast.js/map.js -->
<g id="edge55" class="edge">
<title>map.js&#45;&gt;✪fast.js/map.js</title>
<path fill="none" stroke="#242424" d="M1239.6986,-1039.1785C1255.7287,-997.1708 1283.0164,-925.6623 1304.6536,-868.9609"/>
<polygon fill="#242424" stroke="#242424" points="1308.0535,-869.8682 1308.3488,-859.2775 1301.5135,-867.3725 1308.0535,-869.8682"/>
</g>
<!-- delegate&#45;fast.js -->
<g id="node12" class="node">
<title>delegate&#45;fast.js</title>
<ellipse fill="none" stroke="#242424" stroke-width="4" cx="1766.1988" cy="-480.447" rx="83.5954" ry="83.5954"/>
<text text-anchor="middle" x="1766.1988" y="-478.047" font-family="Fira Code" font-size="12.00" fill="#242424">delegate&#45;fast.js</text>
</g>
<!-- reduce.js&#45;&gt;delegate&#45;fast.js -->
<g id="edge73" class="edge">
<title>reduce.js&#45;&gt;delegate&#45;fast.js</title>
<path fill="none" stroke="#242424" d="M1400.0915,-1030.77C1417.8034,-1006.0811 1442.7192,-976.412 1471.1988,-957.1184 1563.4712,-894.6081 1637.7118,-963.6247 1709.1988,-878.1184 1779.8428,-793.6205 1785.0219,-662.0515 1778.6199,-573.6352"/>
<polygon fill="#242424" stroke="#242424" points="1782.1048,-573.3047 1777.8312,-563.6101 1775.1264,-573.8538 1782.1048,-573.3047"/>
</g>
<!-- ✪fast.js/reduce.js -->
<g id="node42" class="node">
<title>✪fast.js/reduce.js</title>
<ellipse fill="none" stroke="#0c821d" stroke-width="4" cx="1606.1988" cy="-783.6746" rx="94.3876" ry="94.3876"/>
<text text-anchor="middle" x="1606.1988" y="-781.2746" font-family="Fira Code" font-size="12.00" fill="#0c821d">✪fast.js/reduce.js</text>
</g>
<!-- reduce.js&#45;&gt;✪fast.js/reduce.js -->
<g id="edge72" class="edge">
<title>reduce.js&#45;&gt;✪fast.js/reduce.js</title>
<path fill="none" stroke="#242424" d="M1394.8255,-1027.9723C1406.5199,-1005.6955 1421.7715,-979.1483 1438.1988,-957.1184 1465.1109,-921.028 1499.008,-884.6951 1529.2938,-854.6743"/>
<polygon fill="#242424" stroke="#242424" points="1531.8307,-857.0883 1536.5027,-847.5792 1526.9204,-852.0993 1531.8307,-857.0883"/>
</g>
<!-- types.js&#45;&gt;✪katsu&#45;curry/katsu&#45;curry.js -->
<g id="edge79" class="edge">
<title>types.js&#45;&gt;✪katsu&#45;curry/katsu&#45;curry.js</title>
<path fill="none" stroke="#242424" d="M1820.1116,-1028.7602C1852.8589,-886.4741 1942.9983,-455.3359 1859.1988,-350.6631 1759.1032,-225.635 1289.7173,-168.4008 1047.1616,-146.8028"/>
<polygon fill="#242424" stroke="#242424" points="1047.1206,-143.2857 1036.8519,-145.8941 1046.5059,-150.2587 1047.1206,-143.2857"/>
</g>
<!-- array.js -->
<g id="node7" class="node">
<title>array.js</title>
<ellipse fill="none" stroke="#242424" stroke-width="4" cx="1085.1988" cy="-1074.5554" rx="47.0167" ry="47.0167"/>
<text text-anchor="middle" x="1085.1988" y="-1072.1554" font-family="Fira Code" font-size="12.00" fill="#242424">array.js</text>
</g>
<!-- array.js&#45;&gt;✪katsu&#45;curry/katsu&#45;curry.js -->
<g id="edge6" class="edge">
<title>array.js&#45;&gt;✪katsu&#45;curry/katsu&#45;curry.js</title>
<path fill="none" stroke="#242424" d="M1083.2421,-1027.4456C1077.4052,-910.6268 1055.7991,-599.0957 984.1988,-350.6631 976.6545,-324.4864 967.2468,-297.0262 957.502,-270.8198"/>
<polygon fill="#242424" stroke="#242424" points="960.6916,-269.3574 953.8994,-261.2262 954.1384,-271.8184 960.6916,-269.3574"/>
</g>
<!-- ✪entrust/entrust.js -->
<g id="node8" class="node">
<title>✪entrust/entrust.js</title>
<ellipse fill="none" stroke="#0c821d" stroke-width="4" cx="2526.1988" cy="-135.8316" rx="99.0849" ry="99.0849"/>
<text text-anchor="middle" x="2526.1988" y="-133.4316" font-family="Fira Code" font-size="12.00" fill="#0c821d">✪entrust/entrust.js</text>
</g>
<!-- array.js&#45;&gt;✪entrust/entrust.js -->
<g id="edge5" class="edge">
<title>array.js&#45;&gt;✪entrust/entrust.js</title>
<path fill="none" stroke="#242424" d="M1084.4999,-1027.3244C1082.6947,-874.5242 1080.8317,-400.5929 1126.1988,-350.6631 1213.2066,-254.9045 2103.4022,-171.3942 2417.3322,-144.7155"/>
<polygon fill="#242424" stroke="#242424" points="2417.6845,-148.1983 2427.3534,-143.8666 2417.0936,-141.2233 2417.6845,-148.1983"/>
</g>
<!-- filter.js -->
<g id="node9" class="node">
<title>filter.js</title>
<ellipse fill="none" stroke="#242424" stroke-width="4" cx="1187.1988" cy="-783.6746" rx="51.7142" ry="51.7142"/>
<text text-anchor="middle" x="1187.1988" y="-781.2746" font-family="Fira Code" font-size="12.00" fill="#242424">filter.js</text>
</g>
<!-- array.js&#45;&gt;filter.js -->
<g id="edge7" class="edge">
<title>array.js&#45;&gt;filter.js</title>
<path fill="none" stroke="#242424" d="M1100.8014,-1030.0602C1118.4379,-979.765 1147.2184,-897.6896 1166.6668,-842.2273"/>
<polygon fill="#242424" stroke="#242424" points="1170.0583,-843.1325 1170.0645,-832.5377 1163.4526,-840.8161 1170.0583,-843.1325"/>
</g>
<!-- filter.js&#45;&gt;delegate&#45;fast.js -->
<g id="edge15" class="edge">
<title>filter.js&#45;&gt;delegate&#45;fast.js</title>
<path fill="none" stroke="#242424" d="M1209.3901,-736.502C1219.0964,-719.8102 1231.814,-702.0231 1247.1988,-689.2308 1374.6014,-583.2971 1562.6886,-525.8325 1673.9988,-499.2819"/>
<polygon fill="#242424" stroke="#242424" points="1674.9304,-502.6584 1683.8636,-496.9619 1673.3278,-495.8443 1674.9304,-502.6584"/>
</g>
<!-- ✪fast.js/filter.js -->
<g id="node15" class="node">
<title>✪fast.js/filter.js</title>
<ellipse fill="none" stroke="#0c821d" stroke-width="4" cx="1229.1988" cy="-480.447" rx="94.3876" ry="94.3876"/>
<text text-anchor="middle" x="1229.1988" y="-478.047" font-family="Fira Code" font-size="12.00" fill="#0c821d">✪fast.js/filter.js</text>
</g>
<!-- filter.js&#45;&gt;✪fast.js/filter.js -->
<g id="edge14" class="edge">
<title>filter.js&#45;&gt;✪fast.js/filter.js</title>
<path fill="none" stroke="#242424" d="M1194.3235,-732.2362C1199.9178,-691.8471 1207.89,-634.2906 1214.8004,-584.3994"/>
<polygon fill="#242424" stroke="#242424" points="1218.3072,-584.5908 1216.2124,-574.2051 1211.3734,-583.6303 1218.3072,-584.5908"/>
</g>
<!-- chain.js -->
<g id="node10" class="node">
<title>chain.js</title>
<ellipse fill="none" stroke="#242424" stroke-width="4" cx="1593.1988" cy="-1411.4226" rx="47.0167" ry="47.0167"/>
<text text-anchor="middle" x="1593.1988" y="-1409.0226" font-family="Fira Code" font-size="12.00" fill="#242424">chain.js</text>
</g>
<!-- ✪flatmap&#45;fast/index.js -->
<g id="node11" class="node">
<title>✪flatmap&#45;fast/index.js</title>
<ellipse fill="none" stroke="#0c821d" stroke-width="4" cx="1593.1988" cy="-1074.5554" rx="112.6769" ry="112.6769"/>
<text text-anchor="middle" x="1593.1988" y="-1072.1554" font-family="Fira Code" font-size="12.00" fill="#0c821d">✪flatmap&#45;fast/index.js</text>
</g>
<!-- chain.js&#45;&gt;✪flatmap&#45;fast/index.js -->
<g id="edge8" class="edge">
<title>chain.js&#45;&gt;✪flatmap&#45;fast/index.js</title>
<path fill="none" stroke="#242424" d="M1593.1988,-1364.2279C1593.1988,-1321.1815 1593.1988,-1255.6602 1593.1988,-1197.8147"/>
<polygon fill="#242424" stroke="#242424" points="1596.6989,-1197.4849 1593.1988,-1187.4849 1589.6989,-1197.4849 1596.6989,-1197.4849"/>
</g>
<!-- chain.js&#45;&gt;delegate&#45;fast.js -->
<g id="edge9" class="edge">
<title>chain.js&#45;&gt;delegate&#45;fast.js</title>
<path fill="none" stroke="#242424" d="M1605.3674,-1365.8606C1614.0845,-1337.3976 1627.4257,-1300.6523 1645.1988,-1270.9924 1669.3118,-1230.7524 1695.6835,-1234.652 1715.1988,-1191.9924 1744.4735,-1127.9991 1751.7277,-948.2769 1757.1988,-878.1184 1765.2824,-774.4592 1766.9707,-655.1776 1766.9901,-574.5046"/>
<polygon fill="#242424" stroke="#242424" points="1770.4901,-574.3674 1766.9838,-564.3696 1763.4901,-574.3718 1770.4901,-574.3674"/>
</g>
<!-- delegate&#45;fast.js&#45;&gt;✪katsu&#45;curry/katsu&#45;curry.js -->
<g id="edge12" class="edge">
<title>delegate&#45;fast.js&#45;&gt;✪katsu&#45;curry/katsu&#45;curry.js</title>
<path fill="none" stroke="#242424" d="M1723.9853,-407.5968C1708.7564,-386.6317 1689.8914,-365.4582 1668.1988,-350.6631 1477.8289,-220.8242 1210.3133,-168.9913 1046.7433,-148.6254"/>
<polygon fill="#242424" stroke="#242424" points="1046.9583,-145.1257 1036.6076,-147.3871 1046.1094,-152.0741 1046.9583,-145.1257"/>
</g>
<!-- delegate&#45;fast.js&#45;&gt;✪entrust/entrust.js -->
<g id="edge11" class="edge">
<title>delegate&#45;fast.js&#45;&gt;✪entrust/entrust.js</title>
<path fill="none" stroke="#242424" d="M1842.5502,-445.8261C1980.8119,-383.1325 2272.5452,-250.8486 2426.3902,-181.0889"/>
<polygon fill="#242424" stroke="#242424" points="2428.2074,-184.108 2435.8695,-176.7906 2425.3166,-177.7328 2428.2074,-184.108"/>
</g>
<!-- choice.js -->
<g id="node13" class="node">
<title>choice.js</title>
<ellipse fill="none" stroke="#242424" stroke-width="4" cx="144.1988" cy="-480.447" rx="51.7142" ry="51.7142"/>
<text text-anchor="middle" x="144.1988" y="-478.047" font-family="Fira Code" font-size="12.00" fill="#242424">choice.js</text>
</g>
<!-- choice.js&#45;&gt;✪katsu&#45;curry/katsu&#45;curry.js -->
<g id="edge10" class="edge">
<title>choice.js&#45;&gt;✪katsu&#45;curry/katsu&#45;curry.js</title>
<path fill="none" stroke="#242424" d="M158.7734,-430.8853C169.0991,-403.7219 185.5667,-371.4477 210.1988,-350.6631 366.4732,-218.7987 603.35,-167.7694 755.169,-148.0902"/>
<polygon fill="#242424" stroke="#242424" points="756.016,-151.511 765.4973,-146.7828 755.1369,-144.5664 756.016,-151.511"/>
</g>
<!-- either.js -->
<g id="node14" class="node">
<title>either.js</title>
<ellipse fill="none" stroke="#242424" stroke-width="4" cx="2606.1988" cy="-480.447" rx="51.7142" ry="51.7142"/>
<text text-anchor="middle" x="2606.1988" y="-478.047" font-family="Fira Code" font-size="12.00" fill="#242424">either.js</text>
</g>
<!-- either.js&#45;&gt;✪entrust/entrust.js -->
<g id="edge13" class="edge">
<title>either.js&#45;&gt;✪entrust/entrust.js</title>
<path fill="none" stroke="#242424" d="M2594.4804,-429.9679C2583.0897,-380.9002 2565.4345,-304.8467 2550.9304,-242.3678"/>
<polygon fill="#242424" stroke="#242424" points="2554.3019,-241.4126 2548.6311,-232.4631 2547.4832,-242.9956 2554.3019,-241.4126"/>
</g>
<!-- flip.js -->
<g id="node16" class="node">
<title>flip.js</title>
<ellipse fill="none" stroke="#242424" stroke-width="4" cx="1916.1988" cy="-1074.5554" rx="42.3196" ry="42.3196"/>
<text text-anchor="middle" x="1916.1988" y="-1072.1554" font-family="Fira Code" font-size="12.00" fill="#242424">flip.js</text>
</g>
<!-- flip.js&#45;&gt;✪katsu&#45;curry/katsu&#45;curry.js -->
<g id="edge16" class="edge">
<title>flip.js&#45;&gt;✪katsu&#45;curry/katsu&#45;curry.js</title>
<path fill="none" stroke="#242424" d="M1921.1379,-1032.2962C1936.4087,-893.4483 1976.816,-454.2533 1890.1988,-350.6631 1783.6868,-223.2796 1295.3579,-166.8887 1047.0624,-146.0978"/>
<polygon fill="#242424" stroke="#242424" points="1047.1322,-142.5916 1036.8773,-145.2536 1046.554,-149.5677 1047.1322,-142.5916"/>
</g>
<!-- future.js -->
<g id="node17" class="node">
<title>future.js</title>
<ellipse fill="none" stroke="#242424" stroke-width="4" cx="2727.1988" cy="-480.447" rx="51.7142" ry="51.7142"/>
<text text-anchor="middle" x="2727.1988" y="-478.047" font-family="Fira Code" font-size="12.00" fill="#242424">future.js</text>
</g>
<!-- future.js&#45;&gt;✪entrust/entrust.js -->
<g id="edge17" class="edge">
<title>future.js&#45;&gt;✪entrust/entrust.js</title>
<path fill="none" stroke="#242424" d="M2707.1761,-432.7578C2696.2175,-407.8555 2681.9016,-377.139 2667.1988,-350.6631 2643.6897,-308.3295 2614.7687,-263.2744 2589.2512,-225.4157"/>
<polygon fill="#242424" stroke="#242424" points="2592.0275,-223.2732 2583.5237,-216.9537 2586.2305,-227.1969 2592.0275,-223.2732"/>
</g>
<!-- index.js -->
<g id="node18" class="node">
<title>index.js</title>
<ellipse fill="none" stroke="#242424" stroke-width="4" cx="1179.1988" cy="-1677.8611" rx="47.0167" ry="47.0167"/>
<text text-anchor="middle" x="1179.1988" y="-1675.4611" font-family="Fira Code" font-size="12.00" fill="#242424">index.js</text>
</g>
<!-- index.js&#45;&gt;../package.json -->
<g id="edge20" class="edge">
<title>index.js&#45;&gt;../package.json</title>
<path fill="none" stroke="#242424" d="M1132.1457,-1677.0918C955.8327,-1673.4411 336.0573,-1653.4848 172.1988,-1551.8528 149.2825,-1537.639 130.8082,-1515.4428 116.5495,-1492.8595"/>
<polygon fill="#242424" stroke="#242424" points="119.4733,-1490.9312 111.2906,-1484.2011 113.4904,-1494.5651 119.4733,-1490.9312"/>
</g>
<!-- index.js&#45;&gt;ap.js -->
<g id="edge21" class="edge">
<title>index.js&#45;&gt;ap.js</title>
<path fill="none" stroke="#242424" d="M1222.9371,-1659.7466C1266.6337,-1639.5343 1332.8164,-1602.8404 1372.1988,-1551.8528 1394.1296,-1523.4594 1406.1168,-1484.2934 1412.4845,-1454.536"/>
<polygon fill="#242424" stroke="#242424" points="1415.9753,-1454.9289 1414.5095,-1444.4359 1409.1119,-1453.5527 1415.9753,-1454.9289"/>
</g>
<!-- index.js&#45;&gt;✪katsu&#45;curry/katsu&#45;curry.js -->
<g id="edge18" class="edge">
<title>index.js&#45;&gt;✪katsu&#45;curry/katsu&#45;curry.js</title>
<path fill="none" stroke="#242424" d="M1132.2594,-1674.6289C955.7202,-1662.0303 338.5714,-1613.8341 278.1988,-1551.8528 203.7191,-1475.3885 224.1988,-1181.2981 224.1988,-1074.5554 224.1988,-1074.5554 224.1988,-1074.5554 224.1988,-783.6746 224.1988,-687.08 202.4423,-426.5556 262.1988,-350.6631 324.1821,-271.9426 589.0815,-202.4251 757.7487,-165.0124"/>
<polygon fill="#242424" stroke="#242424" points="758.7001,-168.3867 767.7115,-162.8149 757.1923,-161.551 758.7001,-168.3867"/>
</g>
<!-- index.js&#45;&gt;map.js -->
<g id="edge31" class="edge">
<title>index.js&#45;&gt;map.js</title>
<path fill="none" stroke="#242424" d="M1182.8868,-1630.5207C1191.6481,-1518.0582 1213.6355,-1235.8221 1222.4538,-1122.6273"/>
<polygon fill="#242424" stroke="#242424" points="1225.953,-1122.7722 1223.2404,-1112.5306 1218.9742,-1122.2285 1225.953,-1122.7722"/>
</g>
<!-- index.js&#45;&gt;reduce.js -->
<g id="edge41" class="edge">
<title>index.js&#45;&gt;reduce.js</title>
<path fill="none" stroke="#242424" d="M1221.9322,-1657.3217C1259.9872,-1636.5082 1313.4998,-1600.4587 1339.1988,-1551.8528 1376.424,-1481.4468 1376.397,-1248.7011 1374.0396,-1136.331"/>
<polygon fill="#242424" stroke="#242424" points="1377.5352,-1136.087 1373.8131,-1126.1675 1370.5369,-1136.243 1377.5352,-1136.087"/>
</g>
<!-- index.js&#45;&gt;types.js -->
<g id="edge46" class="edge">
<title>index.js&#45;&gt;types.js</title>
<path fill="none" stroke="#242424" d="M1225.9982,-1671.0263C1332.2475,-1654.6345 1587.2701,-1610.0851 1649.1988,-1551.8528 1769.7253,-1438.5204 1799.4909,-1231.8126 1806.8197,-1131.7931"/>
<polygon fill="#242424" stroke="#242424" points="1810.3274,-1131.7991 1807.5166,-1121.584 1803.3436,-1131.3224 1810.3274,-1131.7991"/>
</g>
<!-- index.js&#45;&gt;array.js -->
<g id="edge22" class="edge">
<title>index.js&#45;&gt;array.js</title>
<path fill="none" stroke="#242424" d="M1165.8585,-1632.6924C1159.1943,-1608.8247 1151.4533,-1578.9371 1146.1988,-1551.8528 1117.0147,-1401.423 1098.335,-1221.5179 1090.0897,-1131.6092"/>
<polygon fill="#242424" stroke="#242424" points="1093.5729,-1131.2645 1089.1829,-1121.6219 1086.6015,-1131.8975 1093.5729,-1131.2645"/>
</g>
<!-- index.js&#45;&gt;filter.js -->
<g id="edge26" class="edge">
<title>index.js&#45;&gt;filter.js</title>
<path fill="none" stroke="#242424" d="M1178.4461,-1630.6288C1176.7751,-1515.4698 1173.3454,-1211.0627 1179.1988,-957.1184 1180.0549,-919.9761 1181.941,-878.3953 1183.6669,-845.259"/>
<polygon fill="#242424" stroke="#242424" points="1187.1626,-845.4317 1184.196,-835.2607 1180.1723,-845.0617 1187.1626,-845.4317"/>
</g>
<!-- index.js&#45;&gt;chain.js -->
<g id="edge23" class="edge">
<title>index.js&#45;&gt;chain.js</title>
<path fill="none" stroke="#242424" d="M1224.3113,-1663.9214C1282.5094,-1644.6007 1385.2757,-1605.8577 1461.1988,-1551.8528 1498.6174,-1525.2365 1533.8516,-1486.8001 1558.4901,-1456.8657"/>
<polygon fill="#242424" stroke="#242424" points="1561.2441,-1459.0265 1564.8354,-1449.0589 1555.8121,-1454.6113 1561.2441,-1459.0265"/>
</g>
<!-- index.js&#45;&gt;choice.js -->
<g id="edge24" class="edge">
<title>index.js&#45;&gt;choice.js</title>
<path fill="none" stroke="#242424" d="M1132.1488,-1675.2057C946.7942,-1664.2874 274.0465,-1620.1823 210.1988,-1551.8528 175.5601,-1514.7825 152.0898,-765.3233 145.8557,-542.4412"/>
<polygon fill="#242424" stroke="#242424" points="149.3484,-542.1296 145.5718,-532.2307 142.3511,-542.3241 149.3484,-542.1296"/>
</g>
<!-- index.js&#45;&gt;either.js -->
<g id="edge25" class="edge">
<title>index.js&#45;&gt;either.js</title>
<path fill="none" stroke="#242424" d="M1226.1406,-1675.2232C1436.8054,-1663.0858 2289.1826,-1610.6834 2392.1988,-1551.8528 2564.9082,-1453.2216 2595.9621,-1380.8924 2658.1988,-1191.9924 2734.6165,-960.0504 2662.4832,-663.3234 2625.2878,-539.1761"/>
<polygon fill="#242424" stroke="#242424" points="2628.5973,-538.0286 2622.3465,-529.4743 2621.8985,-540.0597 2628.5973,-538.0286"/>
</g>
<!-- index.js&#45;&gt;flip.js -->
<g id="edge27" class="edge">
<title>index.js&#45;&gt;flip.js</title>
<path fill="none" stroke="#242424" d="M1226.2444,-1672.7955C1345.3512,-1659.1072 1654.7828,-1617.8978 1731.1988,-1551.8528 1860.7538,-1439.8806 1900.089,-1226.0744 1911.6216,-1127.1592"/>
<polygon fill="#242424" stroke="#242424" points="1915.1135,-1127.4254 1912.7443,-1117.0989 1908.1567,-1126.649 1915.1135,-1127.4254"/>
</g>
<!-- index.js&#45;&gt;future.js -->
<g id="edge28" class="edge">
<title>index.js&#45;&gt;future.js</title>
<path fill="none" stroke="#242424" d="M1226.2458,-1676.2335C1451.9461,-1668.0586 2417.2878,-1628.7965 2525.1988,-1551.8528 2853.406,-1317.8315 2775.3497,-731.7493 2739.8228,-541.2806"/>
<polygon fill="#242424" stroke="#242424" points="2743.2084,-540.3474 2737.9079,-531.1738 2736.3307,-541.6506 2743.2084,-540.3474"/>
</g>
<!-- ✪katsu&#45;curry/utils/length.js -->
<g id="node19" class="node">
<title>✪katsu&#45;curry/utils/length.js</title>
<ellipse fill="none" stroke="#0c821d" stroke-width="4" cx="2895.1988" cy="-1411.4226" rx="140.3604" ry="140.3604"/>
<text text-anchor="middle" x="2895.1988" y="-1409.0226" font-family="Fira Code" font-size="12.00" fill="#0c821d">✪katsu&#45;curry/utils/length.js</text>
</g>
<!-- index.js&#45;&gt;✪katsu&#45;curry/utils/length.js -->
<g id="edge19" class="edge">
<title>index.js&#45;&gt;✪katsu&#45;curry/utils/length.js</title>
<path fill="none" stroke="#242424" d="M1226.4688,-1675.8692C1472.3244,-1665.2669 2599.0492,-1613.6218 2741.1988,-1551.8528 2759.0023,-1544.1165 2776.107,-1533.4555 2792.0241,-1521.4352"/>
<polygon fill="#242424" stroke="#242424" points="2794.5013,-1523.942 2800.2368,-1515.0338 2790.198,-1518.421 2794.5013,-1523.942"/>
</g>
<!-- invert.js -->
<g id="node20" class="node">
<title>invert.js</title>
<ellipse fill="none" stroke="#242424" stroke-width="4" cx="821.1988" cy="-783.6746" rx="51.7142" ry="51.7142"/>
<text text-anchor="middle" x="821.1988" y="-781.2746" font-family="Fira Code" font-size="12.00" fill="#242424">invert.js</text>
</g>
<!-- index.js&#45;&gt;invert.js -->
<g id="edge29" class="edge">
<title>index.js&#45;&gt;invert.js</title>
<path fill="none" stroke="#242424" d="M1132.3054,-1672.4512C1065.6045,-1662.0261 945.023,-1632.5132 887.1988,-1551.8528 848.5721,-1497.9714 845.2876,-1023.1347 839.1988,-957.1184 835.772,-919.964 831.4726,-878.3828 827.9352,-845.2493"/>
<polygon fill="#242424" stroke="#242424" points="831.4095,-844.8219 826.8636,-835.2519 824.4494,-845.568 831.4095,-844.8219"/>
</g>
<!-- iterate.js -->
<g id="node21" class="node">
<title>iterate.js</title>
<ellipse fill="none" stroke="#242424" stroke-width="4" cx="519.1988" cy="-783.6746" rx="56.412" ry="56.412"/>
<text text-anchor="middle" x="519.1988" y="-781.2746" font-family="Fira Code" font-size="12.00" fill="#242424">iterate.js</text>
</g>
<!-- index.js&#45;&gt;iterate.js -->
<g id="edge30" class="edge">
<title>index.js&#45;&gt;iterate.js</title>
<path fill="none" stroke="#242424" d="M1133.1181,-1668.5332C1043.2331,-1649.3785 849.5735,-1603.0817 807.1988,-1551.8528 767.0364,-1503.2984 778.1638,-1333.2117 768.1988,-1270.9924 745.777,-1130.9954 790.9011,-1074.3764 711.1988,-957.1184 673.8306,-902.1422 632.2787,-924.0214 584.1988,-878.1184 572.8614,-867.2943 562.3483,-854.1925 553.2252,-841.2385"/>
<polygon fill="#242424" stroke="#242424" points="555.9699,-839.0517 547.4361,-832.7727 550.1917,-843.003 555.9699,-839.0517"/>
</g>
<!-- math.js -->
<g id="node22" class="node">
<title>math.js</title>
<ellipse fill="none" stroke="#242424" stroke-width="4" cx="416.1988" cy="-1074.5554" rx="42.3196" ry="42.3196"/>
<text text-anchor="middle" x="416.1988" y="-1072.1554" font-family="Fira Code" font-size="12.00" fill="#242424">math.js</text>
</g>
<!-- index.js&#45;&gt;math.js -->
<g id="edge32" class="edge">
<title>index.js&#45;&gt;math.js</title>
<path fill="none" stroke="#242424" d="M1131.954,-1677.0318C984.8004,-1673.3847 539.0479,-1653.9532 447.1988,-1551.8528 339.9229,-1432.6036 376.8869,-1221.5675 401.4958,-1125.1531"/>
<polygon fill="#242424" stroke="#242424" points="404.9137,-1125.9168 404.0551,-1115.3568 398.141,-1124.1474 404.9137,-1125.9168"/>
</g>
<!-- object.js -->
<g id="node23" class="node">
<title>object.js</title>
<ellipse fill="none" stroke="#242424" stroke-width="4" cx="1278.1988" cy="-1411.4226" rx="51.7142" ry="51.7142"/>
<text text-anchor="middle" x="1278.1988" y="-1409.0226" font-family="Fira Code" font-size="12.00" fill="#242424">object.js</text>
</g>
<!-- index.js&#45;&gt;object.js -->
<g id="edge33" class="edge">
<title>index.js&#45;&gt;object.js</title>
<path fill="none" stroke="#242424" d="M1195.6578,-1633.5651C1212.3587,-1588.6179 1238.2947,-1518.8164 1256.6301,-1469.4705"/>
<polygon fill="#242424" stroke="#242424" points="1259.9886,-1470.4803 1260.1908,-1459.8874 1253.4269,-1468.0422 1259.9886,-1470.4803"/>
</g>
<!-- path.js -->
<g id="node24" class="node">
<title>path.js</title>
<ellipse fill="none" stroke="#242424" stroke-width="4" cx="498.1988" cy="-1411.4226" rx="42.3196" ry="42.3196"/>
<text text-anchor="middle" x="498.1988" y="-1409.0226" font-family="Fira Code" font-size="12.00" fill="#242424">path.js</text>
</g>
<!-- index.js&#45;&gt;path.js -->
<g id="edge34" class="edge">
<title>index.js&#45;&gt;path.js</title>
<path fill="none" stroke="#242424" d="M1132.1306,-1673.5143C1004.6733,-1660.9293 656.4225,-1620.8964 567.1988,-1551.8528 538.7025,-1529.8015 521.2119,-1492.9001 510.9725,-1462.4577"/>
<polygon fill="#242424" stroke="#242424" points="514.2737,-1461.2895 507.898,-1452.8277 507.6053,-1463.4185 514.2737,-1461.2895"/>
</g>
<!-- random&#45;floor.js -->
<g id="node25" class="node">
<title>random&#45;floor.js</title>
<ellipse fill="none" stroke="#242424" stroke-width="4" cx="672.1988" cy="-783.6746" rx="79.3981" ry="79.3981"/>
<text text-anchor="middle" x="672.1988" y="-781.2746" font-family="Fira Code" font-size="12.00" fill="#242424">random&#45;floor.js</text>
</g>
<!-- index.js&#45;&gt;random&#45;floor.js -->
<g id="edge35" class="edge">
<title>index.js&#45;&gt;random&#45;floor.js</title>
<path fill="none" stroke="#242424" d="M1132.0788,-1675.111C1058.1191,-1668.0202 916.217,-1642.647 848.1988,-1551.8528 768.7116,-1445.7491 847.7997,-1081.2335 801.1988,-957.1184 786.3654,-917.6115 759.6727,-879.3462 734.4016,-848.8546"/>
<polygon fill="#242424" stroke="#242424" points="736.7923,-846.2602 727.6704,-840.8711 731.4406,-850.7725 736.7923,-846.2602"/>
</g>
<!-- random&#45;shuffle.js -->
<g id="node26" class="node">
<title>random&#45;shuffle.js</title>
<ellipse fill="none" stroke="#0c821d" stroke-width="4" cx="3142.1988" cy="-1411.4226" rx="88.2923" ry="88.2923"/>
<text text-anchor="middle" x="3142.1988" y="-1409.0226" font-family="Fira Code" font-size="12.00" fill="#0c821d">random&#45;shuffle.js</text>
</g>
<!-- index.js&#45;&gt;random&#45;shuffle.js -->
<g id="edge36" class="edge">
<title>index.js&#45;&gt;random&#45;shuffle.js</title>
<path fill="none" stroke="#242424" d="M1226.6264,-1677.0908C1501.303,-1672.3101 2881.4896,-1643.8264 3044.1988,-1551.8528 3065.9224,-1539.5732 3083.9359,-1520.2496 3098.3369,-1499.821"/>
<polygon fill="#242424" stroke="#242424" points="3101.3773,-1501.5732 3104.0838,-1491.3298 3095.5802,-1497.6496 3101.3773,-1501.5732"/>
</g>
<!-- random&#45;take.js -->
<g id="node27" class="node">
<title>random&#45;take.js</title>
<ellipse fill="none" stroke="#242424" stroke-width="4" cx="627.1988" cy="-1074.5554" rx="74.7005" ry="74.7005"/>
<text text-anchor="middle" x="627.1988" y="-1072.1554" font-family="Fira Code" font-size="12.00" fill="#242424">random&#45;take.js</text>
</g>
<!-- index.js&#45;&gt;random&#45;take.js -->
<g id="edge37" class="edge">
<title>index.js&#45;&gt;random&#45;take.js</title>
<path fill="none" stroke="#242424" d="M1131.9387,-1674.9555C1005.9681,-1666.1289 667.1658,-1634.9614 600.1988,-1551.8528 552.9668,-1493.236 586.2284,-1278.0359 609.6244,-1157.5928"/>
<polygon fill="#242424" stroke="#242424" points="613.0814,-1158.1519 611.5722,-1147.6651 606.2123,-1156.8042 613.0814,-1158.1519"/>
</g>
<!-- random&#45;word.js -->
<g id="node28" class="node">
<title>random&#45;word.js</title>
<ellipse fill="none" stroke="#242424" stroke-width="4" cx="684.1988" cy="-1411.4226" rx="74.7005" ry="74.7005"/>
<text text-anchor="middle" x="684.1988" y="-1409.0226" font-family="Fira Code" font-size="12.00" fill="#242424">random&#45;word.js</text>
</g>
<!-- index.js&#45;&gt;random&#45;word.js -->
<g id="edge38" class="edge">
<title>index.js&#45;&gt;random&#45;word.js</title>
<path fill="none" stroke="#242424" d="M1132.1213,-1673.8023C1051.129,-1664.695 883.513,-1636.3124 773.1988,-1551.8528 751.4542,-1535.2045 733.6026,-1511.6071 719.7451,-1488.4985"/>
<polygon fill="#242424" stroke="#242424" points="722.6755,-1486.5747 714.6299,-1479.6813 716.6206,-1490.0874 722.6755,-1486.5747"/>
</g>
<!-- random.js -->
<g id="node29" class="node">
<title>random.js</title>
<ellipse fill="none" stroke="#0c821d" stroke-width="4" cx="3300.1988" cy="-1411.4226" rx="51.7142" ry="51.7142"/>
<text text-anchor="middle" x="3300.1988" y="-1409.0226" font-family="Fira Code" font-size="12.00" fill="#0c821d">random.js</text>
</g>
<!-- index.js&#45;&gt;random.js -->
<g id="edge39" class="edge">
<title>index.js&#45;&gt;random.js</title>
<path fill="none" stroke="#242424" d="M1226.415,-1676.3653C1526.1361,-1666.6979 3153.9549,-1611.5647 3239.1988,-1551.8528 3265.5069,-1533.4244 3280.5702,-1501.1038 3289.1426,-1472.1123"/>
<polygon fill="#242424" stroke="#242424" points="3292.5275,-1473.0032 3291.8078,-1462.4329 3285.7786,-1471.1449 3292.5275,-1473.0032"/>
</g>
<!-- range.js -->
<g id="node30" class="node">
<title>range.js</title>
<ellipse fill="none" stroke="#242424" stroke-width="4" cx="901.1988" cy="-480.447" rx="47.0167" ry="47.0167"/>
<text text-anchor="middle" x="901.1988" y="-478.047" font-family="Fira Code" font-size="12.00" fill="#242424">range.js</text>
</g>
<!-- index.js&#45;&gt;range.js -->
<g id="edge40" class="edge">
<title>index.js&#45;&gt;range.js</title>
<path fill="none" stroke="#242424" d="M1137.1545,-1656.2877C1100.2244,-1634.9838 1048.2832,-1598.8091 1021.1988,-1551.8528 920.1367,-1376.6409 904.187,-733.5937 901.6702,-537.558"/>
<polygon fill="#242424" stroke="#242424" points="905.169,-537.4265 901.5476,-527.4698 898.1695,-537.5116 905.169,-537.4265"/>
</g>
<!-- reject.js -->
<g id="node31" class="node">
<title>reject.js</title>
<ellipse fill="none" stroke="#242424" stroke-width="4" cx="304.1988" cy="-1074.5554" rx="51.7142" ry="51.7142"/>
<text text-anchor="middle" x="304.1988" y="-1072.1554" font-family="Fira Code" font-size="12.00" fill="#242424">reject.js</text>
</g>
<!-- index.js&#45;&gt;reject.js -->
<g id="edge42" class="edge">
<title>index.js&#45;&gt;reject.js</title>
<path fill="none" stroke="#242424" d="M1132.1336,-1673.774C967.6053,-1659.0518 425.2128,-1606.6964 371.1988,-1551.8528 261.3565,-1440.3233 276.2725,-1236.9135 292.2668,-1135.4671"/>
<polygon fill="#242424" stroke="#242424" points="295.7559,-1135.8171 293.9135,-1125.3837 288.8474,-1134.6888 295.7559,-1135.8171"/>
</g>
<!-- string.js -->
<g id="node32" class="node">
<title>string.js</title>
<ellipse fill="none" stroke="#242424" stroke-width="4" cx="2568.1988" cy="-783.6746" rx="51.7142" ry="51.7142"/>
<text text-anchor="middle" x="2568.1988" y="-781.2746" font-family="Fira Code" font-size="12.00" fill="#242424">string.js</text>
</g>
<!-- index.js&#45;&gt;string.js -->
<g id="edge43" class="edge">
<title>index.js&#45;&gt;string.js</title>
<path fill="none" stroke="#242424" d="M1226.3374,-1675.1622C1398.8308,-1664.7802 1994.6884,-1624.3325 2169.1988,-1551.8528 2409.8883,-1451.8868 2517.654,-1426.0952 2632.1988,-1191.9924 2689.2106,-1075.4736 2633.7846,-919.8964 2596.2925,-838.5326"/>
<polygon fill="#242424" stroke="#242424" points="2599.4558,-837.0345 2592.0451,-829.4627 2593.1164,-840.0032 2599.4558,-837.0345"/>
</g>
<!-- ternary.js -->
<g id="node33" class="node">
<title>ternary.js</title>
<ellipse fill="none" stroke="#242424" stroke-width="4" cx="985.1988" cy="-783.6746" rx="56.412" ry="56.412"/>
<text text-anchor="middle" x="985.1988" y="-781.2746" font-family="Fira Code" font-size="12.00" fill="#242424">ternary.js</text>
</g>
<!-- index.js&#45;&gt;ternary.js -->
<g id="edge44" class="edge">
<title>index.js&#45;&gt;ternary.js</title>
<path fill="none" stroke="#242424" d="M1150.8012,-1640.0446C1134.0138,-1615.9579 1113.6656,-1583.4434 1101.1988,-1551.8528 1004.2082,-1306.0807 987.7308,-986.6319 985.3399,-850.1793"/>
<polygon fill="#242424" stroke="#242424" points="988.8351,-849.8363 985.1805,-839.8918 981.8359,-849.9448 988.8351,-849.8363"/>
</g>
<!-- triplet.js -->
<g id="node34" class="node">
<title>triplet.js</title>
<ellipse fill="none" stroke="#242424" stroke-width="4" cx="2033.1988" cy="-1074.5554" rx="56.412" ry="56.412"/>
<text text-anchor="middle" x="2033.1988" y="-1072.1554" font-family="Fira Code" font-size="12.00" fill="#242424">triplet.js</text>
</g>
<!-- index.js&#45;&gt;triplet.js -->
<g id="edge45" class="edge">
<title>index.js&#45;&gt;triplet.js</title>
<path fill="none" stroke="#242424" d="M1226.2353,-1674.1852C1358.037,-1663.0411 1727.381,-1625.7787 1820.1988,-1551.8528 1951.3999,-1447.356 2004.1824,-1244.9212 2023.388,-1140.4606"/>
<polygon fill="#242424" stroke="#242424" points="2026.8795,-1140.8186 2025.1966,-1130.3583 2019.9891,-1139.5849 2026.8795,-1140.8186"/>
</g>
<!-- which.js -->
<g id="node35" class="node">
<title>which.js</title>
<ellipse fill="none" stroke="#242424" stroke-width="4" cx="2113.1988" cy="-1411.4226" rx="47.0167" ry="47.0167"/>
<text text-anchor="middle" x="2113.1988" y="-1409.0226" font-family="Fira Code" font-size="12.00" fill="#242424">which.js</text>
</g>
<!-- index.js&#45;&gt;which.js -->
<g id="edge47" class="edge">
<title>index.js&#45;&gt;which.js</title>
<path fill="none" stroke="#242424" d="M1226.0855,-1674.2411C1375.804,-1662.0943 1840.3517,-1619.696 1973.1988,-1551.8528 2016.3017,-1529.8407 2054.2848,-1489.654 2079.7724,-1457.8928"/>
<polygon fill="#242424" stroke="#242424" points="2082.5391,-1460.0367 2085.9785,-1450.0157 2077.0406,-1455.7046 2082.5391,-1460.0367"/>
</g>
<!-- invert.js&#45;&gt;✪katsu&#45;curry/katsu&#45;curry.js -->
<g id="edge48" class="edge">
<title>invert.js&#45;&gt;✪katsu&#45;curry/katsu&#45;curry.js</title>
<path fill="none" stroke="#242424" d="M820.7452,-732.0009C820.7727,-650.4572 823.845,-487.1619 845.1988,-350.6631 849.0117,-326.2902 854.4185,-300.6759 860.3838,-275.9644"/>
<polygon fill="#242424" stroke="#242424" points="863.8015,-276.7224 862.7864,-266.1763 857.0034,-275.0536 863.8015,-276.7224"/>
</g>
<!-- iterate.js&#45;&gt;✪katsu&#45;curry/katsu&#45;curry.js -->
<g id="edge49" class="edge">
<title>iterate.js&#45;&gt;✪katsu&#45;curry/katsu&#45;curry.js</title>
<path fill="none" stroke="#242424" d="M539.6904,-731.296C573.3871,-647.7472 645.0176,-480.5031 727.1988,-350.6631 749.9528,-314.7136 777.8114,-277.9021 804.5113,-245.1359"/>
<polygon fill="#242424" stroke="#242424" points="807.2729,-247.2879 810.9072,-237.3359 801.86,-242.8493 807.2729,-247.2879"/>
</g>
<!-- math.js&#45;&gt;✪katsu&#45;curry/katsu&#45;curry.js -->
<g id="edge57" class="edge">
<title>math.js&#45;&gt;✪katsu&#45;curry/katsu&#45;curry.js</title>
<path fill="none" stroke="#242424" d="M397.793,-1036.1474C380.2841,-997.3242 355.1788,-935.0902 345.1988,-878.1184 324.9742,-762.6641 278.9152,-447.3337 345.1988,-350.6631 393.5497,-280.1463 611.1454,-211.1534 759.3463,-171.0989"/>
<polygon fill="#242424" stroke="#242424" points="760.2565,-174.4786 769.0052,-168.5027 758.4394,-167.7185 760.2565,-174.4786"/>
</g>
<!-- object.js&#45;&gt;✪katsu&#45;curry/katsu&#45;curry.js -->
<g id="edge58" class="edge">
<title>object.js&#45;&gt;✪katsu&#45;curry/katsu&#45;curry.js</title>
<path fill="none" stroke="#242424" d="M1275.9788,-1359.8421C1272.4253,-1255.2915 1269.6134,-1022.7488 1311.1988,-957.1184 1349.4384,-896.7684 1415.1719,-939.8149 1451.1988,-878.1184 1509.3036,-778.6134 1409.8759,-370.725 1394.1988,-350.6631 1309.1532,-241.8305 1157.7634,-187.0402 1045.1088,-160.1764"/>
<polygon fill="#242424" stroke="#242424" points="1045.894,-156.7657 1035.3599,-157.8981 1044.301,-163.582 1045.894,-156.7657"/>
</g>
<!-- object.js&#45;&gt;map.js -->
<g id="edge59" class="edge">
<title>object.js&#45;&gt;map.js</title>
<path fill="none" stroke="#242424" d="M1270.3011,-1360.2597C1260.3162,-1295.5753 1243.2601,-1185.0821 1233.5444,-1122.1418"/>
<polygon fill="#242424" stroke="#242424" points="1236.9772,-1121.4373 1231.9925,-1112.0883 1230.0591,-1122.5052 1236.9772,-1121.4373"/>
</g>
<!-- object.js&#45;&gt;reduce.js -->
<g id="edge60" class="edge">
<title>object.js&#45;&gt;reduce.js</title>
<path fill="none" stroke="#242424" d="M1292.1701,-1361.3539C1309.099,-1300.6859 1337.5878,-1198.5907 1355.6139,-1133.9906"/>
<polygon fill="#242424" stroke="#242424" points="1358.9877,-1134.9218 1358.3043,-1124.3491 1352.2453,-1133.0404 1358.9877,-1134.9218"/>
</g>
<!-- path.js&#45;&gt;✪katsu&#45;curry/katsu&#45;curry.js -->
<g id="edge61" class="edge">
<title>path.js&#45;&gt;✪katsu&#45;curry/katsu&#45;curry.js</title>
<path fill="none" stroke="#242424" d="M497.9958,-1368.6965C497.0947,-1270.7624 492.3059,-1032.7063 467.1988,-957.1184 454.025,-917.4571 428.0142,-918.2054 416.1988,-878.1184 392.2716,-796.9385 399.104,-391.3241 426.1988,-350.6631 500.1285,-239.7173 646.2481,-185.3202 757.0029,-159.1282"/>
<polygon fill="#242424" stroke="#242424" points="757.9767,-162.4955 766.9314,-156.833 756.4,-155.6753 757.9767,-162.4955"/>
</g>
<!-- path.js&#45;&gt;reduce.js -->
<g id="edge63" class="edge">
<title>path.js&#45;&gt;reduce.js</title>
<path fill="none" stroke="#242424" d="M515.2898,-1372.5069C531.9386,-1339.6011 560.5445,-1294.2122 600.1988,-1270.9924 860.087,-1118.8136 1007.9851,-1334.6876 1273.1988,-1191.9924 1300.7172,-1177.1864 1323.7864,-1151.3283 1340.7136,-1127.6385"/>
<polygon fill="#242424" stroke="#242424" points="1343.6234,-1129.5843 1346.4421,-1119.3713 1337.8697,-1125.5975 1343.6234,-1129.5843"/>
</g>
<!-- path.js&#45;&gt;math.js -->
<g id="edge62" class="edge">
<title>path.js&#45;&gt;math.js</title>
<path fill="none" stroke="#242424" d="M488.144,-1370.116C473.1541,-1308.5355 444.9704,-1192.7531 428.6826,-1125.8403"/>
<polygon fill="#242424" stroke="#242424" points="432.0375,-1124.8242 426.2716,-1115.9357 425.2361,-1126.4798 432.0375,-1124.8242"/>
</g>
<!-- random&#45;floor.js&#45;&gt;✪katsu&#45;curry/katsu&#45;curry.js -->
<g id="edge64" class="edge">
<title>random&#45;floor.js&#45;&gt;✪katsu&#45;curry/katsu&#45;curry.js</title>
<path fill="none" stroke="#242424" d="M696.8454,-708.2815C725.3835,-621.6553 774.242,-475.3886 819.1988,-350.6631 828.3919,-325.1584 838.478,-298.0674 848.3363,-272.0265"/>
<polygon fill="#242424" stroke="#242424" points="851.6815,-273.0762 851.956,-262.4849 845.1366,-270.5933 851.6815,-273.0762"/>
</g>
<!-- random&#45;take.js&#45;&gt;✪katsu&#45;curry/katsu&#45;curry.js -->
<g id="edge65" class="edge">
<title>random&#45;take.js&#45;&gt;✪katsu&#45;curry/katsu&#45;curry.js</title>
<path fill="none" stroke="#242424" d="M584.0205,-1013.5691C570.0267,-994.9283 554.0194,-974.7155 538.1988,-957.1184 503.9345,-919.0064 474.535,-925.161 454.1988,-878.1184 420.8872,-801.0604 438.1585,-771.6342 454.1988,-689.2308 485.2147,-529.8945 489.8064,-477.4291 591.1988,-350.6631 639.6348,-290.1059 709.5976,-239.6024 770.8053,-202.8102"/>
<polygon fill="#242424" stroke="#242424" points="772.9614,-205.6003 779.7688,-197.4818 769.3844,-199.5832 772.9614,-205.6003"/>
</g>
<!-- random&#45;take.js&#45;&gt;iterate.js -->
<g id="edge66" class="edge">
<title>random&#45;take.js&#45;&gt;iterate.js</title>
<path fill="none" stroke="#242424" d="M601.1927,-1004.512C583.3034,-956.33 559.7485,-892.8887 542.477,-846.3708"/>
<polygon fill="#242424" stroke="#242424" points="545.6531,-844.8692 538.8912,-836.7128 539.0908,-847.3058 545.6531,-844.8692"/>
</g>
<!-- random&#45;take.js&#45;&gt;random&#45;floor.js -->
<g id="edge67" class="edge">
<title>random&#45;take.js&#45;&gt;random&#45;floor.js</title>
<path fill="none" stroke="#242424" d="M638.6124,-1000.7779C644.6743,-961.5937 652.1675,-913.1575 658.5371,-871.9842"/>
<polygon fill="#242424" stroke="#242424" points="662.0182,-872.3747 660.0883,-861.9571 655.1005,-871.3044 662.0182,-872.3747"/>
</g>
<!-- random&#45;word.js&#45;&gt;✪katsu&#45;curry/katsu&#45;curry.js -->
<g id="edge68" class="edge">
<title>random&#45;word.js&#45;&gt;✪katsu&#45;curry/katsu&#45;curry.js</title>
<path fill="none" stroke="#242424" d="M637.5893,-1352.9565C606.1847,-1310.6249 566.4008,-1250.746 543.1988,-1191.9924 504.2197,-1093.2867 546.3113,-1052.6999 500.1988,-957.1184 479.9425,-915.1313 447.576,-921.7649 431.1988,-878.1184 394.1994,-779.5121 457.3825,-364.7517 467.1988,-350.6631 535.0502,-253.2807 660.0501,-197.9713 758.534,-167.9464"/>
<polygon fill="#242424" stroke="#242424" points="759.7039,-171.2498 768.2812,-165.0305 757.6975,-164.5435 759.7039,-171.2498"/>
</g>
<!-- random&#45;word.js&#45;&gt;array.js -->
<g id="edge69" class="edge">
<title>random&#45;word.js&#45;&gt;array.js</title>
<path fill="none" stroke="#242424" d="M741.6523,-1363.1577C822.6201,-1295.1393 968.5285,-1172.5664 1041.3597,-1111.3832"/>
<polygon fill="#242424" stroke="#242424" points="1043.6178,-1114.0574 1049.0233,-1104.9453 1039.1152,-1108.6976 1043.6178,-1114.0574"/>
</g>
<!-- random&#45;word.js&#45;&gt;random&#45;take.js -->
<g id="edge70" class="edge">
<title>random&#45;word.js&#45;&gt;random&#45;take.js</title>
<path fill="none" stroke="#242424" d="M671.6899,-1337.4956C662.7431,-1284.6204 650.6877,-1213.3736 641.3826,-1158.381"/>
<polygon fill="#242424" stroke="#242424" points="644.7979,-1157.5858 639.6785,-1148.3099 637.896,-1158.7537 644.7979,-1157.5858"/>
</g>
<!-- range.js&#45;&gt;✪katsu&#45;curry/katsu&#45;curry.js -->
<g id="edge71" class="edge">
<title>range.js&#45;&gt;✪katsu&#45;curry/katsu&#45;curry.js</title>
<path fill="none" stroke="#242424" d="M901.1988,-433.2522C901.1988,-394.1195 901.1988,-336.3071 901.1988,-282.0325"/>
<polygon fill="#242424" stroke="#242424" points="904.6989,-281.9447 901.1988,-271.9447 897.6989,-281.9448 904.6989,-281.9447"/>
</g>
<!-- reject.js&#45;&gt;✪katsu&#45;curry/katsu&#45;curry.js -->
<g id="edge74" class="edge">
<title>reject.js&#45;&gt;✪katsu&#45;curry/katsu&#45;curry.js</title>
<path fill="none" stroke="#242424" d="M297.0908,-1023.2845C277.8593,-876.5421 231.1758,-458.5246 307.1988,-350.6631 360.3781,-275.2123 600.4962,-206.0908 758.6864,-167.6036"/>
<polygon fill="#242424" stroke="#242424" points="759.6157,-170.9798 768.5124,-165.2266 757.9698,-164.176 759.6157,-170.9798"/>
</g>
<!-- reject.js&#45;&gt;filter.js -->
<g id="edge75" class="edge">
<title>reject.js&#45;&gt;filter.js</title>
<path fill="none" stroke="#242424" d="M317.8697,-1024.7822C327.1815,-1000.4373 342.1173,-973.0205 365.1988,-957.1184 617.5652,-783.2494 763.2941,-985.8445 1050.1988,-878.1184 1083.0222,-865.794 1115.5149,-843.9285 1140.6133,-824.3384"/>
<polygon fill="#242424" stroke="#242424" points="1142.8443,-827.0361 1148.4934,-818.0729 1138.4878,-821.5569 1142.8443,-827.0361"/>
</g>
<!-- string.js&#45;&gt;✪entrust/entrust.js -->
<g id="edge76" class="edge">
<title>string.js&#45;&gt;✪entrust/entrust.js</title>
<path fill="none" stroke="#242424" d="M2560.1689,-732.5822C2555.0602,-698.108 2548.7575,-651.5402 2545.1988,-610.2308 2534.4372,-485.3082 2529.7563,-341.3439 2527.7294,-245.0751"/>
<polygon fill="#242424" stroke="#242424" points="2531.228,-244.9628 2527.524,-235.0366 2524.2294,-245.1061 2531.228,-244.9628"/>
</g>
<!-- ternary.js&#45;&gt;✪katsu&#45;curry/katsu&#45;curry.js -->
<g id="edge77" class="edge">
<title>ternary.js&#45;&gt;✪katsu&#45;curry/katsu&#45;curry.js</title>
<path fill="none" stroke="#242424" d="M984.9651,-727.2402C983.8514,-644.2235 978.7733,-484.5345 957.1988,-350.6631 953.2738,-326.308 947.811,-300.7026 941.8247,-275.9945"/>
<polygon fill="#242424" stroke="#242424" points="945.2043,-275.0809 939.4154,-266.2074 938.4072,-276.7541 945.2043,-275.0809"/>
</g>
<!-- triplet.js&#45;&gt;✪katsu&#45;curry/katsu&#45;curry.js -->
<g id="edge78" class="edge">
<title>triplet.js&#45;&gt;✪katsu&#45;curry/katsu&#45;curry.js</title>
<path fill="none" stroke="#242424" d="M2044.3586,-1018.9909C2067.8472,-884.5377 2106.6626,-538.8891 1930.1988,-350.6631 1811.568,-224.1249 1301.782,-167.0565 1047.1288,-146.0577"/>
<polygon fill="#242424" stroke="#242424" points="1047.3125,-142.5611 1037.0607,-145.2353 1046.7425,-149.5378 1047.3125,-142.5611"/>
</g>
<!-- which.js&#45;&gt;✪katsu&#45;curry/katsu&#45;curry.js -->
<g id="edge82" class="edge">
<title>which.js&#45;&gt;✪katsu&#45;curry/katsu&#45;curry.js</title>
<path fill="none" stroke="#242424" d="M2115.8038,-1364.4241C2125.06,-1177.927 2148.448,-493.2585 2002.1988,-350.6631 1868.1426,-219.9561 1314.3568,-164.4006 1046.971,-144.8419"/>
<polygon fill="#242424" stroke="#242424" points="1047.0267,-141.3368 1036.7999,-144.1051 1046.5209,-148.3185 1047.0267,-141.3368"/>
</g>
<!-- which.js&#45;&gt;flip.js -->
<g id="edge83" class="edge">
<title>which.js&#45;&gt;flip.js</title>
<path fill="none" stroke="#242424" d="M2085.2407,-1373.4017C2054.4344,-1330.581 2004.4546,-1258.2972 1968.1988,-1191.9924 1956.2243,-1170.0934 1944.7798,-1144.8927 1935.6912,-1123.4644"/>
<polygon fill="#242424" stroke="#242424" points="1938.9108,-1122.0916 1931.817,-1114.2221 1932.4551,-1124.7977 1938.9108,-1122.0916"/>
</g>
<!-- which.js&#45;&gt;triplet.js -->
<g id="edge84" class="edge">
<title>which.js&#45;&gt;triplet.js</title>
<path fill="none" stroke="#242424" d="M2102.3264,-1365.6406C2088.4493,-1307.2065 2064.3567,-1205.7563 2048.596,-1139.3904"/>
<polygon fill="#242424" stroke="#242424" points="2051.9531,-1138.3783 2046.2371,-1129.4577 2045.1425,-1139.9958 2051.9531,-1138.3783"/>
</g>
<!-- ✪fast.js/array/every.js -->
<g id="node44" class="node">
<title>✪fast.js/array/every.js</title>
<ellipse fill="none" stroke="#0c821d" stroke-width="4" cx="2506.1988" cy="-1074.5554" rx="117.374" ry="117.374"/>
<text text-anchor="middle" x="2506.1988" y="-1072.1554" font-family="Fira Code" font-size="12.00" fill="#0c821d">✪fast.js/array/every.js</text>
</g>
<!-- which.js&#45;&gt;✪fast.js/array/every.js -->
<g id="edge80" class="edge">
<title>which.js&#45;&gt;✪fast.js/array/every.js</title>
<path fill="none" stroke="#242424" d="M2150.5148,-1381.9665C2202.6959,-1340.5046 2300.0669,-1262.1426 2380.1988,-1191.9924 2390.9846,-1182.5502 2402.1491,-1172.5263 2413.1723,-1162.4696"/>
<polygon fill="#242424" stroke="#242424" points="2415.7628,-1164.8432 2420.7748,-1155.5089 2411.0358,-1159.6804 2415.7628,-1164.8432"/>
</g>
<!-- ✪fast.js/array/some.js -->
<g id="node45" class="node">
<title>✪fast.js/array/some.js</title>
<ellipse fill="none" stroke="#0c821d" stroke-width="4" cx="2258.1988" cy="-1074.5554" rx="112.6769" ry="112.6769"/>
<text text-anchor="middle" x="2258.1988" y="-1072.1554" font-family="Fira Code" font-size="12.00" fill="#0c821d">✪fast.js/array/some.js</text>
</g>
<!-- which.js&#45;&gt;✪fast.js/array/some.js -->
<g id="edge81" class="edge">
<title>which.js&#45;&gt;✪fast.js/array/some.js</title>
<path fill="none" stroke="#242424" d="M2131.8582,-1368.0727C2151.3562,-1322.7745 2182.7567,-1249.8242 2209.3744,-1187.9853"/>
<polygon fill="#242424" stroke="#242424" points="2212.6947,-1189.124 2213.4336,-1178.555 2206.265,-1186.3564 2212.6947,-1189.124"/>
</g>
<!-- map&#45;performance.fixture.js -->
<g id="node36" class="node">
<title>map&#45;performance.fixture.js</title>
<ellipse fill="none" stroke="#242424" stroke-width="4" cx="2935.1988" cy="-480.447" rx="129.5681" ry="129.5681"/>
<text text-anchor="middle" x="2935.1988" y="-478.047" font-family="Fira Code" font-size="12.00" fill="#242424">map&#45;performance.fixture.js</text>
</g>
<!-- map&#45;performance.fixture.js&#45;&gt;✪entrust/entrust.js -->
<g id="edge50" class="edge">
<title>map&#45;performance.fixture.js&#45;&gt;✪entrust/entrust.js</title>
<path fill="none" stroke="#242424" d="M2840.7367,-390.9827C2823.8171,-376.7466 2805.917,-362.7492 2788.1988,-350.6631 2724.6506,-307.3151 2693.697,-320.4216 2634.1988,-271.6631 2617.9782,-258.3704 2602.5936,-242.2637 2588.7897,-225.8562"/>
<polygon fill="#242424" stroke="#242424" points="2591.2033,-223.2813 2582.1435,-217.7884 2585.8005,-227.7321 2591.2033,-223.2813"/>
</g>
<!-- ✪fast.js/index.js -->
<g id="node37" class="node">
<title>✪fast.js/index.js</title>
<ellipse fill="none" stroke="#0c821d" stroke-width="4" cx="3137.1988" cy="-135.8316" rx="89.6906" ry="89.6906"/>
<text text-anchor="middle" x="3137.1988" y="-133.4316" font-family="Fira Code" font-size="12.00" fill="#0c821d">✪fast.js/index.js</text>
</g>
<!-- map&#45;performance.fixture.js&#45;&gt;✪fast.js/index.js -->
<g id="edge51" class="edge">
<title>map&#45;performance.fixture.js&#45;&gt;✪fast.js/index.js</title>
<path fill="none" stroke="#242424" d="M3001.0617,-368.0838C3028.8552,-320.6675 3060.7042,-266.3327 3086.6055,-222.1445"/>
<polygon fill="#242424" stroke="#242424" points="3089.6661,-223.8444 3091.7035,-213.4473 3083.6271,-220.3045 3089.6661,-223.8444"/>
</g>
<!-- ✪ramda/src/curry.js -->
<g id="node38" class="node">
<title>✪ramda/src/curry.js</title>
<ellipse fill="none" stroke="#0c821d" stroke-width="4" cx="3344.1988" cy="-135.8316" rx="99.0849" ry="99.0849"/>
<text text-anchor="middle" x="3344.1988" y="-133.4316" font-family="Fira Code" font-size="12.00" fill="#0c821d">✪ramda/src/curry.js</text>
</g>
<!-- map&#45;performance.fixture.js&#45;&gt;✪ramda/src/curry.js -->
<g id="edge52" class="edge">
<title>map&#45;performance.fixture.js&#45;&gt;✪ramda/src/curry.js</title>
<path fill="none" stroke="#242424" d="M3046.8458,-414.1646C3106.226,-376.2454 3178.6449,-325.576 3236.1988,-271.6631 3251.4097,-257.4145 3266.2864,-240.9476 3279.8988,-224.5017"/>
<polygon fill="#242424" stroke="#242424" points="3282.8663,-226.401 3286.4756,-216.4398 3277.4423,-221.9761 3282.8663,-226.401"/>
</g>
<!-- ✪ramda/src/map.js -->
<g id="node39" class="node">
<title>✪ramda/src/map.js</title>
<ellipse fill="none" stroke="#0c821d" stroke-width="4" cx="2733.1988" cy="-135.8316" rx="89.6906" ry="89.6906"/>
<text text-anchor="middle" x="2733.1988" y="-133.4316" font-family="Fira Code" font-size="12.00" fill="#0c821d">✪ramda/src/map.js</text>
</g>
<!-- map&#45;performance.fixture.js&#45;&gt;✪ramda/src/map.js -->
<g id="edge53" class="edge">
<title>map&#45;performance.fixture.js&#45;&gt;✪ramda/src/map.js</title>
<path fill="none" stroke="#242424" d="M2869.336,-368.0838C2841.5424,-320.6675 2809.6935,-266.3327 2783.7921,-222.1445"/>
<polygon fill="#242424" stroke="#242424" points="2786.7705,-220.3045 2778.6941,-213.4473 2780.7315,-223.8444 2786.7705,-220.3045"/>
</g>
<!-- ✪testperf/index.js -->
<g id="node40" class="node">
<title>✪testperf/index.js</title>
<ellipse fill="none" stroke="#0c821d" stroke-width="4" cx="2935.1988" cy="-135.8316" rx="94.3876" ry="94.3876"/>
<text text-anchor="middle" x="2935.1988" y="-133.4316" font-family="Fira Code" font-size="12.00" fill="#0c821d">✪testperf/index.js</text>
</g>
<!-- map&#45;performance.fixture.js&#45;&gt;✪testperf/index.js -->
<g id="edge54" class="edge">
<title>map&#45;performance.fixture.js&#45;&gt;✪testperf/index.js</title>
<path fill="none" stroke="#242424" d="M2935.1988,-350.6537C2935.1988,-314.273 2935.1988,-275.1952 2935.1988,-240.475"/>
<polygon fill="#242424" stroke="#242424" points="2938.6989,-240.3272 2935.1988,-230.3272 2931.6989,-240.3273 2938.6989,-240.3272"/>
</g>
<!-- test&#45;helpers.js -->
<g id="node43" class="node">
<title>test&#45;helpers.js</title>
<ellipse fill="none" stroke="#0c821d" stroke-width="4" cx="1771.1988" cy="-79.1988" rx="79.3981" ry="79.3981"/>
<text text-anchor="middle" x="1771.1988" y="-76.7988" font-family="Fira Code" font-size="12.00" fill="#0c821d">test&#45;helpers.js</text>
</g>
</g>
</svg>
