<?xml version="1.0" encoding="UTF-8" standalone="no"?>
<!DOCTYPE svg PUBLIC "-//W3C//DTD SVG 1.1//EN"
 "http://www.w3.org/Graphics/SVG/1.1/DTD/svg11.dtd">
<!-- Generated by graphviz version 2.40.1 (20161225.0304)
 -->
<!-- Title: G Pages: 1 -->
<svg width="3064pt" height="1811pt"
 viewBox="0.00 0.00 3064.13 1811.17" xmlns="http://www.w3.org/2000/svg" xmlns:xlink="http://www.w3.org/1999/xlink">
<g id="graph0" class="graph" transform="scale(1 1) rotate(0) translate(7.992 1803.1813)">
<title>G</title>
<polygon fill="#eeeeff" stroke="transparent" points="-7.992,7.992 -7.992,-1803.1813 3056.1377,-1803.1813 3056.1377,7.992 -7.992,7.992"/>
<!-- ../package.json -->
<g id="node1" class="node">
<title>../package.json</title>
<ellipse fill="none" stroke="#0c821d" stroke-width="4" cx="79.1988" cy="-1481.7424" rx="79.3981" ry="79.3981"/>
<text text-anchor="middle" x="79.1988" y="-1479.3424" font-family="Fira Code" font-size="12.00" fill="#0c821d">../package.json</text>
</g>
<!-- ap.js -->
<g id="node2" class="node">
<title>ap.js</title>
<ellipse fill="none" stroke="#242424" stroke-width="4" cx="219.1988" cy="-586.1069" rx="33.4262" ry="33.4262"/>
<text text-anchor="middle" x="219.1988" y="-583.7069" font-family="Fira Code" font-size="12.00" fill="#242424">ap.js</text>
</g>
<!-- ✪entrust/entrust.js -->
<g id="node3" class="node">
<title>✪entrust/entrust.js</title>
<ellipse fill="none" stroke="#0c821d" stroke-width="4" cx="383.1988" cy="-276.8316" rx="99.0849" ry="99.0849"/>
<text text-anchor="middle" x="383.1988" y="-274.4316" font-family="Fira Code" font-size="12.00" fill="#0c821d">✪entrust/entrust.js</text>
</g>
<!-- ap.js&#45;&gt;✪entrust/entrust.js -->
<g id="edge1" class="edge">
<title>ap.js&#45;&gt;✪entrust/entrust.js</title>
<path fill="none" stroke="#242424" d="M232.067,-555.1265C240.0203,-536.5177 250.6867,-512.4885 261.1988,-491.6631 281.5077,-451.4294 305.6985,-408.0306 327.163,-370.8434"/>
<polygon fill="#242424" stroke="#242424" points="330.2875,-372.432 332.2694,-362.0242 324.2297,-368.9244 330.2875,-372.432"/>
</g>
<!-- array.js -->
<g id="node4" class="node">
<title>array.js</title>
<ellipse fill="none" stroke="#242424" stroke-width="4" cx="880.1988" cy="-1144.8752" rx="47.0167" ry="47.0167"/>
<text text-anchor="middle" x="880.1988" y="-1142.4753" font-family="Fira Code" font-size="12.00" fill="#242424">array.js</text>
</g>
<!-- array.js&#45;&gt;✪entrust/entrust.js -->
<g id="edge2" class="edge">
<title>array.js&#45;&gt;✪entrust/entrust.js</title>
<path fill="none" stroke="#242424" d="M885.195,-1097.9397C894.9212,-982.497 904.5293,-680.4267 765.1988,-491.6631 696.642,-398.7829 575.1701,-340.5366 487.5853,-308.4958"/>
<polygon fill="#242424" stroke="#242424" points="488.7448,-305.1934 478.1504,-305.0974 486.3726,-311.7792 488.7448,-305.1934"/>
</g>
<!-- ✪katsu&#45;curry/katsu&#45;curry.js -->
<g id="node5" class="node">
<title>✪katsu&#45;curry/katsu&#45;curry.js</title>
<ellipse fill="none" stroke="#0c821d" stroke-width="4" cx="1590.1988" cy="-276.8316" rx="135.6633" ry="135.6633"/>
<text text-anchor="middle" x="1590.1988" y="-274.4316" font-family="Fira Code" font-size="12.00" fill="#0c821d">✪katsu&#45;curry/katsu&#45;curry.js</text>
</g>
<!-- array.js&#45;&gt;✪katsu&#45;curry/katsu&#45;curry.js -->
<g id="edge3" class="edge">
<title>array.js&#45;&gt;✪katsu&#45;curry/katsu&#45;curry.js</title>
<path fill="none" stroke="#242424" d="M874.7915,-1097.8978C860.4522,-964.4174 827.265,-586.4399 899.1988,-491.6631 965.6211,-404.148 1263.8412,-335.9347 1446.1104,-301.5004"/>
<polygon fill="#242424" stroke="#242424" points="1446.8686,-304.9193 1456.0511,-299.6342 1445.5769,-298.0395 1446.8686,-304.9193"/>
</g>
<!-- filter.js -->
<g id="node6" class="node">
<title>filter.js</title>
<ellipse fill="none" stroke="#242424" stroke-width="4" cx="960.1988" cy="-853.9945" rx="51.7142" ry="51.7142"/>
<text text-anchor="middle" x="960.1988" y="-851.5945" font-family="Fira Code" font-size="12.00" fill="#242424">filter.js</text>
</g>
<!-- array.js&#45;&gt;filter.js -->
<g id="edge4" class="edge">
<title>array.js&#45;&gt;filter.js</title>
<path fill="none" stroke="#242424" d="M892.6988,-1099.4251C906.4338,-1049.4846 928.5532,-969.0583 943.7023,-913.9758"/>
<polygon fill="#242424" stroke="#242424" points="947.1691,-914.5688 946.4463,-903.9986 940.4197,-912.7125 947.1691,-914.5688"/>
</g>
<!-- delegate&#45;fast.js -->
<g id="node9" class="node">
<title>delegate&#45;fast.js</title>
<ellipse fill="none" stroke="#242424" stroke-width="4" cx="672.1988" cy="-586.1069" rx="83.5954" ry="83.5954"/>
<text text-anchor="middle" x="672.1988" y="-583.7069" font-family="Fira Code" font-size="12.00" fill="#242424">delegate&#45;fast.js</text>
</g>
<!-- filter.js&#45;&gt;delegate&#45;fast.js -->
<g id="edge12" class="edge">
<title>filter.js&#45;&gt;delegate&#45;fast.js</title>
<path fill="none" stroke="#242424" d="M922.2517,-818.6974C876.2781,-775.9343 797.9427,-703.0695 741.1819,-650.2725"/>
<polygon fill="#242424" stroke="#242424" points="743.3778,-647.535 733.6719,-643.287 738.6102,-652.6605 743.3778,-647.535"/>
</g>
<!-- ✪fast.js/filter.js -->
<g id="node12" class="node">
<title>✪fast.js/filter.js</title>
<ellipse fill="none" stroke="#0c821d" stroke-width="4" cx="1002.1988" cy="-586.1069" rx="94.3876" ry="94.3876"/>
<text text-anchor="middle" x="1002.1988" y="-583.7069" font-family="Fira Code" font-size="12.00" fill="#0c821d">✪fast.js/filter.js</text>
</g>
<!-- filter.js&#45;&gt;✪fast.js/filter.js -->
<g id="edge11" class="edge">
<title>filter.js&#45;&gt;✪fast.js/filter.js</title>
<path fill="none" stroke="#242424" d="M968.1976,-802.9763C973.2117,-770.9946 979.8562,-728.614 985.9405,-689.807"/>
<polygon fill="#242424" stroke="#242424" points="989.4654,-689.9205 987.5566,-679.4991 982.5498,-688.8362 989.4654,-689.9205"/>
</g>
<!-- chain.js -->
<g id="node7" class="node">
<title>chain.js</title>
<ellipse fill="none" stroke="#242424" stroke-width="4" cx="479.1988" cy="-1481.7424" rx="47.0167" ry="47.0167"/>
<text text-anchor="middle" x="479.1988" y="-1479.3424" font-family="Fira Code" font-size="12.00" fill="#242424">chain.js</text>
</g>
<!-- ✪flatmap&#45;fast/index.js -->
<g id="node8" class="node">
<title>✪flatmap&#45;fast/index.js</title>
<ellipse fill="none" stroke="#0c821d" stroke-width="4" cx="479.1988" cy="-1144.8752" rx="112.6769" ry="112.6769"/>
<text text-anchor="middle" x="479.1988" y="-1142.4753" font-family="Fira Code" font-size="12.00" fill="#0c821d">✪flatmap&#45;fast/index.js</text>
</g>
<!-- chain.js&#45;&gt;✪flatmap&#45;fast/index.js -->
<g id="edge5" class="edge">
<title>chain.js&#45;&gt;✪flatmap&#45;fast/index.js</title>
<path fill="none" stroke="#242424" d="M479.1988,-1434.5478C479.1988,-1391.5013 479.1988,-1325.98 479.1988,-1268.1346"/>
<polygon fill="#242424" stroke="#242424" points="482.6989,-1267.8047 479.1988,-1257.8047 475.6989,-1267.8048 482.6989,-1267.8047"/>
</g>
<!-- chain.js&#45;&gt;delegate&#45;fast.js -->
<g id="edge6" class="edge">
<title>chain.js&#45;&gt;delegate&#45;fast.js</title>
<path fill="none" stroke="#242424" d="M450.4808,-1444.2843C420.4386,-1402.5311 375.196,-1331.7185 357.1988,-1262.3122 330.9973,-1161.2656 325.3595,-1126.8525 357.1988,-1027.4382 405.6658,-876.1062 527.177,-732.4582 604.3293,-652.1597"/>
<polygon fill="#242424" stroke="#242424" points="607.2161,-654.2094 611.6532,-644.5885 602.1849,-649.3425 607.2161,-654.2094"/>
</g>
<!-- delegate&#45;fast.js&#45;&gt;✪entrust/entrust.js -->
<g id="edge8" class="edge">
<title>delegate&#45;fast.js&#45;&gt;✪entrust/entrust.js</title>
<path fill="none" stroke="#242424" d="M614.7562,-524.6343C569.8056,-476.5301 506.936,-409.2498 458.0475,-356.9314"/>
<polygon fill="#242424" stroke="#242424" points="460.3245,-354.2418 450.9397,-349.3249 455.21,-359.0211 460.3245,-354.2418"/>
</g>
<!-- delegate&#45;fast.js&#45;&gt;✪katsu&#45;curry/katsu&#45;curry.js -->
<g id="edge9" class="edge">
<title>delegate&#45;fast.js&#45;&gt;✪katsu&#45;curry/katsu&#45;curry.js</title>
<path fill="none" stroke="#242424" d="M741.479,-538.6565C767.7945,-522.1288 798.5769,-504.5234 828.1988,-491.6631 1035.3073,-401.7475 1290.3731,-338.7691 1446.5746,-305.1803"/>
<polygon fill="#242424" stroke="#242424" points="1447.6722,-308.5248 1456.7188,-303.0104 1446.2079,-301.6797 1447.6722,-308.5248"/>
</g>
<!-- choice.js -->
<g id="node10" class="node">
<title>choice.js</title>
<ellipse fill="none" stroke="#242424" stroke-width="4" cx="2749.1988" cy="-586.1069" rx="51.7142" ry="51.7142"/>
<text text-anchor="middle" x="2749.1988" y="-583.7069" font-family="Fira Code" font-size="12.00" fill="#242424">choice.js</text>
</g>
<!-- choice.js&#45;&gt;✪katsu&#45;curry/katsu&#45;curry.js -->
<g id="edge7" class="edge">
<title>choice.js&#45;&gt;✪katsu&#45;curry/katsu&#45;curry.js</title>
<path fill="none" stroke="#242424" d="M2726.3756,-539.2428C2715.6041,-521.7636 2701.1319,-503.3475 2683.1988,-491.6631 2528.5021,-390.8697 1996.4804,-320.9154 1736.0897,-291.8721"/>
<polygon fill="#242424" stroke="#242424" points="1736.1256,-288.3546 1725.8005,-290.7299 1735.3533,-295.3119 1736.1256,-288.3546"/>
</g>
<!-- either.js -->
<g id="node11" class="node">
<title>either.js</title>
<ellipse fill="none" stroke="#242424" stroke-width="4" cx="322.1988" cy="-586.1069" rx="51.7142" ry="51.7142"/>
<text text-anchor="middle" x="322.1988" y="-583.7069" font-family="Fira Code" font-size="12.00" fill="#242424">either.js</text>
</g>
<!-- either.js&#45;&gt;✪entrust/entrust.js -->
<g id="edge10" class="edge">
<title>either.js&#45;&gt;✪entrust/entrust.js</title>
<path fill="none" stroke="#242424" d="M332.2034,-535.3827C340.2847,-494.4101 351.9387,-435.3228 362.0666,-383.9738"/>
<polygon fill="#242424" stroke="#242424" points="365.5031,-384.6372 364.0044,-374.1489 358.6354,-383.2826 365.5031,-384.6372"/>
</g>
<!-- flip.js -->
<g id="node13" class="node">
<title>flip.js</title>
<ellipse fill="none" stroke="#242424" stroke-width="4" cx="1975.1988" cy="-1144.8752" rx="42.3196" ry="42.3196"/>
<text text-anchor="middle" x="1975.1988" y="-1142.4753" font-family="Fira Code" font-size="12.00" fill="#242424">flip.js</text>
</g>
<!-- flip.js&#45;&gt;✪katsu&#45;curry/katsu&#45;curry.js -->
<g id="edge13" class="edge">
<title>flip.js&#45;&gt;✪katsu&#45;curry/katsu&#45;curry.js</title>
<path fill="none" stroke="#242424" d="M1988.2843,-1104.5279C2021.1258,-995.082 2095.461,-687.6681 1965.1988,-491.6631 1910.2147,-408.9288 1811.8014,-354.3095 1729.5869,-320.8536"/>
<polygon fill="#242424" stroke="#242424" points="1730.7416,-317.5459 1720.157,-317.0794 1728.1405,-324.0447 1730.7416,-317.5459"/>
</g>
<!-- future.js -->
<g id="node14" class="node">
<title>future.js</title>
<ellipse fill="none" stroke="#242424" stroke-width="4" cx="144.1988" cy="-853.9945" rx="51.7142" ry="51.7142"/>
<text text-anchor="middle" x="144.1988" y="-851.5945" font-family="Fira Code" font-size="12.00" fill="#242424">future.js</text>
</g>
<!-- future.js&#45;&gt;✪entrust/entrust.js -->
<g id="edge14" class="edge">
<title>future.js&#45;&gt;✪entrust/entrust.js</title>
<path fill="none" stroke="#242424" d="M138.5849,-802.6878C132.8443,-729.9405 130.4407,-594.2603 177.1988,-491.6631 203.6811,-433.5553 252.6003,-381.486 296.1231,-343.1662"/>
<polygon fill="#242424" stroke="#242424" points="298.6426,-345.6137 303.8982,-336.4143 294.0529,-340.3285 298.6426,-345.6137"/>
</g>
<!-- index.js -->
<g id="node15" class="node">
<title>index.js</title>
<ellipse fill="none" stroke="#242424" stroke-width="4" cx="1240.1988" cy="-1748.1809" rx="47.0167" ry="47.0167"/>
<text text-anchor="middle" x="1240.1988" y="-1745.781" font-family="Fira Code" font-size="12.00" fill="#242424">index.js</text>
</g>
<!-- index.js&#45;&gt;../package.json -->
<g id="edge17" class="edge">
<title>index.js&#45;&gt;../package.json</title>
<path fill="none" stroke="#242424" d="M1193.1551,-1747.7917C1010.1369,-1745.5052 347.107,-1729.8072 172.1988,-1622.1726 149.2325,-1608.0397 130.7444,-1585.866 116.4882,-1563.2785"/>
<polygon fill="#242424" stroke="#242424" points="119.4118,-1561.3498 111.2311,-1554.6173 113.4279,-1564.9819 119.4118,-1561.3498"/>
</g>
<!-- index.js&#45;&gt;ap.js -->
<g id="edge18" class="edge">
<title>index.js&#45;&gt;ap.js</title>
<path fill="none" stroke="#242424" d="M1193.0846,-1745.8164C1003.4391,-1735.8301 302.9798,-1694.2673 238.1988,-1622.1726 204.5842,-1584.763 215.2014,-821.9784 218.4218,-629.7752"/>
<polygon fill="#242424" stroke="#242424" points="221.926,-629.5527 218.5962,-619.4947 214.927,-629.4339 221.926,-629.5527"/>
</g>
<!-- index.js&#45;&gt;array.js -->
<g id="edge19" class="edge">
<title>index.js&#45;&gt;array.js</title>
<path fill="none" stroke="#242424" d="M1193.2417,-1742.1731C1088.1621,-1727.6662 839.4095,-1687.0561 790.1988,-1622.1726 691.5928,-1492.1622 793.4806,-1285.9857 849.1002,-1193.0735"/>
<polygon fill="#242424" stroke="#242424" points="852.1414,-1194.8083 854.33,-1184.4419 846.1546,-1191.1808 852.1414,-1194.8083"/>
</g>
<!-- index.js&#45;&gt;✪katsu&#45;curry/katsu&#45;curry.js -->
<g id="edge15" class="edge">
<title>index.js&#45;&gt;✪katsu&#45;curry/katsu&#45;curry.js</title>
<path fill="none" stroke="#242424" d="M1287.1792,-1746.176C1465.5333,-1738.0043 2099.8294,-1703.6911 2282.1988,-1622.1726 2503.5481,-1523.2303 2592.181,-1483.1776 2692.1988,-1262.3122 2862.6474,-885.9172 2518.5002,-717.0546 2172.1988,-491.6631 2035.0909,-402.4259 1855.8053,-343.4553 1732.6545,-310.2491"/>
<polygon fill="#242424" stroke="#242424" points="1733.3394,-306.8094 1722.7747,-307.6079 1731.5315,-313.5719 1733.3394,-306.8094"/>
</g>
<!-- index.js&#45;&gt;filter.js -->
<g id="edge23" class="edge">
<title>index.js&#45;&gt;filter.js</title>
<path fill="none" stroke="#242424" d="M1192.8733,-1746.1375C1059.5957,-1739.2951 686.0195,-1712.2768 612.1988,-1622.1726 570.0704,-1570.7515 637.5264,-1080.7771 677.1988,-1027.4382 721.2303,-968.2387 760.2914,-986.9871 823.1988,-948.4382 852.6319,-930.402 884.4366,-908.6266 909.9862,-890.5323"/>
<polygon fill="#242424" stroke="#242424" points="912.279,-893.1966 918.3986,-884.5478 908.2213,-887.4926 912.279,-893.1966"/>
</g>
<!-- index.js&#45;&gt;chain.js -->
<g id="edge20" class="edge">
<title>index.js&#45;&gt;chain.js</title>
<path fill="none" stroke="#242424" d="M1193.3692,-1743.8042C1060.2017,-1730.6595 682.3352,-1688.3067 579.1988,-1622.1726 545.9482,-1600.8513 520.4042,-1564.1925 503.4578,-1533.676"/>
<polygon fill="#242424" stroke="#242424" points="506.5192,-1531.979 498.6915,-1524.8391 500.3582,-1535.302 506.5192,-1531.979"/>
</g>
<!-- index.js&#45;&gt;choice.js -->
<g id="edge21" class="edge">
<title>index.js&#45;&gt;choice.js</title>
<path fill="none" stroke="#242424" d="M1287.5676,-1747.8296C1529.9927,-1745.5562 2624.3905,-1729.3785 2725.1988,-1622.1726 2857.4749,-1481.502 2784.8093,-848.3705 2757.8788,-647.4761"/>
<polygon fill="#242424" stroke="#242424" points="2761.3241,-646.8355 2756.5168,-637.3941 2754.3871,-647.7726 2761.3241,-646.8355"/>
</g>
<!-- index.js&#45;&gt;either.js -->
<g id="edge22" class="edge">
<title>index.js&#45;&gt;either.js</title>
<path fill="none" stroke="#242424" d="M1192.9661,-1745.5281C1008.4872,-1734.6972 343.6824,-1691.1052 282.1988,-1622.1726 194.222,-1523.5371 269.3386,-1159.43 276.1988,-1027.4382 283.2782,-891.2293 302.5683,-732.327 313.7926,-647.2738"/>
<polygon fill="#242424" stroke="#242424" points="317.2736,-647.6477 315.1201,-637.2741 310.3345,-646.7265 317.2736,-647.6477"/>
</g>
<!-- index.js&#45;&gt;flip.js -->
<g id="edge24" class="edge">
<title>index.js&#45;&gt;flip.js</title>
<path fill="none" stroke="#242424" d="M1287.0524,-1744.216C1449.5102,-1730.0018 1981.3813,-1679.3938 2030.1988,-1622.1726 2111.2155,-1527.2093 2047.1847,-1464.978 2030.1988,-1341.3122 2023.1794,-1290.2076 2006.3427,-1233.6651 1993.1326,-1194.4166"/>
<polygon fill="#242424" stroke="#242424" points="1996.4017,-1193.159 1989.8604,-1184.8246 1989.7766,-1195.4191 1996.4017,-1193.159"/>
</g>
<!-- index.js&#45;&gt;future.js -->
<g id="edge25" class="edge">
<title>index.js&#45;&gt;future.js</title>
<path fill="none" stroke="#242424" d="M1193.2207,-1745.8611C1000.769,-1735.9058 279.4965,-1694.0129 210.1988,-1622.1726 185.7422,-1596.8187 156.8725,-1093.5993 147.39,-915.6692"/>
<polygon fill="#242424" stroke="#242424" points="150.885,-915.4809 146.8598,-905.6805 143.8949,-915.852 150.885,-915.4809"/>
</g>
<!-- ✪katsu&#45;curry/utils/length.js -->
<g id="node16" class="node">
<title>✪katsu&#45;curry/utils/length.js</title>
<ellipse fill="none" stroke="#0c821d" stroke-width="4" cx="939.1988" cy="-1481.7424" rx="140.3604" ry="140.3604"/>
<text text-anchor="middle" x="939.1988" y="-1479.3424" font-family="Fira Code" font-size="12.00" fill="#0c821d">✪katsu&#45;curry/utils/length.js</text>
</g>
<!-- index.js&#45;&gt;✪katsu&#45;curry/utils/length.js -->
<g id="edge16" class="edge">
<title>index.js&#45;&gt;✪katsu&#45;curry/utils/length.js</title>
<path fill="none" stroke="#242424" d="M1203.9875,-1717.6741C1174.0694,-1692.3419 1130.5944,-1655.2367 1093.1988,-1622.1726 1079.2334,-1609.8248 1064.6519,-1596.7594 1050.2679,-1583.7654"/>
<polygon fill="#242424" stroke="#242424" points="1052.5322,-1581.0941 1042.7683,-1576.981 1047.8361,-1586.2852 1052.5322,-1581.0941"/>
</g>
<!-- invert.js -->
<g id="node17" class="node">
<title>invert.js</title>
<ellipse fill="none" stroke="#242424" stroke-width="4" cx="2870.1988" cy="-586.1069" rx="51.7142" ry="51.7142"/>
<text text-anchor="middle" x="2870.1988" y="-583.7069" font-family="Fira Code" font-size="12.00" fill="#242424">invert.js</text>
</g>
<!-- index.js&#45;&gt;invert.js -->
<g id="edge26" class="edge">
<title>index.js&#45;&gt;invert.js</title>
<path fill="none" stroke="#242424" d="M1287.3584,-1747.8109C1533.769,-1745.4228 2666.1791,-1728.6813 2775.1988,-1622.1726 3048.1457,-1355.5124 2935.3043,-823.4115 2887.5212,-645.5554"/>
<polygon fill="#242424" stroke="#242424" points="2890.8843,-644.584 2884.8839,-635.8521 2884.1293,-646.42 2890.8843,-644.584"/>
</g>
<!-- iterate.js -->
<g id="node18" class="node">
<title>iterate.js</title>
<ellipse fill="none" stroke="#242424" stroke-width="4" cx="1124.1988" cy="-853.9945" rx="56.412" ry="56.412"/>
<text text-anchor="middle" x="1124.1988" y="-851.5945" font-family="Fira Code" font-size="12.00" fill="#242424">iterate.js</text>
</g>
<!-- index.js&#45;&gt;iterate.js -->
<g id="edge27" class="edge">
<title>index.js&#45;&gt;iterate.js</title>
<path fill="none" stroke="#242424" d="M1216.6362,-1707.2028C1203.865,-1683.1731 1188.9478,-1651.8009 1180.1988,-1622.1726 1106.1985,-1371.5726 1112.541,-1055.9658 1119.6888,-920.6067"/>
<polygon fill="#242424" stroke="#242424" points="1123.1956,-920.5753 1120.2477,-910.3989 1116.2061,-920.1925 1123.1956,-920.5753"/>
</g>
<!-- map.js -->
<g id="node19" class="node">
<title>map.js</title>
<ellipse fill="none" stroke="#242424" stroke-width="4" cx="1709.1988" cy="-1144.8752" rx="37.623" ry="37.623"/>
<text text-anchor="middle" x="1709.1988" y="-1142.4753" font-family="Fira Code" font-size="12.00" fill="#242424">map.js</text>
</g>
<!-- index.js&#45;&gt;map.js -->
<g id="edge28" class="edge">
<title>index.js&#45;&gt;map.js</title>
<path fill="none" stroke="#242424" d="M1286.7836,-1741.5782C1389.1578,-1726.0483 1628.5826,-1683.8099 1678.1988,-1622.1726 1704.6447,-1589.3194 1708.6396,-1308.0189 1709.162,-1193.2894"/>
<polygon fill="#242424" stroke="#242424" points="1712.6628,-1193.0574 1709.2013,-1183.044 1705.6628,-1193.0304 1712.6628,-1193.0574"/>
</g>
<!-- math.js -->
<g id="node20" class="node">
<title>math.js</title>
<ellipse fill="none" stroke="#242424" stroke-width="4" cx="1184.1988" cy="-1144.8752" rx="42.3196" ry="42.3196"/>
<text text-anchor="middle" x="1184.1988" y="-1142.4753" font-family="Fira Code" font-size="12.00" fill="#242424">math.js</text>
</g>
<!-- index.js&#45;&gt;math.js -->
<g id="edge29" class="edge">
<title>index.js&#45;&gt;math.js</title>
<path fill="none" stroke="#242424" d="M1225.9764,-1703.1654C1219.0709,-1679.3395 1211.3802,-1649.4432 1207.1988,-1622.1726 1183.7358,-1469.1476 1182.2581,-1285.597 1183.1808,-1197.3368"/>
<polygon fill="#242424" stroke="#242424" points="1186.6807,-1197.3501 1183.3004,-1187.309 1179.6812,-1197.2665 1186.6807,-1197.3501"/>
</g>
<!-- object.js -->
<g id="node21" class="node">
<title>object.js</title>
<ellipse fill="none" stroke="#242424" stroke-width="4" cx="1777.1988" cy="-1481.7424" rx="51.7142" ry="51.7142"/>
<text text-anchor="middle" x="1777.1988" y="-1479.3424" font-family="Fira Code" font-size="12.00" fill="#242424">object.js</text>
</g>
<!-- index.js&#45;&gt;object.js -->
<g id="edge30" class="edge">
<title>index.js&#45;&gt;object.js</title>
<path fill="none" stroke="#242424" d="M1286.6475,-1740.853C1392.1698,-1723.4172 1645.8574,-1676.8113 1711.1988,-1622.1726 1735.7853,-1601.6133 1751.7739,-1569.8332 1761.8461,-1541.7021"/>
<polygon fill="#242424" stroke="#242424" points="1765.2637,-1542.5227 1765.1664,-1531.9283 1758.6357,-1540.2711 1765.2637,-1542.5227"/>
</g>
<!-- path.js -->
<g id="node22" class="node">
<title>path.js</title>
<ellipse fill="none" stroke="#242424" stroke-width="4" cx="663.1988" cy="-1481.7424" rx="42.3196" ry="42.3196"/>
<text text-anchor="middle" x="663.1988" y="-1479.3424" font-family="Fira Code" font-size="12.00" fill="#242424">path.js</text>
</g>
<!-- index.js&#45;&gt;path.js -->
<g id="edge31" class="edge">
<title>index.js&#45;&gt;path.js</title>
<path fill="none" stroke="#242424" d="M1193.3196,-1742.3928C1079.1735,-1727.451 790.9147,-1684.3557 719.1988,-1622.1726 693.3646,-1599.7724 679.3217,-1563.8045 671.7594,-1533.8784"/>
<polygon fill="#242424" stroke="#242424" points="675.1305,-1532.9236 669.4356,-1523.9895 668.3161,-1534.525 675.1305,-1532.9236"/>
</g>
<!-- random&#45;floor.js -->
<g id="node23" class="node">
<title>random&#45;floor.js</title>
<ellipse fill="none" stroke="#242424" stroke-width="4" cx="1315.1988" cy="-853.9945" rx="79.3981" ry="79.3981"/>
<text text-anchor="middle" x="1315.1988" y="-851.5945" font-family="Fira Code" font-size="12.00" fill="#242424">random&#45;floor.js</text>
</g>
<!-- index.js&#45;&gt;random&#45;floor.js -->
<g id="edge32" class="edge">
<title>index.js&#45;&gt;random&#45;floor.js</title>
<path fill="none" stroke="#242424" d="M1239.271,-1700.9118C1238.8521,-1677.2665 1238.4054,-1648.208 1238.1988,-1622.1726 1236.0977,-1357.3972 1227.2763,-1288.2093 1273.1988,-1027.4382 1278.1998,-999.0401 1285.1158,-968.3661 1291.8933,-940.8244"/>
<polygon fill="#242424" stroke="#242424" points="1295.3621,-941.3784 1294.3803,-930.8292 1288.5692,-939.6882 1295.3621,-941.3784"/>
</g>
<!-- random&#45;shuffle.js -->
<g id="node24" class="node">
<title>random&#45;shuffle.js</title>
<ellipse fill="none" stroke="#0c821d" stroke-width="4" cx="1581.1988" cy="-1481.7424" rx="88.2923" ry="88.2923"/>
<text text-anchor="middle" x="1581.1988" y="-1479.3424" font-family="Fira Code" font-size="12.00" fill="#0c821d">random&#45;shuffle.js</text>
</g>
<!-- index.js&#45;&gt;random&#45;shuffle.js -->
<g id="edge33" class="edge">
<title>index.js&#45;&gt;random&#45;shuffle.js</title>
<path fill="none" stroke="#242424" d="M1284.3928,-1732.0403C1335.3222,-1711.9146 1419.6382,-1673.7722 1479.1988,-1622.1726 1497.8144,-1606.0452 1514.941,-1585.9001 1529.6316,-1565.9471"/>
<polygon fill="#242424" stroke="#242424" points="1532.5527,-1567.8801 1535.5625,-1557.7218 1526.8748,-1563.786 1532.5527,-1567.8801"/>
</g>
<!-- random&#45;take.js -->
<g id="node25" class="node">
<title>random&#45;take.js</title>
<ellipse fill="none" stroke="#242424" stroke-width="4" cx="1357.1988" cy="-1144.8752" rx="74.7005" ry="74.7005"/>
<text text-anchor="middle" x="1357.1988" y="-1142.4753" font-family="Fira Code" font-size="12.00" fill="#242424">random&#45;take.js</text>
</g>
<!-- index.js&#45;&gt;random&#45;take.js -->
<g id="edge34" class="edge">
<title>index.js&#45;&gt;random&#45;take.js</title>
<path fill="none" stroke="#242424" d="M1240.2134,-1701.0865C1241.2082,-1624.5453 1247.2882,-1468.8674 1278.1988,-1341.3122 1288.053,-1300.648 1304.7628,-1257.309 1320.2834,-1221.7135"/>
<polygon fill="#242424" stroke="#242424" points="1323.5741,-1222.9256 1324.41,-1212.3638 1317.1701,-1220.0991 1323.5741,-1222.9256"/>
</g>
<!-- random&#45;word.js -->
<g id="node26" class="node">
<title>random&#45;word.js</title>
<ellipse fill="none" stroke="#242424" stroke-width="4" cx="1362.1988" cy="-1481.7424" rx="74.7005" ry="74.7005"/>
<text text-anchor="middle" x="1362.1988" y="-1479.3424" font-family="Fira Code" font-size="12.00" fill="#242424">random&#45;word.js</text>
</g>
<!-- index.js&#45;&gt;random&#45;word.js -->
<g id="edge35" class="edge">
<title>index.js&#45;&gt;random&#45;word.js</title>
<path fill="none" stroke="#242424" d="M1259.8002,-1705.373C1277.8286,-1666.0003 1304.9917,-1606.6783 1326.812,-1559.0246"/>
<polygon fill="#242424" stroke="#242424" points="1330.1195,-1560.2081 1331.1005,-1549.6588 1323.7549,-1557.2938 1330.1195,-1560.2081"/>
</g>
<!-- random.js -->
<g id="node27" class="node">
<title>random.js</title>
<ellipse fill="none" stroke="#0c821d" stroke-width="4" cx="1898.1988" cy="-1481.7424" rx="51.7142" ry="51.7142"/>
<text text-anchor="middle" x="1898.1988" y="-1479.3424" font-family="Fira Code" font-size="12.00" fill="#0c821d">random.js</text>
</g>
<!-- index.js&#45;&gt;random.js -->
<g id="edge36" class="edge">
<title>index.js&#45;&gt;random.js</title>
<path fill="none" stroke="#242424" d="M1287.2957,-1743.8469C1413.0826,-1731.4224 1753.1159,-1692.0158 1838.1988,-1622.1726 1862.4873,-1602.2346 1877.1467,-1570.6562 1885.8869,-1542.4901"/>
<polygon fill="#242424" stroke="#242424" points="1889.3039,-1543.2741 1888.7377,-1532.6944 1882.5827,-1541.3181 1889.3039,-1543.2741"/>
</g>
<!-- range.js -->
<g id="node28" class="node">
<title>range.js</title>
<ellipse fill="none" stroke="#242424" stroke-width="4" cx="1535.1988" cy="-853.9945" rx="47.0167" ry="47.0167"/>
<text text-anchor="middle" x="1535.1988" y="-851.5945" font-family="Fira Code" font-size="12.00" fill="#242424">range.js</text>
</g>
<!-- index.js&#45;&gt;range.js -->
<g id="edge37" class="edge">
<title>index.js&#45;&gt;range.js</title>
<path fill="none" stroke="#242424" d="M1285.2234,-1733.9927C1333.6885,-1716.1753 1408.8394,-1680.6404 1446.1988,-1622.1726 1455.8115,-1607.1286 1510.9208,-1086.4886 1529.2624,-911.0461"/>
<polygon fill="#242424" stroke="#242424" points="1532.756,-911.2887 1530.3141,-900.9791 1525.7939,-910.5613 1532.756,-911.2887"/>
</g>
<!-- reduce.js -->
<g id="node29" class="node">
<title>reduce.js</title>
<ellipse fill="none" stroke="#242424" stroke-width="4" cx="738.1988" cy="-1144.8752" rx="51.7142" ry="51.7142"/>
<text text-anchor="middle" x="738.1988" y="-1142.4753" font-family="Fira Code" font-size="12.00" fill="#242424">reduce.js</text>
</g>
<!-- index.js&#45;&gt;reduce.js -->
<g id="edge38" class="edge">
<title>index.js&#45;&gt;reduce.js</title>
<path fill="none" stroke="#242424" d="M1193.1276,-1743.3008C1080.9277,-1730.6085 802.9286,-1692.5584 747.1988,-1622.1726 697.5707,-1559.4931 717.6327,-1320.2077 730.531,-1206.1032"/>
<polygon fill="#242424" stroke="#242424" points="734.0133,-1206.4562 731.6771,-1196.1221 727.059,-1205.6575 734.0133,-1206.4562"/>
</g>
<!-- reject.js -->
<g id="node30" class="node">
<title>reject.js</title>
<ellipse fill="none" stroke="#242424" stroke-width="4" cx="1034.1988" cy="-1144.8752" rx="51.7142" ry="51.7142"/>
<text text-anchor="middle" x="1034.1988" y="-1142.4753" font-family="Fira Code" font-size="12.00" fill="#242424">reject.js</text>
</g>
<!-- index.js&#45;&gt;reject.js -->
<g id="edge39" class="edge">
<title>index.js&#45;&gt;reject.js</title>
<path fill="none" stroke="#242424" d="M1204.5853,-1717.4085C1179.8471,-1693.911 1148.3554,-1659.3328 1131.1988,-1622.1726 1078.2649,-1507.5211 1114.5353,-1464.8167 1088.1988,-1341.3122 1078.3129,-1294.9521 1063.9776,-1243.2938 1052.5613,-1204.5912"/>
<polygon fill="#242424" stroke="#242424" points="1055.7781,-1203.1288 1049.5759,-1194.5391 1049.0678,-1205.1217 1055.7781,-1203.1288"/>
</g>
<!-- string.js -->
<g id="node31" class="node">
<title>string.js</title>
<ellipse fill="none" stroke="#242424" stroke-width="4" cx="443.1988" cy="-586.1069" rx="51.7142" ry="51.7142"/>
<text text-anchor="middle" x="443.1988" y="-583.7069" font-family="Fira Code" font-size="12.00" fill="#242424">string.js</text>
</g>
<!-- index.js&#45;&gt;string.js -->
<g id="edge40" class="edge">
<title>index.js&#45;&gt;string.js</title>
<path fill="none" stroke="#242424" d="M1193.1091,-1747.5022C1036.6409,-1744.2763 537.533,-1725.8937 423.1988,-1622.1726 139.6044,-1364.9029 341.3852,-819.286 417.4955,-642.6003"/>
<polygon fill="#242424" stroke="#242424" points="420.7932,-643.7933 421.5651,-633.2266 414.3722,-641.0056 420.7932,-643.7933"/>
</g>
<!-- ternary.js -->
<g id="node32" class="node">
<title>ternary.js</title>
<ellipse fill="none" stroke="#242424" stroke-width="4" cx="1867.1988" cy="-586.1069" rx="56.412" ry="56.412"/>
<text text-anchor="middle" x="1867.1988" y="-583.7069" font-family="Fira Code" font-size="12.00" fill="#242424">ternary.js</text>
</g>
<!-- index.js&#45;&gt;ternary.js -->
<g id="edge41" class="edge">
<title>index.js&#45;&gt;ternary.js</title>
<path fill="none" stroke="#242424" d="M1287.4063,-1747.4452C1433.3228,-1744.0788 1872.4923,-1725.3963 1959.1988,-1622.1726 1999.3422,-1574.382 1978.3878,-1400.7026 1959.1988,-1341.3122 1945.8874,-1300.113 1916.5709,-1303.1535 1902.1988,-1262.3122 1827.333,-1049.5658 1845.0239,-775.9035 1858.5893,-652.1218"/>
<polygon fill="#242424" stroke="#242424" points="1862.0832,-652.3706 1859.7214,-642.0424 1855.127,-651.5892 1862.0832,-652.3706"/>
</g>
<!-- triplet.js -->
<g id="node33" class="node">
<title>triplet.js</title>
<ellipse fill="none" stroke="#242424" stroke-width="4" cx="2092.1988" cy="-1144.8752" rx="56.412" ry="56.412"/>
<text text-anchor="middle" x="2092.1988" y="-1142.4753" font-family="Fira Code" font-size="12.00" fill="#242424">triplet.js</text>
</g>
<!-- index.js&#45;&gt;triplet.js -->
<g id="edge42" class="edge">
<title>index.js&#45;&gt;triplet.js</title>
<path fill="none" stroke="#242424" d="M1287.1953,-1744.4116C1454.1079,-1730.5695 2011.2375,-1680.3122 2064.1988,-1622.1726 2167.5236,-1508.7452 2136.2351,-1310.2765 2110.8593,-1208.7106"/>
<polygon fill="#242424" stroke="#242424" points="2114.2173,-1207.7146 2108.3491,-1198.8934 2107.4355,-1209.4487 2114.2173,-1207.7146"/>
</g>
<!-- types.js -->
<g id="node34" class="node">
<title>types.js</title>
<ellipse fill="none" stroke="#242424" stroke-width="4" cx="1942.1988" cy="-853.9945" rx="47.0167" ry="47.0167"/>
<text text-anchor="middle" x="1942.1988" y="-851.5945" font-family="Fira Code" font-size="12.00" fill="#242424">types.js</text>
</g>
<!-- index.js&#45;&gt;types.js -->
<g id="edge43" class="edge">
<title>index.js&#45;&gt;types.js</title>
<path fill="none" stroke="#242424" d="M1287.2479,-1743.8049C1444.737,-1728.689 1946.1248,-1676.6093 1992.1988,-1622.1726 2032.5205,-1574.5323 2013.9138,-1399.8263 1992.1988,-1341.3122 1976.0807,-1297.8798 1940.3169,-1305.7447 1924.1988,-1262.3122 1887.8798,-1164.4456 1918.8038,-1131.6872 1924.1988,-1027.4382 1926.2193,-988.3951 1930.7819,-944.6059 1934.8076,-910.7944"/>
<polygon fill="#242424" stroke="#242424" points="1938.3099,-910.9858 1936.0363,-900.6378 1931.3606,-910.1451 1938.3099,-910.9858"/>
</g>
<!-- which.js -->
<g id="node35" class="node">
<title>which.js</title>
<ellipse fill="none" stroke="#242424" stroke-width="4" cx="2226.1988" cy="-1481.7424" rx="47.0167" ry="47.0167"/>
<text text-anchor="middle" x="2226.1988" y="-1479.3424" font-family="Fira Code" font-size="12.00" fill="#242424">which.js</text>
</g>
<!-- index.js&#45;&gt;which.js -->
<g id="edge44" class="edge">
<title>index.js&#45;&gt;which.js</title>
<path fill="none" stroke="#242424" d="M1287.3241,-1745.6705C1446.5793,-1736.5244 1962.7731,-1701.2896 2106.1988,-1622.1726 2144.4426,-1601.0764 2175.9586,-1562.6801 2197.0808,-1531.3624"/>
<polygon fill="#242424" stroke="#242424" points="2200.1838,-1533.0141 2202.7597,-1522.7372 2194.3373,-1529.1647 2200.1838,-1533.0141"/>
</g>
<!-- invert.js&#45;&gt;✪katsu&#45;curry/katsu&#45;curry.js -->
<g id="edge45" class="edge">
<title>invert.js&#45;&gt;✪katsu&#45;curry/katsu&#45;curry.js</title>
<path fill="none" stroke="#242424" d="M2849.895,-538.1309C2840.2923,-520.9296 2827.1523,-503.0037 2810.1988,-491.6631 2636.0202,-375.1505 2020.056,-311.5343 1735.8468,-287.7981"/>
<polygon fill="#242424" stroke="#242424" points="1736.1331,-284.3099 1725.8778,-286.9705 1735.554,-291.2859 1736.1331,-284.3099"/>
</g>
<!-- iterate.js&#45;&gt;✪katsu&#45;curry/katsu&#45;curry.js -->
<g id="edge46" class="edge">
<title>iterate.js&#45;&gt;✪katsu&#45;curry/katsu&#45;curry.js</title>
<path fill="none" stroke="#242424" d="M1129.1752,-797.9587C1138.0457,-708.7652 1159.0331,-539.663 1194.1988,-491.6631 1256.5264,-406.5881 1363.0555,-351.5337 1449.9329,-318.4773"/>
<polygon fill="#242424" stroke="#242424" points="1451.211,-321.7361 1459.3482,-314.9511 1448.7558,-315.1807 1451.211,-321.7361"/>
</g>
<!-- map.js&#45;&gt;✪katsu&#45;curry/katsu&#45;curry.js -->
<g id="edge48" class="edge">
<title>map.js&#45;&gt;✪katsu&#45;curry/katsu&#45;curry.js</title>
<path fill="none" stroke="#242424" d="M1691.4867,-1111.2167C1672.3156,-1072.9558 1642.6801,-1008.0599 1629.1988,-948.4382 1589.0225,-770.7569 1583.3253,-560.2827 1585.0069,-422.9307"/>
<polygon fill="#242424" stroke="#242424" points="1588.5089,-422.8051 1585.1466,-412.758 1581.5096,-422.7089 1588.5089,-422.8051"/>
</g>
<!-- ✪fast.js/map.js -->
<g id="node37" class="node">
<title>✪fast.js/map.js</title>
<ellipse fill="none" stroke="#0c821d" stroke-width="4" cx="1719.1988" cy="-853.9945" rx="80.796" ry="80.796"/>
<text text-anchor="middle" x="1719.1988" y="-851.5945" font-family="Fira Code" font-size="12.00" fill="#0c821d">✪fast.js/map.js</text>
</g>
<!-- map.js&#45;&gt;✪fast.js/map.js -->
<g id="edge47" class="edge">
<title>map.js&#45;&gt;✪fast.js/map.js</title>
<path fill="none" stroke="#242424" d="M1710.5061,-1106.8477C1711.9141,-1065.8925 1714.2047,-999.2626 1716.0812,-944.6803"/>
<polygon fill="#242424" stroke="#242424" points="1719.5807,-944.7521 1716.4264,-934.6377 1712.5848,-944.5115 1719.5807,-944.7521"/>
</g>
<!-- math.js&#45;&gt;✪katsu&#45;curry/katsu&#45;curry.js -->
<g id="edge49" class="edge">
<title>math.js&#45;&gt;✪katsu&#45;curry/katsu&#45;curry.js</title>
<path fill="none" stroke="#242424" d="M1183.531,-1102.4696C1183.8718,-991.1803 1198.5157,-685.9676 1340.1988,-491.6631 1376.0612,-442.4814 1425.2797,-397.0824 1470.5651,-360.8129"/>
<polygon fill="#242424" stroke="#242424" points="1473.0161,-363.3363 1478.6758,-354.3798 1468.6661,-357.8519 1473.0161,-363.3363"/>
</g>
<!-- object.js&#45;&gt;✪katsu&#45;curry/katsu&#45;curry.js -->
<g id="edge50" class="edge">
<title>object.js&#45;&gt;✪katsu&#45;curry/katsu&#45;curry.js</title>
<path fill="none" stroke="#242424" d="M1788.1994,-1431.0924C1812.1306,-1312.2215 1862.6468,-1006.7277 1809.1988,-759.5507 1781.5482,-631.677 1717.0706,-496.9615 1665.1953,-402.4381"/>
<polygon fill="#242424" stroke="#242424" points="1668.113,-400.481 1660.2161,-393.4177 1661.9846,-403.8639 1668.113,-400.481"/>
</g>
<!-- object.js&#45;&gt;map.js -->
<g id="edge51" class="edge">
<title>object.js&#45;&gt;map.js</title>
<path fill="none" stroke="#242424" d="M1766.9449,-1430.9453C1753.8707,-1366.1764 1731.4396,-1255.0545 1718.7244,-1192.0644"/>
<polygon fill="#242424" stroke="#242424" points="1722.104,-1191.1179 1716.6945,-1182.0082 1715.2424,-1192.503 1722.104,-1191.1179"/>
</g>
<!-- object.js&#45;&gt;reduce.js -->
<g id="edge52" class="edge">
<title>object.js&#45;&gt;reduce.js</title>
<path fill="none" stroke="#242424" d="M1756.9052,-1434.2541C1740.566,-1402.2634 1714.3467,-1362.2252 1678.1988,-1341.3122 1348.2608,-1150.4298 1155.8436,-1450.2136 824.1988,-1262.3122 799.2437,-1248.1733 779.5119,-1223.4873 765.2772,-1200.3858"/>
<polygon fill="#242424" stroke="#242424" points="768.2005,-1198.4533 760.0914,-1191.6348 762.1785,-1202.022 768.2005,-1198.4533"/>
</g>
<!-- path.js&#45;&gt;✪katsu&#45;curry/katsu&#45;curry.js -->
<g id="edge53" class="edge">
<title>path.js&#45;&gt;✪katsu&#45;curry/katsu&#45;curry.js</title>
<path fill="none" stroke="#242424" d="M656.7819,-1439.7535C639.0672,-1320.9808 590.0745,-972.302 579.1988,-680.5507 576.0716,-596.6589 526.3654,-556.903 579.1988,-491.6631 686.4603,-359.2143 1191.217,-305.0389 1444.4938,-285.9023"/>
<polygon fill="#242424" stroke="#242424" points="1444.7973,-289.3894 1454.5087,-285.1539 1444.2757,-282.4089 1444.7973,-289.3894"/>
</g>
<!-- path.js&#45;&gt;math.js -->
<g id="edge54" class="edge">
<title>path.js&#45;&gt;math.js</title>
<path fill="none" stroke="#242424" d="M686.3344,-1446.0491C709.0114,-1413.9147 746.4758,-1367.7899 790.1988,-1341.3122 909.9769,-1268.7773 978.6772,-1339.9705 1095.1988,-1262.3122 1121.931,-1244.496 1143.8528,-1215.9001 1159.251,-1191.3874"/>
<polygon fill="#242424" stroke="#242424" points="1162.4101,-1192.9293 1164.6257,-1182.5687 1156.4327,-1189.2863 1162.4101,-1192.9293"/>
</g>
<!-- path.js&#45;&gt;reduce.js -->
<g id="edge55" class="edge">
<title>path.js&#45;&gt;reduce.js</title>
<path fill="none" stroke="#242424" d="M672.4705,-1440.098C685.5738,-1381.2436 709.5915,-1273.3669 724.6819,-1205.5874"/>
<polygon fill="#242424" stroke="#242424" points="728.1757,-1205.9998 726.9326,-1195.4781 721.343,-1204.4785 728.1757,-1205.9998"/>
</g>
<!-- random&#45;floor.js&#45;&gt;✪katsu&#45;curry/katsu&#45;curry.js -->
<g id="edge56" class="edge">
<title>random&#45;floor.js&#45;&gt;✪katsu&#45;curry/katsu&#45;curry.js</title>
<path fill="none" stroke="#242424" d="M1324.993,-775.0678C1336.778,-699.104 1361.1584,-582.6739 1408.1988,-491.6631 1428.666,-452.0645 1457.6451,-413.4177 1486.475,-380.0692"/>
<polygon fill="#242424" stroke="#242424" points="1489.4505,-381.9837 1493.4014,-372.1531 1484.1824,-377.3742 1489.4505,-381.9837"/>
</g>
<!-- random&#45;take.js&#45;&gt;✪katsu&#45;curry/katsu&#45;curry.js -->
<g id="edge57" class="edge">
<title>random&#45;take.js&#45;&gt;✪katsu&#45;curry/katsu&#45;curry.js</title>
<path fill="none" stroke="#242424" d="M1376.6143,-1072.5823C1385.8908,-1035.6748 1396.4218,-989.9198 1403.1988,-948.4382 1436.0765,-747.1975 1377.778,-683.75 1446.1988,-491.6631 1458.6276,-456.7701 1477.9992,-422.0569 1498.5485,-391.031"/>
<polygon fill="#242424" stroke="#242424" points="1501.6906,-392.631 1504.3709,-382.3808 1495.8835,-388.7223 1501.6906,-392.631"/>
</g>
<!-- random&#45;take.js&#45;&gt;iterate.js -->
<g id="edge58" class="edge">
<title>random&#45;take.js&#45;&gt;iterate.js</title>
<path fill="none" stroke="#242424" d="M1310.3281,-1086.3611C1268.0705,-1033.6061 1206.5074,-956.7497 1165.9189,-906.0785"/>
<polygon fill="#242424" stroke="#242424" points="1168.5745,-903.7953 1159.5909,-898.1785 1163.1111,-908.1715 1168.5745,-903.7953"/>
</g>
<!-- random&#45;take.js&#45;&gt;random&#45;floor.js -->
<g id="edge59" class="edge">
<title>random&#45;take.js&#45;&gt;random&#45;floor.js</title>
<path fill="none" stroke="#242424" d="M1346.4918,-1070.7211C1340.8562,-1031.6905 1333.9067,-983.5601 1327.9893,-942.578"/>
<polygon fill="#242424" stroke="#242424" points="1331.4412,-941.9928 1326.548,-932.5957 1324.513,-942.9932 1331.4412,-941.9928"/>
</g>
<!-- random&#45;word.js&#45;&gt;array.js -->
<g id="edge61" class="edge">
<title>random&#45;word.js&#45;&gt;array.js</title>
<path fill="none" stroke="#242424" d="M1295.3322,-1448.0172C1198.9107,-1398.7208 1026.5381,-1307.909 973.1988,-1262.3122 949.7823,-1242.2948 928.1247,-1215.6587 911.6116,-1192.8147"/>
<polygon fill="#242424" stroke="#242424" points="914.4124,-1190.7137 905.7669,-1184.5894 908.7062,-1194.7683 914.4124,-1190.7137"/>
</g>
<!-- random&#45;word.js&#45;&gt;✪katsu&#45;curry/katsu&#45;curry.js -->
<g id="edge60" class="edge">
<title>random&#45;word.js&#45;&gt;✪katsu&#45;curry/katsu&#45;curry.js</title>
<path fill="none" stroke="#242424" d="M1392.383,-1412.9841C1409.6887,-1370.4257 1430.1156,-1314.1822 1441.1988,-1262.3122 1488.0232,-1043.172 1445.5502,-981.0969 1479.1988,-759.5507 1496.8634,-643.2452 1527.3463,-513.3956 1551.9034,-417.69"/>
<polygon fill="#242424" stroke="#242424" points="1555.3066,-418.5092 1554.4118,-407.9522 1548.5279,-416.763 1555.3066,-418.5092"/>
</g>
<!-- random&#45;word.js&#45;&gt;random&#45;take.js -->
<g id="edge62" class="edge">
<title>random&#45;word.js&#45;&gt;random&#45;take.js</title>
<path fill="none" stroke="#242424" d="M1361.0892,-1406.9807C1360.3121,-1354.6271 1359.2722,-1284.5698 1358.4631,-1230.0561"/>
<polygon fill="#242424" stroke="#242424" points="1361.9578,-1229.6656 1358.3097,-1219.7187 1354.9586,-1229.7695 1361.9578,-1229.6656"/>
</g>
<!-- range.js&#45;&gt;✪katsu&#45;curry/katsu&#45;curry.js -->
<g id="edge63" class="edge">
<title>range.js&#45;&gt;✪katsu&#45;curry/katsu&#45;curry.js</title>
<path fill="none" stroke="#242424" d="M1539.6997,-806.7628C1547.6056,-723.7997 1564.2878,-548.7388 1576.3181,-422.4936"/>
<polygon fill="#242424" stroke="#242424" points="1579.8205,-422.6341 1577.285,-412.3472 1572.8521,-421.97 1579.8205,-422.6341"/>
</g>
<!-- reduce.js&#45;&gt;delegate&#45;fast.js -->
<g id="edge65" class="edge">
<title>reduce.js&#45;&gt;delegate&#45;fast.js</title>
<path fill="none" stroke="#242424" d="M713.8128,-1099.1098C701.7713,-1077.1429 686.7361,-1050.6207 672.1988,-1027.4382 649.4701,-991.1929 630.0087,-989.2577 617.1988,-948.4382 588.5742,-857.2247 612.4976,-748.2649 637.1458,-673.8122"/>
<polygon fill="#242424" stroke="#242424" points="640.5769,-674.5915 640.4655,-663.9973 633.946,-672.3487 640.5769,-674.5915"/>
</g>
<!-- ✪fast.js/reduce.js -->
<g id="node38" class="node">
<title>✪fast.js/reduce.js</title>
<ellipse fill="none" stroke="#0c821d" stroke-width="4" cx="720.1988" cy="-853.9945" rx="94.3876" ry="94.3876"/>
<text text-anchor="middle" x="720.1988" y="-851.5945" font-family="Fira Code" font-size="12.00" fill="#0c821d">✪fast.js/reduce.js</text>
</g>
<!-- reduce.js&#45;&gt;✪fast.js/reduce.js -->
<g id="edge64" class="edge">
<title>reduce.js&#45;&gt;✪fast.js/reduce.js</title>
<path fill="none" stroke="#242424" d="M735.0015,-1093.2068C732.6957,-1055.9453 729.5041,-1004.3687 726.6747,-958.6443"/>
<polygon fill="#242424" stroke="#242424" points="730.1505,-958.1437 726.0394,-948.379 723.1638,-958.5761 730.1505,-958.1437"/>
</g>
<!-- reject.js&#45;&gt;✪katsu&#45;curry/katsu&#45;curry.js -->
<g id="edge66" class="edge">
<title>reject.js&#45;&gt;✪katsu&#45;curry/katsu&#45;curry.js</title>
<path fill="none" stroke="#242424" d="M1030.1752,-1093.3615C1025.9323,-1018.1799 1024.0451,-874.8084 1059.1988,-759.5507 1071.0518,-720.6885 1091.1644,-718.6794 1105.1988,-680.5507 1134.6632,-600.5019 1087.4295,-559.4561 1139.1988,-491.6631 1214.284,-393.3376 1345.7242,-337.886 1447.4016,-308.0574"/>
<polygon fill="#242424" stroke="#242424" points="1448.5054,-311.3819 1457.1456,-305.2502 1446.5674,-304.6555 1448.5054,-311.3819"/>
</g>
<!-- reject.js&#45;&gt;filter.js -->
<g id="edge67" class="edge">
<title>reject.js&#45;&gt;filter.js</title>
<path fill="none" stroke="#242424" d="M1021.3935,-1094.5398C1008.6467,-1044.4345 989.0777,-967.5122 975.5152,-914.2004"/>
<polygon fill="#242424" stroke="#242424" points="978.8287,-913.0288 972.9712,-904.2004 972.0448,-914.7547 978.8287,-913.0288"/>
</g>
<!-- string.js&#45;&gt;✪entrust/entrust.js -->
<g id="edge68" class="edge">
<title>string.js&#45;&gt;✪entrust/entrust.js</title>
<path fill="none" stroke="#242424" d="M433.3582,-535.3827C425.4095,-494.4101 413.9464,-435.3228 403.9846,-383.9738"/>
<polygon fill="#242424" stroke="#242424" points="407.4191,-383.2993 402.0786,-374.1489 400.5472,-384.6325 407.4191,-383.2993"/>
</g>
<!-- ternary.js&#45;&gt;✪katsu&#45;curry/katsu&#45;curry.js -->
<g id="edge69" class="edge">
<title>ternary.js&#45;&gt;✪katsu&#45;curry/katsu&#45;curry.js</title>
<path fill="none" stroke="#242424" d="M1834.8847,-540.0346C1823.4059,-524.3492 1810.1195,-506.9306 1797.1988,-491.6631 1765.181,-453.8298 1728.1761,-414.2628 1694.3864,-379.5447"/>
<polygon fill="#242424" stroke="#242424" points="1696.7179,-376.9226 1687.2277,-372.2122 1691.7091,-381.8126 1696.7179,-376.9226"/>
</g>
<!-- triplet.js&#45;&gt;✪katsu&#45;curry/katsu&#45;curry.js -->
<g id="edge70" class="edge">
<title>triplet.js&#45;&gt;✪katsu&#45;curry/katsu&#45;curry.js</title>
<path fill="none" stroke="#242424" d="M2101.5886,-1089.3467C2118.8568,-968.4509 2142.8556,-677.3845 2012.1988,-491.6631 1946.2866,-397.9726 1827.1052,-342.6273 1732.1699,-311.6414"/>
<polygon fill="#242424" stroke="#242424" points="1733.0688,-308.2542 1722.4776,-308.5346 1730.932,-314.9201 1733.0688,-308.2542"/>
</g>
<!-- types.js&#45;&gt;✪katsu&#45;curry/katsu&#45;curry.js -->
<g id="edge71" class="edge">
<title>types.js&#45;&gt;✪katsu&#45;curry/katsu&#45;curry.js</title>
<path fill="none" stroke="#242424" d="M1953.8298,-808.291C1969.6027,-735.7955 1989.6852,-592.3548 1932.1988,-491.6631 1887.7751,-413.8518 1802.4878,-360.1936 1728.2004,-325.9634"/>
<polygon fill="#242424" stroke="#242424" points="1729.2865,-322.6132 1718.733,-321.6776 1726.3996,-328.9902 1729.2865,-322.6132"/>
</g>
<!-- which.js&#45;&gt;✪katsu&#45;curry/katsu&#45;curry.js -->
<g id="edge74" class="edge">
<title>which.js&#45;&gt;✪katsu&#45;curry/katsu&#45;curry.js</title>
<path fill="none" stroke="#242424" d="M2263.1874,-1452.327C2307.9537,-1414.1028 2380.9652,-1342.6722 2410.1988,-1262.3122 2445.8855,-1164.2133 2439.6533,-1127.585 2410.1988,-1027.4382 2330.285,-755.7268 2279.6631,-676.6452 2065.1988,-491.6631 1967.8488,-407.6957 1832.2935,-350.7689 1730.9004,-316.7259"/>
<polygon fill="#242424" stroke="#242424" points="1731.7907,-313.3337 1721.1972,-313.5027 1729.584,-319.9768 1731.7907,-313.3337"/>
</g>
<!-- which.js&#45;&gt;flip.js -->
<g id="edge75" class="edge">
<title>which.js&#45;&gt;flip.js</title>
<path fill="none" stroke="#242424" d="M2191.1875,-1449.9687C2148.2585,-1409.5991 2075.2926,-1336.2457 2027.1988,-1262.3122 2013.5361,-1241.3089 2001.8487,-1216.117 1993.035,-1194.4605"/>
<polygon fill="#242424" stroke="#242424" points="1996.2615,-1193.1023 1989.3138,-1185.1035 1989.757,-1195.6891 1996.2615,-1193.1023"/>
</g>
<!-- which.js&#45;&gt;triplet.js -->
<g id="edge76" class="edge">
<title>which.js&#45;&gt;triplet.js</title>
<path fill="none" stroke="#242424" d="M2208.818,-1438.0483C2185.3972,-1379.1698 2143.5726,-1274.0255 2116.8935,-1206.9559"/>
<polygon fill="#242424" stroke="#242424" points="2120.0194,-1205.3449 2113.0711,-1197.3467 2113.5151,-1207.9323 2120.0194,-1205.3449"/>
</g>
<!-- ✪fast.js/array/every.js -->
<g id="node40" class="node">
<title>✪fast.js/array/every.js</title>
<ellipse fill="none" stroke="#0c821d" stroke-width="4" cx="2284.1988" cy="-1144.8752" rx="117.374" ry="117.374"/>
<text text-anchor="middle" x="2284.1988" y="-1142.4753" font-family="Fira Code" font-size="12.00" fill="#0c821d">✪fast.js/array/every.js</text>
</g>
<!-- which.js&#45;&gt;✪fast.js/array/every.js -->
<g id="edge72" class="edge">
<title>which.js&#45;&gt;✪fast.js/array/every.js</title>
<path fill="none" stroke="#242424" d="M2234.2026,-1435.2562C2241.5026,-1392.8569 2252.6285,-1328.2372 2262.5329,-1270.7121"/>
<polygon fill="#242424" stroke="#242424" points="2265.991,-1271.2542 2264.2386,-1260.8053 2259.0925,-1270.0664 2265.991,-1271.2542"/>
</g>
<!-- ✪fast.js/array/some.js -->
<g id="node41" class="node">
<title>✪fast.js/array/some.js</title>
<ellipse fill="none" stroke="#0c821d" stroke-width="4" cx="2570.1988" cy="-1144.8752" rx="112.6769" ry="112.6769"/>
<text text-anchor="middle" x="2570.1988" y="-1142.4753" font-family="Fira Code" font-size="12.00" fill="#0c821d">✪fast.js/array/some.js</text>
</g>
<!-- which.js&#45;&gt;✪fast.js/array/some.js -->
<g id="edge73" class="edge">
<title>which.js&#45;&gt;✪fast.js/array/some.js</title>
<path fill="none" stroke="#242424" d="M2259.8093,-1448.8288C2310.805,-1398.8905 2409.4458,-1302.295 2481.8923,-1231.3507"/>
<polygon fill="#242424" stroke="#242424" points="2484.5648,-1233.6323 2489.2608,-1224.135 2479.6672,-1228.631 2484.5648,-1233.6323"/>
</g>
<!-- map&#45;performance.fixture.js -->
<g id="node36" class="node">
<title>map&#45;performance.fixture.js</title>
<ellipse fill="none" stroke="#0c821d" stroke-width="4" cx="2104.1988" cy="-129.7839" rx="129.5681" ry="129.5681"/>
<text text-anchor="middle" x="2104.1988" y="-127.3839" font-family="Fira Code" font-size="12.00" fill="#0c821d">map&#45;performance.fixture.js</text>
</g>
<!-- test&#45;helpers.js -->
<g id="node39" class="node">
<title>test&#45;helpers.js</title>
<ellipse fill="none" stroke="#0c821d" stroke-width="4" cx="2476.1988" cy="-79.1988" rx="79.3981" ry="79.3981"/>
<text text-anchor="middle" x="2476.1988" y="-76.7988" font-family="Fira Code" font-size="12.00" fill="#0c821d">test&#45;helpers.js</text>
</g>
</g>
</svg>
