<?xml version="1.0" encoding="UTF-8" standalone="no"?>
<!DOCTYPE svg PUBLIC "-//W3C//DTD SVG 1.1//EN"
 "http://www.w3.org/Graphics/SVG/1.1/DTD/svg11.dtd">
<!-- Generated by graphviz version 2.40.1 (20161225.0304)
 -->
<!-- Title: G Pages: 1 -->
<svg width="2673pt" height="1610pt"
 viewBox="0.00 0.00 2672.57 1609.70" xmlns="http://www.w3.org/2000/svg" xmlns:xlink="http://www.w3.org/1999/xlink">
<g id="graph0" class="graph" transform="scale(1 1) rotate(0) translate(7.992 1601.7043)">
<title>G</title>
<polygon fill="#eeeeff" stroke="transparent" points="-7.992,7.992 -7.992,-1601.7043 2664.5733,-1601.7043 2664.5733,7.992 -7.992,7.992"/>
<!-- ../f&#45;utility.js -->
<g id="node1" class="node">
<title>../f&#45;utility.js</title>
<ellipse fill="none" stroke="#242424" stroke-width="4" cx="338.7907" cy="-426.9638" rx="79.3981" ry="79.3981"/>
<text text-anchor="middle" x="338.7907" y="-424.5638" font-family="Fira Code" font-size="12.00" fill="#242424">../f&#45;utility.js</text>
</g>
<!-- entrust/entrust.js -->
<g id="node2" class="node">
<title>entrust/entrust.js</title>
<ellipse fill="none" stroke="#0c821d" stroke-width="4" cx="556.7907" cy="-129.7839" rx="92.9895" ry="92.9895"/>
<text text-anchor="middle" x="556.7907" y="-127.3839" font-family="Fira Code" font-size="12.00" fill="#0c821d">entrust/entrust.js</text>
</g>
<!-- ../f&#45;utility.js&#45;&gt;entrust/entrust.js -->
<g id="edge1" class="edge">
<title>../f&#45;utility.js&#45;&gt;entrust/entrust.js</title>
<path fill="none" stroke="#242424" d="M385.825,-362.8461C418.0088,-318.9727 460.9853,-260.3868 495.7975,-212.9304"/>
<polygon fill="#242424" stroke="#242424" points="498.6609,-214.9443 501.7536,-204.8109 493.0167,-210.8039 498.6609,-214.9443"/>
</g>
<!-- fantasy&#45;land/index.js -->
<g id="node3" class="node">
<title>fantasy&#45;land/index.js</title>
<ellipse fill="none" stroke="#0c821d" stroke-width="4" cx="338.7907" cy="-129.7839" rx="106.5817" ry="106.5817"/>
<text text-anchor="middle" x="338.7907" y="-127.3839" font-family="Fira Code" font-size="12.00" fill="#0c821d">fantasy&#45;land/index.js</text>
</g>
<!-- ../f&#45;utility.js&#45;&gt;fantasy&#45;land/index.js -->
<g id="edge2" class="edge">
<title>../f&#45;utility.js&#45;&gt;fantasy&#45;land/index.js</title>
<path fill="none" stroke="#242424" d="M338.7907,-347.7154C338.7907,-316.8623 338.7907,-280.8675 338.7907,-247.1246"/>
<polygon fill="#242424" stroke="#242424" points="342.2908,-246.7331 338.7907,-236.7331 335.2908,-246.7332 342.2908,-246.7331"/>
</g>
<!-- flatmap&#45;fast/index.js -->
<g id="node4" class="node">
<title>flatmap&#45;fast/index.js</title>
<ellipse fill="none" stroke="#0c821d" stroke-width="4" cx="106.7907" cy="-129.7839" rx="106.5817" ry="106.5817"/>
<text text-anchor="middle" x="106.7907" y="-127.3839" font-family="Fira Code" font-size="12.00" fill="#0c821d">flatmap&#45;fast/index.js</text>
</g>
<!-- ../f&#45;utility.js&#45;&gt;flatmap&#45;fast/index.js -->
<g id="edge3" class="edge">
<title>../f&#45;utility.js&#45;&gt;flatmap&#45;fast/index.js</title>
<path fill="none" stroke="#242424" d="M289.8729,-364.3027C257.6382,-323.0117 214.8736,-268.2325 178.7822,-222.0013"/>
<polygon fill="#242424" stroke="#242424" points="181.5013,-219.7965 172.5887,-214.0678 175.9835,-224.104 181.5013,-219.7965"/>
</g>
<!-- katsu&#45;curry/katsu&#45;curry.js -->
<g id="node5" class="node">
<title>katsu&#45;curry/katsu&#45;curry.js</title>
<ellipse fill="none" stroke="#0c821d" stroke-width="4" cx="1532.7907" cy="-129.7839" rx="129.5681" ry="129.5681"/>
<text text-anchor="middle" x="1532.7907" y="-127.3839" font-family="Fira Code" font-size="12.00" fill="#0c821d">katsu&#45;curry/katsu&#45;curry.js</text>
</g>
<!-- ../f&#45;utility.js&#45;&gt;katsu&#45;curry/katsu&#45;curry.js -->
<g id="edge4" class="edge">
<title>../f&#45;utility.js&#45;&gt;katsu&#45;curry/katsu&#45;curry.js</title>
<path fill="none" stroke="#242424" d="M406.1207,-384.8629C434.9858,-368.3692 469.6383,-350.5633 502.7907,-338.5677 585.9516,-308.4775 1133.937,-204.2105 1394.9764,-155.3817"/>
<polygon fill="#242424" stroke="#242424" points="1395.7159,-158.8042 1404.9023,-153.5259 1394.4293,-151.9234 1395.7159,-158.8042"/>
</g>
<!-- ../package.json -->
<g id="node6" class="node">
<title>../package.json</title>
<ellipse fill="none" stroke="#0c821d" stroke-width="4" cx="432.7907" cy="-1286.3132" rx="79.3981" ry="79.3981"/>
<text text-anchor="middle" x="432.7907" y="-1283.9132" font-family="Fira Code" font-size="12.00" fill="#0c821d">../package.json</text>
</g>
<!-- array.js -->
<g id="node7" class="node">
<title>array.js</title>
<ellipse fill="none" stroke="#242424" stroke-width="4" cx="730.7907" cy="-961.5414" rx="47.0167" ry="47.0167"/>
<text text-anchor="middle" x="730.7907" y="-959.1414" font-family="Fira Code" font-size="12.00" fill="#242424">array.js</text>
</g>
<!-- array.js&#45;&gt;entrust/entrust.js -->
<g id="edge5" class="edge">
<title>array.js&#45;&gt;entrust/entrust.js</title>
<path fill="none" stroke="#242424" d="M715.5228,-916.9569C702.8085,-878.6392 684.8896,-821.728 672.7907,-771.1521 627.3747,-581.3044 632.0458,-530.562 596.7907,-338.5677 590.36,-303.5472 583.0953,-265.27 576.5385,-231.1645"/>
<polygon fill="#242424" stroke="#242424" points="579.9463,-230.3517 574.6189,-221.1937 573.0726,-231.6751 579.9463,-230.3517"/>
</g>
<!-- array.js&#45;&gt;katsu&#45;curry/katsu&#45;curry.js -->
<g id="edge6" class="edge">
<title>array.js&#45;&gt;katsu&#45;curry/katsu&#45;curry.js</title>
<path fill="none" stroke="#242424" d="M744.9948,-916.4281C769.7011,-843.0486 826.0841,-695.8463 909.7907,-594.3599 946.9503,-549.3074 984.0095,-564.9894 1014.7907,-515.3599 1056.9205,-447.4327 997.8783,-401 1047.7907,-338.5677 1133.2241,-231.7042 1283.8847,-178.4805 1394.6817,-152.6741"/>
<polygon fill="#242424" stroke="#242424" points="1395.6304,-156.0477 1404.6018,-150.4118 1394.0739,-149.223 1395.6304,-156.0477"/>
</g>
<!-- filter.js -->
<g id="node8" class="node">
<title>filter.js</title>
<ellipse fill="none" stroke="#242424" stroke-width="4" cx="733.7907" cy="-682.756" rx="51.7142" ry="51.7142"/>
<text text-anchor="middle" x="733.7907" y="-680.356" font-family="Fira Code" font-size="12.00" fill="#242424">filter.js</text>
</g>
<!-- array.js&#45;&gt;filter.js -->
<g id="edge7" class="edge">
<title>array.js&#45;&gt;filter.js</title>
<path fill="none" stroke="#242424" d="M731.2996,-914.2493C731.8016,-867.5963 732.5717,-796.0298 733.1227,-744.8258"/>
<polygon fill="#242424" stroke="#242424" points="736.6254,-744.5848 733.2333,-734.5477 729.6258,-744.5094 736.6254,-744.5848"/>
</g>
<!-- delegate&#45;fast.js -->
<g id="node10" class="node">
<title>delegate&#45;fast.js</title>
<ellipse fill="none" stroke="#242424" stroke-width="4" cx="921.7907" cy="-426.9638" rx="83.5954" ry="83.5954"/>
<text text-anchor="middle" x="921.7907" y="-424.5638" font-family="Fira Code" font-size="12.00" fill="#242424">delegate&#45;fast.js</text>
</g>
<!-- filter.js&#45;&gt;delegate&#45;fast.js -->
<g id="edge14" class="edge">
<title>filter.js&#45;&gt;delegate&#45;fast.js</title>
<path fill="none" stroke="#242424" d="M764.4145,-641.0893C791.8406,-603.7734 832.7399,-548.126 865.9701,-502.913"/>
<polygon fill="#242424" stroke="#242424" points="868.9787,-504.7295 872.0807,-494.599 863.3382,-500.584 868.9787,-504.7295"/>
</g>
<!-- fast.js/filter.js -->
<g id="node12" class="node">
<title>fast.js/filter.js</title>
<ellipse fill="none" stroke="#0c821d" stroke-width="4" cx="731.7907" cy="-426.9638" rx="88.2923" ry="88.2923"/>
<text text-anchor="middle" x="731.7907" y="-424.5638" font-family="Fira Code" font-size="12.00" fill="#0c821d">fast.js/filter.js</text>
</g>
<!-- filter.js&#45;&gt;fast.js/filter.js -->
<g id="edge13" class="edge">
<title>filter.js&#45;&gt;fast.js/filter.js</title>
<path fill="none" stroke="#242424" d="M733.3859,-630.9926C733.1491,-600.7023 732.8422,-561.4543 732.561,-525.4836"/>
<polygon fill="#242424" stroke="#242424" points="736.0606,-525.4074 732.4824,-515.4351 729.0608,-525.4622 736.0606,-525.4074"/>
</g>
<!-- chain.js -->
<g id="node9" class="node">
<title>chain.js</title>
<ellipse fill="none" stroke="#242424" stroke-width="4" cx="540.7907" cy="-682.756" rx="47.0167" ry="47.0167"/>
<text text-anchor="middle" x="540.7907" y="-680.356" font-family="Fira Code" font-size="12.00" fill="#242424">chain.js</text>
</g>
<!-- chain.js&#45;&gt;flatmap&#45;fast/index.js -->
<g id="edge8" class="edge">
<title>chain.js&#45;&gt;flatmap&#45;fast/index.js</title>
<path fill="none" stroke="#242424" d="M521.2404,-639.5273C512.1381,-623.4553 499.9342,-606.2554 484.7907,-594.3599 398.4705,-526.5542 329.6332,-591.7317 250.7907,-515.3599 176.9821,-443.8644 140.6565,-331.0226 122.9929,-245.8473"/>
<polygon fill="#242424" stroke="#242424" points="126.3878,-244.976 120.9814,-235.8644 119.5257,-246.3587 126.3878,-244.976"/>
</g>
<!-- chain.js&#45;&gt;delegate&#45;fast.js -->
<g id="edge9" class="edge">
<title>chain.js&#45;&gt;delegate&#45;fast.js</title>
<path fill="none" stroke="#242424" d="M579.2706,-655.1834C605.1856,-637.0673 640.4161,-613.3035 672.7907,-594.3599 739.868,-555.1104 765.2864,-560.1607 828.7907,-515.3599 837.9414,-508.9043 847.0847,-501.5751 855.8705,-493.9645"/>
<polygon fill="#242424" stroke="#242424" points="858.3229,-496.4679 863.4906,-487.2188 853.683,-491.2266 858.3229,-496.4679"/>
</g>
<!-- delegate&#45;fast.js&#45;&gt;entrust/entrust.js -->
<g id="edge11" class="edge">
<title>delegate&#45;fast.js&#45;&gt;entrust/entrust.js</title>
<path fill="none" stroke="#242424" d="M863.7229,-366.3734C852.6483,-356.4217 840.7611,-346.7136 828.7907,-338.5677 759.9111,-291.6951 724.1023,-311.296 658.7907,-259.5677 642.8632,-246.9528 627.9345,-231.3709 614.673,-215.4328"/>
<polygon fill="#242424" stroke="#242424" points="617.323,-213.144 608.2996,-207.5916 611.8909,-217.5592 617.323,-213.144"/>
</g>
<!-- delegate&#45;fast.js&#45;&gt;katsu&#45;curry/katsu&#45;curry.js -->
<g id="edge12" class="edge">
<title>delegate&#45;fast.js&#45;&gt;katsu&#45;curry/katsu&#45;curry.js</title>
<path fill="none" stroke="#242424" d="M981.0982,-367.5894C993.2975,-357.1134 1006.4947,-346.9077 1019.7907,-338.5677 1139.7812,-263.3035 1291.5358,-205.5274 1398.7718,-170.0334"/>
<polygon fill="#242424" stroke="#242424" points="1399.9517,-173.3299 1408.3576,-166.8807 1397.7646,-166.6803 1399.9517,-173.3299"/>
</g>
<!-- choice.js -->
<g id="node11" class="node">
<title>choice.js</title>
<ellipse fill="none" stroke="#242424" stroke-width="4" cx="1650.7907" cy="-426.9638" rx="51.7142" ry="51.7142"/>
<text text-anchor="middle" x="1650.7907" y="-424.5638" font-family="Fira Code" font-size="12.00" fill="#242424">choice.js</text>
</g>
<!-- choice.js&#45;&gt;katsu&#45;curry/katsu&#45;curry.js -->
<g id="edge10" class="edge">
<title>choice.js&#45;&gt;katsu&#45;curry/katsu&#45;curry.js</title>
<path fill="none" stroke="#242424" d="M1631.7008,-378.8864C1618.8751,-346.5854 1601.3126,-302.3547 1584.5432,-260.1213"/>
<polygon fill="#242424" stroke="#242424" points="1587.6978,-258.5817 1580.7544,-250.5792 1581.1919,-261.165 1587.6978,-258.5817"/>
</g>
<!-- flip.js -->
<g id="node13" class="node">
<title>flip.js</title>
<ellipse fill="none" stroke="#242424" stroke-width="4" cx="2104.7907" cy="-961.5414" rx="42.3196" ry="42.3196"/>
<text text-anchor="middle" x="2104.7907" y="-959.1414" font-family="Fira Code" font-size="12.00" fill="#242424">flip.js</text>
</g>
<!-- flip.js&#45;&gt;katsu&#45;curry/katsu&#45;curry.js -->
<g id="edge15" class="edge">
<title>flip.js&#45;&gt;katsu&#45;curry/katsu&#45;curry.js</title>
<path fill="none" stroke="#242424" d="M2109.9535,-919.4341C2120.9127,-810.5292 2135.0618,-515.732 1994.7907,-338.5677 1914.7862,-237.5211 1775.1526,-183.7615 1670.279,-156.2532"/>
<polygon fill="#242424" stroke="#242424" points="1671.1182,-152.8552 1660.5615,-153.753 1669.374,-159.6344 1671.1182,-152.8552"/>
</g>
<!-- future.js -->
<g id="node14" class="node">
<title>future.js</title>
<ellipse fill="none" stroke="#242424" stroke-width="4" cx="423.7907" cy="-682.756" rx="51.7142" ry="51.7142"/>
<text text-anchor="middle" x="423.7907" y="-680.356" font-family="Fira Code" font-size="12.00" fill="#242424">future.js</text>
</g>
<!-- future.js&#45;&gt;entrust/entrust.js -->
<g id="edge16" class="edge">
<title>future.js&#45;&gt;entrust/entrust.js</title>
<path fill="none" stroke="#242424" d="M434.9371,-632.2049C449.8565,-565.0159 477.3909,-442.6503 502.7907,-338.5677 511.455,-303.0629 521.3632,-264.2785 530.3068,-229.8778"/>
<polygon fill="#242424" stroke="#242424" points="533.7913,-230.3854 532.925,-219.826 527.0173,-228.6209 533.7913,-230.3854"/>
</g>
<!-- index.js -->
<g id="node15" class="node">
<title>index.js</title>
<ellipse fill="none" stroke="#242424" stroke-width="4" cx="1316.7907" cy="-1546.704" rx="47.0167" ry="47.0167"/>
<text text-anchor="middle" x="1316.7907" y="-1544.304" font-family="Fira Code" font-size="12.00" fill="#242424">index.js</text>
</g>
<!-- index.js&#45;&gt;katsu&#45;curry/katsu&#45;curry.js -->
<g id="edge17" class="edge">
<title>index.js&#45;&gt;katsu&#45;curry/katsu&#45;curry.js</title>
<path fill="none" stroke="#242424" d="M1363.4711,-1540.2718C1426.741,-1528.7704 1537.4692,-1498.1423 1586.7907,-1420.6957 1636.1105,-1343.2517 1592.0999,-686.0214 1586.7907,-594.3599 1580.4256,-484.4708 1565.6597,-360.6919 1553.1747,-268.5469"/>
<polygon fill="#242424" stroke="#242424" points="1556.6379,-268.0384 1551.8196,-258.6026 1549.702,-268.9836 1556.6379,-268.0384"/>
</g>
<!-- index.js&#45;&gt;../package.json -->
<g id="edge19" class="edge">
<title>index.js&#45;&gt;../package.json</title>
<path fill="none" stroke="#242424" d="M1269.8091,-1544.0249C1119.3089,-1534.7126 651.6474,-1499.8997 525.7907,-1420.6957 504.58,-1407.3474 486.9345,-1387.212 472.9191,-1366.5622"/>
<polygon fill="#242424" stroke="#242424" points="475.7333,-1364.4705 467.333,-1358.014 469.8735,-1368.2998 475.7333,-1364.4705"/>
</g>
<!-- index.js&#45;&gt;array.js -->
<g id="edge20" class="edge">
<title>index.js&#45;&gt;array.js</title>
<path fill="none" stroke="#242424" d="M1269.798,-1544.3942C1139.2857,-1536.9009 777.2849,-1508.439 705.7907,-1420.6957 656.7061,-1360.4553 696.73,-1126.3187 718.7231,-1017.5962"/>
<polygon fill="#242424" stroke="#242424" points="722.1541,-1018.2878 720.7269,-1007.7896 715.2958,-1016.8864 722.1541,-1018.2878"/>
</g>
<!-- index.js&#45;&gt;filter.js -->
<g id="edge23" class="edge">
<title>index.js&#45;&gt;filter.js</title>
<path fill="none" stroke="#242424" d="M1269.7368,-1544.7901C1135.3474,-1538.2468 754.5847,-1511.8498 678.7907,-1420.6957 597.7272,-1323.2043 653.411,-975.1271 674.7907,-850.1521 681.2888,-812.167 695.5187,-771.345 708.3752,-739.5233"/>
<polygon fill="#242424" stroke="#242424" points="711.7458,-740.5295 712.311,-729.9497 705.2715,-737.8678 711.7458,-740.5295"/>
</g>
<!-- index.js&#45;&gt;chain.js -->
<g id="edge21" class="edge">
<title>index.js&#45;&gt;chain.js</title>
<path fill="none" stroke="#242424" d="M1269.69,-1545.5967C1125.1159,-1541.1469 692.0351,-1519.6463 601.7907,-1420.6957 598.919,-1417.547 558.9085,-912.7532 545.291,-739.9765"/>
<polygon fill="#242424" stroke="#242424" points="548.7647,-739.5047 544.49,-729.8105 541.7864,-740.0546 548.7647,-739.5047"/>
</g>
<!-- index.js&#45;&gt;choice.js -->
<g id="edge22" class="edge">
<title>index.js&#45;&gt;choice.js</title>
<path fill="none" stroke="#242424" d="M1363.6326,-1542.5617C1432.9552,-1533.6493 1560.9883,-1505.9252 1619.7907,-1420.6957 1672.5361,-1344.2452 1658.5008,-693.861 1652.6946,-488.699"/>
<polygon fill="#242424" stroke="#242424" points="1656.193,-488.5896 1652.4079,-478.694 1649.1958,-488.7902 1656.193,-488.5896"/>
</g>
<!-- index.js&#45;&gt;flip.js -->
<g id="edge24" class="edge">
<title>index.js&#45;&gt;flip.js</title>
<path fill="none" stroke="#242424" d="M1363.9448,-1545.5414C1509.78,-1540.9175 1949.3616,-1518.9344 2043.7907,-1420.6957 2098.7205,-1363.5498 2105.224,-1122.1282 2105.3108,-1014.1341"/>
<polygon fill="#242424" stroke="#242424" points="2108.8109,-1014.1067 2105.3006,-1004.1103 2101.8109,-1014.1139 2108.8109,-1014.1067"/>
</g>
<!-- index.js&#45;&gt;future.js -->
<g id="edge25" class="edge">
<title>index.js&#45;&gt;future.js</title>
<path fill="none" stroke="#242424" d="M1269.5506,-1545.4104C1122.3266,-1540.3847 675.6885,-1517.3103 575.7907,-1420.6957 488.1473,-1335.9329 545.3558,-1271.357 520.7907,-1151.9307 490.6162,-1005.2337 454.9012,-832.7899 436.3676,-743.3914"/>
<polygon fill="#242424" stroke="#242424" points="439.7599,-742.5127 434.3026,-733.4315 432.9057,-743.9339 439.7599,-742.5127"/>
</g>
<!-- katsu&#45;curry/utils/length.js -->
<g id="node16" class="node">
<title>katsu&#45;curry/utils/length.js</title>
<ellipse fill="none" stroke="#0c821d" stroke-width="4" cx="891.7907" cy="-1286.3132" rx="134.2651" ry="134.2651"/>
<text text-anchor="middle" x="891.7907" y="-1283.9132" font-family="Fira Code" font-size="12.00" fill="#0c821d">katsu&#45;curry/utils/length.js</text>
</g>
<!-- index.js&#45;&gt;katsu&#45;curry/utils/length.js -->
<g id="edge18" class="edge">
<title>index.js&#45;&gt;katsu&#45;curry/utils/length.js</title>
<path fill="none" stroke="#242424" d="M1271.9038,-1531.2227C1215.2227,-1510.5929 1115.9188,-1470.7978 1039.7907,-1420.6957 1024.7471,-1410.7951 1009.7214,-1399.3869 995.3243,-1387.489"/>
<polygon fill="#242424" stroke="#242424" points="997.3047,-1384.5818 987.3945,-1380.8351 992.8052,-1389.9442 997.3047,-1384.5818"/>
</g>
<!-- iterate.js -->
<g id="node17" class="node">
<title>iterate.js</title>
<ellipse fill="none" stroke="#242424" stroke-width="4" cx="1727.7907" cy="-682.756" rx="56.412" ry="56.412"/>
<text text-anchor="middle" x="1727.7907" y="-680.356" font-family="Fira Code" font-size="12.00" fill="#242424">iterate.js</text>
</g>
<!-- index.js&#45;&gt;iterate.js -->
<g id="edge26" class="edge">
<title>index.js&#45;&gt;iterate.js</title>
<path fill="none" stroke="#242424" d="M1363.5758,-1541.2534C1471.596,-1527.6083 1733.0959,-1488.1502 1784.7907,-1420.6957 1821.1206,-1373.2902 1798.6595,-1210.0237 1784.7907,-1151.9307 1775.652,-1113.6511 1754.7605,-1111.0022 1744.7907,-1072.9307 1715.7768,-962.1366 1717.6499,-827.6811 1722.2817,-749.0258"/>
<polygon fill="#242424" stroke="#242424" points="1725.7916,-748.9742 1722.9197,-738.776 1718.8051,-748.5393 1725.7916,-748.9742"/>
</g>
<!-- map.js -->
<g id="node18" class="node">
<title>map.js</title>
<ellipse fill="none" stroke="#242424" stroke-width="4" cx="549.7907" cy="-426.9638" rx="37.623" ry="37.623"/>
<text text-anchor="middle" x="549.7907" y="-424.5638" font-family="Fira Code" font-size="12.00" fill="#242424">map.js</text>
</g>
<!-- index.js&#45;&gt;map.js -->
<g id="edge27" class="edge">
<title>index.js&#45;&gt;map.js</title>
<path fill="none" stroke="#242424" d="M1269.5705,-1545.3373C1128.8024,-1540.1932 716.6111,-1517.0243 632.7907,-1420.6957 602.627,-1386.0308 604.0494,-639.7341 596.7907,-594.3599 590.0711,-552.3559 576.5073,-505.8713 565.6707,-472.5672"/>
<polygon fill="#242424" stroke="#242424" points="568.8634,-471.0735 562.4057,-462.6742 562.2161,-473.2673 568.8634,-471.0735"/>
</g>
<!-- math.js -->
<g id="node19" class="node">
<title>math.js</title>
<ellipse fill="none" stroke="#242424" stroke-width="4" cx="2001.7907" cy="-961.5414" rx="42.3196" ry="42.3196"/>
<text text-anchor="middle" x="2001.7907" y="-959.1414" font-family="Fira Code" font-size="12.00" fill="#242424">math.js</text>
</g>
<!-- index.js&#45;&gt;math.js -->
<g id="edge28" class="edge">
<title>index.js&#45;&gt;math.js</title>
<path fill="none" stroke="#242424" d="M1364.193,-1545.4925C1505.4777,-1540.7886 1918.9801,-1518.737 2000.7907,-1420.6957 2098.8515,-1303.1802 2050.3806,-1103.6567 2020.0186,-1011.2449"/>
<polygon fill="#242424" stroke="#242424" points="2023.2756,-1009.9488 2016.7797,-1001.579 2016.6383,-1012.1729 2023.2756,-1009.9488"/>
</g>
<!-- object.js -->
<g id="node20" class="node">
<title>object.js</title>
<ellipse fill="none" stroke="#242424" stroke-width="4" cx="1851.7907" cy="-426.9638" rx="51.7142" ry="51.7142"/>
<text text-anchor="middle" x="1851.7907" y="-424.5638" font-family="Fira Code" font-size="12.00" fill="#242424">object.js</text>
</g>
<!-- index.js&#45;&gt;object.js -->
<g id="edge29" class="edge">
<title>index.js&#45;&gt;object.js</title>
<path fill="none" stroke="#242424" d="M1363.6988,-1542.3813C1480.736,-1530.5713 1780.7556,-1493.6624 1843.7907,-1420.6957 1926.7975,-1324.6105 1878.2373,-977.0798 1874.7907,-850.1521 1871.2999,-721.6025 1861.8553,-571.3306 1856.2134,-488.9135"/>
<polygon fill="#242424" stroke="#242424" points="1859.6901,-488.4538 1855.5111,-478.718 1852.7066,-488.9349 1859.6901,-488.4538"/>
</g>
<!-- path.js -->
<g id="node21" class="node">
<title>path.js</title>
<ellipse fill="none" stroke="#242424" stroke-width="4" cx="1949.7907" cy="-1286.3132" rx="42.3196" ry="42.3196"/>
<text text-anchor="middle" x="1949.7907" y="-1283.9132" font-family="Fira Code" font-size="12.00" fill="#242424">path.js</text>
</g>
<!-- index.js&#45;&gt;path.js -->
<g id="edge30" class="edge">
<title>index.js&#45;&gt;path.js</title>
<path fill="none" stroke="#242424" d="M1363.3699,-1539.0706C1493.248,-1517.4365 1852.6101,-1455.0649 1893.7907,-1420.6957 1918.6127,-1399.9792 1932.6107,-1366.4134 1940.4042,-1338.0118"/>
<polygon fill="#242424" stroke="#242424" points="1943.8239,-1338.766 1942.9096,-1328.2107 1937.0419,-1337.0323 1943.8239,-1338.766"/>
</g>
<!-- random&#45;floor.js -->
<g id="node22" class="node">
<title>random&#45;floor.js</title>
<ellipse fill="none" stroke="#242424" stroke-width="4" cx="1040.7907" cy="-682.756" rx="79.3981" ry="79.3981"/>
<text text-anchor="middle" x="1040.7907" y="-680.356" font-family="Fira Code" font-size="12.00" fill="#242424">random&#45;floor.js</text>
</g>
<!-- index.js&#45;&gt;random&#45;floor.js -->
<g id="edge31" class="edge">
<title>index.js&#45;&gt;random&#45;floor.js</title>
<path fill="none" stroke="#242424" d="M1270.4839,-1537.4721C1213.0241,-1523.3059 1117.2104,-1490.193 1072.7907,-1420.6957 1038.6891,-1367.3417 1038.1603,-957.0344 1039.6985,-772.3465"/>
<polygon fill="#242424" stroke="#242424" points="1043.2003,-772.1477 1039.7878,-762.1175 1036.2006,-772.0866 1043.2003,-772.1477"/>
</g>
<!-- random&#45;shuffle.js -->
<g id="node23" class="node">
<title>random&#45;shuffle.js</title>
<ellipse fill="none" stroke="#0c821d" stroke-width="4" cx="1489.7907" cy="-1286.3132" rx="88.2923" ry="88.2923"/>
<text text-anchor="middle" x="1489.7907" y="-1283.9132" font-family="Fira Code" font-size="12.00" fill="#0c821d">random&#45;shuffle.js</text>
</g>
<!-- index.js&#45;&gt;random&#45;shuffle.js -->
<g id="edge32" class="edge">
<title>index.js&#45;&gt;random&#45;shuffle.js</title>
<path fill="none" stroke="#242424" d="M1342.8778,-1507.439C1367.226,-1470.7913 1404.3295,-1414.945 1435.1562,-1368.5463"/>
<polygon fill="#242424" stroke="#242424" points="1438.216,-1370.2654 1440.8346,-1359.9993 1432.3855,-1366.3917 1438.216,-1370.2654"/>
</g>
<!-- random&#45;take.js -->
<g id="node24" class="node">
<title>random&#45;take.js</title>
<ellipse fill="none" stroke="#242424" stroke-width="4" cx="1223.7907" cy="-961.5414" rx="74.7005" ry="74.7005"/>
<text text-anchor="middle" x="1223.7907" y="-959.1414" font-family="Fira Code" font-size="12.00" fill="#242424">random&#45;take.js</text>
</g>
<!-- index.js&#45;&gt;random&#45;take.js -->
<g id="edge33" class="edge">
<title>index.js&#45;&gt;random&#45;take.js</title>
<path fill="none" stroke="#242424" d="M1309.3373,-1499.8069C1293.6419,-1401.0507 1257.001,-1170.503 1237.1467,-1045.5788"/>
<polygon fill="#242424" stroke="#242424" points="1240.5977,-1044.9932 1235.5714,-1035.6666 1233.6845,-1046.092 1240.5977,-1044.9932"/>
</g>
<!-- random&#45;word.js -->
<g id="node25" class="node">
<title>random&#45;word.js</title>
<ellipse fill="none" stroke="#242424" stroke-width="4" cx="1156.7907" cy="-1286.3132" rx="74.7005" ry="74.7005"/>
<text text-anchor="middle" x="1156.7907" y="-1283.9132" font-family="Fira Code" font-size="12.00" fill="#242424">random&#45;word.js</text>
</g>
<!-- index.js&#45;&gt;random&#45;word.js -->
<g id="edge34" class="edge">
<title>index.js&#45;&gt;random&#45;word.js</title>
<path fill="none" stroke="#242424" d="M1292.1413,-1506.5886C1268.0035,-1467.3057 1230.6795,-1406.5631 1201.3346,-1358.8059"/>
<polygon fill="#242424" stroke="#242424" points="1204.1704,-1356.7355 1195.9531,-1350.0478 1198.2063,-1360.4002 1204.1704,-1356.7355"/>
</g>
<!-- random.js -->
<g id="node26" class="node">
<title>random.js</title>
<ellipse fill="none" stroke="#0c821d" stroke-width="4" cx="1723.7907" cy="-1286.3132" rx="51.7142" ry="51.7142"/>
<text text-anchor="middle" x="1723.7907" y="-1283.9132" font-family="Fira Code" font-size="12.00" fill="#0c821d">random.js</text>
</g>
<!-- index.js&#45;&gt;random.js -->
<g id="edge35" class="edge">
<title>index.js&#45;&gt;random.js</title>
<path fill="none" stroke="#242424" d="M1363.5364,-1540.637C1435.0107,-1529.1295 1572.1587,-1497.966 1657.7907,-1420.6957 1679.9614,-1400.6898 1695.5254,-1371.5744 1705.9472,-1345.5554"/>
<polygon fill="#242424" stroke="#242424" points="1709.2481,-1346.7226 1709.5569,-1336.1322 1702.7113,-1344.2185 1709.2481,-1346.7226"/>
</g>
<!-- reduce.js -->
<g id="node27" class="node">
<title>reduce.js</title>
<ellipse fill="none" stroke="#242424" stroke-width="4" cx="1367.7907" cy="-961.5414" rx="51.7142" ry="51.7142"/>
<text text-anchor="middle" x="1367.7907" y="-959.1414" font-family="Fira Code" font-size="12.00" fill="#242424">reduce.js</text>
</g>
<!-- index.js&#45;&gt;reduce.js -->
<g id="edge36" class="edge">
<title>index.js&#45;&gt;reduce.js</title>
<path fill="none" stroke="#242424" d="M1313.9976,-1499.6781C1310.3493,-1425.4498 1306.1264,-1276.727 1321.7907,-1151.9307 1327.3888,-1107.3306 1339.4704,-1058.0271 1349.8473,-1020.769"/>
<polygon fill="#242424" stroke="#242424" points="1353.2336,-1021.656 1352.5825,-1011.0812 1346.497,-1019.754 1353.2336,-1021.656"/>
</g>
<!-- reject.js -->
<g id="node28" class="node">
<title>reject.js</title>
<ellipse fill="none" stroke="#242424" stroke-width="4" cx="847.7907" cy="-961.5414" rx="51.7142" ry="51.7142"/>
<text text-anchor="middle" x="847.7907" y="-959.1414" font-family="Fira Code" font-size="12.00" fill="#242424">reject.js</text>
</g>
<!-- index.js&#45;&gt;reject.js -->
<g id="edge37" class="edge">
<title>index.js&#45;&gt;reject.js</title>
<path fill="none" stroke="#242424" d="M1269.5198,-1543.5835C1145.2103,-1534.2963 814.2212,-1502.2325 748.7907,-1420.6957 674.0301,-1327.5322 720.4253,-1267.9651 748.7907,-1151.9307 752.3272,-1137.4639 790.0691,-1066.7919 817.9068,-1015.771"/>
<polygon fill="#242424" stroke="#242424" points="821.0798,-1017.2634 822.8044,-1006.8099 814.9373,-1013.9063 821.0798,-1017.2634"/>
</g>
<!-- string.js -->
<g id="node29" class="node">
<title>string.js</title>
<ellipse fill="none" stroke="#242424" stroke-width="4" cx="302.7907" cy="-682.756" rx="51.7142" ry="51.7142"/>
<text text-anchor="middle" x="302.7907" y="-680.356" font-family="Fira Code" font-size="12.00" fill="#242424">string.js</text>
</g>
<!-- index.js&#45;&gt;string.js -->
<g id="edge38" class="edge">
<title>index.js&#45;&gt;string.js</title>
<path fill="none" stroke="#242424" d="M1269.5864,-1544.0685C1083.625,-1533.2259 408.6861,-1489.37 344.7907,-1420.6957 168.0936,-1230.783 244.263,-880.6653 284.1276,-741.7691"/>
<polygon fill="#242424" stroke="#242424" points="287.4964,-742.7184 286.9311,-732.1387 280.7754,-740.7618 287.4964,-742.7184"/>
</g>
<!-- ternary.js -->
<g id="node30" class="node">
<title>ternary.js</title>
<ellipse fill="none" stroke="#242424" stroke-width="4" cx="1448.7907" cy="-426.9638" rx="56.412" ry="56.412"/>
<text text-anchor="middle" x="1448.7907" y="-424.5638" font-family="Fira Code" font-size="12.00" fill="#242424">ternary.js</text>
</g>
<!-- index.js&#45;&gt;ternary.js -->
<g id="edge39" class="edge">
<title>index.js&#45;&gt;ternary.js</title>
<path fill="none" stroke="#242424" d="M1318.9161,-1499.479C1323.5876,-1401.5264 1335.4808,-1182.774 1349.7907,-1151.9307 1370.6885,-1106.8878 1409.081,-1118.506 1428.7907,-1072.9307 1473.1087,-970.4524 1460.6069,-636.9008 1452.846,-493.4939"/>
<polygon fill="#242424" stroke="#242424" points="1456.3178,-492.8839 1452.2732,-483.0915 1449.3284,-493.2688 1456.3178,-492.8839"/>
</g>
<!-- triplet.js -->
<g id="node31" class="node">
<title>triplet.js</title>
<ellipse fill="none" stroke="#242424" stroke-width="4" cx="1809.7907" cy="-961.5414" rx="56.412" ry="56.412"/>
<text text-anchor="middle" x="1809.7907" y="-959.1414" font-family="Fira Code" font-size="12.00" fill="#242424">triplet.js</text>
</g>
<!-- index.js&#45;&gt;triplet.js -->
<g id="edge40" class="edge">
<title>index.js&#45;&gt;triplet.js</title>
<path fill="none" stroke="#242424" d="M1363.8617,-1542.1045C1477.4977,-1529.9306 1761.6119,-1492.7538 1817.7907,-1420.6957 1864.0787,-1361.324 1837.7185,-1139.6703 1820.7062,-1027.4805"/>
<polygon fill="#242424" stroke="#242424" points="1824.1204,-1026.6543 1819.1427,-1017.3016 1817.2016,-1027.7171 1824.1204,-1026.6543"/>
</g>
<!-- types.js -->
<g id="node32" class="node">
<title>types.js</title>
<ellipse fill="none" stroke="#242424" stroke-width="4" cx="1530.7907" cy="-682.756" rx="47.0167" ry="47.0167"/>
<text text-anchor="middle" x="1530.7907" y="-680.356" font-family="Fira Code" font-size="12.00" fill="#242424">types.js</text>
</g>
<!-- index.js&#45;&gt;types.js -->
<g id="edge41" class="edge">
<title>index.js&#45;&gt;types.js</title>
<path fill="none" stroke="#242424" d="M1329.7805,-1501.4645C1336.3488,-1477.5773 1344.1098,-1447.6938 1349.7907,-1420.6957 1374.6993,-1302.3177 1341.4519,-1261.4667 1392.7907,-1151.9307 1412.5749,-1109.7191 1441.6612,-1114.9787 1461.7907,-1072.9307 1514.3093,-963.2256 1527.1966,-818.9374 1530.1442,-740.1693"/>
<polygon fill="#242424" stroke="#242424" points="1533.6491,-740.0759 1530.4838,-729.965 1526.653,-739.843 1533.6491,-740.0759"/>
</g>
<!-- which.js -->
<g id="node33" class="node">
<title>which.js</title>
<ellipse fill="none" stroke="#242424" stroke-width="4" cx="2159.7907" cy="-1286.3132" rx="47.0167" ry="47.0167"/>
<text text-anchor="middle" x="2159.7907" y="-1283.9132" font-family="Fira Code" font-size="12.00" fill="#242424">which.js</text>
</g>
<!-- index.js&#45;&gt;which.js -->
<g id="edge42" class="edge">
<title>index.js&#45;&gt;which.js</title>
<path fill="none" stroke="#242424" d="M1363.9059,-1544.4709C1513.0924,-1536.579 1972.1703,-1505.7501 2089.7907,-1420.6957 2116.2001,-1401.5983 2133.4424,-1369.5114 2144.2052,-1341.4805"/>
<polygon fill="#242424" stroke="#242424" points="2147.611,-1342.3567 2147.7463,-1331.7627 2141.034,-1339.9601 2147.611,-1342.3567"/>
</g>
<!-- iterate.js&#45;&gt;katsu&#45;curry/katsu&#45;curry.js -->
<g id="edge43" class="edge">
<title>iterate.js&#45;&gt;katsu&#45;curry/katsu&#45;curry.js</title>
<path fill="none" stroke="#242424" d="M1735.9714,-627.1C1743.8906,-557.0605 1749.78,-434.3479 1711.7907,-338.5677 1695.098,-296.4814 1666.2109,-256.9267 1636.454,-223.8029"/>
<polygon fill="#242424" stroke="#242424" points="1639.0206,-221.4231 1629.6924,-216.3994 1633.8518,-226.1437 1639.0206,-221.4231"/>
</g>
<!-- map.js&#45;&gt;entrust/entrust.js -->
<g id="edge44" class="edge">
<title>map.js&#45;&gt;entrust/entrust.js</title>
<path fill="none" stroke="#242424" d="M550.6843,-389.0239C551.6054,-349.9213 553.082,-287.2332 554.3524,-233.2975"/>
<polygon fill="#242424" stroke="#242424" points="557.8587,-233.0666 554.5953,-222.9869 550.8607,-232.9017 557.8587,-233.0666"/>
</g>
<!-- map.js&#45;&gt;fantasy&#45;land/index.js -->
<g id="edge45" class="edge">
<title>map.js&#45;&gt;fantasy&#45;land/index.js</title>
<path fill="none" stroke="#242424" d="M527.8071,-396.0014C499.3283,-355.8908 448.3748,-284.1261 406.5422,-225.2076"/>
<polygon fill="#242424" stroke="#242424" points="409.3464,-223.1114 400.7033,-216.9838 403.6388,-227.1639 409.3464,-223.1114"/>
</g>
<!-- map.js&#45;&gt;katsu&#45;curry/katsu&#45;curry.js -->
<g id="edge47" class="edge">
<title>map.js&#45;&gt;katsu&#45;curry/katsu&#45;curry.js</title>
<path fill="none" stroke="#242424" d="M572.0593,-395.9043C587.5297,-376.5727 609.8009,-352.767 634.7907,-338.5677 763.7112,-265.3147 1176.3937,-188.7331 1394.57,-152.0108"/>
<polygon fill="#242424" stroke="#242424" points="1395.2073,-155.4529 1404.4901,-150.3461 1394.0487,-148.5495 1395.2073,-155.4529"/>
</g>
<!-- fast.js/map.js -->
<g id="node34" class="node">
<title>fast.js/map.js</title>
<ellipse fill="none" stroke="#0c821d" stroke-width="4" cx="742.7907" cy="-129.7839" rx="74.7005" ry="74.7005"/>
<text text-anchor="middle" x="742.7907" y="-127.3839" font-family="Fira Code" font-size="12.00" fill="#0c821d">fast.js/map.js</text>
</g>
<!-- map.js&#45;&gt;fast.js/map.js -->
<g id="edge46" class="edge">
<title>map.js&#45;&gt;fast.js/map.js</title>
<path fill="none" stroke="#242424" d="M570.51,-395.2012C592.4566,-361.5439 628.1049,-306.8355 658.7907,-259.5677 671.0839,-240.6314 684.3676,-220.1271 696.6637,-201.1297"/>
<polygon fill="#242424" stroke="#242424" points="699.7419,-202.8151 702.2366,-192.5182 693.8651,-199.012 699.7419,-202.8151"/>
</g>
<!-- math.js&#45;&gt;katsu&#45;curry/katsu&#45;curry.js -->
<g id="edge48" class="edge">
<title>math.js&#45;&gt;katsu&#45;curry/katsu&#45;curry.js</title>
<path fill="none" stroke="#242424" d="M2010.7406,-919.936C2031.3111,-812.8537 2071.0913,-523.2239 1945.7907,-338.5677 1882.1139,-244.7269 1763.0983,-190.8957 1669.1276,-161.4825"/>
<polygon fill="#242424" stroke="#242424" points="1670.1246,-158.1274 1659.5377,-158.5378 1668.0698,-164.819 1670.1246,-158.1274"/>
</g>
<!-- object.js&#45;&gt;katsu&#45;curry/katsu&#45;curry.js -->
<g id="edge49" class="edge">
<title>object.js&#45;&gt;katsu&#45;curry/katsu&#45;curry.js</title>
<path fill="none" stroke="#242424" d="M1822.851,-383.9434C1811.9608,-368.9572 1799.0004,-352.4354 1785.7907,-338.5677 1743.0905,-293.7406 1691.0325,-249.3355 1645.2643,-213.0776"/>
<polygon fill="#242424" stroke="#242424" points="1647.4074,-210.3103 1637.3872,-206.8682 1643.0738,-215.8076 1647.4074,-210.3103"/>
</g>
<!-- path.js&#45;&gt;katsu&#45;curry/katsu&#45;curry.js -->
<g id="edge50" class="edge">
<title>path.js&#45;&gt;katsu&#45;curry/katsu&#45;curry.js</title>
<path fill="none" stroke="#242424" d="M1949.2929,-1243.8738C1947.0434,-1064.6949 1936.8728,-377.5221 1912.7907,-338.5677 1858.6147,-250.9348 1753.7473,-197.327 1667.8783,-166.411"/>
<polygon fill="#242424" stroke="#242424" points="1668.8999,-163.06 1658.3051,-163.0292 1666.5682,-169.6603 1668.8999,-163.06"/>
</g>
<!-- path.js&#45;&gt;math.js -->
<g id="edge51" class="edge">
<title>path.js&#45;&gt;math.js</title>
<path fill="none" stroke="#242424" d="M1956.5354,-1244.1879C1966.0042,-1185.0495 1983.2246,-1077.4975 1993.4748,-1013.4788"/>
<polygon fill="#242424" stroke="#242424" points="1996.9327,-1014.0197 1995.0578,-1003.592 1990.0208,-1012.9129 1996.9327,-1014.0197"/>
</g>
<!-- path.js&#45;&gt;reduce.js -->
<g id="edge52" class="edge">
<title>path.js&#45;&gt;reduce.js</title>
<path fill="none" stroke="#242424" d="M1918.7662,-1256.9533C1886.9017,-1227.8186 1835.0013,-1183.1237 1784.7907,-1151.9307 1664.0034,-1076.8924 1508.6877,-1013.8548 1425.8817,-982.6199"/>
<polygon fill="#242424" stroke="#242424" points="1426.9857,-979.2959 1416.3935,-979.0606 1424.527,-985.85 1426.9857,-979.2959"/>
</g>
<!-- random&#45;floor.js&#45;&gt;katsu&#45;curry/katsu&#45;curry.js -->
<g id="edge53" class="edge">
<title>random&#45;floor.js&#45;&gt;katsu&#45;curry/katsu&#45;curry.js</title>
<path fill="none" stroke="#242424" d="M1061.3951,-606.1297C1088.6262,-504.9115 1133.2526,-339.2381 1133.7907,-338.5677 1200.9532,-254.883 1310.7864,-200.9183 1398.2316,-168.8599"/>
<polygon fill="#242424" stroke="#242424" points="1399.4807,-172.1301 1407.698,-165.4424 1397.1037,-165.546 1399.4807,-172.1301"/>
</g>
<!-- random&#45;take.js&#45;&gt;katsu&#45;curry/katsu&#45;curry.js -->
<g id="edge54" class="edge">
<title>random&#45;take.js&#45;&gt;katsu&#45;curry/katsu&#45;curry.js</title>
<path fill="none" stroke="#242424" d="M1218.0056,-887.1512C1214.3653,-811.8247 1214.744,-692.7307 1242.7907,-594.3599 1281.3187,-459.227 1372.0128,-325.2861 1441.8012,-236.1978"/>
<polygon fill="#242424" stroke="#242424" points="1444.6199,-238.2757 1448.061,-228.2552 1439.1221,-233.9427 1444.6199,-238.2757"/>
</g>
<!-- random&#45;take.js&#45;&gt;iterate.js -->
<g id="edge55" class="edge">
<title>random&#45;take.js&#45;&gt;iterate.js</title>
<path fill="none" stroke="#242424" d="M1261.0966,-896.7137C1273.6894,-879.4897 1289.1086,-862.3194 1306.7907,-850.1521 1413.3109,-776.8538 1468.5936,-823.5799 1586.7907,-771.1521 1617.044,-757.7328 1648.4544,-738.6238 1673.9289,-721.6038"/>
<polygon fill="#242424" stroke="#242424" points="1676.0067,-724.424 1682.3303,-715.9232 1672.0857,-718.6251 1676.0067,-724.424"/>
</g>
<!-- random&#45;take.js&#45;&gt;random&#45;floor.js -->
<g id="edge56" class="edge">
<title>random&#45;take.js&#45;&gt;random&#45;floor.js</title>
<path fill="none" stroke="#242424" d="M1182.7219,-898.9765C1155.2,-857.0493 1118.8258,-801.636 1089.7912,-757.4044"/>
<polygon fill="#242424" stroke="#242424" points="1092.6868,-755.4374 1084.2733,-748.9982 1086.8349,-759.2787 1092.6868,-755.4374"/>
</g>
<!-- random&#45;word.js&#45;&gt;katsu&#45;curry/katsu&#45;curry.js -->
<g id="edge57" class="edge">
<title>random&#45;word.js&#45;&gt;katsu&#45;curry/katsu&#45;curry.js</title>
<path fill="none" stroke="#242424" d="M1144.9095,-1212.584C1121.6309,-1042.9474 1086.8882,-618.126 1267.7907,-338.5677 1303.8856,-282.7882 1360.0236,-235.448 1411.3553,-200.0199"/>
<polygon fill="#242424" stroke="#242424" points="1413.5844,-202.7365 1419.8793,-194.2144 1409.6439,-196.9509 1413.5844,-202.7365"/>
</g>
<!-- random&#45;word.js&#45;&gt;array.js -->
<g id="edge58" class="edge">
<title>random&#45;word.js&#45;&gt;array.js</title>
<path fill="none" stroke="#242424" d="M1113.1601,-1225.3802C1092.0297,-1199.6143 1064.7486,-1171.176 1034.7907,-1151.9307 937.4639,-1089.4069 874.768,-1148.0421 786.7907,-1072.9307 769.3824,-1058.0682 756.8004,-1036.4768 748.028,-1016.2519"/>
<polygon fill="#242424" stroke="#242424" points="751.1753,-1014.702 744.1427,-1006.7779 744.6987,-1017.3581 751.1753,-1014.702"/>
</g>
<!-- random&#45;word.js&#45;&gt;random&#45;take.js -->
<g id="edge59" class="edge">
<title>random&#45;word.js&#45;&gt;random&#45;take.js</title>
<path fill="none" stroke="#242424" d="M1171.9103,-1213.0231C1182.2259,-1163.0198 1195.9093,-1096.6919 1206.6333,-1044.7091"/>
<polygon fill="#242424" stroke="#242424" points="1210.0754,-1045.3463 1208.6682,-1034.8453 1203.2198,-1043.9319 1210.0754,-1045.3463"/>
</g>
<!-- reduce.js&#45;&gt;delegate&#45;fast.js -->
<g id="edge61" class="edge">
<title>reduce.js&#45;&gt;delegate&#45;fast.js</title>
<path fill="none" stroke="#242424" d="M1345.212,-914.8458C1334.7027,-894.4504 1321.5041,-870.5767 1307.7907,-850.1521 1282.4454,-812.4032 1269.6002,-807.8755 1242.7907,-771.1521 1187.6638,-695.6401 1191.261,-663.9192 1128.7907,-594.3599 1090.4297,-551.6459 1040.5588,-510.971 999.3799,-480.4133"/>
<polygon fill="#242424" stroke="#242424" points="1001.3939,-477.5499 991.266,-474.4391 997.2434,-483.1867 1001.3939,-477.5499"/>
</g>
<!-- fast.js/reduce.js -->
<g id="node35" class="node">
<title>fast.js/reduce.js</title>
<ellipse fill="none" stroke="#0c821d" stroke-width="4" cx="1339.7907" cy="-682.756" rx="88.2923" ry="88.2923"/>
<text text-anchor="middle" x="1339.7907" y="-680.356" font-family="Fira Code" font-size="12.00" fill="#0c821d">fast.js/reduce.js</text>
</g>
<!-- reduce.js&#45;&gt;fast.js/reduce.js -->
<g id="edge60" class="edge">
<title>reduce.js&#45;&gt;fast.js/reduce.js</title>
<path fill="none" stroke="#242424" d="M1362.6224,-910.083C1358.9941,-873.9575 1354.0282,-824.5139 1349.6541,-780.9631"/>
<polygon fill="#242424" stroke="#242424" points="1353.1256,-780.5024 1348.6437,-770.9023 1346.1606,-781.202 1353.1256,-780.5024"/>
</g>
<!-- reject.js&#45;&gt;katsu&#45;curry/katsu&#45;curry.js -->
<g id="edge62" class="edge">
<title>reject.js&#45;&gt;katsu&#45;curry/katsu&#45;curry.js</title>
<path fill="none" stroke="#242424" d="M864.8847,-912.5474C877.9589,-874.28 896.0206,-819.6399 909.7907,-771.1521 931.8819,-693.3631 909.9842,-662.9658 952.7907,-594.3599 981.8596,-547.7712 1019.3503,-562.3349 1047.7907,-515.3599 1089.4146,-446.6096 1035.708,-401.4238 1085.7907,-338.5677 1162.8986,-241.7936 1295.3282,-187.7541 1396.0866,-159.0355"/>
<polygon fill="#242424" stroke="#242424" points="1397.0491,-162.4007 1405.7356,-156.3348 1395.1623,-155.6598 1397.0491,-162.4007"/>
</g>
<!-- reject.js&#45;&gt;filter.js -->
<g id="edge63" class="edge">
<title>reject.js&#45;&gt;filter.js</title>
<path fill="none" stroke="#242424" d="M828.1934,-913.6165C808.5361,-865.545 778.2533,-791.4887 757.3108,-740.2741"/>
<polygon fill="#242424" stroke="#242424" points="760.5384,-738.9198 753.5137,-730.9885 754.0591,-741.5693 760.5384,-738.9198"/>
</g>
<!-- string.js&#45;&gt;entrust/entrust.js -->
<g id="edge64" class="edge">
<title>string.js&#45;&gt;entrust/entrust.js</title>
<path fill="none" stroke="#242424" d="M331.0651,-639.5333C340.8549,-624.9953 352.0664,-608.8057 362.7907,-594.3599 389.7257,-558.078 407.8422,-556.3822 426.7907,-515.3599 460.3086,-442.7956 435.4274,-414.6957 459.7907,-338.5677 472.4275,-299.0814 490.7494,-257.3154 508.0745,-221.6003"/>
<polygon fill="#242424" stroke="#242424" points="511.4348,-222.6966 512.6905,-212.1765 505.1484,-219.6174 511.4348,-222.6966"/>
</g>
<!-- ternary.js&#45;&gt;katsu&#45;curry/katsu&#45;curry.js -->
<g id="edge65" class="edge">
<title>ternary.js&#45;&gt;katsu&#45;curry/katsu&#45;curry.js</title>
<path fill="none" stroke="#242424" d="M1464.0999,-372.802C1472.7157,-342.3205 1483.8901,-302.7868 1494.714,-264.4935"/>
<polygon fill="#242424" stroke="#242424" points="1498.1045,-265.3659 1497.4565,-254.7909 1491.3684,-263.4619 1498.1045,-265.3659"/>
</g>
<!-- triplet.js&#45;&gt;katsu&#45;curry/katsu&#45;curry.js -->
<g id="edge66" class="edge">
<title>triplet.js&#45;&gt;katsu&#45;curry/katsu&#45;curry.js</title>
<path fill="none" stroke="#242424" d="M1809.8741,-905.3277C1809.3665,-833.0875 1806.3807,-703.9203 1792.7907,-594.3599 1778.5099,-479.2315 1795.5967,-440.8164 1740.7907,-338.5677 1716.4753,-293.204 1679.1524,-251.2535 1642.799,-217.0383"/>
<polygon fill="#242424" stroke="#242424" points="1644.7717,-214.094 1635.0613,-209.8561 1640.0095,-219.2245 1644.7717,-214.094"/>
</g>
<!-- types.js&#45;&gt;katsu&#45;curry/katsu&#45;curry.js -->
<g id="edge67" class="edge">
<title>types.js&#45;&gt;katsu&#45;curry/katsu&#45;curry.js</title>
<path fill="none" stroke="#242424" d="M1530.9612,-635.6099C1531.2511,-555.4608 1531.8507,-389.6783 1532.2846,-269.7054"/>
<polygon fill="#242424" stroke="#242424" points="1535.7845,-269.7114 1532.3208,-259.6987 1528.7845,-269.686 1535.7845,-269.7114"/>
</g>
<!-- which.js&#45;&gt;katsu&#45;curry/katsu&#45;curry.js -->
<g id="edge70" class="edge">
<title>which.js&#45;&gt;katsu&#45;curry/katsu&#45;curry.js</title>
<path fill="none" stroke="#242424" d="M2161.2581,-1239.0471C2165.6078,-1066.4146 2171.3866,-473.0484 2050.7907,-338.5677 1952.5089,-228.9703 1788.6074,-175.9349 1671.4884,-150.9199"/>
<polygon fill="#242424" stroke="#242424" points="1671.8746,-147.425 1661.3698,-148.8034 1670.4413,-154.2767 1671.8746,-147.425"/>
</g>
<!-- which.js&#45;&gt;flip.js -->
<g id="edge71" class="edge">
<title>which.js&#45;&gt;flip.js</title>
<path fill="none" stroke="#242424" d="M2151.9105,-1239.7813C2141.7672,-1179.8858 2124.1932,-1076.1122 2113.6129,-1013.636"/>
<polygon fill="#242424" stroke="#242424" points="2117.034,-1012.8757 2111.9133,-1003.6005 2110.1323,-1014.0445 2117.034,-1012.8757"/>
</g>
<!-- which.js&#45;&gt;triplet.js -->
<g id="edge72" class="edge">
<title>which.js&#45;&gt;triplet.js</title>
<path fill="none" stroke="#242424" d="M2125.2734,-1254.284C2062.7081,-1196.2284 1930.4158,-1073.4718 1858.6188,-1006.85"/>
<polygon fill="#242424" stroke="#242424" points="1860.7288,-1004.0332 1851.0178,-999.7969 1855.9675,-1009.1645 1860.7288,-1004.0332"/>
</g>
<!-- fast.js/array/every.js -->
<g id="node36" class="node">
<title>fast.js/array/every.js</title>
<ellipse fill="none" stroke="#0c821d" stroke-width="4" cx="2313.7907" cy="-961.5414" rx="111.2787" ry="111.2787"/>
<text text-anchor="middle" x="2313.7907" y="-959.1414" font-family="Fira Code" font-size="12.00" fill="#0c821d">fast.js/array/every.js</text>
</g>
<!-- which.js&#45;&gt;fast.js/array/every.js -->
<g id="edge68" class="edge">
<title>which.js&#45;&gt;fast.js/array/every.js</title>
<path fill="none" stroke="#242424" d="M2180.0818,-1243.521C2200.7429,-1199.9486 2233.6275,-1130.5981 2261.6133,-1071.5786"/>
<polygon fill="#242424" stroke="#242424" points="2264.9381,-1072.7358 2266.0602,-1062.2006 2258.6131,-1069.7366 2264.9381,-1072.7358"/>
</g>
<!-- fast.js/array/some.js -->
<g id="node37" class="node">
<title>fast.js/array/some.js</title>
<ellipse fill="none" stroke="#0c821d" stroke-width="4" cx="2549.7907" cy="-961.5414" rx="106.5817" ry="106.5817"/>
<text text-anchor="middle" x="2549.7907" y="-959.1414" font-family="Fira Code" font-size="12.00" fill="#0c821d">fast.js/array/some.js</text>
</g>
<!-- which.js&#45;&gt;fast.js/array/some.js -->
<g id="edge69" class="edge">
<title>which.js&#45;&gt;fast.js/array/some.js</title>
<path fill="none" stroke="#242424" d="M2197.9994,-1258.5164C2251.8716,-1218.8897 2352.6401,-1143.162 2433.7907,-1072.9307 2444.5116,-1063.6524 2455.5436,-1053.672 2466.3414,-1043.6333"/>
<polygon fill="#242424" stroke="#242424" points="2468.8607,-1046.0693 2473.7728,-1036.6819 2464.0788,-1040.9572 2468.8607,-1046.0693"/>
</g>
</g>
</svg>
