<?xml version="1.0" encoding="UTF-8" standalone="no"?>
<!DOCTYPE svg PUBLIC "-//W3C//DTD SVG 1.1//EN"
 "http://www.w3.org/Graphics/SVG/1.1/DTD/svg11.dtd">
<!-- Generated by graphviz version 2.40.1 (20161225.0304)
 -->
<!-- Title: G Pages: 1 -->
<svg width="3084pt" height="1427pt"
 viewBox="0.00 0.00 3083.59 1427.48" xmlns="http://www.w3.org/2000/svg" xmlns:xlink="http://www.w3.org/1999/xlink">
<g id="graph0" class="graph" transform="scale(1 1) rotate(0) translate(7.992 1419.4904)">
<title>G</title>
<polygon fill="#eeeeff" stroke="transparent" points="-7.992,7.992 -7.992,-1419.4904 3075.5937,-1419.4904 3075.5937,7.992 -7.992,7.992"/>
<!-- array.js -->
<g id="node1" class="node">
<title>array.js</title>
<ellipse fill="none" stroke="#242424" stroke-width="4" cx="738.9947" cy="-742.5383" rx="47.0167" ry="47.0167"/>
<text text-anchor="middle" x="738.9947" y="-740.1383" font-family="Fira Code" font-size="12.00" fill="#242424">array.js</text>
</g>
<!-- entrust/entrust.js -->
<g id="node2" class="node">
<title>entrust/entrust.js</title>
<ellipse fill="none" stroke="#0c821d" stroke-width="4" cx="92.9947" cy="-445.3584" rx="92.9895" ry="92.9895"/>
<text text-anchor="middle" x="92.9947" y="-442.9584" font-family="Fira Code" font-size="12.00" fill="#0c821d">entrust/entrust.js</text>
</g>
<!-- array.js&#45;&gt;entrust/entrust.js -->
<g id="edge1" class="edge">
<title>array.js&#45;&gt;entrust/entrust.js</title>
<path fill="none" stroke="#242424" d="M696.779,-720.8174C648.4714,-696.5807 566.5293,-657.3398 492.9947,-631.149 363.9181,-585.1758 312.9562,-621.8585 194.9947,-552.149 182.3515,-544.6775 170.2595,-535.2029 159.105,-524.9958"/>
<polygon fill="#242424" stroke="#242424" points="161.2043,-522.1635 151.5372,-517.8279 156.3907,-527.2457 161.2043,-522.1635"/>
</g>
<!-- katsu&#45;curry/katsu&#45;curry.js -->
<g id="node3" class="node">
<title>katsu&#45;curry/katsu&#45;curry.js</title>
<ellipse fill="none" stroke="#0c821d" stroke-width="4" cx="1176.9947" cy="-129.7839" rx="129.5681" ry="129.5681"/>
<text text-anchor="middle" x="1176.9947" y="-127.3839" font-family="Fira Code" font-size="12.00" fill="#0c821d">katsu&#45;curry/katsu&#45;curry.js</text>
</g>
<!-- array.js&#45;&gt;katsu&#45;curry/katsu&#45;curry.js -->
<g id="edge2" class="edge">
<title>array.js&#45;&gt;katsu&#45;curry/katsu&#45;curry.js</title>
<path fill="none" stroke="#242424" d="M714.7976,-701.9102C672.0722,-624.3219 594.658,-452.6453 670.9947,-338.5677 752.1511,-217.2878 918.007,-166.3829 1037.7504,-145.063"/>
<polygon fill="#242424" stroke="#242424" points="1038.4806,-148.4887 1047.737,-143.3342 1037.2865,-141.5913 1038.4806,-148.4887"/>
</g>
<!-- choice.js -->
<g id="node4" class="node">
<title>choice.js</title>
<ellipse fill="none" stroke="#242424" stroke-width="4" cx="2496.9947" cy="-445.3584" rx="51.7142" ry="51.7142"/>
<text text-anchor="middle" x="2496.9947" y="-442.9584" font-family="Fira Code" font-size="12.00" fill="#242424">choice.js</text>
</g>
<!-- choice.js&#45;&gt;katsu&#45;curry/katsu&#45;curry.js -->
<g id="edge3" class="edge">
<title>choice.js&#45;&gt;katsu&#45;curry/katsu&#45;curry.js</title>
<path fill="none" stroke="#242424" d="M2480.0781,-396.3481C2470.3791,-375.3704 2456.06,-352.5343 2435.9947,-338.5677 2256.5602,-213.6708 1605.5892,-157.2633 1316.718,-137.9722"/>
<polygon fill="#242424" stroke="#242424" points="1316.8056,-134.4704 1306.5961,-137.3015 1316.3428,-141.4551 1316.8056,-134.4704"/>
</g>
<!-- filter.js -->
<g id="node5" class="node">
<title>filter.js</title>
<ellipse fill="none" stroke="#242424" stroke-width="4" cx="1307.9947" cy="-1085.7047" rx="51.7142" ry="51.7142"/>
<text text-anchor="middle" x="1307.9947" y="-1083.3047" font-family="Fira Code" font-size="12.00" fill="#242424">filter.js</text>
</g>
<!-- fast.js/filter.js -->
<g id="node6" class="node">
<title>fast.js/filter.js</title>
<ellipse fill="none" stroke="#0c821d" stroke-width="4" cx="1249.9947" cy="-742.5383" rx="88.2923" ry="88.2923"/>
<text text-anchor="middle" x="1249.9947" y="-740.1383" font-family="Fira Code" font-size="12.00" fill="#0c821d">fast.js/filter.js</text>
</g>
<!-- filter.js&#45;&gt;fast.js/filter.js -->
<g id="edge4" class="edge">
<title>filter.js&#45;&gt;fast.js/filter.js</title>
<path fill="none" stroke="#242424" d="M1299.3742,-1034.6998C1290.7174,-983.4807 1277.1617,-903.276 1266.4417,-839.8496"/>
<polygon fill="#242424" stroke="#242424" points="1269.8644,-839.0979 1264.7468,-829.8211 1262.9623,-840.2645 1269.8644,-839.0979"/>
</g>
<!-- flip.js -->
<g id="node7" class="node">
<title>flip.js</title>
<ellipse fill="none" stroke="#242424" stroke-width="4" cx="1398.9947" cy="-742.5383" rx="42.3196" ry="42.3196"/>
<text text-anchor="middle" x="1398.9947" y="-740.1383" font-family="Fira Code" font-size="12.00" fill="#242424">flip.js</text>
</g>
<!-- filter.js&#45;&gt;flip.js -->
<g id="edge5" class="edge">
<title>filter.js&#45;&gt;flip.js</title>
<path fill="none" stroke="#242424" d="M1321.2269,-1035.8054C1338.3758,-971.1359 1368.1242,-858.9529 1385.4328,-793.6811"/>
<polygon fill="#242424" stroke="#242424" points="1388.9199,-794.1857 1388.1001,-783.6226 1382.1538,-792.3914 1388.9199,-794.1857"/>
</g>
<!-- flip.js&#45;&gt;katsu&#45;curry/katsu&#45;curry.js -->
<g id="edge6" class="edge">
<title>flip.js&#45;&gt;katsu&#45;curry/katsu&#45;curry.js</title>
<path fill="none" stroke="#242424" d="M1384.4287,-702.3338C1352.5565,-614.3617 1275.4348,-401.4936 1224.7382,-261.5633"/>
<polygon fill="#242424" stroke="#242424" points="1227.9835,-260.2454 1221.2864,-252.0357 1221.4021,-262.6299 1227.9835,-260.2454"/>
</g>
<!-- future.js -->
<g id="node8" class="node">
<title>future.js</title>
<ellipse fill="none" stroke="#242424" stroke-width="4" cx="144.9947" cy="-742.5383" rx="51.7142" ry="51.7142"/>
<text text-anchor="middle" x="144.9947" y="-740.1383" font-family="Fira Code" font-size="12.00" fill="#242424">future.js</text>
</g>
<!-- future.js&#45;&gt;entrust/entrust.js -->
<g id="edge7" class="edge">
<title>future.js&#45;&gt;entrust/entrust.js</title>
<path fill="none" stroke="#242424" d="M136.0556,-691.4513C129.1281,-651.8607 119.3075,-595.7361 110.7939,-547.0807"/>
<polygon fill="#242424" stroke="#242424" points="114.2256,-546.3858 109.0543,-537.1388 107.3304,-547.5924 114.2256,-546.3858"/>
</g>
<!-- index.js -->
<g id="node9" class="node">
<title>index.js</title>
<ellipse fill="none" stroke="#242424" stroke-width="4" cx="1246.9947" cy="-1364.4901" rx="47.0167" ry="47.0167"/>
<text text-anchor="middle" x="1246.9947" y="-1362.0901" font-family="Fira Code" font-size="12.00" fill="#242424">index.js</text>
</g>
<!-- index.js&#45;&gt;array.js -->
<g id="edge10" class="edge">
<title>index.js&#45;&gt;array.js</title>
<path fill="none" stroke="#242424" d="M1199.9839,-1358.6021C1092.7403,-1344.1482 835.1056,-1303.3016 780.9947,-1238.4818 675.3943,-1111.9822 703.8162,-898.7426 725.1865,-798.1888"/>
<polygon fill="#242424" stroke="#242424" points="728.6459,-798.7517 727.3576,-788.2355 721.8067,-797.2598 728.6459,-798.7517"/>
</g>
<!-- index.js&#45;&gt;katsu&#45;curry/katsu&#45;curry.js -->
<g id="edge8" class="edge">
<title>index.js&#45;&gt;katsu&#45;curry/katsu&#45;curry.js</title>
<path fill="none" stroke="#242424" d="M1204.879,-1343.0615C1168.536,-1321.9678 1118.4547,-1286.0255 1095.9947,-1238.4818 1010.5731,-1057.6593 1052.1729,-534.7474 1090.9947,-338.5677 1096.4577,-310.9616 1105.6192,-282.4206 1115.9755,-255.6399"/>
<polygon fill="#242424" stroke="#242424" points="1119.2679,-256.8316 1119.6844,-246.245 1112.7569,-254.2612 1119.2679,-256.8316"/>
</g>
<!-- index.js&#45;&gt;choice.js -->
<g id="edge11" class="edge">
<title>index.js&#45;&gt;choice.js</title>
<path fill="none" stroke="#242424" d="M1294.0333,-1362.3154C1493.741,-1352.6558 2264.761,-1310.8893 2342.9947,-1238.4818 2397.178,-1188.3336 2466.3993,-684.2302 2489.276,-506.768"/>
<polygon fill="#242424" stroke="#242424" points="2492.7527,-507.1724 2490.5554,-496.8079 2485.8097,-506.2805 2492.7527,-507.1724"/>
</g>
<!-- index.js&#45;&gt;filter.js -->
<g id="edge12" class="edge">
<title>index.js&#45;&gt;filter.js</title>
<path fill="none" stroke="#242424" d="M1257.0676,-1318.4543C1267.3463,-1271.4782 1283.3534,-1198.3219 1294.6743,-1146.5825"/>
<polygon fill="#242424" stroke="#242424" points="1298.1544,-1147.0513 1296.8729,-1136.5343 1291.3162,-1145.555 1298.1544,-1147.0513"/>
</g>
<!-- index.js&#45;&gt;flip.js -->
<g id="edge13" class="edge">
<title>index.js&#45;&gt;flip.js</title>
<path fill="none" stroke="#242424" d="M1285.288,-1337.2241C1313.9156,-1314.4315 1351.0772,-1279.168 1368.9947,-1238.4818 1435.0072,-1088.5839 1419.598,-888.2054 1407.2351,-794.6992"/>
<polygon fill="#242424" stroke="#242424" points="1410.6827,-794.0768 1405.862,-784.6422 1403.747,-795.0238 1410.6827,-794.0768"/>
</g>
<!-- index.js&#45;&gt;future.js -->
<g id="edge14" class="edge">
<title>index.js&#45;&gt;future.js</title>
<path fill="none" stroke="#242424" d="M1199.9852,-1362.5227C1045.4105,-1355.2597 555.4889,-1325.6959 427.9947,-1238.4818 272.084,-1131.8289 191.4805,-909.174 160.457,-802.2975"/>
<polygon fill="#242424" stroke="#242424" points="163.8084,-801.2871 157.6956,-792.6335 157.0778,-803.2103 163.8084,-801.2871"/>
</g>
<!-- katsu&#45;curry/lib/utils/length.js -->
<g id="node10" class="node">
<title>katsu&#45;curry/lib/utils/length.js</title>
<ellipse fill="none" stroke="#0c821d" stroke-width="4" cx="2598.9947" cy="-1085.7047" rx="152.5545" ry="152.5545"/>
<text text-anchor="middle" x="2598.9947" y="-1083.3047" font-family="Fira Code" font-size="12.00" fill="#0c821d">katsu&#45;curry/lib/utils/length.js</text>
</g>
<!-- index.js&#45;&gt;katsu&#45;curry/lib/utils/length.js -->
<g id="edge9" class="edge">
<title>index.js&#45;&gt;katsu&#45;curry/lib/utils/length.js</title>
<path fill="none" stroke="#242424" d="M1294.0492,-1363.3799C1487.7352,-1358.2206 2222.9842,-1332.6848 2431.9947,-1238.4818 2451.4114,-1229.7305 2470.0919,-1217.8368 2487.4778,-1204.5235"/>
<polygon fill="#242424" stroke="#242424" points="2489.6771,-1207.2466 2495.3727,-1198.3129 2485.3491,-1201.7448 2489.6771,-1207.2466"/>
</g>
<!-- iterate.js -->
<g id="node11" class="node">
<title>iterate.js</title>
<ellipse fill="none" stroke="#242424" stroke-width="4" cx="987.9947" cy="-445.3584" rx="56.412" ry="56.412"/>
<text text-anchor="middle" x="987.9947" y="-442.9584" font-family="Fira Code" font-size="12.00" fill="#242424">iterate.js</text>
</g>
<!-- index.js&#45;&gt;iterate.js -->
<g id="edge15" class="edge">
<title>index.js&#45;&gt;iterate.js</title>
<path fill="none" stroke="#242424" d="M1202.1197,-1350.4191C1153.912,-1332.7054 1079.46,-1297.262 1043.9947,-1238.4818 1043.7017,-1237.9961 1006.071,-702.6764 992.6682,-511.8975"/>
<polygon fill="#242424" stroke="#242424" points="996.1457,-511.4527 991.9534,-501.7226 989.1629,-511.9433 996.1457,-511.4527"/>
</g>
<!-- map.js -->
<g id="node12" class="node">
<title>map.js</title>
<ellipse fill="none" stroke="#242424" stroke-width="4" cx="445.9947" cy="-742.5383" rx="37.623" ry="37.623"/>
<text text-anchor="middle" x="445.9947" y="-740.1383" font-family="Fira Code" font-size="12.00" fill="#242424">map.js</text>
</g>
<!-- index.js&#45;&gt;map.js -->
<g id="edge16" class="edge">
<title>index.js&#45;&gt;map.js</title>
<path fill="none" stroke="#242424" d="M1200.0948,-1360.5797C1074.0344,-1349.1663 731.8967,-1311.9637 649.9947,-1238.4818 543.6374,-1143.0587 606.7058,-1064.0814 549.9947,-932.9276 526.9532,-879.6402 493.9542,-821.4983 471.3425,-783.6672"/>
<polygon fill="#242424" stroke="#242424" points="474.2676,-781.7397 466.1151,-774.9731 468.2685,-785.3468 474.2676,-781.7397"/>
</g>
<!-- math.js -->
<g id="node13" class="node">
<title>math.js</title>
<ellipse fill="none" stroke="#242424" stroke-width="4" cx="1141.9947" cy="-445.3584" rx="42.3196" ry="42.3196"/>
<text text-anchor="middle" x="1141.9947" y="-442.9584" font-family="Fira Code" font-size="12.00" fill="#242424">math.js</text>
</g>
<!-- index.js&#45;&gt;math.js -->
<g id="edge17" class="edge">
<title>index.js&#45;&gt;math.js</title>
<path fill="none" stroke="#242424" d="M1208.3282,-1337.4421C1179.5562,-1314.7698 1142.5247,-1279.5616 1125.9947,-1238.4818 1071.7485,-1103.6706 1117.807,-652.1831 1135.6642,-497.7103"/>
<polygon fill="#242424" stroke="#242424" points="1139.1682,-497.878 1136.8489,-487.5402 1132.2153,-497.068 1139.1682,-497.878"/>
</g>
<!-- random&#45;floor.js -->
<g id="node14" class="node">
<title>random&#45;floor.js</title>
<ellipse fill="none" stroke="#242424" stroke-width="4" cx="758.9947" cy="-445.3584" rx="79.3981" ry="79.3981"/>
<text text-anchor="middle" x="758.9947" y="-442.9584" font-family="Fira Code" font-size="12.00" fill="#242424">random&#45;floor.js</text>
</g>
<!-- index.js&#45;&gt;random&#45;floor.js -->
<g id="edge18" class="edge">
<title>index.js&#45;&gt;random&#45;floor.js</title>
<path fill="none" stroke="#242424" d="M1199.8963,-1360.7753C1079.2767,-1350.2079 764.2186,-1315.6221 699.9947,-1238.4818 613.6072,-1134.7203 656.9462,-763.6281 682.9947,-631.149 690.0627,-595.2023 704.1413,-557.4491 718.281,-525.4346"/>
<polygon fill="#242424" stroke="#242424" points="721.5563,-526.6848 722.4634,-516.1289 715.1715,-523.8152 721.5563,-526.6848"/>
</g>
<!-- random&#45;shuffle.js -->
<g id="node15" class="node">
<title>random&#45;shuffle.js</title>
<ellipse fill="none" stroke="#0c821d" stroke-width="4" cx="2857.9947" cy="-1085.7047" rx="88.2923" ry="88.2923"/>
<text text-anchor="middle" x="2857.9947" y="-1083.3047" font-family="Fira Code" font-size="12.00" fill="#0c821d">random&#45;shuffle.js</text>
</g>
<!-- index.js&#45;&gt;random&#45;shuffle.js -->
<g id="edge19" class="edge">
<title>index.js&#45;&gt;random&#45;shuffle.js</title>
<path fill="none" stroke="#242424" d="M1294.3377,-1363.0397C1536.7537,-1355.2843 2632.6437,-1316.1309 2760.9947,-1238.4818 2785.1757,-1223.8529 2804.3396,-1200.6416 2819.0267,-1176.6854"/>
<polygon fill="#242424" stroke="#242424" points="2822.1771,-1178.2331 2824.2362,-1167.8403 2816.1455,-1174.6807 2822.1771,-1178.2331"/>
</g>
<!-- random&#45;take.js -->
<g id="node16" class="node">
<title>random&#45;take.js</title>
<ellipse fill="none" stroke="#242424" stroke-width="4" cx="916.9947" cy="-742.5383" rx="74.7005" ry="74.7005"/>
<text text-anchor="middle" x="916.9947" y="-740.1383" font-family="Fira Code" font-size="12.00" fill="#242424">random&#45;take.js</text>
</g>
<!-- index.js&#45;&gt;random&#45;take.js -->
<g id="edge20" class="edge">
<title>index.js&#45;&gt;random&#45;take.js</title>
<path fill="none" stroke="#242424" d="M1201.2196,-1353.7007C1145.7891,-1338.1223 1053.9148,-1303.752 1005.9947,-1238.4818 999.9025,-1230.1838 954.6264,-965.8062 931.1017,-826.5312"/>
<polygon fill="#242424" stroke="#242424" points="934.4931,-825.594 929.3773,-816.3161 927.5907,-826.7592 934.4931,-825.594"/>
</g>
<!-- random&#45;word.js -->
<g id="node17" class="node">
<title>random&#45;word.js</title>
<ellipse fill="none" stroke="#242424" stroke-width="4" cx="864.9947" cy="-1085.7047" rx="74.7005" ry="74.7005"/>
<text text-anchor="middle" x="864.9947" y="-1083.3047" font-family="Fira Code" font-size="12.00" fill="#242424">random&#45;word.js</text>
</g>
<!-- index.js&#45;&gt;random&#45;word.js -->
<g id="edge21" class="edge">
<title>index.js&#45;&gt;random&#45;word.js</title>
<path fill="none" stroke="#242424" d="M1201.209,-1353.0869C1141.0471,-1336.2587 1034.6416,-1299.9426 962.9947,-1238.4818 938.6056,-1217.56 918.097,-1189.0651 902.2471,-1162.3499"/>
<polygon fill="#242424" stroke="#242424" points="905.0897,-1160.2739 897.0517,-1153.3716 899.031,-1163.78 905.0897,-1160.2739"/>
</g>
<!-- random.js -->
<g id="node18" class="node">
<title>random.js</title>
<ellipse fill="none" stroke="#0c821d" stroke-width="4" cx="3015.9947" cy="-1085.7047" rx="51.7142" ry="51.7142"/>
<text text-anchor="middle" x="3015.9947" y="-1083.3047" font-family="Fira Code" font-size="12.00" fill="#0c821d">random.js</text>
</g>
<!-- index.js&#45;&gt;random.js -->
<g id="edge22" class="edge">
<title>index.js&#45;&gt;random.js</title>
<path fill="none" stroke="#242424" d="M1294.1138,-1363.9544C1555.1873,-1360.6021 2817.4535,-1339.246 2954.9947,-1238.4818 2984.1208,-1217.1437 2999.3561,-1179.6224 3007.3172,-1147.1053"/>
<polygon fill="#242424" stroke="#242424" points="3010.7656,-1147.7241 3009.5616,-1137.1979 3003.9386,-1146.1774 3010.7656,-1147.7241"/>
</g>
<!-- reduce.js -->
<g id="node19" class="node">
<title>reduce.js</title>
<ellipse fill="none" stroke="#242424" stroke-width="4" cx="2225.9947" cy="-1085.7047" rx="51.7142" ry="51.7142"/>
<text text-anchor="middle" x="2225.9947" y="-1083.3047" font-family="Fira Code" font-size="12.00" fill="#242424">reduce.js</text>
</g>
<!-- index.js&#45;&gt;reduce.js -->
<g id="edge23" class="edge">
<title>index.js&#45;&gt;reduce.js</title>
<path fill="none" stroke="#242424" d="M1294.2438,-1362.7104C1455.728,-1355.8711 1983.4568,-1327.065 2123.9947,-1238.4818 2159.5067,-1216.098 2185.4658,-1176.3437 2202.3075,-1142.9987"/>
<polygon fill="#242424" stroke="#242424" points="2205.5652,-1144.3041 2206.8162,-1133.7834 2199.2774,-1141.2276 2205.5652,-1144.3041"/>
</g>
<!-- reject.js -->
<g id="node20" class="node">
<title>reject.js</title>
<ellipse fill="none" stroke="#242424" stroke-width="4" cx="1186.9947" cy="-1085.7047" rx="51.7142" ry="51.7142"/>
<text text-anchor="middle" x="1186.9947" y="-1083.3047" font-family="Fira Code" font-size="12.00" fill="#242424">reject.js</text>
</g>
<!-- index.js&#45;&gt;reject.js -->
<g id="edge24" class="edge">
<title>index.js&#45;&gt;reject.js</title>
<path fill="none" stroke="#242424" d="M1237.087,-1318.4543C1226.9768,-1271.4782 1211.2321,-1198.3219 1200.0968,-1146.5825"/>
<polygon fill="#242424" stroke="#242424" points="1203.46,-1145.574 1197.9342,-1136.5343 1196.6167,-1147.0469 1203.46,-1145.574"/>
</g>
<!-- string.js -->
<g id="node21" class="node">
<title>string.js</title>
<ellipse fill="none" stroke="#242424" stroke-width="4" cx="488.9947" cy="-1085.7047" rx="51.7142" ry="51.7142"/>
<text text-anchor="middle" x="488.9947" y="-1083.3047" font-family="Fira Code" font-size="12.00" fill="#242424">string.js</text>
</g>
<!-- index.js&#45;&gt;string.js -->
<g id="edge25" class="edge">
<title>index.js&#45;&gt;string.js</title>
<path fill="none" stroke="#242424" d="M1200.1173,-1360.1155C1067.7502,-1347.0486 694.1941,-1305.035 592.9947,-1238.4818 557.7083,-1215.2758 531.2141,-1175.5448 513.7993,-1142.4165"/>
<polygon fill="#242424" stroke="#242424" points="516.7925,-1140.582 509.1284,-1133.2669 510.558,-1143.7648 516.7925,-1140.582"/>
</g>
<!-- ternary.js -->
<g id="node22" class="node">
<title>ternary.js</title>
<ellipse fill="none" stroke="#242424" stroke-width="4" cx="1970.9947" cy="-445.3584" rx="56.412" ry="56.412"/>
<text text-anchor="middle" x="1970.9947" y="-442.9584" font-family="Fira Code" font-size="12.00" fill="#242424">ternary.js</text>
</g>
<!-- index.js&#45;&gt;ternary.js -->
<g id="edge26" class="edge">
<title>index.js&#45;&gt;ternary.js</title>
<path fill="none" stroke="#242424" d="M1293.9303,-1358.8691C1416.073,-1343.5396 1740.4748,-1298.1326 1828.9947,-1238.4818 2000.4992,-1122.9103 2030.0687,-1051.56 2090.9947,-853.9276 2120.1637,-759.309 2118.9982,-726.1192 2090.9947,-631.149 2076.1147,-580.6854 2042.7879,-531.0186 2015.0228,-495.7514"/>
<polygon fill="#242424" stroke="#242424" points="2017.4449,-493.1762 2008.4648,-487.5541 2011.9789,-497.5492 2017.4449,-493.1762"/>
</g>
<!-- triplet.js -->
<g id="node23" class="node">
<title>triplet.js</title>
<ellipse fill="none" stroke="#242424" stroke-width="4" cx="2025.9947" cy="-742.5383" rx="56.412" ry="56.412"/>
<text text-anchor="middle" x="2025.9947" y="-740.1383" font-family="Fira Code" font-size="12.00" fill="#242424">triplet.js</text>
</g>
<!-- index.js&#45;&gt;triplet.js -->
<g id="edge27" class="edge">
<title>index.js&#45;&gt;triplet.js</title>
<path fill="none" stroke="#242424" d="M1294.1177,-1361.692C1381.1827,-1354.4201 1569.8537,-1328.6322 1695.9947,-1238.4818 1854.4459,-1125.2399 1958.351,-910.2353 2002.2177,-804.4614"/>
<polygon fill="#242424" stroke="#242424" points="2005.4645,-805.7686 2006.0254,-795.1886 1998.9892,-803.1096 2005.4645,-805.7686"/>
</g>
<!-- types.js -->
<g id="node24" class="node">
<title>types.js</title>
<ellipse fill="none" stroke="#242424" stroke-width="4" cx="2379.9947" cy="-445.3584" rx="47.0167" ry="47.0167"/>
<text text-anchor="middle" x="2379.9947" y="-442.9584" font-family="Fira Code" font-size="12.00" fill="#242424">types.js</text>
</g>
<!-- index.js&#45;&gt;types.js -->
<g id="edge28" class="edge">
<title>index.js&#45;&gt;types.js</title>
<path fill="none" stroke="#242424" d="M1293.9667,-1362.0896C1487.2598,-1351.7767 2214.4901,-1308.548 2286.9947,-1238.4818 2391.7416,-1137.2576 2387.1887,-667.8167 2382.1954,-502.8599"/>
<polygon fill="#242424" stroke="#242424" points="2385.6804,-502.3267 2381.867,-492.442 2378.6839,-502.5473 2385.6804,-502.3267"/>
</g>
<!-- which.js -->
<g id="node25" class="node">
<title>which.js</title>
<ellipse fill="none" stroke="#242424" stroke-width="4" cx="1639.9947" cy="-1085.7047" rx="47.0167" ry="47.0167"/>
<text text-anchor="middle" x="1639.9947" y="-1083.3047" font-family="Fira Code" font-size="12.00" fill="#242424">which.js</text>
</g>
<!-- index.js&#45;&gt;which.js -->
<g id="edge29" class="edge">
<title>index.js&#45;&gt;which.js</title>
<path fill="none" stroke="#242424" d="M1285.3928,-1337.2514C1357.8839,-1285.8278 1514.6474,-1174.6233 1593.1762,-1118.9167"/>
<polygon fill="#242424" stroke="#242424" points="1595.3096,-1121.6945 1601.4408,-1113.054 1591.2595,-1115.9852 1595.3096,-1121.6945"/>
</g>
<!-- iterate.js&#45;&gt;katsu&#45;curry/katsu&#45;curry.js -->
<g id="edge30" class="edge">
<title>iterate.js&#45;&gt;katsu&#45;curry/katsu&#45;curry.js</title>
<path fill="none" stroke="#242424" d="M1016.9055,-397.0859C1040.3172,-357.9953 1074.3268,-301.2092 1104.9839,-250.0208"/>
<polygon fill="#242424" stroke="#242424" points="1108.1328,-251.575 1110.2682,-241.1976 1102.1274,-247.9783 1108.1328,-251.575"/>
</g>
<!-- map.js&#45;&gt;entrust/entrust.js -->
<g id="edge31" class="edge">
<title>map.js&#45;&gt;entrust/entrust.js</title>
<path fill="none" stroke="#242424" d="M422.6454,-712.55C402.927,-688.541 373.014,-655.0454 341.9947,-631.149 283.2379,-585.8846 254.0075,-597.0792 194.9947,-552.149 183.4758,-543.3789 172.0757,-533.2819 161.3024,-522.87"/>
<polygon fill="#242424" stroke="#242424" points="163.5295,-520.1507 153.9504,-515.6238 158.6157,-525.1362 163.5295,-520.1507"/>
</g>
<!-- map.js&#45;&gt;katsu&#45;curry/katsu&#45;curry.js -->
<g id="edge34" class="edge">
<title>map.js&#45;&gt;katsu&#45;curry/katsu&#45;curry.js</title>
<path fill="none" stroke="#242424" d="M442.4088,-704.6366C434.7757,-615.2367 421.003,-394.5217 464.9947,-338.5677 535.83,-248.4709 852.1882,-182.7517 1038.5285,-151.0506"/>
<polygon fill="#242424" stroke="#242424" points="1039.1269,-154.4992 1048.4038,-149.3817 1037.9603,-147.5971 1039.1269,-154.4992"/>
</g>
<!-- fantasy&#45;land/index.js -->
<g id="node26" class="node">
<title>fantasy&#45;land/index.js</title>
<ellipse fill="none" stroke="#0c821d" stroke-width="4" cx="310.9947" cy="-445.3584" rx="106.5817" ry="106.5817"/>
<text text-anchor="middle" x="310.9947" y="-442.9584" font-family="Fira Code" font-size="12.00" fill="#0c821d">fantasy&#45;land/index.js</text>
</g>
<!-- map.js&#45;&gt;fantasy&#45;land/index.js -->
<g id="edge32" class="edge">
<title>map.js&#45;&gt;fantasy&#45;land/index.js</title>
<path fill="none" stroke="#242424" d="M430.2443,-707.8664C412.9521,-669.8004 384.3357,-606.8063 359.4701,-552.0687"/>
<polygon fill="#242424" stroke="#242424" points="362.5178,-550.3152 355.1951,-542.6582 356.1445,-553.2104 362.5178,-550.3152"/>
</g>
<!-- fast.js/map.js -->
<g id="node27" class="node">
<title>fast.js/map.js</title>
<ellipse fill="none" stroke="#0c821d" stroke-width="4" cx="548.9947" cy="-445.3584" rx="74.7005" ry="74.7005"/>
<text text-anchor="middle" x="548.9947" y="-442.9584" font-family="Fira Code" font-size="12.00" fill="#0c821d">fast.js/map.js</text>
</g>
<!-- map.js&#45;&gt;fast.js/map.js -->
<g id="edge33" class="edge">
<title>map.js&#45;&gt;fast.js/map.js</title>
<path fill="none" stroke="#242424" d="M458.4189,-706.6915C473.8776,-662.0896 500.7313,-584.6102 521.1974,-525.5603"/>
<polygon fill="#242424" stroke="#242424" points="524.5852,-526.4734 524.553,-515.8786 517.9712,-524.181 524.5852,-526.4734"/>
</g>
<!-- math.js&#45;&gt;katsu&#45;curry/katsu&#45;curry.js -->
<g id="edge35" class="edge">
<title>math.js&#45;&gt;katsu&#45;curry/katsu&#45;curry.js</title>
<path fill="none" stroke="#242424" d="M1146.6787,-403.126C1150.5126,-368.5582 1156.1631,-317.6108 1161.5501,-269.0389"/>
<polygon fill="#242424" stroke="#242424" points="1165.0353,-269.3649 1162.6591,-259.04 1158.078,-268.5932 1165.0353,-269.3649"/>
</g>
<!-- random&#45;floor.js&#45;&gt;katsu&#45;curry/katsu&#45;curry.js -->
<g id="edge36" class="edge">
<title>random&#45;floor.js&#45;&gt;katsu&#45;curry/katsu&#45;curry.js</title>
<path fill="none" stroke="#242424" d="M808.0977,-382.9662C821.5349,-367.6345 836.6485,-351.8296 851.9947,-338.5677 913.9049,-285.0662 990.6265,-235.137 1053.9779,-197.528"/>
<polygon fill="#242424" stroke="#242424" points="1055.994,-200.4022 1062.8254,-192.3039 1052.4348,-194.3746 1055.994,-200.4022"/>
</g>
<!-- random&#45;take.js&#45;&gt;katsu&#45;curry/katsu&#45;curry.js -->
<g id="edge37" class="edge">
<title>random&#45;take.js&#45;&gt;katsu&#45;curry/katsu&#45;curry.js</title>
<path fill="none" stroke="#242424" d="M900.4409,-669.4104C885.2189,-585.1142 871.9404,-444.5767 922.9947,-338.5677 951.0908,-280.2291 1004.1589,-232.5977 1054.552,-197.6389"/>
<polygon fill="#242424" stroke="#242424" points="1056.6495,-200.445 1062.9385,-191.9186 1052.705,-194.6621 1056.6495,-200.445"/>
</g>
<!-- random&#45;take.js&#45;&gt;iterate.js -->
<g id="edge38" class="edge">
<title>random&#45;take.js&#45;&gt;iterate.js</title>
<path fill="none" stroke="#242424" d="M934.3633,-669.8399C946.0531,-620.9105 961.3285,-556.9733 972.5857,-509.855"/>
<polygon fill="#242424" stroke="#242424" points="976.0045,-510.6068 974.9241,-500.0672 969.1961,-508.9802 976.0045,-510.6068"/>
</g>
<!-- random&#45;take.js&#45;&gt;random&#45;floor.js -->
<g id="edge39" class="edge">
<title>random&#45;take.js&#45;&gt;random&#45;floor.js</title>
<path fill="none" stroke="#242424" d="M881.9294,-676.5845C858.0574,-631.684 826.3376,-572.0225 801.0979,-524.5497"/>
<polygon fill="#242424" stroke="#242424" points="804.0873,-522.7166 796.3025,-515.53 797.9066,-526.0027 804.0873,-522.7166"/>
</g>
<!-- random&#45;word.js&#45;&gt;array.js -->
<g id="edge41" class="edge">
<title>random&#45;word.js&#45;&gt;array.js</title>
<path fill="none" stroke="#242424" d="M839.1927,-1015.4318C815.3905,-950.6054 780.5515,-855.7199 758.8522,-796.6209"/>
<polygon fill="#242424" stroke="#242424" points="762.0868,-795.2757 755.3545,-787.0948 755.5157,-797.6884 762.0868,-795.2757"/>
</g>
<!-- random&#45;word.js&#45;&gt;katsu&#45;curry/katsu&#45;curry.js -->
<g id="edge40" class="edge">
<title>random&#45;word.js&#45;&gt;katsu&#45;curry/katsu&#45;curry.js</title>
<path fill="none" stroke="#242424" d="M852.2074,-1012.1209C844.9678,-966.6906 836.6492,-907.117 832.9947,-853.9276 826.208,-755.1478 824.3227,-729.7812 832.9947,-631.149 836.1178,-595.6279 841.0003,-587.2997 846.9947,-552.149 863.1654,-457.3268 831.0085,-420.1345 881.9947,-338.5677 922.0937,-274.4181 989.8582,-224.3822 1050.3337,-189.3951"/>
<polygon fill="#242424" stroke="#242424" points="1052.2442,-192.3348 1059.1992,-184.3423 1048.7781,-186.2531 1052.2442,-192.3348"/>
</g>
<!-- random&#45;word.js&#45;&gt;random&#45;take.js -->
<g id="edge42" class="edge">
<title>random&#45;word.js&#45;&gt;random&#45;take.js</title>
<path fill="none" stroke="#242424" d="M876.2139,-1011.6652C884.4664,-957.2041 895.6938,-883.1105 904.279,-826.4538"/>
<polygon fill="#242424" stroke="#242424" points="907.7579,-826.8567 905.7956,-816.4451 900.8369,-825.8079 907.7579,-826.8567"/>
</g>
<!-- reduce.js&#45;&gt;katsu&#45;curry/katsu&#45;curry.js -->
<g id="edge44" class="edge">
<title>reduce.js&#45;&gt;katsu&#45;curry/katsu&#45;curry.js</title>
<path fill="none" stroke="#242424" d="M2252.3166,-1041.2469C2297.95,-958.0678 2381.5177,-774.3828 2322.9947,-631.149 2254.0988,-462.5277 2194.366,-428.5586 2035.9947,-338.5677 1805.292,-207.4762 1494.4005,-158.2238 1316.8616,-140.0613"/>
<polygon fill="#242424" stroke="#242424" points="1316.9742,-136.555 1306.6745,-139.0383 1316.2747,-143.52 1316.9742,-136.555"/>
</g>
<!-- fast.js/reduce.js -->
<g id="node28" class="node">
<title>fast.js/reduce.js</title>
<ellipse fill="none" stroke="#0c821d" stroke-width="4" cx="2225.9947" cy="-742.5383" rx="88.2923" ry="88.2923"/>
<text text-anchor="middle" x="2225.9947" y="-740.1383" font-family="Fira Code" font-size="12.00" fill="#0c821d">fast.js/reduce.js</text>
</g>
<!-- reduce.js&#45;&gt;fast.js/reduce.js -->
<g id="edge43" class="edge">
<title>reduce.js&#45;&gt;fast.js/reduce.js</title>
<path fill="none" stroke="#242424" d="M2225.9947,-1033.9577C2225.9947,-983.1424 2225.9947,-904.3189 2225.9947,-841.4566"/>
<polygon fill="#242424" stroke="#242424" points="2229.4948,-841.1139 2225.9947,-831.1139 2222.4948,-841.1139 2229.4948,-841.1139"/>
</g>
<!-- reject.js&#45;&gt;katsu&#45;curry/katsu&#45;curry.js -->
<g id="edge46" class="edge">
<title>reject.js&#45;&gt;katsu&#45;curry/katsu&#45;curry.js</title>
<path fill="none" stroke="#242424" d="M1177.3548,-1034.8451C1169.0041,-988.0419 1157.5667,-916.5958 1152.9947,-853.9276 1145.7903,-755.1774 1130.003,-727.4553 1152.9947,-631.149 1162.1334,-592.8695 1183.856,-590.4286 1192.9947,-552.149 1215.0373,-459.8187 1196.624,-433.4233 1192.9947,-338.5677 1192.1381,-316.1795 1190.7667,-292.4704 1189.1779,-269.374"/>
<polygon fill="#242424" stroke="#242424" points="1192.653,-268.8965 1188.4592,-259.167 1185.6703,-269.3882 1192.653,-268.8965"/>
</g>
<!-- reject.js&#45;&gt;fast.js/filter.js -->
<g id="edge45" class="edge">
<title>reject.js&#45;&gt;fast.js/filter.js</title>
<path fill="none" stroke="#242424" d="M1196.3584,-1034.6998C1205.7777,-983.3921 1220.5368,-902.9984 1232.1903,-839.5205"/>
<polygon fill="#242424" stroke="#242424" points="1235.6694,-839.9526 1234.0327,-829.485 1228.7845,-838.6886 1235.6694,-839.9526"/>
</g>
<!-- string.js&#45;&gt;entrust/entrust.js -->
<g id="edge47" class="edge">
<title>string.js&#45;&gt;entrust/entrust.js</title>
<path fill="none" stroke="#242424" d="M461.7761,-1041.6911C397.0783,-937.0726 233.104,-671.9201 147.2675,-533.1194"/>
<polygon fill="#242424" stroke="#242424" points="150.2168,-531.2341 141.9804,-524.5699 144.2633,-534.9159 150.2168,-531.2341"/>
</g>
<!-- ternary.js&#45;&gt;katsu&#45;curry/katsu&#45;curry.js -->
<g id="edge48" class="edge">
<title>ternary.js&#45;&gt;katsu&#45;curry/katsu&#45;curry.js</title>
<path fill="none" stroke="#242424" d="M1929.5061,-407.3106C1903.1629,-384.7827 1867.4562,-357.1121 1831.9947,-338.5677 1663.2927,-250.3459 1450.5309,-191.0067 1314.1097,-158.808"/>
<polygon fill="#242424" stroke="#242424" points="1314.548,-155.316 1304.0132,-156.4417 1312.9506,-162.1313 1314.548,-155.316"/>
</g>
<!-- triplet.js&#45;&gt;katsu&#45;curry/katsu&#45;curry.js -->
<g id="edge49" class="edge">
<title>triplet.js&#45;&gt;katsu&#45;curry/katsu&#45;curry.js</title>
<path fill="none" stroke="#242424" d="M1999.2497,-693.0161C1988.0739,-673.3419 1974.5479,-650.7684 1960.9947,-631.149 1913.4374,-562.3056 1791.7377,-387.68 1723.9947,-338.5677 1599.2237,-248.1112 1430.3832,-191.5682 1313.4352,-160.4962"/>
<polygon fill="#242424" stroke="#242424" points="1314.2587,-157.0938 1303.6973,-157.9359 1312.4786,-163.8637 1314.2587,-157.0938"/>
</g>
<!-- types.js&#45;&gt;katsu&#45;curry/katsu&#45;curry.js -->
<g id="edge50" class="edge">
<title>types.js&#45;&gt;katsu&#45;curry/katsu&#45;curry.js</title>
<path fill="none" stroke="#242424" d="M2364.8235,-400.5878C2355.1011,-378.5841 2340.2509,-353.6249 2318.9947,-338.5677 2159.305,-225.4486 1584.7666,-163.8081 1316.6387,-140.6369"/>
<polygon fill="#242424" stroke="#242424" points="1316.7118,-137.1304 1306.449,-139.7621 1316.1129,-144.1048 1316.7118,-137.1304"/>
</g>
<!-- which.js&#45;&gt;katsu&#45;curry/katsu&#45;curry.js -->
<g id="edge53" class="edge">
<title>which.js&#45;&gt;katsu&#45;curry/katsu&#45;curry.js</title>
<path fill="none" stroke="#242424" d="M1653.0076,-1040.4514C1665.6156,-994.0815 1683.8474,-919.669 1690.9947,-853.9276 1701.6962,-755.4949 1729.4536,-722.3873 1690.9947,-631.149 1611.2988,-442.0817 1421.6082,-288.8815 1296.3075,-203.5831"/>
<polygon fill="#242424" stroke="#242424" points="1298.0186,-200.515 1287.7745,-197.8113 1294.0966,-206.3131 1298.0186,-200.515"/>
</g>
<!-- which.js&#45;&gt;flip.js -->
<g id="edge54" class="edge">
<title>which.js&#45;&gt;flip.js</title>
<path fill="none" stroke="#242424" d="M1607.2836,-1051.2706C1567.0633,-1007.7398 1498.3263,-929.3518 1450.9947,-853.9276 1438.7043,-834.3425 1427.5032,-811.384 1418.6706,-791.4153"/>
<polygon fill="#242424" stroke="#242424" points="1421.8524,-789.9553 1414.6575,-782.1781 1415.4322,-792.7446 1421.8524,-789.9553"/>
</g>
<!-- which.js&#45;&gt;triplet.js -->
<g id="edge55" class="edge">
<title>which.js&#45;&gt;triplet.js</title>
<path fill="none" stroke="#242424" d="M1674.3852,-1053.5652C1709.896,-1021.1816 1767.6317,-970.727 1821.9947,-932.9276 1880.3361,-892.3621 1910.4631,-903.886 1960.9947,-853.9276 1975.6383,-839.4502 1988.1494,-820.9987 1998.1704,-803.297"/>
<polygon fill="#242424" stroke="#242424" points="2001.4543,-804.5866 2003.1818,-794.1335 1995.3127,-801.2278 2001.4543,-804.5866"/>
</g>
<!-- fast.js/array/every.js -->
<g id="node29" class="node">
<title>fast.js/array/every.js</title>
<ellipse fill="none" stroke="#0c821d" stroke-width="4" cx="1570.9947" cy="-742.5383" rx="111.2787" ry="111.2787"/>
<text text-anchor="middle" x="1570.9947" y="-740.1383" font-family="Fira Code" font-size="12.00" fill="#0c821d">fast.js/array/every.js</text>
</g>
<!-- which.js&#45;&gt;fast.js/array/every.js -->
<g id="edge51" class="edge">
<title>which.js&#45;&gt;fast.js/array/every.js</title>
<path fill="none" stroke="#242424" d="M1630.6891,-1039.4238C1621.577,-994.1055 1607.3092,-923.1458 1595.0074,-861.9634"/>
<polygon fill="#242424" stroke="#242424" points="1598.375,-860.9562 1592.9723,-851.8424 1591.5123,-862.3361 1598.375,-860.9562"/>
</g>
<!-- fast.js/array/some.js -->
<g id="node30" class="node">
<title>fast.js/array/some.js</title>
<ellipse fill="none" stroke="#0c821d" stroke-width="4" cx="1844.9947" cy="-742.5383" rx="106.5817" ry="106.5817"/>
<text text-anchor="middle" x="1844.9947" y="-740.1383" font-family="Fira Code" font-size="12.00" fill="#0c821d">fast.js/array/some.js</text>
</g>
<!-- which.js&#45;&gt;fast.js/array/some.js -->
<g id="edge52" class="edge">
<title>which.js&#45;&gt;fast.js/array/some.js</title>
<path fill="none" stroke="#242424" d="M1664.1137,-1045.33C1693.5897,-995.9877 1744.5164,-910.7372 1784.8372,-843.241"/>
<polygon fill="#242424" stroke="#242424" points="1788.0773,-844.6417 1790.2011,-834.2619 1782.0679,-841.0518 1788.0773,-844.6417"/>
</g>
</g>
</svg>
