<?xml version="1.0" encoding="UTF-8" standalone="no"?>
<!DOCTYPE svg PUBLIC "-//W3C//DTD SVG 1.1//EN"
 "http://www.w3.org/Graphics/SVG/1.1/DTD/svg11.dtd">
<!-- Generated by graphviz version 2.40.1 (20161225.0304)
 -->
<!-- Title: G Pages: 1 -->
<svg width="3238pt" height="1741pt"
 viewBox="0.00 0.00 3237.79 1740.85" xmlns="http://www.w3.org/2000/svg" xmlns:xlink="http://www.w3.org/1999/xlink">
<g id="graph0" class="graph" transform="scale(1 1) rotate(0) translate(7.992 1732.8614)">
<title>G</title>
<polygon fill="#eeeeff" stroke="transparent" points="-7.992,7.992 -7.992,-1732.8614 3229.7978,-1732.8614 3229.7978,7.992 -7.992,7.992"/>
<!-- ../package.json -->
<g id="node1" class="node">
<title>../package.json</title>
<ellipse fill="none" stroke="#0c821d" stroke-width="4" cx="79.1988" cy="-1411.4226" rx="79.3981" ry="79.3981"/>
<text text-anchor="middle" x="79.1988" y="-1409.0226" font-family="Fira Code" font-size="12.00" fill="#0c821d">../package.json</text>
</g>
<!-- ap.js -->
<g id="node2" class="node">
<title>ap.js</title>
<ellipse fill="none" stroke="#242424" stroke-width="4" cx="234.1988" cy="-480.447" rx="33.4262" ry="33.4262"/>
<text text-anchor="middle" x="234.1988" y="-478.047" font-family="Fira Code" font-size="12.00" fill="#242424">ap.js</text>
</g>
<!-- ✪entrust/entrust.js -->
<g id="node3" class="node">
<title>✪entrust/entrust.js</title>
<ellipse fill="none" stroke="#0c821d" stroke-width="4" cx="384.1988" cy="-135.8316" rx="99.0849" ry="99.0849"/>
<text text-anchor="middle" x="384.1988" y="-133.4316" font-family="Fira Code" font-size="12.00" fill="#0c821d">✪entrust/entrust.js</text>
</g>
<!-- ap.js&#45;&gt;✪entrust/entrust.js -->
<g id="edge1" class="edge">
<title>ap.js&#45;&gt;✪entrust/entrust.js</title>
<path fill="none" stroke="#242424" d="M247.393,-449.7474C258.7132,-423.4372 275.4804,-384.5362 290.1988,-350.6631 306.4326,-313.3026 324.3363,-272.3279 340.1247,-236.2718"/>
<polygon fill="#242424" stroke="#242424" points="343.498,-237.2938 344.3039,-226.7296 337.086,-234.4854 343.498,-237.2938"/>
</g>
<!-- array.js -->
<g id="node4" class="node">
<title>array.js</title>
<ellipse fill="none" stroke="#242424" stroke-width="4" cx="1238.1988" cy="-1074.5554" rx="47.0167" ry="47.0167"/>
<text text-anchor="middle" x="1238.1988" y="-1072.1554" font-family="Fira Code" font-size="12.00" fill="#242424">array.js</text>
</g>
<!-- array.js&#45;&gt;✪entrust/entrust.js -->
<g id="edge2" class="edge">
<title>array.js&#45;&gt;✪entrust/entrust.js</title>
<path fill="none" stroke="#242424" d="M1244.3467,-1027.9024C1252.2463,-953.4958 1260.1762,-804.5903 1216.1988,-689.2308 1147.7389,-509.6498 1102.2688,-464.1947 947.1988,-350.6631 806.6981,-247.7981 610.9001,-187.8781 491.1054,-158.5436"/>
<polygon fill="#242424" stroke="#242424" points="491.7281,-155.0934 481.1853,-156.1419 490.0809,-161.8968 491.7281,-155.0934"/>
</g>
<!-- ✪katsu&#45;curry/katsu&#45;curry.js -->
<g id="node5" class="node">
<title>✪katsu&#45;curry/katsu&#45;curry.js</title>
<ellipse fill="none" stroke="#0c821d" stroke-width="4" cx="1583.1988" cy="-135.8316" rx="135.6633" ry="135.6633"/>
<text text-anchor="middle" x="1583.1988" y="-133.4316" font-family="Fira Code" font-size="12.00" fill="#0c821d">✪katsu&#45;curry/katsu&#45;curry.js</text>
</g>
<!-- array.js&#45;&gt;✪katsu&#45;curry/katsu&#45;curry.js -->
<g id="edge3" class="edge">
<title>array.js&#45;&gt;✪katsu&#45;curry/katsu&#45;curry.js</title>
<path fill="none" stroke="#242424" d="M1241.5846,-1027.3535C1244.2592,-987.5817 1247.7707,-929.1632 1249.1988,-878.1184 1251.5466,-794.2012 1250.7919,-773.1657 1249.1988,-689.2308 1246.3431,-538.7775 1173.8387,-482.6039 1246.1988,-350.6631 1288.6729,-273.2161 1372.2413,-219.6693 1445.5292,-185.4044"/>
<polygon fill="#242424" stroke="#242424" points="1447.2457,-188.4676 1454.8723,-181.1133 1444.3241,-182.1064 1447.2457,-188.4676"/>
</g>
<!-- filter.js -->
<g id="node6" class="node">
<title>filter.js</title>
<ellipse fill="none" stroke="#242424" stroke-width="4" cx="1391.1988" cy="-783.6746" rx="51.7142" ry="51.7142"/>
<text text-anchor="middle" x="1391.1988" y="-781.2746" font-family="Fira Code" font-size="12.00" fill="#242424">filter.js</text>
</g>
<!-- array.js&#45;&gt;filter.js -->
<g id="edge4" class="edge">
<title>array.js&#45;&gt;filter.js</title>
<path fill="none" stroke="#242424" d="M1257.8867,-1031.5533C1268.3334,-1009.1845 1281.588,-981.4936 1294.1988,-957.1184 1315.2278,-916.4718 1340.507,-871.3811 1359.986,-837.3646"/>
<polygon fill="#242424" stroke="#242424" points="1363.1191,-838.9368 1365.0619,-828.5216 1357.0482,-835.452 1363.1191,-838.9368"/>
</g>
<!-- delegate&#45;fast.js -->
<g id="node9" class="node">
<title>delegate&#45;fast.js</title>
<ellipse fill="none" stroke="#242424" stroke-width="4" cx="641.1988" cy="-480.447" rx="83.5954" ry="83.5954"/>
<text text-anchor="middle" x="641.1988" y="-478.047" font-family="Fira Code" font-size="12.00" fill="#242424">delegate&#45;fast.js</text>
</g>
<!-- filter.js&#45;&gt;delegate&#45;fast.js -->
<g id="edge12" class="edge">
<title>filter.js&#45;&gt;delegate&#45;fast.js</title>
<path fill="none" stroke="#242424" d="M1347.5537,-755.4776C1313.1259,-734.402 1263.2293,-706.3806 1216.1988,-689.2308 1053.7286,-629.9856 994.6819,-677.1016 835.1988,-610.2308 792.6448,-592.3881 749.5637,-564.7402 714.844,-539.5402"/>
<polygon fill="#242424" stroke="#242424" points="716.7921,-536.6285 706.6595,-533.533 712.6501,-542.2716 716.7921,-536.6285"/>
</g>
<!-- ✪fast.js/filter.js -->
<g id="node12" class="node">
<title>✪fast.js/filter.js</title>
<ellipse fill="none" stroke="#0c821d" stroke-width="4" cx="1349.1988" cy="-480.447" rx="94.3876" ry="94.3876"/>
<text text-anchor="middle" x="1349.1988" y="-478.047" font-family="Fira Code" font-size="12.00" fill="#0c821d">✪fast.js/filter.js</text>
</g>
<!-- filter.js&#45;&gt;✪fast.js/filter.js -->
<g id="edge11" class="edge">
<title>filter.js&#45;&gt;✪fast.js/filter.js</title>
<path fill="none" stroke="#242424" d="M1384.0741,-732.2362C1378.4798,-691.8471 1370.5077,-634.2906 1363.5972,-584.3994"/>
<polygon fill="#242424" stroke="#242424" points="1367.0242,-583.6303 1362.1852,-574.2051 1360.0904,-584.5908 1367.0242,-583.6303"/>
</g>
<!-- chain.js -->
<g id="node7" class="node">
<title>chain.js</title>
<ellipse fill="none" stroke="#242424" stroke-width="4" cx="552.1988" cy="-1411.4226" rx="47.0167" ry="47.0167"/>
<text text-anchor="middle" x="552.1988" y="-1409.0226" font-family="Fira Code" font-size="12.00" fill="#242424">chain.js</text>
</g>
<!-- ✪flatmap&#45;fast/index.js -->
<g id="node8" class="node">
<title>✪flatmap&#45;fast/index.js</title>
<ellipse fill="none" stroke="#0c821d" stroke-width="4" cx="552.1988" cy="-1074.5554" rx="112.6769" ry="112.6769"/>
<text text-anchor="middle" x="552.1988" y="-1072.1554" font-family="Fira Code" font-size="12.00" fill="#0c821d">✪flatmap&#45;fast/index.js</text>
</g>
<!-- chain.js&#45;&gt;✪flatmap&#45;fast/index.js -->
<g id="edge5" class="edge">
<title>chain.js&#45;&gt;✪flatmap&#45;fast/index.js</title>
<path fill="none" stroke="#242424" d="M552.1988,-1364.2279C552.1988,-1321.1815 552.1988,-1255.6602 552.1988,-1197.8147"/>
<polygon fill="#242424" stroke="#242424" points="555.6989,-1197.4849 552.1988,-1187.4849 548.6989,-1197.4849 555.6989,-1197.4849"/>
</g>
<!-- chain.js&#45;&gt;delegate&#45;fast.js -->
<g id="edge6" class="edge">
<title>chain.js&#45;&gt;delegate&#45;fast.js</title>
<path fill="none" stroke="#242424" d="M523.4808,-1373.9645C493.4386,-1332.2112 448.196,-1261.3987 430.1988,-1191.9924 403.9973,-1090.9457 408.6051,-1059.249 430.1988,-957.1184 461.3018,-810.0122 540.9037,-653.0797 592.9542,-561.0338"/>
<polygon fill="#242424" stroke="#242424" points="596.0022,-562.7542 597.9028,-552.3313 589.9171,-559.2941 596.0022,-562.7542"/>
</g>
<!-- delegate&#45;fast.js&#45;&gt;✪entrust/entrust.js -->
<g id="edge8" class="edge">
<title>delegate&#45;fast.js&#45;&gt;✪entrust/entrust.js</title>
<path fill="none" stroke="#242424" d="M591.0365,-413.1836C550.6468,-359.0243 493.5599,-282.4756 449.5887,-223.5139"/>
<polygon fill="#242424" stroke="#242424" points="452.2583,-221.2389 443.4743,-215.315 446.6468,-225.4237 452.2583,-221.2389"/>
</g>
<!-- delegate&#45;fast.js&#45;&gt;✪katsu&#45;curry/katsu&#45;curry.js -->
<g id="edge9" class="edge">
<title>delegate&#45;fast.js&#45;&gt;✪katsu&#45;curry/katsu&#45;curry.js</title>
<path fill="none" stroke="#242424" d="M700.532,-420.7589C727.9727,-396.0175 762.2062,-368.8968 797.1988,-350.6631 1005.9429,-241.8923 1275.384,-183.7593 1438.435,-156.3893"/>
<polygon fill="#242424" stroke="#242424" points="1439.2444,-159.8029 1448.5351,-154.7104 1438.0965,-152.8976 1439.2444,-159.8029"/>
</g>
<!-- choice.js -->
<g id="node10" class="node">
<title>choice.js</title>
<ellipse fill="none" stroke="#242424" stroke-width="4" cx="2405.1988" cy="-480.447" rx="51.7142" ry="51.7142"/>
<text text-anchor="middle" x="2405.1988" y="-478.047" font-family="Fira Code" font-size="12.00" fill="#242424">choice.js</text>
</g>
<!-- choice.js&#45;&gt;✪katsu&#45;curry/katsu&#45;curry.js -->
<g id="edge7" class="edge">
<title>choice.js&#45;&gt;✪katsu&#45;curry/katsu&#45;curry.js</title>
<path fill="none" stroke="#242424" d="M2362.5814,-451.1631C2320.2046,-422.9126 2252.6743,-380.1999 2190.1988,-350.6631 2035.4369,-277.4956 1848.6273,-214.9913 1723.4888,-176.5743"/>
<polygon fill="#242424" stroke="#242424" points="1724.4221,-173.1997 1713.8357,-173.621 1722.3742,-179.8935 1724.4221,-173.1997"/>
</g>
<!-- either.js -->
<g id="node11" class="node">
<title>either.js</title>
<ellipse fill="none" stroke="#242424" stroke-width="4" cx="304.1988" cy="-783.6746" rx="51.7142" ry="51.7142"/>
<text text-anchor="middle" x="304.1988" y="-781.2746" font-family="Fira Code" font-size="12.00" fill="#242424">either.js</text>
</g>
<!-- either.js&#45;&gt;✪entrust/entrust.js -->
<g id="edge10" class="edge">
<title>either.js&#45;&gt;✪entrust/entrust.js</title>
<path fill="none" stroke="#242424" d="M302.6058,-731.9557C300.9567,-650.3507 301.1652,-486.9738 323.1988,-350.6631 329.1508,-313.8409 339.2441,-274.3544 349.5255,-239.4064"/>
<polygon fill="#242424" stroke="#242424" points="352.9236,-240.2589 352.4271,-229.6757 346.2154,-238.2585 352.9236,-240.2589"/>
</g>
<!-- flip.js -->
<g id="node13" class="node">
<title>flip.js</title>
<ellipse fill="none" stroke="#242424" stroke-width="4" cx="1749.1988" cy="-1074.5554" rx="42.3196" ry="42.3196"/>
<text text-anchor="middle" x="1749.1988" y="-1072.1554" font-family="Fira Code" font-size="12.00" fill="#242424">flip.js</text>
</g>
<!-- flip.js&#45;&gt;✪katsu&#45;curry/katsu&#45;curry.js -->
<g id="edge13" class="edge">
<title>flip.js&#45;&gt;✪katsu&#45;curry/katsu&#45;curry.js</title>
<path fill="none" stroke="#242424" d="M1757.7664,-1032.6305C1765.3976,-993.0123 1775.988,-931.8136 1780.1988,-878.1184 1798.7358,-641.7385 1784.9145,-572.1181 1700.1988,-350.6631 1688.7507,-320.7367 1673.8885,-289.7906 1658.6189,-261.0251"/>
<polygon fill="#242424" stroke="#242424" points="1661.6812,-259.3296 1653.8702,-252.1714 1655.5124,-262.6382 1661.6812,-259.3296"/>
</g>
<!-- future.js -->
<g id="node14" class="node">
<title>future.js</title>
<ellipse fill="none" stroke="#242424" stroke-width="4" cx="384.1988" cy="-480.447" rx="51.7142" ry="51.7142"/>
<text text-anchor="middle" x="384.1988" y="-478.047" font-family="Fira Code" font-size="12.00" fill="#242424">future.js</text>
</g>
<!-- future.js&#45;&gt;✪entrust/entrust.js -->
<g id="edge14" class="edge">
<title>future.js&#45;&gt;✪entrust/entrust.js</title>
<path fill="none" stroke="#242424" d="M384.1988,-428.4814C384.1988,-380.1233 384.1988,-306.5067 384.1988,-245.2083"/>
<polygon fill="#242424" stroke="#242424" points="387.6989,-245.0918 384.1988,-235.0918 380.6989,-245.0919 387.6989,-245.0918"/>
</g>
<!-- index.js -->
<g id="node15" class="node">
<title>index.js</title>
<ellipse fill="none" stroke="#242424" stroke-width="4" cx="1281.1988" cy="-1677.8611" rx="47.0167" ry="47.0167"/>
<text text-anchor="middle" x="1281.1988" y="-1675.4611" font-family="Fira Code" font-size="12.00" fill="#242424">index.js</text>
</g>
<!-- index.js&#45;&gt;../package.json -->
<g id="edge17" class="edge">
<title>index.js&#45;&gt;../package.json</title>
<path fill="none" stroke="#242424" d="M1234.2554,-1674.8663C1034.8656,-1661.8332 264.1694,-1608.1769 172.1988,-1551.8528 149.0916,-1537.7016 130.5278,-1515.3962 116.2456,-1492.6936"/>
<polygon fill="#242424" stroke="#242424" points="119.1512,-1490.7345 110.9809,-1483.9893 113.1615,-1494.3573 119.1512,-1490.7345"/>
</g>
<!-- index.js&#45;&gt;ap.js -->
<g id="edge18" class="edge">
<title>index.js&#45;&gt;ap.js</title>
<path fill="none" stroke="#242424" d="M1234.219,-1675.7594C1040.0765,-1666.6037 307.3863,-1627.2371 240.1988,-1551.8528 205.5066,-1512.9281 226.9893,-720.077 232.8518,-524.0058"/>
<polygon fill="#242424" stroke="#242424" points="236.3565,-523.8987 233.1591,-513.7978 229.3597,-523.688 236.3565,-523.8987"/>
</g>
<!-- index.js&#45;&gt;array.js -->
<g id="edge19" class="edge">
<title>index.js&#45;&gt;array.js</title>
<path fill="none" stroke="#242424" d="M1277.8247,-1630.5207C1270.022,-1521.0458 1250.7532,-1250.6978 1242.2931,-1132.0001"/>
<polygon fill="#242424" stroke="#242424" points="1245.7594,-1131.4017 1241.5573,-1121.6759 1238.7772,-1131.8994 1245.7594,-1131.4017"/>
</g>
<!-- index.js&#45;&gt;✪katsu&#45;curry/katsu&#45;curry.js -->
<g id="edge15" class="edge">
<title>index.js&#45;&gt;✪katsu&#45;curry/katsu&#45;curry.js</title>
<path fill="none" stroke="#242424" d="M1328.4082,-1676.2348C1540.1711,-1668.5022 2395.8571,-1632.4341 2481.1988,-1551.8528 2559.3419,-1478.0685 2559.1988,-1182.0284 2559.1988,-1074.5554 2559.1988,-1074.5554 2559.1988,-1074.5554 2559.1988,-783.6746 2559.1988,-586.8364 2603.4858,-491.7218 2466.1988,-350.6631 2364.8022,-246.4807 1951.7841,-180.9631 1728.361,-152.4334"/>
<polygon fill="#242424" stroke="#242424" points="1728.5565,-148.9302 1718.1956,-151.1441 1727.6757,-155.8746 1728.5565,-148.9302"/>
</g>
<!-- index.js&#45;&gt;filter.js -->
<g id="edge23" class="edge">
<title>index.js&#45;&gt;filter.js</title>
<path fill="none" stroke="#242424" d="M1235.5719,-1666.2644C1183.3007,-1650.2609 1100.1218,-1615.8424 1063.1988,-1551.8528 930.9764,-1322.704 946.5064,-1180.5354 1088.1988,-957.1184 1095.7258,-945.25 1251.4228,-859.5212 1336.6175,-813.1977"/>
<polygon fill="#242424" stroke="#242424" points="1338.5228,-816.1458 1345.6388,-808.2965 1335.181,-809.995 1338.5228,-816.1458"/>
</g>
<!-- index.js&#45;&gt;chain.js -->
<g id="edge20" class="edge">
<title>index.js&#45;&gt;chain.js</title>
<path fill="none" stroke="#242424" d="M1234.4719,-1672.2381C1141.0578,-1659.7888 926.006,-1625.0195 760.1988,-1551.8528 699.2249,-1524.9464 636.8565,-1480.0578 596.5288,-1448.2821"/>
<polygon fill="#242424" stroke="#242424" points="598.5212,-1445.3948 588.5153,-1441.9115 594.1651,-1450.8742 598.5212,-1445.3948"/>
</g>
<!-- index.js&#45;&gt;choice.js -->
<g id="edge21" class="edge">
<title>index.js&#45;&gt;choice.js</title>
<path fill="none" stroke="#242424" d="M1328.307,-1675.9133C1533.8389,-1666.9897 2345.4873,-1627.1794 2428.1988,-1551.8528 2526.6661,-1462.1771 2515.5448,-1089.6303 2502.1988,-957.1184 2486.8841,-805.0591 2444.7498,-629.7854 2421.3663,-540.1026"/>
<polygon fill="#242424" stroke="#242424" points="2424.7398,-539.1687 2418.818,-530.3833 2417.9687,-540.944 2424.7398,-539.1687"/>
</g>
<!-- index.js&#45;&gt;either.js -->
<g id="edge22" class="edge">
<title>index.js&#45;&gt;either.js</title>
<path fill="none" stroke="#242424" d="M1234.0129,-1674.8509C1054.3193,-1662.9324 419.838,-1616.5253 359.1988,-1551.8528 173.4334,-1353.7313 247.8351,-986.3865 286.4942,-843.0934"/>
<polygon fill="#242424" stroke="#242424" points="289.9464,-843.7383 289.2118,-833.1689 283.195,-841.8895 289.9464,-843.7383"/>
</g>
<!-- index.js&#45;&gt;flip.js -->
<g id="edge24" class="edge">
<title>index.js&#45;&gt;flip.js</title>
<path fill="none" stroke="#242424" d="M1327.7548,-1670.1431C1425.2405,-1652.9946 1645.7559,-1608.709 1693.1988,-1551.8528 1795.7035,-1429.0099 1776.0634,-1222.387 1759.7528,-1126.4273"/>
<polygon fill="#242424" stroke="#242424" points="1763.1666,-1125.6315 1757.9892,-1116.3879 1756.2722,-1126.8427 1763.1666,-1125.6315"/>
</g>
<!-- index.js&#45;&gt;future.js -->
<g id="edge25" class="edge">
<title>index.js&#45;&gt;future.js</title>
<path fill="none" stroke="#242424" d="M1234.0346,-1676.9107C1081.4402,-1672.8588 604.7539,-1652.2497 496.1988,-1551.8528 348.2639,-1415.0354 370.0202,-749.4178 380.6112,-542.1721"/>
<polygon fill="#242424" stroke="#242424" points="384.1122,-542.2412 381.1371,-532.0726 377.1217,-541.877 384.1122,-542.2412"/>
</g>
<!-- ✪katsu&#45;curry/utils/length.js -->
<g id="node16" class="node">
<title>✪katsu&#45;curry/utils/length.js</title>
<ellipse fill="none" stroke="#0c821d" stroke-width="4" cx="2765.1988" cy="-1411.4226" rx="140.3604" ry="140.3604"/>
<text text-anchor="middle" x="2765.1988" y="-1409.0226" font-family="Fira Code" font-size="12.00" fill="#0c821d">✪katsu&#45;curry/utils/length.js</text>
</g>
<!-- index.js&#45;&gt;✪katsu&#45;curry/utils/length.js -->
<g id="edge16" class="edge">
<title>index.js&#45;&gt;✪katsu&#45;curry/utils/length.js</title>
<path fill="none" stroke="#242424" d="M1328.2551,-1677.3634C1536.349,-1674.5658 2374.077,-1656.8649 2611.1988,-1551.8528 2628.9478,-1543.9924 2646.021,-1533.2593 2661.922,-1521.2026"/>
<polygon fill="#242424" stroke="#242424" points="2664.4067,-1523.7027 2670.1278,-1514.7853 2660.0944,-1518.1886 2664.4067,-1523.7027"/>
</g>
<!-- invert.js -->
<g id="node17" class="node">
<title>invert.js</title>
<ellipse fill="none" stroke="#242424" stroke-width="4" cx="2639.1988" cy="-783.6746" rx="51.7142" ry="51.7142"/>
<text text-anchor="middle" x="2639.1988" y="-781.2746" font-family="Fira Code" font-size="12.00" fill="#242424">invert.js</text>
</g>
<!-- index.js&#45;&gt;invert.js -->
<g id="edge26" class="edge">
<title>index.js&#45;&gt;invert.js</title>
<path fill="none" stroke="#242424" d="M1328.412,-1676.7597C1550.4712,-1671.1221 2483.9276,-1642.1579 2573.1988,-1551.8528 2597.9643,-1526.8004 2626.6349,-1023.3866 2636.0369,-845.3779"/>
<polygon fill="#242424" stroke="#242424" points="2639.5323,-845.5548 2636.5625,-835.3848 2632.542,-845.1871 2639.5323,-845.5548"/>
</g>
<!-- iterate.js -->
<g id="node18" class="node">
<title>iterate.js</title>
<ellipse fill="none" stroke="#242424" stroke-width="4" cx="1883.1988" cy="-783.6746" rx="56.412" ry="56.412"/>
<text text-anchor="middle" x="1883.1988" y="-781.2746" font-family="Fira Code" font-size="12.00" fill="#242424">iterate.js</text>
</g>
<!-- index.js&#45;&gt;iterate.js -->
<g id="edge27" class="edge">
<title>index.js&#45;&gt;iterate.js</title>
<path fill="none" stroke="#242424" d="M1328.1007,-1674.5698C1475.066,-1663.5816 1924.203,-1624.6787 2048.1988,-1551.8528 2224.3596,-1448.389 2266.8843,-1384.8813 2334.1988,-1191.9924 2368.5941,-1093.4332 2393.2984,-1043.166 2334.1988,-957.1184 2322.624,-940.2657 2067.0834,-848.4793 1945.9002,-805.6736"/>
<polygon fill="#242424" stroke="#242424" points="1946.9528,-802.3336 1936.358,-802.3062 1944.6232,-808.9346 1946.9528,-802.3336"/>
</g>
<!-- map.js -->
<g id="node19" class="node">
<title>map.js</title>
<ellipse fill="none" stroke="#242424" stroke-width="4" cx="1135.1988" cy="-1074.5554" rx="37.623" ry="37.623"/>
<text text-anchor="middle" x="1135.1988" y="-1072.1554" font-family="Fira Code" font-size="12.00" fill="#242424">map.js</text>
</g>
<!-- index.js&#45;&gt;map.js -->
<g id="edge28" class="edge">
<title>index.js&#45;&gt;map.js</title>
<path fill="none" stroke="#242424" d="M1269.7822,-1632.1097C1263.86,-1608.213 1256.5544,-1578.4771 1250.1988,-1551.8528 1220.4495,-1427.2282 1215.4475,-1395.4967 1185.1988,-1270.9924 1172.7146,-1219.6071 1157.6593,-1160.8652 1147.3525,-1121.1073"/>
<polygon fill="#242424" stroke="#242424" points="1150.7393,-1120.2241 1144.8389,-1111.4244 1143.9639,-1121.983 1150.7393,-1120.2241"/>
</g>
<!-- math.js -->
<g id="node20" class="node">
<title>math.js</title>
<ellipse fill="none" stroke="#242424" stroke-width="4" cx="885.1988" cy="-1074.5554" rx="42.3196" ry="42.3196"/>
<text text-anchor="middle" x="885.1988" y="-1072.1554" font-family="Fira Code" font-size="12.00" fill="#242424">math.js</text>
</g>
<!-- index.js&#45;&gt;math.js -->
<g id="edge29" class="edge">
<title>index.js&#45;&gt;math.js</title>
<path fill="none" stroke="#242424" d="M1235.4052,-1667.16C1151.5756,-1646.6082 978.6018,-1599.4207 941.1988,-1551.8528 915.3243,-1518.9463 895.6018,-1244.2932 888.2877,-1127.155"/>
<polygon fill="#242424" stroke="#242424" points="891.7698,-1126.7554 887.6596,-1116.9904 884.7831,-1127.1872 891.7698,-1126.7554"/>
</g>
<!-- object.js -->
<g id="node21" class="node">
<title>object.js</title>
<ellipse fill="none" stroke="#242424" stroke-width="4" cx="1124.1988" cy="-1411.4226" rx="51.7142" ry="51.7142"/>
<text text-anchor="middle" x="1124.1988" y="-1409.0226" font-family="Fira Code" font-size="12.00" fill="#242424">object.js</text>
</g>
<!-- index.js&#45;&gt;object.js -->
<g id="edge30" class="edge">
<title>index.js&#45;&gt;object.js</title>
<path fill="none" stroke="#242424" d="M1252.4536,-1640.6189C1234.1389,-1616.087 1210.5011,-1582.8799 1192.1988,-1551.8528 1176.448,-1525.1511 1161.1899,-1494.2577 1149.1318,-1468.257"/>
<polygon fill="#242424" stroke="#242424" points="1152.1951,-1466.5409 1144.8392,-1458.9159 1145.8346,-1469.4639 1152.1951,-1466.5409"/>
</g>
<!-- path.js -->
<g id="node22" class="node">
<title>path.js</title>
<ellipse fill="none" stroke="#242424" stroke-width="4" cx="845.1988" cy="-1411.4226" rx="42.3196" ry="42.3196"/>
<text text-anchor="middle" x="845.1988" y="-1409.0226" font-family="Fira Code" font-size="12.00" fill="#242424">path.js</text>
</g>
<!-- index.js&#45;&gt;path.js -->
<g id="edge31" class="edge">
<title>index.js&#45;&gt;path.js</title>
<path fill="none" stroke="#242424" d="M1234.1931,-1674.7916C1155.3754,-1667.212 995.9131,-1641.1143 901.1988,-1551.8528 876.4007,-1528.4823 862.3522,-1492.7 854.5281,-1463.1049"/>
<polygon fill="#242424" stroke="#242424" points="857.909,-1462.1971 852.1067,-1453.3324 851.1145,-1463.8807 857.909,-1462.1971"/>
</g>
<!-- random&#45;floor.js -->
<g id="node23" class="node">
<title>random&#45;floor.js</title>
<ellipse fill="none" stroke="#242424" stroke-width="4" cx="1692.1988" cy="-783.6746" rx="79.3981" ry="79.3981"/>
<text text-anchor="middle" x="1692.1988" y="-781.2746" font-family="Fira Code" font-size="12.00" fill="#242424">random&#45;floor.js</text>
</g>
<!-- index.js&#45;&gt;random&#45;floor.js -->
<g id="edge32" class="edge">
<title>index.js&#45;&gt;random&#45;floor.js</title>
<path fill="none" stroke="#242424" d="M1328.0903,-1673.5624C1398.846,-1664.4171 1531.8749,-1636.3593 1600.1988,-1551.8528 1683.0386,-1449.3923 1692.9402,-1052.8058 1693.0452,-873.0914"/>
<polygon fill="#242424" stroke="#242424" points="1696.5452,-872.8725 1693.0407,-862.8741 1689.5452,-872.8757 1696.5452,-872.8725"/>
</g>
<!-- random&#45;shuffle.js -->
<g id="node24" class="node">
<title>random&#45;shuffle.js</title>
<ellipse fill="none" stroke="#0c821d" stroke-width="4" cx="3012.1988" cy="-1411.4226" rx="88.2923" ry="88.2923"/>
<text text-anchor="middle" x="3012.1988" y="-1409.0226" font-family="Fira Code" font-size="12.00" fill="#0c821d">random&#45;shuffle.js</text>
</g>
<!-- index.js&#45;&gt;random&#45;shuffle.js -->
<g id="edge33" class="edge">
<title>index.js&#45;&gt;random&#45;shuffle.js</title>
<path fill="none" stroke="#242424" d="M1328.3839,-1676.6133C1581.5941,-1669.6014 2773.098,-1632.5033 2914.1988,-1551.8528 2935.8635,-1539.4696 2953.8567,-1520.1103 2968.2571,-1499.6807"/>
<polygon fill="#242424" stroke="#242424" points="2971.2968,-1501.4338 2974.0048,-1491.1909 2965.5003,-1497.5094 2971.2968,-1501.4338"/>
</g>
<!-- random&#45;take.js -->
<g id="node25" class="node">
<title>random&#45;take.js</title>
<ellipse fill="none" stroke="#242424" stroke-width="4" cx="1576.1988" cy="-1074.5554" rx="74.7005" ry="74.7005"/>
<text text-anchor="middle" x="1576.1988" y="-1072.1554" font-family="Fira Code" font-size="12.00" fill="#242424">random&#45;take.js</text>
</g>
<!-- index.js&#45;&gt;random&#45;take.js -->
<g id="edge34" class="edge">
<title>index.js&#45;&gt;random&#45;take.js</title>
<path fill="none" stroke="#242424" d="M1327.8993,-1671.5771C1391.9218,-1660.2122 1504.9449,-1629.7021 1557.1988,-1551.8528 1636.7036,-1433.4042 1617.9394,-1258.6269 1597.0731,-1156.7052"/>
<polygon fill="#242424" stroke="#242424" points="1600.4671,-1155.8368 1594.9851,-1146.7705 1593.6167,-1157.2766 1600.4671,-1155.8368"/>
</g>
<!-- random&#45;word.js -->
<g id="node26" class="node">
<title>random&#45;word.js</title>
<ellipse fill="none" stroke="#242424" stroke-width="4" cx="1473.1988" cy="-1411.4226" rx="74.7005" ry="74.7005"/>
<text text-anchor="middle" x="1473.1988" y="-1409.0226" font-family="Fira Code" font-size="12.00" fill="#242424">random&#45;word.js</text>
</g>
<!-- index.js&#45;&gt;random&#45;word.js -->
<g id="edge35" class="edge">
<title>index.js&#45;&gt;random&#45;word.js</title>
<path fill="none" stroke="#242424" d="M1312.1331,-1642.379C1333.2344,-1617.6184 1361.3825,-1583.4721 1384.1988,-1551.8528 1399.6314,-1530.4659 1415.3854,-1506.4563 1429.2655,-1484.4206"/>
<polygon fill="#242424" stroke="#242424" points="1432.3476,-1486.0934 1434.6887,-1475.7604 1426.4148,-1482.3781 1432.3476,-1486.0934"/>
</g>
<!-- random.js -->
<g id="node27" class="node">
<title>random.js</title>
<ellipse fill="none" stroke="#0c821d" stroke-width="4" cx="3170.1988" cy="-1411.4226" rx="51.7142" ry="51.7142"/>
<text text-anchor="middle" x="3170.1988" y="-1409.0226" font-family="Fira Code" font-size="12.00" fill="#0c821d">random.js</text>
</g>
<!-- index.js&#45;&gt;random.js -->
<g id="edge36" class="edge">
<title>index.js&#45;&gt;random.js</title>
<path fill="none" stroke="#242424" d="M1328.4228,-1677.4992C1600.3565,-1675.0378 2959.6269,-1657.4896 3109.1988,-1551.8528 3135.4355,-1533.3228 3150.4947,-1500.9966 3159.0829,-1472.0274"/>
<polygon fill="#242424" stroke="#242424" points="3162.4652,-1472.9274 3161.7541,-1462.3565 3155.7179,-1471.0637 3162.4652,-1472.9274"/>
</g>
<!-- range.js -->
<g id="node28" class="node">
<title>range.js</title>
<ellipse fill="none" stroke="#242424" stroke-width="4" cx="891.1988" cy="-480.447" rx="47.0167" ry="47.0167"/>
<text text-anchor="middle" x="891.1988" y="-478.047" font-family="Fira Code" font-size="12.00" fill="#242424">range.js</text>
</g>
<!-- index.js&#45;&gt;range.js -->
<g id="edge37" class="edge">
<title>index.js&#45;&gt;range.js</title>
<path fill="none" stroke="#242424" d="M1234.1552,-1674.1036C1163.3909,-1665.6739 1031.2476,-1638.548 969.1988,-1551.8528 892.1608,-1444.2144 985.6732,-1079.8912 936.1988,-957.1184 918.8833,-914.1493 884.3169,-921.5509 868.1988,-878.1184 838.9907,-799.4133 863.5957,-773.0546 868.1988,-689.2308 871.0343,-637.5964 877.7859,-579.102 883.2449,-537.1914"/>
<polygon fill="#242424" stroke="#242424" points="886.7282,-537.5477 884.566,-527.1758 879.7883,-536.6323 886.7282,-537.5477"/>
</g>
<!-- reduce.js -->
<g id="node29" class="node">
<title>reduce.js</title>
<ellipse fill="none" stroke="#242424" stroke-width="4" cx="773.1988" cy="-1074.5554" rx="51.7142" ry="51.7142"/>
<text text-anchor="middle" x="773.1988" y="-1072.1554" font-family="Fira Code" font-size="12.00" fill="#242424">reduce.js</text>
</g>
<!-- index.js&#45;&gt;reduce.js -->
<g id="edge38" class="edge">
<title>index.js&#45;&gt;reduce.js</title>
<path fill="none" stroke="#242424" d="M1234.3947,-1672.7518C1123.5256,-1659.6084 849.9911,-1620.7352 794.1988,-1551.8528 696.6614,-1431.4308 730.3078,-1232.556 755.6092,-1133.8819"/>
<polygon fill="#242424" stroke="#242424" points="759.0292,-1134.638 758.1808,-1124.0772 752.2582,-1132.8621 759.0292,-1134.638"/>
</g>
<!-- reject.js -->
<g id="node30" class="node">
<title>reject.js</title>
<ellipse fill="none" stroke="#242424" stroke-width="4" cx="1355.1988" cy="-1074.5554" rx="51.7142" ry="51.7142"/>
<text text-anchor="middle" x="1355.1988" y="-1072.1554" font-family="Fira Code" font-size="12.00" fill="#242424">reject.js</text>
</g>
<!-- index.js&#45;&gt;reject.js -->
<g id="edge39" class="edge">
<title>index.js&#45;&gt;reject.js</title>
<path fill="none" stroke="#242424" d="M1286.9439,-1631.0227C1300.1755,-1523.1483 1332.7982,-1257.1826 1347.6347,-1136.2237"/>
<polygon fill="#242424" stroke="#242424" points="1351.1422,-1136.3762 1348.8857,-1126.0244 1344.1942,-1135.5239 1351.1422,-1136.3762"/>
</g>
<!-- string.js -->
<g id="node31" class="node">
<title>string.js</title>
<ellipse fill="none" stroke="#242424" stroke-width="4" cx="144.1988" cy="-783.6746" rx="51.7142" ry="51.7142"/>
<text text-anchor="middle" x="144.1988" y="-781.2746" font-family="Fira Code" font-size="12.00" fill="#242424">string.js</text>
</g>
<!-- index.js&#45;&gt;string.js -->
<g id="edge40" class="edge">
<title>index.js&#45;&gt;string.js</title>
<path fill="none" stroke="#242424" d="M1234.0374,-1675.7633C1036.5087,-1666.5232 282.5908,-1626.555 210.1988,-1551.8528 185.6837,-1526.5553 156.8517,-1023.2996 147.3845,-845.3547"/>
<polygon fill="#242424" stroke="#242424" points="150.8795,-845.166 146.8552,-835.3652 143.8893,-845.5364 150.8795,-845.166"/>
</g>
<!-- ternary.js -->
<g id="node32" class="node">
<title>ternary.js</title>
<ellipse fill="none" stroke="#242424" stroke-width="4" cx="933.1988" cy="-783.6746" rx="56.412" ry="56.412"/>
<text text-anchor="middle" x="933.1988" y="-781.2746" font-family="Fira Code" font-size="12.00" fill="#242424">ternary.js</text>
</g>
<!-- index.js&#45;&gt;ternary.js -->
<g id="edge41" class="edge">
<title>index.js&#45;&gt;ternary.js</title>
<path fill="none" stroke="#242424" d="M1235.913,-1664.7368C1185.1835,-1647.5319 1104.6476,-1612.2144 1063.1988,-1551.8528 911.7152,-1331.2479 1017.2942,-1220.3686 969.1988,-957.1184 962.612,-921.0656 954.3564,-880.993 947.413,-848.456"/>
<polygon fill="#242424" stroke="#242424" points="950.8215,-847.6576 945.3036,-838.613 943.9769,-849.1244 950.8215,-847.6576"/>
</g>
<!-- triplet.js -->
<g id="node33" class="node">
<title>triplet.js</title>
<ellipse fill="none" stroke="#242424" stroke-width="4" cx="2437.1988" cy="-1074.5554" rx="56.412" ry="56.412"/>
<text text-anchor="middle" x="2437.1988" y="-1072.1554" font-family="Fira Code" font-size="12.00" fill="#242424">triplet.js</text>
</g>
<!-- index.js&#45;&gt;triplet.js -->
<g id="edge42" class="edge">
<title>index.js&#45;&gt;triplet.js</title>
<path fill="none" stroke="#242424" d="M1328.2297,-1675.7296C1526.9977,-1666.2827 2291.4272,-1625.3767 2367.1988,-1551.8528 2478.3004,-1444.0469 2465.4551,-1243.0817 2449.7312,-1139.6937"/>
<polygon fill="#242424" stroke="#242424" points="2453.1698,-1139.0299 2448.1552,-1129.6969 2446.2552,-1140.12 2453.1698,-1139.0299"/>
</g>
<!-- types.js -->
<g id="node34" class="node">
<title>types.js</title>
<ellipse fill="none" stroke="#242424" stroke-width="4" cx="1546.1988" cy="-480.447" rx="47.0167" ry="47.0167"/>
<text text-anchor="middle" x="1546.1988" y="-478.047" font-family="Fira Code" font-size="12.00" fill="#242424">types.js</text>
</g>
<!-- index.js&#45;&gt;types.js -->
<g id="edge43" class="edge">
<title>index.js&#45;&gt;types.js</title>
<path fill="none" stroke="#242424" d="M1298.8306,-1634.0174C1308.0721,-1610.007 1319.1172,-1579.5767 1327.1988,-1551.8528 1362.9735,-1429.1286 1354.6961,-1394.0802 1389.1988,-1270.9924 1399.2137,-1235.2644 1406.527,-1227.8148 1416.1988,-1191.9924 1425.4706,-1157.6516 1472.7432,-913.0981 1479.1988,-878.1184 1501.5743,-756.877 1524.8688,-614.2691 1537.2308,-537.0559"/>
<polygon fill="#242424" stroke="#242424" points="1540.7064,-537.4862 1538.8287,-527.0591 1533.7941,-536.3813 1540.7064,-537.4862"/>
</g>
<!-- which.js -->
<g id="node35" class="node">
<title>which.js</title>
<ellipse fill="none" stroke="#242424" stroke-width="4" cx="1992.1988" cy="-1411.4226" rx="47.0167" ry="47.0167"/>
<text text-anchor="middle" x="1992.1988" y="-1409.0226" font-family="Fira Code" font-size="12.00" fill="#242424">which.js</text>
</g>
<!-- index.js&#45;&gt;which.js -->
<g id="edge44" class="edge">
<title>index.js&#45;&gt;which.js</title>
<path fill="none" stroke="#242424" d="M1327.4623,-1669.4512C1412.6842,-1653.0719 1599.284,-1613.0482 1747.1988,-1551.8528 1819.274,-1522.0337 1896.39,-1475.0397 1944.4436,-1443.7354"/>
<polygon fill="#242424" stroke="#242424" points="1946.6258,-1446.49 1953.0703,-1438.0805 1942.7882,-1440.6357 1946.6258,-1446.49"/>
</g>
<!-- invert.js&#45;&gt;✪katsu&#45;curry/katsu&#45;curry.js -->
<g id="edge45" class="edge">
<title>invert.js&#45;&gt;✪katsu&#45;curry/katsu&#45;curry.js</title>
<path fill="none" stroke="#242424" d="M2632.1577,-732.4226C2616.5127,-619.2869 2579.7234,-357.6083 2573.1988,-350.6631 2515.4249,-289.1647 1987.9323,-199.1433 1727.4256,-157.9221"/>
<polygon fill="#242424" stroke="#242424" points="1727.9339,-154.4591 1717.5104,-156.3564 1726.842,-161.3734 1727.9339,-154.4591"/>
</g>
<!-- iterate.js&#45;&gt;✪katsu&#45;curry/katsu&#45;curry.js -->
<g id="edge46" class="edge">
<title>iterate.js&#45;&gt;✪katsu&#45;curry/katsu&#45;curry.js</title>
<path fill="none" stroke="#242424" d="M1885.3724,-727.4152C1886.3225,-641.1426 1878.5899,-473.2947 1813.1988,-350.6631 1786.5758,-300.7355 1743.8568,-256.0477 1702.42,-220.5303"/>
<polygon fill="#242424" stroke="#242424" points="1704.5985,-217.7888 1694.702,-214.0059 1700.0794,-223.1347 1704.5985,-217.7888"/>
</g>
<!-- map.js&#45;&gt;✪katsu&#45;curry/katsu&#45;curry.js -->
<g id="edge53" class="edge">
<title>map.js&#45;&gt;✪katsu&#45;curry/katsu&#45;curry.js</title>
<path fill="none" stroke="#242424" d="M1149.0511,-1039.2585C1158.2893,-1015.8904 1170.7879,-984.6001 1182.1988,-957.1184 1196.857,-921.8158 1208.4845,-915.5567 1216.1988,-878.1184 1233.1411,-795.8957 1219.3799,-773.1206 1216.1988,-689.2308 1210.496,-538.8407 1134.8815,-480.959 1210.1988,-350.6631 1260.0739,-264.3812 1359.209,-209.6941 1442.7462,-177.0988"/>
<polygon fill="#242424" stroke="#242424" points="1444.2445,-180.2729 1452.3314,-173.4281 1441.7411,-173.7359 1444.2445,-180.2729"/>
</g>
<!-- ✪fast.js/map.js -->
<g id="node41" class="node">
<title>✪fast.js/map.js</title>
<ellipse fill="none" stroke="#0c821d" stroke-width="4" cx="1126.1988" cy="-783.6746" rx="80.796" ry="80.796"/>
<text text-anchor="middle" x="1126.1988" y="-781.2746" font-family="Fira Code" font-size="12.00" fill="#0c821d">✪fast.js/map.js</text>
</g>
<!-- map.js&#45;&gt;✪fast.js/map.js -->
<g id="edge52" class="edge">
<title>map.js&#45;&gt;✪fast.js/map.js</title>
<path fill="none" stroke="#242424" d="M1134.0222,-1036.5278C1132.755,-995.5726 1130.6935,-928.9427 1129.0047,-874.3605"/>
<polygon fill="#242424" stroke="#242424" points="1132.5016,-874.2048 1128.694,-864.3179 1125.505,-874.4213 1132.5016,-874.2048"/>
</g>
<!-- math.js&#45;&gt;✪katsu&#45;curry/katsu&#45;curry.js -->
<g id="edge54" class="edge">
<title>math.js&#45;&gt;✪katsu&#45;curry/katsu&#45;curry.js</title>
<path fill="none" stroke="#242424" d="M871.7482,-1034.1158C859.4261,-994.7936 842.0882,-933.1145 835.1988,-878.1184 806.0602,-645.5118 694.1586,-537.913 835.1988,-350.6631 907.6577,-254.4641 1241.9449,-188.0649 1438.2528,-156.6133"/>
<polygon fill="#242424" stroke="#242424" points="1439.0393,-160.0323 1448.3652,-155.0045 1437.9394,-153.1192 1439.0393,-160.0323"/>
</g>
<!-- object.js&#45;&gt;✪katsu&#45;curry/katsu&#45;curry.js -->
<g id="edge55" class="edge">
<title>object.js&#45;&gt;✪katsu&#45;curry/katsu&#45;curry.js</title>
<path fill="none" stroke="#242424" d="M1107.7346,-1362.4432C1070.6285,-1245.2912 987.3884,-939.9821 1036.1988,-689.2308 1067.2147,-529.8945 1064.1847,-470.9376 1173.1988,-350.6631 1246.0972,-270.2349 1356.2155,-214.8704 1443.9798,-180.5122"/>
<polygon fill="#242424" stroke="#242424" points="1445.4157,-183.7097 1453.4816,-176.84 1442.8922,-177.1803 1445.4157,-183.7097"/>
</g>
<!-- object.js&#45;&gt;map.js -->
<g id="edge56" class="edge">
<title>object.js&#45;&gt;map.js</title>
<path fill="none" stroke="#242424" d="M1125.8935,-1359.5253C1128.0057,-1294.8397 1131.5866,-1185.1765 1133.6356,-1122.4262"/>
<polygon fill="#242424" stroke="#242424" points="1137.1348,-1122.5073 1133.9631,-1112.3983 1130.1385,-1122.2787 1137.1348,-1122.5073"/>
</g>
<!-- object.js&#45;&gt;reduce.js -->
<g id="edge57" class="edge">
<title>object.js&#45;&gt;reduce.js</title>
<path fill="none" stroke="#242424" d="M1078.9864,-1386.027C1017.3192,-1349.594 906.2807,-1277.3873 834.1988,-1191.9924 819.163,-1174.1795 806.4637,-1152.0394 796.6107,-1131.8001"/>
<polygon fill="#242424" stroke="#242424" points="799.7257,-1130.2001 792.2857,-1122.6571 793.3979,-1133.1934 799.7257,-1130.2001"/>
</g>
<!-- path.js&#45;&gt;✪katsu&#45;curry/katsu&#45;curry.js -->
<g id="edge58" class="edge">
<title>path.js&#45;&gt;✪katsu&#45;curry/katsu&#45;curry.js</title>
<path fill="none" stroke="#242424" d="M819.1101,-1377.8313C788.4227,-1336.5062 738.3549,-1263.0618 712.1988,-1191.9924 675.6755,-1092.7541 731.491,-1045.9991 674.1988,-957.1184 639.8045,-903.7606 585.936,-933.6634 555.1988,-878.1184 497.5317,-773.9083 549.7545,-729.3224 548.1988,-610.2308 546.692,-494.8772 475.3842,-440.1436 548.1988,-350.6631 658.6457,-214.9369 1178.8861,-162.2092 1437.0951,-144.1412"/>
<polygon fill="#242424" stroke="#242424" points="1437.5672,-147.617 1447.302,-143.4355 1437.0843,-140.6337 1437.5672,-147.617"/>
</g>
<!-- path.js&#45;&gt;math.js -->
<g id="edge59" class="edge">
<title>path.js&#45;&gt;math.js</title>
<path fill="none" stroke="#242424" d="M850.2243,-1369.0992C857.524,-1307.6238 871.0509,-1193.7049 878.9724,-1126.992"/>
<polygon fill="#242424" stroke="#242424" points="882.4902,-1127.0486 880.1938,-1116.7056 875.539,-1126.2231 882.4902,-1127.0486"/>
</g>
<!-- path.js&#45;&gt;reduce.js -->
<g id="edge60" class="edge">
<title>path.js&#45;&gt;reduce.js</title>
<path fill="none" stroke="#242424" d="M836.298,-1369.7782C823.7188,-1310.9237 800.6619,-1203.0471 786.1751,-1135.2676"/>
<polygon fill="#242424" stroke="#242424" points="789.5273,-1134.2059 784.0144,-1125.1583 782.6819,-1135.669 789.5273,-1134.2059"/>
</g>
<!-- random&#45;floor.js&#45;&gt;✪katsu&#45;curry/katsu&#45;curry.js -->
<g id="edge61" class="edge">
<title>random&#45;floor.js&#45;&gt;✪katsu&#45;curry/katsu&#45;curry.js</title>
<path fill="none" stroke="#242424" d="M1696.9874,-704.3579C1700.3794,-616.6813 1700.3286,-471.8219 1673.1988,-350.6631 1667.0139,-323.0418 1657.4826,-294.4641 1646.8974,-267.518"/>
<polygon fill="#242424" stroke="#242424" points="1650.0773,-266.0435 1643.1131,-258.0591 1643.5781,-268.6437 1650.0773,-266.0435"/>
</g>
<!-- random&#45;take.js&#45;&gt;✪katsu&#45;curry/katsu&#45;curry.js -->
<g id="edge62" class="edge">
<title>random&#45;take.js&#45;&gt;✪katsu&#45;curry/katsu&#45;curry.js</title>
<path fill="none" stroke="#242424" d="M1575.0217,-999.7111C1575.3201,-921.3505 1580.1429,-795.1928 1604.1988,-689.2308 1612.5491,-652.4492 1628.1877,-647.2911 1635.1988,-610.2308 1656.643,-496.878 1648.865,-465.2142 1635.1988,-350.6631 1632.3221,-326.5504 1627.6902,-301.2316 1622.3466,-276.7763"/>
<polygon fill="#242424" stroke="#242424" points="1625.6967,-275.7188 1620.1001,-266.7227 1618.8652,-277.2454 1625.6967,-275.7188"/>
</g>
<!-- random&#45;take.js&#45;&gt;iterate.js -->
<g id="edge63" class="edge">
<title>random&#45;take.js&#45;&gt;iterate.js</title>
<path fill="none" stroke="#242424" d="M1629.8019,-1022.6631C1651.0396,-1002.1803 1675.7121,-978.4805 1698.1988,-957.1184 1744.0899,-913.5224 1796.7858,-864.1886 1834.1687,-829.3125"/>
<polygon fill="#242424" stroke="#242424" points="1836.9794,-831.4771 1841.9054,-822.0971 1832.205,-826.3579 1836.9794,-831.4771"/>
</g>
<!-- random&#45;take.js&#45;&gt;random&#45;floor.js -->
<g id="edge64" class="edge">
<title>random&#45;take.js&#45;&gt;random&#45;floor.js</title>
<path fill="none" stroke="#242424" d="M1603.8363,-1005.2518C1620.4119,-963.6869 1641.595,-910.5683 1659.0652,-866.7601"/>
<polygon fill="#242424" stroke="#242424" points="1662.3944,-867.8606 1662.8476,-857.2754 1655.8923,-865.2676 1662.3944,-867.8606"/>
</g>
<!-- random&#45;word.js&#45;&gt;array.js -->
<g id="edge66" class="edge">
<title>random&#45;word.js&#45;&gt;array.js</title>
<path fill="none" stroke="#242424" d="M1422.145,-1356.5143C1383.982,-1313.7527 1332.0804,-1251.7995 1294.1988,-1191.9924 1281.4117,-1171.8042 1269.6293,-1148.2451 1260.2051,-1127.5492"/>
<polygon fill="#242424" stroke="#242424" points="1263.3282,-1125.9596 1256.0459,-1118.2642 1256.9399,-1128.8213 1263.3282,-1125.9596"/>
</g>
<!-- random&#45;word.js&#45;&gt;✪katsu&#45;curry/katsu&#45;curry.js -->
<g id="edge65" class="edge">
<title>random&#45;word.js&#45;&gt;✪katsu&#45;curry/katsu&#45;curry.js</title>
<path fill="none" stroke="#242424" d="M1468.83,-1336.9167C1465.2143,-1246.1442 1464.4624,-1088.6226 1492.1988,-957.1184 1499.9828,-920.2128 1511.2,-913.8765 1523.1988,-878.1184 1550.9366,-795.4559 1550.7858,-772.6374 1576.1988,-689.2308 1586.9723,-653.8719 1596.3472,-646.7285 1602.1988,-610.2308 1620.4615,-496.3221 1607.2854,-465.9143 1602.1988,-350.6631 1601.2101,-328.2613 1599.6442,-304.5838 1597.8253,-281.4534"/>
<polygon fill="#242424" stroke="#242424" points="1601.2932,-280.9136 1597.0022,-271.2266 1594.3158,-281.4752 1601.2932,-280.9136"/>
</g>
<!-- random&#45;word.js&#45;&gt;random&#45;take.js -->
<g id="edge67" class="edge">
<title>random&#45;word.js&#45;&gt;random&#45;take.js</title>
<path fill="none" stroke="#242424" d="M1495.0425,-1339.9817C1511.5381,-1286.0318 1534.1915,-1211.9427 1551.3733,-1155.7487"/>
<polygon fill="#242424" stroke="#242424" points="1554.7211,-1156.7694 1554.2981,-1146.183 1548.027,-1154.7226 1554.7211,-1156.7694"/>
</g>
<!-- range.js&#45;&gt;✪katsu&#45;curry/katsu&#45;curry.js -->
<g id="edge68" class="edge">
<title>range.js&#45;&gt;✪katsu&#45;curry/katsu&#45;curry.js</title>
<path fill="none" stroke="#242424" d="M904.2054,-434.9433C914.2807,-407.1456 930.8688,-372.8027 956.1988,-350.6631 1093.019,-231.0758 1299.6384,-177.2782 1437.8738,-153.6095"/>
<polygon fill="#242424" stroke="#242424" points="1438.8389,-156.9965 1448.1212,-151.8886 1437.6796,-150.0932 1438.8389,-156.9965"/>
</g>
<!-- reduce.js&#45;&gt;delegate&#45;fast.js -->
<g id="edge70" class="edge">
<title>reduce.js&#45;&gt;delegate&#45;fast.js</title>
<path fill="none" stroke="#242424" d="M752.9198,-1026.8258C741.6816,-1004.0199 726.1345,-977.355 707.1988,-957.1184 663.3173,-910.2222 616.7752,-934.5978 586.1988,-878.1184 533.2673,-780.3456 567.6574,-650.0123 601.097,-565.6608"/>
<polygon fill="#242424" stroke="#242424" points="604.3487,-566.9555 604.849,-556.3725 597.8583,-564.3336 604.3487,-566.9555"/>
</g>
<!-- ✪fast.js/reduce.js -->
<g id="node42" class="node">
<title>✪fast.js/reduce.js</title>
<ellipse fill="none" stroke="#0c821d" stroke-width="4" cx="689.1988" cy="-783.6746" rx="94.3876" ry="94.3876"/>
<text text-anchor="middle" x="689.1988" y="-781.2746" font-family="Fira Code" font-size="12.00" fill="#0c821d">✪fast.js/reduce.js</text>
</g>
<!-- reduce.js&#45;&gt;✪fast.js/reduce.js -->
<g id="edge69" class="edge">
<title>reduce.js&#45;&gt;✪fast.js/reduce.js</title>
<path fill="none" stroke="#242424" d="M758.8541,-1024.8817C747.7412,-986.3991 731.9782,-931.814 718.2574,-884.3007"/>
<polygon fill="#242424" stroke="#242424" points="721.5899,-883.2252 715.4529,-874.5889 714.8647,-885.1674 721.5899,-883.2252"/>
</g>
<!-- reject.js&#45;&gt;✪katsu&#45;curry/katsu&#45;curry.js -->
<g id="edge71" class="edge">
<title>reject.js&#45;&gt;✪katsu&#45;curry/katsu&#45;curry.js</title>
<path fill="none" stroke="#242424" d="M1380.1364,-1029.2164C1406.0539,-981.2503 1443.9714,-908.3994 1452.1988,-878.1184 1513.8231,-651.3089 1434.2785,-578.9459 1490.1988,-350.6631 1497.0106,-322.8553 1507.1156,-294.0844 1518.1855,-266.9859"/>
<polygon fill="#242424" stroke="#242424" points="1521.5324,-268.0525 1522.1375,-257.4749 1515.0682,-265.3665 1521.5324,-268.0525"/>
</g>
<!-- reject.js&#45;&gt;filter.js -->
<g id="edge72" class="edge">
<title>reject.js&#45;&gt;filter.js</title>
<path fill="none" stroke="#242424" d="M1361.552,-1023.2213C1367.7151,-973.4239 1377.0704,-897.8323 1383.6191,-844.919"/>
<polygon fill="#242424" stroke="#242424" points="1387.0938,-845.3381 1384.8487,-834.9839 1380.1468,-844.4782 1387.0938,-845.3381"/>
</g>
<!-- string.js&#45;&gt;✪entrust/entrust.js -->
<g id="edge73" class="edge">
<title>string.js&#45;&gt;✪entrust/entrust.js</title>
<path fill="none" stroke="#242424" d="M140.0834,-732.0534C135.4934,-648.1272 135.0819,-478.6088 192.1988,-350.6631 216.7699,-295.6222 260.7494,-244.7988 300.4221,-206.4174"/>
<polygon fill="#242424" stroke="#242424" points="302.9587,-208.8346 307.7741,-199.3973 298.1246,-203.7719 302.9587,-208.8346"/>
</g>
<!-- ternary.js&#45;&gt;✪katsu&#45;curry/katsu&#45;curry.js -->
<g id="edge74" class="edge">
<title>ternary.js&#45;&gt;✪katsu&#45;curry/katsu&#45;curry.js</title>
<path fill="none" stroke="#242424" d="M939.1189,-727.3699C951.2022,-616.7812 979.5601,-379.4115 1003.1988,-350.6631 1110.153,-220.5899 1303.7283,-169.2607 1437.6591,-149.012"/>
<polygon fill="#242424" stroke="#242424" points="1438.2156,-152.4679 1447.5996,-147.5495 1437.1966,-145.5425 1438.2156,-152.4679"/>
</g>
<!-- triplet.js&#45;&gt;✪katsu&#45;curry/katsu&#45;curry.js -->
<g id="edge75" class="edge">
<title>triplet.js&#45;&gt;✪katsu&#45;curry/katsu&#45;curry.js</title>
<path fill="none" stroke="#242424" d="M2423.8596,-1019.5545C2389.1013,-887.1031 2283.7733,-546.9063 2077.1988,-350.6631 1978.7187,-257.1082 1832.9725,-200.5588 1725.2922,-169.1388"/>
<polygon fill="#242424" stroke="#242424" points="1726.2269,-165.7658 1715.6489,-166.3622 1724.2901,-172.4925 1726.2269,-165.7658"/>
</g>
<!-- types.js&#45;&gt;✪katsu&#45;curry/katsu&#45;curry.js -->
<g id="edge76" class="edge">
<title>types.js&#45;&gt;✪katsu&#45;curry/katsu&#45;curry.js</title>
<path fill="none" stroke="#242424" d="M1551.2273,-433.6119C1555.4497,-394.2845 1561.7171,-335.9107 1567.5868,-281.2408"/>
<polygon fill="#242424" stroke="#242424" points="1571.09,-281.3978 1568.6776,-271.0812 1564.13,-280.6504 1571.09,-281.3978"/>
</g>
<!-- which.js&#45;&gt;✪katsu&#45;curry/katsu&#45;curry.js -->
<g id="edge79" class="edge">
<title>which.js&#45;&gt;✪katsu&#45;curry/katsu&#45;curry.js</title>
<path fill="none" stroke="#242424" d="M2006.1907,-1366.1659C2019.008,-1322.1798 2037.041,-1253.2377 2044.1988,-1191.9924 2088.6189,-811.9118 2078.2065,-665.8488 1861.1988,-350.6631 1822.1267,-293.9142 1763.4107,-245.419 1709.993,-208.9424"/>
<polygon fill="#242424" stroke="#242424" points="1711.7164,-205.8831 1701.4691,-203.1919 1707.8016,-211.686 1711.7164,-205.8831"/>
</g>
<!-- which.js&#45;&gt;flip.js -->
<g id="edge80" class="edge">
<title>which.js&#45;&gt;flip.js</title>
<path fill="none" stroke="#242424" d="M1957.6999,-1378.7471C1916.1966,-1338.0401 1846.3553,-1264.9203 1800.1988,-1191.9924 1786.8408,-1170.8866 1775.3833,-1145.6822 1766.7316,-1124.0439"/>
<polygon fill="#242424" stroke="#242424" points="1769.9784,-1122.7363 1763.078,-1114.6968 1763.4588,-1125.2848 1769.9784,-1122.7363"/>
</g>
<!-- which.js&#45;&gt;triplet.js -->
<g id="edge81" class="edge">
<title>which.js&#45;&gt;triplet.js</title>
<path fill="none" stroke="#242424" d="M2033.9719,-1389.6483C2101.0894,-1353.6003 2235.4126,-1277.0094 2334.1988,-1191.9924 2356.6247,-1172.6923 2378.6434,-1148.5129 2396.5288,-1127.1186"/>
<polygon fill="#242424" stroke="#242424" points="2399.2539,-1129.3154 2402.9243,-1119.3767 2393.8571,-1124.8572 2399.2539,-1129.3154"/>
</g>
<!-- ✪fast.js/array/every.js -->
<g id="node44" class="node">
<title>✪fast.js/array/every.js</title>
<ellipse fill="none" stroke="#0c821d" stroke-width="4" cx="2208.1988" cy="-1074.5554" rx="117.374" ry="117.374"/>
<text text-anchor="middle" x="2208.1988" y="-1072.1554" font-family="Fira Code" font-size="12.00" fill="#0c821d">✪fast.js/array/every.js</text>
</g>
<!-- which.js&#45;&gt;✪fast.js/array/every.js -->
<g id="edge77" class="edge">
<title>which.js&#45;&gt;✪fast.js/array/every.js</title>
<path fill="none" stroke="#242424" d="M2017.6119,-1371.789C2047.2821,-1325.5162 2097.5798,-1247.0735 2139.0556,-1182.3891"/>
<polygon fill="#242424" stroke="#242424" points="2142.1347,-1184.0712 2144.5861,-1173.7638 2136.242,-1180.2927 2142.1347,-1184.0712"/>
</g>
<!-- ✪fast.js/array/some.js -->
<g id="node45" class="node">
<title>✪fast.js/array/some.js</title>
<ellipse fill="none" stroke="#0c821d" stroke-width="4" cx="1922.1988" cy="-1074.5554" rx="112.6769" ry="112.6769"/>
<text text-anchor="middle" x="1922.1988" y="-1072.1554" font-family="Fira Code" font-size="12.00" fill="#0c821d">✪fast.js/array/some.js</text>
</g>
<!-- which.js&#45;&gt;✪fast.js/array/some.js -->
<g id="edge78" class="edge">
<title>which.js&#45;&gt;✪fast.js/array/some.js</title>
<path fill="none" stroke="#242424" d="M1982.6124,-1365.289C1973.551,-1321.682 1959.5588,-1254.3462 1947.3213,-1195.4547"/>
<polygon fill="#242424" stroke="#242424" points="1950.6778,-1194.4036 1945.2164,-1185.3249 1943.8242,-1195.8278 1950.6778,-1194.4036"/>
</g>
<!-- map&#45;performance.fixture.js -->
<g id="node36" class="node">
<title>map&#45;performance.fixture.js</title>
<ellipse fill="none" stroke="#242424" stroke-width="4" cx="2755.1988" cy="-480.447" rx="129.5681" ry="129.5681"/>
<text text-anchor="middle" x="2755.1988" y="-478.047" font-family="Fira Code" font-size="12.00" fill="#242424">map&#45;performance.fixture.js</text>
</g>
<!-- map&#45;performance.fixture.js&#45;&gt;✪entrust/entrust.js -->
<g id="edge47" class="edge">
<title>map&#45;performance.fixture.js&#45;&gt;✪entrust/entrust.js</title>
<path fill="none" stroke="#242424" d="M2641.1021,-418.2215C2589.2327,-392.8481 2526.1603,-365.935 2466.1988,-350.6631 2022.1395,-237.5634 1894.033,-318.519 1438.1988,-271.6631 1091.7856,-236.0548 683.2304,-179.1154 492.4794,-151.6565"/>
<polygon fill="#242424" stroke="#242424" points="492.8481,-148.1736 482.4511,-150.2112 491.8495,-155.102 492.8481,-148.1736"/>
</g>
<!-- ✪fast.js/index.js -->
<g id="node37" class="node">
<title>✪fast.js/index.js</title>
<ellipse fill="none" stroke="#0c821d" stroke-width="4" cx="2856.1988" cy="-135.8316" rx="89.6906" ry="89.6906"/>
<text text-anchor="middle" x="2856.1988" y="-133.4316" font-family="Fira Code" font-size="12.00" fill="#0c821d">✪fast.js/index.js</text>
</g>
<!-- map&#45;performance.fixture.js&#45;&gt;✪fast.js/index.js -->
<g id="edge48" class="edge">
<title>map&#45;performance.fixture.js&#45;&gt;✪fast.js/index.js</title>
<path fill="none" stroke="#242424" d="M2791.8049,-355.5456C2803.6983,-314.965 2816.7066,-270.5803 2827.8986,-232.3928"/>
<polygon fill="#242424" stroke="#242424" points="2831.3996,-232.8916 2830.8534,-222.3109 2824.6821,-230.9228 2831.3996,-232.8916"/>
</g>
<!-- ✪ramda/src/curry.js -->
<g id="node38" class="node">
<title>✪ramda/src/curry.js</title>
<ellipse fill="none" stroke="#0c821d" stroke-width="4" cx="3063.1988" cy="-135.8316" rx="99.0849" ry="99.0849"/>
<text text-anchor="middle" x="3063.1988" y="-133.4316" font-family="Fira Code" font-size="12.00" fill="#0c821d">✪ramda/src/curry.js</text>
</g>
<!-- map&#45;performance.fixture.js&#45;&gt;✪ramda/src/curry.js -->
<g id="edge49" class="edge">
<title>map&#45;performance.fixture.js&#45;&gt;✪ramda/src/curry.js</title>
<path fill="none" stroke="#242424" d="M2846.9303,-388.3666C2881.6064,-352.6127 2920.9452,-310.8892 2955.1988,-271.6631 2968.8226,-256.0616 2982.9181,-239.0434 2996.2493,-222.4947"/>
<polygon fill="#242424" stroke="#242424" points="2999.2015,-224.4078 3002.7269,-214.4167 2993.7404,-220.0287 2999.2015,-224.4078"/>
</g>
<!-- ✪ramda/src/map.js -->
<g id="node39" class="node">
<title>✪ramda/src/map.js</title>
<ellipse fill="none" stroke="#0c821d" stroke-width="4" cx="2452.1988" cy="-135.8316" rx="89.6906" ry="89.6906"/>
<text text-anchor="middle" x="2452.1988" y="-133.4316" font-family="Fira Code" font-size="12.00" fill="#0c821d">✪ramda/src/map.js</text>
</g>
<!-- map&#45;performance.fixture.js&#45;&gt;✪ramda/src/map.js -->
<g id="edge50" class="edge">
<title>map&#45;performance.fixture.js&#45;&gt;✪ramda/src/map.js</title>
<path fill="none" stroke="#242424" d="M2661.603,-390.378C2625.851,-354.5221 2585.4705,-312.2023 2551.1988,-271.6631 2536.9855,-254.8505 2522.5513,-236.1502 2509.2609,-218.135"/>
<polygon fill="#242424" stroke="#242424" points="2511.9727,-215.9142 2503.2398,-209.9152 2506.3256,-220.0507 2511.9727,-215.9142"/>
</g>
<!-- ✪testperf/index.js -->
<g id="node40" class="node">
<title>✪testperf/index.js</title>
<ellipse fill="none" stroke="#0c821d" stroke-width="4" cx="2654.1988" cy="-135.8316" rx="94.3876" ry="94.3876"/>
<text text-anchor="middle" x="2654.1988" y="-133.4316" font-family="Fira Code" font-size="12.00" fill="#0c821d">✪testperf/index.js</text>
</g>
<!-- map&#45;performance.fixture.js&#45;&gt;✪testperf/index.js -->
<g id="edge51" class="edge">
<title>map&#45;performance.fixture.js&#45;&gt;✪testperf/index.js</title>
<path fill="none" stroke="#242424" d="M2718.5927,-355.5456C2707.1139,-316.3796 2694.5966,-273.67 2683.6759,-236.4084"/>
<polygon fill="#242424" stroke="#242424" points="2686.9597,-235.168 2680.7884,-226.556 2680.2422,-237.1368 2686.9597,-235.168"/>
</g>
<!-- test&#45;helpers.js -->
<g id="node43" class="node">
<title>test&#45;helpers.js</title>
<ellipse fill="none" stroke="#0c821d" stroke-width="4" cx="2081.1988" cy="-79.1988" rx="79.3981" ry="79.3981"/>
<text text-anchor="middle" x="2081.1988" y="-76.7988" font-family="Fira Code" font-size="12.00" fill="#0c821d">test&#45;helpers.js</text>
</g>
</g>
</svg>
