<?xml version="1.0" encoding="UTF-8" standalone="no"?>
<!DOCTYPE svg PUBLIC "-//W3C//DTD SVG 1.1//EN"
 "http://www.w3.org/Graphics/SVG/1.1/DTD/svg11.dtd">
<!-- Generated by graphviz version 2.40.1 (20161225.0304)
 -->
<!-- Title: G Pages: 1 -->
<svg width="4250pt" height="1771pt"
 viewBox="0.00 0.00 4249.75 1770.89" xmlns="http://www.w3.org/2000/svg" xmlns:xlink="http://www.w3.org/1999/xlink">
<g id="graph0" class="graph" transform="scale(1 1) rotate(0) translate(7.992 1762.8977)">
<title>G</title>
<polygon fill="#eeeeff" stroke="transparent" points="-7.992,7.992 -7.992,-1762.8977 4241.7544,-1762.8977 4241.7544,7.992 -7.992,7.992"/>
<!-- ../package.json -->
<g id="node1" class="node">
<title>../package.json</title>
<ellipse fill="none" stroke="#0c821d" stroke-width="4" cx="590.2408" cy="-1458.28" rx="79.4289" ry="79.4289"/>
<text text-anchor="middle" x="590.2408" y="-1455.88" font-family="Fira Code" font-size="12.00" fill="#0c821d">../package.json</text>
</g>
<!-- ap.js -->
<g id="node2" class="node">
<title>ap.js</title>
<ellipse fill="none" stroke="#242424" stroke-width="4" cx="1141.2408" cy="-1458.28" rx="33.4416" ry="33.4416"/>
<text text-anchor="middle" x="1141.2408" y="-1455.88" font-family="Fira Code" font-size="12.00" fill="#242424">ap.js</text>
</g>
<!-- Ⓜ katsu&#45;curry/katsu&#45;curry.js -->
<g id="node3" class="node">
<title>Ⓜ katsu&#45;curry/katsu&#45;curry.js</title>
<ellipse fill="none" stroke="#0c821d" stroke-width="4" cx="1587.2408" cy="-153.4077" rx="153.3154" ry="153.3154"/>
<text text-anchor="middle" x="1587.2408" y="-152.2077" font-family="Fira Code" font-size="12.00" fill="#0c821d">Ⓜ katsu&#45;curry/katsu&#45;curry.js</text>
</g>
<!-- ap.js&#45;&gt;Ⓜ katsu&#45;curry/katsu&#45;curry.js -->
<g id="edge1" class="edge">
<title>ap.js&#45;&gt;Ⓜ katsu&#45;curry/katsu&#45;curry.js</title>
<path fill="none" stroke="#242424" d="M1143.332,-1424.9963C1146.8268,-1397.2493 1156.0485,-1358.5312 1180.2408,-1334.671 1267.1363,-1248.9681 1370.1476,-1353.4113 1443.2408,-1255.671 1448.0106,-1249.2927 1445.1854,-690.1291 1446.2408,-682.2348 1463.3798,-554.0322 1502.1592,-412.6461 1534.7188,-308.3458"/>
<polygon fill="#242424" stroke="#242424" points="1538.0949,-309.2766 1537.7492,-298.6874 1531.4159,-307.181 1538.0949,-309.2766"/>
</g>
<!-- map.js -->
<g id="node4" class="node">
<title>map.js</title>
<ellipse fill="none" stroke="#242424" stroke-width="4" cx="509.2408" cy="-795.911" rx="37.6383" ry="37.6383"/>
<text text-anchor="middle" x="509.2408" y="-793.511" font-family="Fira Code" font-size="12.00" fill="#242424">map.js</text>
</g>
<!-- ap.js&#45;&gt;map.js -->
<g id="edge2" class="edge">
<title>ap.js&#45;&gt;map.js</title>
<path fill="none" stroke="#242424" d="M1145.9202,-1425.1405C1151.4823,-1397.4836 1163.3644,-1358.8168 1188.2408,-1334.671 1265.1952,-1259.9766 1354.0484,-1343.04 1416.2408,-1255.671 1450.6599,-1207.3183 1453.5949,-1034.7101 1416.2408,-988.5871 1306.0876,-852.5758 728.6755,-808.6083 557.2611,-798.4502"/>
<polygon fill="#242424" stroke="#242424" points="557.2224,-794.9421 547.0362,-797.8561 556.8163,-801.9303 557.2224,-794.9421"/>
</g>
<!-- reduce.js -->
<g id="node5" class="node">
<title>reduce.js</title>
<ellipse fill="none" stroke="#242424" stroke-width="4" cx="1507.2408" cy="-795.911" rx="51.7142" ry="51.7142"/>
<text text-anchor="middle" x="1507.2408" y="-793.511" font-family="Fira Code" font-size="12.00" fill="#242424">reduce.js</text>
</g>
<!-- ap.js&#45;&gt;reduce.js -->
<g id="edge3" class="edge">
<title>ap.js&#45;&gt;reduce.js</title>
<path fill="none" stroke="#242424" d="M1145.3667,-1425.2137C1150.5972,-1397.2173 1162.3032,-1358.0178 1188.2408,-1334.671 1290.4,-1242.7158 1401.0299,-1362.722 1487.2408,-1255.671 1535.228,-1196.0835 1522.6079,-968.328 1513.2064,-857.3781"/>
<polygon fill="#242424" stroke="#242424" points="1516.6867,-856.9981 1512.3372,-847.3373 1509.7127,-857.6019 1516.6867,-856.9981"/>
</g>
<!-- types.js -->
<g id="node6" class="node">
<title>types.js</title>
<ellipse fill="none" stroke="#242424" stroke-width="4" cx="1360.2408" cy="-1122.129" rx="47.032" ry="47.032"/>
<text text-anchor="middle" x="1360.2408" y="-1119.7291" font-family="Fira Code" font-size="12.00" fill="#242424">types.js</text>
</g>
<!-- ap.js&#45;&gt;types.js -->
<g id="edge4" class="edge">
<title>ap.js&#45;&gt;types.js</title>
<path fill="none" stroke="#242424" d="M1147.9024,-1425.6223C1154.6031,-1398.9924 1167.0478,-1361.5241 1188.2408,-1334.671 1226.884,-1285.707 1264.7776,-1303.9765 1304.2408,-1255.671 1322.8576,-1232.8828 1336.1572,-1203.0165 1345.11,-1177.3083"/>
<polygon fill="#242424" stroke="#242424" points="1348.4768,-1178.2762 1348.3305,-1167.6824 1341.8385,-1176.0552 1348.4768,-1178.2762"/>
</g>
<!-- map.js&#45;&gt;Ⓜ katsu&#45;curry/katsu&#45;curry.js -->
<g id="edge87" class="edge">
<title>map.js&#45;&gt;Ⓜ katsu&#45;curry/katsu&#45;curry.js</title>
<path fill="none" stroke="#242424" d="M500.5661,-759.019C480.3848,-669.1894 435.3669,-442.3307 481.2408,-385.8153 598.1179,-241.8258 1145.4667,-183.7615 1423.8069,-163.2374"/>
<polygon fill="#242424" stroke="#242424" points="1424.2826,-166.7121 1434.0014,-162.4937 1423.7732,-159.7307 1424.2826,-166.7121"/>
</g>
<!-- Ⓜ fast.js/map.js -->
<g id="node47" class="node">
<title>Ⓜ fast.js/map.js</title>
<ellipse fill="none" stroke="#0c821d" stroke-width="4" cx="584.2408" cy="-494.525" rx="93.6378" ry="93.6378"/>
<text text-anchor="middle" x="584.2408" y="-493.3251" font-family="Fira Code" font-size="12.00" fill="#0c821d">Ⓜ fast.js/map.js</text>
</g>
<!-- map.js&#45;&gt;Ⓜ fast.js/map.js -->
<g id="edge86" class="edge">
<title>map.js&#45;&gt;Ⓜ fast.js/map.js</title>
<path fill="none" stroke="#242424" d="M518.4373,-758.9551C528.4925,-718.5483 545.0388,-652.0575 559.0232,-595.8613"/>
<polygon fill="#242424" stroke="#242424" points="562.494,-596.4075 561.5125,-585.8582 555.7012,-594.717 562.494,-596.4075"/>
</g>
<!-- delegate&#45;fast.js -->
<g id="node12" class="node">
<title>delegate&#45;fast.js</title>
<ellipse fill="none" stroke="#242424" stroke-width="4" cx="1699.2408" cy="-494.525" rx="83.5954" ry="83.5954"/>
<text text-anchor="middle" x="1699.2408" y="-492.1251" font-family="Fira Code" font-size="12.00" fill="#242424">delegate&#45;fast.js</text>
</g>
<!-- reduce.js&#45;&gt;delegate&#45;fast.js -->
<g id="edge104" class="edge">
<title>reduce.js&#45;&gt;delegate&#45;fast.js</title>
<path fill="none" stroke="#242424" d="M1535.1592,-752.0869C1564.8373,-705.5006 1612.4006,-630.8397 1648.6948,-573.868"/>
<polygon fill="#242424" stroke="#242424" points="1651.7701,-575.5547 1654.1912,-565.2402 1645.8664,-571.7936 1651.7701,-575.5547"/>
</g>
<!-- Ⓜ fast.js/reduce.js -->
<g id="node19" class="node">
<title>Ⓜ fast.js/reduce.js</title>
<ellipse fill="none" stroke="#0c821d" stroke-width="4" cx="2559.2408" cy="-494.525" rx="108.9199" ry="108.9199"/>
<text text-anchor="middle" x="2559.2408" y="-493.3251" font-family="Fira Code" font-size="12.00" fill="#0c821d">Ⓜ fast.js/reduce.js</text>
</g>
<!-- reduce.js&#45;&gt;Ⓜ fast.js/reduce.js -->
<g id="edge103" class="edge">
<title>reduce.js&#45;&gt;Ⓜ fast.js/reduce.js</title>
<path fill="none" stroke="#242424" d="M1556.7138,-781.0836C1629.9411,-759.1869 1771.5364,-717.0376 1892.2408,-682.2348 2085.7756,-626.4328 2311.4742,-563.3276 2444.4748,-526.343"/>
<polygon fill="#242424" stroke="#242424" points="2445.5867,-529.6667 2454.2838,-523.616 2443.7116,-522.9225 2445.5867,-529.6667"/>
</g>
<!-- types.js&#45;&gt;Ⓜ katsu&#45;curry/katsu&#45;curry.js -->
<g id="edge111" class="edge">
<title>types.js&#45;&gt;Ⓜ katsu&#45;curry/katsu&#45;curry.js</title>
<path fill="none" stroke="#242424" d="M1354.7735,-1075.4109C1342.6462,-956.0503 1321.3611,-631.9602 1413.2408,-385.8153 1427.9681,-346.3611 1451.6166,-307.9044 1476.7944,-273.9969"/>
<polygon fill="#242424" stroke="#242424" points="1479.6498,-276.0233 1482.8755,-265.9314 1474.0605,-271.8091 1479.6498,-276.0233"/>
</g>
<!-- array.js -->
<g id="node7" class="node">
<title>array.js</title>
<ellipse fill="none" stroke="#242424" stroke-width="4" cx="2225.2408" cy="-1122.129" rx="47.0167" ry="47.0167"/>
<text text-anchor="middle" x="2225.2408" y="-1119.7291" font-family="Fira Code" font-size="12.00" fill="#242424">array.js</text>
</g>
<!-- array.js&#45;&gt;Ⓜ katsu&#45;curry/katsu&#45;curry.js -->
<g id="edge6" class="edge">
<title>array.js&#45;&gt;Ⓜ katsu&#45;curry/katsu&#45;curry.js</title>
<path fill="none" stroke="#242424" d="M2206.348,-1078.8821C2188.3824,-1036.4322 2161.5953,-969.5167 2144.2408,-909.5871 2076.0106,-673.9707 2131.341,-570.7942 1970.2408,-385.8153 1907.1659,-313.3913 1815.8311,-256.7628 1738.1733,-217.5419"/>
<polygon fill="#242424" stroke="#242424" points="1739.2833,-214.184 1728.7734,-212.8453 1736.1546,-220.4459 1739.2833,-214.184"/>
</g>
<!-- Ⓜ entrust/entrust.js -->
<g id="node8" class="node">
<title>Ⓜ entrust/entrust.js</title>
<ellipse fill="none" stroke="#0c821d" stroke-width="4" cx="2267.2408" cy="-795.911" rx="113.8526" ry="113.8526"/>
<text text-anchor="middle" x="2267.2408" y="-794.711" font-family="Fira Code" font-size="12.00" fill="#0c821d">Ⓜ entrust/entrust.js</text>
</g>
<!-- array.js&#45;&gt;Ⓜ entrust/entrust.js -->
<g id="edge5" class="edge">
<title>array.js&#45;&gt;Ⓜ entrust/entrust.js</title>
<path fill="none" stroke="#242424" d="M2231.2584,-1075.3899C2236.5113,-1034.59 2244.3739,-973.5204 2251.4107,-918.865"/>
<polygon fill="#242424" stroke="#242424" points="2254.9085,-919.1057 2252.7142,-908.7406 2247.9658,-918.2118 2254.9085,-919.1057"/>
</g>
<!-- filter.js -->
<g id="node9" class="node">
<title>filter.js</title>
<ellipse fill="none" stroke="#242424" stroke-width="4" cx="2524.2408" cy="-795.911" rx="51.7142" ry="51.7142"/>
<text text-anchor="middle" x="2524.2408" y="-793.511" font-family="Fira Code" font-size="12.00" fill="#242424">filter.js</text>
</g>
<!-- array.js&#45;&gt;filter.js -->
<g id="edge7" class="edge">
<title>array.js&#45;&gt;filter.js</title>
<path fill="none" stroke="#242424" d="M2237.5195,-1076.4772C2246.4876,-1049.0205 2260.7021,-1014.4926 2281.2408,-988.5871 2318.4111,-941.7041 2343.172,-946.522 2390.2408,-909.5871 2419.9299,-886.2901 2452.2152,-858.965 2477.6552,-836.9445"/>
<polygon fill="#242424" stroke="#242424" points="2480.0627,-839.4894 2485.3202,-830.2911 2475.4741,-834.2031 2480.0627,-839.4894"/>
</g>
<!-- filter.js&#45;&gt;delegate&#45;fast.js -->
<g id="edge43" class="edge">
<title>filter.js&#45;&gt;delegate&#45;fast.js</title>
<path fill="none" stroke="#242424" d="M2488.8236,-758.2158C2463.5259,-733.3407 2427.4977,-701.8393 2390.2408,-682.2348 2191.8215,-577.8269 1929.9964,-527.3635 1792.5988,-506.658"/>
<polygon fill="#242424" stroke="#242424" points="1792.9265,-503.1684 1782.5204,-505.1591 1791.8967,-510.0922 1792.9265,-503.1684"/>
</g>
<!-- Ⓜ fast.js/filter.js -->
<g id="node18" class="node">
<title>Ⓜ fast.js/filter.js</title>
<ellipse fill="none" stroke="#0c821d" stroke-width="4" cx="2871.2408" cy="-494.525" rx="108.9199" ry="108.9199"/>
<text text-anchor="middle" x="2871.2408" y="-493.3251" font-family="Fira Code" font-size="12.00" fill="#0c821d">Ⓜ fast.js/filter.js</text>
</g>
<!-- filter.js&#45;&gt;Ⓜ fast.js/filter.js -->
<g id="edge42" class="edge">
<title>filter.js&#45;&gt;Ⓜ fast.js/filter.js</title>
<path fill="none" stroke="#242424" d="M2543.5438,-747.7344C2553.7735,-726.103 2567.8495,-701.2338 2585.2408,-682.2348 2613.651,-651.1982 2698.2245,-597.0154 2768.0882,-554.8157"/>
<polygon fill="#242424" stroke="#242424" points="2770.205,-557.6267 2776.9661,-549.4696 2766.5939,-551.63 2770.205,-557.6267"/>
</g>
<!-- chain.js -->
<g id="node10" class="node">
<title>chain.js</title>
<ellipse fill="none" stroke="#242424" stroke-width="4" cx="1465.2408" cy="-1458.28" rx="47.0167" ry="47.0167"/>
<text text-anchor="middle" x="1465.2408" y="-1455.88" font-family="Fira Code" font-size="12.00" fill="#242424">chain.js</text>
</g>
<!-- Ⓜ flatmap&#45;fast/index.js -->
<g id="node11" class="node">
<title>Ⓜ flatmap&#45;fast/index.js</title>
<ellipse fill="none" stroke="#0c821d" stroke-width="4" cx="2419.2408" cy="-1122.129" rx="128.6676" ry="128.6676"/>
<text text-anchor="middle" x="2419.2408" y="-1120.9291" font-family="Fira Code" font-size="12.00" fill="#0c821d">Ⓜ flatmap&#45;fast/index.js</text>
</g>
<!-- chain.js&#45;&gt;Ⓜ flatmap&#45;fast/index.js -->
<g id="edge8" class="edge">
<title>chain.js&#45;&gt;Ⓜ flatmap&#45;fast/index.js</title>
<path fill="none" stroke="#242424" d="M1499.1704,-1425.4194C1531.3944,-1396.3398 1582.6141,-1355.3977 1635.2408,-1334.671 1904.3701,-1228.6758 2020.2023,-1380.2682 2281.2408,-1255.671 2297.3612,-1247.9765 2312.7787,-1237.6533 2327.0813,-1226.1388"/>
<polygon fill="#242424" stroke="#242424" points="2329.4591,-1228.7136 2334.9099,-1219.6284 2324.9832,-1223.3315 2329.4591,-1228.7136"/>
</g>
<!-- chain.js&#45;&gt;delegate&#45;fast.js -->
<g id="edge9" class="edge">
<title>chain.js&#45;&gt;delegate&#45;fast.js</title>
<path fill="none" stroke="#242424" d="M1479.1118,-1413.0789C1487.8508,-1388.6028 1500.6377,-1358.5719 1517.2408,-1334.671 1546.4798,-1292.58 1577.9364,-1301.3161 1601.2408,-1255.671 1659.7797,-1141.0137 1685.7835,-765.7297 1695.0144,-588.6376"/>
<polygon fill="#242424" stroke="#242424" points="1698.5148,-588.7181 1695.5332,-578.5515 1691.5241,-588.3585 1698.5148,-588.7181"/>
</g>
<!-- delegate&#45;fast.js&#45;&gt;Ⓜ katsu&#45;curry/katsu&#45;curry.js -->
<g id="edge40" class="edge">
<title>delegate&#45;fast.js&#45;&gt;Ⓜ katsu&#45;curry/katsu&#45;curry.js</title>
<path fill="none" stroke="#242424" d="M1672.9818,-414.5482C1662.6248,-383.0041 1650.3559,-345.6368 1638.3851,-309.1775"/>
<polygon fill="#242424" stroke="#242424" points="1641.6296,-307.8391 1635.1847,-299.4299 1634.9789,-310.0228 1641.6296,-307.8391"/>
</g>
<!-- choice.js -->
<g id="node13" class="node">
<title>choice.js</title>
<ellipse fill="none" stroke="#242424" stroke-width="4" cx="2484.2408" cy="-1458.28" rx="51.7142" ry="51.7142"/>
<text text-anchor="middle" x="2484.2408" y="-1455.88" font-family="Fira Code" font-size="12.00" fill="#242424">choice.js</text>
</g>
<!-- choice.js&#45;&gt;Ⓜ katsu&#45;curry/katsu&#45;curry.js -->
<g id="edge10" class="edge">
<title>choice.js&#45;&gt;Ⓜ katsu&#45;curry/katsu&#45;curry.js</title>
<path fill="none" stroke="#242424" d="M2497.3078,-1408.3331C2506.5648,-1382.5849 2521.6377,-1352.8524 2545.2408,-1334.671 2685.0021,-1227.0134 2804.0739,-1374.7505 2934.2408,-1255.671 3221.559,-992.8259 3291.8996,-682.1307 3039.2408,-385.8153 2956.189,-288.4131 2112.0735,-200.9825 1750.3573,-167.6819"/>
<polygon fill="#242424" stroke="#242424" points="1750.6018,-164.1898 1740.3236,-166.7607 1749.9617,-171.1604 1750.6018,-164.1898"/>
</g>
<!-- debug.js -->
<g id="node14" class="node">
<title>debug.js</title>
<ellipse fill="none" stroke="#242424" stroke-width="4" cx="2046.2408" cy="-1707.8974" rx="47.0167" ry="47.0167"/>
<text text-anchor="middle" x="2046.2408" y="-1705.4974" font-family="Fira Code" font-size="12.00" fill="#242424">debug.js</text>
</g>
<!-- debug.js&#45;&gt;ap.js -->
<g id="edge19" class="edge">
<title>debug.js&#45;&gt;ap.js</title>
<path fill="none" stroke="#242424" d="M1999.1831,-1704.3115C1850.0418,-1692.3399 1390.0085,-1650.5821 1259.2408,-1581.889 1220.1558,-1561.3575 1186.6382,-1522.9281 1165.4222,-1494.3462"/>
<polygon fill="#242424" stroke="#242424" points="1168.2129,-1492.2325 1159.5055,-1486.1966 1162.5483,-1496.3451 1168.2129,-1492.2325"/>
</g>
<!-- debug.js&#45;&gt;map.js -->
<g id="edge25" class="edge">
<title>debug.js&#45;&gt;map.js</title>
<path fill="none" stroke="#242424" d="M1999.23,-1704.7331C1776.1952,-1689.5273 833.5791,-1623.0105 787.2408,-1581.889 703.0502,-1507.1768 801.41,-1423.4719 732.2408,-1334.671 684.2397,-1273.0461 620.8159,-1319.111 575.2408,-1255.671 540.2633,-1206.9828 545.7737,-1047.9264 537.2408,-988.5871 530.1301,-939.1387 521.8974,-882.5672 516.2082,-843.578"/>
<polygon fill="#242424" stroke="#242424" points="519.6543,-842.954 514.7465,-833.5645 512.7277,-843.9652 519.6543,-842.954"/>
</g>
<!-- debug.js&#45;&gt;types.js -->
<g id="edge39" class="edge">
<title>debug.js&#45;&gt;types.js</title>
<path fill="none" stroke="#242424" d="M1999.2035,-1705.2126C1816.2732,-1694.3002 1159.3745,-1650.5542 1099.2408,-1581.889 1063.0467,-1540.5599 1068.1536,-1379.9666 1099.2408,-1334.671 1154.4934,-1254.1652 1234.1951,-1323.6977 1304.2408,-1255.671 1325.6699,-1234.8595 1339.2707,-1204.5983 1347.6936,-1178.1429"/>
<polygon fill="#242424" stroke="#242424" points="1351.1501,-1178.8016 1350.6738,-1168.2175 1344.4458,-1176.7886 1351.1501,-1178.8016"/>
</g>
<!-- debug.js&#45;&gt;array.js -->
<g id="edge20" class="edge">
<title>debug.js&#45;&gt;array.js</title>
<path fill="none" stroke="#242424" d="M2090.8973,-1692.2243C2136.068,-1673.6862 2203.3622,-1638.0515 2233.2408,-1581.889 2302.991,-1450.7805 2267.1467,-1267.4432 2242.3406,-1177.0136"/>
<polygon fill="#242424" stroke="#242424" points="2245.6714,-1175.9282 2239.6035,-1167.2431 2238.9309,-1177.8165 2245.6714,-1175.9282"/>
</g>
<!-- debug.js&#45;&gt;Ⓜ flatmap&#45;fast/index.js -->
<g id="edge16" class="edge">
<title>debug.js&#45;&gt;Ⓜ flatmap&#45;fast/index.js</title>
<path fill="none" stroke="#242424" d="M2093.6408,-1705.8664C2227.1281,-1699.0575 2601.2932,-1672.1199 2675.2408,-1581.889 2710.0637,-1539.3981 2698.5882,-1384.4003 2675.2408,-1334.671 2646.9861,-1274.4893 2592.3934,-1225.461 2540.8558,-1189.7216"/>
<polygon fill="#242424" stroke="#242424" points="2542.5162,-1186.6176 2532.282,-1183.8767 2538.5732,-1192.4014 2542.5162,-1186.6176"/>
</g>
<!-- debug.js&#45;&gt;delegate&#45;fast.js -->
<g id="edge22" class="edge">
<title>debug.js&#45;&gt;delegate&#45;fast.js</title>
<path fill="none" stroke="#242424" d="M2028.833,-1663.9113C2019.979,-1639.9891 2009.743,-1609.6859 2003.2408,-1581.889 1942.6633,-1322.921 1998.7062,-1244.198 1925.2408,-988.5871 1919.1719,-967.4715 1802.1934,-715.3203 1738.9839,-579.6649"/>
<polygon fill="#242424" stroke="#242424" points="1742.1106,-578.0883 1734.714,-570.5028 1735.7658,-581.0453 1742.1106,-578.0883"/>
</g>
<!-- debug.js&#45;&gt;choice.js -->
<g id="edge21" class="edge">
<title>debug.js&#45;&gt;choice.js</title>
<path fill="none" stroke="#242424" d="M2093.0844,-1703.1481C2169.3812,-1693.1964 2321.6515,-1663.822 2418.2408,-1581.889 2438.4595,-1564.7383 2453.4248,-1539.7878 2463.9454,-1516.7869"/>
<polygon fill="#242424" stroke="#242424" points="2467.2432,-1517.981 2468.0429,-1507.4164 2460.8295,-1515.1765 2467.2432,-1517.981"/>
</g>
<!-- Ⓜ entrust/debug.js -->
<g id="node15" class="node">
<title>Ⓜ entrust/debug.js</title>
<ellipse fill="none" stroke="#0c821d" stroke-width="4" cx="3024.2408" cy="-1458.28" rx="103.9872" ry="103.9872"/>
<text text-anchor="middle" x="3024.2408" y="-1457.08" font-family="Fira Code" font-size="12.00" fill="#0c821d">Ⓜ entrust/debug.js</text>
</g>
<!-- debug.js&#45;&gt;Ⓜ entrust/debug.js -->
<g id="edge11" class="edge">
<title>debug.js&#45;&gt;Ⓜ entrust/debug.js</title>
<path fill="none" stroke="#242424" d="M2093.4331,-1705.0217C2251.716,-1694.7587 2761.8831,-1656.5024 2906.2408,-1581.889 2923.1858,-1573.1308 2939.0622,-1560.9752 2953.338,-1547.6812"/>
<polygon fill="#242424" stroke="#242424" points="2955.8778,-1550.0944 2960.6546,-1540.6375 2951.023,-1545.0515 2955.8778,-1550.0944"/>
</g>
<!-- Ⓜ fast.js/array/every.js -->
<g id="node16" class="node">
<title>Ⓜ fast.js/array/every.js</title>
<ellipse fill="none" stroke="#0c821d" stroke-width="4" cx="886.2408" cy="-1122.129" rx="133.5838" ry="133.5838"/>
<text text-anchor="middle" x="886.2408" y="-1120.9291" font-family="Fira Code" font-size="12.00" fill="#0c821d">Ⓜ fast.js/array/every.js</text>
</g>
<!-- debug.js&#45;&gt;Ⓜ fast.js/array/every.js -->
<g id="edge12" class="edge">
<title>debug.js&#45;&gt;Ⓜ fast.js/array/every.js</title>
<path fill="none" stroke="#242424" d="M1999.212,-1705.1293C1808.1857,-1693.4851 1096.8926,-1646.0971 1021.2408,-1581.889 1008.4981,-1571.0739 958.541,-1392.6079 923.1221,-1261.271"/>
<polygon fill="#242424" stroke="#242424" points="926.4715,-1260.2485 920.4912,-1251.5028 919.7124,-1262.069 926.4715,-1260.2485"/>
</g>
<!-- Ⓜ fast.js/array/some.js -->
<g id="node17" class="node">
<title>Ⓜ fast.js/array/some.js</title>
<ellipse fill="none" stroke="#0c821d" stroke-width="4" cx="1166.2408" cy="-1122.129" rx="128.651" ry="128.651"/>
<text text-anchor="middle" x="1166.2408" y="-1120.9291" font-family="Fira Code" font-size="12.00" fill="#0c821d">Ⓜ fast.js/array/some.js</text>
</g>
<!-- debug.js&#45;&gt;Ⓜ fast.js/array/some.js -->
<g id="edge13" class="edge">
<title>debug.js&#45;&gt;Ⓜ fast.js/array/some.js</title>
<path fill="none" stroke="#242424" d="M1998.9982,-1705.402C1812.1003,-1695.0565 1131.5301,-1652.7281 1069.2408,-1581.889 986.6708,-1487.9857 1037.7557,-1341.7034 1092.0437,-1239.4326"/>
<polygon fill="#242424" stroke="#242424" points="1095.1375,-1241.0692 1096.7954,-1230.6049 1088.9737,-1237.7514 1095.1375,-1241.0692"/>
</g>
<!-- debug.js&#45;&gt;Ⓜ fast.js/filter.js -->
<g id="edge14" class="edge">
<title>debug.js&#45;&gt;Ⓜ fast.js/filter.js</title>
<path fill="none" stroke="#242424" d="M2093.352,-1707.3832C2328.4079,-1704.3405 3366.8148,-1685.0975 3461.2408,-1581.889 3643.7858,-1382.3657 3476.2425,-1213.6022 3326.2408,-988.5871 3298.1706,-946.4795 3279.3987,-945.9864 3244.2408,-909.5871 3139.0513,-800.6836 3023.2818,-670.0588 2949.0529,-584.8205"/>
<polygon fill="#242424" stroke="#242424" points="2951.6516,-582.4751 2942.447,-577.2287 2946.3709,-587.0701 2951.6516,-582.4751"/>
</g>
<!-- debug.js&#45;&gt;Ⓜ fast.js/reduce.js -->
<g id="edge15" class="edge">
<title>debug.js&#45;&gt;Ⓜ fast.js/reduce.js</title>
<path fill="none" stroke="#242424" d="M2093.3676,-1707.2741C2324.9967,-1703.7336 3335.3274,-1682.5708 3427.2408,-1581.889 3501.32,-1500.7428 3456.1573,-1440.6723 3427.2408,-1334.671 3380.2509,-1162.4169 3342.5572,-1121.4145 3223.2408,-988.5871 3177.3326,-937.4804 2829.4546,-687.0088 2656.3958,-563.5618"/>
<polygon fill="#242424" stroke="#242424" points="2658.2099,-560.5567 2648.0359,-557.6003 2654.1457,-566.256 2658.2099,-560.5567"/>
</g>
<!-- Ⓜ katsu&#45;curry/debug.js -->
<g id="node20" class="node">
<title>Ⓜ katsu&#45;curry/debug.js</title>
<ellipse fill="none" stroke="#0c821d" stroke-width="4" cx="3269.2408" cy="-1458.28" rx="123.7182" ry="123.7182"/>
<text text-anchor="middle" x="3269.2408" y="-1457.08" font-family="Fira Code" font-size="12.00" fill="#0c821d">Ⓜ katsu&#45;curry/debug.js</text>
</g>
<!-- debug.js&#45;&gt;Ⓜ katsu&#45;curry/debug.js -->
<g id="edge17" class="edge">
<title>debug.js&#45;&gt;Ⓜ katsu&#45;curry/debug.js</title>
<path fill="none" stroke="#242424" d="M2093.4121,-1706.2375C2276.571,-1699.4033 2939.0118,-1669.542 3128.2408,-1581.889 3144.3454,-1574.4292 3159.7743,-1564.2364 3174.1374,-1552.8813"/>
<polygon fill="#242424" stroke="#242424" points="3176.4684,-1555.4966 3182.0047,-1546.4634 3172.0436,-1550.0725 3176.4684,-1555.4966"/>
</g>
<!-- debug.js&#45;&gt;Ⓜ katsu&#45;curry/debug.js -->
<g id="edge18" class="edge">
<title>debug.js&#45;&gt;Ⓜ katsu&#45;curry/debug.js</title>
<path fill="none" stroke="#242424" d="M2093.3874,-1706.4737C2278.6043,-1700.1116 2954.7411,-1670.5938 3146.2408,-1581.889 3158.7343,-1576.1019 3170.8212,-1568.67 3182.2288,-1560.3266"/>
<polygon fill="#242424" stroke="#242424" points="3184.5723,-1562.9414 3190.4113,-1554.1008 3180.3337,-1557.3706 3184.5723,-1562.9414"/>
</g>
<!-- invert.js -->
<g id="node21" class="node">
<title>invert.js</title>
<ellipse fill="none" stroke="#242424" stroke-width="4" cx="2812.2408" cy="-1458.28" rx="51.7142" ry="51.7142"/>
<text text-anchor="middle" x="2812.2408" y="-1455.88" font-family="Fira Code" font-size="12.00" fill="#242424">invert.js</text>
</g>
<!-- debug.js&#45;&gt;invert.js -->
<g id="edge23" class="edge">
<title>debug.js&#45;&gt;invert.js</title>
<path fill="none" stroke="#242424" d="M2093.2654,-1704.7289C2232.7123,-1694.53 2640.7935,-1658.6487 2746.2408,-1581.889 2768.0317,-1566.0265 2783.323,-1540.7418 2793.6592,-1517.1615"/>
<polygon fill="#242424" stroke="#242424" points="2796.9078,-1518.4646 2797.517,-1507.8873 2790.4447,-1515.7761 2796.9078,-1518.4646"/>
</g>
<!-- iterate.js -->
<g id="node22" class="node">
<title>iterate.js</title>
<ellipse fill="none" stroke="#242424" stroke-width="4" cx="2650.2408" cy="-795.911" rx="56.412" ry="56.412"/>
<text text-anchor="middle" x="2650.2408" y="-793.511" font-family="Fira Code" font-size="12.00" fill="#242424">iterate.js</text>
</g>
<!-- debug.js&#45;&gt;iterate.js -->
<g id="edge24" class="edge">
<title>debug.js&#45;&gt;iterate.js</title>
<path fill="none" stroke="#242424" d="M2093.2731,-1707.1922C2322.1552,-1703.2847 3312.1595,-1680.7294 3402.2408,-1581.889 3439.2466,-1541.285 3426.9754,-1383.7251 3402.2408,-1334.671 3254.981,-1042.6222 2866.1111,-874.2788 2713.2373,-817.6447"/>
<polygon fill="#242424" stroke="#242424" points="2714.1078,-814.2359 2703.5142,-814.0757 2711.6957,-820.8072 2714.1078,-814.2359"/>
</g>
<!-- math.js -->
<g id="node23" class="node">
<title>math.js</title>
<ellipse fill="none" stroke="#242424" stroke-width="4" cx="226.2408" cy="-795.911" rx="42.3196" ry="42.3196"/>
<text text-anchor="middle" x="226.2408" y="-793.511" font-family="Fira Code" font-size="12.00" fill="#242424">math.js</text>
</g>
<!-- debug.js&#45;&gt;math.js -->
<g id="edge26" class="edge">
<title>debug.js&#45;&gt;math.js</title>
<path fill="none" stroke="#242424" d="M1999.0981,-1704.341C1893.4965,-1696.3915 1629.9066,-1676.6436 1409.2408,-1660.889 1282.0399,-1651.8075 355.0296,-1671.4432 264.2408,-1581.889 212.232,-1530.5875 220.605,-1016.3101 224.7659,-848.535"/>
<polygon fill="#242424" stroke="#242424" points="228.2667,-848.5454 225.0211,-838.4599 221.2689,-848.3681 228.2667,-848.5454"/>
</g>
<!-- object.js -->
<g id="node24" class="node">
<title>object.js</title>
<ellipse fill="none" stroke="#242424" stroke-width="4" cx="476.2408" cy="-1122.129" rx="51.7142" ry="51.7142"/>
<text text-anchor="middle" x="476.2408" y="-1119.7291" font-family="Fira Code" font-size="12.00" fill="#242424">object.js</text>
</g>
<!-- debug.js&#45;&gt;object.js -->
<g id="edge27" class="edge">
<title>debug.js&#45;&gt;object.js</title>
<path fill="none" stroke="#242424" d="M1999.024,-1704.7207C1772.8038,-1689.3188 808.693,-1621.5437 759.2408,-1581.889 669.0379,-1509.5573 750.9959,-1424.5327 678.2408,-1334.671 634.2548,-1280.3427 589.9801,-1306.7325 542.2408,-1255.671 522.3512,-1234.3973 507.1888,-1205.9985 496.4434,-1180.8599"/>
<polygon fill="#242424" stroke="#242424" points="499.5919,-1179.3143 492.5407,-1171.4066 493.1216,-1181.9855 499.5919,-1179.3143"/>
</g>
<!-- path.js -->
<g id="node25" class="node">
<title>path.js</title>
<ellipse fill="none" stroke="#242424" stroke-width="4" cx="288.2408" cy="-1122.129" rx="42.3349" ry="42.3349"/>
<text text-anchor="middle" x="288.2408" y="-1119.7291" font-family="Fira Code" font-size="12.00" fill="#242424">path.js</text>
</g>
<!-- debug.js&#45;&gt;path.js -->
<g id="edge28" class="edge">
<title>debug.js&#45;&gt;path.js</title>
<path fill="none" stroke="#242424" d="M1999.0952,-1704.3811C1893.4878,-1696.5126 1629.8869,-1676.9178 1409.2408,-1660.889 1286.4731,-1651.9706 389.6728,-1670.5051 304.2408,-1581.889 249.5336,-1525.1429 269.6761,-1282.5833 281.7685,-1174.479"/>
<polygon fill="#242424" stroke="#242424" points="285.2568,-1174.7796 282.9108,-1164.4478 278.3018,-1173.9875 285.2568,-1174.7796"/>
</g>
<!-- random&#45;floor.js -->
<g id="node26" class="node">
<title>random&#45;floor.js</title>
<ellipse fill="none" stroke="#242424" stroke-width="4" cx="1980.2408" cy="-795.911" rx="79.3981" ry="79.3981"/>
<text text-anchor="middle" x="1980.2408" y="-793.511" font-family="Fira Code" font-size="12.00" fill="#242424">random&#45;floor.js</text>
</g>
<!-- debug.js&#45;&gt;random&#45;floor.js -->
<g id="edge29" class="edge">
<title>debug.js&#45;&gt;random&#45;floor.js</title>
<path fill="none" stroke="#242424" d="M2040.7492,-1661.095C2031.3132,-1579.0824 2012.001,-1404.0063 2001.2408,-1255.671 1991.9216,-1127.2 1986.0119,-978.2159 1982.9131,-885.4973"/>
<polygon fill="#242424" stroke="#242424" points="1986.405,-885.1901 1982.5765,-875.3112 1979.4088,-885.4214 1986.405,-885.1901"/>
</g>
<!-- random&#45;shuffle.js -->
<g id="node27" class="node">
<title>random&#45;shuffle.js</title>
<ellipse fill="none" stroke="#0c821d" stroke-width="4" cx="1732.2408" cy="-1458.28" rx="88.2923" ry="88.2923"/>
<text text-anchor="middle" x="1732.2408" y="-1455.88" font-family="Fira Code" font-size="12.00" fill="#0c821d">random&#45;shuffle.js</text>
</g>
<!-- debug.js&#45;&gt;random&#45;shuffle.js -->
<g id="edge30" class="edge">
<title>debug.js&#45;&gt;random&#45;shuffle.js</title>
<path fill="none" stroke="#242424" d="M2003.1958,-1688.9369C1957.0473,-1667.2997 1883.1534,-1628.7716 1829.2408,-1581.889 1814.7796,-1569.3135 1800.9503,-1554.331 1788.4953,-1539.2097"/>
<polygon fill="#242424" stroke="#242424" points="1791.116,-1536.8841 1782.1112,-1531.3016 1785.6693,-1541.2811 1791.116,-1536.8841"/>
</g>
<!-- random&#45;take.js -->
<g id="node28" class="node">
<title>random&#45;take.js</title>
<ellipse fill="none" stroke="#242424" stroke-width="4" cx="2085.2408" cy="-1122.129" rx="74.7005" ry="74.7005"/>
<text text-anchor="middle" x="2085.2408" y="-1119.7291" font-family="Fira Code" font-size="12.00" fill="#242424">random&#45;take.js</text>
</g>
<!-- debug.js&#45;&gt;random&#45;take.js -->
<g id="edge31" class="edge">
<title>debug.js&#45;&gt;random&#45;take.js</title>
<path fill="none" stroke="#242424" d="M2047.992,-1660.7236C2050.7693,-1589.8728 2056.7527,-1451.7969 2065.2408,-1334.671 2068.3024,-1292.4239 2072.6165,-1245.5376 2076.4545,-1206.5742"/>
<polygon fill="#242424" stroke="#242424" points="2079.9667,-1206.6242 2077.4708,-1196.3275 2073.0008,-1205.9332 2079.9667,-1206.6242"/>
</g>
<!-- random&#45;word.js -->
<g id="node29" class="node">
<title>random&#45;word.js</title>
<ellipse fill="none" stroke="#242424" stroke-width="4" cx="2149.2408" cy="-1458.28" rx="74.7005" ry="74.7005"/>
<text text-anchor="middle" x="2149.2408" y="-1455.88" font-family="Fira Code" font-size="12.00" fill="#242424">random&#45;word.js</text>
</g>
<!-- debug.js&#45;&gt;random&#45;word.js -->
<g id="edge32" class="edge">
<title>debug.js&#45;&gt;random&#45;word.js</title>
<path fill="none" stroke="#242424" d="M2064.182,-1664.4173C2078.6498,-1629.3551 2099.3762,-1579.1253 2116.747,-1537.0278"/>
<polygon fill="#242424" stroke="#242424" points="2120.0475,-1538.2049 2120.6265,-1527.6258 2113.5767,-1535.5348 2120.0475,-1538.2049"/>
</g>
<!-- random.js -->
<g id="node30" class="node">
<title>random.js</title>
<ellipse fill="none" stroke="#0c821d" stroke-width="4" cx="1890.2408" cy="-1458.28" rx="51.7142" ry="51.7142"/>
<text text-anchor="middle" x="1890.2408" y="-1455.88" font-family="Fira Code" font-size="12.00" fill="#0c821d">random.js</text>
</g>
<!-- debug.js&#45;&gt;random.js -->
<g id="edge33" class="edge">
<title>debug.js&#45;&gt;random.js</title>
<path fill="none" stroke="#242424" d="M2017.5478,-1670.4508C1999.1792,-1645.8363 1975.3041,-1612.6138 1956.2408,-1581.889 1942.7175,-1560.0933 1929.138,-1535.2833 1917.8426,-1513.6391"/>
<polygon fill="#242424" stroke="#242424" points="1920.8551,-1511.8451 1913.1483,-1504.5749 1914.6392,-1515.0643 1920.8551,-1511.8451"/>
</g>
<!-- range.js -->
<g id="node31" class="node">
<title>range.js</title>
<ellipse fill="none" stroke="#242424" stroke-width="4" cx="1315.2408" cy="-1458.28" rx="47.0167" ry="47.0167"/>
<text text-anchor="middle" x="1315.2408" y="-1455.88" font-family="Fira Code" font-size="12.00" fill="#242424">range.js</text>
</g>
<!-- debug.js&#45;&gt;range.js -->
<g id="edge34" class="edge">
<title>debug.js&#45;&gt;range.js</title>
<path fill="none" stroke="#242424" d="M1999.3521,-1702.971C1869.6459,-1688.6723 1509.0604,-1644.1881 1409.2408,-1581.889 1380.884,-1564.1911 1357.9457,-1534.6421 1341.8288,-1508.8726"/>
<polygon fill="#242424" stroke="#242424" points="1344.807,-1507.0338 1336.6266,-1500.3009 1338.8229,-1510.6656 1344.807,-1507.0338"/>
</g>
<!-- reject.js -->
<g id="node32" class="node">
<title>reject.js</title>
<ellipse fill="none" stroke="#242424" stroke-width="4" cx="2873.2408" cy="-1122.129" rx="51.7142" ry="51.7142"/>
<text text-anchor="middle" x="2873.2408" y="-1119.7291" font-family="Fira Code" font-size="12.00" fill="#242424">reject.js</text>
</g>
<!-- debug.js&#45;&gt;reject.js -->
<g id="edge35" class="edge">
<title>debug.js&#45;&gt;reject.js</title>
<path fill="none" stroke="#242424" d="M2093.2365,-1704.2689C2260.8031,-1690.8629 2821.7773,-1641.7879 2873.2408,-1581.889 2923.1152,-1523.8397 2898.2702,-1294.779 2882.6615,-1183.4802"/>
<polygon fill="#242424" stroke="#242424" points="2886.1025,-1182.8171 2881.2292,-1173.4096 2879.1722,-1183.8028 2886.1025,-1182.8171"/>
</g>
<!-- string.js -->
<g id="node33" class="node">
<title>string.js</title>
<ellipse fill="none" stroke="#242424" stroke-width="4" cx="2732.2408" cy="-1122.129" rx="51.7142" ry="51.7142"/>
<text text-anchor="middle" x="2732.2408" y="-1119.7291" font-family="Fira Code" font-size="12.00" fill="#242424">string.js</text>
</g>
<!-- debug.js&#45;&gt;string.js -->
<g id="edge36" class="edge">
<title>debug.js&#45;&gt;string.js</title>
<path fill="none" stroke="#242424" d="M2093.2276,-1706.0037C2229.371,-1699.4673 2619.5394,-1672.9841 2700.2408,-1581.889 2751.0489,-1524.5373 2743.7453,-1295.6723 2736.8429,-1184.0217"/>
<polygon fill="#242424" stroke="#242424" points="2740.328,-1183.6738 2736.1994,-1173.9165 2733.3421,-1184.1188 2740.328,-1183.6738"/>
</g>
<!-- ternary.js -->
<g id="node34" class="node">
<title>ternary.js</title>
<ellipse fill="none" stroke="#242424" stroke-width="4" cx="2610.2408" cy="-1458.28" rx="56.412" ry="56.412"/>
<text text-anchor="middle" x="2610.2408" y="-1455.88" font-family="Fira Code" font-size="12.00" fill="#242424">ternary.js</text>
</g>
<!-- debug.js&#45;&gt;ternary.js -->
<g id="edge37" class="edge">
<title>debug.js&#45;&gt;ternary.js</title>
<path fill="none" stroke="#242424" d="M2092.7925,-1701.0831C2202.636,-1684.2402 2474.0747,-1637.9259 2545.2408,-1581.889 2564.826,-1566.4675 2579.1639,-1543.4958 2589.3103,-1521.5257"/>
<polygon fill="#242424" stroke="#242424" points="2592.5909,-1522.7597 2593.4052,-1512.1962 2586.1811,-1519.9463 2592.5909,-1522.7597"/>
</g>
<!-- triplet.js -->
<g id="node35" class="node">
<title>triplet.js</title>
<ellipse fill="none" stroke="#242424" stroke-width="4" cx="640.2408" cy="-1122.129" rx="56.4274" ry="56.4274"/>
<text text-anchor="middle" x="640.2408" y="-1119.7291" font-family="Fira Code" font-size="12.00" fill="#242424">triplet.js</text>
</g>
<!-- debug.js&#45;&gt;triplet.js -->
<g id="edge38" class="edge">
<title>debug.js&#45;&gt;triplet.js</title>
<path fill="none" stroke="#242424" d="M1998.9858,-1704.5934C1780.1407,-1689.0916 873.88,-1622.6182 830.2408,-1581.889 748.7096,-1505.7947 837.9867,-1433.9813 787.2408,-1334.671 764.9311,-1291.0106 739.0351,-1295.3552 710.2408,-1255.671 693.9552,-1233.2262 679.161,-1206.4891 667.4126,-1182.8557"/>
<polygon fill="#242424" stroke="#242424" points="670.4361,-1181.0712 662.8987,-1173.6255 664.1478,-1184.1465 670.4361,-1181.0712"/>
</g>
<!-- invert.js&#45;&gt;Ⓜ katsu&#45;curry/katsu&#45;curry.js -->
<g id="edge76" class="edge">
<title>invert.js&#45;&gt;Ⓜ katsu&#45;curry/katsu&#45;curry.js</title>
<path fill="none" stroke="#242424" d="M2836.3335,-1412.3754C2853.363,-1384.8912 2878.8958,-1352.0218 2911.2408,-1334.671 3258.451,-1148.4171 3433.4079,-1413.9272 3794.2408,-1255.671 4074.4606,-1132.7705 4358.5619,-927.2267 4175.2408,-682.2348 3881.4922,-289.6668 2272.8478,-183.9486 1750.8593,-159.772"/>
<polygon fill="#242424" stroke="#242424" points="1750.7626,-156.264 1740.6126,-159.3015 1750.4414,-163.2566 1750.7626,-156.264"/>
</g>
<!-- iterate.js&#45;&gt;Ⓜ katsu&#45;curry/katsu&#45;curry.js -->
<g id="edge77" class="edge">
<title>iterate.js&#45;&gt;Ⓜ katsu&#45;curry/katsu&#45;curry.js</title>
<path fill="none" stroke="#242424" d="M2662.7037,-741.0439C2683.789,-642.0553 2720.2184,-438.9226 2677.2408,-385.8153 2562.4928,-244.0216 2025.5122,-185.0244 1750.4945,-163.7781"/>
<polygon fill="#242424" stroke="#242424" points="1750.6577,-160.2804 1740.4199,-163.0076 1750.1238,-167.2601 1750.6577,-160.2804"/>
</g>
<!-- math.js&#45;&gt;Ⓜ katsu&#45;curry/katsu&#45;curry.js -->
<g id="edge88" class="edge">
<title>math.js&#45;&gt;Ⓜ katsu&#45;curry/katsu&#45;curry.js</title>
<path fill="none" stroke="#242424" d="M218.63,-753.9494C206.2553,-671.1644 192.1314,-486.1568 290.2408,-385.8153 445.4846,-227.0395 1111.1955,-175.4219 1423.8473,-159.7473"/>
<polygon fill="#242424" stroke="#242424" points="1424.0917,-163.2396 1433.9064,-159.2493 1423.7455,-156.2482 1424.0917,-163.2396"/>
</g>
<!-- object.js&#45;&gt;Ⓜ katsu&#45;curry/katsu&#45;curry.js -->
<g id="edge89" class="edge">
<title>object.js&#45;&gt;Ⓜ katsu&#45;curry/katsu&#45;curry.js</title>
<path fill="none" stroke="#242424" d="M466.7366,-1071.3013C440.0983,-922.2682 372.0456,-490.3159 457.2408,-385.8153 577.3309,-238.5126 1140.3783,-181.8856 1423.6331,-162.4461"/>
<polygon fill="#242424" stroke="#242424" points="1424.2647,-165.9113 1434.0048,-161.7423 1423.7908,-158.9274 1424.2647,-165.9113"/>
</g>
<!-- object.js&#45;&gt;map.js -->
<g id="edge90" class="edge">
<title>object.js&#45;&gt;map.js</title>
<path fill="none" stroke="#242424" d="M481.4697,-1070.4388C487.7748,-1008.1103 498.286,-904.2029 504.4084,-843.6815"/>
<polygon fill="#242424" stroke="#242424" points="507.9009,-843.9313 505.4252,-833.6298 500.9364,-843.2267 507.9009,-843.9313"/>
</g>
<!-- object.js&#45;&gt;reduce.js -->
<g id="edge91" class="edge">
<title>object.js&#45;&gt;reduce.js</title>
<path fill="none" stroke="#242424" d="M499.1139,-1075.8604C516.0982,-1046.3499 542.0397,-1009.7913 575.2408,-988.5871 722.4995,-894.539 1262.5892,-824.3769 1445.8993,-802.827"/>
<polygon fill="#242424" stroke="#242424" points="1446.3824,-806.2945 1455.9084,-801.6571 1445.5696,-799.3418 1446.3824,-806.2945"/>
</g>
<!-- path.js&#45;&gt;Ⓜ katsu&#45;curry/katsu&#45;curry.js -->
<g id="edge92" class="edge">
<title>path.js&#45;&gt;Ⓜ katsu&#45;curry/katsu&#45;curry.js</title>
<path fill="none" stroke="#242424" d="M288.5112,-1079.6748C289.8574,-930.6499 297.8122,-437.5984 344.2408,-385.8153 485.5734,-228.1834 1119.4962,-176.1538 1423.5455,-160.0788"/>
<polygon fill="#242424" stroke="#242424" points="1423.9729,-163.5613 1433.7769,-159.5448 1423.608,-156.5708 1423.9729,-163.5613"/>
</g>
<!-- path.js&#45;&gt;reduce.js -->
<g id="edge94" class="edge">
<title>path.js&#45;&gt;reduce.js</title>
<path fill="none" stroke="#242424" d="M311.7622,-1086.8215C334.4455,-1055.7637 371.6856,-1011.9631 415.2408,-988.5871 597.3899,-890.8279 1242.4706,-821.4889 1445.5523,-801.6882"/>
<polygon fill="#242424" stroke="#242424" points="1446.1241,-805.1492 1455.7396,-800.7004 1445.4485,-798.1819 1446.1241,-805.1492"/>
</g>
<!-- path.js&#45;&gt;math.js -->
<g id="edge93" class="edge">
<title>path.js&#45;&gt;math.js</title>
<path fill="none" stroke="#242424" d="M280.2623,-1080.1496C268.962,-1020.6923 248.3119,-912.0398 236.0773,-847.6664"/>
<polygon fill="#242424" stroke="#242424" points="239.4943,-846.8999 234.1887,-837.7293 232.6174,-848.207 239.4943,-846.8999"/>
</g>
<!-- random&#45;floor.js&#45;&gt;Ⓜ katsu&#45;curry/katsu&#45;curry.js -->
<g id="edge95" class="edge">
<title>random&#45;floor.js&#45;&gt;Ⓜ katsu&#45;curry/katsu&#45;curry.js</title>
<path fill="none" stroke="#242424" d="M1953.574,-721.0606C1921.6309,-636.1648 1863.4125,-495.3208 1792.2408,-385.8153 1766.2368,-345.8054 1733.6453,-305.623 1702.1519,-270.1898"/>
<polygon fill="#242424" stroke="#242424" points="1704.7281,-267.82 1695.451,-262.7027 1699.512,-272.4883 1704.7281,-267.82"/>
</g>
<!-- random&#45;take.js&#45;&gt;Ⓜ katsu&#45;curry/katsu&#45;curry.js -->
<g id="edge96" class="edge">
<title>random&#45;take.js&#45;&gt;Ⓜ katsu&#45;curry/katsu&#45;curry.js</title>
<path fill="none" stroke="#242424" d="M2094.7743,-1047.8716C2103.462,-958.5482 2109.4183,-805.2623 2068.2408,-682.2348 2006.679,-498.3044 1841.0177,-341.858 1721.3027,-247.8878"/>
<polygon fill="#242424" stroke="#242424" points="1723.163,-244.9 1713.1252,-241.5097 1718.8579,-250.4196 1723.163,-244.9"/>
</g>
<!-- random&#45;take.js&#45;&gt;iterate.js -->
<g id="edge97" class="edge">
<title>random&#45;take.js&#45;&gt;iterate.js</title>
<path fill="none" stroke="#242424" d="M2114.4129,-1053.0768C2127.7828,-1029.2034 2145.933,-1004.4813 2169.2408,-988.5871 2324.7235,-882.5596 2432.0219,-1018.8605 2585.2408,-909.5871 2603.2166,-896.7671 2616.9084,-877.3136 2626.9794,-858.1048"/>
<polygon fill="#242424" stroke="#242424" points="2630.1762,-859.5367 2631.4946,-849.0241 2623.9083,-856.42 2630.1762,-859.5367"/>
</g>
<!-- random&#45;take.js&#45;&gt;random&#45;floor.js -->
<g id="edge98" class="edge">
<title>random&#45;take.js&#45;&gt;random&#45;floor.js</title>
<path fill="none" stroke="#242424" d="M2062.3278,-1050.9422C2046.2516,-1000.996 2024.6798,-933.9759 2007.6845,-881.1742"/>
<polygon fill="#242424" stroke="#242424" points="2010.9624,-879.9344 2004.5667,-871.4877 2004.299,-882.0791 2010.9624,-879.9344"/>
</g>
<!-- random&#45;word.js&#45;&gt;Ⓜ katsu&#45;curry/katsu&#45;curry.js -->
<g id="edge99" class="edge">
<title>random&#45;word.js&#45;&gt;Ⓜ katsu&#45;curry/katsu&#45;curry.js</title>
<path fill="none" stroke="#242424" d="M2180.4627,-1390.4057C2192.9608,-1369.7859 2209.2168,-1348.8569 2229.2408,-1334.671 2351.5943,-1247.9902 2464.453,-1373.4605 2557.2408,-1255.671 2593.9682,-1209.0474 2582.3031,-1042.388 2557.2408,-988.5871 2534.1966,-939.1186 2493.6613,-954.8946 2463.2408,-909.5871 2404.0826,-821.4784 2449.1071,-770.5387 2390.2408,-682.2348 2277.5467,-513.1852 2211.1885,-498.6621 2042.2408,-385.8153 1945.5246,-321.2148 1828.5172,-261.8198 1737.3776,-219.2453"/>
<polygon fill="#242424" stroke="#242424" points="1738.6239,-215.9649 1728.0808,-214.9188 1735.6704,-222.3113 1738.6239,-215.9649"/>
</g>
<!-- random&#45;word.js&#45;&gt;array.js -->
<g id="edge100" class="edge">
<title>random&#45;word.js&#45;&gt;array.js</title>
<path fill="none" stroke="#242424" d="M2165.7317,-1385.3403C2179.8166,-1323.0422 2199.78,-1234.7433 2212.6207,-1177.9483"/>
<polygon fill="#242424" stroke="#242424" points="2216.0623,-1178.5969 2214.8538,-1168.0713 2209.2346,-1177.0532 2216.0623,-1178.5969"/>
</g>
<!-- random&#45;word.js&#45;&gt;random&#45;take.js -->
<g id="edge101" class="edge">
<title>random&#45;word.js&#45;&gt;random&#45;take.js</title>
<path fill="none" stroke="#242424" d="M2135.2748,-1384.9256C2125.2163,-1332.0947 2111.6282,-1260.7251 2101.1508,-1205.694"/>
<polygon fill="#242424" stroke="#242424" points="2104.5408,-1204.7857 2099.2322,-1195.6168 2097.6643,-1206.095 2104.5408,-1204.7857"/>
</g>
<!-- range.js&#45;&gt;Ⓜ katsu&#45;curry/katsu&#45;curry.js -->
<g id="edge102" class="edge">
<title>range.js&#45;&gt;Ⓜ katsu&#45;curry/katsu&#45;curry.js</title>
<path fill="none" stroke="#242424" d="M1325.3893,-1412.2318C1333.1054,-1386.5817 1346.1054,-1355.6794 1367.2408,-1334.671 1432.3934,-1269.9095 1506.0869,-1331.2943 1558.2408,-1255.671 1610.0652,-1180.5254 1600.7627,-605.4565 1592.6517,-317.1371"/>
<polygon fill="#242424" stroke="#242424" points="1596.1464,-316.8994 1592.3638,-307.0029 1589.1493,-317.0983 1596.1464,-316.8994"/>
</g>
<!-- reject.js&#45;&gt;Ⓜ katsu&#45;curry/katsu&#45;curry.js -->
<g id="edge105" class="edge">
<title>reject.js&#45;&gt;Ⓜ katsu&#45;curry/katsu&#45;curry.js</title>
<path fill="none" stroke="#242424" d="M2900.9537,-1078.0952C2975.6997,-953.1929 3164.3617,-592.3555 2989.2408,-385.8153 2909.6531,-291.9484 2102.5162,-203.2266 1750.238,-168.6468"/>
<polygon fill="#242424" stroke="#242424" points="1750.4992,-165.1557 1740.2057,-167.6646 1749.8171,-172.1224 1750.4992,-165.1557"/>
</g>
<!-- reject.js&#45;&gt;filter.js -->
<g id="edge106" class="edge">
<title>reject.js&#45;&gt;filter.js</title>
<path fill="none" stroke="#242424" d="M2854.0635,-1073.961C2840.6995,-1045.7506 2820.3873,-1011.3145 2793.2408,-988.5871 2717.418,-925.1074 2659.5437,-974.8393 2585.2408,-909.5871 2568.2427,-894.6596 2555.1621,-873.8157 2545.5536,-854.0476"/>
<polygon fill="#242424" stroke="#242424" points="2548.6307,-852.3634 2541.248,-844.7643 2542.2804,-855.3087 2548.6307,-852.3634"/>
</g>
<!-- string.js&#45;&gt;Ⓜ katsu&#45;curry/katsu&#45;curry.js -->
<g id="edge108" class="edge">
<title>string.js&#45;&gt;Ⓜ katsu&#45;curry/katsu&#45;curry.js</title>
<path fill="none" stroke="#242424" d="M2733.6735,-1070.3349C2737.5812,-911.2897 2745.3742,-437.5622 2701.2408,-385.8153 2579.9837,-243.6402 2029.6845,-184.6822 1750.6008,-163.5875"/>
<polygon fill="#242424" stroke="#242424" points="1750.613,-160.0788 1740.3797,-162.8227 1750.0906,-167.0592 1750.613,-160.0788"/>
</g>
<!-- string.js&#45;&gt;Ⓜ entrust/entrust.js -->
<g id="edge107" class="edge">
<title>string.js&#45;&gt;Ⓜ entrust/entrust.js</title>
<path fill="none" stroke="#242424" d="M2691.7895,-1090.063C2656.6781,-1062.5206 2604.2375,-1022.0769 2557.2408,-988.5871 2496.6049,-945.3781 2427.181,-899.1427 2371.4639,-862.7967"/>
<polygon fill="#242424" stroke="#242424" points="2373.284,-859.8052 2362.9947,-857.2792 2369.463,-865.6704 2373.284,-859.8052"/>
</g>
<!-- ternary.js&#45;&gt;Ⓜ katsu&#45;curry/katsu&#45;curry.js -->
<g id="edge109" class="edge">
<title>ternary.js&#45;&gt;Ⓜ katsu&#45;curry/katsu&#45;curry.js</title>
<path fill="none" stroke="#242424" d="M2648.0801,-1416.2582C2674.5232,-1389.2875 2712.0047,-1355.5299 2751.2408,-1334.671 2872.9847,-1269.9485 2946.9769,-1345.8908 3051.2408,-1255.671 3250.1978,-1083.5128 3234.0449,-942.8886 3198.2408,-682.2348 3179.6231,-546.6983 3217.7003,-476.4728 3115.2408,-385.8153 2915.2636,-208.8729 2102.6868,-166.5845 1750.8958,-156.5256"/>
<polygon fill="#242424" stroke="#242424" points="1750.9735,-153.0265 1740.8792,-156.2443 1750.777,-160.0237 1750.9735,-153.0265"/>
</g>
<!-- triplet.js&#45;&gt;Ⓜ katsu&#45;curry/katsu&#45;curry.js -->
<g id="edge110" class="edge">
<title>triplet.js&#45;&gt;Ⓜ katsu&#45;curry/katsu&#45;curry.js</title>
<path fill="none" stroke="#242424" d="M645.3778,-1066.0458C660.9499,-898.4898 707.9233,-411.5812 730.2408,-385.8153 820.448,-281.6694 1202.5166,-209.6519 1424.8794,-175.6723"/>
<polygon fill="#242424" stroke="#242424" points="1425.6562,-179.0946 1435.0173,-174.1326 1424.6051,-172.1739 1425.6562,-179.0946"/>
</g>
<!-- either.js -->
<g id="node36" class="node">
<title>either.js</title>
<ellipse fill="none" stroke="#242424" stroke-width="4" cx="1864.2408" cy="-1122.129" rx="51.7142" ry="51.7142"/>
<text text-anchor="middle" x="1864.2408" y="-1119.7291" font-family="Fira Code" font-size="12.00" fill="#242424">either.js</text>
</g>
<!-- either.js&#45;&gt;Ⓜ entrust/entrust.js -->
<g id="edge41" class="edge">
<title>either.js&#45;&gt;Ⓜ entrust/entrust.js</title>
<path fill="none" stroke="#242424" d="M1899.7986,-1084.631C1926.6847,-1056.9943 1965.0322,-1019.0696 2001.2408,-988.5871 2052.9969,-945.0158 2113.9143,-900.446 2164.3845,-865.162"/>
<polygon fill="#242424" stroke="#242424" points="2166.5103,-867.9466 2172.713,-859.3573 2162.5077,-862.2038 2166.5103,-867.9466"/>
</g>
<!-- flip.js -->
<g id="node37" class="node">
<title>flip.js</title>
<ellipse fill="none" stroke="#242424" stroke-width="4" cx="110.2408" cy="-1122.129" rx="42.3349" ry="42.3349"/>
<text text-anchor="middle" x="110.2408" y="-1119.7291" font-family="Fira Code" font-size="12.00" fill="#242424">flip.js</text>
</g>
<!-- flip.js&#45;&gt;Ⓜ katsu&#45;curry/katsu&#45;curry.js -->
<g id="edge44" class="edge">
<title>flip.js&#45;&gt;Ⓜ katsu&#45;curry/katsu&#45;curry.js</title>
<path fill="none" stroke="#242424" d="M100.7602,-1080.4666C75.072,-955.7378 18.1242,-581.8387 207.2408,-385.8153 372.7388,-214.273 1095.2614,-169.1607 1423.6927,-157.4459"/>
<polygon fill="#242424" stroke="#242424" points="1423.9013,-160.9408 1433.7725,-157.0925 1423.656,-153.9451 1423.9013,-160.9408"/>
</g>
<!-- future.js -->
<g id="node38" class="node">
<title>future.js</title>
<ellipse fill="none" stroke="#242424" stroke-width="4" cx="1743.2408" cy="-1122.129" rx="51.7142" ry="51.7142"/>
<text text-anchor="middle" x="1743.2408" y="-1119.7291" font-family="Fira Code" font-size="12.00" fill="#242424">future.js</text>
</g>
<!-- future.js&#45;&gt;Ⓜ entrust/entrust.js -->
<g id="edge45" class="edge">
<title>future.js&#45;&gt;Ⓜ entrust/entrust.js</title>
<path fill="none" stroke="#242424" d="M1754.7787,-1071.7594C1763.646,-1043.6645 1778.6674,-1010.1017 1803.2408,-988.5871 1895.7085,-907.6296 1955.2524,-957.9401 2068.2408,-909.5871 2099.7858,-896.0876 2132.6601,-878.7833 2162.3884,-861.7697"/>
<polygon fill="#242424" stroke="#242424" points="2164.1847,-864.7741 2171.0958,-856.7437 2160.6853,-858.7115 2164.1847,-864.7741"/>
</g>
<!-- index.js -->
<g id="node39" class="node">
<title>index.js</title>
<ellipse fill="none" stroke="#242424" stroke-width="4" cx="1353.2408" cy="-1707.8974" rx="47.0167" ry="47.0167"/>
<text text-anchor="middle" x="1353.2408" y="-1705.4974" font-family="Fira Code" font-size="12.00" fill="#242424">index.js</text>
</g>
<!-- index.js&#45;&gt;../package.json -->
<g id="edge47" class="edge">
<title>index.js&#45;&gt;../package.json</title>
<path fill="none" stroke="#242424" d="M1306.3426,-1703.5058C1172.0307,-1690.2478 788.8086,-1647.4645 683.2408,-1581.889 664.5461,-1570.2765 648.2902,-1553.432 634.8276,-1535.8952"/>
<polygon fill="#242424" stroke="#242424" points="637.6023,-1533.761 628.8398,-1527.8054 631.9759,-1537.9254 637.6023,-1533.761"/>
</g>
<!-- index.js&#45;&gt;ap.js -->
<g id="edge48" class="edge">
<title>index.js&#45;&gt;ap.js</title>
<path fill="none" stroke="#242424" d="M1311.6991,-1685.2291C1274.7447,-1663.1791 1221.5407,-1626.5237 1188.2408,-1581.889 1170.2427,-1557.7646 1158.3526,-1525.9324 1151.0347,-1500.6132"/>
<polygon fill="#242424" stroke="#242424" points="1154.391,-1499.6178 1148.3586,-1490.908 1147.6428,-1501.4786 1154.391,-1499.6178"/>
</g>
<!-- index.js&#45;&gt;Ⓜ katsu&#45;curry/katsu&#45;curry.js -->
<g id="edge46" class="edge">
<title>index.js&#45;&gt;Ⓜ katsu&#45;curry/katsu&#45;curry.js</title>
<path fill="none" stroke="#242424" d="M1306.1117,-1706.7722C1085.5165,-1701.0463 161.9964,-1671.8112 74.2408,-1581.889 -68.865,-1435.2501 40.2408,-1327.0248 40.2408,-1122.129 40.2408,-1122.129 40.2408,-1122.129 40.2408,-795.911 40.2408,-612.1304 -35.0247,-517.4332 93.2408,-385.8153 185.41,-291.2371 1055.8839,-201.7384 1424.0627,-167.7776"/>
<polygon fill="#242424" stroke="#242424" points="1424.6354,-171.2398 1434.2726,-166.8382 1423.9939,-164.2692 1424.6354,-171.2398"/>
</g>
<!-- index.js&#45;&gt;map.js -->
<g id="edge59" class="edge">
<title>index.js&#45;&gt;map.js</title>
<path fill="none" stroke="#242424" d="M1306.102,-1704.5562C1130.2727,-1691.6543 519.665,-1642.7576 459.2408,-1581.889 420.1935,-1542.5546 433.7293,-1389.5874 426.2408,-1334.671 405.4481,-1182.1894 380.6144,-1138.5337 415.2408,-988.5871 428.1882,-932.5196 459.7815,-873.899 482.7768,-836.2585"/>
<polygon fill="#242424" stroke="#242424" points="485.836,-837.9665 488.1276,-827.6224 479.8855,-834.2797 485.836,-837.9665"/>
</g>
<!-- index.js&#45;&gt;reduce.js -->
<g id="edge69" class="edge">
<title>index.js&#45;&gt;reduce.js</title>
<path fill="none" stroke="#242424" d="M1313.6318,-1681.9698C1283.3329,-1659.5693 1243.8557,-1624.1807 1226.2408,-1581.889 1183.9947,-1480.4607 1159.459,-1421.9214 1226.2408,-1334.671 1307.9555,-1227.9107 1436.526,-1362.4313 1518.2408,-1255.671 1608.4645,-1137.7937 1561.8361,-948.6371 1529.546,-853.908"/>
<polygon fill="#242424" stroke="#242424" points="1532.7659,-852.5108 1526.1784,-844.2129 1526.1535,-854.8077 1532.7659,-852.5108"/>
</g>
<!-- index.js&#45;&gt;types.js -->
<g id="edge74" class="edge">
<title>index.js&#45;&gt;types.js</title>
<path fill="none" stroke="#242424" d="M1306.2591,-1702.8166C1239.5969,-1692.7989 1119.7265,-1663.7859 1066.2408,-1581.889 1006.1609,-1489.8952 1001.9397,-1423.7654 1066.2408,-1334.671 1131.4654,-1244.2968 1222.4726,-1331.4053 1304.2408,-1255.671 1326.3351,-1235.207 1340.0139,-1204.6546 1348.3152,-1177.9358"/>
<polygon fill="#242424" stroke="#242424" points="1351.688,-1178.8717 1351.1359,-1168.2912 1344.9695,-1176.9067 1351.688,-1178.8717"/>
</g>
<!-- index.js&#45;&gt;array.js -->
<g id="edge49" class="edge">
<title>index.js&#45;&gt;array.js</title>
<path fill="none" stroke="#242424" d="M1399.4138,-1696.9874C1454.7685,-1681.3613 1545.9733,-1647.0178 1593.2408,-1581.889 1658.7024,-1491.6911 1555.5953,-1412.6293 1635.2408,-1334.671 1806.6936,-1166.8501 1979.7529,-1402.8247 2169.2408,-1255.671 2193.2914,-1236.9936 2207.1197,-1206.0949 2215.0148,-1178.7211"/>
<polygon fill="#242424" stroke="#242424" points="2218.459,-1179.3895 2217.663,-1168.8247 2211.6969,-1177.58 2218.459,-1179.3895"/>
</g>
<!-- index.js&#45;&gt;filter.js -->
<g id="edge53" class="edge">
<title>index.js&#45;&gt;filter.js</title>
<path fill="none" stroke="#242424" d="M1400.1642,-1704.3806C1573.7611,-1690.9433 2172.7057,-1640.6355 2233.2408,-1581.889 2313.2739,-1504.2207 2200.3631,-1416.4038 2276.2408,-1334.671 2374.149,-1229.2076 2501.7651,-1369.1637 2590.2408,-1255.671 2683.8019,-1135.6548 2603.5561,-942.7402 2554.9112,-849.6237"/>
<polygon fill="#242424" stroke="#242424" points="2557.9373,-847.8592 2550.1643,-840.6598 2551.7511,-851.1351 2557.9373,-847.8592"/>
</g>
<!-- index.js&#45;&gt;chain.js -->
<g id="edge50" class="edge">
<title>index.js&#45;&gt;chain.js</title>
<path fill="none" stroke="#242424" d="M1372.4943,-1664.9866C1391.6864,-1622.2125 1421.1883,-1556.461 1441.7481,-1510.6389"/>
<polygon fill="#242424" stroke="#242424" points="1444.9633,-1512.0227 1445.8637,-1501.4662 1438.5767,-1509.1571 1444.9633,-1512.0227"/>
</g>
<!-- index.js&#45;&gt;choice.js -->
<g id="edge51" class="edge">
<title>index.js&#45;&gt;choice.js</title>
<path fill="none" stroke="#242424" d="M1400.3664,-1704.1536C1590.2113,-1688.7971 2292.9365,-1629.2115 2380.2408,-1581.889 2410.0351,-1565.7393 2434.8743,-1537.2942 2452.7977,-1511.7597"/>
<polygon fill="#242424" stroke="#242424" points="2455.8688,-1513.4683 2458.6082,-1503.2338 2450.0843,-1509.5262 2455.8688,-1513.4683"/>
</g>
<!-- index.js&#45;&gt;invert.js -->
<g id="edge56" class="edge">
<title>index.js&#45;&gt;invert.js</title>
<path fill="none" stroke="#242424" d="M1400.234,-1704.2517C1628.7778,-1686.4159 2615.56,-1608.1513 2675.2408,-1581.889 2713.4333,-1565.0826 2748.2276,-1533.3784 2773.1944,-1506.2874"/>
<polygon fill="#242424" stroke="#242424" points="2775.8652,-1508.5521 2779.9704,-1498.7849 2770.6703,-1503.8603 2775.8652,-1508.5521"/>
</g>
<!-- index.js&#45;&gt;iterate.js -->
<g id="edge57" class="edge">
<title>index.js&#45;&gt;iterate.js</title>
<path fill="none" stroke="#242424" d="M1400.2335,-1704.7016C1578.4619,-1692.1457 2205.8146,-1643.8333 2268.2408,-1581.889 2347.057,-1503.6813 2229.6148,-1416.8866 2304.2408,-1334.671 2402.9886,-1225.8802 2531.5028,-1368.807 2625.2408,-1255.671 2673.399,-1197.5469 2664.1089,-974.9704 2655.9225,-862.2107"/>
<polygon fill="#242424" stroke="#242424" points="2659.3937,-861.6921 2655.1608,-851.9796 2652.413,-862.2119 2659.3937,-861.6921"/>
</g>
<!-- index.js&#45;&gt;math.js -->
<g id="edge60" class="edge">
<title>index.js&#45;&gt;math.js</title>
<path fill="none" stroke="#242424" d="M1305.9898,-1706.283C1099.8808,-1698.7701 286.4465,-1664.0585 211.2408,-1581.889 113.4677,-1475.0626 188.1038,-1005.2339 216.4943,-847.6465"/>
<polygon fill="#242424" stroke="#242424" points="219.9528,-848.1895 218.2951,-837.7252 213.0654,-846.9393 219.9528,-848.1895"/>
</g>
<!-- index.js&#45;&gt;object.js -->
<g id="edge61" class="edge">
<title>index.js&#45;&gt;object.js</title>
<path fill="none" stroke="#242424" d="M1306.1839,-1704.3651C1135.6475,-1691.1079 557.1349,-1641.991 502.2408,-1581.889 450.5455,-1525.2894 461.7086,-1295.5065 470.5657,-1183.7541"/>
<polygon fill="#242424" stroke="#242424" points="474.0659,-1183.8922 471.3865,-1173.6418 467.0889,-1183.3258 474.0659,-1183.8922"/>
</g>
<!-- index.js&#45;&gt;path.js -->
<g id="edge62" class="edge">
<title>index.js&#45;&gt;path.js</title>
<path fill="none" stroke="#242424" d="M1306.0985,-1706.0251C1106.8968,-1697.6396 341.1913,-1660.4586 271.2408,-1581.889 168.5185,-1466.5096 230.7106,-1263.0511 267.265,-1170.4539"/>
<polygon fill="#242424" stroke="#242424" points="270.5633,-1171.6324 271.0411,-1161.0484 264.0673,-1169.0244 270.5633,-1171.6324"/>
</g>
<!-- index.js&#45;&gt;random&#45;floor.js -->
<g id="edge63" class="edge">
<title>index.js&#45;&gt;random&#45;floor.js</title>
<path fill="none" stroke="#242424" d="M1319.2997,-1675.0461C1297.4936,-1651.4596 1271.1052,-1617.6358 1259.2408,-1581.889 1224.6297,-1477.6081 1192.2014,-1421.7236 1259.2408,-1334.671 1343.1045,-1225.7714 1452.8685,-1343.9259 1558.2408,-1255.671 1658.572,-1171.6382 1596.3638,-1087.3444 1682.2408,-988.5871 1742.2798,-919.5432 1832.9513,-865.7624 1898.5068,-832.7726"/>
<polygon fill="#242424" stroke="#242424" points="1900.1904,-835.8442 1907.5844,-828.2561 1897.0722,-829.5771 1900.1904,-835.8442"/>
</g>
<!-- index.js&#45;&gt;random&#45;shuffle.js -->
<g id="edge64" class="edge">
<title>index.js&#45;&gt;random&#45;shuffle.js</title>
<path fill="none" stroke="#242424" d="M1398.3347,-1694.4447C1456.1152,-1675.7058 1557.4858,-1637.6475 1630.2408,-1581.889 1646.372,-1569.5263 1661.6022,-1554.1546 1675.1321,-1538.4977"/>
<polygon fill="#242424" stroke="#242424" points="1677.8547,-1540.6985 1681.634,-1530.8006 1672.5072,-1536.1814 1677.8547,-1540.6985"/>
</g>
<!-- index.js&#45;&gt;random&#45;take.js -->
<g id="edge65" class="edge">
<title>index.js&#45;&gt;random&#45;take.js</title>
<path fill="none" stroke="#242424" d="M1397.7445,-1692.7012C1444.8939,-1674.1874 1517.7334,-1638.2211 1556.2408,-1581.889 1619.3105,-1489.6251 1525.4538,-1415.8755 1602.2408,-1334.671 1703.7804,-1227.2899 1793.3244,-1322.2971 1925.2408,-1255.671 1962.003,-1237.1037 1997.7062,-1208.646 2026.024,-1182.7641"/>
<polygon fill="#242424" stroke="#242424" points="2028.479,-1185.2608 2033.4341,-1175.8961 2023.7206,-1180.1268 2028.479,-1185.2608"/>
</g>
<!-- index.js&#45;&gt;random&#45;word.js -->
<g id="edge66" class="edge">
<title>index.js&#45;&gt;random&#45;word.js</title>
<path fill="none" stroke="#242424" d="M1400.238,-1703.6303C1503.312,-1693.0761 1755.6374,-1660.6701 1951.2408,-1581.889 1997.0022,-1563.4582 2044.017,-1534.6032 2080.7443,-1509.4065"/>
<polygon fill="#242424" stroke="#242424" points="2083.1491,-1511.9982 2089.3732,-1503.4243 2079.1609,-1506.2454 2083.1491,-1511.9982"/>
</g>
<!-- index.js&#45;&gt;random.js -->
<g id="edge67" class="edge">
<title>index.js&#45;&gt;random.js</title>
<path fill="none" stroke="#242424" d="M1399.7112,-1700.6101C1505.9538,-1683.1736 1762.5742,-1636.4176 1829.2408,-1581.889 1849.3473,-1565.4433 1863.3699,-1540.7214 1872.853,-1517.6981"/>
<polygon fill="#242424" stroke="#242424" points="1876.1438,-1518.8929 1876.5182,-1508.3047 1869.6226,-1516.3483 1876.1438,-1518.8929"/>
</g>
<!-- index.js&#45;&gt;range.js -->
<g id="edge68" class="edge">
<title>index.js&#45;&gt;range.js</title>
<path fill="none" stroke="#242424" d="M1346.1379,-1661.2391C1339.8402,-1619.8707 1330.6247,-1559.3351 1323.8975,-1515.1449"/>
<polygon fill="#242424" stroke="#242424" points="1327.3385,-1514.492 1322.3733,-1505.1327 1320.4183,-1515.5456 1327.3385,-1514.492"/>
</g>
<!-- index.js&#45;&gt;reject.js -->
<g id="edge70" class="edge">
<title>index.js&#45;&gt;reject.js</title>
<path fill="none" stroke="#242424" d="M1400.4594,-1704.8271C1587.3418,-1692.2829 2268.6376,-1642.6922 2342.2408,-1581.889 2431.3807,-1508.2512 2337.257,-1411.9706 2423.2408,-1334.671 2548.2884,-1222.2528 2656.4558,-1353.4698 2793.2408,-1255.671 2819.2985,-1237.0402 2838.376,-1207.0351 2851.3512,-1180.1819"/>
<polygon fill="#242424" stroke="#242424" points="2854.6523,-1181.3829 2855.6876,-1170.8388 2848.3029,-1178.4359 2854.6523,-1181.3829"/>
</g>
<!-- index.js&#45;&gt;string.js -->
<g id="edge71" class="edge">
<title>index.js&#45;&gt;string.js</title>
<path fill="none" stroke="#242424" d="M1400.4144,-1704.8482C1583.1475,-1692.6114 2237.5541,-1644.6873 2304.2408,-1581.889 2385.7248,-1505.1562 2275.2908,-1415.9498 2352.2408,-1334.671 2451.1759,-1230.1703 2554.2656,-1346.0595 2666.2408,-1255.671 2689.4501,-1236.9359 2705.143,-1207.9762 2715.3812,-1181.8077"/>
<polygon fill="#242424" stroke="#242424" points="2718.7054,-1182.91 2718.9101,-1172.3171 2712.1443,-1180.4702 2718.7054,-1182.91"/>
</g>
<!-- index.js&#45;&gt;ternary.js -->
<g id="edge72" class="edge">
<title>index.js&#45;&gt;ternary.js</title>
<path fill="none" stroke="#242424" d="M1400.3868,-1704.1611C1615.6631,-1686.9429 2496.885,-1614.6879 2545.2408,-1581.889 2566.2275,-1567.6541 2580.9154,-1544.4183 2590.9482,-1521.9123"/>
<polygon fill="#242424" stroke="#242424" points="2594.1819,-1523.2516 2594.8343,-1512.6768 2587.7298,-1520.5366 2594.1819,-1523.2516"/>
</g>
<!-- index.js&#45;&gt;triplet.js -->
<g id="edge73" class="edge">
<title>index.js&#45;&gt;triplet.js</title>
<path fill="none" stroke="#242424" d="M1306.1358,-1703.107C1186.115,-1690.0094 872.9591,-1649.9648 797.2408,-1581.889 737.6499,-1528.3129 680.0253,-1300.9746 654.2784,-1187.3396"/>
<polygon fill="#242424" stroke="#242424" points="657.6449,-1186.3571 652.0351,-1177.3693 650.8157,-1187.8937 657.6449,-1186.3571"/>
</g>
<!-- index.js&#45;&gt;either.js -->
<g id="edge52" class="edge">
<title>index.js&#45;&gt;either.js</title>
<path fill="none" stroke="#242424" d="M1395.7648,-1687.836C1434.923,-1667.0318 1491.3345,-1630.6962 1521.2408,-1581.889 1579.5082,-1486.7965 1491.3337,-1419.0643 1564.2408,-1334.671 1637.6529,-1249.6931 1720.8048,-1330.8308 1804.2408,-1255.671 1825.6749,-1236.3629 1839.897,-1207.9257 1849.0889,-1182.2496"/>
<polygon fill="#242424" stroke="#242424" points="1852.4748,-1183.1633 1852.3701,-1172.569 1845.8452,-1180.9162 1852.4748,-1183.1633"/>
</g>
<!-- index.js&#45;&gt;flip.js -->
<g id="edge54" class="edge">
<title>index.js&#45;&gt;flip.js</title>
<path fill="none" stroke="#242424" d="M1306.0742,-1706.3766C1094.5183,-1699.1035 239.8346,-1664.7391 157.2408,-1581.889 48.3395,-1472.65 76.4937,-1268.2029 97.2711,-1173.1462"/>
<polygon fill="#242424" stroke="#242424" points="100.7282,-1173.7251 99.506,-1163.201 93.8985,-1172.1903 100.7282,-1173.7251"/>
</g>
<!-- index.js&#45;&gt;future.js -->
<g id="edge55" class="edge">
<title>index.js&#45;&gt;future.js</title>
<path fill="none" stroke="#242424" d="M1359.9352,-1661.085C1374.2103,-1561.5663 1406.5647,-1337.7436 1409.2408,-1334.671 1490.7981,-1241.0299 1582.2014,-1335.5945 1677.2408,-1255.671 1700.0691,-1236.4735 1715.7242,-1207.468 1726.036,-1181.3889"/>
<polygon fill="#242424" stroke="#242424" points="1729.3467,-1182.5286 1729.5967,-1171.9367 1722.7961,-1180.0609 1729.3467,-1182.5286"/>
</g>
<!-- length.js -->
<g id="node40" class="node">
<title>length.js</title>
<ellipse fill="none" stroke="#242424" stroke-width="4" cx="365.2408" cy="-1458.28" rx="51.7142" ry="51.7142"/>
<text text-anchor="middle" x="365.2408" y="-1455.88" font-family="Fira Code" font-size="12.00" fill="#242424">length.js</text>
</g>
<!-- index.js&#45;&gt;length.js -->
<g id="edge58" class="edge">
<title>index.js&#45;&gt;length.js</title>
<path fill="none" stroke="#242424" d="M1306.1616,-1707.0015C1138.8482,-1702.9894 575.2734,-1682.1486 431.2408,-1581.889 409.0313,-1566.4293 393.6616,-1541.0672 383.3809,-1517.3268"/>
<polygon fill="#242424" stroke="#242424" points="386.5831,-1515.9106 379.5517,-1507.9853 380.1061,-1518.5657 386.5831,-1515.9106"/>
</g>
<!-- which.js -->
<g id="node41" class="node">
<title>which.js</title>
<ellipse fill="none" stroke="#242424" stroke-width="4" cx="886.2408" cy="-1458.28" rx="47.0167" ry="47.0167"/>
<text text-anchor="middle" x="886.2408" y="-1455.88" font-family="Fira Code" font-size="12.00" fill="#242424">which.js</text>
</g>
<!-- index.js&#45;&gt;which.js -->
<g id="edge75" class="edge">
<title>index.js&#45;&gt;which.js</title>
<path fill="none" stroke="#242424" d="M1306.0419,-1704.7591C1224.564,-1697.0424 1056.1016,-1670.7008 950.2408,-1581.889 928.8303,-1563.9268 913.7032,-1536.9674 903.5518,-1512.8055"/>
<polygon fill="#242424" stroke="#242424" points="906.7357,-1511.3414 899.7692,-1503.359 900.2374,-1513.9435 906.7357,-1511.3414"/>
</g>
<!-- length.js&#45;&gt;Ⓜ katsu&#45;curry/katsu&#45;curry.js -->
<g id="edge78" class="edge">
<title>length.js&#45;&gt;Ⓜ katsu&#45;curry/katsu&#45;curry.js</title>
<path fill="none" stroke="#242424" d="M363.7893,-1406.627C358.5575,-1203.0829 344.3327,-463.7723 411.2408,-385.8153 540.7156,-234.9596 1131.8924,-179.8295 1423.5468,-161.5654"/>
<polygon fill="#242424" stroke="#242424" points="1424.0296,-165.0423 1433.7943,-160.9311 1423.5971,-158.0557 1424.0296,-165.0423"/>
</g>
<!-- length.js&#45;&gt;object.js -->
<g id="edge79" class="edge">
<title>length.js&#45;&gt;object.js</title>
<path fill="none" stroke="#242424" d="M381.5,-1409.0408C401.5184,-1348.4175 435.4816,-1245.5638 456.842,-1180.8761"/>
<polygon fill="#242424" stroke="#242424" points="460.2163,-1181.8197 460.0284,-1171.2265 453.5693,-1179.6247 460.2163,-1181.8197"/>
</g>
<!-- length.js&#45;&gt;path.js -->
<g id="edge80" class="edge">
<title>length.js&#45;&gt;path.js</title>
<path fill="none" stroke="#242424" d="M353.7131,-1407.9548C339.2373,-1344.7592 314.5378,-1236.9312 299.9685,-1173.3276"/>
<polygon fill="#242424" stroke="#242424" points="303.3649,-1172.4789 297.7203,-1163.5129 296.5416,-1174.042 303.3649,-1172.4789"/>
</g>
<!-- which.js&#45;&gt;Ⓜ katsu&#45;curry/katsu&#45;curry.js -->
<g id="edge114" class="edge">
<title>which.js&#45;&gt;Ⓜ katsu&#45;curry/katsu&#45;curry.js</title>
<path fill="none" stroke="#242424" d="M867.8038,-1414.9102C856.3787,-1390.2972 840.4324,-1359.5387 822.2408,-1334.671 792.9238,-1294.5949 762.2428,-1301.5458 743.2408,-1255.671 697.8148,-1146.0028 697.5269,-1098.1356 743.2408,-988.5871 886.4617,-645.3738 1246.9786,-371.1229 1447.397,-239.0867"/>
<polygon fill="#242424" stroke="#242424" points="1449.4925,-241.898 1455.933,-233.4854 1445.6521,-236.0455 1449.4925,-241.898"/>
</g>
<!-- which.js&#45;&gt;Ⓜ fast.js/array/every.js -->
<g id="edge112" class="edge">
<title>which.js&#45;&gt;Ⓜ fast.js/array/every.js</title>
<path fill="none" stroke="#242424" d="M886.2408,-1411.1857C886.2408,-1373.3314 886.2408,-1318.06 886.2408,-1265.9625"/>
<polygon fill="#242424" stroke="#242424" points="889.7409,-1265.9346 886.2408,-1255.9346 882.7409,-1265.9347 889.7409,-1265.9346"/>
</g>
<!-- which.js&#45;&gt;Ⓜ fast.js/array/some.js -->
<g id="edge113" class="edge">
<title>which.js&#45;&gt;Ⓜ fast.js/array/some.js</title>
<path fill="none" stroke="#242424" d="M916.4717,-1421.9866C954.6557,-1376.1452 1022.0347,-1295.2541 1077.194,-1229.0332"/>
<polygon fill="#242424" stroke="#242424" points="1080.1464,-1230.9573 1083.8574,-1221.0336 1074.7679,-1226.4772 1080.1464,-1230.9573"/>
</g>
<!-- which.js&#45;&gt;triplet.js -->
<g id="edge116" class="edge">
<title>which.js&#45;&gt;triplet.js</title>
<path fill="none" stroke="#242424" d="M870.7793,-1413.8429C860.5421,-1388.7298 845.2921,-1357.8275 825.2408,-1334.671 784.6496,-1287.7935 751.4003,-1302.0502 710.2408,-1255.671 691.5987,-1234.6647 676.2869,-1207.809 664.7886,-1183.6969"/>
<polygon fill="#242424" stroke="#242424" points="667.9547,-1182.2047 660.5695,-1174.608 661.6054,-1185.1521 667.9547,-1182.2047"/>
</g>
<!-- which.js&#45;&gt;flip.js -->
<g id="edge115" class="edge">
<title>which.js&#45;&gt;flip.js</title>
<path fill="none" stroke="#242424" d="M848.4959,-1430.1336C808.3631,-1401.622 742.007,-1358.4349 678.2408,-1334.671 491.6565,-1265.1361 412.566,-1350.063 237.2408,-1255.671 197.5853,-1234.3212 163.1415,-1196.0737 140.1678,-1165.9666"/>
<polygon fill="#242424" stroke="#242424" points="142.7879,-1163.6258 133.9974,-1157.7116 137.181,-1167.8168 142.7879,-1163.6258"/>
</g>
<!-- map&#45;performance.fixture.js -->
<g id="node42" class="node">
<title>map&#45;performance.fixture.js</title>
<ellipse fill="none" stroke="#242424" stroke-width="4" cx="3655.2408" cy="-1122.129" rx="129.5987" ry="129.5987"/>
<text text-anchor="middle" x="3655.2408" y="-1119.7291" font-family="Fira Code" font-size="12.00" fill="#242424">map&#45;performance.fixture.js</text>
</g>
<!-- map&#45;performance.fixture.js&#45;&gt;Ⓜ entrust/entrust.js -->
<g id="edge81" class="edge">
<title>map&#45;performance.fixture.js&#45;&gt;Ⓜ entrust/entrust.js</title>
<path fill="none" stroke="#242424" d="M3527.7234,-1097.8348C3383.7258,-1070.5582 3142.3479,-1025.3097 2934.2408,-988.5871 2725.2127,-951.7021 2662.9282,-981.5467 2463.2408,-909.5871 2431.7153,-898.2266 2399.4675,-881.8392 2370.4689,-865.0285"/>
<polygon fill="#242424" stroke="#242424" points="2371.9728,-861.8527 2361.5781,-859.8029 2368.4258,-867.8875 2371.9728,-861.8527"/>
</g>
<!-- Ⓜ fast.js/index.js -->
<g id="node43" class="node">
<title>Ⓜ fast.js/index.js</title>
<ellipse fill="none" stroke="#0c821d" stroke-width="4" cx="3357.2408" cy="-795.911" rx="103.9872" ry="103.9872"/>
<text text-anchor="middle" x="3357.2408" y="-794.711" font-family="Fira Code" font-size="12.00" fill="#0c821d">Ⓜ fast.js/index.js</text>
</g>
<!-- map&#45;performance.fixture.js&#45;&gt;Ⓜ fast.js/index.js -->
<g id="edge82" class="edge">
<title>map&#45;performance.fixture.js&#45;&gt;Ⓜ fast.js/index.js</title>
<path fill="none" stroke="#242424" d="M3567.4427,-1026.0173C3525.2458,-979.8247 3475.1225,-924.9551 3434.4067,-880.3839"/>
<polygon fill="#242424" stroke="#242424" points="3436.7668,-877.778 3427.4381,-872.7554 3431.5986,-882.4992 3436.7668,-877.778"/>
</g>
<!-- Ⓜ ramda/src/curry.js -->
<g id="node44" class="node">
<title>Ⓜ ramda/src/curry.js</title>
<ellipse fill="none" stroke="#0c821d" stroke-width="4" cx="3592.2408" cy="-795.911" rx="113.8526" ry="113.8526"/>
<text text-anchor="middle" x="3592.2408" y="-794.711" font-family="Fira Code" font-size="12.00" fill="#0c821d">Ⓜ ramda/src/curry.js</text>
</g>
<!-- map&#45;performance.fixture.js&#45;&gt;Ⓜ ramda/src/curry.js -->
<g id="edge83" class="edge">
<title>map&#45;performance.fixture.js&#45;&gt;Ⓜ ramda/src/curry.js</title>
<path fill="none" stroke="#242424" d="M3630.6127,-994.6031C3625.7227,-969.2827 3620.6006,-942.7598 3615.7492,-917.639"/>
<polygon fill="#242424" stroke="#242424" points="3619.1655,-916.8703 3613.8327,-907.7154 3612.2925,-918.1977 3619.1655,-916.8703"/>
</g>
<!-- Ⓜ ramda/src/map.js -->
<g id="node45" class="node">
<title>Ⓜ ramda/src/map.js</title>
<ellipse fill="none" stroke="#0c821d" stroke-width="4" cx="3827.2408" cy="-795.911" rx="103.5038" ry="103.5038"/>
<text text-anchor="middle" x="3827.2408" y="-794.711" font-family="Fira Code" font-size="12.00" fill="#0c821d">Ⓜ ramda/src/map.js</text>
</g>
<!-- map&#45;performance.fixture.js&#45;&gt;Ⓜ ramda/src/map.js -->
<g id="edge84" class="edge">
<title>map&#45;performance.fixture.js&#45;&gt;Ⓜ ramda/src/map.js</title>
<path fill="none" stroke="#242424" d="M3715.8816,-1007.1168C3734.7927,-971.2497 3755.5004,-931.9749 3773.8746,-897.1261"/>
<polygon fill="#242424" stroke="#242424" points="3777.1736,-898.3735 3778.7416,-887.8953 3770.9816,-895.1086 3777.1736,-898.3735"/>
</g>
<!-- Ⓜ testperf/index.js -->
<g id="node46" class="node">
<title>Ⓜ testperf/index.js</title>
<ellipse fill="none" stroke="#0c821d" stroke-width="4" cx="4057.2408" cy="-795.911" rx="108.9365" ry="108.9365"/>
<text text-anchor="middle" x="4057.2408" y="-794.711" font-family="Fira Code" font-size="12.00" fill="#0c821d">Ⓜ testperf/index.js</text>
</g>
<!-- map&#45;performance.fixture.js&#45;&gt;Ⓜ testperf/index.js -->
<g id="edge85" class="edge">
<title>map&#45;performance.fixture.js&#45;&gt;Ⓜ testperf/index.js</title>
<path fill="none" stroke="#242424" d="M3761.6615,-1047.8131C3816.3481,-1008.3755 3883.2851,-958.1362 3940.2408,-909.5871 3951.0983,-900.3322 3962.2132,-890.3178 3973.0638,-880.2014"/>
<polygon fill="#242424" stroke="#242424" points="3975.6356,-882.5875 3980.527,-873.1894 3970.8425,-877.4859 3975.6356,-882.5875"/>
</g>
</g>
</svg>
