<?xml version="1.0" encoding="UTF-8" standalone="no"?>
<!DOCTYPE svg PUBLIC "-//W3C//DTD SVG 1.1//EN"
 "http://www.w3.org/Graphics/SVG/1.1/DTD/svg11.dtd">
<!-- Generated by graphviz version 2.40.1 (20161225.0304)
 -->
<!-- Title: G Pages: 1 -->
<svg width="4053pt" height="1771pt"
 viewBox="0.00 0.00 4052.76 1770.89" xmlns="http://www.w3.org/2000/svg" xmlns:xlink="http://www.w3.org/1999/xlink">
<g id="graph0" class="graph" transform="scale(1 1) rotate(0) translate(7.992 1762.8977)">
<title>G</title>
<polygon fill="#eeeeff" stroke="transparent" points="-7.992,7.992 -7.992,-1762.8977 4044.7659,-1762.8977 4044.7659,7.992 -7.992,7.992"/>
<!-- ../package.json -->
<g id="node1" class="node">
<title>../package.json</title>
<ellipse fill="none" stroke="#0c821d" stroke-width="4" cx="156.0559" cy="-1458.28" rx="79.4289" ry="79.4289"/>
<text text-anchor="middle" x="156.0559" y="-1455.88" font-family="Fira Code" font-size="12.00" fill="#0c821d">../package.json</text>
</g>
<!-- ap.js -->
<g id="node2" class="node">
<title>ap.js</title>
<ellipse fill="none" stroke="#242424" stroke-width="4" cx="2391.0559" cy="-1458.28" rx="33.4416" ry="33.4416"/>
<text text-anchor="middle" x="2391.0559" y="-1455.88" font-family="Fira Code" font-size="12.00" fill="#242424">ap.js</text>
</g>
<!-- Ⓜ katsu&#45;curry/katsu&#45;curry.js -->
<g id="node3" class="node">
<title>Ⓜ katsu&#45;curry/katsu&#45;curry.js</title>
<ellipse fill="none" stroke="#0c821d" stroke-width="4" cx="1508.0559" cy="-153.4077" rx="153.3154" ry="153.3154"/>
<text text-anchor="middle" x="1508.0559" y="-152.2077" font-family="Fira Code" font-size="12.00" fill="#0c821d">Ⓜ katsu&#45;curry/katsu&#45;curry.js</text>
</g>
<!-- ap.js&#45;&gt;Ⓜ katsu&#45;curry/katsu&#45;curry.js -->
<g id="edge1" class="edge">
<title>ap.js&#45;&gt;Ⓜ katsu&#45;curry/katsu&#45;curry.js</title>
<path fill="none" stroke="#242424" d="M2417.7313,-1438.1588C2454.0043,-1411.5473 2521.6497,-1364.5375 2585.0559,-1334.671 2688.1756,-1286.0981 2757.5768,-1344.4613 2829.0559,-1255.671 2889.6658,-1180.3823 2889.1031,-455.433 2822.0559,-385.8153 2665.7125,-223.4777 1987.9483,-173.6529 1671.7001,-159.089"/>
<polygon fill="#242424" stroke="#242424" points="1671.6754,-155.5843 1661.5269,-158.6269 1671.3577,-162.5771 1671.6754,-155.5843"/>
</g>
<!-- map.js -->
<g id="node4" class="node">
<title>map.js</title>
<ellipse fill="none" stroke="#242424" stroke-width="4" cx="582.0559" cy="-795.911" rx="37.6383" ry="37.6383"/>
<text text-anchor="middle" x="582.0559" y="-793.511" font-family="Fira Code" font-size="12.00" fill="#242424">map.js</text>
</g>
<!-- ap.js&#45;&gt;map.js -->
<g id="edge2" class="edge">
<title>ap.js&#45;&gt;map.js</title>
<path fill="none" stroke="#242424" d="M2386.3461,-1425.2031C2380.5654,-1397.0029 2367.9747,-1357.5103 2341.0559,-1334.671 2218.7962,-1230.9395 2096.7509,-1374.4541 1989.0559,-1255.671 1908.7182,-1167.0618 2040.8361,-1072.9557 1956.0559,-988.5871 1850.4143,-883.4584 1437.6636,-930.1827 1290.0559,-909.5871 1040.7651,-874.8039 743.6169,-824.0552 629.709,-804.2571"/>
<polygon fill="#242424" stroke="#242424" points="630.0357,-800.7614 619.5836,-802.4948 628.8353,-807.6577 630.0357,-800.7614"/>
</g>
<!-- reduce.js -->
<g id="node5" class="node">
<title>reduce.js</title>
<ellipse fill="none" stroke="#242424" stroke-width="4" cx="1351.0559" cy="-795.911" rx="51.7142" ry="51.7142"/>
<text text-anchor="middle" x="1351.0559" y="-793.511" font-family="Fira Code" font-size="12.00" fill="#242424">reduce.js</text>
</g>
<!-- ap.js&#45;&gt;reduce.js -->
<g id="edge3" class="edge">
<title>ap.js&#45;&gt;reduce.js</title>
<path fill="none" stroke="#242424" d="M2386.1568,-1425.4224C2380.2533,-1397.3645 2367.5887,-1357.9575 2341.0559,-1334.671 2236.1352,-1242.5871 2131.924,-1358.0811 2037.0559,-1255.671 1955.095,-1167.1941 2069.2739,-1078.6471 1989.0559,-988.5871 1910.9891,-900.9423 1555.9554,-831.2026 1411.98,-806.0346"/>
<polygon fill="#242424" stroke="#242424" points="1412.4365,-802.5616 1401.9852,-804.2999 1411.2394,-809.4585 1412.4365,-802.5616"/>
</g>
<!-- types.js -->
<g id="node6" class="node">
<title>types.js</title>
<ellipse fill="none" stroke="#242424" stroke-width="4" cx="2999.0559" cy="-1122.129" rx="47.032" ry="47.032"/>
<text text-anchor="middle" x="2999.0559" y="-1119.7291" font-family="Fira Code" font-size="12.00" fill="#242424">types.js</text>
</g>
<!-- ap.js&#45;&gt;types.js -->
<g id="edge4" class="edge">
<title>ap.js&#45;&gt;types.js</title>
<path fill="none" stroke="#242424" d="M2417.5779,-1437.8255C2453.679,-1410.8406 2521.1325,-1363.4138 2585.0559,-1334.671 2701.8156,-1282.1704 2751.2912,-1319.8606 2862.0559,-1255.671 2901.4948,-1232.8156 2938.0202,-1196.0874 2963.4218,-1166.9284"/>
<polygon fill="#242424" stroke="#242424" points="2966.1045,-1169.1767 2969.9592,-1159.308 2960.7916,-1164.6189 2966.1045,-1169.1767"/>
</g>
<!-- map.js&#45;&gt;Ⓜ katsu&#45;curry/katsu&#45;curry.js -->
<g id="edge86" class="edge">
<title>map.js&#45;&gt;Ⓜ katsu&#45;curry/katsu&#45;curry.js</title>
<path fill="none" stroke="#242424" d="M574.5159,-758.7755C557.1777,-668.919 519.2733,-442.9604 564.0559,-385.8153 659.3612,-264.2006 1101.1899,-197.6659 1345.1383,-169.631"/>
<polygon fill="#242424" stroke="#242424" points="1345.6282,-173.0979 1355.1672,-168.4874 1344.835,-166.143 1345.6282,-173.0979"/>
</g>
<!-- Ⓜ fast.js/map.js -->
<g id="node47" class="node">
<title>Ⓜ fast.js/map.js</title>
<ellipse fill="none" stroke="#0c821d" stroke-width="4" cx="667.0559" cy="-494.525" rx="93.6378" ry="93.6378"/>
<text text-anchor="middle" x="667.0559" y="-493.3251" font-family="Fira Code" font-size="12.00" fill="#0c821d">Ⓜ fast.js/map.js</text>
</g>
<!-- map.js&#45;&gt;Ⓜ fast.js/map.js -->
<g id="edge85" class="edge">
<title>map.js&#45;&gt;Ⓜ fast.js/map.js</title>
<path fill="none" stroke="#242424" d="M592.3936,-759.2564C603.8533,-718.6234 622.8263,-651.3508 638.7779,-594.791"/>
<polygon fill="#242424" stroke="#242424" points="642.1681,-595.6642 641.514,-585.0896 635.4309,-593.7641 642.1681,-595.6642"/>
</g>
<!-- delegate&#45;fast.js -->
<g id="node12" class="node">
<title>delegate&#45;fast.js</title>
<ellipse fill="none" stroke="#242424" stroke-width="4" cx="1697.0559" cy="-494.525" rx="83.5954" ry="83.5954"/>
<text text-anchor="middle" x="1697.0559" y="-492.1251" font-family="Fira Code" font-size="12.00" fill="#242424">delegate&#45;fast.js</text>
</g>
<!-- reduce.js&#45;&gt;delegate&#45;fast.js -->
<g id="edge103" class="edge">
<title>reduce.js&#45;&gt;delegate&#45;fast.js</title>
<path fill="none" stroke="#242424" d="M1390.0739,-761.924C1447.1984,-712.1654 1554.5404,-618.6642 1625.93,-556.4798"/>
<polygon fill="#242424" stroke="#242424" points="1628.3447,-559.0181 1633.5863,-549.8107 1623.7469,-553.7398 1628.3447,-559.0181"/>
</g>
<!-- Ⓜ fast.js/reduce.js -->
<g id="node19" class="node">
<title>Ⓜ fast.js/reduce.js</title>
<ellipse fill="none" stroke="#0c821d" stroke-width="4" cx="2204.0559" cy="-494.525" rx="108.9199" ry="108.9199"/>
<text text-anchor="middle" x="2204.0559" y="-493.3251" font-family="Fira Code" font-size="12.00" fill="#0c821d">Ⓜ fast.js/reduce.js</text>
</g>
<!-- reduce.js&#45;&gt;Ⓜ fast.js/reduce.js -->
<g id="edge102" class="edge">
<title>reduce.js&#45;&gt;Ⓜ fast.js/reduce.js</title>
<path fill="none" stroke="#242424" d="M1399.9806,-778.6247C1532.9871,-731.6302 1903.7787,-600.6204 2091.7475,-534.2064"/>
<polygon fill="#242424" stroke="#242424" points="2093.1214,-537.4331 2101.3841,-530.8015 2090.7893,-530.8329 2093.1214,-537.4331"/>
</g>
<!-- types.js&#45;&gt;Ⓜ katsu&#45;curry/katsu&#45;curry.js -->
<g id="edge110" class="edge">
<title>types.js&#45;&gt;Ⓜ katsu&#45;curry/katsu&#45;curry.js</title>
<path fill="none" stroke="#242424" d="M3012.0448,-1076.6919C3045.5359,-948.8645 3120.0401,-582.6684 2938.0559,-385.8153 2852.6794,-293.4631 2027.782,-203.5506 1671.0677,-168.6411"/>
<polygon fill="#242424" stroke="#242424" points="1671.2041,-165.1378 1660.9113,-167.6496 1670.5239,-172.1047 1671.2041,-165.1378"/>
</g>
<!-- array.js -->
<g id="node7" class="node">
<title>array.js</title>
<ellipse fill="none" stroke="#242424" stroke-width="4" cx="2773.0559" cy="-1122.129" rx="47.0167" ry="47.0167"/>
<text text-anchor="middle" x="2773.0559" y="-1119.7291" font-family="Fira Code" font-size="12.00" fill="#242424">array.js</text>
</g>
<!-- array.js&#45;&gt;Ⓜ katsu&#45;curry/katsu&#45;curry.js -->
<g id="edge6" class="edge">
<title>array.js&#45;&gt;Ⓜ katsu&#45;curry/katsu&#45;curry.js</title>
<path fill="none" stroke="#242424" d="M2789.7278,-1077.8741C2834.125,-951.6043 2940.161,-585.8554 2762.0559,-385.8153 2619.8408,-226.0853 1978.1822,-175.0816 1671.8359,-159.6684"/>
<polygon fill="#242424" stroke="#242424" points="1671.6897,-156.1569 1661.5284,-159.1569 1671.3426,-163.1483 1671.6897,-156.1569"/>
</g>
<!-- Ⓜ entrust/entrust.js -->
<g id="node8" class="node">
<title>Ⓜ entrust/entrust.js</title>
<ellipse fill="none" stroke="#0c821d" stroke-width="4" cx="2659.0559" cy="-795.911" rx="113.8526" ry="113.8526"/>
<text text-anchor="middle" x="2659.0559" y="-794.711" font-family="Fira Code" font-size="12.00" fill="#0c821d">Ⓜ entrust/entrust.js</text>
</g>
<!-- array.js&#45;&gt;Ⓜ entrust/entrust.js -->
<g id="edge5" class="edge">
<title>array.js&#45;&gt;Ⓜ entrust/entrust.js</title>
<path fill="none" stroke="#242424" d="M2757.4437,-1077.4538C2742.685,-1035.2207 2719.8944,-970.004 2699.9632,-912.9697"/>
<polygon fill="#242424" stroke="#242424" points="2703.2661,-911.8114 2696.663,-903.5259 2696.6579,-914.1207 2703.2661,-911.8114"/>
</g>
<!-- filter.js -->
<g id="node9" class="node">
<title>filter.js</title>
<ellipse fill="none" stroke="#242424" stroke-width="4" cx="2249.0559" cy="-795.911" rx="51.7142" ry="51.7142"/>
<text text-anchor="middle" x="2249.0559" y="-793.511" font-family="Fira Code" font-size="12.00" fill="#242424">filter.js</text>
</g>
<!-- array.js&#45;&gt;filter.js -->
<g id="edge7" class="edge">
<title>array.js&#45;&gt;filter.js</title>
<path fill="none" stroke="#242424" d="M2764.8938,-1075.733C2757.36,-1046.5547 2743.2034,-1010.4216 2717.0559,-988.5871 2592.3216,-884.4273 2502.0757,-988.5698 2360.0559,-909.5871 2331.5915,-893.757 2305.7704,-868.3459 2286.2099,-845.5599"/>
<polygon fill="#242424" stroke="#242424" points="2288.6662,-843.0421 2279.5581,-837.6298 2283.3031,-847.5407 2288.6662,-843.0421"/>
</g>
<!-- filter.js&#45;&gt;delegate&#45;fast.js -->
<g id="edge43" class="edge">
<title>filter.js&#45;&gt;delegate&#45;fast.js</title>
<path fill="none" stroke="#242424" d="M2231.2578,-747.3687C2220.9776,-725.0038 2206.0643,-699.6292 2186.0559,-682.2348 2070.8739,-582.1006 1896.5371,-532.5822 1790.1182,-510.3512"/>
<polygon fill="#242424" stroke="#242424" points="1790.5351,-506.8639 1780.0359,-508.2842 1789.1292,-513.7213 1790.5351,-506.8639"/>
</g>
<!-- Ⓜ fast.js/filter.js -->
<g id="node18" class="node">
<title>Ⓜ fast.js/filter.js</title>
<ellipse fill="none" stroke="#0c821d" stroke-width="4" cx="2644.0559" cy="-494.525" rx="108.9199" ry="108.9199"/>
<text text-anchor="middle" x="2644.0559" y="-493.3251" font-family="Fira Code" font-size="12.00" fill="#0c821d">Ⓜ fast.js/filter.js</text>
</g>
<!-- filter.js&#45;&gt;Ⓜ fast.js/filter.js -->
<g id="edge42" class="edge">
<title>filter.js&#45;&gt;Ⓜ fast.js/filter.js</title>
<path fill="none" stroke="#242424" d="M2283.1676,-757.0066C2304.2233,-734.0358 2332.4154,-705.0787 2360.0559,-682.2348 2416.813,-635.327 2485.5892,-589.6187 2541.2439,-555.052"/>
<polygon fill="#242424" stroke="#242424" points="2543.3947,-557.8372 2550.0597,-549.6014 2539.7135,-551.8833 2543.3947,-557.8372"/>
</g>
<!-- chain.js -->
<g id="node10" class="node">
<title>chain.js</title>
<ellipse fill="none" stroke="#242424" stroke-width="4" cx="1393.0559" cy="-1458.28" rx="47.0167" ry="47.0167"/>
<text text-anchor="middle" x="1393.0559" y="-1455.88" font-family="Fira Code" font-size="12.00" fill="#242424">chain.js</text>
</g>
<!-- Ⓜ flatmap&#45;fast/index.js -->
<g id="node11" class="node">
<title>Ⓜ flatmap&#45;fast/index.js</title>
<ellipse fill="none" stroke="#0c821d" stroke-width="4" cx="1818.0559" cy="-1122.129" rx="128.6676" ry="128.6676"/>
<text text-anchor="middle" x="1818.0559" y="-1120.9291" font-family="Fira Code" font-size="12.00" fill="#0c821d">Ⓜ flatmap&#45;fast/index.js</text>
</g>
<!-- chain.js&#45;&gt;Ⓜ flatmap&#45;fast/index.js -->
<g id="edge8" class="edge">
<title>chain.js&#45;&gt;Ⓜ flatmap&#45;fast/index.js</title>
<path fill="none" stroke="#242424" d="M1406.5643,-1413.2003C1416.2456,-1387.4003 1431.5919,-1356.0197 1454.0559,-1334.671 1518.2711,-1273.6439 1560.2472,-1299.8107 1637.0559,-1255.671 1661.2856,-1241.7468 1686.1129,-1225.1721 1709.3102,-1208.5166"/>
<polygon fill="#242424" stroke="#242424" points="1711.3975,-1211.3265 1717.4437,-1202.6262 1707.2916,-1205.6571 1711.3975,-1211.3265"/>
</g>
<!-- chain.js&#45;&gt;delegate&#45;fast.js -->
<g id="edge9" class="edge">
<title>chain.js&#45;&gt;delegate&#45;fast.js</title>
<path fill="none" stroke="#242424" d="M1404.2723,-1412.4843C1412.4042,-1387.0753 1425.6306,-1356.3294 1446.0559,-1334.671 1499.9216,-1277.5532 1558.7991,-1319.8253 1604.0559,-1255.671 1678.4398,-1150.2271 1693.4979,-767.9952 1696.4255,-588.6508"/>
<polygon fill="#242424" stroke="#242424" points="1699.9282,-588.4918 1696.5826,-578.4391 1692.9291,-588.384 1699.9282,-588.4918"/>
</g>
<!-- delegate&#45;fast.js&#45;&gt;Ⓜ katsu&#45;curry/katsu&#45;curry.js -->
<g id="edge40" class="edge">
<title>delegate&#45;fast.js&#45;&gt;Ⓜ katsu&#45;curry/katsu&#45;curry.js</title>
<path fill="none" stroke="#242424" d="M1656.2784,-420.9276C1636.1261,-384.5557 1611.0929,-339.3744 1587.3707,-296.5593"/>
<polygon fill="#242424" stroke="#242424" points="1590.3965,-294.7985 1582.4885,-287.7476 1584.2735,-298.191 1590.3965,-294.7985"/>
</g>
<!-- choice.js -->
<g id="node13" class="node">
<title>choice.js</title>
<ellipse fill="none" stroke="#242424" stroke-width="4" cx="1970.0559" cy="-1458.28" rx="51.7142" ry="51.7142"/>
<text text-anchor="middle" x="1970.0559" y="-1455.88" font-family="Fira Code" font-size="12.00" fill="#242424">choice.js</text>
</g>
<!-- choice.js&#45;&gt;Ⓜ katsu&#45;curry/katsu&#45;curry.js -->
<g id="edge10" class="edge">
<title>choice.js&#45;&gt;Ⓜ katsu&#45;curry/katsu&#45;curry.js</title>
<path fill="none" stroke="#242424" d="M1955.6527,-1408.6129C1946.0854,-1383.4256 1931.1409,-1354.1303 1909.0559,-1334.671 1828.2758,-1263.4946 1749.1426,-1338.2454 1680.0559,-1255.671 1620.677,-1184.6996 1554.0991,-605.41 1524.1618,-316.2924"/>
<polygon fill="#242424" stroke="#242424" points="1527.6213,-315.7189 1523.1124,-306.1314 1520.6583,-316.438 1527.6213,-315.7189"/>
</g>
<!-- debug.js -->
<g id="node14" class="node">
<title>debug.js</title>
<ellipse fill="none" stroke="#242424" stroke-width="4" cx="2391.0559" cy="-1707.8974" rx="47.0167" ry="47.0167"/>
<text text-anchor="middle" x="2391.0559" y="-1705.4974" font-family="Fira Code" font-size="12.00" fill="#242424">debug.js</text>
</g>
<!-- debug.js&#45;&gt;ap.js -->
<g id="edge19" class="edge">
<title>debug.js&#45;&gt;ap.js</title>
<path fill="none" stroke="#242424" d="M2391.0559,-1660.6528C2391.0559,-1614.9858 2391.0559,-1546.3654 2391.0559,-1501.9468"/>
<polygon fill="#242424" stroke="#242424" points="2394.556,-1501.7547 2391.0559,-1491.7547 2387.556,-1501.7548 2394.556,-1501.7547"/>
</g>
<!-- debug.js&#45;&gt;map.js -->
<g id="edge25" class="edge">
<title>debug.js&#45;&gt;map.js</title>
<path fill="none" stroke="#242424" d="M2344.0632,-1705.3889C2089.5013,-1691.643 884.7696,-1624.5192 819.0559,-1581.889 714.0303,-1513.7563 753.7435,-1438.6714 684.0559,-1334.671 658.9022,-1297.1321 636.887,-1297.6065 620.0559,-1255.671 590.4572,-1181.9242 583.9128,-946.2642 582.4662,-844.0106"/>
<polygon fill="#242424" stroke="#242424" points="585.9653,-843.9126 582.3345,-833.9594 578.9659,-844.0044 585.9653,-843.9126"/>
</g>
<!-- debug.js&#45;&gt;types.js -->
<g id="edge39" class="edge">
<title>debug.js&#45;&gt;types.js</title>
<path fill="none" stroke="#242424" d="M2438.1369,-1705.8129C2632.6961,-1696.7262 3366.9443,-1657.5966 3434.0559,-1581.889 3470.4984,-1540.7788 3468.2388,-1377.6784 3434.0559,-1334.671 3337.258,-1212.8841 3222.1032,-1342.554 3093.0559,-1255.671 3063.0272,-1235.4536 3039.5692,-1202.1837 3023.5975,-1173.9106"/>
<polygon fill="#242424" stroke="#242424" points="3026.5511,-1172.0172 3018.6761,-1164.9295 3020.4123,-1175.3811 3026.5511,-1172.0172"/>
</g>
<!-- debug.js&#45;&gt;array.js -->
<g id="edge20" class="edge">
<title>debug.js&#45;&gt;array.js</title>
<path fill="none" stroke="#242424" d="M2437.3474,-1698.491C2526.0186,-1679.4558 2714.4758,-1633.7442 2753.0559,-1581.889 2842.5527,-1461.5974 2811.5847,-1270.6054 2788.6737,-1177.2087"/>
<polygon fill="#242424" stroke="#242424" points="2792.0396,-1176.2415 2786.2076,-1167.3962 2785.2507,-1177.9477 2792.0396,-1176.2415"/>
</g>
<!-- debug.js&#45;&gt;Ⓜ flatmap&#45;fast/index.js -->
<g id="edge16" class="edge">
<title>debug.js&#45;&gt;Ⓜ flatmap&#45;fast/index.js</title>
<path fill="none" stroke="#242424" d="M2374.5442,-1663.7648C2366.0375,-1639.8004 2356.0181,-1609.5036 2349.0559,-1581.889 2321.7917,-1473.7486 2382.8027,-1415.5883 2306.0559,-1334.671 2197.8068,-1220.5394 2099.9848,-1329.4455 1961.0559,-1255.671 1944.4499,-1246.8528 1928.3397,-1235.6048 1913.2871,-1223.39"/>
<polygon fill="#242424" stroke="#242424" points="1915.4404,-1220.6286 1905.515,-1216.9221 1910.9627,-1226.0091 1915.4404,-1220.6286"/>
</g>
<!-- debug.js&#45;&gt;delegate&#45;fast.js -->
<g id="edge22" class="edge">
<title>debug.js&#45;&gt;delegate&#45;fast.js</title>
<path fill="none" stroke="#242424" d="M2409.387,-1664.4532C2418.4788,-1640.5598 2428.4759,-1610.1138 2433.0559,-1581.889 2441.8554,-1527.661 2467.5255,-1377.449 2433.0559,-1334.671 2329.4604,-1206.105 2183.5721,-1375.568 2070.0559,-1255.671 1987.3937,-1168.3622 2071.0102,-1100.4973 2027.0559,-988.5871 1992.4864,-900.5713 1838.1595,-685.1989 1753.3505,-570.0462"/>
<polygon fill="#242424" stroke="#242424" points="1756.1188,-567.9029 1747.367,-561.9315 1750.4848,-572.0572 1756.1188,-567.9029"/>
</g>
<!-- debug.js&#45;&gt;choice.js -->
<g id="edge21" class="edge">
<title>debug.js&#45;&gt;choice.js</title>
<path fill="none" stroke="#242424" d="M2344.0177,-1702.9978C2269.063,-1692.9076 2121.6599,-1663.4331 2030.0559,-1581.889 2010.9577,-1564.8882 1997.3337,-1540.4539 1987.948,-1517.7914"/>
<polygon fill="#242424" stroke="#242424" points="1991.0986,-1516.2393 1984.1814,-1508.2142 1984.5843,-1518.8014 1991.0986,-1516.2393"/>
</g>
<!-- Ⓜ entrust/debug.js -->
<g id="node15" class="node">
<title>Ⓜ entrust/debug.js</title>
<ellipse fill="none" stroke="#0c821d" stroke-width="4" cx="3321.0559" cy="-1458.28" rx="103.9872" ry="103.9872"/>
<text text-anchor="middle" x="3321.0559" y="-1457.08" font-family="Fira Code" font-size="12.00" fill="#0c821d">Ⓜ entrust/debug.js</text>
</g>
<!-- debug.js&#45;&gt;Ⓜ entrust/debug.js -->
<g id="edge11" class="edge">
<title>debug.js&#45;&gt;Ⓜ entrust/debug.js</title>
<path fill="none" stroke="#242424" d="M2438.1453,-1704.7758C2591.3357,-1693.988 3073.4338,-1654.8806 3209.0559,-1581.889 3224.7625,-1573.4358 3239.3945,-1561.8947 3252.5599,-1549.241"/>
<polygon fill="#242424" stroke="#242424" points="3255.1051,-1551.6459 3259.7206,-1542.1093 3250.1654,-1546.6861 3255.1051,-1551.6459"/>
</g>
<!-- Ⓜ fast.js/array/every.js -->
<g id="node16" class="node">
<title>Ⓜ fast.js/array/every.js</title>
<ellipse fill="none" stroke="#0c821d" stroke-width="4" cx="1033.0559" cy="-1122.129" rx="133.5838" ry="133.5838"/>
<text text-anchor="middle" x="1033.0559" y="-1120.9291" font-family="Fira Code" font-size="12.00" fill="#0c821d">Ⓜ fast.js/array/every.js</text>
</g>
<!-- debug.js&#45;&gt;Ⓜ fast.js/array/every.js -->
<g id="edge12" class="edge">
<title>debug.js&#45;&gt;Ⓜ fast.js/array/every.js</title>
<path fill="none" stroke="#242424" d="M2343.7803,-1705.5652C2148.3775,-1695.4873 1410.54,-1652.9497 1337.0559,-1581.889 1257.1436,-1504.6122 1354.7331,-1430.8881 1299.0559,-1334.671 1265.6135,-1276.8783 1209.8953,-1228.7063 1158.0702,-1192.9166"/>
<polygon fill="#242424" stroke="#242424" points="1160.0259,-1190.0139 1149.79,-1187.2793 1156.0865,-1195.8002 1160.0259,-1190.0139"/>
</g>
<!-- Ⓜ fast.js/array/some.js -->
<g id="node17" class="node">
<title>Ⓜ fast.js/array/some.js</title>
<ellipse fill="none" stroke="#0c821d" stroke-width="4" cx="1466.0559" cy="-1122.129" rx="128.651" ry="128.651"/>
<text text-anchor="middle" x="1466.0559" y="-1120.9291" font-family="Fira Code" font-size="12.00" fill="#0c821d">Ⓜ fast.js/array/some.js</text>
</g>
<!-- debug.js&#45;&gt;Ⓜ fast.js/array/some.js -->
<g id="edge13" class="edge">
<title>debug.js&#45;&gt;Ⓜ fast.js/array/some.js</title>
<path fill="none" stroke="#242424" d="M2360.3085,-1672.1091C2341.4839,-1648.1655 2318.661,-1615.0677 2306.0559,-1581.889 2286.3719,-1530.0776 2312.2521,-1373.857 2273.0559,-1334.671 2179.0395,-1240.679 1805.1567,-1300.6528 1680.0559,-1255.671 1645.1182,-1243.1086 1609.8511,-1224.2208 1578.3044,-1204.575"/>
<polygon fill="#242424" stroke="#242424" points="1579.8323,-1201.4003 1569.5087,-1199.0183 1576.0936,-1207.3183 1579.8323,-1201.4003"/>
</g>
<!-- debug.js&#45;&gt;Ⓜ fast.js/filter.js -->
<g id="edge14" class="edge">
<title>debug.js&#45;&gt;Ⓜ fast.js/filter.js</title>
<path fill="none" stroke="#242424" d="M2438.3427,-1706.1595C2640.8765,-1698.2403 3428.1494,-1662.4285 3500.0559,-1581.889 3573.2321,-1499.9275 3559.7583,-1426.9102 3500.0559,-1334.671 3453.467,-1262.6919 3383.6313,-1317.3336 3324.0559,-1255.671 3234.9726,-1163.4666 3292.1175,-1091.0517 3215.0559,-988.5871 3181.0116,-943.3203 3156.7117,-947.9655 3115.0559,-909.5871 3013.447,-815.9728 3006.5839,-773.7223 2903.0559,-682.2348 2853.1962,-638.1738 2793.2721,-594.2374 2743.6272,-559.9611"/>
<polygon fill="#242424" stroke="#242424" points="2745.3416,-556.8924 2735.1183,-554.1111 2741.3758,-562.6607 2745.3416,-556.8924"/>
</g>
<!-- debug.js&#45;&gt;Ⓜ fast.js/reduce.js -->
<g id="edge15" class="edge">
<title>debug.js&#45;&gt;Ⓜ fast.js/reduce.js</title>
<path fill="none" stroke="#242424" d="M2437.4757,-1699.8463C2538.4666,-1681.5318 2773.8987,-1634.2614 2834.0559,-1581.889 2924.6233,-1503.0419 2867.0029,-1427.597 2943.0559,-1334.671 2981.6363,-1287.5311 3027.0217,-1309.7515 3055.0559,-1255.671 3109.6857,-1150.285 3097.3104,-1099.5159 3055.0559,-988.5871 3038.8262,-945.98 2820.4138,-706.8812 2782.0559,-682.2348 2681.8805,-617.8681 2639.3627,-639.8373 2526.0559,-603.2348 2456.3731,-580.7245 2378.5737,-554.4897 2316.9057,-533.4324"/>
<polygon fill="#242424" stroke="#242424" points="2317.7451,-530.0206 2307.1506,-530.0986 2315.4814,-536.6445 2317.7451,-530.0206"/>
</g>
<!-- Ⓜ katsu&#45;curry/debug.js -->
<g id="node20" class="node">
<title>Ⓜ katsu&#45;curry/debug.js</title>
<ellipse fill="none" stroke="#0c821d" stroke-width="4" cx="3076.0559" cy="-1458.28" rx="123.7182" ry="123.7182"/>
<text text-anchor="middle" x="3076.0559" y="-1457.08" font-family="Fira Code" font-size="12.00" fill="#0c821d">Ⓜ katsu&#45;curry/debug.js</text>
</g>
<!-- debug.js&#45;&gt;Ⓜ katsu&#45;curry/debug.js -->
<g id="edge17" class="edge">
<title>debug.js&#45;&gt;Ⓜ katsu&#45;curry/debug.js</title>
<path fill="none" stroke="#242424" d="M2438.2771,-1704.5242C2535.3909,-1696.1993 2761.8745,-1668.5919 2929.0559,-1581.889 2945.9544,-1573.1252 2962.4152,-1561.807 2977.8487,-1549.5839"/>
<polygon fill="#242424" stroke="#242424" points="2980.2596,-1552.1351 2985.8227,-1543.1183 2975.8509,-1546.6979 2980.2596,-1552.1351"/>
</g>
<!-- debug.js&#45;&gt;Ⓜ katsu&#45;curry/debug.js -->
<g id="edge18" class="edge">
<title>debug.js&#45;&gt;Ⓜ katsu&#45;curry/debug.js</title>
<path fill="none" stroke="#242424" d="M2437.9994,-1705.3276C2537.497,-1698.0558 2774.035,-1671.6203 2947.0559,-1581.889 2960.4065,-1574.9652 2973.4839,-1566.447 2985.8877,-1557.1478"/>
<polygon fill="#242424" stroke="#242424" points="2988.1609,-1559.8146 2993.9376,-1550.9331 2983.8832,-1554.2737 2988.1609,-1559.8146"/>
</g>
<!-- invert.js -->
<g id="node21" class="node">
<title>invert.js</title>
<ellipse fill="none" stroke="#0c821d" stroke-width="4" cx="2091.0559" cy="-1458.28" rx="51.7142" ry="51.7142"/>
<text text-anchor="middle" x="2091.0559" y="-1455.88" font-family="Fira Code" font-size="12.00" fill="#0c821d">invert.js</text>
</g>
<!-- debug.js&#45;&gt;invert.js -->
<g id="edge23" class="edge">
<title>debug.js&#45;&gt;invert.js</title>
<path fill="none" stroke="#242424" d="M2345.9156,-1693.92C2293.2654,-1675.627 2206.3989,-1639.0076 2151.0559,-1581.889 2133.4088,-1563.6758 2120.0712,-1539.2722 2110.5072,-1516.9609"/>
<polygon fill="#242424" stroke="#242424" points="2113.678,-1515.4686 2106.6378,-1507.5511 2107.204,-1518.1308 2113.678,-1515.4686"/>
</g>
<!-- iterate.js -->
<g id="node22" class="node">
<title>iterate.js</title>
<ellipse fill="none" stroke="#242424" stroke-width="4" cx="2121.0559" cy="-795.911" rx="56.412" ry="56.412"/>
<text text-anchor="middle" x="2121.0559" y="-793.511" font-family="Fira Code" font-size="12.00" fill="#242424">iterate.js</text>
</g>
<!-- debug.js&#45;&gt;iterate.js -->
<g id="edge24" class="edge">
<title>debug.js&#45;&gt;iterate.js</title>
<path fill="none" stroke="#242424" d="M2427.4546,-1677.9466C2452.6204,-1654.7295 2484.0052,-1620.1435 2498.0559,-1581.889 2535.9381,-1478.7513 2561.8944,-1424.0974 2498.0559,-1334.671 2435.2577,-1246.7019 2342.4065,-1334.1195 2268.0559,-1255.671 2183.1585,-1166.0943 2230.3088,-1105.9254 2192.0559,-988.5871 2177.7033,-944.5615 2159.6367,-895.6084 2145.3201,-858.0625"/>
<polygon fill="#242424" stroke="#242424" points="2148.4202,-856.3705 2141.5772,-848.2819 2141.8826,-858.8724 2148.4202,-856.3705"/>
</g>
<!-- math.js -->
<g id="node23" class="node">
<title>math.js</title>
<ellipse fill="none" stroke="#242424" stroke-width="4" cx="432.0559" cy="-795.911" rx="42.3196" ry="42.3196"/>
<text text-anchor="middle" x="432.0559" y="-793.511" font-family="Fira Code" font-size="12.00" fill="#242424">math.js</text>
</g>
<!-- debug.js&#45;&gt;math.js -->
<g id="edge26" class="edge">
<title>debug.js&#45;&gt;math.js</title>
<path fill="none" stroke="#242424" d="M2343.9898,-1705.2401C2067.2125,-1689.5279 662.4001,-1608.5624 627.0559,-1581.889 533.7223,-1511.4526 599.2521,-1433.6866 537.0559,-1334.671 510.9762,-1293.1523 479.9007,-1300.5055 460.0559,-1255.671 399.4228,-1118.685 412.5349,-935.9884 423.9315,-847.8343"/>
<polygon fill="#242424" stroke="#242424" points="427.4147,-848.1925 425.2725,-837.8165 420.4766,-847.2638 427.4147,-848.1925"/>
</g>
<!-- object.js -->
<g id="node24" class="node">
<title>object.js</title>
<ellipse fill="none" stroke="#242424" stroke-width="4" cx="521.0559" cy="-1122.129" rx="51.7142" ry="51.7142"/>
<text text-anchor="middle" x="521.0559" y="-1119.7291" font-family="Fira Code" font-size="12.00" fill="#242424">object.js</text>
</g>
<!-- debug.js&#45;&gt;object.js -->
<g id="edge27" class="edge">
<title>debug.js&#45;&gt;object.js</title>
<path fill="none" stroke="#242424" d="M2343.8433,-1705.8075C2078.2177,-1693.8684 779.5669,-1633.0292 713.0559,-1581.889 620.8327,-1510.9788 672.5443,-1441.742 627.0559,-1334.671 611.6673,-1298.449 604.6636,-1290.8677 587.0559,-1255.671 574.2313,-1230.0352 560.1395,-1201.5644 548.282,-1177.5193"/>
<polygon fill="#242424" stroke="#242424" points="551.4145,-1175.958 543.8542,-1168.5356 545.1357,-1179.0526 551.4145,-1175.958"/>
</g>
<!-- path.js -->
<g id="node25" class="node">
<title>path.js</title>
<ellipse fill="none" stroke="#242424" stroke-width="4" cx="333.0559" cy="-1122.129" rx="42.3349" ry="42.3349"/>
<text text-anchor="middle" x="333.0559" y="-1119.7291" font-family="Fira Code" font-size="12.00" fill="#242424">path.js</text>
</g>
<!-- debug.js&#45;&gt;path.js -->
<g id="edge28" class="edge">
<title>debug.js&#45;&gt;path.js</title>
<path fill="none" stroke="#242424" d="M2343.7636,-1705.1832C2064.0597,-1689.0562 637.227,-1605.7272 599.0559,-1581.889 559.2578,-1557.0348 414.6089,-1281.0969 356.9842,-1169.0244"/>
<polygon fill="#242424" stroke="#242424" points="360.0164,-1167.2672 352.3349,-1159.9702 353.7894,-1170.4648 360.0164,-1167.2672"/>
</g>
<!-- random&#45;floor.js -->
<g id="node26" class="node">
<title>random&#45;floor.js</title>
<ellipse fill="none" stroke="#242424" stroke-width="4" cx="2448.0559" cy="-795.911" rx="79.3981" ry="79.3981"/>
<text text-anchor="middle" x="2448.0559" y="-793.511" font-family="Fira Code" font-size="12.00" fill="#242424">random&#45;floor.js</text>
</g>
<!-- debug.js&#45;&gt;random&#45;floor.js -->
<g id="edge29" class="edge">
<title>debug.js&#45;&gt;random&#45;floor.js</title>
<path fill="none" stroke="#242424" d="M2437.6297,-1699.9865C2533.9789,-1682.6249 2750.0508,-1638.2028 2796.0559,-1581.889 2888.2513,-1469.0351 2821.7133,-1401.2116 2829.0559,-1255.671 2835.037,-1137.1178 2901.2447,-1082.8177 2829.0559,-988.5871 2747.0343,-881.5214 2648.2996,-984.3666 2536.0559,-909.5871 2520.8967,-899.4877 2507.2285,-885.9073 2495.4334,-871.6517"/>
<polygon fill="#242424" stroke="#242424" points="2498.0473,-869.3159 2489.0757,-863.6803 2492.5747,-873.6807 2498.0473,-869.3159"/>
</g>
<!-- random&#45;shuffle.js -->
<g id="node27" class="node">
<title>random&#45;shuffle.js</title>
<ellipse fill="none" stroke="#0c821d" stroke-width="4" cx="1812.0559" cy="-1458.28" rx="88.2923" ry="88.2923"/>
<text text-anchor="middle" x="1812.0559" y="-1455.88" font-family="Fira Code" font-size="12.00" fill="#0c821d">random&#45;shuffle.js</text>
</g>
<!-- debug.js&#45;&gt;random&#45;shuffle.js -->
<g id="edge30" class="edge">
<title>debug.js&#45;&gt;random&#45;shuffle.js</title>
<path fill="none" stroke="#242424" d="M2343.9191,-1705.4476C2252.7644,-1698.7043 2048.9971,-1673.6881 1909.0559,-1581.889 1892.7403,-1571.1863 1877.9693,-1556.8139 1865.1534,-1541.6582"/>
<polygon fill="#242424" stroke="#242424" points="1867.6695,-1539.2059 1858.6319,-1533.6766 1862.2488,-1543.635 1867.6695,-1539.2059"/>
</g>
<!-- random&#45;take.js -->
<g id="node28" class="node">
<title>random&#45;take.js</title>
<ellipse fill="none" stroke="#242424" stroke-width="4" cx="2352.0559" cy="-1122.129" rx="74.7005" ry="74.7005"/>
<text text-anchor="middle" x="2352.0559" y="-1119.7291" font-family="Fira Code" font-size="12.00" fill="#242424">random&#45;take.js</text>
</g>
<!-- debug.js&#45;&gt;random&#45;take.js -->
<g id="edge31" class="edge">
<title>debug.js&#45;&gt;random&#45;take.js</title>
<path fill="none" stroke="#242424" d="M2433.2542,-1686.5077C2469.6528,-1665.44 2519.7693,-1629.5143 2542.0559,-1581.889 2588.6259,-1482.3718 2581.2478,-1437.3182 2542.0559,-1334.671 2540.2677,-1329.9873 2464.5936,-1246.0493 2409.3016,-1185.0827"/>
<polygon fill="#242424" stroke="#242424" points="2411.6377,-1182.4488 2402.3263,-1177.3942 2406.4533,-1187.1522 2411.6377,-1182.4488"/>
</g>
<!-- random&#45;word.js -->
<g id="node29" class="node">
<title>random&#45;word.js</title>
<ellipse fill="none" stroke="#242424" stroke-width="4" cx="2669.0559" cy="-1458.28" rx="74.7005" ry="74.7005"/>
<text text-anchor="middle" x="2669.0559" y="-1455.88" font-family="Fira Code" font-size="12.00" fill="#242424">random&#45;word.js</text>
</g>
<!-- debug.js&#45;&gt;random&#45;word.js -->
<g id="edge32" class="edge">
<title>debug.js&#45;&gt;random&#45;word.js</title>
<path fill="none" stroke="#242424" d="M2432.842,-1685.8705C2473.3379,-1663.2483 2535.0685,-1625.2854 2580.0559,-1581.889 2595.9826,-1566.5256 2611.007,-1547.998 2624.0172,-1530.0166"/>
<polygon fill="#242424" stroke="#242424" points="2626.9113,-1531.986 2629.8491,-1521.8066 2621.2046,-1527.9323 2626.9113,-1531.986"/>
</g>
<!-- random.js -->
<g id="node30" class="node">
<title>random.js</title>
<ellipse fill="none" stroke="#0c821d" stroke-width="4" cx="2212.0559" cy="-1458.28" rx="51.7142" ry="51.7142"/>
<text text-anchor="middle" x="2212.0559" y="-1455.88" font-family="Fira Code" font-size="12.00" fill="#0c821d">random.js</text>
</g>
<!-- debug.js&#45;&gt;random.js -->
<g id="edge33" class="edge">
<title>debug.js&#45;&gt;random.js</title>
<path fill="none" stroke="#242424" d="M2357.2639,-1674.7471C2333.4564,-1650.3635 2301.7315,-1615.7111 2278.0559,-1581.889 2263.3465,-1560.8756 2249.5579,-1536.2035 2238.4268,-1514.4509"/>
<polygon fill="#242424" stroke="#242424" points="2241.4528,-1512.6784 2233.8241,-1505.3263 2235.2029,-1515.831 2241.4528,-1512.6784"/>
</g>
<!-- range.js -->
<g id="node31" class="node">
<title>range.js</title>
<ellipse fill="none" stroke="#242424" stroke-width="4" cx="1113.0559" cy="-1458.28" rx="47.0167" ry="47.0167"/>
<text text-anchor="middle" x="1113.0559" y="-1455.88" font-family="Fira Code" font-size="12.00" fill="#242424">range.js</text>
</g>
<!-- debug.js&#45;&gt;range.js -->
<g id="edge34" class="edge">
<title>debug.js&#45;&gt;range.js</title>
<path fill="none" stroke="#242424" d="M2343.8061,-1705.7877C2130.8072,-1695.9108 1266.0858,-1651.7597 1169.0559,-1581.889 1146.8613,-1565.9069 1133.2803,-1539.0007 1125.0648,-1514.3647"/>
<polygon fill="#242424" stroke="#242424" points="1128.3742,-1513.2194 1122.0692,-1504.7048 1121.6883,-1515.2928 1128.3742,-1513.2194"/>
</g>
<!-- reject.js -->
<g id="node32" class="node">
<title>reject.js</title>
<ellipse fill="none" stroke="#242424" stroke-width="4" cx="2131.0559" cy="-1122.129" rx="51.7142" ry="51.7142"/>
<text text-anchor="middle" x="2131.0559" y="-1119.7291" font-family="Fira Code" font-size="12.00" fill="#242424">reject.js</text>
</g>
<!-- debug.js&#45;&gt;reject.js -->
<g id="edge35" class="edge">
<title>debug.js&#45;&gt;reject.js</title>
<path fill="none" stroke="#242424" d="M2420.3327,-1670.9224C2437.3322,-1647.0257 2457.1092,-1614.4131 2466.0559,-1581.889 2495.1978,-1475.9494 2531.8992,-1422.6318 2466.0559,-1334.671 2391.3856,-1234.9179 2292.462,-1335.8208 2197.0559,-1255.671 2174.218,-1236.485 2158.5619,-1207.4807 2148.2519,-1181.3993"/>
<polygon fill="#242424" stroke="#242424" points="2151.4918,-1180.0711 2144.692,-1171.9462 2144.9409,-1182.5381 2151.4918,-1180.0711"/>
</g>
<!-- string.js -->
<g id="node33" class="node">
<title>string.js</title>
<ellipse fill="none" stroke="#242424" stroke-width="4" cx="3154.0559" cy="-1122.129" rx="51.7142" ry="51.7142"/>
<text text-anchor="middle" x="3154.0559" y="-1119.7291" font-family="Fira Code" font-size="12.00" fill="#242424">string.js</text>
</g>
<!-- debug.js&#45;&gt;string.js -->
<g id="edge36" class="edge">
<title>debug.js&#45;&gt;string.js</title>
<path fill="none" stroke="#242424" d="M2438.3436,-1705.9542C2636.379,-1697.3413 3391.9986,-1659.5561 3461.0559,-1581.889 3534.0645,-1499.7781 3523.2304,-1425.2623 3461.0559,-1334.671 3405.8033,-1254.1652 3334.189,-1314.2307 3256.0559,-1255.671 3227.513,-1234.2784 3202.9676,-1202.8582 3185.1121,-1175.8688"/>
<polygon fill="#242424" stroke="#242424" points="3187.9251,-1173.7734 3179.5533,-1167.28 3182.0485,-1177.5768 3187.9251,-1173.7734"/>
</g>
<!-- ternary.js -->
<g id="node34" class="node">
<title>ternary.js</title>
<ellipse fill="none" stroke="#242424" stroke-width="4" cx="1234.0559" cy="-1458.28" rx="56.412" ry="56.412"/>
<text text-anchor="middle" x="1234.0559" y="-1455.88" font-family="Fira Code" font-size="12.00" fill="#242424">ternary.js</text>
</g>
<!-- debug.js&#45;&gt;ternary.js -->
<g id="edge37" class="edge">
<title>debug.js&#45;&gt;ternary.js</title>
<path fill="none" stroke="#242424" d="M2343.9462,-1704.9459C2146.5345,-1692.2425 1392.033,-1640.2186 1304.0559,-1581.889 1282.3771,-1567.5158 1266.6797,-1544.0052 1255.7149,-1521.3257"/>
<polygon fill="#242424" stroke="#242424" points="1258.7994,-1519.6553 1251.449,-1512.0249 1252.4367,-1522.5736 1258.7994,-1519.6553"/>
</g>
<!-- triplet.js -->
<g id="node35" class="node">
<title>triplet.js</title>
<ellipse fill="none" stroke="#242424" stroke-width="4" cx="825.0559" cy="-1122.129" rx="56.4274" ry="56.4274"/>
<text text-anchor="middle" x="825.0559" y="-1119.7291" font-family="Fira Code" font-size="12.00" fill="#242424">triplet.js</text>
</g>
<!-- debug.js&#45;&gt;triplet.js -->
<g id="edge38" class="edge">
<title>debug.js&#45;&gt;triplet.js</title>
<path fill="none" stroke="#242424" d="M2343.7549,-1706.111C2119.0276,-1697.269 1165.5896,-1655.6338 1057.0559,-1581.889 955.0518,-1512.5809 987.4603,-1444.3386 931.0559,-1334.671 912.9631,-1299.493 907.8248,-1291.0137 890.0559,-1255.671 878.044,-1231.7789 865.0966,-1205.3278 853.9432,-1182.3125"/>
<polygon fill="#242424" stroke="#242424" points="856.9486,-1180.488 849.4424,-1173.0108 850.6475,-1183.5369 856.9486,-1180.488"/>
</g>
<!-- iterate.js&#45;&gt;Ⓜ katsu&#45;curry/katsu&#45;curry.js -->
<g id="edge76" class="edge">
<title>iterate.js&#45;&gt;Ⓜ katsu&#45;curry/katsu&#45;curry.js</title>
<path fill="none" stroke="#242424" d="M2110.8243,-740.3121C2090.3035,-629.0496 2045.8351,-389.2912 2043.0559,-385.8153 1950.9284,-270.5919 1790.4036,-211.2461 1669.1599,-181.4952"/>
<polygon fill="#242424" stroke="#242424" points="1669.9399,-178.083 1659.3982,-179.1427 1668.2999,-184.8882 1669.9399,-178.083"/>
</g>
<!-- math.js&#45;&gt;Ⓜ katsu&#45;curry/katsu&#45;curry.js -->
<g id="edge87" class="edge">
<title>math.js&#45;&gt;Ⓜ katsu&#45;curry/katsu&#45;curry.js</title>
<path fill="none" stroke="#242424" d="M424.4621,-754.0701C412.156,-671.9105 397.9654,-488.5692 493.0559,-385.8153 606.8758,-262.8227 1088.1858,-196.0817 1345.0083,-168.6236"/>
<polygon fill="#242424" stroke="#242424" points="1345.6052,-172.08 1355.18,-167.5441 1344.8664,-165.1191 1345.6052,-172.08"/>
</g>
<!-- object.js&#45;&gt;Ⓜ katsu&#45;curry/katsu&#45;curry.js -->
<g id="edge88" class="edge">
<title>object.js&#45;&gt;Ⓜ katsu&#45;curry/katsu&#45;curry.js</title>
<path fill="none" stroke="#242424" d="M514.4949,-1070.8064C496.5562,-921.3809 453.4503,-490.5769 538.0559,-385.8153 638.1258,-261.9053 1095.2165,-196.0705 1344.5811,-168.8279"/>
<polygon fill="#242424" stroke="#242424" points="1345.2649,-172.2744 1354.8295,-167.7172 1344.5106,-165.3151 1345.2649,-172.2744"/>
</g>
<!-- object.js&#45;&gt;map.js -->
<g id="edge89" class="edge">
<title>object.js&#45;&gt;map.js</title>
<path fill="none" stroke="#242424" d="M530.5872,-1071.1575C542.2439,-1008.8193 561.8206,-904.126 573.1738,-843.4113"/>
<polygon fill="#242424" stroke="#242424" points="576.6607,-843.8053 575.0584,-833.3323 569.7799,-842.5186 576.6607,-843.8053"/>
</g>
<!-- object.js&#45;&gt;reduce.js -->
<g id="edge90" class="edge">
<title>object.js&#45;&gt;reduce.js</title>
<path fill="none" stroke="#242424" d="M544.4989,-1076.1179C561.648,-1046.9101 587.5573,-1010.5966 620.0559,-988.5871 835.5812,-842.6242 1155.9155,-807.1794 1289.2972,-798.6173"/>
<polygon fill="#242424" stroke="#242424" points="1289.5692,-802.1073 1299.3361,-798.0014 1289.1404,-795.1204 1289.5692,-802.1073"/>
</g>
<!-- path.js&#45;&gt;Ⓜ katsu&#45;curry/katsu&#45;curry.js -->
<g id="edge91" class="edge">
<title>path.js&#45;&gt;Ⓜ katsu&#45;curry/katsu&#45;curry.js</title>
<path fill="none" stroke="#242424" d="M322.77,-1080.9772C294.6323,-957.6854 230.0561,-587.4094 412.0559,-385.8153 534.8529,-249.7978 1070.621,-188.1023 1344.9264,-165.008"/>
<polygon fill="#242424" stroke="#242424" points="1345.3006,-168.489 1354.9748,-164.1694 1344.7184,-161.5133 1345.3006,-168.489"/>
</g>
<!-- path.js&#45;&gt;reduce.js -->
<g id="edge93" class="edge">
<title>path.js&#45;&gt;reduce.js</title>
<path fill="none" stroke="#242424" d="M357.0144,-1086.9137C379.8639,-1056.1399 417.0961,-1012.715 460.0559,-988.5871 605.1462,-907.0988 1113.1034,-829.4727 1289.864,-804.351"/>
<polygon fill="#242424" stroke="#242424" points="1290.3678,-807.8147 1299.7786,-802.9477 1289.3868,-800.8838 1290.3678,-807.8147"/>
</g>
<!-- path.js&#45;&gt;math.js -->
<g id="edge92" class="edge">
<title>path.js&#45;&gt;math.js</title>
<path fill="none" stroke="#242424" d="M345.3942,-1081.4729C363.4882,-1021.8508 397.1938,-910.7864 416.8121,-846.1412"/>
<polygon fill="#242424" stroke="#242424" points="420.1632,-847.1513 419.7181,-836.5658 413.4648,-845.1185 420.1632,-847.1513"/>
</g>
<!-- random&#45;floor.js&#45;&gt;Ⓜ katsu&#45;curry/katsu&#45;curry.js -->
<g id="edge94" class="edge">
<title>random&#45;floor.js&#45;&gt;Ⓜ katsu&#45;curry/katsu&#45;curry.js</title>
<path fill="none" stroke="#242424" d="M2452.6804,-716.5022C2453.5009,-624.7036 2440.1958,-474.857 2355.0559,-385.8153 2261.2598,-287.7207 1888.3544,-213.6723 1669.8605,-177.6604"/>
<polygon fill="#242424" stroke="#242424" points="1670.3317,-174.191 1659.8972,-176.027 1669.1991,-181.0988 1670.3317,-174.191"/>
</g>
<!-- random&#45;take.js&#45;&gt;Ⓜ katsu&#45;curry/katsu&#45;curry.js -->
<g id="edge95" class="edge">
<title>random&#45;take.js&#45;&gt;Ⓜ katsu&#45;curry/katsu&#45;curry.js</title>
<path fill="none" stroke="#242424" d="M2353.887,-1047.4053C2357.5395,-870.4701 2362.2324,-436.8719 2322.0559,-385.8153 2241.6504,-283.6352 1883.5247,-211.677 1669.9985,-176.9775"/>
<polygon fill="#242424" stroke="#242424" points="1670.3717,-173.4925 1659.9416,-175.3533 1669.2556,-180.4029 1670.3717,-173.4925"/>
</g>
<!-- random&#45;take.js&#45;&gt;iterate.js -->
<g id="edge96" class="edge">
<title>random&#45;take.js&#45;&gt;iterate.js</title>
<path fill="none" stroke="#242424" d="M2304.4397,-1064.4947C2270.5689,-1022.5452 2224.7538,-963.8213 2188.0559,-909.5871 2176.0853,-891.8964 2163.9465,-872.0121 2153.3499,-853.879"/>
<polygon fill="#242424" stroke="#242424" points="2156.3237,-852.0301 2148.2794,-845.1353 2150.2683,-855.5418 2156.3237,-852.0301"/>
</g>
<!-- random&#45;take.js&#45;&gt;random&#45;floor.js -->
<g id="edge97" class="edge">
<title>random&#45;take.js&#45;&gt;random&#45;floor.js</title>
<path fill="none" stroke="#242424" d="M2373.1235,-1050.5391C2387.7502,-1000.8362 2407.3099,-934.3701 2422.7777,-881.809"/>
<polygon fill="#242424" stroke="#242424" points="2426.1506,-882.7451 2425.6161,-872.1637 2419.4353,-880.7689 2426.1506,-882.7451"/>
</g>
<!-- random&#45;word.js&#45;&gt;Ⓜ katsu&#45;curry/katsu&#45;curry.js -->
<g id="edge98" class="edge">
<title>random&#45;word.js&#45;&gt;Ⓜ katsu&#45;curry/katsu&#45;curry.js</title>
<path fill="none" stroke="#242424" d="M2704.934,-1392.523C2717.4324,-1372.726 2732.5136,-1351.7444 2749.0559,-1334.671 2791.9503,-1290.3994 2832.7406,-1309.3448 2863.0559,-1255.671 2958.121,-1087.3564 2988.4221,-527.6253 2857.0559,-385.8153 2699.1855,-215.3939 1995.6937,-169.7255 1672.0118,-157.6584"/>
<polygon fill="#242424" stroke="#242424" points="1671.7244,-154.1456 1661.603,-157.277 1671.4681,-161.1409 1671.7244,-154.1456"/>
</g>
<!-- random&#45;word.js&#45;&gt;array.js -->
<g id="edge99" class="edge">
<title>random&#45;word.js&#45;&gt;array.js</title>
<path fill="none" stroke="#242424" d="M2691.1116,-1386.991C2710.5575,-1324.1378 2738.4783,-1233.8914 2756.1874,-1176.6517"/>
<polygon fill="#242424" stroke="#242424" points="2759.5427,-1177.6484 2759.1548,-1167.0607 2752.8554,-1175.5794 2759.5427,-1177.6484"/>
</g>
<!-- random&#45;word.js&#45;&gt;random&#45;take.js -->
<g id="edge100" class="edge">
<title>random&#45;word.js&#45;&gt;random&#45;take.js</title>
<path fill="none" stroke="#242424" d="M2629.0783,-1394.9898C2614.8246,-1374.6755 2597.8583,-1352.7686 2580.0559,-1334.671 2538.8523,-1292.7841 2517.6229,-1295.0939 2474.0559,-1255.671 2450.8347,-1234.6586 2427.1914,-1209.7516 2406.9788,-1187.1732"/>
<polygon fill="#242424" stroke="#242424" points="2409.5203,-1184.7641 2400.2612,-1179.6144 2404.288,-1189.4141 2409.5203,-1184.7641"/>
</g>
<!-- range.js&#45;&gt;Ⓜ katsu&#45;curry/katsu&#45;curry.js -->
<g id="edge101" class="edge">
<title>range.js&#45;&gt;Ⓜ katsu&#45;curry/katsu&#45;curry.js</title>
<path fill="none" stroke="#242424" d="M1128.4361,-1413.6021C1142.1239,-1372.8033 1162.0841,-1310.6516 1176.0559,-1255.671 1240.0549,-1003.8275 1214.8496,-930.9616 1290.0559,-682.2348 1329.9519,-550.2883 1390.677,-405.9506 1437.913,-301.4534"/>
<polygon fill="#242424" stroke="#242424" points="1441.2111,-302.6551 1442.1521,-292.1021 1434.8355,-299.7649 1441.2111,-302.6551"/>
</g>
<!-- reject.js&#45;&gt;Ⓜ katsu&#45;curry/katsu&#45;curry.js -->
<g id="edge104" class="edge">
<title>reject.js&#45;&gt;Ⓜ katsu&#45;curry/katsu&#45;curry.js</title>
<path fill="none" stroke="#242424" d="M2111.9971,-1073.7321C2095.6539,-1031.0158 2072.2499,-966.8171 2056.0559,-909.5871 2027.9123,-810.1266 2049.4027,-776.528 2007.0559,-682.2348 1926.4245,-502.6935 1758.909,-345.6865 1640.2533,-250.3647"/>
<polygon fill="#242424" stroke="#242424" points="1642.1504,-247.4005 1632.1532,-243.8922 1637.7806,-252.8691 1642.1504,-247.4005"/>
</g>
<!-- reject.js&#45;&gt;filter.js -->
<g id="edge105" class="edge">
<title>reject.js&#45;&gt;filter.js</title>
<path fill="none" stroke="#242424" d="M2148.7217,-1073.2909C2169.8985,-1014.7464 2205.3526,-916.7314 2227.9501,-854.2592"/>
<polygon fill="#242424" stroke="#242424" points="2231.352,-855.1437 2231.4623,-844.5495 2224.7695,-852.7626 2231.352,-855.1437"/>
</g>
<!-- string.js&#45;&gt;Ⓜ katsu&#45;curry/katsu&#45;curry.js -->
<g id="edge107" class="edge">
<title>string.js&#45;&gt;Ⓜ katsu&#45;curry/katsu&#45;curry.js</title>
<path fill="none" stroke="#242424" d="M3144.4366,-1071.3041C3113.1743,-906.664 3015.7239,-397.8805 3003.0559,-385.8153 2814.2393,-205.9834 2019.0778,-165.3007 1671.649,-156.0978"/>
<polygon fill="#242424" stroke="#242424" points="1671.5891,-152.5952 1661.5016,-155.8346 1671.4075,-159.5928 1671.5891,-152.5952"/>
</g>
<!-- string.js&#45;&gt;Ⓜ entrust/entrust.js -->
<g id="edge106" class="edge">
<title>string.js&#45;&gt;Ⓜ entrust/entrust.js</title>
<path fill="none" stroke="#242424" d="M3128.5063,-1077.1945C3110.7339,-1048.9842 3084.9231,-1013.3809 3055.0559,-988.5871 2972.0718,-919.6991 2860.3022,-868.2268 2776.6673,-835.8938"/>
<polygon fill="#242424" stroke="#242424" points="2777.7165,-832.5478 2767.1261,-832.2409 2775.2136,-839.0851 2777.7165,-832.5478"/>
</g>
<!-- ternary.js&#45;&gt;Ⓜ katsu&#45;curry/katsu&#45;curry.js -->
<g id="edge108" class="edge">
<title>ternary.js&#45;&gt;Ⓜ katsu&#45;curry/katsu&#45;curry.js</title>
<path fill="none" stroke="#242424" d="M1249.093,-1403.9698C1260.0083,-1363.3399 1274.6295,-1306.2967 1285.0559,-1255.671 1309.3089,-1137.91 1271.7,-1094.7939 1328.0559,-988.5871 1352.0781,-943.3157 1388.792,-955.2528 1412.0559,-909.5871 1507.3533,-722.5241 1521.4062,-476.9158 1518.3119,-317.1589"/>
<polygon fill="#242424" stroke="#242424" points="1521.8024,-316.6825 1518.0839,-306.7616 1514.8041,-316.836 1521.8024,-316.6825"/>
</g>
<!-- triplet.js&#45;&gt;Ⓜ katsu&#45;curry/katsu&#45;curry.js -->
<g id="edge109" class="edge">
<title>triplet.js&#45;&gt;Ⓜ katsu&#45;curry/katsu&#45;curry.js</title>
<path fill="none" stroke="#242424" d="M848.4507,-1070.4681C906.5621,-945.2545 1066.6197,-618.7404 1257.0559,-385.8153 1294.024,-340.5991 1339.6312,-295.8249 1381.7842,-257.826"/>
<polygon fill="#242424" stroke="#242424" points="1384.2266,-260.337 1389.337,-251.0561 1379.5543,-255.1245 1384.2266,-260.337"/>
</g>
<!-- either.js -->
<g id="node36" class="node">
<title>either.js</title>
<ellipse fill="none" stroke="#242424" stroke-width="4" cx="2656.0559" cy="-1122.129" rx="51.7142" ry="51.7142"/>
<text text-anchor="middle" x="2656.0559" y="-1119.7291" font-family="Fira Code" font-size="12.00" fill="#242424">either.js</text>
</g>
<!-- either.js&#45;&gt;Ⓜ entrust/entrust.js -->
<g id="edge41" class="edge">
<title>either.js&#45;&gt;Ⓜ entrust/entrust.js</title>
<path fill="none" stroke="#242424" d="M2656.5313,-1070.4388C2656.903,-1030.0161 2657.4356,-972.1049 2657.9158,-919.8822"/>
<polygon fill="#242424" stroke="#242424" points="2661.4158,-919.894 2658.008,-909.8622 2654.4161,-919.8295 2661.4158,-919.894"/>
</g>
<!-- flip.js -->
<g id="node37" class="node">
<title>flip.js</title>
<ellipse fill="none" stroke="#242424" stroke-width="4" cx="671.0559" cy="-1122.129" rx="42.3349" ry="42.3349"/>
<text text-anchor="middle" x="671.0559" y="-1119.7291" font-family="Fira Code" font-size="12.00" fill="#242424">flip.js</text>
</g>
<!-- flip.js&#45;&gt;Ⓜ katsu&#45;curry/katsu&#45;curry.js -->
<g id="edge44" class="edge">
<title>flip.js&#45;&gt;Ⓜ katsu&#45;curry/katsu&#45;curry.js</title>
<path fill="none" stroke="#242424" d="M679.0563,-1080.2705C708.8297,-924.5402 811.5892,-387.49 813.0559,-385.8153 884.0486,-304.7578 1165.3577,-229.2194 1347.59,-187.3826"/>
<polygon fill="#242424" stroke="#242424" points="1348.5769,-190.7474 1357.5461,-185.1077 1347.0177,-183.9232 1348.5769,-190.7474"/>
</g>
<!-- future.js -->
<g id="node38" class="node">
<title>future.js</title>
<ellipse fill="none" stroke="#242424" stroke-width="4" cx="2535.0559" cy="-1122.129" rx="51.7142" ry="51.7142"/>
<text text-anchor="middle" x="2535.0559" y="-1119.7291" font-family="Fira Code" font-size="12.00" fill="#242424">future.js</text>
</g>
<!-- future.js&#45;&gt;Ⓜ entrust/entrust.js -->
<g id="edge45" class="edge">
<title>future.js&#45;&gt;Ⓜ entrust/entrust.js</title>
<path fill="none" stroke="#242424" d="M2553.4861,-1073.6432C2569.6534,-1031.1103 2593.8131,-967.5511 2614.9421,-911.9653"/>
<polygon fill="#242424" stroke="#242424" points="2618.295,-912.9949 2618.5765,-902.4038 2611.7517,-910.5077 2618.295,-912.9949"/>
</g>
<!-- index.js -->
<g id="node39" class="node">
<title>index.js</title>
<ellipse fill="none" stroke="#242424" stroke-width="4" cx="1431.0559" cy="-1707.8974" rx="47.0167" ry="47.0167"/>
<text text-anchor="middle" x="1431.0559" y="-1705.4974" font-family="Fira Code" font-size="12.00" fill="#242424">index.js</text>
</g>
<!-- index.js&#45;&gt;../package.json -->
<g id="edge47" class="edge">
<title>index.js&#45;&gt;../package.json</title>
<path fill="none" stroke="#242424" d="M1383.9398,-1705.0925C1176.3794,-1692.4396 349.409,-1638.8145 249.0559,-1581.889 229.7109,-1570.9155 213.1493,-1554.1058 199.595,-1536.3844"/>
<polygon fill="#242424" stroke="#242424" points="202.3206,-1534.1828 193.5797,-1528.1956 196.6791,-1538.327 202.3206,-1534.1828"/>
</g>
<!-- index.js&#45;&gt;ap.js -->
<g id="edge48" class="edge">
<title>index.js&#45;&gt;ap.js</title>
<path fill="none" stroke="#242424" d="M1478.0768,-1704.867C1633.9841,-1694.2059 2132.0137,-1655.0629 2273.0559,-1581.889 2312.2453,-1561.5573 2345.7459,-1523.0955 2366.9294,-1494.4513"/>
<polygon fill="#242424" stroke="#242424" points="2369.8127,-1496.4369 2372.8361,-1486.2826 2364.1403,-1492.3352 2369.8127,-1496.4369"/>
</g>
<!-- index.js&#45;&gt;Ⓜ katsu&#45;curry/katsu&#45;curry.js -->
<g id="edge46" class="edge">
<title>index.js&#45;&gt;Ⓜ katsu&#45;curry/katsu&#45;curry.js</title>
<path fill="none" stroke="#242424" d="M1383.8639,-1707.1352C1154.1939,-1702.9577 160.6535,-1679.3225 68.0559,-1581.889 -72.8304,-1433.645 49.0559,-1326.6412 49.0559,-1122.129 49.0559,-1122.129 49.0559,-1122.129 49.0559,-795.911 49.0559,-602.5886 46.5691,-510.7999 194.0559,-385.8153 365.5637,-240.4746 1032.249,-181.9296 1344.7242,-162.1114"/>
<polygon fill="#242424" stroke="#242424" points="1345.0165,-165.6001 1354.7771,-161.4795 1344.5772,-158.6139 1345.0165,-165.6001"/>
</g>
<!-- index.js&#45;&gt;map.js -->
<g id="edge59" class="edge">
<title>index.js&#45;&gt;map.js</title>
<path fill="none" stroke="#242424" d="M1384.0583,-1704.4428C1208.0074,-1691.0853 594.3896,-1640.6306 531.0559,-1581.889 433.6992,-1491.5913 423.0751,-1116.1192 460.0559,-988.5871 477.5343,-928.3113 520.1417,-868.809 550.058,-832.2315"/>
<polygon fill="#242424" stroke="#242424" points="552.9182,-834.2656 556.6116,-824.3354 547.5317,-829.795 552.9182,-834.2656"/>
</g>
<!-- index.js&#45;&gt;reduce.js -->
<g id="edge69" class="edge">
<title>index.js&#45;&gt;reduce.js</title>
<path fill="none" stroke="#242424" d="M1384.2241,-1701.7511C1280.0729,-1687.0228 1034.6056,-1646.0951 986.0559,-1581.889 919.7865,-1494.2488 925.0742,-1426.0695 986.0559,-1334.671 1036.8134,-1258.5964 1119.3947,-1327.4565 1176.0559,-1255.671 1250.548,-1161.2952 1174.4438,-1100.2367 1219.0559,-988.5871 1240.8062,-934.1532 1280.086,-879.7538 1310.1609,-842.709"/>
<polygon fill="#242424" stroke="#242424" points="1313.1716,-844.5578 1316.8151,-834.6092 1307.7628,-840.1143 1313.1716,-844.5578"/>
</g>
<!-- index.js&#45;&gt;types.js -->
<g id="edge74" class="edge">
<title>index.js&#45;&gt;types.js</title>
<path fill="none" stroke="#242424" d="M1478.3389,-1706.1221C1701.8889,-1697.3671 2646.4183,-1656.1984 2753.0559,-1581.889 2853.1024,-1512.1726 2806.0163,-1437.1817 2872.0559,-1334.671 2896.8337,-1296.2093 2913.6667,-1294.3801 2938.0559,-1255.671 2953.839,-1230.6209 2967.8582,-1200.809 2978.4646,-1175.714"/>
<polygon fill="#242424" stroke="#242424" points="2981.7519,-1176.9243 2982.3591,-1166.3469 2975.2882,-1174.2369 2981.7519,-1176.9243"/>
</g>
<!-- index.js&#45;&gt;array.js -->
<g id="edge49" class="edge">
<title>index.js&#45;&gt;array.js</title>
<path fill="none" stroke="#242424" d="M1476.8882,-1697.1499C1532.3769,-1681.6141 1624.3107,-1647.2874 1672.0559,-1581.889 1737.816,-1491.8152 1632.5958,-1409.7577 1715.0559,-1334.671 1880.2045,-1184.2894 2536.0784,-1386.5747 2717.0559,-1255.671 2741.9107,-1237.6931 2755.7943,-1206.5159 2763.5186,-1178.8056"/>
<polygon fill="#242424" stroke="#242424" points="2766.9948,-1179.3408 2766.0947,-1168.7842 2760.2152,-1177.598 2766.9948,-1179.3408"/>
</g>
<!-- index.js&#45;&gt;filter.js -->
<g id="edge53" class="edge">
<title>index.js&#45;&gt;filter.js</title>
<path fill="none" stroke="#242424" d="M1452.439,-1665.759C1463.7697,-1641.7458 1476.9774,-1610.7692 1485.0559,-1581.889 1500.0028,-1528.455 1480.3614,-1373.4389 1520.0559,-1334.671 1735.1957,-1124.5533 1978.7408,-1467.6409 2192.0559,-1255.671 2246.7589,-1201.3129 2251.4921,-970.4134 2250.4231,-857.9594"/>
<polygon fill="#242424" stroke="#242424" points="2253.921,-857.7423 2250.3074,-847.7827 2246.9214,-857.8219 2253.921,-857.7423"/>
</g>
<!-- index.js&#45;&gt;chain.js -->
<g id="edge50" class="edge">
<title>index.js&#45;&gt;chain.js</title>
<path fill="none" stroke="#242424" d="M1423.953,-1661.2391C1417.6553,-1619.8707 1408.4398,-1559.3351 1401.7126,-1515.1449"/>
<polygon fill="#242424" stroke="#242424" points="1405.1536,-1514.492 1400.1884,-1505.1327 1398.2334,-1515.5456 1405.1536,-1514.492"/>
</g>
<!-- index.js&#45;&gt;choice.js -->
<g id="edge51" class="edge">
<title>index.js&#45;&gt;choice.js</title>
<path fill="none" stroke="#242424" d="M1477.7202,-1700.6345C1584.4063,-1683.25 1842.0992,-1636.5971 1909.0559,-1581.889 1929.1709,-1565.4538 1943.1948,-1540.7334 1952.6766,-1517.7085"/>
<polygon fill="#242424" stroke="#242424" points="1955.9677,-1518.9024 1956.3411,-1508.3142 1949.4463,-1516.3585 1955.9677,-1518.9024"/>
</g>
<!-- index.js&#45;&gt;invert.js -->
<g id="edge56" class="edge">
<title>index.js&#45;&gt;invert.js</title>
<path fill="none" stroke="#242424" d="M1478.1303,-1703.361C1603.8845,-1690.4267 1944.0168,-1649.853 2031.0559,-1581.889 2051.5467,-1565.8889 2065.4651,-1541.1094 2074.6933,-1517.9253"/>
<polygon fill="#242424" stroke="#242424" points="2078.0085,-1519.0528 2078.2455,-1508.4606 2071.4549,-1516.5931 2078.0085,-1519.0528"/>
</g>
<!-- index.js&#45;&gt;iterate.js -->
<g id="edge57" class="edge">
<title>index.js&#45;&gt;iterate.js</title>
<path fill="none" stroke="#242424" d="M1384.8109,-1699.225C1293.639,-1681.0871 1096.1293,-1636.2852 1057.0559,-1581.889 992.9549,-1492.6506 999.7751,-1428.4332 1057.0559,-1334.671 1097.159,-1269.0267 1158.3487,-1311.7011 1211.0559,-1255.671 1299.851,-1161.2779 1228.7811,-1071.8886 1328.0559,-988.5871 1439.8665,-894.7668 1885.385,-827.1569 2055.0151,-804.3416"/>
<polygon fill="#242424" stroke="#242424" points="2055.6119,-807.793 2065.0604,-802.9995 2054.6849,-800.8546 2055.6119,-807.793"/>
</g>
<!-- index.js&#45;&gt;math.js -->
<g id="edge60" class="edge">
<title>index.js&#45;&gt;math.js</title>
<path fill="none" stroke="#242424" d="M1383.8208,-1706.3575C1176.8384,-1699.1341 356.8955,-1665.3849 282.0559,-1581.889 238.0558,-1532.7998 260.6475,-1050.9365 282.0559,-988.5871 303.7771,-925.3267 355.7011,-866.8558 392.3482,-831.2999"/>
<polygon fill="#242424" stroke="#242424" points="395.1065,-833.5053 399.92,-824.067 390.2713,-828.4435 395.1065,-833.5053"/>
</g>
<!-- index.js&#45;&gt;object.js -->
<g id="edge61" class="edge">
<title>index.js&#45;&gt;object.js</title>
<path fill="none" stroke="#242424" d="M1384.0218,-1706.5851C1233.5233,-1701.4435 767.2394,-1677.9195 658.0559,-1581.889 541.9327,-1479.7549 522.1879,-1283.9113 520.1025,-1184.0246"/>
<polygon fill="#242424" stroke="#242424" points="523.5985,-1183.7334 519.944,-1173.7888 516.5994,-1183.8419 523.5985,-1183.7334"/>
</g>
<!-- index.js&#45;&gt;path.js -->
<g id="edge62" class="edge">
<title>index.js&#45;&gt;path.js</title>
<path fill="none" stroke="#242424" d="M1383.8142,-1705.1047C1196.8753,-1693.622 515.7166,-1647.5374 447.0559,-1581.889 366.4479,-1504.8175 431.3561,-1442.8023 404.0559,-1334.671 389.6988,-1277.8049 367.6288,-1214.2063 351.909,-1171.5256"/>
<polygon fill="#242424" stroke="#242424" points="355.1155,-1170.1056 348.3578,-1161.9456 348.5519,-1172.5387 355.1155,-1170.1056"/>
</g>
<!-- index.js&#45;&gt;random&#45;floor.js -->
<g id="edge63" class="edge">
<title>index.js&#45;&gt;random&#45;floor.js</title>
<path fill="none" stroke="#242424" d="M1469.5539,-1680.7139C1498.804,-1657.8445 1537.4111,-1622.439 1558.0559,-1581.889 1608.492,-1482.824 1515.1757,-1410.9342 1596.0559,-1334.671 1732.468,-1206.0459 2308.0414,-1392.6561 2436.0559,-1255.671 2484.3944,-1203.9452 2471.5226,-1003.2714 2459.047,-884.8225"/>
<polygon fill="#242424" stroke="#242424" points="2462.5057,-884.2503 2457.9587,-874.6809 2455.5457,-884.9973 2462.5057,-884.2503"/>
</g>
<!-- index.js&#45;&gt;random&#45;shuffle.js -->
<g id="edge64" class="edge">
<title>index.js&#45;&gt;random&#45;shuffle.js</title>
<path fill="none" stroke="#242424" d="M1476.2284,-1694.5984C1534.3878,-1675.9664 1636.684,-1637.9629 1710.0559,-1581.889 1726.2039,-1569.5481 1741.4412,-1554.1858 1754.9729,-1538.5312"/>
<polygon fill="#242424" stroke="#242424" points="1757.6952,-1540.7323 1761.4752,-1530.8346 1752.348,-1536.2147 1757.6952,-1540.7323"/>
</g>
<!-- index.js&#45;&gt;random&#45;take.js -->
<g id="edge65" class="edge">
<title>index.js&#45;&gt;random&#45;take.js</title>
<path fill="none" stroke="#242424" d="M1462.1812,-1672.6105C1481.7122,-1648.6136 1505.8114,-1615.2675 1520.0559,-1581.889 1563.9882,-1478.9448 1485.8637,-1410.6447 1568.0559,-1334.671 1682.201,-1229.1618 2130.3831,-1336.6598 2263.0559,-1255.671 2285.2045,-1242.1506 2303.0173,-1220.7922 2316.7175,-1199.0886"/>
<polygon fill="#242424" stroke="#242424" points="2319.7663,-1200.8108 2321.9565,-1190.4448 2313.78,-1197.1825 2319.7663,-1200.8108"/>
</g>
<!-- index.js&#45;&gt;random&#45;word.js -->
<g id="edge66" class="edge">
<title>index.js&#45;&gt;random&#45;word.js</title>
<path fill="none" stroke="#242424" d="M1478.0852,-1704.219C1650.9366,-1690.3542 2250.4896,-1639.1225 2433.0559,-1581.889 2491.1888,-1563.6647 2551.9779,-1531.4703 2597.2999,-1504.5063"/>
<polygon fill="#242424" stroke="#242424" points="2599.3824,-1507.3384 2606.1527,-1499.189 2595.778,-1501.3376 2599.3824,-1507.3384"/>
</g>
<!-- index.js&#45;&gt;random.js -->
<g id="edge67" class="edge">
<title>index.js&#45;&gt;random.js</title>
<path fill="none" stroke="#242424" d="M1478.0995,-1705.1954C1620.6278,-1696.1762 2044.4987,-1662.9707 2152.0559,-1581.889 2172.8993,-1566.1763 2186.8864,-1541.3123 2196.0703,-1517.991"/>
<polygon fill="#242424" stroke="#242424" points="2199.4065,-1519.0605 2199.5981,-1508.4674 2192.8424,-1516.6289 2199.4065,-1519.0605"/>
</g>
<!-- index.js&#45;&gt;range.js -->
<g id="edge68" class="edge">
<title>index.js&#45;&gt;range.js</title>
<path fill="none" stroke="#242424" d="M1385.0412,-1696.2985C1327.7147,-1679.7216 1229.9121,-1644.1556 1169.0559,-1581.889 1150.5304,-1562.9342 1137.4724,-1536.7676 1128.6541,-1513.3883"/>
<polygon fill="#242424" stroke="#242424" points="1131.9235,-1512.1365 1125.2474,-1503.9097 1125.336,-1514.5042 1131.9235,-1512.1365"/>
</g>
<!-- index.js&#45;&gt;reject.js -->
<g id="edge70" class="edge">
<title>index.js&#45;&gt;reject.js</title>
<path fill="none" stroke="#242424" d="M1437.9812,-1661.117C1452.7176,-1562.2196 1486.3081,-1340.457 1492.0559,-1334.671 1639.484,-1186.2615 1764.2232,-1339.1013 1956.0559,-1255.671 2005.3729,-1234.2224 2053.3489,-1196.0039 2086.557,-1165.9323"/>
<polygon fill="#242424" stroke="#242424" points="2089.2513,-1168.2102 2094.2521,-1158.8699 2084.518,-1163.053 2089.2513,-1168.2102"/>
</g>
<!-- index.js&#45;&gt;string.js -->
<g id="edge71" class="edge">
<title>index.js&#45;&gt;string.js</title>
<path fill="none" stroke="#242424" d="M1478.243,-1706.3903C1709.1229,-1698.6526 2713.2097,-1660.6626 2826.0559,-1581.889 2925.7311,-1512.3096 2864.8148,-1427.702 2943.0559,-1334.671 2982.2638,-1288.0516 3011.4769,-1298.2325 3055.0559,-1255.671 3079.8202,-1231.4848 3103.111,-1200.6481 3120.873,-1174.7018"/>
<polygon fill="#242424" stroke="#242424" points="3123.9816,-1176.3525 3126.6788,-1166.1067 3118.181,-1172.4342 3123.9816,-1176.3525"/>
</g>
<!-- index.js&#45;&gt;ternary.js -->
<g id="edge72" class="edge">
<title>index.js&#45;&gt;ternary.js</title>
<path fill="none" stroke="#242424" d="M1395.2707,-1677.3064C1368.2508,-1653.1056 1331.2996,-1617.5561 1304.0559,-1581.889 1288.9922,-1562.1678 1274.9555,-1538.8523 1263.4657,-1517.8151"/>
<polygon fill="#242424" stroke="#242424" points="1266.5205,-1516.1057 1258.702,-1508.9558 1260.3553,-1519.4208 1266.5205,-1516.1057"/>
</g>
<!-- index.js&#45;&gt;triplet.js -->
<g id="edge73" class="edge">
<title>index.js&#45;&gt;triplet.js</title>
<path fill="none" stroke="#242424" d="M1383.9873,-1705.6003C1253.2639,-1698.1406 890.6766,-1669.7585 819.0559,-1581.889 726.535,-1468.3776 769.6962,-1281.4567 801.5908,-1184.6268"/>
<polygon fill="#242424" stroke="#242424" points="804.9662,-1185.5697 804.8311,-1174.9757 798.3302,-1183.3417 804.9662,-1185.5697"/>
</g>
<!-- index.js&#45;&gt;either.js -->
<g id="edge52" class="edge">
<title>index.js&#45;&gt;either.js</title>
<path fill="none" stroke="#242424" d="M1475.9054,-1692.4736C1522.9942,-1673.8605 1595.4466,-1637.8996 1634.0559,-1581.889 1697.5795,-1489.7353 1598.847,-1409.5297 1682.0559,-1334.671 1833.6166,-1198.3197 2429.8212,-1373.6894 2596.0559,-1255.671 2620.1439,-1238.5697 2634.727,-1209.4704 2643.4707,-1182.7925"/>
<polygon fill="#242424" stroke="#242424" points="2646.8573,-1183.6864 2646.4347,-1173.1 2640.1633,-1181.6394 2646.8573,-1183.6864"/>
</g>
<!-- index.js&#45;&gt;flip.js -->
<g id="edge54" class="edge">
<title>index.js&#45;&gt;flip.js</title>
<path fill="none" stroke="#242424" d="M1383.7971,-1705.7527C1245.8143,-1698.4963 847.6669,-1670.1678 759.0559,-1581.889 648.9296,-1472.1757 654.2439,-1269.7357 663.9696,-1174.3896"/>
<polygon fill="#242424" stroke="#242424" points="667.4541,-1174.7206 665.0449,-1164.4034 660.4943,-1173.9711 667.4541,-1174.7206"/>
</g>
<!-- index.js&#45;&gt;future.js -->
<g id="edge55" class="edge">
<title>index.js&#45;&gt;future.js</title>
<path fill="none" stroke="#242424" d="M1473.3502,-1687.1101C1511.6305,-1666.0113 1566.4179,-1629.6722 1596.0559,-1581.889 1655.0524,-1486.7734 1561.194,-1409.9136 1644.0559,-1334.671 1780.4028,-1210.8613 2317.4299,-1360.2122 2469.0559,-1255.671 2493.9916,-1238.4786 2509.9252,-1209.0671 2519.8746,-1182.2149"/>
<polygon fill="#242424" stroke="#242424" points="2523.2865,-1183.06 2523.2749,-1172.4652 2516.677,-1180.7548 2523.2865,-1183.06"/>
</g>
<!-- length.js -->
<g id="node40" class="node">
<title>length.js</title>
<ellipse fill="none" stroke="#242424" stroke-width="4" cx="343.0559" cy="-1458.28" rx="51.7142" ry="51.7142"/>
<text text-anchor="middle" x="343.0559" y="-1455.88" font-family="Fira Code" font-size="12.00" fill="#242424">length.js</text>
</g>
<!-- index.js&#45;&gt;length.js -->
<g id="edge58" class="edge">
<title>index.js&#45;&gt;length.js</title>
<path fill="none" stroke="#242424" d="M1383.8592,-1704.6327C1193.7685,-1691.1415 490.5377,-1637.8159 409.0559,-1581.889 386.7453,-1566.5756 371.3623,-1541.2327 361.0989,-1517.4672"/>
<polygon fill="#242424" stroke="#242424" points="364.2998,-1516.0475 357.2782,-1508.1136 357.8196,-1518.6946 364.2998,-1516.0475"/>
</g>
<!-- which.js -->
<g id="node41" class="node">
<title>which.js</title>
<ellipse fill="none" stroke="#242424" stroke-width="4" cx="875.0559" cy="-1458.28" rx="47.0167" ry="47.0167"/>
<text text-anchor="middle" x="875.0559" y="-1455.88" font-family="Fira Code" font-size="12.00" fill="#242424">which.js</text>
</g>
<!-- index.js&#45;&gt;which.js -->
<g id="edge75" class="edge">
<title>index.js&#45;&gt;which.js</title>
<path fill="none" stroke="#242424" d="M1384.5801,-1700.412C1277.6162,-1682.4626 1017.8458,-1634.5338 948.0559,-1581.889 924.5909,-1564.1886 907.2531,-1536.5637 895.3771,-1511.9148"/>
<polygon fill="#242424" stroke="#242424" points="898.4635,-1510.25 891.0915,-1502.6405 892.1091,-1513.1864 898.4635,-1510.25"/>
</g>
<!-- length.js&#45;&gt;Ⓜ katsu&#45;curry/katsu&#45;curry.js -->
<g id="edge77" class="edge">
<title>length.js&#45;&gt;Ⓜ katsu&#45;curry/katsu&#45;curry.js</title>
<path fill="none" stroke="#242424" d="M321.4793,-1411.1492C249.5209,-1246.1324 36.9462,-688.0753 304.0559,-385.8153 439.2396,-232.8421 1047.6289,-178.6345 1344.3246,-161.0653"/>
<polygon fill="#242424" stroke="#242424" points="1344.9677,-164.5337 1354.7462,-160.4556 1344.5589,-157.5457 1344.9677,-164.5337"/>
</g>
<!-- length.js&#45;&gt;object.js -->
<g id="edge78" class="edge">
<title>length.js&#45;&gt;object.js</title>
<path fill="none" stroke="#242424" d="M367.247,-1412.5954C399.7029,-1351.3029 457.2731,-1242.5822 492.0275,-1176.9489"/>
<polygon fill="#242424" stroke="#242424" points="495.1885,-1178.4586 496.775,-1167.9832 489.0022,-1175.1828 495.1885,-1178.4586"/>
</g>
<!-- length.js&#45;&gt;path.js -->
<g id="edge79" class="edge">
<title>length.js&#45;&gt;path.js</title>
<path fill="none" stroke="#242424" d="M341.5153,-1406.4931C339.6444,-1343.6024 336.506,-1238.1047 334.6232,-1174.8123"/>
<polygon fill="#242424" stroke="#242424" points="338.1167,-1174.5404 334.3208,-1164.6489 331.1198,-1174.7486 338.1167,-1174.5404"/>
</g>
<!-- which.js&#45;&gt;Ⓜ katsu&#45;curry/katsu&#45;curry.js -->
<g id="edge113" class="edge">
<title>which.js&#45;&gt;Ⓜ katsu&#45;curry/katsu&#45;curry.js</title>
<path fill="none" stroke="#242424" d="M845.903,-1420.9333C817.6226,-1382.1396 776.627,-1318.4366 760.0559,-1255.671 729.7545,-1140.8997 730.7403,-1103.6142 760.0559,-988.5871 836.3423,-689.2585 885.559,-602.1446 1106.0559,-385.8153 1178.227,-315.0084 1276.1677,-257.799 1357.3067,-217.8586"/>
<polygon fill="#242424" stroke="#242424" points="1359.1589,-220.8493 1366.6106,-213.3179 1356.0887,-214.5585 1359.1589,-220.8493"/>
</g>
<!-- which.js&#45;&gt;Ⓜ fast.js/array/every.js -->
<g id="edge111" class="edge">
<title>which.js&#45;&gt;Ⓜ fast.js/array/every.js</title>
<path fill="none" stroke="#242424" d="M895.0667,-1415.7063C914.378,-1374.6208 944.6151,-1310.2902 971.8686,-1252.3074"/>
<polygon fill="#242424" stroke="#242424" points="975.1285,-1253.5996 976.2148,-1243.0606 968.7934,-1250.6219 975.1285,-1253.5996"/>
</g>
<!-- which.js&#45;&gt;Ⓜ fast.js/array/some.js -->
<g id="edge112" class="edge">
<title>which.js&#45;&gt;Ⓜ fast.js/array/some.js</title>
<path fill="none" stroke="#242424" d="M913.249,-1430.4068C949.4958,-1404.4226 1005.8858,-1365.2001 1057.0559,-1334.671 1149.8602,-1279.302 1258.568,-1223.2037 1340.5749,-1182.5537"/>
<polygon fill="#242424" stroke="#242424" points="1342.5236,-1185.4946 1349.935,-1177.9235 1339.4199,-1179.2203 1342.5236,-1185.4946"/>
</g>
<!-- which.js&#45;&gt;triplet.js -->
<g id="edge115" class="edge">
<title>which.js&#45;&gt;triplet.js</title>
<path fill="none" stroke="#242424" d="M868.1036,-1411.5397C859.4691,-1353.4894 844.6843,-1254.0909 834.8905,-1188.2474"/>
<polygon fill="#242424" stroke="#242424" points="838.2965,-1187.3557 833.3633,-1177.9795 831.3727,-1188.3856 838.2965,-1187.3557"/>
</g>
<!-- which.js&#45;&gt;flip.js -->
<g id="edge114" class="edge">
<title>which.js&#45;&gt;flip.js</title>
<path fill="none" stroke="#242424" d="M844.7664,-1422.3304C812.7295,-1383.134 762.0714,-1317.69 727.0559,-1255.671 712.0408,-1229.0763 698.6658,-1197.6506 688.7556,-1171.9674"/>
<polygon fill="#242424" stroke="#242424" points="691.9544,-1170.5321 685.1308,-1162.4273 685.4108,-1173.0184 691.9544,-1170.5321"/>
</g>
<!-- map&#45;performance.fixture.js -->
<g id="node42" class="node">
<title>map&#45;performance.fixture.js</title>
<ellipse fill="none" stroke="#242424" stroke-width="4" cx="3463.0559" cy="-1122.129" rx="129.5987" ry="129.5987"/>
<text text-anchor="middle" x="3463.0559" y="-1119.7291" font-family="Fira Code" font-size="12.00" fill="#242424">map&#45;performance.fixture.js</text>
</g>
<!-- map&#45;performance.fixture.js&#45;&gt;Ⓜ entrust/entrust.js -->
<g id="edge80" class="edge">
<title>map&#45;performance.fixture.js&#45;&gt;Ⓜ entrust/entrust.js</title>
<path fill="none" stroke="#242424" d="M3350.7566,-1056.7249C3308.896,-1033.6677 3260.5017,-1008.5434 3215.0559,-988.5871 3068.0424,-924.0303 2891.9742,-866.1174 2777.9401,-831.0234"/>
<polygon fill="#242424" stroke="#242424" points="2778.7165,-827.6006 2768.1297,-828.0135 2776.6632,-834.2928 2778.7165,-827.6006"/>
</g>
<!-- Ⓜ fast.js/index.js -->
<g id="node43" class="node">
<title>Ⓜ fast.js/index.js</title>
<ellipse fill="none" stroke="#0c821d" stroke-width="4" cx="3228.0559" cy="-795.911" rx="103.9872" ry="103.9872"/>
<text text-anchor="middle" x="3228.0559" y="-794.711" font-family="Fira Code" font-size="12.00" fill="#0c821d">Ⓜ fast.js/index.js</text>
</g>
<!-- map&#45;performance.fixture.js&#45;&gt;Ⓜ fast.js/index.js -->
<g id="edge81" class="edge">
<title>map&#45;performance.fixture.js&#45;&gt;Ⓜ fast.js/index.js</title>
<path fill="none" stroke="#242424" d="M3387.0827,-1016.6659C3357.2869,-975.3046 3323.4026,-928.2677 3294.5898,-888.2708"/>
<polygon fill="#242424" stroke="#242424" points="3297.395,-886.1768 3288.71,-880.1087 3291.7152,-890.2684 3297.395,-886.1768"/>
</g>
<!-- Ⓜ ramda/src/curry.js -->
<g id="node44" class="node">
<title>Ⓜ ramda/src/curry.js</title>
<ellipse fill="none" stroke="#0c821d" stroke-width="4" cx="3463.0559" cy="-795.911" rx="113.8526" ry="113.8526"/>
<text text-anchor="middle" x="3463.0559" y="-794.711" font-family="Fira Code" font-size="12.00" fill="#0c821d">Ⓜ ramda/src/curry.js</text>
</g>
<!-- map&#45;performance.fixture.js&#45;&gt;Ⓜ ramda/src/curry.js -->
<g id="edge82" class="edge">
<title>map&#45;performance.fixture.js&#45;&gt;Ⓜ ramda/src/curry.js</title>
<path fill="none" stroke="#242424" d="M3463.0559,-992.2617C3463.0559,-968.3972 3463.0559,-943.5412 3463.0559,-919.8562"/>
<polygon fill="#242424" stroke="#242424" points="3466.556,-919.7834 3463.0559,-909.7835 3459.556,-919.7835 3466.556,-919.7834"/>
</g>
<!-- Ⓜ ramda/src/map.js -->
<g id="node45" class="node">
<title>Ⓜ ramda/src/map.js</title>
<ellipse fill="none" stroke="#0c821d" stroke-width="4" cx="3698.0559" cy="-795.911" rx="103.5038" ry="103.5038"/>
<text text-anchor="middle" x="3698.0559" y="-794.711" font-family="Fira Code" font-size="12.00" fill="#0c821d">Ⓜ ramda/src/map.js</text>
</g>
<!-- map&#45;performance.fixture.js&#45;&gt;Ⓜ ramda/src/map.js -->
<g id="edge83" class="edge">
<title>map&#45;performance.fixture.js&#45;&gt;Ⓜ ramda/src/map.js</title>
<path fill="none" stroke="#242424" d="M3539.0291,-1016.6659C3568.8249,-975.3046 3602.7092,-928.2677 3631.522,-888.2708"/>
<polygon fill="#242424" stroke="#242424" points="3634.3966,-890.2684 3637.4018,-880.1087 3628.7169,-886.1768 3634.3966,-890.2684"/>
</g>
<!-- Ⓜ testperf/index.js -->
<g id="node46" class="node">
<title>Ⓜ testperf/index.js</title>
<ellipse fill="none" stroke="#0c821d" stroke-width="4" cx="3928.0559" cy="-795.911" rx="108.9365" ry="108.9365"/>
<text text-anchor="middle" x="3928.0559" y="-794.711" font-family="Fira Code" font-size="12.00" fill="#0c821d">Ⓜ testperf/index.js</text>
</g>
<!-- map&#45;performance.fixture.js&#45;&gt;Ⓜ testperf/index.js -->
<g id="edge84" class="edge">
<title>map&#45;performance.fixture.js&#45;&gt;Ⓜ testperf/index.js</title>
<path fill="none" stroke="#242424" d="M3577.724,-1060.6959C3647.6806,-1021.159 3737.4919,-966.638 3811.0559,-909.5871 3822.3297,-900.844 3833.697,-891.1401 3844.6846,-881.192"/>
<polygon fill="#242424" stroke="#242424" points="3847.2219,-883.614 3852.2248,-874.2747 3842.4898,-878.4558 3847.2219,-883.614"/>
</g>
</g>
</svg>
