<?xml version="1.0" encoding="UTF-8" standalone="no"?>
<!DOCTYPE svg PUBLIC "-//W3C//DTD SVG 1.1//EN"
 "http://www.w3.org/Graphics/SVG/1.1/DTD/svg11.dtd">
<!-- Generated by graphviz version 2.40.1 (20161225.0304)
 -->
<!-- Title: G Pages: 1 -->
<svg width="3847pt" height="1772pt"
 viewBox="0.00 0.00 3847.46 1772.41" xmlns="http://www.w3.org/2000/svg" xmlns:xlink="http://www.w3.org/1999/xlink">
<g id="graph0" class="graph" transform="scale(1 1) rotate(0) translate(7.992 1764.4187)">
<title>G</title>
<polygon fill="#eeeeff" stroke="transparent" points="-7.992,7.992 -7.992,-1764.4187 3839.4677,-1764.4187 3839.4677,7.992 -7.992,7.992"/>
<!-- ../package.json -->
<g id="node1" class="node">
<title>../package.json</title>
<ellipse fill="none" stroke="#0c821d" stroke-width="4" cx="3308.766" cy="-1495.0139" rx="79.3981" ry="79.3981"/>
<text text-anchor="middle" x="3308.766" y="-1492.6139" font-family="Fira Code" font-size="12.00" fill="#0c821d">../package.json</text>
</g>
<!-- ap.js -->
<g id="node2" class="node">
<title>ap.js</title>
<ellipse fill="none" stroke="#242424" stroke-width="4" cx="635.766" cy="-1199.0423" rx="33.4262" ry="33.4262"/>
<text text-anchor="middle" x="635.766" y="-1196.6423" font-family="Fira Code" font-size="12.00" fill="#242424">ap.js</text>
</g>
<!-- Ⓜ katsu&#45;curry/katsu&#45;curry.js -->
<g id="node3" class="node">
<title>Ⓜ katsu&#45;curry/katsu&#45;curry.js</title>
<ellipse fill="none" stroke="#0c821d" stroke-width="4" cx="1499.766" cy="-153.4077" rx="153.3154" ry="153.3154"/>
<text text-anchor="middle" x="1499.766" y="-152.2077" font-family="Fira Code" font-size="12.00" fill="#0c821d">Ⓜ katsu&#45;curry/katsu&#45;curry.js</text>
</g>
<!-- ap.js&#45;&gt;Ⓜ katsu&#45;curry/katsu&#45;curry.js -->
<g id="edge1" class="edge">
<title>ap.js&#45;&gt;Ⓜ katsu&#45;curry/katsu&#45;curry.js</title>
<path fill="none" stroke="#242424" d="M627.524,-1166.6777C619.8468,-1139.7603 606.8567,-1101.0479 588.766,-1070.4669 565.0306,-1030.3437 536.1432,-1035.1134 519.766,-991.4669 478.0645,-880.3291 498.3437,-841.1379 519.766,-724.383 526.5439,-687.4422 539.982,-681.6438 549.766,-645.383 580.2286,-532.4849 513.7397,-472.0058 592.766,-385.8153 692.198,-277.3691 1104.5352,-206.0828 1337.5304,-173.6291"/>
<polygon fill="#242424" stroke="#242424" points="1338.0323,-177.0931 1347.4578,-172.2547 1337.0723,-170.1592 1338.0323,-177.0931"/>
</g>
<!-- map.js -->
<g id="node4" class="node">
<title>map.js</title>
<ellipse fill="none" stroke="#242424" stroke-width="4" cx="358.766" cy="-857.9249" rx="37.623" ry="37.623"/>
<text text-anchor="middle" x="358.766" y="-855.525" font-family="Fira Code" font-size="12.00" fill="#242424">map.js</text>
</g>
<!-- ap.js&#45;&gt;map.js -->
<g id="edge2" class="edge">
<title>ap.js&#45;&gt;map.js</title>
<path fill="none" stroke="#242424" d="M629.1518,-1166.2446C622.4055,-1138.7068 609.8716,-1099.3455 588.766,-1070.4669 554.9323,-1024.1724 529.3874,-1029.8245 486.766,-991.4669 452.182,-960.3426 415.7466,-921.676 390.6319,-893.9724"/>
<polygon fill="#242424" stroke="#242424" points="393.1564,-891.5457 383.8594,-886.4647 387.9587,-896.2344 393.1564,-891.5457"/>
</g>
<!-- reduce.js -->
<g id="node5" class="node">
<title>reduce.js</title>
<ellipse fill="none" stroke="#242424" stroke-width="4" cx="580.766" cy="-857.9249" rx="51.7142" ry="51.7142"/>
<text text-anchor="middle" x="580.766" y="-855.525" font-family="Fira Code" font-size="12.00" fill="#242424">reduce.js</text>
</g>
<!-- ap.js&#45;&gt;reduce.js -->
<g id="edge3" class="edge">
<title>ap.js&#45;&gt;reduce.js</title>
<path fill="none" stroke="#242424" d="M630.4424,-1166.0246C621.2504,-1109.015 602.2706,-991.2996 590.6157,-919.0142"/>
<polygon fill="#242424" stroke="#242424" points="594.0688,-918.4423 589.0215,-909.127 587.158,-919.5567 594.0688,-918.4423"/>
</g>
<!-- types.js -->
<g id="node6" class="node">
<title>types.js</title>
<ellipse fill="none" stroke="#242424" stroke-width="4" cx="1606.766" cy="-857.9249" rx="47.0167" ry="47.0167"/>
<text text-anchor="middle" x="1606.766" y="-855.525" font-family="Fira Code" font-size="12.00" fill="#242424">types.js</text>
</g>
<!-- ap.js&#45;&gt;types.js -->
<g id="edge4" class="edge">
<title>ap.js&#45;&gt;types.js</title>
<path fill="none" stroke="#242424" d="M636.897,-1165.6729C639.8443,-1135.77 649.2044,-1093.2187 677.766,-1070.4669 830.1268,-949.0981 1393.5964,-1106.5404 1550.766,-991.4669 1575.5164,-973.3456 1589.3951,-942.1616 1597.1429,-914.4836"/>
<polygon fill="#242424" stroke="#242424" points="1600.6157,-915.0334 1599.7288,-904.4757 1593.8383,-913.2821 1600.6157,-915.0334"/>
</g>
<!-- map.js&#45;&gt;Ⓜ katsu&#45;curry/katsu&#45;curry.js -->
<g id="edge83" class="edge">
<title>map.js&#45;&gt;Ⓜ katsu&#45;curry/katsu&#45;curry.js</title>
<path fill="none" stroke="#242424" d="M340.5478,-824.5705C319.377,-783.7377 285.6951,-711.8063 272.766,-645.383 250.7244,-532.1448 199.1727,-474.6565 272.766,-385.8153 406.016,-224.957 1033.808,-174.5831 1336.1867,-159.5054"/>
<polygon fill="#242424" stroke="#242424" points="1336.5468,-162.992 1346.3628,-159.0052 1336.203,-156.0004 1336.5468,-162.992"/>
</g>
<!-- Ⓜ fast.js/map.js -->
<g id="node46" class="node">
<title>Ⓜ fast.js/map.js</title>
<ellipse fill="none" stroke="#0c821d" stroke-width="4" cx="375.766" cy="-515.5992" rx="93.6213" ry="93.6213"/>
<text text-anchor="middle" x="375.766" y="-514.3992" font-family="Fira Code" font-size="12.00" fill="#0c821d">Ⓜ fast.js/map.js</text>
</g>
<!-- map.js&#45;&gt;Ⓜ fast.js/map.js -->
<g id="edge82" class="edge">
<title>map.js&#45;&gt;Ⓜ fast.js/map.js</title>
<path fill="none" stroke="#242424" d="M360.6502,-819.9821C363.0307,-772.0469 367.2229,-687.6296 370.5895,-619.8373"/>
<polygon fill="#242424" stroke="#242424" points="374.1007,-619.6969 371.1011,-609.5356 367.1093,-619.3496 374.1007,-619.6969"/>
</g>
<!-- delegate&#45;fast.js -->
<g id="node12" class="node">
<title>delegate&#45;fast.js</title>
<ellipse fill="none" stroke="#242424" stroke-width="4" cx="1888.766" cy="-515.5992" rx="83.5954" ry="83.5954"/>
<text text-anchor="middle" x="1888.766" y="-513.1992" font-family="Fira Code" font-size="12.00" fill="#242424">delegate&#45;fast.js</text>
</g>
<!-- reduce.js&#45;&gt;delegate&#45;fast.js -->
<g id="edge100" class="edge">
<title>reduce.js&#45;&gt;delegate&#45;fast.js</title>
<path fill="none" stroke="#242424" d="M603.4143,-811.2979C620.3024,-781.6339 646.2211,-745.0389 679.766,-724.383 867.8291,-608.5799 1544.5506,-543.3883 1794.8381,-522.8012"/>
<polygon fill="#242424" stroke="#242424" points="1795.3163,-526.2739 1804.9979,-521.9708 1794.746,-519.2972 1795.3163,-526.2739"/>
</g>
<!-- Ⓜ fast.js/reduce.js -->
<g id="node18" class="node">
<title>Ⓜ fast.js/reduce.js</title>
<ellipse fill="none" stroke="#0c821d" stroke-width="4" cx="710.766" cy="-515.5992" rx="108.9199" ry="108.9199"/>
<text text-anchor="middle" x="710.766" y="-514.3992" font-family="Fira Code" font-size="12.00" fill="#0c821d">Ⓜ fast.js/reduce.js</text>
</g>
<!-- reduce.js&#45;&gt;Ⓜ fast.js/reduce.js -->
<g id="edge99" class="edge">
<title>reduce.js&#45;&gt;Ⓜ fast.js/reduce.js</title>
<path fill="none" stroke="#242424" d="M599.1161,-809.6041C617.0572,-762.3601 645.0202,-688.7259 668.4726,-626.9694"/>
<polygon fill="#242424" stroke="#242424" points="671.7685,-628.1489 672.0467,-617.5577 665.2245,-625.6637 671.7685,-628.1489"/>
</g>
<!-- types.js&#45;&gt;Ⓜ katsu&#45;curry/katsu&#45;curry.js -->
<g id="edge107" class="edge">
<title>types.js&#45;&gt;Ⓜ katsu&#45;curry/katsu&#45;curry.js</title>
<path fill="none" stroke="#242424" d="M1599.704,-811.4271C1584.6463,-712.2831 1548.7699,-476.063 1524.3624,-315.3573"/>
<polygon fill="#242424" stroke="#242424" points="1527.8067,-314.7254 1522.8447,-305.3643 1520.886,-315.7765 1527.8067,-314.7254"/>
</g>
<!-- array.js -->
<g id="node7" class="node">
<title>array.js</title>
<ellipse fill="none" stroke="#242424" stroke-width="4" cx="2574.766" cy="-1199.0423" rx="47.0167" ry="47.0167"/>
<text text-anchor="middle" x="2574.766" y="-1196.6423" font-family="Fira Code" font-size="12.00" fill="#242424">array.js</text>
</g>
<!-- array.js&#45;&gt;Ⓜ katsu&#45;curry/katsu&#45;curry.js -->
<g id="edge6" class="edge">
<title>array.js&#45;&gt;Ⓜ katsu&#45;curry/katsu&#45;curry.js</title>
<path fill="none" stroke="#242424" d="M2553.4325,-1156.96C2533.7064,-1115.8847 2505.4416,-1051.0456 2491.766,-991.4669 2476.6729,-925.7128 2492.2663,-437.3819 2448.766,-385.8153 2348.6416,-267.1249 1906.3295,-199.3316 1662.4966,-170.3427"/>
<polygon fill="#242424" stroke="#242424" points="1662.8142,-166.8559 1652.4728,-169.1595 1661.9936,-173.8077 1662.8142,-166.8559"/>
</g>
<!-- Ⓜ entrust/entrust.js -->
<g id="node8" class="node">
<title>Ⓜ entrust/entrust.js</title>
<ellipse fill="none" stroke="#0c821d" stroke-width="4" cx="2787.766" cy="-153.4077" rx="113.8526" ry="113.8526"/>
<text text-anchor="middle" x="2787.766" y="-152.2077" font-family="Fira Code" font-size="12.00" fill="#0c821d">Ⓜ entrust/entrust.js</text>
</g>
<!-- array.js&#45;&gt;Ⓜ entrust/entrust.js -->
<g id="edge5" class="edge">
<title>array.js&#45;&gt;Ⓜ entrust/entrust.js</title>
<path fill="none" stroke="#242424" d="M2595.1402,-1156.5862C2614.7905,-1114.9654 2644.8437,-1049.4963 2667.766,-991.4669 2727.523,-840.1877 2759.7918,-805.7847 2786.766,-645.383 2807.6499,-521.1975 2804.8104,-376.8723 2798.6463,-276.7961"/>
<polygon fill="#242424" stroke="#242424" points="2802.1284,-276.4019 2798.0003,-266.6444 2795.1425,-276.8466 2802.1284,-276.4019"/>
</g>
<!-- filter.js -->
<g id="node9" class="node">
<title>filter.js</title>
<ellipse fill="none" stroke="#242424" stroke-width="4" cx="2316.766" cy="-857.9249" rx="51.7142" ry="51.7142"/>
<text text-anchor="middle" x="2316.766" y="-855.525" font-family="Fira Code" font-size="12.00" fill="#242424">filter.js</text>
</g>
<!-- array.js&#45;&gt;filter.js -->
<g id="edge7" class="edge">
<title>array.js&#45;&gt;filter.js</title>
<path fill="none" stroke="#242424" d="M2547.2593,-1160.8766C2528.6542,-1135.1962 2503.4348,-1100.6455 2480.766,-1070.4669 2438.2961,-1013.9273 2388.562,-949.7504 2355.0917,-906.8483"/>
<polygon fill="#242424" stroke="#242424" points="2357.7416,-904.555 2348.8292,-898.8261 2352.2238,-908.8625 2357.7416,-904.555"/>
</g>
<!-- filter.js&#45;&gt;delegate&#45;fast.js -->
<g id="edge39" class="edge">
<title>filter.js&#45;&gt;delegate&#45;fast.js</title>
<path fill="none" stroke="#242424" d="M2302.4388,-808.2421C2292.6812,-781.0576 2277.5314,-748.1713 2255.766,-724.383 2234.3309,-700.9559 2073.7858,-613.5956 1972.2601,-559.5791"/>
<polygon fill="#242424" stroke="#242424" points="1973.7073,-556.3847 1963.2344,-554.7821 1970.4221,-562.5659 1973.7073,-556.3847"/>
</g>
<!-- Ⓜ fast.js/filter.js -->
<g id="node17" class="node">
<title>Ⓜ fast.js/filter.js</title>
<ellipse fill="none" stroke="#0c821d" stroke-width="4" cx="2252.766" cy="-515.5992" rx="108.9199" ry="108.9199"/>
<text text-anchor="middle" x="2252.766" y="-514.3992" font-family="Fira Code" font-size="12.00" fill="#0c821d">Ⓜ fast.js/filter.js</text>
</g>
<!-- filter.js&#45;&gt;Ⓜ fast.js/filter.js -->
<g id="edge38" class="edge">
<title>filter.js&#45;&gt;Ⓜ fast.js/filter.js</title>
<path fill="none" stroke="#242424" d="M2307.2537,-807.045C2298.6776,-761.173 2285.7442,-691.9943 2274.63,-632.5461"/>
<polygon fill="#242424" stroke="#242424" points="2278.07,-631.9003 2272.7918,-622.7138 2271.1892,-633.1867 2278.07,-631.9003"/>
</g>
<!-- chain.js -->
<g id="node10" class="node">
<title>chain.js</title>
<ellipse fill="none" stroke="#242424" stroke-width="4" cx="2180.766" cy="-1495.0139" rx="47.0167" ry="47.0167"/>
<text text-anchor="middle" x="2180.766" y="-1492.6139" font-family="Fira Code" font-size="12.00" fill="#242424">chain.js</text>
</g>
<!-- Ⓜ flatmap&#45;fast/index.js -->
<g id="node11" class="node">
<title>Ⓜ flatmap&#45;fast/index.js</title>
<ellipse fill="none" stroke="#0c821d" stroke-width="4" cx="2022.766" cy="-1199.0423" rx="128.651" ry="128.651"/>
<text text-anchor="middle" x="2022.766" y="-1197.8424" font-family="Fira Code" font-size="12.00" fill="#0c821d">Ⓜ flatmap&#45;fast/index.js</text>
</g>
<!-- chain.js&#45;&gt;Ⓜ flatmap&#45;fast/index.js -->
<g id="edge8" class="edge">
<title>chain.js&#45;&gt;Ⓜ flatmap&#45;fast/index.js</title>
<path fill="none" stroke="#242424" d="M2158.4636,-1453.2361C2140.1633,-1418.9555 2113.2839,-1368.6039 2088.266,-1321.7394"/>
<polygon fill="#242424" stroke="#242424" points="2091.2518,-1319.9004 2083.4549,-1312.727 2085.0766,-1323.197 2091.2518,-1319.9004"/>
</g>
<!-- chain.js&#45;&gt;delegate&#45;fast.js -->
<g id="edge9" class="edge">
<title>chain.js&#45;&gt;delegate&#45;fast.js</title>
<path fill="none" stroke="#242424" d="M2193.0114,-1449.5289C2212.1414,-1369.8164 2242.1917,-1200.9565 2193.766,-1070.4669 2177.6479,-1027.0344 2151.4014,-1030.0544 2125.766,-991.4669 2040.7904,-863.5576 1966.1599,-700.9007 1924.322,-602.6938"/>
<polygon fill="#242424" stroke="#242424" points="1927.5042,-601.233 1920.3763,-593.3945 1921.0603,-603.9672 1927.5042,-601.233"/>
</g>
<!-- delegate&#45;fast.js&#45;&gt;Ⓜ katsu&#45;curry/katsu&#45;curry.js -->
<g id="edge36" class="edge">
<title>delegate&#45;fast.js&#45;&gt;Ⓜ katsu&#45;curry/katsu&#45;curry.js</title>
<path fill="none" stroke="#242424" d="M1841.4438,-446.3012C1826.2481,-425.9497 1808.6853,-404.228 1790.766,-385.8153 1742.933,-336.6652 1684.7778,-288.3441 1633.0669,-248.6036"/>
<polygon fill="#242424" stroke="#242424" points="1634.8949,-245.5954 1624.8255,-242.3004 1630.6423,-251.1556 1634.8949,-245.5954"/>
</g>
<!-- delegate&#45;fast.js&#45;&gt;Ⓜ entrust/entrust.js -->
<g id="edge35" class="edge">
<title>delegate&#45;fast.js&#45;&gt;Ⓜ entrust/entrust.js</title>
<path fill="none" stroke="#242424" d="M1931.0635,-442.8715C1946.2963,-421.9122 1965.1424,-400.7111 1986.766,-385.8153 2196.856,-241.091 2497.1657,-185.4917 2664.0012,-164.8905"/>
<polygon fill="#242424" stroke="#242424" points="2664.7966,-168.3198 2674.3029,-163.642 2663.9544,-161.3706 2664.7966,-168.3198"/>
</g>
<!-- choice.js -->
<g id="node13" class="node">
<title>choice.js</title>
<ellipse fill="none" stroke="#242424" stroke-width="4" cx="1785.766" cy="-1199.0423" rx="51.7142" ry="51.7142"/>
<text text-anchor="middle" x="1785.766" y="-1196.6423" font-family="Fira Code" font-size="12.00" fill="#242424">choice.js</text>
</g>
<!-- choice.js&#45;&gt;Ⓜ katsu&#45;curry/katsu&#45;curry.js -->
<g id="edge10" class="edge">
<title>choice.js&#45;&gt;Ⓜ katsu&#45;curry/katsu&#45;curry.js</title>
<path fill="none" stroke="#242424" d="M1780.63,-1147.2271C1766.5468,-1016.3606 1721.6024,-663.1992 1622.766,-385.8153 1611.9349,-355.4178 1597.7072,-324.0876 1582.7845,-294.6573"/>
<polygon fill="#242424" stroke="#242424" points="1585.8113,-292.8892 1578.134,-285.5879 1579.5824,-296.0832 1585.8113,-292.8892"/>
</g>
<!-- debug.js -->
<g id="node14" class="node">
<title>debug.js</title>
<ellipse fill="none" stroke="#242424" stroke-width="4" cx="1285.766" cy="-1495.0139" rx="47.0167" ry="47.0167"/>
<text text-anchor="middle" x="1285.766" y="-1492.6139" font-family="Fira Code" font-size="12.00" fill="#242424">debug.js</text>
</g>
<!-- debug.js&#45;&gt;ap.js -->
<g id="edge18" class="edge">
<title>debug.js&#45;&gt;ap.js</title>
<path fill="none" stroke="#242424" d="M1239.2671,-1488.0005C1111.7191,-1467.894 760.3491,-1406.403 677.766,-1327.6178 654.5374,-1305.4575 644.1404,-1270.2978 639.4947,-1242.3426"/>
<polygon fill="#242424" stroke="#242424" points="642.951,-1241.7894 638.0302,-1232.4067 636.0259,-1242.8102 642.951,-1241.7894"/>
</g>
<!-- debug.js&#45;&gt;map.js -->
<g id="edge24" class="edge">
<title>debug.js&#45;&gt;map.js</title>
<path fill="none" stroke="#242424" d="M1238.7975,-1490.4002C1097.7228,-1475.5523 682.0151,-1424.2507 593.766,-1327.6178 515.8582,-1242.3087 605.7147,-1174.6417 555.766,-1070.4669 550.6657,-1059.8295 447.2725,-950.6693 392.3685,-893.078"/>
<polygon fill="#242424" stroke="#242424" points="394.7145,-890.4667 385.2798,-885.6463 389.6492,-895.2982 394.7145,-890.4667"/>
</g>
<!-- debug.js&#45;&gt;types.js -->
<g id="edge33" class="edge">
<title>debug.js&#45;&gt;types.js</title>
<path fill="none" stroke="#242424" d="M1300.1115,-1449.9179C1310.8095,-1416.2361 1325.758,-1369.0637 1338.766,-1327.6178 1374.6082,-1213.4181 1344.7628,-1164.5401 1418.766,-1070.4669 1461.0382,-1016.7302 1505.978,-1043.1254 1550.766,-991.4669 1570.1152,-969.1494 1583.4993,-939.1888 1592.318,-913.3015"/>
<polygon fill="#242424" stroke="#242424" points="1595.7076,-914.1961 1595.4773,-903.6037 1589.0519,-912.0278 1595.7076,-914.1961"/>
</g>
<!-- debug.js&#45;&gt;array.js -->
<g id="edge19" class="edge">
<title>debug.js&#45;&gt;array.js</title>
<path fill="none" stroke="#242424" d="M1332.7444,-1490.6121C1541.6153,-1470.7502 2380.1605,-1387.8338 2480.766,-1327.6178 2510.8459,-1309.6139 2534.1867,-1277.9085 2550.086,-1250.488"/>
<polygon fill="#242424" stroke="#242424" points="2553.1432,-1252.192 2554.9857,-1241.7586 2547.039,-1248.7657 2553.1432,-1252.192"/>
</g>
<!-- debug.js&#45;&gt;Ⓜ entrust/entrust.js -->
<g id="edge11" class="edge">
<title>debug.js&#45;&gt;Ⓜ entrust/entrust.js</title>
<path fill="none" stroke="#242424" d="M1322.7423,-1465.5904C1358.4079,-1435.0478 1410.9569,-1383.9232 1438.766,-1327.6178 1490.1802,-1223.5188 1409.1032,-1158.5303 1484.766,-1070.4669 1555.7508,-987.8482 1644.71,-1073.153 1716.766,-991.4669 1796.9385,-900.5794 1693.04,-816.5262 1771.766,-724.383 1836.5418,-648.5675 1905.4321,-709.5472 1981.766,-645.383 2084.275,-559.2168 2031.4905,-471.0614 2134.766,-385.8153 2290.8731,-256.9608 2523.7668,-197.0987 2665.1368,-171.1954"/>
<polygon fill="#242424" stroke="#242424" points="2665.935,-174.608 2675.1549,-169.3886 2664.6924,-167.7192 2665.935,-174.608"/>
</g>
<!-- debug.js&#45;&gt;Ⓜ flatmap&#45;fast/index.js -->
<g id="edge16" class="edge">
<title>debug.js&#45;&gt;Ⓜ flatmap&#45;fast/index.js</title>
<path fill="none" stroke="#242424" d="M1332.0905,-1486.7587C1430.6771,-1468.0166 1666.9352,-1416.8166 1846.766,-1327.6178 1869.9118,-1316.1372 1893.2306,-1301.6345 1914.9839,-1286.5384"/>
<polygon fill="#242424" stroke="#242424" points="1917.0764,-1289.3457 1923.2407,-1280.7287 1913.0483,-1283.6208 1917.0764,-1289.3457"/>
</g>
<!-- debug.js&#45;&gt;delegate&#45;fast.js -->
<g id="edge21" class="edge">
<title>debug.js&#45;&gt;delegate&#45;fast.js</title>
<path fill="none" stroke="#242424" d="M1314.6121,-1457.7772C1338.6526,-1425.1025 1372.1806,-1375.4594 1392.766,-1327.6178 1439.3165,-1219.4319 1378.7298,-1158.6796 1456.766,-1070.4669 1521.737,-997.0231 1595.9602,-1063.2457 1662.766,-991.4669 1747.2756,-900.6663 1689.7288,-836.037 1743.766,-724.383 1766.9194,-676.5424 1800.3791,-627.507 1829.3237,-588.9888"/>
<polygon fill="#242424" stroke="#242424" points="1832.1776,-591.0178 1835.4263,-580.9333 1826.5979,-586.7908 1832.1776,-591.0178"/>
</g>
<!-- debug.js&#45;&gt;choice.js -->
<g id="edge20" class="edge">
<title>debug.js&#45;&gt;choice.js</title>
<path fill="none" stroke="#242424" d="M1332.6221,-1488.9429C1420.3009,-1475.3007 1610.676,-1434.5901 1725.766,-1327.6178 1745.6765,-1309.1116 1759.5706,-1282.669 1768.9354,-1258.5707"/>
<polygon fill="#242424" stroke="#242424" points="1772.2438,-1259.7153 1772.4288,-1249.1221 1765.6781,-1257.2878 1772.2438,-1259.7153"/>
</g>
<!-- Ⓜ fast.js/array/every.js -->
<g id="node15" class="node">
<title>Ⓜ fast.js/array/every.js</title>
<ellipse fill="none" stroke="#0c821d" stroke-width="4" cx="822.766" cy="-857.9249" rx="133.5838" ry="133.5838"/>
<text text-anchor="middle" x="822.766" y="-856.725" font-family="Fira Code" font-size="12.00" fill="#0c821d">Ⓜ fast.js/array/every.js</text>
</g>
<!-- debug.js&#45;&gt;Ⓜ fast.js/array/every.js -->
<g id="edge12" class="edge">
<title>debug.js&#45;&gt;Ⓜ fast.js/array/every.js</title>
<path fill="none" stroke="#242424" d="M1240.528,-1480.901C1133.1762,-1446.984 870.1687,-1361.2211 845.766,-1327.6178 809.2029,-1277.2693 808.0274,-1120.3515 813.0605,-1001.6262"/>
<polygon fill="#242424" stroke="#242424" points="816.5698,-1001.4912 813.5157,-991.3461 809.5767,-1001.1815 816.5698,-1001.4912"/>
</g>
<!-- Ⓜ fast.js/array/some.js -->
<g id="node16" class="node">
<title>Ⓜ fast.js/array/some.js</title>
<ellipse fill="none" stroke="#0c821d" stroke-width="4" cx="1141.766" cy="-857.9249" rx="128.651" ry="128.651"/>
<text text-anchor="middle" x="1141.766" y="-856.725" font-family="Fira Code" font-size="12.00" fill="#0c821d">Ⓜ fast.js/array/some.js</text>
</g>
<!-- debug.js&#45;&gt;Ⓜ fast.js/array/some.js -->
<g id="edge13" class="edge">
<title>debug.js&#45;&gt;Ⓜ fast.js/array/some.js</title>
<path fill="none" stroke="#242424" d="M1248.0928,-1466.646C1223.3121,-1448.5294 1189.8332,-1425.0657 1158.766,-1406.6178 1091.2597,-1366.5322 1042.0416,-1394.4031 1000.766,-1327.6178 940.6805,-1230.3975 967.7707,-1179.8897 1000.766,-1070.4669 1011.9145,-1033.4949 1031.8297,-997.0479 1053.245,-965.0586"/>
<polygon fill="#242424" stroke="#242424" points="1056.2758,-966.8264 1059.0169,-956.5923 1050.492,-962.8833 1056.2758,-966.8264"/>
</g>
<!-- debug.js&#45;&gt;Ⓜ fast.js/filter.js -->
<g id="edge14" class="edge">
<title>debug.js&#45;&gt;Ⓜ fast.js/filter.js</title>
<path fill="none" stroke="#242424" d="M1327.0113,-1472.2492C1373.2325,-1444.4451 1446.6687,-1392.9402 1484.766,-1327.6178 1543.3391,-1227.187 1456.2745,-1158.0238 1532.766,-1070.4669 1606.3701,-986.215 1692.9648,-1070.8792 1771.766,-991.4669 1859.6051,-902.9465 1776.6622,-819.1129 1857.766,-724.383 1908.5679,-665.0459 1945.5778,-681.6421 2014.766,-645.383 2058.8453,-622.2826 2107.1162,-596.1229 2148.5954,-573.3723"/>
<polygon fill="#242424" stroke="#242424" points="2150.5307,-576.3027 2157.612,-568.422 2147.1618,-570.1666 2150.5307,-576.3027"/>
</g>
<!-- debug.js&#45;&gt;Ⓜ fast.js/reduce.js -->
<g id="edge15" class="edge">
<title>debug.js&#45;&gt;Ⓜ fast.js/reduce.js</title>
<path fill="none" stroke="#242424" d="M1245.1568,-1470.9495C1176.9116,-1430.0929 1045.4788,-1349.4597 1033.766,-1327.6178 1006.76,-1277.2572 1000.0981,-1116.6403 1033.766,-1070.4669 1101.422,-977.6809 1212.11,-1084.2528 1279.766,-991.4669 1314.7344,-943.5099 1313.7453,-773.0457 1279.766,-724.383 1226.7131,-648.4047 977.3155,-578.1434 826.8646,-541.6982"/>
<polygon fill="#242424" stroke="#242424" points="827.6424,-538.2855 817.1009,-539.3468 826.0034,-545.0909 827.6424,-538.2855"/>
</g>
<!-- Ⓜ katsu&#45;curry/debug.js -->
<g id="node19" class="node">
<title>Ⓜ katsu&#45;curry/debug.js</title>
<ellipse fill="none" stroke="#0c821d" stroke-width="4" cx="1166.766" cy="-1199.0423" rx="123.7182" ry="123.7182"/>
<text text-anchor="middle" x="1166.766" y="-1197.8424" font-family="Fira Code" font-size="12.00" fill="#0c821d">Ⓜ katsu&#45;curry/debug.js</text>
</g>
<!-- debug.js&#45;&gt;Ⓜ katsu&#45;curry/debug.js -->
<g id="edge17" class="edge">
<title>debug.js&#45;&gt;Ⓜ katsu&#45;curry/debug.js</title>
<path fill="none" stroke="#242424" d="M1268.2071,-1451.3423C1254.598,-1417.4943 1235.0328,-1368.8325 1216.7092,-1323.259"/>
<polygon fill="#242424" stroke="#242424" points="1219.92,-1321.8621 1212.9422,-1313.8897 1213.4253,-1324.4735 1219.92,-1321.8621"/>
</g>
<!-- invert.js -->
<g id="node20" class="node">
<title>invert.js</title>
<ellipse fill="none" stroke="#242424" stroke-width="4" cx="2729.766" cy="-1199.0423" rx="51.7142" ry="51.7142"/>
<text text-anchor="middle" x="2729.766" y="-1196.6423" font-family="Fira Code" font-size="12.00" fill="#242424">invert.js</text>
</g>
<!-- debug.js&#45;&gt;invert.js -->
<g id="edge22" class="edge">
<title>debug.js&#45;&gt;invert.js</title>
<path fill="none" stroke="#242424" d="M1332.5434,-1490.2141C1563.4424,-1466.3927 2572.8929,-1360.6944 2630.766,-1327.6178 2660.5616,-1310.5886 2684.4174,-1280.6527 2701.2398,-1253.9492"/>
<polygon fill="#242424" stroke="#242424" points="2704.2277,-1255.7718 2706.453,-1245.4133 2698.2538,-1252.1233 2704.2277,-1255.7718"/>
</g>
<!-- iterate.js -->
<g id="node21" class="node">
<title>iterate.js</title>
<ellipse fill="none" stroke="#242424" stroke-width="4" cx="2190.766" cy="-857.9249" rx="56.412" ry="56.412"/>
<text text-anchor="middle" x="2190.766" y="-855.525" font-family="Fira Code" font-size="12.00" fill="#242424">iterate.js</text>
</g>
<!-- debug.js&#45;&gt;iterate.js -->
<g id="edge23" class="edge">
<title>debug.js&#45;&gt;iterate.js</title>
<path fill="none" stroke="#242424" d="M1330.7444,-1480.9973C1393.2163,-1459.0334 1504.8582,-1410.2498 1560.766,-1327.6178 1625.7002,-1231.6447 1526.3476,-1156.6856 1603.766,-1070.4669 1690.7266,-973.6212 1763.1857,-1035.231 1885.766,-991.4669 1972.8873,-960.3624 2070.2756,-915.9595 2131.0479,-887.0403"/>
<polygon fill="#242424" stroke="#242424" points="2132.5951,-890.1801 2140.1113,-882.7129 2129.579,-883.8632 2132.5951,-890.1801"/>
</g>
<!-- math.js -->
<g id="node22" class="node">
<title>math.js</title>
<ellipse fill="none" stroke="#242424" stroke-width="4" cx="69.766" cy="-857.9249" rx="42.3196" ry="42.3196"/>
<text text-anchor="middle" x="69.766" y="-855.525" font-family="Fira Code" font-size="12.00" fill="#242424">math.js</text>
</g>
<!-- debug.js&#45;&gt;math.js -->
<g id="edge25" class="edge">
<title>debug.js&#45;&gt;math.js</title>
<path fill="none" stroke="#242424" d="M1238.7778,-1491.7834C1029.0164,-1476.9128 185.0177,-1412.1472 105.766,-1327.6178 77.7346,-1297.7197 71.5292,-1026.6727 70.156,-910.4507"/>
<polygon fill="#242424" stroke="#242424" points="73.6549,-910.3222 70.0444,-900.3616 66.6553,-910.3997 73.6549,-910.3222"/>
</g>
<!-- object.js -->
<g id="node23" class="node">
<title>object.js</title>
<ellipse fill="none" stroke="#242424" stroke-width="4" cx="306.766" cy="-1199.0423" rx="51.7142" ry="51.7142"/>
<text text-anchor="middle" x="306.766" y="-1196.6423" font-family="Fira Code" font-size="12.00" fill="#242424">object.js</text>
</g>
<!-- debug.js&#45;&gt;object.js -->
<g id="edge26" class="edge">
<title>debug.js&#45;&gt;object.js</title>
<path fill="none" stroke="#242424" d="M1238.8561,-1489.1462C1083.2997,-1469.1578 586.2504,-1400.8878 443.766,-1327.6178 405.8491,-1308.1197 370.936,-1275.0129 345.8443,-1247.2774"/>
<polygon fill="#242424" stroke="#242424" points="348.2921,-1244.7629 339.0333,-1239.6127 343.0596,-1249.4127 348.2921,-1244.7629"/>
</g>
<!-- path.js -->
<g id="node24" class="node">
<title>path.js</title>
<ellipse fill="none" stroke="#242424" stroke-width="4" cx="156.766" cy="-1199.0423" rx="42.3196" ry="42.3196"/>
<text text-anchor="middle" x="156.766" y="-1196.6423" font-family="Fira Code" font-size="12.00" fill="#242424">path.js</text>
</g>
<!-- debug.js&#45;&gt;path.js -->
<g id="edge27" class="edge">
<title>debug.js&#45;&gt;path.js</title>
<path fill="none" stroke="#242424" d="M1238.7244,-1492.3029C1058.7619,-1481.2036 415.5563,-1434.6497 245.766,-1327.6178 215.6412,-1308.6278 193.0213,-1275.3417 178.1245,-1247.3956"/>
<polygon fill="#242424" stroke="#242424" points="181.0558,-1245.4425 173.3689,-1238.1513 174.8312,-1248.6447 181.0558,-1245.4425"/>
</g>
<!-- range.js -->
<g id="node25" class="node">
<title>range.js</title>
<ellipse fill="none" stroke="#242424" stroke-width="4" cx="499.766" cy="-1199.0423" rx="47.0167" ry="47.0167"/>
<text text-anchor="middle" x="499.766" y="-1196.6423" font-family="Fira Code" font-size="12.00" fill="#242424">range.js</text>
</g>
<!-- debug.js&#45;&gt;range.js -->
<g id="edge28" class="edge">
<title>debug.js&#45;&gt;range.js</title>
<path fill="none" stroke="#242424" d="M1238.8397,-1489.5462C1095.6505,-1472.055 667.5917,-1413.5389 560.766,-1327.6178 537.9757,-1309.2873 523.2191,-1280.4168 513.9396,-1254.6735"/>
<polygon fill="#242424" stroke="#242424" points="517.1794,-1253.3292 510.646,-1244.9886 510.5521,-1255.5831 517.1794,-1253.3292"/>
</g>
<!-- reject.js -->
<g id="node26" class="node">
<title>reject.js</title>
<ellipse fill="none" stroke="#242424" stroke-width="4" cx="1664.766" cy="-1199.0423" rx="51.7142" ry="51.7142"/>
<text text-anchor="middle" x="1664.766" y="-1196.6423" font-family="Fira Code" font-size="12.00" fill="#242424">reject.js</text>
</g>
<!-- debug.js&#45;&gt;reject.js -->
<g id="edge29" class="edge">
<title>debug.js&#45;&gt;reject.js</title>
<path fill="none" stroke="#242424" d="M1330.7572,-1480.7131C1396.8207,-1457.7584 1520.6721,-1407.0398 1598.766,-1327.6178 1618.179,-1307.8746 1633.1193,-1281.2614 1643.8358,-1257.3695"/>
<polygon fill="#242424" stroke="#242424" points="1647.1217,-1258.589 1647.8807,-1248.0214 1640.6973,-1255.8092 1647.1217,-1258.589"/>
</g>
<!-- string.js -->
<g id="node27" class="node">
<title>string.js</title>
<ellipse fill="none" stroke="#242424" stroke-width="4" cx="2725.766" cy="-515.5992" rx="51.7142" ry="51.7142"/>
<text text-anchor="middle" x="2725.766" y="-513.1992" font-family="Fira Code" font-size="12.00" fill="#242424">string.js</text>
</g>
<!-- debug.js&#45;&gt;string.js -->
<g id="edge30" class="edge">
<title>debug.js&#45;&gt;string.js</title>
<path fill="none" stroke="#242424" d="M1329.4799,-1477.2608C1384.401,-1452.4932 1476.9882,-1402.0695 1522.766,-1327.6178 1583.2782,-1229.2026 1484.9851,-1157.6709 1560.766,-1070.4669 1642.2193,-976.7353 1720.3619,-1052.0375 1828.766,-991.4669 1983.739,-904.8759 1971.8992,-812.9247 2125.766,-724.383 2224.9295,-667.32 2262.5744,-682.5875 2370.766,-645.383 2476.1137,-609.1565 2597.8551,-563.9029 2667.9195,-537.5258"/>
<polygon fill="#242424" stroke="#242424" points="2669.3325,-540.7337 2677.4558,-533.9321 2666.864,-534.1834 2669.3325,-540.7337"/>
</g>
<!-- ternary.js -->
<g id="node28" class="node">
<title>ternary.js</title>
<ellipse fill="none" stroke="#242424" stroke-width="4" cx="742.766" cy="-1199.0423" rx="56.412" ry="56.412"/>
<text text-anchor="middle" x="742.766" y="-1196.6423" font-family="Fira Code" font-size="12.00" fill="#242424">ternary.js</text>
</g>
<!-- debug.js&#45;&gt;ternary.js -->
<g id="edge31" class="edge">
<title>debug.js&#45;&gt;ternary.js</title>
<path fill="none" stroke="#242424" d="M1240.5642,-1481.0524C1128.9214,-1446.2846 846.6909,-1356.5535 812.766,-1327.6178 792.1951,-1310.0722 776.6331,-1284.9067 765.4692,-1261.4837"/>
<polygon fill="#242424" stroke="#242424" points="768.5972,-1259.9077 761.2545,-1252.27 762.2316,-1262.8196 768.5972,-1259.9077"/>
</g>
<!-- triplet.js -->
<g id="node29" class="node">
<title>triplet.js</title>
<ellipse fill="none" stroke="#242424" stroke-width="4" cx="1382.766" cy="-857.9249" rx="56.412" ry="56.412"/>
<text text-anchor="middle" x="1382.766" y="-855.525" font-family="Fira Code" font-size="12.00" fill="#242424">triplet.js</text>
</g>
<!-- debug.js&#45;&gt;triplet.js -->
<g id="edge32" class="edge">
<title>debug.js&#45;&gt;triplet.js</title>
<path fill="none" stroke="#242424" d="M1291.2478,-1448.0931C1300.5895,-1369.701 1320.7341,-1207.2127 1342.766,-1070.4669 1350.7556,-1020.8772 1361.3179,-965.076 1369.5824,-923.0966"/>
<polygon fill="#242424" stroke="#242424" points="1373.0177,-923.766 1371.5232,-913.2771 1366.1506,-922.4086 1373.0177,-923.766"/>
</g>
<!-- which.js -->
<g id="node30" class="node">
<title>which.js</title>
<ellipse fill="none" stroke="#242424" stroke-width="4" cx="901.766" cy="-1199.0423" rx="47.0167" ry="47.0167"/>
<text text-anchor="middle" x="901.766" y="-1196.6423" font-family="Fira Code" font-size="12.00" fill="#242424">which.js</text>
</g>
<!-- debug.js&#45;&gt;which.js -->
<g id="edge34" class="edge">
<title>debug.js&#45;&gt;which.js</title>
<path fill="none" stroke="#242424" d="M1248.5775,-1465.7911C1223.9928,-1447.3285 1190.5504,-1423.8006 1158.766,-1406.6178 1076.1453,-1361.9528 1031.1351,-1392.0134 962.766,-1327.6178 941.7148,-1307.7901 927.1617,-1279.2154 917.5653,-1254.037"/>
<polygon fill="#242424" stroke="#242424" points="920.8329,-1252.7812 914.1268,-1244.5788 914.2541,-1255.1729 920.8329,-1252.7812"/>
</g>
<!-- invert.js&#45;&gt;Ⓜ katsu&#45;curry/katsu&#45;curry.js -->
<g id="edge72" class="edge">
<title>invert.js&#45;&gt;Ⓜ katsu&#45;curry/katsu&#45;curry.js</title>
<path fill="none" stroke="#242424" d="M2726.0471,-1147.4379C2713.2126,-984.9075 2665.0719,-488.3072 2549.766,-385.8153 2419.8711,-270.3557 1923.6076,-199.9165 1662.5325,-170.079"/>
<polygon fill="#242424" stroke="#242424" points="1662.9106,-166.5995 1652.5793,-168.9481 1662.1203,-173.5548 1662.9106,-166.5995"/>
</g>
<!-- iterate.js&#45;&gt;Ⓜ katsu&#45;curry/katsu&#45;curry.js -->
<g id="edge73" class="edge">
<title>iterate.js&#45;&gt;Ⓜ katsu&#45;curry/katsu&#45;curry.js</title>
<path fill="none" stroke="#242424" d="M2179.5246,-802.8511C2157.3592,-706.8581 2099.5945,-507.5397 1981.766,-385.8153 1893.0275,-294.1427 1760.7788,-233.9421 1657.2436,-197.8294"/>
<polygon fill="#242424" stroke="#242424" points="1658.2278,-194.4666 1647.6331,-194.5175 1655.9471,-201.0847 1658.2278,-194.4666"/>
</g>
<!-- math.js&#45;&gt;Ⓜ katsu&#45;curry/katsu&#45;curry.js -->
<g id="edge84" class="edge">
<title>math.js&#45;&gt;Ⓜ katsu&#45;curry/katsu&#45;curry.js</title>
<path fill="none" stroke="#242424" d="M60.1569,-816.5169C41.6495,-725.1802 12.2482,-505.0955 125.766,-385.8153 289.293,-213.9873 1008.4816,-169.0333 1336.1214,-157.4034"/>
<polygon fill="#242424" stroke="#242424" points="1336.3056,-160.8992 1346.1775,-157.0526 1336.0615,-153.9035 1336.3056,-160.8992"/>
</g>
<!-- object.js&#45;&gt;Ⓜ katsu&#45;curry/katsu&#45;curry.js -->
<g id="edge85" class="edge">
<title>object.js&#45;&gt;Ⓜ katsu&#45;curry/katsu&#45;curry.js</title>
<path fill="none" stroke="#242424" d="M293.2373,-1149.1367C251.5847,-990.6186 133.7925,-502.1616 230.766,-385.8153 369.6777,-219.1526 1025.1234,-171.6402 1335.7344,-158.3875"/>
<polygon fill="#242424" stroke="#242424" points="1336.3391,-161.8653 1346.1835,-157.949 1336.0455,-154.8714 1336.3391,-161.8653"/>
</g>
<!-- object.js&#45;&gt;map.js -->
<g id="edge86" class="edge">
<title>object.js&#45;&gt;map.js</title>
<path fill="none" stroke="#242424" d="M314.5509,-1147.9736C324.5348,-1082.4797 341.7199,-969.7462 351.4646,-905.8217"/>
<polygon fill="#242424" stroke="#242424" points="354.9733,-906.0292 353.0204,-895.616 348.0533,-904.9743 354.9733,-906.0292"/>
</g>
<!-- object.js&#45;&gt;reduce.js -->
<g id="edge87" class="edge">
<title>object.js&#45;&gt;reduce.js</title>
<path fill="none" stroke="#242424" d="M339.2734,-1158.5721C389.9472,-1095.4856 487.5792,-973.9382 541.8975,-906.3144"/>
<polygon fill="#242424" stroke="#242424" points="544.7673,-908.3307 548.3009,-898.3425 539.3098,-903.947 544.7673,-908.3307"/>
</g>
<!-- path.js&#45;&gt;Ⓜ katsu&#45;curry/katsu&#45;curry.js -->
<g id="edge88" class="edge">
<title>path.js&#45;&gt;Ⓜ katsu&#45;curry/katsu&#45;curry.js</title>
<path fill="none" stroke="#242424" d="M154.0283,-1156.6836C144.187,-997.9953 113.7552,-444.7601 163.766,-385.8153 312.6047,-210.3879 1012.857,-167.3605 1335.8333,-156.8204"/>
<polygon fill="#242424" stroke="#242424" points="1336.337,-160.3061 1346.2201,-156.4884 1336.1133,-153.3097 1336.337,-160.3061"/>
</g>
<!-- path.js&#45;&gt;reduce.js -->
<g id="edge90" class="edge">
<title>path.js&#45;&gt;reduce.js</title>
<path fill="none" stroke="#242424" d="M176.1351,-1161.1208C191.8789,-1133.2371 216.2723,-1095.9192 245.766,-1070.4669 305.8068,-1018.653 338.3728,-1033.2728 405.766,-991.4669 451.1657,-963.3041 499.1659,-926.0782 533.3888,-898.0851"/>
<polygon fill="#242424" stroke="#242424" points="535.8461,-900.5958 541.3455,-891.54 531.3992,-895.1897 535.8461,-900.5958"/>
</g>
<!-- path.js&#45;&gt;math.js -->
<g id="edge89" class="edge">
<title>path.js&#45;&gt;math.js</title>
<path fill="none" stroke="#242424" d="M146.2718,-1157.8956C130.3665,-1095.5327 100.1795,-977.1731 82.8594,-909.2628"/>
<polygon fill="#242424" stroke="#242424" points="86.1603,-908.0424 80.2974,-899.2176 79.3774,-909.7724 86.1603,-908.0424"/>
</g>
<!-- range.js&#45;&gt;Ⓜ katsu&#45;curry/katsu&#45;curry.js -->
<g id="edge98" class="edge">
<title>range.js&#45;&gt;Ⓜ katsu&#45;curry/katsu&#45;curry.js</title>
<path fill="none" stroke="#242424" d="M497.1482,-1152.0703C494.9428,-1110.0109 491.9616,-1046.6429 490.766,-991.4669 488.1944,-872.7908 475.3888,-842.0867 490.766,-724.383 495.4723,-688.3587 504.4561,-680.9705 511.766,-645.383 523.4956,-588.2787 510.5385,-428.9394 549.766,-385.8153 654.2172,-270.9886 1094.072,-201.6313 1336.944,-171.3675"/>
<polygon fill="#242424" stroke="#242424" points="1337.4344,-174.8336 1346.9287,-170.1315 1336.5744,-167.8866 1337.4344,-174.8336"/>
</g>
<!-- reject.js&#45;&gt;Ⓜ katsu&#45;curry/katsu&#45;curry.js -->
<g id="edge101" class="edge">
<title>reject.js&#45;&gt;Ⓜ katsu&#45;curry/katsu&#45;curry.js</title>
<path fill="none" stroke="#242424" d="M1669.0124,-1147.4506C1675.2207,-1059.9397 1683.8906,-877.0291 1662.766,-724.383 1641.3582,-569.6908 1611.8801,-535.9124 1568.766,-385.8153 1561.7338,-361.3334 1554.1703,-335.4385 1546.7198,-310.1667"/>
<polygon fill="#242424" stroke="#242424" points="1550.059,-309.1159 1543.8712,-300.5158 1543.3453,-311.0976 1550.059,-309.1159"/>
</g>
<!-- reject.js&#45;&gt;filter.js -->
<g id="edge102" class="edge">
<title>reject.js&#45;&gt;filter.js</title>
<path fill="none" stroke="#242424" d="M1675.9136,-1148.573C1684.6107,-1121.2132 1699.5921,-1089.2466 1724.766,-1070.4669 1916.0105,-927.7982 2065.1032,-1134.912 2255.766,-991.4669 2279.3482,-973.7248 2294.0768,-944.7153 2303.1365,-918.2594"/>
<polygon fill="#242424" stroke="#242424" points="2306.496,-919.245 2306.2237,-908.6537 2299.8318,-917.1031 2306.496,-919.245"/>
</g>
<!-- string.js&#45;&gt;Ⓜ katsu&#45;curry/katsu&#45;curry.js -->
<g id="edge104" class="edge">
<title>string.js&#45;&gt;Ⓜ katsu&#45;curry/katsu&#45;curry.js</title>
<path fill="none" stroke="#242424" d="M2712.2162,-465.6974C2702.1716,-438.0715 2685.6435,-405.4483 2659.766,-385.8153 2504.8026,-268.2466 1944.1377,-197.4262 1662.9427,-168.5376"/>
<polygon fill="#242424" stroke="#242424" points="1662.9511,-165.0203 1652.6471,-167.4858 1662.2396,-171.9841 1662.9511,-165.0203"/>
</g>
<!-- string.js&#45;&gt;Ⓜ entrust/entrust.js -->
<g id="edge103" class="edge">
<title>string.js&#45;&gt;Ⓜ entrust/entrust.js</title>
<path fill="none" stroke="#242424" d="M2734.5176,-464.4742C2742.8664,-415.7017 2755.7658,-340.3466 2766.7772,-276.0201"/>
<polygon fill="#242424" stroke="#242424" points="2770.2897,-276.2438 2768.5272,-265.7966 2763.3901,-275.0626 2770.2897,-276.2438"/>
</g>
<!-- ternary.js&#45;&gt;Ⓜ katsu&#45;curry/katsu&#45;curry.js -->
<g id="edge105" class="edge">
<title>ternary.js&#45;&gt;Ⓜ katsu&#45;curry/katsu&#45;curry.js</title>
<path fill="none" stroke="#242424" d="M716.8126,-1149.0928C673.2679,-1057.6926 597.9102,-860.4325 679.766,-724.383 718.4082,-660.1572 770.4772,-692.5062 828.766,-645.383 945.9218,-550.6693 928.974,-479.7367 1046.766,-385.8153 1137.7209,-313.2924 1254.8785,-253.9141 1347.2604,-213.332"/>
<polygon fill="#242424" stroke="#242424" points="1348.9233,-216.4251 1356.6888,-209.2176 1346.1236,-210.0094 1348.9233,-216.4251"/>
</g>
<!-- triplet.js&#45;&gt;Ⓜ katsu&#45;curry/katsu&#45;curry.js -->
<g id="edge106" class="edge">
<title>triplet.js&#45;&gt;Ⓜ katsu&#45;curry/katsu&#45;curry.js</title>
<path fill="none" stroke="#242424" d="M1391.9956,-802.3485C1409.2482,-698.462 1446.98,-471.2591 1472.8857,-315.2675"/>
<polygon fill="#242424" stroke="#242424" points="1476.389,-315.536 1474.5747,-305.0977 1469.4836,-314.3891 1476.389,-315.536"/>
</g>
<!-- which.js&#45;&gt;Ⓜ katsu&#45;curry/katsu&#45;curry.js -->
<g id="edge110" class="edge">
<title>which.js&#45;&gt;Ⓜ katsu&#45;curry/katsu&#45;curry.js</title>
<path fill="none" stroke="#242424" d="M917.69,-1154.6455C932.0956,-1112.985 952.9572,-1048.6921 965.766,-991.4669 991.9551,-874.4626 953.9703,-833.4529 1003.766,-724.383 1089.6116,-536.3514 1257.4302,-363.6687 1373.9486,-258.5573"/>
<polygon fill="#242424" stroke="#242424" points="1376.4467,-261.018 1381.5478,-251.732 1371.7693,-255.8101 1376.4467,-261.018"/>
</g>
<!-- which.js&#45;&gt;Ⓜ fast.js/array/every.js -->
<g id="edge108" class="edge">
<title>which.js&#45;&gt;Ⓜ fast.js/array/every.js</title>
<path fill="none" stroke="#242424" d="M891.1117,-1153.0377C881.8941,-1113.2368 868.0686,-1053.5389 855.2588,-998.2268"/>
<polygon fill="#242424" stroke="#242424" points="858.6296,-997.2689 852.9636,-988.3165 851.8101,-998.8483 858.6296,-997.2689"/>
</g>
<!-- which.js&#45;&gt;Ⓜ fast.js/array/some.js -->
<g id="edge109" class="edge">
<title>which.js&#45;&gt;Ⓜ fast.js/array/some.js</title>
<path fill="none" stroke="#242424" d="M919.1811,-1155.3009C930.1731,-1129.7133 945.5277,-1097.2747 962.766,-1070.4669 987.3877,-1032.1769 1018.1788,-993.2365 1047.2458,-959.3278"/>
<polygon fill="#242424" stroke="#242424" points="1049.9248,-961.5806 1053.8079,-951.723 1044.625,-957.0075 1049.9248,-961.5806"/>
</g>
<!-- which.js&#45;&gt;triplet.js -->
<g id="edge112" class="edge">
<title>which.js&#45;&gt;triplet.js</title>
<path fill="none" stroke="#242424" d="M931.2609,-1162.1463C955.9244,-1133.5025 993.4664,-1094.7056 1033.766,-1070.4669 1132.1706,-1011.2799 1185.7931,-1057.4644 1279.766,-991.4669 1307.8729,-971.7273 1331.848,-942.0385 1349.5764,-915.6631"/>
<polygon fill="#242424" stroke="#242424" points="1352.5485,-917.5134 1355.1102,-907.2329 1346.6966,-913.672 1352.5485,-917.5134"/>
</g>
<!-- flip.js -->
<g id="node32" class="node">
<title>flip.js</title>
<ellipse fill="none" stroke="#242424" stroke-width="4" cx="1499.766" cy="-857.9249" rx="42.3196" ry="42.3196"/>
<text text-anchor="middle" x="1499.766" y="-855.525" font-family="Fira Code" font-size="12.00" fill="#242424">flip.js</text>
</g>
<!-- which.js&#45;&gt;flip.js -->
<g id="edge111" class="edge">
<title>which.js&#45;&gt;flip.js</title>
<path fill="none" stroke="#242424" d="M930.0043,-1161.3825C954.2205,-1131.9026 991.778,-1092.3479 1033.766,-1070.4669 1199.8828,-983.899 1303.7757,-1111.2816 1447.766,-991.4669 1472.0382,-971.2699 1485.0245,-938.2771 1491.9495,-910.1397"/>
<polygon fill="#242424" stroke="#242424" points="1495.4447,-910.5514 1494.2362,-900.0257 1488.617,-909.0076 1495.4447,-910.5514"/>
</g>
<!-- either.js -->
<g id="node31" class="node">
<title>either.js</title>
<ellipse fill="none" stroke="#242424" stroke-width="4" cx="2885.766" cy="-515.5992" rx="51.7142" ry="51.7142"/>
<text text-anchor="middle" x="2885.766" y="-513.1992" font-family="Fira Code" font-size="12.00" fill="#242424">either.js</text>
</g>
<!-- either.js&#45;&gt;Ⓜ entrust/entrust.js -->
<g id="edge37" class="edge">
<title>either.js&#45;&gt;Ⓜ entrust/entrust.js</title>
<path fill="none" stroke="#242424" d="M2872.2424,-465.6183C2858.8824,-416.242 2837.9387,-338.8374 2820.248,-273.4559"/>
<polygon fill="#242424" stroke="#242424" points="2823.5412,-272.226 2817.5508,-263.4873 2816.7842,-274.0544 2823.5412,-272.226"/>
</g>
<!-- flip.js&#45;&gt;Ⓜ katsu&#45;curry/katsu&#45;curry.js -->
<g id="edge40" class="edge">
<title>flip.js&#45;&gt;Ⓜ katsu&#45;curry/katsu&#45;curry.js</title>
<path fill="none" stroke="#242424" d="M1499.766,-815.4408C1499.766,-719.1351 1499.766,-479.954 1499.766,-317.0688"/>
<polygon fill="#242424" stroke="#242424" points="1503.2661,-316.94 1499.766,-306.94 1496.2661,-316.9401 1503.2661,-316.94"/>
</g>
<!-- future.js -->
<g id="node33" class="node">
<title>future.js</title>
<ellipse fill="none" stroke="#242424" stroke-width="4" cx="3041.766" cy="-515.5992" rx="51.7142" ry="51.7142"/>
<text text-anchor="middle" x="3041.766" y="-513.1992" font-family="Fira Code" font-size="12.00" fill="#242424">future.js</text>
</g>
<!-- future.js&#45;&gt;Ⓜ entrust/entrust.js -->
<g id="edge41" class="edge">
<title>future.js&#45;&gt;Ⓜ entrust/entrust.js</title>
<path fill="none" stroke="#242424" d="M3012.1319,-473.3423C2974.8335,-420.1568 2909.5339,-327.0427 2858.9661,-254.9355"/>
<polygon fill="#242424" stroke="#242424" points="2861.7949,-252.8735 2853.1876,-246.6957 2856.0638,-256.8927 2861.7949,-252.8735"/>
</g>
<!-- index.js -->
<g id="node34" class="node">
<title>index.js</title>
<ellipse fill="none" stroke="#242424" stroke-width="4" cx="2142.766" cy="-1709.4183" rx="47.0167" ry="47.0167"/>
<text text-anchor="middle" x="2142.766" y="-1707.0183" font-family="Fira Code" font-size="12.00" fill="#242424">index.js</text>
</g>
<!-- index.js&#45;&gt;../package.json -->
<g id="edge43" class="edge">
<title>index.js&#45;&gt;../package.json</title>
<path fill="none" stroke="#242424" d="M2189.9739,-1708.0039C2372.9476,-1701.8998 3034.4175,-1673.8874 3220.766,-1583.41 3231.4191,-1578.2376 3241.5366,-1571.2412 3250.8612,-1563.436"/>
<polygon fill="#242424" stroke="#242424" points="3253.3071,-1565.9458 3258.5016,-1556.7118 3248.6824,-1560.691 3253.3071,-1565.9458"/>
</g>
<!-- index.js&#45;&gt;ap.js -->
<g id="edge44" class="edge">
<title>index.js&#45;&gt;ap.js</title>
<path fill="none" stroke="#242424" d="M2095.722,-1707.2769C1875.4132,-1696.927 951.8067,-1649.854 842.766,-1583.41 716.95,-1506.744 662.8524,-1324.882 644.1012,-1241.7898"/>
<polygon fill="#242424" stroke="#242424" points="647.4982,-1240.9408 641.9367,-1231.923 640.6608,-1242.4407 647.4982,-1240.9408"/>
</g>
<!-- index.js&#45;&gt;Ⓜ katsu&#45;curry/katsu&#45;curry.js -->
<g id="edge42" class="edge">
<title>index.js&#45;&gt;Ⓜ katsu&#45;curry/katsu&#45;curry.js</title>
<path fill="none" stroke="#242424" d="M2095.5001,-1708.4938C1845.8695,-1703.2385 687.4461,-1674.0837 558.766,-1583.41 456.8745,-1511.6128 469.9026,-1449.4931 443.766,-1327.6178 419.8011,-1215.8693 438.1112,-1184.6162 443.766,-1070.4669 444.7116,-1051.3786 499.1729,-400.1914 511.766,-385.8153 618.8956,-263.5175 1084.9518,-196.7727 1336.8129,-169.0384"/>
<polygon fill="#242424" stroke="#242424" points="1337.2308,-172.5136 1346.7913,-167.9477 1336.4701,-165.5551 1337.2308,-172.5136"/>
</g>
<!-- index.js&#45;&gt;map.js -->
<g id="edge55" class="edge">
<title>index.js&#45;&gt;map.js</title>
<path fill="none" stroke="#242424" d="M2095.5819,-1707.7135C1824.1966,-1697.6939 472.0904,-1644.8002 410.766,-1583.41 398.7452,-1571.3763 370.1097,-1065.4233 361.3539,-905.7089"/>
<polygon fill="#242424" stroke="#242424" points="364.8474,-905.4923 360.8063,-895.6985 357.8578,-905.8747 364.8474,-905.4923"/>
</g>
<!-- index.js&#45;&gt;reduce.js -->
<g id="edge65" class="edge">
<title>index.js&#45;&gt;reduce.js</title>
<path fill="none" stroke="#242424" d="M2111.1365,-1674.6243C2055.2604,-1610.9869 1939.8003,-1469.3045 1884.766,-1327.6178 1863.851,-1273.7719 1889.1957,-1109.6656 1846.766,-1070.4669 1655.8447,-894.0836 907.8451,-1116.134 679.766,-991.4669 648.3456,-974.2926 624.1271,-942.3976 607.5099,-914.0849"/>
<polygon fill="#242424" stroke="#242424" points="610.3594,-912.0143 602.3824,-905.0416 604.2701,-915.4669 610.3594,-912.0143"/>
</g>
<!-- index.js&#45;&gt;types.js -->
<g id="edge70" class="edge">
<title>index.js&#45;&gt;types.js</title>
<path fill="none" stroke="#242424" d="M2176.7071,-1676.5671C2198.5132,-1652.9806 2224.9016,-1619.1567 2236.766,-1583.41 2273.3029,-1473.3269 2196.4997,-1073.88 2193.766,-1070.4669 2125.0068,-984.6186 1796.3066,-901.2984 1663.059,-870.4589"/>
<polygon fill="#242424" stroke="#242424" points="1663.5811,-866.9877 1653.0509,-868.1564 1662.0115,-873.8095 1663.5811,-866.9877"/>
</g>
<!-- index.js&#45;&gt;array.js -->
<g id="edge45" class="edge">
<title>index.js&#45;&gt;array.js</title>
<path fill="none" stroke="#242424" d="M2189.0208,-1700.9457C2282.4635,-1682.8469 2488.614,-1637.6128 2532.766,-1583.41 2609.1997,-1489.5768 2598.8068,-1337.2721 2585.9742,-1255.3923"/>
<polygon fill="#242424" stroke="#242424" points="2589.389,-1254.5869 2584.3208,-1245.2829 2582.4808,-1255.7167 2589.389,-1254.5869"/>
</g>
<!-- index.js&#45;&gt;filter.js -->
<g id="edge49" class="edge">
<title>index.js&#45;&gt;filter.js</title>
<path fill="none" stroke="#242424" d="M2189.4538,-1702.0331C2290.2814,-1685.1442 2523.5925,-1640.7012 2576.766,-1583.41 2655.808,-1498.247 2618.7008,-1443.1808 2630.766,-1327.6178 2642.6337,-1213.9463 2688.2459,-1169.25 2630.766,-1070.4669 2595.0284,-1009.0493 2551.0347,-1030.6652 2491.766,-991.4669 2447.2047,-961.9955 2399.1273,-924.8901 2364.6615,-897.2761"/>
<polygon fill="#242424" stroke="#242424" points="2366.6292,-894.3672 2356.6435,-890.8266 2362.2418,-899.8216 2366.6292,-894.3672"/>
</g>
<!-- index.js&#45;&gt;chain.js -->
<g id="edge46" class="edge">
<title>index.js&#45;&gt;chain.js</title>
<path fill="none" stroke="#242424" d="M2151.0114,-1662.8958C2156.8126,-1630.164 2164.6083,-1586.179 2170.7649,-1551.4424"/>
<polygon fill="#242424" stroke="#242424" points="2174.2377,-1551.9031 2172.5366,-1541.4457 2167.3451,-1550.6814 2174.2377,-1551.9031"/>
</g>
<!-- index.js&#45;&gt;choice.js -->
<g id="edge47" class="edge">
<title>index.js&#45;&gt;choice.js</title>
<path fill="none" stroke="#242424" d="M2096.1506,-1703.1053C2030.6697,-1691.6259 1912.6605,-1660.8908 1851.766,-1583.41 1778.1421,-1489.7326 1774.5499,-1343.223 1779.4986,-1260.7785"/>
<polygon fill="#242424" stroke="#242424" points="1783.0068,-1260.7704 1780.1757,-1250.5608 1776.0221,-1260.3075 1783.0068,-1260.7704"/>
</g>
<!-- index.js&#45;&gt;invert.js -->
<g id="edge52" class="edge">
<title>index.js&#45;&gt;invert.js</title>
<path fill="none" stroke="#242424" d="M2189.6477,-1704.6103C2305.1565,-1691.7851 2598.7826,-1652.9173 2663.766,-1583.41 2745.8841,-1495.5751 2745.8305,-1344.6293 2738.0944,-1260.4059"/>
<polygon fill="#242424" stroke="#242424" points="2741.5551,-1259.8337 2737.0917,-1250.2249 2734.5888,-1260.5198 2741.5551,-1259.8337"/>
</g>
<!-- index.js&#45;&gt;iterate.js -->
<g id="edge53" class="edge">
<title>index.js&#45;&gt;iterate.js</title>
<path fill="none" stroke="#242424" d="M2182.375,-1683.4908C2212.6739,-1661.0903 2252.151,-1625.7016 2269.766,-1583.41 2313.5934,-1478.1851 2289.9413,-1182.6545 2269.766,-1070.4669 2260.1789,-1017.1567 2238.076,-959.7533 2219.6806,-918.0568"/>
<polygon fill="#242424" stroke="#242424" points="2222.8527,-916.5765 2215.5775,-908.8744 2216.4617,-919.4323 2222.8527,-916.5765"/>
</g>
<!-- index.js&#45;&gt;math.js -->
<g id="edge56" class="edge">
<title>index.js&#45;&gt;math.js</title>
<path fill="none" stroke="#242424" d="M2095.4214,-1708.0677C1798.4832,-1699.3983 202.9233,-1649.8226 125.766,-1583.41 -72.723,-1412.5622 13.5412,-1042.6533 53.5335,-908.129"/>
<polygon fill="#242424" stroke="#242424" points="56.9074,-909.0634 56.4438,-898.4787 50.2055,-907.0422 56.9074,-909.0634"/>
</g>
<!-- index.js&#45;&gt;object.js -->
<g id="edge57" class="edge">
<title>index.js&#45;&gt;object.js</title>
<path fill="none" stroke="#242424" d="M2095.5371,-1707.6902C1820.8179,-1697.4354 438.5587,-1642.9927 372.766,-1583.41 326.2342,-1541.2702 312.4839,-1358.5 308.439,-1260.9459"/>
<polygon fill="#242424" stroke="#242424" points="311.935,-1260.7738 308.045,-1250.9189 304.9404,-1261.0487 311.935,-1260.7738"/>
</g>
<!-- index.js&#45;&gt;path.js -->
<g id="edge58" class="edge">
<title>index.js&#45;&gt;path.js</title>
<path fill="none" stroke="#242424" d="M2095.5654,-1708.0739C1804.7543,-1699.5795 266.4054,-1651.5176 195.766,-1583.41 105.9591,-1496.8218 126.0614,-1333.1634 143.7721,-1250.1285"/>
<polygon fill="#242424" stroke="#242424" points="147.2324,-1250.6899 145.9676,-1240.1708 140.3965,-1249.1827 147.2324,-1250.6899"/>
</g>
<!-- index.js&#45;&gt;range.js -->
<g id="edge64" class="edge">
<title>index.js&#45;&gt;range.js</title>
<path fill="none" stroke="#242424" d="M2095.6192,-1707.8785C1860.2652,-1699.8517 819.076,-1660.2063 698.766,-1583.41 582.2426,-1509.0308 530.4249,-1343.0603 510.4896,-1255.5469"/>
<polygon fill="#242424" stroke="#242424" points="513.8508,-1254.537 508.2695,-1245.5315 507.0166,-1256.052 513.8508,-1254.537"/>
</g>
<!-- index.js&#45;&gt;reject.js -->
<g id="edge66" class="edge">
<title>index.js&#45;&gt;reject.js</title>
<path fill="none" stroke="#242424" d="M2095.586,-1706.3447C2018.7146,-1698.7842 1866.4371,-1672.7453 1780.766,-1583.41 1695.4336,-1494.4279 1672.6418,-1344.9228 1666.7048,-1261.0026"/>
<polygon fill="#242424" stroke="#242424" points="1670.1865,-1260.6059 1666.0466,-1250.8534 1663.2012,-1261.059 1670.1865,-1260.6059"/>
</g>
<!-- index.js&#45;&gt;string.js -->
<g id="edge67" class="edge">
<title>index.js&#45;&gt;string.js</title>
<path fill="none" stroke="#242424" d="M2189.6851,-1706.4852C2320.1163,-1697.3519 2682.7684,-1664.9894 2763.766,-1583.41 2904.7464,-1441.417 2781.1305,-780.4295 2738.7547,-576.0053"/>
<polygon fill="#242424" stroke="#242424" points="2742.1461,-575.1229 2736.6797,-566.0472 2735.2933,-576.5509 2742.1461,-575.1229"/>
</g>
<!-- index.js&#45;&gt;ternary.js -->
<g id="edge68" class="edge">
<title>index.js&#45;&gt;ternary.js</title>
<path fill="none" stroke="#242424" d="M2095.7233,-1708.8242C1907.121,-1705.7407 1206.7291,-1687.3719 1015.766,-1583.41 886.0636,-1512.799 803.5803,-1350.794 766.1838,-1261.2962"/>
<polygon fill="#242424" stroke="#242424" points="769.3209,-1259.7225 762.2754,-1251.8098 762.8487,-1262.3891 769.3209,-1259.7225"/>
</g>
<!-- index.js&#45;&gt;triplet.js -->
<g id="edge69" class="edge">
<title>index.js&#45;&gt;triplet.js</title>
<path fill="none" stroke="#242424" d="M2096.1958,-1701.8056C1993.0085,-1684.1215 1749.3848,-1637.6171 1687.766,-1583.41 1483.8993,-1404.0648 1412.7509,-1065.9704 1391.1205,-923.6763"/>
<polygon fill="#242424" stroke="#242424" points="1394.5809,-923.1505 1389.6475,-913.7744 1387.6571,-924.1805 1394.5809,-923.1505"/>
</g>
<!-- index.js&#45;&gt;which.js -->
<g id="edge71" class="edge">
<title>index.js&#45;&gt;which.js</title>
<path fill="none" stroke="#242424" d="M2095.696,-1706.728C1931.5464,-1696.7636 1385.9211,-1658.5899 1229.766,-1583.41 1081.1179,-1511.8443 1056.676,-1461.8533 960.766,-1327.6178 944.5058,-1304.8601 931.0367,-1276.9056 921.0931,-1252.8816"/>
<polygon fill="#242424" stroke="#242424" points="924.3119,-1251.505 917.3214,-1243.5437 917.8213,-1254.1267 924.3119,-1251.505"/>
</g>
<!-- index.js&#45;&gt;either.js -->
<g id="edge48" class="edge">
<title>index.js&#45;&gt;either.js</title>
<path fill="none" stroke="#242424" d="M2189.8393,-1707.4901C2327.2353,-1700.8333 2723.3517,-1673.9971 2807.766,-1583.41 2944.1434,-1437.0599 2906.3322,-781.9493 2890.835,-577.0542"/>
<polygon fill="#242424" stroke="#242424" points="2894.3236,-576.7703 2890.0702,-567.0667 2887.344,-577.3048 2894.3236,-576.7703"/>
</g>
<!-- index.js&#45;&gt;flip.js -->
<g id="edge50" class="edge">
<title>index.js&#45;&gt;flip.js</title>
<path fill="none" stroke="#242424" d="M2134.5149,-1662.9112C2130.7183,-1639.2021 2126.6457,-1609.8615 2124.766,-1583.41 2119.1963,-1505.0333 2108.0952,-1483.4033 2124.766,-1406.6178 2132.9524,-1368.9114 2152.5796,-1365.3242 2160.766,-1327.6178 2172.8901,-1271.7741 2198.4894,-1113.3907 2160.766,-1070.4669 1980.3006,-865.1226 1765.4858,-1160.6691 1550.766,-991.4669 1525.8313,-971.818 1513.0817,-938.4627 1506.5655,-910.0045"/>
<polygon fill="#242424" stroke="#242424" points="1509.9827,-909.2458 1504.5109,-900.1733 1503.1307,-910.6778 1509.9827,-909.2458"/>
</g>
<!-- index.js&#45;&gt;future.js -->
<g id="edge51" class="edge">
<title>index.js&#45;&gt;future.js</title>
<path fill="none" stroke="#242424" d="M2189.8453,-1708.3379C2408.0849,-1702.8544 3314.2022,-1674.6861 3396.766,-1583.41 3539.4781,-1425.6387 3182.4219,-763.4542 3072.6645,-569.3114"/>
<polygon fill="#242424" stroke="#242424" points="3075.6034,-567.3985 3067.6278,-560.4242 3069.5134,-570.8499 3075.6034,-567.3985"/>
</g>
<!-- length.js -->
<g id="node35" class="node">
<title>length.js</title>
<ellipse fill="none" stroke="#242424" stroke-width="4" cx="256.766" cy="-1495.0139" rx="51.7142" ry="51.7142"/>
<text text-anchor="middle" x="256.766" y="-1492.6139" font-family="Fira Code" font-size="12.00" fill="#242424">length.js</text>
</g>
<!-- index.js&#45;&gt;length.js -->
<g id="edge54" class="edge">
<title>index.js&#45;&gt;length.js</title>
<path fill="none" stroke="#242424" d="M2095.489,-1708.3323C1826.2045,-1701.8562 492.2938,-1665.7905 330.766,-1583.41 314.6695,-1575.2007 300.7228,-1561.7877 289.4116,-1547.8624"/>
<polygon fill="#242424" stroke="#242424" points="291.943,-1545.414 283.06,-1539.6397 286.4032,-1549.6932 291.943,-1545.414"/>
</g>
<!-- random&#45;floor.js -->
<g id="node36" class="node">
<title>random&#45;floor.js</title>
<ellipse fill="none" stroke="#242424" stroke-width="4" cx="2579.766" cy="-857.9249" rx="79.3981" ry="79.3981"/>
<text text-anchor="middle" x="2579.766" y="-855.525" font-family="Fira Code" font-size="12.00" fill="#242424">random&#45;floor.js</text>
</g>
<!-- index.js&#45;&gt;random&#45;floor.js -->
<g id="edge59" class="edge">
<title>index.js&#45;&gt;random&#45;floor.js</title>
<path fill="none" stroke="#242424" d="M2189.8396,-1705.0743C2312.1707,-1692.8705 2635.9301,-1654.4456 2712.766,-1583.41 2797.4266,-1505.1403 2834.6945,-1177.0682 2790.766,-1070.4669 2763.1338,-1003.4119 2702.9724,-946.33 2653.933,-908.2602"/>
<polygon fill="#242424" stroke="#242424" points="2655.9232,-905.376 2645.8539,-902.0805 2651.6703,-910.936 2655.9232,-905.376"/>
</g>
<!-- random&#45;shuffle.js -->
<g id="node37" class="node">
<title>random&#45;shuffle.js</title>
<ellipse fill="none" stroke="#0c821d" stroke-width="4" cx="3001.766" cy="-1495.0139" rx="88.2923" ry="88.2923"/>
<text text-anchor="middle" x="3001.766" y="-1492.6139" font-family="Fira Code" font-size="12.00" fill="#0c821d">random&#45;shuffle.js</text>
</g>
<!-- index.js&#45;&gt;random&#45;shuffle.js -->
<g id="edge60" class="edge">
<title>index.js&#45;&gt;random&#45;shuffle.js</title>
<path fill="none" stroke="#242424" d="M2189.813,-1704.9572C2334.6347,-1690.7031 2771.6606,-1643.6424 2899.766,-1583.41 2910.6174,-1578.3079 2921.2062,-1571.7135 2931.2037,-1564.4274"/>
<polygon fill="#242424" stroke="#242424" points="2933.6077,-1566.9967 2939.4554,-1558.1619 2929.3745,-1561.4217 2933.6077,-1566.9967"/>
</g>
<!-- random&#45;take.js -->
<g id="node38" class="node">
<title>random&#45;take.js</title>
<ellipse fill="none" stroke="#242424" stroke-width="4" cx="2396.766" cy="-1199.0423" rx="74.7005" ry="74.7005"/>
<text text-anchor="middle" x="2396.766" y="-1196.6423" font-family="Fira Code" font-size="12.00" fill="#242424">random&#45;take.js</text>
</g>
<!-- index.js&#45;&gt;random&#45;take.js -->
<g id="edge61" class="edge">
<title>index.js&#45;&gt;random&#45;take.js</title>
<path fill="none" stroke="#242424" d="M2185.0373,-1688.1799C2223.0265,-1666.8785 2277.376,-1630.5041 2307.766,-1583.41 2339.3763,-1534.4247 2368.2999,-1380.6358 2384.1332,-1283.0793"/>
<polygon fill="#242424" stroke="#242424" points="2387.6315,-1283.3694 2385.7646,-1272.9404 2380.7204,-1282.2573 2387.6315,-1283.3694"/>
</g>
<!-- random&#45;word.js -->
<g id="node39" class="node">
<title>random&#45;word.js</title>
<ellipse fill="none" stroke="#242424" stroke-width="4" cx="2448.766" cy="-1495.0139" rx="74.7005" ry="74.7005"/>
<text text-anchor="middle" x="2448.766" y="-1492.6139" font-family="Fira Code" font-size="12.00" fill="#242424">random&#45;word.js</text>
</g>
<!-- index.js&#45;&gt;random&#45;word.js -->
<g id="edge62" class="edge">
<title>index.js&#45;&gt;random&#45;word.js</title>
<path fill="none" stroke="#242424" d="M2184.5006,-1687.2142C2227.5862,-1663.5943 2296.0454,-1624.0924 2350.766,-1583.41 2362.9838,-1574.3266 2375.4612,-1564.0035 2387.2405,-1553.696"/>
<polygon fill="#242424" stroke="#242424" points="2389.7053,-1556.1884 2394.8706,-1546.938 2385.064,-1550.9483 2389.7053,-1556.1884"/>
</g>
<!-- random.js -->
<g id="node40" class="node">
<title>random.js</title>
<ellipse fill="none" stroke="#0c821d" stroke-width="4" cx="3159.766" cy="-1495.0139" rx="51.7142" ry="51.7142"/>
<text text-anchor="middle" x="3159.766" y="-1492.6139" font-family="Fira Code" font-size="12.00" fill="#0c821d">random.js</text>
</g>
<!-- index.js&#45;&gt;random.js -->
<g id="edge63" class="edge">
<title>index.js&#45;&gt;random.js</title>
<path fill="none" stroke="#242424" d="M2190.0015,-1708.1888C2360.6387,-1702.9945 2943.2764,-1678.5078 3098.766,-1583.41 3112.0755,-1575.2699 3123.2011,-1563.0078 3132.1487,-1550.1878"/>
<polygon fill="#242424" stroke="#242424" points="3135.1465,-1551.9992 3137.7151,-1541.7204 3129.2972,-1548.1539 3135.1465,-1551.9992"/>
</g>
<!-- length.js&#45;&gt;Ⓜ katsu&#45;curry/katsu&#45;curry.js -->
<g id="edge74" class="edge">
<title>length.js&#45;&gt;Ⓜ katsu&#45;curry/katsu&#45;curry.js</title>
<path fill="none" stroke="#242424" d="M250.1551,-1443.6509C238.7161,-1352.6817 215.347,-1157.2018 203.766,-991.4669 193.0376,-837.9338 194.4331,-799.2674 191.766,-645.383 190.7664,-587.71 154.7179,-430.0264 191.766,-385.8153 336.0672,-213.6142 1018.2719,-168.9108 1336.0929,-157.3791"/>
<polygon fill="#242424" stroke="#242424" points="1336.4473,-160.8688 1346.3164,-157.015 1336.1981,-153.8732 1336.4473,-160.8688"/>
</g>
<!-- length.js&#45;&gt;object.js -->
<g id="edge75" class="edge">
<title>length.js&#45;&gt;object.js</title>
<path fill="none" stroke="#242424" d="M265.4182,-1443.7975C274.0309,-1392.8153 287.2532,-1314.5468 296.4171,-1260.302"/>
<polygon fill="#242424" stroke="#242424" points="299.9213,-1260.5703 298.136,-1250.127 293.0191,-1259.4042 299.9213,-1260.5703"/>
</g>
<!-- length.js&#45;&gt;path.js -->
<g id="edge76" class="edge">
<title>length.js&#45;&gt;path.js</title>
<path fill="none" stroke="#242424" d="M240.1408,-1445.808C221.6987,-1391.2247 192.1083,-1303.6455 173.5876,-1248.8294"/>
<polygon fill="#242424" stroke="#242424" points="176.8929,-1247.6778 170.3761,-1239.3243 170.2612,-1249.9185 176.8929,-1247.6778"/>
</g>
<!-- random&#45;floor.js&#45;&gt;Ⓜ katsu&#45;curry/katsu&#45;curry.js -->
<g id="edge91" class="edge">
<title>random&#45;floor.js&#45;&gt;Ⓜ katsu&#45;curry/katsu&#45;curry.js</title>
<path fill="none" stroke="#242424" d="M2588.1168,-778.9948C2594.4793,-674.6009 2588.6573,-491.5225 2486.766,-385.8153 2374.324,-269.1623 1913.2888,-200.1069 1663.0974,-170.5115"/>
<polygon fill="#242424" stroke="#242424" points="1663.1566,-166.9944 1652.8164,-169.3035 1662.3397,-173.9466 1663.1566,-166.9944"/>
</g>
<!-- random&#45;take.js&#45;&gt;Ⓜ katsu&#45;curry/katsu&#45;curry.js -->
<g id="edge92" class="edge">
<title>random&#45;take.js&#45;&gt;Ⓜ katsu&#45;curry/katsu&#45;curry.js</title>
<path fill="none" stroke="#242424" d="M2399.3652,-1124.2681C2405.2834,-934.0571 2415.9708,-442.7566 2370.766,-385.8153 2283.3306,-275.6793 1889.457,-205.6464 1662.4486,-173.6848"/>
<polygon fill="#242424" stroke="#242424" points="1662.8249,-170.2034 1652.4365,-172.2846 1661.8553,-177.1359 1662.8249,-170.2034"/>
</g>
<!-- random&#45;take.js&#45;&gt;iterate.js -->
<g id="edge93" class="edge">
<title>random&#45;take.js&#45;&gt;iterate.js</title>
<path fill="none" stroke="#242424" d="M2354.3881,-1137.6215C2316.0773,-1081.9384 2264.3885,-1006.359 2255.766,-991.4669 2242.3666,-968.3243 2229.156,-942.0155 2218.1803,-918.9042"/>
<polygon fill="#242424" stroke="#242424" points="2221.2026,-917.1067 2213.7763,-909.5502 2214.8694,-920.0885 2221.2026,-917.1067"/>
</g>
<!-- random&#45;take.js&#45;&gt;random&#45;floor.js -->
<g id="edge94" class="edge">
<title>random&#45;take.js&#45;&gt;random&#45;floor.js</title>
<path fill="none" stroke="#242424" d="M2432.0502,-1133.2715C2462.1322,-1077.1979 2505.4495,-996.4531 2537.4018,-936.8931"/>
<polygon fill="#242424" stroke="#242424" points="2540.5861,-938.3609 2542.2294,-927.8943 2534.4177,-935.0517 2540.5861,-938.3609"/>
</g>
<!-- random&#45;word.js&#45;&gt;Ⓜ katsu&#45;curry/katsu&#45;curry.js -->
<g id="edge95" class="edge">
<title>random&#45;word.js&#45;&gt;Ⓜ katsu&#45;curry/katsu&#45;curry.js</title>
<path fill="none" stroke="#242424" d="M2465.8041,-1422.1092C2471.8137,-1392.9076 2477.8084,-1358.8414 2480.766,-1327.6178 2491.5437,-1213.8378 2487.4093,-1184.5629 2480.766,-1070.4669 2478.54,-1032.2366 2425.9404,-414.6728 2400.766,-385.8153 2304.7587,-275.7617 1894.9021,-205.2314 1662.4315,-173.2948"/>
<polygon fill="#242424" stroke="#242424" points="1662.5643,-169.7805 1652.1828,-171.896 1661.6177,-176.7162 1662.5643,-169.7805"/>
</g>
<!-- random&#45;word.js&#45;&gt;array.js -->
<g id="edge96" class="edge">
<title>random&#45;word.js&#45;&gt;array.js</title>
<path fill="none" stroke="#242424" d="M2477.9896,-1426.3682C2500.6171,-1373.2167 2531.4978,-1300.6786 2552.2352,-1251.9668"/>
<polygon fill="#242424" stroke="#242424" points="2555.5452,-1253.1268 2556.242,-1242.5549 2549.1046,-1250.3849 2555.5452,-1253.1268"/>
</g>
<!-- random&#45;word.js&#45;&gt;random&#45;take.js -->
<g id="edge97" class="edge">
<title>random&#45;word.js&#45;&gt;random&#45;take.js</title>
<path fill="none" stroke="#242424" d="M2435.8452,-1421.4721C2428.4503,-1379.382 2419.1467,-1326.4279 2411.4724,-1282.7477"/>
<polygon fill="#242424" stroke="#242424" points="2414.8881,-1281.9622 2409.7104,-1272.7187 2407.9937,-1283.1735 2414.8881,-1281.9622"/>
</g>
<!-- map&#45;performance.fixture.js -->
<g id="node41" class="node">
<title>map&#45;performance.fixture.js</title>
<ellipse fill="none" stroke="#242424" stroke-width="4" cx="3257.766" cy="-515.5992" rx="129.5681" ry="129.5681"/>
<text text-anchor="middle" x="3257.766" y="-513.1992" font-family="Fira Code" font-size="12.00" fill="#242424">map&#45;performance.fixture.js</text>
</g>
<!-- map&#45;performance.fixture.js&#45;&gt;Ⓜ entrust/entrust.js -->
<g id="edge77" class="edge">
<title>map&#45;performance.fixture.js&#45;&gt;Ⓜ entrust/entrust.js</title>
<path fill="none" stroke="#242424" d="M3161.9843,-427.693C3143.1139,-412.6401 3122.9012,-397.9618 3102.766,-385.8153 3023.4026,-337.9397 2983.9015,-362.4439 2909.766,-306.8153 2890.8324,-292.6082 2873.1803,-274.795 2857.5114,-256.3844"/>
<polygon fill="#242424" stroke="#242424" points="2860.0075,-253.9124 2850.9195,-248.4664 2854.6278,-258.3911 2860.0075,-253.9124"/>
</g>
<!-- Ⓜ fast.js/index.js -->
<g id="node42" class="node">
<title>Ⓜ fast.js/index.js</title>
<ellipse fill="none" stroke="#0c821d" stroke-width="4" cx="3022.766" cy="-153.4077" rx="103.9872" ry="103.9872"/>
<text text-anchor="middle" x="3022.766" y="-152.2077" font-family="Fira Code" font-size="12.00" fill="#0c821d">Ⓜ fast.js/index.js</text>
</g>
<!-- map&#45;performance.fixture.js&#45;&gt;Ⓜ fast.js/index.js -->
<g id="edge78" class="edge">
<title>map&#45;performance.fixture.js&#45;&gt;Ⓜ fast.js/index.js</title>
<path fill="none" stroke="#242424" d="M3186.9396,-406.4386C3154.4296,-356.333 3116.2276,-297.4545 3084.8587,-249.1075"/>
<polygon fill="#242424" stroke="#242424" points="3087.6642,-247.001 3079.285,-240.5171 3081.7919,-250.8111 3087.6642,-247.001"/>
</g>
<!-- Ⓜ ramda/src/curry.js -->
<g id="node43" class="node">
<title>Ⓜ ramda/src/curry.js</title>
<ellipse fill="none" stroke="#0c821d" stroke-width="4" cx="3257.766" cy="-153.4077" rx="113.8526" ry="113.8526"/>
<text text-anchor="middle" x="3257.766" y="-152.2077" font-family="Fira Code" font-size="12.00" fill="#0c821d">Ⓜ ramda/src/curry.js</text>
</g>
<!-- map&#45;performance.fixture.js&#45;&gt;Ⓜ ramda/src/curry.js -->
<g id="edge79" class="edge">
<title>map&#45;performance.fixture.js&#45;&gt;Ⓜ ramda/src/curry.js</title>
<path fill="none" stroke="#242424" d="M3257.766,-385.6071C3257.766,-350.4283 3257.766,-312.4473 3257.766,-277.5961"/>
<polygon fill="#242424" stroke="#242424" points="3261.2661,-277.3726 3257.766,-267.3726 3254.2661,-277.3727 3261.2661,-277.3726"/>
</g>
<!-- Ⓜ ramda/src/map.js -->
<g id="node44" class="node">
<title>Ⓜ ramda/src/map.js</title>
<ellipse fill="none" stroke="#0c821d" stroke-width="4" cx="3492.766" cy="-153.4077" rx="103.9872" ry="103.9872"/>
<text text-anchor="middle" x="3492.766" y="-152.2077" font-family="Fira Code" font-size="12.00" fill="#0c821d">Ⓜ ramda/src/map.js</text>
</g>
<!-- map&#45;performance.fixture.js&#45;&gt;Ⓜ ramda/src/map.js -->
<g id="edge80" class="edge">
<title>map&#45;performance.fixture.js&#45;&gt;Ⓜ ramda/src/map.js</title>
<path fill="none" stroke="#242424" d="M3328.5924,-406.4386C3361.1024,-356.333 3399.3044,-297.4545 3430.6733,-249.1075"/>
<polygon fill="#242424" stroke="#242424" points="3433.7401,-250.8111 3436.247,-240.5171 3427.8678,-247.001 3433.7401,-250.8111"/>
</g>
<!-- Ⓜ testperf/index.js -->
<g id="node45" class="node">
<title>Ⓜ testperf/index.js</title>
<ellipse fill="none" stroke="#0c821d" stroke-width="4" cx="3722.766" cy="-153.4077" rx="108.9199" ry="108.9199"/>
<text text-anchor="middle" x="3722.766" y="-152.2077" font-family="Fira Code" font-size="12.00" fill="#0c821d">Ⓜ testperf/index.js</text>
</g>
<!-- map&#45;performance.fixture.js&#45;&gt;Ⓜ testperf/index.js -->
<g id="edge81" class="edge">
<title>map&#45;performance.fixture.js&#45;&gt;Ⓜ testperf/index.js</title>
<path fill="none" stroke="#242424" d="M3375.2301,-459.5306C3446.4374,-422.1907 3536.5829,-368.7047 3605.766,-306.8153 3623.7576,-290.7204 3640.8921,-271.5293 3656.226,-252.2608"/>
<polygon fill="#242424" stroke="#242424" points="3659.05,-254.3314 3662.459,-244.3 3653.5384,-250.016 3659.05,-254.3314"/>
</g>
</g>
</svg>
