<?xml version="1.0" encoding="UTF-8" standalone="no"?>
<!DOCTYPE svg PUBLIC "-//W3C//DTD SVG 1.1//EN"
 "http://www.w3.org/Graphics/SVG/1.1/DTD/svg11.dtd">
<!-- Generated by graphviz version 2.40.1 (20161225.0304)
 -->
<!-- Title: G Pages: 1 -->
<svg width="3064pt" height="1845pt"
 viewBox="0.00 0.00 3064.13 1845.17" xmlns="http://www.w3.org/2000/svg" xmlns:xlink="http://www.w3.org/1999/xlink">
<g id="graph0" class="graph" transform="scale(1 1) rotate(0) translate(7.992 1837.1813)">
<title>G</title>
<polygon fill="#eeeeff" stroke="transparent" points="-7.992,7.992 -7.992,-1837.1813 3056.1377,-1837.1813 3056.1377,7.992 -7.992,7.992"/>
<!-- ../package.json -->
<g id="node1" class="node">
<title>../package.json</title>
<ellipse fill="none" stroke="#0c821d" stroke-width="4" cx="79.1988" cy="-1515.7424" rx="79.3981" ry="79.3981"/>
<text text-anchor="middle" x="79.1988" y="-1513.3424" font-family="Fira Code" font-size="12.00" fill="#0c821d">../package.json</text>
</g>
<!-- ap.js -->
<g id="node2" class="node">
<title>ap.js</title>
<ellipse fill="none" stroke="#242424" stroke-width="4" cx="219.1988" cy="-620.1069" rx="33.4262" ry="33.4262"/>
<text text-anchor="middle" x="219.1988" y="-617.7069" font-family="Fira Code" font-size="12.00" fill="#242424">ap.js</text>
</g>
<!-- ✪entrust/entrust.js -->
<g id="node3" class="node">
<title>✪entrust/entrust.js</title>
<ellipse fill="none" stroke="#0c821d" stroke-width="4" cx="383.1988" cy="-310.8316" rx="99.0849" ry="99.0849"/>
<text text-anchor="middle" x="383.1988" y="-308.4316" font-family="Fira Code" font-size="12.00" fill="#0c821d">✪entrust/entrust.js</text>
</g>
<!-- ap.js&#45;&gt;✪entrust/entrust.js -->
<g id="edge1" class="edge">
<title>ap.js&#45;&gt;✪entrust/entrust.js</title>
<path fill="none" stroke="#242424" d="M232.067,-589.1265C240.0203,-570.5177 250.6867,-546.4885 261.1988,-525.6631 281.5077,-485.4294 305.6985,-442.0306 327.163,-404.8434"/>
<polygon fill="#242424" stroke="#242424" points="330.2875,-406.432 332.2694,-396.0242 324.2297,-402.9244 330.2875,-406.432"/>
</g>
<!-- array.js -->
<g id="node4" class="node">
<title>array.js</title>
<ellipse fill="none" stroke="#242424" stroke-width="4" cx="880.1988" cy="-1178.8752" rx="47.0167" ry="47.0167"/>
<text text-anchor="middle" x="880.1988" y="-1176.4753" font-family="Fira Code" font-size="12.00" fill="#242424">array.js</text>
</g>
<!-- array.js&#45;&gt;✪entrust/entrust.js -->
<g id="edge2" class="edge">
<title>array.js&#45;&gt;✪entrust/entrust.js</title>
<path fill="none" stroke="#242424" d="M885.195,-1131.9397C894.9212,-1016.497 904.5293,-714.4267 765.1988,-525.6631 696.642,-432.7829 575.1701,-374.5366 487.5853,-342.4958"/>
<polygon fill="#242424" stroke="#242424" points="488.7448,-339.1934 478.1504,-339.0974 486.3726,-345.7792 488.7448,-339.1934"/>
</g>
<!-- ✪katsu&#45;curry/katsu&#45;curry.js -->
<g id="node5" class="node">
<title>✪katsu&#45;curry/katsu&#45;curry.js</title>
<ellipse fill="none" stroke="#0c821d" stroke-width="4" cx="1590.1988" cy="-310.8316" rx="135.6633" ry="135.6633"/>
<text text-anchor="middle" x="1590.1988" y="-308.4316" font-family="Fira Code" font-size="12.00" fill="#0c821d">✪katsu&#45;curry/katsu&#45;curry.js</text>
</g>
<!-- array.js&#45;&gt;✪katsu&#45;curry/katsu&#45;curry.js -->
<g id="edge3" class="edge">
<title>array.js&#45;&gt;✪katsu&#45;curry/katsu&#45;curry.js</title>
<path fill="none" stroke="#242424" d="M874.7915,-1131.8978C860.4522,-998.4174 827.265,-620.4399 899.1988,-525.6631 965.6211,-438.148 1263.8412,-369.9347 1446.1104,-335.5004"/>
<polygon fill="#242424" stroke="#242424" points="1446.8686,-338.9193 1456.0511,-333.6342 1445.5769,-332.0395 1446.8686,-338.9193"/>
</g>
<!-- filter.js -->
<g id="node6" class="node">
<title>filter.js</title>
<ellipse fill="none" stroke="#242424" stroke-width="4" cx="960.1988" cy="-887.9945" rx="51.7142" ry="51.7142"/>
<text text-anchor="middle" x="960.1988" y="-885.5945" font-family="Fira Code" font-size="12.00" fill="#242424">filter.js</text>
</g>
<!-- array.js&#45;&gt;filter.js -->
<g id="edge4" class="edge">
<title>array.js&#45;&gt;filter.js</title>
<path fill="none" stroke="#242424" d="M892.6988,-1133.4251C906.4338,-1083.4846 928.5532,-1003.0583 943.7023,-947.9758"/>
<polygon fill="#242424" stroke="#242424" points="947.1691,-948.5688 946.4463,-937.9986 940.4197,-946.7125 947.1691,-948.5688"/>
</g>
<!-- delegate&#45;fast.js -->
<g id="node9" class="node">
<title>delegate&#45;fast.js</title>
<ellipse fill="none" stroke="#242424" stroke-width="4" cx="672.1988" cy="-620.1069" rx="83.5954" ry="83.5954"/>
<text text-anchor="middle" x="672.1988" y="-617.7069" font-family="Fira Code" font-size="12.00" fill="#242424">delegate&#45;fast.js</text>
</g>
<!-- filter.js&#45;&gt;delegate&#45;fast.js -->
<g id="edge12" class="edge">
<title>filter.js&#45;&gt;delegate&#45;fast.js</title>
<path fill="none" stroke="#242424" d="M922.2517,-852.6974C876.2781,-809.9343 797.9427,-737.0695 741.1819,-684.2725"/>
<polygon fill="#242424" stroke="#242424" points="743.3778,-681.535 733.6719,-677.287 738.6102,-686.6605 743.3778,-681.535"/>
</g>
<!-- ✪fast.js/filter.js -->
<g id="node12" class="node">
<title>✪fast.js/filter.js</title>
<ellipse fill="none" stroke="#0c821d" stroke-width="4" cx="1002.1988" cy="-620.1069" rx="94.3876" ry="94.3876"/>
<text text-anchor="middle" x="1002.1988" y="-617.7069" font-family="Fira Code" font-size="12.00" fill="#0c821d">✪fast.js/filter.js</text>
</g>
<!-- filter.js&#45;&gt;✪fast.js/filter.js -->
<g id="edge11" class="edge">
<title>filter.js&#45;&gt;✪fast.js/filter.js</title>
<path fill="none" stroke="#242424" d="M968.1976,-836.9763C973.2117,-804.9946 979.8562,-762.614 985.9405,-723.807"/>
<polygon fill="#242424" stroke="#242424" points="989.4654,-723.9205 987.5566,-713.4991 982.5498,-722.8362 989.4654,-723.9205"/>
</g>
<!-- chain.js -->
<g id="node7" class="node">
<title>chain.js</title>
<ellipse fill="none" stroke="#242424" stroke-width="4" cx="479.1988" cy="-1515.7424" rx="47.0167" ry="47.0167"/>
<text text-anchor="middle" x="479.1988" y="-1513.3424" font-family="Fira Code" font-size="12.00" fill="#242424">chain.js</text>
</g>
<!-- ✪flatmap&#45;fast/index.js -->
<g id="node8" class="node">
<title>✪flatmap&#45;fast/index.js</title>
<ellipse fill="none" stroke="#0c821d" stroke-width="4" cx="479.1988" cy="-1178.8752" rx="112.6769" ry="112.6769"/>
<text text-anchor="middle" x="479.1988" y="-1176.4753" font-family="Fira Code" font-size="12.00" fill="#0c821d">✪flatmap&#45;fast/index.js</text>
</g>
<!-- chain.js&#45;&gt;✪flatmap&#45;fast/index.js -->
<g id="edge5" class="edge">
<title>chain.js&#45;&gt;✪flatmap&#45;fast/index.js</title>
<path fill="none" stroke="#242424" d="M479.1988,-1468.5478C479.1988,-1425.5013 479.1988,-1359.98 479.1988,-1302.1346"/>
<polygon fill="#242424" stroke="#242424" points="482.6989,-1301.8047 479.1988,-1291.8047 475.6989,-1301.8048 482.6989,-1301.8047"/>
</g>
<!-- chain.js&#45;&gt;delegate&#45;fast.js -->
<g id="edge6" class="edge">
<title>chain.js&#45;&gt;delegate&#45;fast.js</title>
<path fill="none" stroke="#242424" d="M450.4808,-1478.2843C420.4386,-1436.5311 375.196,-1365.7185 357.1988,-1296.3122 330.9973,-1195.2656 325.3595,-1160.8525 357.1988,-1061.4382 405.6658,-910.1062 527.177,-766.4582 604.3293,-686.1597"/>
<polygon fill="#242424" stroke="#242424" points="607.2161,-688.2094 611.6532,-678.5885 602.1849,-683.3425 607.2161,-688.2094"/>
</g>
<!-- delegate&#45;fast.js&#45;&gt;✪entrust/entrust.js -->
<g id="edge8" class="edge">
<title>delegate&#45;fast.js&#45;&gt;✪entrust/entrust.js</title>
<path fill="none" stroke="#242424" d="M614.7562,-558.6343C569.8056,-510.5301 506.936,-443.2498 458.0475,-390.9314"/>
<polygon fill="#242424" stroke="#242424" points="460.3245,-388.2418 450.9397,-383.3249 455.21,-393.0211 460.3245,-388.2418"/>
</g>
<!-- delegate&#45;fast.js&#45;&gt;✪katsu&#45;curry/katsu&#45;curry.js -->
<g id="edge9" class="edge">
<title>delegate&#45;fast.js&#45;&gt;✪katsu&#45;curry/katsu&#45;curry.js</title>
<path fill="none" stroke="#242424" d="M741.479,-572.6565C767.7945,-556.1288 798.5769,-538.5234 828.1988,-525.6631 1035.3073,-435.7475 1290.3731,-372.7691 1446.5746,-339.1803"/>
<polygon fill="#242424" stroke="#242424" points="1447.6722,-342.5248 1456.7188,-337.0104 1446.2079,-335.6797 1447.6722,-342.5248"/>
</g>
<!-- choice.js -->
<g id="node10" class="node">
<title>choice.js</title>
<ellipse fill="none" stroke="#242424" stroke-width="4" cx="2749.1988" cy="-620.1069" rx="51.7142" ry="51.7142"/>
<text text-anchor="middle" x="2749.1988" y="-617.7069" font-family="Fira Code" font-size="12.00" fill="#242424">choice.js</text>
</g>
<!-- choice.js&#45;&gt;✪katsu&#45;curry/katsu&#45;curry.js -->
<g id="edge7" class="edge">
<title>choice.js&#45;&gt;✪katsu&#45;curry/katsu&#45;curry.js</title>
<path fill="none" stroke="#242424" d="M2726.3756,-573.2428C2715.6041,-555.7636 2701.1319,-537.3475 2683.1988,-525.6631 2528.5021,-424.8697 1996.4804,-354.9154 1736.0897,-325.8721"/>
<polygon fill="#242424" stroke="#242424" points="1736.1256,-322.3546 1725.8005,-324.7299 1735.3533,-329.3119 1736.1256,-322.3546"/>
</g>
<!-- either.js -->
<g id="node11" class="node">
<title>either.js</title>
<ellipse fill="none" stroke="#242424" stroke-width="4" cx="322.1988" cy="-620.1069" rx="51.7142" ry="51.7142"/>
<text text-anchor="middle" x="322.1988" y="-617.7069" font-family="Fira Code" font-size="12.00" fill="#242424">either.js</text>
</g>
<!-- either.js&#45;&gt;✪entrust/entrust.js -->
<g id="edge10" class="edge">
<title>either.js&#45;&gt;✪entrust/entrust.js</title>
<path fill="none" stroke="#242424" d="M332.2034,-569.3827C340.2847,-528.4101 351.9387,-469.3228 362.0666,-417.9738"/>
<polygon fill="#242424" stroke="#242424" points="365.5031,-418.6372 364.0044,-408.1489 358.6354,-417.2826 365.5031,-418.6372"/>
</g>
<!-- flip.js -->
<g id="node13" class="node">
<title>flip.js</title>
<ellipse fill="none" stroke="#242424" stroke-width="4" cx="1975.1988" cy="-1178.8752" rx="42.3196" ry="42.3196"/>
<text text-anchor="middle" x="1975.1988" y="-1176.4753" font-family="Fira Code" font-size="12.00" fill="#242424">flip.js</text>
</g>
<!-- flip.js&#45;&gt;✪katsu&#45;curry/katsu&#45;curry.js -->
<g id="edge13" class="edge">
<title>flip.js&#45;&gt;✪katsu&#45;curry/katsu&#45;curry.js</title>
<path fill="none" stroke="#242424" d="M1988.2843,-1138.5279C2021.1258,-1029.082 2095.461,-721.6681 1965.1988,-525.6631 1910.2147,-442.9288 1811.8014,-388.3095 1729.5869,-354.8536"/>
<polygon fill="#242424" stroke="#242424" points="1730.7416,-351.5459 1720.157,-351.0794 1728.1405,-358.0447 1730.7416,-351.5459"/>
</g>
<!-- future.js -->
<g id="node14" class="node">
<title>future.js</title>
<ellipse fill="none" stroke="#242424" stroke-width="4" cx="144.1988" cy="-887.9945" rx="51.7142" ry="51.7142"/>
<text text-anchor="middle" x="144.1988" y="-885.5945" font-family="Fira Code" font-size="12.00" fill="#242424">future.js</text>
</g>
<!-- future.js&#45;&gt;✪entrust/entrust.js -->
<g id="edge14" class="edge">
<title>future.js&#45;&gt;✪entrust/entrust.js</title>
<path fill="none" stroke="#242424" d="M138.5849,-836.6878C132.8443,-763.9405 130.4407,-628.2603 177.1988,-525.6631 203.6811,-467.5553 252.6003,-415.486 296.1231,-377.1662"/>
<polygon fill="#242424" stroke="#242424" points="298.6426,-379.6137 303.8982,-370.4143 294.0529,-374.3285 298.6426,-379.6137"/>
</g>
<!-- index.js -->
<g id="node15" class="node">
<title>index.js</title>
<ellipse fill="none" stroke="#242424" stroke-width="4" cx="1240.1988" cy="-1782.1809" rx="47.0167" ry="47.0167"/>
<text text-anchor="middle" x="1240.1988" y="-1779.781" font-family="Fira Code" font-size="12.00" fill="#242424">index.js</text>
</g>
<!-- index.js&#45;&gt;../package.json -->
<g id="edge17" class="edge">
<title>index.js&#45;&gt;../package.json</title>
<path fill="none" stroke="#242424" d="M1193.1551,-1781.7917C1010.1369,-1779.5052 347.107,-1763.8072 172.1988,-1656.1726 149.2325,-1642.0397 130.7444,-1619.866 116.4882,-1597.2785"/>
<polygon fill="#242424" stroke="#242424" points="119.4118,-1595.3498 111.2311,-1588.6173 113.4279,-1598.9819 119.4118,-1595.3498"/>
</g>
<!-- index.js&#45;&gt;ap.js -->
<g id="edge18" class="edge">
<title>index.js&#45;&gt;ap.js</title>
<path fill="none" stroke="#242424" d="M1193.0846,-1779.8164C1003.4391,-1769.8301 302.9798,-1728.2673 238.1988,-1656.1726 204.5842,-1618.763 215.2014,-855.9784 218.4218,-663.7752"/>
<polygon fill="#242424" stroke="#242424" points="221.926,-663.5527 218.5962,-653.4947 214.927,-663.4339 221.926,-663.5527"/>
</g>
<!-- index.js&#45;&gt;array.js -->
<g id="edge19" class="edge">
<title>index.js&#45;&gt;array.js</title>
<path fill="none" stroke="#242424" d="M1193.2417,-1776.1731C1088.1621,-1761.6662 839.4095,-1721.0561 790.1988,-1656.1726 691.5928,-1526.1622 793.4806,-1319.9857 849.1002,-1227.0735"/>
<polygon fill="#242424" stroke="#242424" points="852.1414,-1228.8083 854.33,-1218.4419 846.1546,-1225.1808 852.1414,-1228.8083"/>
</g>
<!-- index.js&#45;&gt;✪katsu&#45;curry/katsu&#45;curry.js -->
<g id="edge15" class="edge">
<title>index.js&#45;&gt;✪katsu&#45;curry/katsu&#45;curry.js</title>
<path fill="none" stroke="#242424" d="M1287.1792,-1780.176C1465.5333,-1772.0043 2099.8294,-1737.6911 2282.1988,-1656.1726 2503.5481,-1557.2303 2592.181,-1517.1776 2692.1988,-1296.3122 2862.6474,-919.9172 2518.5002,-751.0546 2172.1988,-525.6631 2035.0909,-436.4259 1855.8053,-377.4553 1732.6545,-344.2491"/>
<polygon fill="#242424" stroke="#242424" points="1733.3394,-340.8094 1722.7747,-341.6079 1731.5315,-347.5719 1733.3394,-340.8094"/>
</g>
<!-- index.js&#45;&gt;filter.js -->
<g id="edge23" class="edge">
<title>index.js&#45;&gt;filter.js</title>
<path fill="none" stroke="#242424" d="M1192.8733,-1780.1375C1059.5957,-1773.2951 686.0195,-1746.2768 612.1988,-1656.1726 570.0704,-1604.7515 637.5264,-1114.7771 677.1988,-1061.4382 721.2303,-1002.2387 760.2914,-1020.9871 823.1988,-982.4382 852.6319,-964.402 884.4366,-942.6266 909.9862,-924.5323"/>
<polygon fill="#242424" stroke="#242424" points="912.279,-927.1966 918.3986,-918.5478 908.2213,-921.4926 912.279,-927.1966"/>
</g>
<!-- index.js&#45;&gt;chain.js -->
<g id="edge20" class="edge">
<title>index.js&#45;&gt;chain.js</title>
<path fill="none" stroke="#242424" d="M1193.3692,-1777.8042C1060.2017,-1764.6595 682.3352,-1722.3067 579.1988,-1656.1726 545.9482,-1634.8513 520.4042,-1598.1925 503.4578,-1567.676"/>
<polygon fill="#242424" stroke="#242424" points="506.5192,-1565.979 498.6915,-1558.8391 500.3582,-1569.302 506.5192,-1565.979"/>
</g>
<!-- index.js&#45;&gt;choice.js -->
<g id="edge21" class="edge">
<title>index.js&#45;&gt;choice.js</title>
<path fill="none" stroke="#242424" d="M1287.5676,-1781.8296C1529.9927,-1779.5562 2624.3905,-1763.3785 2725.1988,-1656.1726 2857.4749,-1515.502 2784.8093,-882.3705 2757.8788,-681.4761"/>
<polygon fill="#242424" stroke="#242424" points="2761.3241,-680.8355 2756.5168,-671.3941 2754.3871,-681.7726 2761.3241,-680.8355"/>
</g>
<!-- index.js&#45;&gt;either.js -->
<g id="edge22" class="edge">
<title>index.js&#45;&gt;either.js</title>
<path fill="none" stroke="#242424" d="M1192.9661,-1779.5281C1008.4872,-1768.6972 343.6824,-1725.1052 282.1988,-1656.1726 194.222,-1557.5371 269.3386,-1193.43 276.1988,-1061.4382 283.2782,-925.2293 302.5683,-766.327 313.7926,-681.2738"/>
<polygon fill="#242424" stroke="#242424" points="317.2736,-681.6477 315.1201,-671.2741 310.3345,-680.7265 317.2736,-681.6477"/>
</g>
<!-- index.js&#45;&gt;flip.js -->
<g id="edge24" class="edge">
<title>index.js&#45;&gt;flip.js</title>
<path fill="none" stroke="#242424" d="M1287.0524,-1778.216C1449.5102,-1764.0018 1981.3813,-1713.3938 2030.1988,-1656.1726 2111.2155,-1561.2093 2047.1847,-1498.978 2030.1988,-1375.3122 2023.1794,-1324.2076 2006.3427,-1267.6651 1993.1326,-1228.4166"/>
<polygon fill="#242424" stroke="#242424" points="1996.4017,-1227.159 1989.8604,-1218.8246 1989.7766,-1229.4191 1996.4017,-1227.159"/>
</g>
<!-- index.js&#45;&gt;future.js -->
<g id="edge25" class="edge">
<title>index.js&#45;&gt;future.js</title>
<path fill="none" stroke="#242424" d="M1193.2207,-1779.8611C1000.769,-1769.9058 279.4965,-1728.0129 210.1988,-1656.1726 185.7422,-1630.8187 156.8725,-1127.5993 147.39,-949.6692"/>
<polygon fill="#242424" stroke="#242424" points="150.885,-949.4809 146.8598,-939.6805 143.8949,-949.852 150.885,-949.4809"/>
</g>
<!-- ✪katsu&#45;curry/utils/length.js -->
<g id="node16" class="node">
<title>✪katsu&#45;curry/utils/length.js</title>
<ellipse fill="none" stroke="#0c821d" stroke-width="4" cx="939.1988" cy="-1515.7424" rx="140.3604" ry="140.3604"/>
<text text-anchor="middle" x="939.1988" y="-1513.3424" font-family="Fira Code" font-size="12.00" fill="#0c821d">✪katsu&#45;curry/utils/length.js</text>
</g>
<!-- index.js&#45;&gt;✪katsu&#45;curry/utils/length.js -->
<g id="edge16" class="edge">
<title>index.js&#45;&gt;✪katsu&#45;curry/utils/length.js</title>
<path fill="none" stroke="#242424" d="M1203.9875,-1751.6741C1174.0694,-1726.3419 1130.5944,-1689.2367 1093.1988,-1656.1726 1079.2334,-1643.8248 1064.6519,-1630.7594 1050.2679,-1617.7654"/>
<polygon fill="#242424" stroke="#242424" points="1052.5322,-1615.0941 1042.7683,-1610.981 1047.8361,-1620.2852 1052.5322,-1615.0941"/>
</g>
<!-- invert.js -->
<g id="node17" class="node">
<title>invert.js</title>
<ellipse fill="none" stroke="#242424" stroke-width="4" cx="2870.1988" cy="-620.1069" rx="51.7142" ry="51.7142"/>
<text text-anchor="middle" x="2870.1988" y="-617.7069" font-family="Fira Code" font-size="12.00" fill="#242424">invert.js</text>
</g>
<!-- index.js&#45;&gt;invert.js -->
<g id="edge26" class="edge">
<title>index.js&#45;&gt;invert.js</title>
<path fill="none" stroke="#242424" d="M1287.3584,-1781.8109C1533.769,-1779.4228 2666.1791,-1762.6813 2775.1988,-1656.1726 3048.1457,-1389.5124 2935.3043,-857.4115 2887.5212,-679.5554"/>
<polygon fill="#242424" stroke="#242424" points="2890.8843,-678.584 2884.8839,-669.8521 2884.1293,-680.42 2890.8843,-678.584"/>
</g>
<!-- iterate.js -->
<g id="node18" class="node">
<title>iterate.js</title>
<ellipse fill="none" stroke="#242424" stroke-width="4" cx="1124.1988" cy="-887.9945" rx="56.412" ry="56.412"/>
<text text-anchor="middle" x="1124.1988" y="-885.5945" font-family="Fira Code" font-size="12.00" fill="#242424">iterate.js</text>
</g>
<!-- index.js&#45;&gt;iterate.js -->
<g id="edge27" class="edge">
<title>index.js&#45;&gt;iterate.js</title>
<path fill="none" stroke="#242424" d="M1216.6362,-1741.2028C1203.865,-1717.1731 1188.9478,-1685.8009 1180.1988,-1656.1726 1106.1985,-1405.5726 1112.541,-1089.9658 1119.6888,-954.6067"/>
<polygon fill="#242424" stroke="#242424" points="1123.1956,-954.5753 1120.2477,-944.3989 1116.2061,-954.1925 1123.1956,-954.5753"/>
</g>
<!-- map.js -->
<g id="node19" class="node">
<title>map.js</title>
<ellipse fill="none" stroke="#242424" stroke-width="4" cx="1709.1988" cy="-1178.8752" rx="37.623" ry="37.623"/>
<text text-anchor="middle" x="1709.1988" y="-1176.4753" font-family="Fira Code" font-size="12.00" fill="#242424">map.js</text>
</g>
<!-- index.js&#45;&gt;map.js -->
<g id="edge28" class="edge">
<title>index.js&#45;&gt;map.js</title>
<path fill="none" stroke="#242424" d="M1286.7836,-1775.5782C1389.1578,-1760.0483 1628.5826,-1717.8099 1678.1988,-1656.1726 1704.6447,-1623.3194 1708.6396,-1342.0189 1709.162,-1227.2894"/>
<polygon fill="#242424" stroke="#242424" points="1712.6628,-1227.0574 1709.2013,-1217.044 1705.6628,-1227.0304 1712.6628,-1227.0574"/>
</g>
<!-- math.js -->
<g id="node20" class="node">
<title>math.js</title>
<ellipse fill="none" stroke="#242424" stroke-width="4" cx="1184.1988" cy="-1178.8752" rx="42.3196" ry="42.3196"/>
<text text-anchor="middle" x="1184.1988" y="-1176.4753" font-family="Fira Code" font-size="12.00" fill="#242424">math.js</text>
</g>
<!-- index.js&#45;&gt;math.js -->
<g id="edge29" class="edge">
<title>index.js&#45;&gt;math.js</title>
<path fill="none" stroke="#242424" d="M1225.9764,-1737.1654C1219.0709,-1713.3395 1211.3802,-1683.4432 1207.1988,-1656.1726 1183.7358,-1503.1476 1182.2581,-1319.597 1183.1808,-1231.3368"/>
<polygon fill="#242424" stroke="#242424" points="1186.6807,-1231.3501 1183.3004,-1221.309 1179.6812,-1231.2665 1186.6807,-1231.3501"/>
</g>
<!-- object.js -->
<g id="node21" class="node">
<title>object.js</title>
<ellipse fill="none" stroke="#242424" stroke-width="4" cx="1777.1988" cy="-1515.7424" rx="51.7142" ry="51.7142"/>
<text text-anchor="middle" x="1777.1988" y="-1513.3424" font-family="Fira Code" font-size="12.00" fill="#242424">object.js</text>
</g>
<!-- index.js&#45;&gt;object.js -->
<g id="edge30" class="edge">
<title>index.js&#45;&gt;object.js</title>
<path fill="none" stroke="#242424" d="M1286.6475,-1774.853C1392.1698,-1757.4172 1645.8574,-1710.8113 1711.1988,-1656.1726 1735.7853,-1635.6133 1751.7739,-1603.8332 1761.8461,-1575.7021"/>
<polygon fill="#242424" stroke="#242424" points="1765.2637,-1576.5227 1765.1664,-1565.9283 1758.6357,-1574.2711 1765.2637,-1576.5227"/>
</g>
<!-- path.js -->
<g id="node22" class="node">
<title>path.js</title>
<ellipse fill="none" stroke="#242424" stroke-width="4" cx="663.1988" cy="-1515.7424" rx="42.3196" ry="42.3196"/>
<text text-anchor="middle" x="663.1988" y="-1513.3424" font-family="Fira Code" font-size="12.00" fill="#242424">path.js</text>
</g>
<!-- index.js&#45;&gt;path.js -->
<g id="edge31" class="edge">
<title>index.js&#45;&gt;path.js</title>
<path fill="none" stroke="#242424" d="M1193.3196,-1776.3928C1079.1735,-1761.451 790.9147,-1718.3557 719.1988,-1656.1726 693.3646,-1633.7724 679.3217,-1597.8045 671.7594,-1567.8784"/>
<polygon fill="#242424" stroke="#242424" points="675.1305,-1566.9236 669.4356,-1557.9895 668.3161,-1568.525 675.1305,-1566.9236"/>
</g>
<!-- random&#45;floor.js -->
<g id="node23" class="node">
<title>random&#45;floor.js</title>
<ellipse fill="none" stroke="#242424" stroke-width="4" cx="1315.1988" cy="-887.9945" rx="79.3981" ry="79.3981"/>
<text text-anchor="middle" x="1315.1988" y="-885.5945" font-family="Fira Code" font-size="12.00" fill="#242424">random&#45;floor.js</text>
</g>
<!-- index.js&#45;&gt;random&#45;floor.js -->
<g id="edge32" class="edge">
<title>index.js&#45;&gt;random&#45;floor.js</title>
<path fill="none" stroke="#242424" d="M1239.271,-1734.9118C1238.8521,-1711.2665 1238.4054,-1682.208 1238.1988,-1656.1726 1236.0977,-1391.3972 1227.2763,-1322.2093 1273.1988,-1061.4382 1278.1998,-1033.0401 1285.1158,-1002.3661 1291.8933,-974.8244"/>
<polygon fill="#242424" stroke="#242424" points="1295.3621,-975.3784 1294.3803,-964.8292 1288.5692,-973.6882 1295.3621,-975.3784"/>
</g>
<!-- random&#45;shuffle.js -->
<g id="node24" class="node">
<title>random&#45;shuffle.js</title>
<ellipse fill="none" stroke="#0c821d" stroke-width="4" cx="1581.1988" cy="-1515.7424" rx="88.2923" ry="88.2923"/>
<text text-anchor="middle" x="1581.1988" y="-1513.3424" font-family="Fira Code" font-size="12.00" fill="#0c821d">random&#45;shuffle.js</text>
</g>
<!-- index.js&#45;&gt;random&#45;shuffle.js -->
<g id="edge33" class="edge">
<title>index.js&#45;&gt;random&#45;shuffle.js</title>
<path fill="none" stroke="#242424" d="M1284.3928,-1766.0403C1335.3222,-1745.9146 1419.6382,-1707.7722 1479.1988,-1656.1726 1497.8144,-1640.0452 1514.941,-1619.9001 1529.6316,-1599.9471"/>
<polygon fill="#242424" stroke="#242424" points="1532.5527,-1601.8801 1535.5625,-1591.7218 1526.8748,-1597.786 1532.5527,-1601.8801"/>
</g>
<!-- random&#45;take.js -->
<g id="node25" class="node">
<title>random&#45;take.js</title>
<ellipse fill="none" stroke="#242424" stroke-width="4" cx="1357.1988" cy="-1178.8752" rx="74.7005" ry="74.7005"/>
<text text-anchor="middle" x="1357.1988" y="-1176.4753" font-family="Fira Code" font-size="12.00" fill="#242424">random&#45;take.js</text>
</g>
<!-- index.js&#45;&gt;random&#45;take.js -->
<g id="edge34" class="edge">
<title>index.js&#45;&gt;random&#45;take.js</title>
<path fill="none" stroke="#242424" d="M1240.2134,-1735.0865C1241.2082,-1658.5453 1247.2882,-1502.8674 1278.1988,-1375.3122 1288.053,-1334.648 1304.7628,-1291.309 1320.2834,-1255.7135"/>
<polygon fill="#242424" stroke="#242424" points="1323.5741,-1256.9256 1324.41,-1246.3638 1317.1701,-1254.0991 1323.5741,-1256.9256"/>
</g>
<!-- random&#45;word.js -->
<g id="node26" class="node">
<title>random&#45;word.js</title>
<ellipse fill="none" stroke="#242424" stroke-width="4" cx="1362.1988" cy="-1515.7424" rx="74.7005" ry="74.7005"/>
<text text-anchor="middle" x="1362.1988" y="-1513.3424" font-family="Fira Code" font-size="12.00" fill="#242424">random&#45;word.js</text>
</g>
<!-- index.js&#45;&gt;random&#45;word.js -->
<g id="edge35" class="edge">
<title>index.js&#45;&gt;random&#45;word.js</title>
<path fill="none" stroke="#242424" d="M1259.8002,-1739.373C1277.8286,-1700.0003 1304.9917,-1640.6783 1326.812,-1593.0246"/>
<polygon fill="#242424" stroke="#242424" points="1330.1195,-1594.2081 1331.1005,-1583.6588 1323.7549,-1591.2938 1330.1195,-1594.2081"/>
</g>
<!-- random.js -->
<g id="node27" class="node">
<title>random.js</title>
<ellipse fill="none" stroke="#0c821d" stroke-width="4" cx="1898.1988" cy="-1515.7424" rx="51.7142" ry="51.7142"/>
<text text-anchor="middle" x="1898.1988" y="-1513.3424" font-family="Fira Code" font-size="12.00" fill="#0c821d">random.js</text>
</g>
<!-- index.js&#45;&gt;random.js -->
<g id="edge36" class="edge">
<title>index.js&#45;&gt;random.js</title>
<path fill="none" stroke="#242424" d="M1287.2957,-1777.8469C1413.0826,-1765.4224 1753.1159,-1726.0158 1838.1988,-1656.1726 1862.4873,-1636.2346 1877.1467,-1604.6562 1885.8869,-1576.4901"/>
<polygon fill="#242424" stroke="#242424" points="1889.3039,-1577.2741 1888.7377,-1566.6944 1882.5827,-1575.3181 1889.3039,-1577.2741"/>
</g>
<!-- range.js -->
<g id="node28" class="node">
<title>range.js</title>
<ellipse fill="none" stroke="#242424" stroke-width="4" cx="1535.1988" cy="-887.9945" rx="47.0167" ry="47.0167"/>
<text text-anchor="middle" x="1535.1988" y="-885.5945" font-family="Fira Code" font-size="12.00" fill="#242424">range.js</text>
</g>
<!-- index.js&#45;&gt;range.js -->
<g id="edge37" class="edge">
<title>index.js&#45;&gt;range.js</title>
<path fill="none" stroke="#242424" d="M1285.2234,-1767.9927C1333.6885,-1750.1753 1408.8394,-1714.6404 1446.1988,-1656.1726 1455.8115,-1641.1286 1510.9208,-1120.4886 1529.2624,-945.0461"/>
<polygon fill="#242424" stroke="#242424" points="1532.756,-945.2887 1530.3141,-934.9791 1525.7939,-944.5613 1532.756,-945.2887"/>
</g>
<!-- reduce.js -->
<g id="node29" class="node">
<title>reduce.js</title>
<ellipse fill="none" stroke="#242424" stroke-width="4" cx="738.1988" cy="-1178.8752" rx="51.7142" ry="51.7142"/>
<text text-anchor="middle" x="738.1988" y="-1176.4753" font-family="Fira Code" font-size="12.00" fill="#242424">reduce.js</text>
</g>
<!-- index.js&#45;&gt;reduce.js -->
<g id="edge38" class="edge">
<title>index.js&#45;&gt;reduce.js</title>
<path fill="none" stroke="#242424" d="M1193.1276,-1777.3008C1080.9277,-1764.6085 802.9286,-1726.5584 747.1988,-1656.1726 697.5707,-1593.4931 717.6327,-1354.2077 730.531,-1240.1032"/>
<polygon fill="#242424" stroke="#242424" points="734.0133,-1240.4562 731.6771,-1230.1221 727.059,-1239.6575 734.0133,-1240.4562"/>
</g>
<!-- reject.js -->
<g id="node30" class="node">
<title>reject.js</title>
<ellipse fill="none" stroke="#242424" stroke-width="4" cx="1034.1988" cy="-1178.8752" rx="51.7142" ry="51.7142"/>
<text text-anchor="middle" x="1034.1988" y="-1176.4753" font-family="Fira Code" font-size="12.00" fill="#242424">reject.js</text>
</g>
<!-- index.js&#45;&gt;reject.js -->
<g id="edge39" class="edge">
<title>index.js&#45;&gt;reject.js</title>
<path fill="none" stroke="#242424" d="M1204.5853,-1751.4085C1179.8471,-1727.911 1148.3554,-1693.3328 1131.1988,-1656.1726 1078.2649,-1541.5211 1114.5353,-1498.8167 1088.1988,-1375.3122 1078.3129,-1328.9521 1063.9776,-1277.2938 1052.5613,-1238.5912"/>
<polygon fill="#242424" stroke="#242424" points="1055.7781,-1237.1288 1049.5759,-1228.5391 1049.0678,-1239.1217 1055.7781,-1237.1288"/>
</g>
<!-- string.js -->
<g id="node31" class="node">
<title>string.js</title>
<ellipse fill="none" stroke="#242424" stroke-width="4" cx="443.1988" cy="-620.1069" rx="51.7142" ry="51.7142"/>
<text text-anchor="middle" x="443.1988" y="-617.7069" font-family="Fira Code" font-size="12.00" fill="#242424">string.js</text>
</g>
<!-- index.js&#45;&gt;string.js -->
<g id="edge40" class="edge">
<title>index.js&#45;&gt;string.js</title>
<path fill="none" stroke="#242424" d="M1193.1091,-1781.5022C1036.6409,-1778.2763 537.533,-1759.8937 423.1988,-1656.1726 139.6044,-1398.9029 341.3852,-853.286 417.4955,-676.6003"/>
<polygon fill="#242424" stroke="#242424" points="420.7932,-677.7933 421.5651,-667.2266 414.3722,-675.0056 420.7932,-677.7933"/>
</g>
<!-- ternary.js -->
<g id="node32" class="node">
<title>ternary.js</title>
<ellipse fill="none" stroke="#242424" stroke-width="4" cx="1867.1988" cy="-620.1069" rx="56.412" ry="56.412"/>
<text text-anchor="middle" x="1867.1988" y="-617.7069" font-family="Fira Code" font-size="12.00" fill="#242424">ternary.js</text>
</g>
<!-- index.js&#45;&gt;ternary.js -->
<g id="edge41" class="edge">
<title>index.js&#45;&gt;ternary.js</title>
<path fill="none" stroke="#242424" d="M1287.4063,-1781.4452C1433.3228,-1778.0788 1872.4923,-1759.3963 1959.1988,-1656.1726 1999.3422,-1608.382 1978.3878,-1434.7026 1959.1988,-1375.3122 1945.8874,-1334.113 1916.5709,-1337.1535 1902.1988,-1296.3122 1827.333,-1083.5658 1845.0239,-809.9035 1858.5893,-686.1218"/>
<polygon fill="#242424" stroke="#242424" points="1862.0832,-686.3706 1859.7214,-676.0424 1855.127,-685.5892 1862.0832,-686.3706"/>
</g>
<!-- triplet.js -->
<g id="node33" class="node">
<title>triplet.js</title>
<ellipse fill="none" stroke="#242424" stroke-width="4" cx="2092.1988" cy="-1178.8752" rx="56.412" ry="56.412"/>
<text text-anchor="middle" x="2092.1988" y="-1176.4753" font-family="Fira Code" font-size="12.00" fill="#242424">triplet.js</text>
</g>
<!-- index.js&#45;&gt;triplet.js -->
<g id="edge42" class="edge">
<title>index.js&#45;&gt;triplet.js</title>
<path fill="none" stroke="#242424" d="M1287.1953,-1778.4116C1454.1079,-1764.5695 2011.2375,-1714.3122 2064.1988,-1656.1726 2167.5236,-1542.7452 2136.2351,-1344.2765 2110.8593,-1242.7106"/>
<polygon fill="#242424" stroke="#242424" points="2114.2173,-1241.7146 2108.3491,-1232.8934 2107.4355,-1243.4487 2114.2173,-1241.7146"/>
</g>
<!-- types.js -->
<g id="node34" class="node">
<title>types.js</title>
<ellipse fill="none" stroke="#242424" stroke-width="4" cx="1942.1988" cy="-887.9945" rx="47.0167" ry="47.0167"/>
<text text-anchor="middle" x="1942.1988" y="-885.5945" font-family="Fira Code" font-size="12.00" fill="#242424">types.js</text>
</g>
<!-- index.js&#45;&gt;types.js -->
<g id="edge43" class="edge">
<title>index.js&#45;&gt;types.js</title>
<path fill="none" stroke="#242424" d="M1287.2479,-1777.8049C1444.737,-1762.689 1946.1248,-1710.6093 1992.1988,-1656.1726 2032.5205,-1608.5323 2013.9138,-1433.8263 1992.1988,-1375.3122 1976.0807,-1331.8798 1940.3169,-1339.7447 1924.1988,-1296.3122 1887.8798,-1198.4456 1918.8038,-1165.6872 1924.1988,-1061.4382 1926.2193,-1022.3951 1930.7819,-978.6059 1934.8076,-944.7944"/>
<polygon fill="#242424" stroke="#242424" points="1938.3099,-944.9858 1936.0363,-934.6378 1931.3606,-944.1451 1938.3099,-944.9858"/>
</g>
<!-- which.js -->
<g id="node35" class="node">
<title>which.js</title>
<ellipse fill="none" stroke="#242424" stroke-width="4" cx="2226.1988" cy="-1515.7424" rx="47.0167" ry="47.0167"/>
<text text-anchor="middle" x="2226.1988" y="-1513.3424" font-family="Fira Code" font-size="12.00" fill="#242424">which.js</text>
</g>
<!-- index.js&#45;&gt;which.js -->
<g id="edge44" class="edge">
<title>index.js&#45;&gt;which.js</title>
<path fill="none" stroke="#242424" d="M1287.3241,-1779.6705C1446.5793,-1770.5244 1962.7731,-1735.2896 2106.1988,-1656.1726 2144.4426,-1635.0764 2175.9586,-1596.6801 2197.0808,-1565.3624"/>
<polygon fill="#242424" stroke="#242424" points="2200.1838,-1567.0141 2202.7597,-1556.7372 2194.3373,-1563.1647 2200.1838,-1567.0141"/>
</g>
<!-- invert.js&#45;&gt;✪katsu&#45;curry/katsu&#45;curry.js -->
<g id="edge45" class="edge">
<title>invert.js&#45;&gt;✪katsu&#45;curry/katsu&#45;curry.js</title>
<path fill="none" stroke="#242424" d="M2849.895,-572.1309C2840.2923,-554.9296 2827.1523,-537.0037 2810.1988,-525.6631 2636.0202,-409.1505 2020.056,-345.5343 1735.8468,-321.7981"/>
<polygon fill="#242424" stroke="#242424" points="1736.1331,-318.3099 1725.8778,-320.9705 1735.554,-325.2859 1736.1331,-318.3099"/>
</g>
<!-- iterate.js&#45;&gt;✪katsu&#45;curry/katsu&#45;curry.js -->
<g id="edge46" class="edge">
<title>iterate.js&#45;&gt;✪katsu&#45;curry/katsu&#45;curry.js</title>
<path fill="none" stroke="#242424" d="M1129.1752,-831.9587C1138.0457,-742.7652 1159.0331,-573.663 1194.1988,-525.6631 1256.5264,-440.5881 1363.0555,-385.5337 1449.9329,-352.4773"/>
<polygon fill="#242424" stroke="#242424" points="1451.211,-355.7361 1459.3482,-348.9511 1448.7558,-349.1807 1451.211,-355.7361"/>
</g>
<!-- map.js&#45;&gt;✪katsu&#45;curry/katsu&#45;curry.js -->
<g id="edge48" class="edge">
<title>map.js&#45;&gt;✪katsu&#45;curry/katsu&#45;curry.js</title>
<path fill="none" stroke="#242424" d="M1691.4867,-1145.2167C1672.3156,-1106.9558 1642.6801,-1042.0599 1629.1988,-982.4382 1589.0225,-804.7569 1583.3253,-594.2827 1585.0069,-456.9307"/>
<polygon fill="#242424" stroke="#242424" points="1588.5089,-456.8051 1585.1466,-446.758 1581.5096,-456.7089 1588.5089,-456.8051"/>
</g>
<!-- ✪fast.js/map.js -->
<g id="node37" class="node">
<title>✪fast.js/map.js</title>
<ellipse fill="none" stroke="#0c821d" stroke-width="4" cx="1719.1988" cy="-887.9945" rx="80.796" ry="80.796"/>
<text text-anchor="middle" x="1719.1988" y="-885.5945" font-family="Fira Code" font-size="12.00" fill="#0c821d">✪fast.js/map.js</text>
</g>
<!-- map.js&#45;&gt;✪fast.js/map.js -->
<g id="edge47" class="edge">
<title>map.js&#45;&gt;✪fast.js/map.js</title>
<path fill="none" stroke="#242424" d="M1710.5061,-1140.8477C1711.9141,-1099.8925 1714.2047,-1033.2626 1716.0812,-978.6803"/>
<polygon fill="#242424" stroke="#242424" points="1719.5807,-978.7521 1716.4264,-968.6377 1712.5848,-978.5115 1719.5807,-978.7521"/>
</g>
<!-- math.js&#45;&gt;✪katsu&#45;curry/katsu&#45;curry.js -->
<g id="edge49" class="edge">
<title>math.js&#45;&gt;✪katsu&#45;curry/katsu&#45;curry.js</title>
<path fill="none" stroke="#242424" d="M1183.531,-1136.4696C1183.8718,-1025.1803 1198.5157,-719.9676 1340.1988,-525.6631 1376.0612,-476.4814 1425.2797,-431.0824 1470.5651,-394.8129"/>
<polygon fill="#242424" stroke="#242424" points="1473.0161,-397.3363 1478.6758,-388.3798 1468.6661,-391.8519 1473.0161,-397.3363"/>
</g>
<!-- object.js&#45;&gt;✪katsu&#45;curry/katsu&#45;curry.js -->
<g id="edge50" class="edge">
<title>object.js&#45;&gt;✪katsu&#45;curry/katsu&#45;curry.js</title>
<path fill="none" stroke="#242424" d="M1788.1994,-1465.0924C1812.1306,-1346.2215 1862.6468,-1040.7277 1809.1988,-793.5507 1781.5482,-665.677 1717.0706,-530.9615 1665.1953,-436.4381"/>
<polygon fill="#242424" stroke="#242424" points="1668.113,-434.481 1660.2161,-427.4177 1661.9846,-437.8639 1668.113,-434.481"/>
</g>
<!-- object.js&#45;&gt;map.js -->
<g id="edge51" class="edge">
<title>object.js&#45;&gt;map.js</title>
<path fill="none" stroke="#242424" d="M1766.9449,-1464.9453C1753.8707,-1400.1764 1731.4396,-1289.0545 1718.7244,-1226.0644"/>
<polygon fill="#242424" stroke="#242424" points="1722.104,-1225.1179 1716.6945,-1216.0082 1715.2424,-1226.503 1722.104,-1225.1179"/>
</g>
<!-- object.js&#45;&gt;reduce.js -->
<g id="edge52" class="edge">
<title>object.js&#45;&gt;reduce.js</title>
<path fill="none" stroke="#242424" d="M1756.9052,-1468.2541C1740.566,-1436.2634 1714.3467,-1396.2252 1678.1988,-1375.3122 1348.2608,-1184.4298 1155.8436,-1484.2136 824.1988,-1296.3122 799.2437,-1282.1733 779.5119,-1257.4873 765.2772,-1234.3858"/>
<polygon fill="#242424" stroke="#242424" points="768.2005,-1232.4533 760.0914,-1225.6348 762.1785,-1236.022 768.2005,-1232.4533"/>
</g>
<!-- path.js&#45;&gt;✪katsu&#45;curry/katsu&#45;curry.js -->
<g id="edge53" class="edge">
<title>path.js&#45;&gt;✪katsu&#45;curry/katsu&#45;curry.js</title>
<path fill="none" stroke="#242424" d="M656.7819,-1473.7535C639.0672,-1354.9808 590.0745,-1006.302 579.1988,-714.5507 576.0716,-630.6589 526.3654,-590.903 579.1988,-525.6631 686.4603,-393.2143 1191.217,-339.0389 1444.4938,-319.9023"/>
<polygon fill="#242424" stroke="#242424" points="1444.7973,-323.3894 1454.5087,-319.1539 1444.2757,-316.4089 1444.7973,-323.3894"/>
</g>
<!-- path.js&#45;&gt;math.js -->
<g id="edge54" class="edge">
<title>path.js&#45;&gt;math.js</title>
<path fill="none" stroke="#242424" d="M686.3344,-1480.0491C709.0114,-1447.9147 746.4758,-1401.7899 790.1988,-1375.3122 909.9769,-1302.7773 978.6772,-1373.9705 1095.1988,-1296.3122 1121.931,-1278.496 1143.8528,-1249.9001 1159.251,-1225.3874"/>
<polygon fill="#242424" stroke="#242424" points="1162.4101,-1226.9293 1164.6257,-1216.5687 1156.4327,-1223.2863 1162.4101,-1226.9293"/>
</g>
<!-- path.js&#45;&gt;reduce.js -->
<g id="edge55" class="edge">
<title>path.js&#45;&gt;reduce.js</title>
<path fill="none" stroke="#242424" d="M672.4705,-1474.098C685.5738,-1415.2436 709.5915,-1307.3669 724.6819,-1239.5874"/>
<polygon fill="#242424" stroke="#242424" points="728.1757,-1239.9998 726.9326,-1229.4781 721.343,-1238.4785 728.1757,-1239.9998"/>
</g>
<!-- random&#45;floor.js&#45;&gt;✪katsu&#45;curry/katsu&#45;curry.js -->
<g id="edge56" class="edge">
<title>random&#45;floor.js&#45;&gt;✪katsu&#45;curry/katsu&#45;curry.js</title>
<path fill="none" stroke="#242424" d="M1324.993,-809.0678C1336.778,-733.104 1361.1584,-616.6739 1408.1988,-525.6631 1428.666,-486.0645 1457.6451,-447.4177 1486.475,-414.0692"/>
<polygon fill="#242424" stroke="#242424" points="1489.4505,-415.9837 1493.4014,-406.1531 1484.1824,-411.3742 1489.4505,-415.9837"/>
</g>
<!-- random&#45;take.js&#45;&gt;✪katsu&#45;curry/katsu&#45;curry.js -->
<g id="edge57" class="edge">
<title>random&#45;take.js&#45;&gt;✪katsu&#45;curry/katsu&#45;curry.js</title>
<path fill="none" stroke="#242424" d="M1376.6143,-1106.5823C1385.8908,-1069.6748 1396.4218,-1023.9198 1403.1988,-982.4382 1436.0765,-781.1975 1377.778,-717.75 1446.1988,-525.6631 1458.6276,-490.7701 1477.9992,-456.0569 1498.5485,-425.031"/>
<polygon fill="#242424" stroke="#242424" points="1501.6906,-426.631 1504.3709,-416.3808 1495.8835,-422.7223 1501.6906,-426.631"/>
</g>
<!-- random&#45;take.js&#45;&gt;iterate.js -->
<g id="edge58" class="edge">
<title>random&#45;take.js&#45;&gt;iterate.js</title>
<path fill="none" stroke="#242424" d="M1310.3281,-1120.3611C1268.0705,-1067.6061 1206.5074,-990.7497 1165.9189,-940.0785"/>
<polygon fill="#242424" stroke="#242424" points="1168.5745,-937.7953 1159.5909,-932.1785 1163.1111,-942.1715 1168.5745,-937.7953"/>
</g>
<!-- random&#45;take.js&#45;&gt;random&#45;floor.js -->
<g id="edge59" class="edge">
<title>random&#45;take.js&#45;&gt;random&#45;floor.js</title>
<path fill="none" stroke="#242424" d="M1346.4918,-1104.7211C1340.8562,-1065.6905 1333.9067,-1017.5601 1327.9893,-976.578"/>
<polygon fill="#242424" stroke="#242424" points="1331.4412,-975.9928 1326.548,-966.5957 1324.513,-976.9932 1331.4412,-975.9928"/>
</g>
<!-- random&#45;word.js&#45;&gt;array.js -->
<g id="edge61" class="edge">
<title>random&#45;word.js&#45;&gt;array.js</title>
<path fill="none" stroke="#242424" d="M1295.3322,-1482.0172C1198.9107,-1432.7208 1026.5381,-1341.909 973.1988,-1296.3122 949.7823,-1276.2948 928.1247,-1249.6587 911.6116,-1226.8147"/>
<polygon fill="#242424" stroke="#242424" points="914.4124,-1224.7137 905.7669,-1218.5894 908.7062,-1228.7683 914.4124,-1224.7137"/>
</g>
<!-- random&#45;word.js&#45;&gt;✪katsu&#45;curry/katsu&#45;curry.js -->
<g id="edge60" class="edge">
<title>random&#45;word.js&#45;&gt;✪katsu&#45;curry/katsu&#45;curry.js</title>
<path fill="none" stroke="#242424" d="M1392.383,-1446.9841C1409.6887,-1404.4257 1430.1156,-1348.1822 1441.1988,-1296.3122 1488.0232,-1077.172 1445.5502,-1015.0969 1479.1988,-793.5507 1496.8634,-677.2452 1527.3463,-547.3956 1551.9034,-451.69"/>
<polygon fill="#242424" stroke="#242424" points="1555.3066,-452.5092 1554.4118,-441.9522 1548.5279,-450.763 1555.3066,-452.5092"/>
</g>
<!-- random&#45;word.js&#45;&gt;random&#45;take.js -->
<g id="edge62" class="edge">
<title>random&#45;word.js&#45;&gt;random&#45;take.js</title>
<path fill="none" stroke="#242424" d="M1361.0892,-1440.9807C1360.3121,-1388.6271 1359.2722,-1318.5698 1358.4631,-1264.0561"/>
<polygon fill="#242424" stroke="#242424" points="1361.9578,-1263.6656 1358.3097,-1253.7187 1354.9586,-1263.7695 1361.9578,-1263.6656"/>
</g>
<!-- range.js&#45;&gt;✪katsu&#45;curry/katsu&#45;curry.js -->
<g id="edge63" class="edge">
<title>range.js&#45;&gt;✪katsu&#45;curry/katsu&#45;curry.js</title>
<path fill="none" stroke="#242424" d="M1539.6997,-840.7628C1547.6056,-757.7997 1564.2878,-582.7388 1576.3181,-456.4936"/>
<polygon fill="#242424" stroke="#242424" points="1579.8205,-456.6341 1577.285,-446.3472 1572.8521,-455.97 1579.8205,-456.6341"/>
</g>
<!-- reduce.js&#45;&gt;delegate&#45;fast.js -->
<g id="edge65" class="edge">
<title>reduce.js&#45;&gt;delegate&#45;fast.js</title>
<path fill="none" stroke="#242424" d="M713.8128,-1133.1098C701.7713,-1111.1429 686.7361,-1084.6207 672.1988,-1061.4382 649.4701,-1025.1929 630.0087,-1023.2577 617.1988,-982.4382 588.5742,-891.2247 612.4976,-782.2649 637.1458,-707.8122"/>
<polygon fill="#242424" stroke="#242424" points="640.5769,-708.5915 640.4655,-697.9973 633.946,-706.3487 640.5769,-708.5915"/>
</g>
<!-- ✪fast.js/reduce.js -->
<g id="node38" class="node">
<title>✪fast.js/reduce.js</title>
<ellipse fill="none" stroke="#0c821d" stroke-width="4" cx="720.1988" cy="-887.9945" rx="94.3876" ry="94.3876"/>
<text text-anchor="middle" x="720.1988" y="-885.5945" font-family="Fira Code" font-size="12.00" fill="#0c821d">✪fast.js/reduce.js</text>
</g>
<!-- reduce.js&#45;&gt;✪fast.js/reduce.js -->
<g id="edge64" class="edge">
<title>reduce.js&#45;&gt;✪fast.js/reduce.js</title>
<path fill="none" stroke="#242424" d="M735.0015,-1127.2068C732.6957,-1089.9453 729.5041,-1038.3687 726.6747,-992.6443"/>
<polygon fill="#242424" stroke="#242424" points="730.1505,-992.1437 726.0394,-982.379 723.1638,-992.5761 730.1505,-992.1437"/>
</g>
<!-- reject.js&#45;&gt;✪katsu&#45;curry/katsu&#45;curry.js -->
<g id="edge66" class="edge">
<title>reject.js&#45;&gt;✪katsu&#45;curry/katsu&#45;curry.js</title>
<path fill="none" stroke="#242424" d="M1030.1752,-1127.3615C1025.9323,-1052.1799 1024.0451,-908.8084 1059.1988,-793.5507 1071.0518,-754.6885 1091.1644,-752.6794 1105.1988,-714.5507 1134.6632,-634.5019 1087.4295,-593.4561 1139.1988,-525.6631 1214.284,-427.3376 1345.7242,-371.886 1447.4016,-342.0574"/>
<polygon fill="#242424" stroke="#242424" points="1448.5054,-345.3819 1457.1456,-339.2502 1446.5674,-338.6555 1448.5054,-345.3819"/>
</g>
<!-- reject.js&#45;&gt;filter.js -->
<g id="edge67" class="edge">
<title>reject.js&#45;&gt;filter.js</title>
<path fill="none" stroke="#242424" d="M1021.3935,-1128.5398C1008.6467,-1078.4345 989.0777,-1001.5122 975.5152,-948.2004"/>
<polygon fill="#242424" stroke="#242424" points="978.8287,-947.0288 972.9712,-938.2004 972.0448,-948.7547 978.8287,-947.0288"/>
</g>
<!-- string.js&#45;&gt;✪entrust/entrust.js -->
<g id="edge68" class="edge">
<title>string.js&#45;&gt;✪entrust/entrust.js</title>
<path fill="none" stroke="#242424" d="M433.3582,-569.3827C425.4095,-528.4101 413.9464,-469.3228 403.9846,-417.9738"/>
<polygon fill="#242424" stroke="#242424" points="407.4191,-417.2993 402.0786,-408.1489 400.5472,-418.6325 407.4191,-417.2993"/>
</g>
<!-- ternary.js&#45;&gt;✪katsu&#45;curry/katsu&#45;curry.js -->
<g id="edge69" class="edge">
<title>ternary.js&#45;&gt;✪katsu&#45;curry/katsu&#45;curry.js</title>
<path fill="none" stroke="#242424" d="M1834.8847,-574.0346C1823.4059,-558.3492 1810.1195,-540.9306 1797.1988,-525.6631 1765.181,-487.8298 1728.1761,-448.2628 1694.3864,-413.5447"/>
<polygon fill="#242424" stroke="#242424" points="1696.7179,-410.9226 1687.2277,-406.2122 1691.7091,-415.8126 1696.7179,-410.9226"/>
</g>
<!-- triplet.js&#45;&gt;✪katsu&#45;curry/katsu&#45;curry.js -->
<g id="edge70" class="edge">
<title>triplet.js&#45;&gt;✪katsu&#45;curry/katsu&#45;curry.js</title>
<path fill="none" stroke="#242424" d="M2101.5886,-1123.3467C2118.8568,-1002.4509 2142.8556,-711.3845 2012.1988,-525.6631 1946.2866,-431.9726 1827.1052,-376.6273 1732.1699,-345.6414"/>
<polygon fill="#242424" stroke="#242424" points="1733.0688,-342.2542 1722.4776,-342.5346 1730.932,-348.9201 1733.0688,-342.2542"/>
</g>
<!-- types.js&#45;&gt;✪katsu&#45;curry/katsu&#45;curry.js -->
<g id="edge71" class="edge">
<title>types.js&#45;&gt;✪katsu&#45;curry/katsu&#45;curry.js</title>
<path fill="none" stroke="#242424" d="M1953.8298,-842.291C1969.6027,-769.7955 1989.6852,-626.3548 1932.1988,-525.6631 1887.7751,-447.8518 1802.4878,-394.1936 1728.2004,-359.9634"/>
<polygon fill="#242424" stroke="#242424" points="1729.2865,-356.6132 1718.733,-355.6776 1726.3996,-362.9902 1729.2865,-356.6132"/>
</g>
<!-- which.js&#45;&gt;✪katsu&#45;curry/katsu&#45;curry.js -->
<g id="edge74" class="edge">
<title>which.js&#45;&gt;✪katsu&#45;curry/katsu&#45;curry.js</title>
<path fill="none" stroke="#242424" d="M2263.1874,-1486.327C2307.9537,-1448.1028 2380.9652,-1376.6722 2410.1988,-1296.3122 2445.8855,-1198.2133 2439.6533,-1161.585 2410.1988,-1061.4382 2330.285,-789.7268 2279.6631,-710.6452 2065.1988,-525.6631 1967.8488,-441.6957 1832.2935,-384.7689 1730.9004,-350.7259"/>
<polygon fill="#242424" stroke="#242424" points="1731.7907,-347.3337 1721.1972,-347.5027 1729.584,-353.9768 1731.7907,-347.3337"/>
</g>
<!-- which.js&#45;&gt;flip.js -->
<g id="edge75" class="edge">
<title>which.js&#45;&gt;flip.js</title>
<path fill="none" stroke="#242424" d="M2191.1875,-1483.9687C2148.2585,-1443.5991 2075.2926,-1370.2457 2027.1988,-1296.3122 2013.5361,-1275.3089 2001.8487,-1250.117 1993.035,-1228.4605"/>
<polygon fill="#242424" stroke="#242424" points="1996.2615,-1227.1023 1989.3138,-1219.1035 1989.757,-1229.6891 1996.2615,-1227.1023"/>
</g>
<!-- which.js&#45;&gt;triplet.js -->
<g id="edge76" class="edge">
<title>which.js&#45;&gt;triplet.js</title>
<path fill="none" stroke="#242424" d="M2208.818,-1472.0483C2185.3972,-1413.1698 2143.5726,-1308.0255 2116.8935,-1240.9559"/>
<polygon fill="#242424" stroke="#242424" points="2120.0194,-1239.3449 2113.0711,-1231.3467 2113.5151,-1241.9323 2120.0194,-1239.3449"/>
</g>
<!-- ✪fast.js/array/every.js -->
<g id="node39" class="node">
<title>✪fast.js/array/every.js</title>
<ellipse fill="none" stroke="#0c821d" stroke-width="4" cx="2284.1988" cy="-1178.8752" rx="117.374" ry="117.374"/>
<text text-anchor="middle" x="2284.1988" y="-1176.4753" font-family="Fira Code" font-size="12.00" fill="#0c821d">✪fast.js/array/every.js</text>
</g>
<!-- which.js&#45;&gt;✪fast.js/array/every.js -->
<g id="edge72" class="edge">
<title>which.js&#45;&gt;✪fast.js/array/every.js</title>
<path fill="none" stroke="#242424" d="M2234.2026,-1469.2562C2241.5026,-1426.8569 2252.6285,-1362.2372 2262.5329,-1304.7121"/>
<polygon fill="#242424" stroke="#242424" points="2265.991,-1305.2542 2264.2386,-1294.8053 2259.0925,-1304.0664 2265.991,-1305.2542"/>
</g>
<!-- ✪fast.js/array/some.js -->
<g id="node40" class="node">
<title>✪fast.js/array/some.js</title>
<ellipse fill="none" stroke="#0c821d" stroke-width="4" cx="2570.1988" cy="-1178.8752" rx="112.6769" ry="112.6769"/>
<text text-anchor="middle" x="2570.1988" y="-1176.4753" font-family="Fira Code" font-size="12.00" fill="#0c821d">✪fast.js/array/some.js</text>
</g>
<!-- which.js&#45;&gt;✪fast.js/array/some.js -->
<g id="edge73" class="edge">
<title>which.js&#45;&gt;✪fast.js/array/some.js</title>
<path fill="none" stroke="#242424" d="M2259.8093,-1482.8288C2310.805,-1432.8905 2409.4458,-1336.295 2481.8923,-1265.3507"/>
<polygon fill="#242424" stroke="#242424" points="2484.5648,-1267.6323 2489.2608,-1258.135 2479.6672,-1262.631 2484.5648,-1267.6323"/>
</g>
<!-- map&#45;performance.fixture.js -->
<g id="node36" class="node">
<title>map&#45;performance.fixture.js</title>
<ellipse fill="none" stroke="#0c821d" stroke-width="4" cx="2055.1988" cy="-129.7839" rx="129.5681" ry="129.5681"/>
<text text-anchor="middle" x="2055.1988" y="-127.3839" font-family="Fira Code" font-size="12.00" fill="#0c821d">map&#45;performance.fixture.js</text>
</g>
</g>
</svg>
