<?xml version="1.0" encoding="UTF-8" standalone="no"?>
<!DOCTYPE svg PUBLIC "-//W3C//DTD SVG 1.1//EN"
 "http://www.w3.org/Graphics/SVG/1.1/DTD/svg11.dtd">
<!-- Generated by graphviz version 2.40.1 (20161225.0304)
 -->
<!-- Title: G Pages: 1 -->
<svg width="3064pt" height="1844pt"
 viewBox="0.00 0.00 3064.13 1844.17" xmlns="http://www.w3.org/2000/svg" xmlns:xlink="http://www.w3.org/1999/xlink">
<g id="graph0" class="graph" transform="scale(1 1) rotate(0) translate(7.992 1836.1813)">
<title>G</title>
<polygon fill="#eeeeff" stroke="transparent" points="-7.992,7.992 -7.992,-1836.1813 3056.1377,-1836.1813 3056.1377,7.992 -7.992,7.992"/>
<!-- ../package.json -->
<g id="node1" class="node">
<title>../package.json</title>
<ellipse fill="none" stroke="#0c821d" stroke-width="4" cx="79.1988" cy="-1514.7424" rx="79.3981" ry="79.3981"/>
<text text-anchor="middle" x="79.1988" y="-1512.3424" font-family="Fira Code" font-size="12.00" fill="#0c821d">../package.json</text>
</g>
<!-- ap.js -->
<g id="node2" class="node">
<title>ap.js</title>
<ellipse fill="none" stroke="#242424" stroke-width="4" cx="219.1988" cy="-619.1069" rx="33.4262" ry="33.4262"/>
<text text-anchor="middle" x="219.1988" y="-616.7069" font-family="Fira Code" font-size="12.00" fill="#242424">ap.js</text>
</g>
<!-- ✪entrust/entrust.js -->
<g id="node3" class="node">
<title>✪entrust/entrust.js</title>
<ellipse fill="none" stroke="#0c821d" stroke-width="4" cx="383.1988" cy="-309.8316" rx="99.0849" ry="99.0849"/>
<text text-anchor="middle" x="383.1988" y="-307.4316" font-family="Fira Code" font-size="12.00" fill="#0c821d">✪entrust/entrust.js</text>
</g>
<!-- ap.js&#45;&gt;✪entrust/entrust.js -->
<g id="edge1" class="edge">
<title>ap.js&#45;&gt;✪entrust/entrust.js</title>
<path fill="none" stroke="#242424" d="M232.067,-588.1265C240.0203,-569.5177 250.6867,-545.4885 261.1988,-524.6631 281.5077,-484.4294 305.6985,-441.0306 327.163,-403.8434"/>
<polygon fill="#242424" stroke="#242424" points="330.2875,-405.432 332.2694,-395.0242 324.2297,-401.9244 330.2875,-405.432"/>
</g>
<!-- array.js -->
<g id="node4" class="node">
<title>array.js</title>
<ellipse fill="none" stroke="#242424" stroke-width="4" cx="880.1988" cy="-1177.8752" rx="47.0167" ry="47.0167"/>
<text text-anchor="middle" x="880.1988" y="-1175.4753" font-family="Fira Code" font-size="12.00" fill="#242424">array.js</text>
</g>
<!-- array.js&#45;&gt;✪entrust/entrust.js -->
<g id="edge2" class="edge">
<title>array.js&#45;&gt;✪entrust/entrust.js</title>
<path fill="none" stroke="#242424" d="M885.195,-1130.9397C894.9212,-1015.497 904.5293,-713.4267 765.1988,-524.6631 696.642,-431.7829 575.1701,-373.5366 487.5853,-341.4958"/>
<polygon fill="#242424" stroke="#242424" points="488.7448,-338.1934 478.1504,-338.0974 486.3726,-344.7792 488.7448,-338.1934"/>
</g>
<!-- ✪katsu&#45;curry/katsu&#45;curry.js -->
<g id="node5" class="node">
<title>✪katsu&#45;curry/katsu&#45;curry.js</title>
<ellipse fill="none" stroke="#0c821d" stroke-width="4" cx="1590.1988" cy="-309.8316" rx="135.6633" ry="135.6633"/>
<text text-anchor="middle" x="1590.1988" y="-307.4316" font-family="Fira Code" font-size="12.00" fill="#0c821d">✪katsu&#45;curry/katsu&#45;curry.js</text>
</g>
<!-- array.js&#45;&gt;✪katsu&#45;curry/katsu&#45;curry.js -->
<g id="edge3" class="edge">
<title>array.js&#45;&gt;✪katsu&#45;curry/katsu&#45;curry.js</title>
<path fill="none" stroke="#242424" d="M874.7915,-1130.8978C860.4522,-997.4174 827.265,-619.4399 899.1988,-524.6631 965.6211,-437.148 1263.8412,-368.9347 1446.1104,-334.5004"/>
<polygon fill="#242424" stroke="#242424" points="1446.8686,-337.9193 1456.0511,-332.6342 1445.5769,-331.0395 1446.8686,-337.9193"/>
</g>
<!-- filter.js -->
<g id="node6" class="node">
<title>filter.js</title>
<ellipse fill="none" stroke="#242424" stroke-width="4" cx="960.1988" cy="-886.9945" rx="51.7142" ry="51.7142"/>
<text text-anchor="middle" x="960.1988" y="-884.5945" font-family="Fira Code" font-size="12.00" fill="#242424">filter.js</text>
</g>
<!-- array.js&#45;&gt;filter.js -->
<g id="edge4" class="edge">
<title>array.js&#45;&gt;filter.js</title>
<path fill="none" stroke="#242424" d="M892.6988,-1132.4251C906.4338,-1082.4846 928.5532,-1002.0583 943.7023,-946.9758"/>
<polygon fill="#242424" stroke="#242424" points="947.1691,-947.5688 946.4463,-936.9986 940.4197,-945.7125 947.1691,-947.5688"/>
</g>
<!-- delegate&#45;fast.js -->
<g id="node9" class="node">
<title>delegate&#45;fast.js</title>
<ellipse fill="none" stroke="#242424" stroke-width="4" cx="672.1988" cy="-619.1069" rx="83.5954" ry="83.5954"/>
<text text-anchor="middle" x="672.1988" y="-616.7069" font-family="Fira Code" font-size="12.00" fill="#242424">delegate&#45;fast.js</text>
</g>
<!-- filter.js&#45;&gt;delegate&#45;fast.js -->
<g id="edge12" class="edge">
<title>filter.js&#45;&gt;delegate&#45;fast.js</title>
<path fill="none" stroke="#242424" d="M922.2517,-851.6974C876.2781,-808.9343 797.9427,-736.0695 741.1819,-683.2725"/>
<polygon fill="#242424" stroke="#242424" points="743.3778,-680.535 733.6719,-676.287 738.6102,-685.6605 743.3778,-680.535"/>
</g>
<!-- ✪fast.js/filter.js -->
<g id="node12" class="node">
<title>✪fast.js/filter.js</title>
<ellipse fill="none" stroke="#0c821d" stroke-width="4" cx="1002.1988" cy="-619.1069" rx="94.3876" ry="94.3876"/>
<text text-anchor="middle" x="1002.1988" y="-616.7069" font-family="Fira Code" font-size="12.00" fill="#0c821d">✪fast.js/filter.js</text>
</g>
<!-- filter.js&#45;&gt;✪fast.js/filter.js -->
<g id="edge11" class="edge">
<title>filter.js&#45;&gt;✪fast.js/filter.js</title>
<path fill="none" stroke="#242424" d="M968.1976,-835.9763C973.2117,-803.9946 979.8562,-761.614 985.9405,-722.807"/>
<polygon fill="#242424" stroke="#242424" points="989.4654,-722.9205 987.5566,-712.4991 982.5498,-721.8362 989.4654,-722.9205"/>
</g>
<!-- chain.js -->
<g id="node7" class="node">
<title>chain.js</title>
<ellipse fill="none" stroke="#242424" stroke-width="4" cx="479.1988" cy="-1514.7424" rx="47.0167" ry="47.0167"/>
<text text-anchor="middle" x="479.1988" y="-1512.3424" font-family="Fira Code" font-size="12.00" fill="#242424">chain.js</text>
</g>
<!-- ✪flatmap&#45;fast/index.js -->
<g id="node8" class="node">
<title>✪flatmap&#45;fast/index.js</title>
<ellipse fill="none" stroke="#0c821d" stroke-width="4" cx="479.1988" cy="-1177.8752" rx="112.6769" ry="112.6769"/>
<text text-anchor="middle" x="479.1988" y="-1175.4753" font-family="Fira Code" font-size="12.00" fill="#0c821d">✪flatmap&#45;fast/index.js</text>
</g>
<!-- chain.js&#45;&gt;✪flatmap&#45;fast/index.js -->
<g id="edge5" class="edge">
<title>chain.js&#45;&gt;✪flatmap&#45;fast/index.js</title>
<path fill="none" stroke="#242424" d="M479.1988,-1467.5478C479.1988,-1424.5013 479.1988,-1358.98 479.1988,-1301.1346"/>
<polygon fill="#242424" stroke="#242424" points="482.6989,-1300.8047 479.1988,-1290.8047 475.6989,-1300.8048 482.6989,-1300.8047"/>
</g>
<!-- chain.js&#45;&gt;delegate&#45;fast.js -->
<g id="edge6" class="edge">
<title>chain.js&#45;&gt;delegate&#45;fast.js</title>
<path fill="none" stroke="#242424" d="M450.4808,-1477.2843C420.4386,-1435.5311 375.196,-1364.7185 357.1988,-1295.3122 330.9973,-1194.2656 325.3595,-1159.8525 357.1988,-1060.4382 405.6658,-909.1062 527.177,-765.4582 604.3293,-685.1597"/>
<polygon fill="#242424" stroke="#242424" points="607.2161,-687.2094 611.6532,-677.5885 602.1849,-682.3425 607.2161,-687.2094"/>
</g>
<!-- delegate&#45;fast.js&#45;&gt;✪entrust/entrust.js -->
<g id="edge8" class="edge">
<title>delegate&#45;fast.js&#45;&gt;✪entrust/entrust.js</title>
<path fill="none" stroke="#242424" d="M614.7562,-557.6343C569.8056,-509.5301 506.936,-442.2498 458.0475,-389.9314"/>
<polygon fill="#242424" stroke="#242424" points="460.3245,-387.2418 450.9397,-382.3249 455.21,-392.0211 460.3245,-387.2418"/>
</g>
<!-- delegate&#45;fast.js&#45;&gt;✪katsu&#45;curry/katsu&#45;curry.js -->
<g id="edge9" class="edge">
<title>delegate&#45;fast.js&#45;&gt;✪katsu&#45;curry/katsu&#45;curry.js</title>
<path fill="none" stroke="#242424" d="M741.479,-571.6565C767.7945,-555.1288 798.5769,-537.5234 828.1988,-524.6631 1035.3073,-434.7475 1290.3731,-371.7691 1446.5746,-338.1803"/>
<polygon fill="#242424" stroke="#242424" points="1447.6722,-341.5248 1456.7188,-336.0104 1446.2079,-334.6797 1447.6722,-341.5248"/>
</g>
<!-- choice.js -->
<g id="node10" class="node">
<title>choice.js</title>
<ellipse fill="none" stroke="#242424" stroke-width="4" cx="2749.1988" cy="-619.1069" rx="51.7142" ry="51.7142"/>
<text text-anchor="middle" x="2749.1988" y="-616.7069" font-family="Fira Code" font-size="12.00" fill="#242424">choice.js</text>
</g>
<!-- choice.js&#45;&gt;✪katsu&#45;curry/katsu&#45;curry.js -->
<g id="edge7" class="edge">
<title>choice.js&#45;&gt;✪katsu&#45;curry/katsu&#45;curry.js</title>
<path fill="none" stroke="#242424" d="M2726.3756,-572.2428C2715.6041,-554.7636 2701.1319,-536.3475 2683.1988,-524.6631 2528.5021,-423.8697 1996.4804,-353.9154 1736.0897,-324.8721"/>
<polygon fill="#242424" stroke="#242424" points="1736.1256,-321.3546 1725.8005,-323.7299 1735.3533,-328.3119 1736.1256,-321.3546"/>
</g>
<!-- either.js -->
<g id="node11" class="node">
<title>either.js</title>
<ellipse fill="none" stroke="#242424" stroke-width="4" cx="322.1988" cy="-619.1069" rx="51.7142" ry="51.7142"/>
<text text-anchor="middle" x="322.1988" y="-616.7069" font-family="Fira Code" font-size="12.00" fill="#242424">either.js</text>
</g>
<!-- either.js&#45;&gt;✪entrust/entrust.js -->
<g id="edge10" class="edge">
<title>either.js&#45;&gt;✪entrust/entrust.js</title>
<path fill="none" stroke="#242424" d="M332.2034,-568.3827C340.2847,-527.4101 351.9387,-468.3228 362.0666,-416.9738"/>
<polygon fill="#242424" stroke="#242424" points="365.5031,-417.6372 364.0044,-407.1489 358.6354,-416.2826 365.5031,-417.6372"/>
</g>
<!-- flip.js -->
<g id="node13" class="node">
<title>flip.js</title>
<ellipse fill="none" stroke="#242424" stroke-width="4" cx="1975.1988" cy="-1177.8752" rx="42.3196" ry="42.3196"/>
<text text-anchor="middle" x="1975.1988" y="-1175.4753" font-family="Fira Code" font-size="12.00" fill="#242424">flip.js</text>
</g>
<!-- flip.js&#45;&gt;✪katsu&#45;curry/katsu&#45;curry.js -->
<g id="edge13" class="edge">
<title>flip.js&#45;&gt;✪katsu&#45;curry/katsu&#45;curry.js</title>
<path fill="none" stroke="#242424" d="M1988.2843,-1137.5279C2021.1258,-1028.082 2095.461,-720.6681 1965.1988,-524.6631 1910.2147,-441.9288 1811.8014,-387.3095 1729.5869,-353.8536"/>
<polygon fill="#242424" stroke="#242424" points="1730.7416,-350.5459 1720.157,-350.0794 1728.1405,-357.0447 1730.7416,-350.5459"/>
</g>
<!-- future.js -->
<g id="node14" class="node">
<title>future.js</title>
<ellipse fill="none" stroke="#242424" stroke-width="4" cx="144.1988" cy="-886.9945" rx="51.7142" ry="51.7142"/>
<text text-anchor="middle" x="144.1988" y="-884.5945" font-family="Fira Code" font-size="12.00" fill="#242424">future.js</text>
</g>
<!-- future.js&#45;&gt;✪entrust/entrust.js -->
<g id="edge14" class="edge">
<title>future.js&#45;&gt;✪entrust/entrust.js</title>
<path fill="none" stroke="#242424" d="M138.5849,-835.6878C132.8443,-762.9405 130.4407,-627.2603 177.1988,-524.6631 203.6811,-466.5553 252.6003,-414.486 296.1231,-376.1662"/>
<polygon fill="#242424" stroke="#242424" points="298.6426,-378.6137 303.8982,-369.4143 294.0529,-373.3285 298.6426,-378.6137"/>
</g>
<!-- index.js -->
<g id="node15" class="node">
<title>index.js</title>
<ellipse fill="none" stroke="#242424" stroke-width="4" cx="1240.1988" cy="-1781.1809" rx="47.0167" ry="47.0167"/>
<text text-anchor="middle" x="1240.1988" y="-1778.781" font-family="Fira Code" font-size="12.00" fill="#242424">index.js</text>
</g>
<!-- index.js&#45;&gt;../package.json -->
<g id="edge17" class="edge">
<title>index.js&#45;&gt;../package.json</title>
<path fill="none" stroke="#242424" d="M1193.1551,-1780.7917C1010.1369,-1778.5052 347.107,-1762.8072 172.1988,-1655.1726 149.2325,-1641.0397 130.7444,-1618.866 116.4882,-1596.2785"/>
<polygon fill="#242424" stroke="#242424" points="119.4118,-1594.3498 111.2311,-1587.6173 113.4279,-1597.9819 119.4118,-1594.3498"/>
</g>
<!-- index.js&#45;&gt;ap.js -->
<g id="edge18" class="edge">
<title>index.js&#45;&gt;ap.js</title>
<path fill="none" stroke="#242424" d="M1193.0846,-1778.8164C1003.4391,-1768.8301 302.9798,-1727.2673 238.1988,-1655.1726 204.5842,-1617.763 215.2014,-854.9784 218.4218,-662.7752"/>
<polygon fill="#242424" stroke="#242424" points="221.926,-662.5527 218.5962,-652.4947 214.927,-662.4339 221.926,-662.5527"/>
</g>
<!-- index.js&#45;&gt;array.js -->
<g id="edge19" class="edge">
<title>index.js&#45;&gt;array.js</title>
<path fill="none" stroke="#242424" d="M1193.2417,-1775.1731C1088.1621,-1760.6662 839.4095,-1720.0561 790.1988,-1655.1726 691.5928,-1525.1622 793.4806,-1318.9857 849.1002,-1226.0735"/>
<polygon fill="#242424" stroke="#242424" points="852.1414,-1227.8083 854.33,-1217.4419 846.1546,-1224.1808 852.1414,-1227.8083"/>
</g>
<!-- index.js&#45;&gt;✪katsu&#45;curry/katsu&#45;curry.js -->
<g id="edge15" class="edge">
<title>index.js&#45;&gt;✪katsu&#45;curry/katsu&#45;curry.js</title>
<path fill="none" stroke="#242424" d="M1287.1792,-1779.176C1465.5333,-1771.0043 2099.8294,-1736.6911 2282.1988,-1655.1726 2503.5481,-1556.2303 2592.181,-1516.1776 2692.1988,-1295.3122 2862.6474,-918.9172 2518.5002,-750.0546 2172.1988,-524.6631 2035.0909,-435.4259 1855.8053,-376.4553 1732.6545,-343.2491"/>
<polygon fill="#242424" stroke="#242424" points="1733.3394,-339.8094 1722.7747,-340.6079 1731.5315,-346.5719 1733.3394,-339.8094"/>
</g>
<!-- index.js&#45;&gt;filter.js -->
<g id="edge23" class="edge">
<title>index.js&#45;&gt;filter.js</title>
<path fill="none" stroke="#242424" d="M1192.8733,-1779.1375C1059.5957,-1772.2951 686.0195,-1745.2768 612.1988,-1655.1726 570.0704,-1603.7515 637.5264,-1113.7771 677.1988,-1060.4382 721.2303,-1001.2387 760.2914,-1019.9871 823.1988,-981.4382 852.6319,-963.402 884.4366,-941.6266 909.9862,-923.5323"/>
<polygon fill="#242424" stroke="#242424" points="912.279,-926.1966 918.3986,-917.5478 908.2213,-920.4926 912.279,-926.1966"/>
</g>
<!-- index.js&#45;&gt;chain.js -->
<g id="edge20" class="edge">
<title>index.js&#45;&gt;chain.js</title>
<path fill="none" stroke="#242424" d="M1193.3692,-1776.8042C1060.2017,-1763.6595 682.3352,-1721.3067 579.1988,-1655.1726 545.9482,-1633.8513 520.4042,-1597.1925 503.4578,-1566.676"/>
<polygon fill="#242424" stroke="#242424" points="506.5192,-1564.979 498.6915,-1557.8391 500.3582,-1568.302 506.5192,-1564.979"/>
</g>
<!-- index.js&#45;&gt;choice.js -->
<g id="edge21" class="edge">
<title>index.js&#45;&gt;choice.js</title>
<path fill="none" stroke="#242424" d="M1287.5676,-1780.8296C1529.9927,-1778.5562 2624.3905,-1762.3785 2725.1988,-1655.1726 2857.4749,-1514.502 2784.8093,-881.3705 2757.8788,-680.4761"/>
<polygon fill="#242424" stroke="#242424" points="2761.3241,-679.8355 2756.5168,-670.3941 2754.3871,-680.7726 2761.3241,-679.8355"/>
</g>
<!-- index.js&#45;&gt;either.js -->
<g id="edge22" class="edge">
<title>index.js&#45;&gt;either.js</title>
<path fill="none" stroke="#242424" d="M1192.9661,-1778.5281C1008.4872,-1767.6972 343.6824,-1724.1052 282.1988,-1655.1726 194.222,-1556.5371 269.3386,-1192.43 276.1988,-1060.4382 283.2782,-924.2293 302.5683,-765.327 313.7926,-680.2738"/>
<polygon fill="#242424" stroke="#242424" points="317.2736,-680.6477 315.1201,-670.2741 310.3345,-679.7265 317.2736,-680.6477"/>
</g>
<!-- index.js&#45;&gt;flip.js -->
<g id="edge24" class="edge">
<title>index.js&#45;&gt;flip.js</title>
<path fill="none" stroke="#242424" d="M1287.0524,-1777.216C1449.5102,-1763.0018 1981.3813,-1712.3938 2030.1988,-1655.1726 2111.2155,-1560.2093 2047.1847,-1497.978 2030.1988,-1374.3122 2023.1794,-1323.2076 2006.3427,-1266.6651 1993.1326,-1227.4166"/>
<polygon fill="#242424" stroke="#242424" points="1996.4017,-1226.159 1989.8604,-1217.8246 1989.7766,-1228.4191 1996.4017,-1226.159"/>
</g>
<!-- index.js&#45;&gt;future.js -->
<g id="edge25" class="edge">
<title>index.js&#45;&gt;future.js</title>
<path fill="none" stroke="#242424" d="M1193.2207,-1778.8611C1000.769,-1768.9058 279.4965,-1727.0129 210.1988,-1655.1726 185.7422,-1629.8187 156.8725,-1126.5993 147.39,-948.6692"/>
<polygon fill="#242424" stroke="#242424" points="150.885,-948.4809 146.8598,-938.6805 143.8949,-948.852 150.885,-948.4809"/>
</g>
<!-- ✪katsu&#45;curry/utils/length.js -->
<g id="node16" class="node">
<title>✪katsu&#45;curry/utils/length.js</title>
<ellipse fill="none" stroke="#0c821d" stroke-width="4" cx="939.1988" cy="-1514.7424" rx="140.3604" ry="140.3604"/>
<text text-anchor="middle" x="939.1988" y="-1512.3424" font-family="Fira Code" font-size="12.00" fill="#0c821d">✪katsu&#45;curry/utils/length.js</text>
</g>
<!-- index.js&#45;&gt;✪katsu&#45;curry/utils/length.js -->
<g id="edge16" class="edge">
<title>index.js&#45;&gt;✪katsu&#45;curry/utils/length.js</title>
<path fill="none" stroke="#242424" d="M1203.9875,-1750.6741C1174.0694,-1725.3419 1130.5944,-1688.2367 1093.1988,-1655.1726 1079.2334,-1642.8248 1064.6519,-1629.7594 1050.2679,-1616.7654"/>
<polygon fill="#242424" stroke="#242424" points="1052.5322,-1614.0941 1042.7683,-1609.981 1047.8361,-1619.2852 1052.5322,-1614.0941"/>
</g>
<!-- invert.js -->
<g id="node17" class="node">
<title>invert.js</title>
<ellipse fill="none" stroke="#242424" stroke-width="4" cx="2870.1988" cy="-619.1069" rx="51.7142" ry="51.7142"/>
<text text-anchor="middle" x="2870.1988" y="-616.7069" font-family="Fira Code" font-size="12.00" fill="#242424">invert.js</text>
</g>
<!-- index.js&#45;&gt;invert.js -->
<g id="edge26" class="edge">
<title>index.js&#45;&gt;invert.js</title>
<path fill="none" stroke="#242424" d="M1287.3584,-1780.8109C1533.769,-1778.4228 2666.1791,-1761.6813 2775.1988,-1655.1726 3048.1457,-1388.5124 2935.3043,-856.4115 2887.5212,-678.5554"/>
<polygon fill="#242424" stroke="#242424" points="2890.8843,-677.584 2884.8839,-668.8521 2884.1293,-679.42 2890.8843,-677.584"/>
</g>
<!-- iterate.js -->
<g id="node18" class="node">
<title>iterate.js</title>
<ellipse fill="none" stroke="#242424" stroke-width="4" cx="1124.1988" cy="-886.9945" rx="56.412" ry="56.412"/>
<text text-anchor="middle" x="1124.1988" y="-884.5945" font-family="Fira Code" font-size="12.00" fill="#242424">iterate.js</text>
</g>
<!-- index.js&#45;&gt;iterate.js -->
<g id="edge27" class="edge">
<title>index.js&#45;&gt;iterate.js</title>
<path fill="none" stroke="#242424" d="M1216.6362,-1740.2028C1203.865,-1716.1731 1188.9478,-1684.8009 1180.1988,-1655.1726 1106.1985,-1404.5726 1112.541,-1088.9658 1119.6888,-953.6067"/>
<polygon fill="#242424" stroke="#242424" points="1123.1956,-953.5753 1120.2477,-943.3989 1116.2061,-953.1925 1123.1956,-953.5753"/>
</g>
<!-- map.js -->
<g id="node19" class="node">
<title>map.js</title>
<ellipse fill="none" stroke="#242424" stroke-width="4" cx="1709.1988" cy="-1177.8752" rx="37.623" ry="37.623"/>
<text text-anchor="middle" x="1709.1988" y="-1175.4753" font-family="Fira Code" font-size="12.00" fill="#242424">map.js</text>
</g>
<!-- index.js&#45;&gt;map.js -->
<g id="edge28" class="edge">
<title>index.js&#45;&gt;map.js</title>
<path fill="none" stroke="#242424" d="M1286.7836,-1774.5782C1389.1578,-1759.0483 1628.5826,-1716.8099 1678.1988,-1655.1726 1704.6447,-1622.3194 1708.6396,-1341.0189 1709.162,-1226.2894"/>
<polygon fill="#242424" stroke="#242424" points="1712.6628,-1226.0574 1709.2013,-1216.044 1705.6628,-1226.0304 1712.6628,-1226.0574"/>
</g>
<!-- math.js -->
<g id="node20" class="node">
<title>math.js</title>
<ellipse fill="none" stroke="#242424" stroke-width="4" cx="1184.1988" cy="-1177.8752" rx="42.3196" ry="42.3196"/>
<text text-anchor="middle" x="1184.1988" y="-1175.4753" font-family="Fira Code" font-size="12.00" fill="#242424">math.js</text>
</g>
<!-- index.js&#45;&gt;math.js -->
<g id="edge29" class="edge">
<title>index.js&#45;&gt;math.js</title>
<path fill="none" stroke="#242424" d="M1225.9764,-1736.1654C1219.0709,-1712.3395 1211.3802,-1682.4432 1207.1988,-1655.1726 1183.7358,-1502.1476 1182.2581,-1318.597 1183.1808,-1230.3368"/>
<polygon fill="#242424" stroke="#242424" points="1186.6807,-1230.3501 1183.3004,-1220.309 1179.6812,-1230.2665 1186.6807,-1230.3501"/>
</g>
<!-- object.js -->
<g id="node21" class="node">
<title>object.js</title>
<ellipse fill="none" stroke="#242424" stroke-width="4" cx="1777.1988" cy="-1514.7424" rx="51.7142" ry="51.7142"/>
<text text-anchor="middle" x="1777.1988" y="-1512.3424" font-family="Fira Code" font-size="12.00" fill="#242424">object.js</text>
</g>
<!-- index.js&#45;&gt;object.js -->
<g id="edge30" class="edge">
<title>index.js&#45;&gt;object.js</title>
<path fill="none" stroke="#242424" d="M1286.6475,-1773.853C1392.1698,-1756.4172 1645.8574,-1709.8113 1711.1988,-1655.1726 1735.7853,-1634.6133 1751.7739,-1602.8332 1761.8461,-1574.7021"/>
<polygon fill="#242424" stroke="#242424" points="1765.2637,-1575.5227 1765.1664,-1564.9283 1758.6357,-1573.2711 1765.2637,-1575.5227"/>
</g>
<!-- path.js -->
<g id="node22" class="node">
<title>path.js</title>
<ellipse fill="none" stroke="#242424" stroke-width="4" cx="663.1988" cy="-1514.7424" rx="42.3196" ry="42.3196"/>
<text text-anchor="middle" x="663.1988" y="-1512.3424" font-family="Fira Code" font-size="12.00" fill="#242424">path.js</text>
</g>
<!-- index.js&#45;&gt;path.js -->
<g id="edge31" class="edge">
<title>index.js&#45;&gt;path.js</title>
<path fill="none" stroke="#242424" d="M1193.3196,-1775.3928C1079.1735,-1760.451 790.9147,-1717.3557 719.1988,-1655.1726 693.3646,-1632.7724 679.3217,-1596.8045 671.7594,-1566.8784"/>
<polygon fill="#242424" stroke="#242424" points="675.1305,-1565.9236 669.4356,-1556.9895 668.3161,-1567.525 675.1305,-1565.9236"/>
</g>
<!-- random&#45;floor.js -->
<g id="node23" class="node">
<title>random&#45;floor.js</title>
<ellipse fill="none" stroke="#242424" stroke-width="4" cx="1315.1988" cy="-886.9945" rx="79.3981" ry="79.3981"/>
<text text-anchor="middle" x="1315.1988" y="-884.5945" font-family="Fira Code" font-size="12.00" fill="#242424">random&#45;floor.js</text>
</g>
<!-- index.js&#45;&gt;random&#45;floor.js -->
<g id="edge32" class="edge">
<title>index.js&#45;&gt;random&#45;floor.js</title>
<path fill="none" stroke="#242424" d="M1239.271,-1733.9118C1238.8521,-1710.2665 1238.4054,-1681.208 1238.1988,-1655.1726 1236.0977,-1390.3972 1227.2763,-1321.2093 1273.1988,-1060.4382 1278.1998,-1032.0401 1285.1158,-1001.3661 1291.8933,-973.8244"/>
<polygon fill="#242424" stroke="#242424" points="1295.3621,-974.3784 1294.3803,-963.8292 1288.5692,-972.6882 1295.3621,-974.3784"/>
</g>
<!-- random&#45;shuffle.js -->
<g id="node24" class="node">
<title>random&#45;shuffle.js</title>
<ellipse fill="none" stroke="#0c821d" stroke-width="4" cx="1581.1988" cy="-1514.7424" rx="88.2923" ry="88.2923"/>
<text text-anchor="middle" x="1581.1988" y="-1512.3424" font-family="Fira Code" font-size="12.00" fill="#0c821d">random&#45;shuffle.js</text>
</g>
<!-- index.js&#45;&gt;random&#45;shuffle.js -->
<g id="edge33" class="edge">
<title>index.js&#45;&gt;random&#45;shuffle.js</title>
<path fill="none" stroke="#242424" d="M1284.3928,-1765.0403C1335.3222,-1744.9146 1419.6382,-1706.7722 1479.1988,-1655.1726 1497.8144,-1639.0452 1514.941,-1618.9001 1529.6316,-1598.9471"/>
<polygon fill="#242424" stroke="#242424" points="1532.5527,-1600.8801 1535.5625,-1590.7218 1526.8748,-1596.786 1532.5527,-1600.8801"/>
</g>
<!-- random&#45;take.js -->
<g id="node25" class="node">
<title>random&#45;take.js</title>
<ellipse fill="none" stroke="#242424" stroke-width="4" cx="1357.1988" cy="-1177.8752" rx="74.7005" ry="74.7005"/>
<text text-anchor="middle" x="1357.1988" y="-1175.4753" font-family="Fira Code" font-size="12.00" fill="#242424">random&#45;take.js</text>
</g>
<!-- index.js&#45;&gt;random&#45;take.js -->
<g id="edge34" class="edge">
<title>index.js&#45;&gt;random&#45;take.js</title>
<path fill="none" stroke="#242424" d="M1240.2134,-1734.0865C1241.2082,-1657.5453 1247.2882,-1501.8674 1278.1988,-1374.3122 1288.053,-1333.648 1304.7628,-1290.309 1320.2834,-1254.7135"/>
<polygon fill="#242424" stroke="#242424" points="1323.5741,-1255.9256 1324.41,-1245.3638 1317.1701,-1253.0991 1323.5741,-1255.9256"/>
</g>
<!-- random&#45;word.js -->
<g id="node26" class="node">
<title>random&#45;word.js</title>
<ellipse fill="none" stroke="#242424" stroke-width="4" cx="1362.1988" cy="-1514.7424" rx="74.7005" ry="74.7005"/>
<text text-anchor="middle" x="1362.1988" y="-1512.3424" font-family="Fira Code" font-size="12.00" fill="#242424">random&#45;word.js</text>
</g>
<!-- index.js&#45;&gt;random&#45;word.js -->
<g id="edge35" class="edge">
<title>index.js&#45;&gt;random&#45;word.js</title>
<path fill="none" stroke="#242424" d="M1259.8002,-1738.373C1277.8286,-1699.0003 1304.9917,-1639.6783 1326.812,-1592.0246"/>
<polygon fill="#242424" stroke="#242424" points="1330.1195,-1593.2081 1331.1005,-1582.6588 1323.7549,-1590.2938 1330.1195,-1593.2081"/>
</g>
<!-- random.js -->
<g id="node27" class="node">
<title>random.js</title>
<ellipse fill="none" stroke="#0c821d" stroke-width="4" cx="1898.1988" cy="-1514.7424" rx="51.7142" ry="51.7142"/>
<text text-anchor="middle" x="1898.1988" y="-1512.3424" font-family="Fira Code" font-size="12.00" fill="#0c821d">random.js</text>
</g>
<!-- index.js&#45;&gt;random.js -->
<g id="edge36" class="edge">
<title>index.js&#45;&gt;random.js</title>
<path fill="none" stroke="#242424" d="M1287.2957,-1776.8469C1413.0826,-1764.4224 1753.1159,-1725.0158 1838.1988,-1655.1726 1862.4873,-1635.2346 1877.1467,-1603.6562 1885.8869,-1575.4901"/>
<polygon fill="#242424" stroke="#242424" points="1889.3039,-1576.2741 1888.7377,-1565.6944 1882.5827,-1574.3181 1889.3039,-1576.2741"/>
</g>
<!-- range.js -->
<g id="node28" class="node">
<title>range.js</title>
<ellipse fill="none" stroke="#242424" stroke-width="4" cx="1535.1988" cy="-886.9945" rx="47.0167" ry="47.0167"/>
<text text-anchor="middle" x="1535.1988" y="-884.5945" font-family="Fira Code" font-size="12.00" fill="#242424">range.js</text>
</g>
<!-- index.js&#45;&gt;range.js -->
<g id="edge37" class="edge">
<title>index.js&#45;&gt;range.js</title>
<path fill="none" stroke="#242424" d="M1285.2234,-1766.9927C1333.6885,-1749.1753 1408.8394,-1713.6404 1446.1988,-1655.1726 1455.8115,-1640.1286 1510.9208,-1119.4886 1529.2624,-944.0461"/>
<polygon fill="#242424" stroke="#242424" points="1532.756,-944.2887 1530.3141,-933.9791 1525.7939,-943.5613 1532.756,-944.2887"/>
</g>
<!-- reduce.js -->
<g id="node29" class="node">
<title>reduce.js</title>
<ellipse fill="none" stroke="#242424" stroke-width="4" cx="738.1988" cy="-1177.8752" rx="51.7142" ry="51.7142"/>
<text text-anchor="middle" x="738.1988" y="-1175.4753" font-family="Fira Code" font-size="12.00" fill="#242424">reduce.js</text>
</g>
<!-- index.js&#45;&gt;reduce.js -->
<g id="edge38" class="edge">
<title>index.js&#45;&gt;reduce.js</title>
<path fill="none" stroke="#242424" d="M1193.1276,-1776.3008C1080.9277,-1763.6085 802.9286,-1725.5584 747.1988,-1655.1726 697.5707,-1592.4931 717.6327,-1353.2077 730.531,-1239.1032"/>
<polygon fill="#242424" stroke="#242424" points="734.0133,-1239.4562 731.6771,-1229.1221 727.059,-1238.6575 734.0133,-1239.4562"/>
</g>
<!-- reject.js -->
<g id="node30" class="node">
<title>reject.js</title>
<ellipse fill="none" stroke="#242424" stroke-width="4" cx="1034.1988" cy="-1177.8752" rx="51.7142" ry="51.7142"/>
<text text-anchor="middle" x="1034.1988" y="-1175.4753" font-family="Fira Code" font-size="12.00" fill="#242424">reject.js</text>
</g>
<!-- index.js&#45;&gt;reject.js -->
<g id="edge39" class="edge">
<title>index.js&#45;&gt;reject.js</title>
<path fill="none" stroke="#242424" d="M1204.5853,-1750.4085C1179.8471,-1726.911 1148.3554,-1692.3328 1131.1988,-1655.1726 1078.2649,-1540.5211 1114.5353,-1497.8167 1088.1988,-1374.3122 1078.3129,-1327.9521 1063.9776,-1276.2938 1052.5613,-1237.5912"/>
<polygon fill="#242424" stroke="#242424" points="1055.7781,-1236.1288 1049.5759,-1227.5391 1049.0678,-1238.1217 1055.7781,-1236.1288"/>
</g>
<!-- string.js -->
<g id="node31" class="node">
<title>string.js</title>
<ellipse fill="none" stroke="#242424" stroke-width="4" cx="443.1988" cy="-619.1069" rx="51.7142" ry="51.7142"/>
<text text-anchor="middle" x="443.1988" y="-616.7069" font-family="Fira Code" font-size="12.00" fill="#242424">string.js</text>
</g>
<!-- index.js&#45;&gt;string.js -->
<g id="edge40" class="edge">
<title>index.js&#45;&gt;string.js</title>
<path fill="none" stroke="#242424" d="M1193.1091,-1780.5022C1036.6409,-1777.2763 537.533,-1758.8937 423.1988,-1655.1726 139.6044,-1397.9029 341.3852,-852.286 417.4955,-675.6003"/>
<polygon fill="#242424" stroke="#242424" points="420.7932,-676.7933 421.5651,-666.2266 414.3722,-674.0056 420.7932,-676.7933"/>
</g>
<!-- ternary.js -->
<g id="node32" class="node">
<title>ternary.js</title>
<ellipse fill="none" stroke="#242424" stroke-width="4" cx="1867.1988" cy="-619.1069" rx="56.412" ry="56.412"/>
<text text-anchor="middle" x="1867.1988" y="-616.7069" font-family="Fira Code" font-size="12.00" fill="#242424">ternary.js</text>
</g>
<!-- index.js&#45;&gt;ternary.js -->
<g id="edge41" class="edge">
<title>index.js&#45;&gt;ternary.js</title>
<path fill="none" stroke="#242424" d="M1287.4063,-1780.4452C1433.3228,-1777.0788 1872.4923,-1758.3963 1959.1988,-1655.1726 1999.3422,-1607.382 1978.3878,-1433.7026 1959.1988,-1374.3122 1945.8874,-1333.113 1916.5709,-1336.1535 1902.1988,-1295.3122 1827.333,-1082.5658 1845.0239,-808.9035 1858.5893,-685.1218"/>
<polygon fill="#242424" stroke="#242424" points="1862.0832,-685.3706 1859.7214,-675.0424 1855.127,-684.5892 1862.0832,-685.3706"/>
</g>
<!-- triplet.js -->
<g id="node33" class="node">
<title>triplet.js</title>
<ellipse fill="none" stroke="#242424" stroke-width="4" cx="2092.1988" cy="-1177.8752" rx="56.412" ry="56.412"/>
<text text-anchor="middle" x="2092.1988" y="-1175.4753" font-family="Fira Code" font-size="12.00" fill="#242424">triplet.js</text>
</g>
<!-- index.js&#45;&gt;triplet.js -->
<g id="edge42" class="edge">
<title>index.js&#45;&gt;triplet.js</title>
<path fill="none" stroke="#242424" d="M1287.1953,-1777.4116C1454.1079,-1763.5695 2011.2375,-1713.3122 2064.1988,-1655.1726 2167.5236,-1541.7452 2136.2351,-1343.2765 2110.8593,-1241.7106"/>
<polygon fill="#242424" stroke="#242424" points="2114.2173,-1240.7146 2108.3491,-1231.8934 2107.4355,-1242.4487 2114.2173,-1240.7146"/>
</g>
<!-- types.js -->
<g id="node34" class="node">
<title>types.js</title>
<ellipse fill="none" stroke="#242424" stroke-width="4" cx="1942.1988" cy="-886.9945" rx="47.0167" ry="47.0167"/>
<text text-anchor="middle" x="1942.1988" y="-884.5945" font-family="Fira Code" font-size="12.00" fill="#242424">types.js</text>
</g>
<!-- index.js&#45;&gt;types.js -->
<g id="edge43" class="edge">
<title>index.js&#45;&gt;types.js</title>
<path fill="none" stroke="#242424" d="M1287.2479,-1776.8049C1444.737,-1761.689 1946.1248,-1709.6093 1992.1988,-1655.1726 2032.5205,-1607.5323 2013.9138,-1432.8263 1992.1988,-1374.3122 1976.0807,-1330.8798 1940.3169,-1338.7447 1924.1988,-1295.3122 1887.8798,-1197.4456 1918.8038,-1164.6872 1924.1988,-1060.4382 1926.2193,-1021.3951 1930.7819,-977.6059 1934.8076,-943.7944"/>
<polygon fill="#242424" stroke="#242424" points="1938.3099,-943.9858 1936.0363,-933.6378 1931.3606,-943.1451 1938.3099,-943.9858"/>
</g>
<!-- which.js -->
<g id="node35" class="node">
<title>which.js</title>
<ellipse fill="none" stroke="#242424" stroke-width="4" cx="2226.1988" cy="-1514.7424" rx="47.0167" ry="47.0167"/>
<text text-anchor="middle" x="2226.1988" y="-1512.3424" font-family="Fira Code" font-size="12.00" fill="#242424">which.js</text>
</g>
<!-- index.js&#45;&gt;which.js -->
<g id="edge44" class="edge">
<title>index.js&#45;&gt;which.js</title>
<path fill="none" stroke="#242424" d="M1287.3241,-1778.6705C1446.5793,-1769.5244 1962.7731,-1734.2896 2106.1988,-1655.1726 2144.4426,-1634.0764 2175.9586,-1595.6801 2197.0808,-1564.3624"/>
<polygon fill="#242424" stroke="#242424" points="2200.1838,-1566.0141 2202.7597,-1555.7372 2194.3373,-1562.1647 2200.1838,-1566.0141"/>
</g>
<!-- invert.js&#45;&gt;✪katsu&#45;curry/katsu&#45;curry.js -->
<g id="edge45" class="edge">
<title>invert.js&#45;&gt;✪katsu&#45;curry/katsu&#45;curry.js</title>
<path fill="none" stroke="#242424" d="M2849.895,-571.1309C2840.2923,-553.9296 2827.1523,-536.0037 2810.1988,-524.6631 2636.0202,-408.1505 2020.056,-344.5343 1735.8468,-320.7981"/>
<polygon fill="#242424" stroke="#242424" points="1736.1331,-317.3099 1725.8778,-319.9705 1735.554,-324.2859 1736.1331,-317.3099"/>
</g>
<!-- iterate.js&#45;&gt;✪katsu&#45;curry/katsu&#45;curry.js -->
<g id="edge46" class="edge">
<title>iterate.js&#45;&gt;✪katsu&#45;curry/katsu&#45;curry.js</title>
<path fill="none" stroke="#242424" d="M1129.1752,-830.9587C1138.0457,-741.7652 1159.0331,-572.663 1194.1988,-524.6631 1256.5264,-439.5881 1363.0555,-384.5337 1449.9329,-351.4773"/>
<polygon fill="#242424" stroke="#242424" points="1451.211,-354.7361 1459.3482,-347.9511 1448.7558,-348.1807 1451.211,-354.7361"/>
</g>
<!-- map.js&#45;&gt;✪katsu&#45;curry/katsu&#45;curry.js -->
<g id="edge48" class="edge">
<title>map.js&#45;&gt;✪katsu&#45;curry/katsu&#45;curry.js</title>
<path fill="none" stroke="#242424" d="M1691.4867,-1144.2167C1672.3156,-1105.9558 1642.6801,-1041.0599 1629.1988,-981.4382 1589.0225,-803.7569 1583.3253,-593.2827 1585.0069,-455.9307"/>
<polygon fill="#242424" stroke="#242424" points="1588.5089,-455.8051 1585.1466,-445.758 1581.5096,-455.7089 1588.5089,-455.8051"/>
</g>
<!-- ✪fast.js/map.js -->
<g id="node36" class="node">
<title>✪fast.js/map.js</title>
<ellipse fill="none" stroke="#0c821d" stroke-width="4" cx="1719.1988" cy="-886.9945" rx="80.796" ry="80.796"/>
<text text-anchor="middle" x="1719.1988" y="-884.5945" font-family="Fira Code" font-size="12.00" fill="#0c821d">✪fast.js/map.js</text>
</g>
<!-- map.js&#45;&gt;✪fast.js/map.js -->
<g id="edge47" class="edge">
<title>map.js&#45;&gt;✪fast.js/map.js</title>
<path fill="none" stroke="#242424" d="M1710.5061,-1139.8477C1711.9141,-1098.8925 1714.2047,-1032.2626 1716.0812,-977.6803"/>
<polygon fill="#242424" stroke="#242424" points="1719.5807,-977.7521 1716.4264,-967.6377 1712.5848,-977.5115 1719.5807,-977.7521"/>
</g>
<!-- math.js&#45;&gt;✪katsu&#45;curry/katsu&#45;curry.js -->
<g id="edge49" class="edge">
<title>math.js&#45;&gt;✪katsu&#45;curry/katsu&#45;curry.js</title>
<path fill="none" stroke="#242424" d="M1183.531,-1135.4696C1183.8718,-1024.1803 1198.5157,-718.9676 1340.1988,-524.6631 1376.0612,-475.4814 1425.2797,-430.0824 1470.5651,-393.8129"/>
<polygon fill="#242424" stroke="#242424" points="1473.0161,-396.3363 1478.6758,-387.3798 1468.6661,-390.8519 1473.0161,-396.3363"/>
</g>
<!-- object.js&#45;&gt;✪katsu&#45;curry/katsu&#45;curry.js -->
<g id="edge50" class="edge">
<title>object.js&#45;&gt;✪katsu&#45;curry/katsu&#45;curry.js</title>
<path fill="none" stroke="#242424" d="M1788.1994,-1464.0924C1812.1306,-1345.2215 1862.6468,-1039.7277 1809.1988,-792.5507 1781.5482,-664.677 1717.0706,-529.9615 1665.1953,-435.4381"/>
<polygon fill="#242424" stroke="#242424" points="1668.113,-433.481 1660.2161,-426.4177 1661.9846,-436.8639 1668.113,-433.481"/>
</g>
<!-- object.js&#45;&gt;map.js -->
<g id="edge51" class="edge">
<title>object.js&#45;&gt;map.js</title>
<path fill="none" stroke="#242424" d="M1766.9449,-1463.9453C1753.8707,-1399.1764 1731.4396,-1288.0545 1718.7244,-1225.0644"/>
<polygon fill="#242424" stroke="#242424" points="1722.104,-1224.1179 1716.6945,-1215.0082 1715.2424,-1225.503 1722.104,-1224.1179"/>
</g>
<!-- object.js&#45;&gt;reduce.js -->
<g id="edge52" class="edge">
<title>object.js&#45;&gt;reduce.js</title>
<path fill="none" stroke="#242424" d="M1756.9052,-1467.2541C1740.566,-1435.2634 1714.3467,-1395.2252 1678.1988,-1374.3122 1348.2608,-1183.4298 1155.8436,-1483.2136 824.1988,-1295.3122 799.2437,-1281.1733 779.5119,-1256.4873 765.2772,-1233.3858"/>
<polygon fill="#242424" stroke="#242424" points="768.2005,-1231.4533 760.0914,-1224.6348 762.1785,-1235.022 768.2005,-1231.4533"/>
</g>
<!-- path.js&#45;&gt;✪katsu&#45;curry/katsu&#45;curry.js -->
<g id="edge53" class="edge">
<title>path.js&#45;&gt;✪katsu&#45;curry/katsu&#45;curry.js</title>
<path fill="none" stroke="#242424" d="M656.7819,-1472.7535C639.0672,-1353.9808 590.0745,-1005.302 579.1988,-713.5507 576.0716,-629.6589 526.3654,-589.903 579.1988,-524.6631 686.4603,-392.2143 1191.217,-338.0389 1444.4938,-318.9023"/>
<polygon fill="#242424" stroke="#242424" points="1444.7973,-322.3894 1454.5087,-318.1539 1444.2757,-315.4089 1444.7973,-322.3894"/>
</g>
<!-- path.js&#45;&gt;math.js -->
<g id="edge54" class="edge">
<title>path.js&#45;&gt;math.js</title>
<path fill="none" stroke="#242424" d="M686.3344,-1479.0491C709.0114,-1446.9147 746.4758,-1400.7899 790.1988,-1374.3122 909.9769,-1301.7773 978.6772,-1372.9705 1095.1988,-1295.3122 1121.931,-1277.496 1143.8528,-1248.9001 1159.251,-1224.3874"/>
<polygon fill="#242424" stroke="#242424" points="1162.4101,-1225.9293 1164.6257,-1215.5687 1156.4327,-1222.2863 1162.4101,-1225.9293"/>
</g>
<!-- path.js&#45;&gt;reduce.js -->
<g id="edge55" class="edge">
<title>path.js&#45;&gt;reduce.js</title>
<path fill="none" stroke="#242424" d="M672.4705,-1473.098C685.5738,-1414.2436 709.5915,-1306.3669 724.6819,-1238.5874"/>
<polygon fill="#242424" stroke="#242424" points="728.1757,-1238.9998 726.9326,-1228.4781 721.343,-1237.4785 728.1757,-1238.9998"/>
</g>
<!-- random&#45;floor.js&#45;&gt;✪katsu&#45;curry/katsu&#45;curry.js -->
<g id="edge56" class="edge">
<title>random&#45;floor.js&#45;&gt;✪katsu&#45;curry/katsu&#45;curry.js</title>
<path fill="none" stroke="#242424" d="M1324.993,-808.0678C1336.778,-732.104 1361.1584,-615.6739 1408.1988,-524.6631 1428.666,-485.0645 1457.6451,-446.4177 1486.475,-413.0692"/>
<polygon fill="#242424" stroke="#242424" points="1489.4505,-414.9837 1493.4014,-405.1531 1484.1824,-410.3742 1489.4505,-414.9837"/>
</g>
<!-- random&#45;take.js&#45;&gt;✪katsu&#45;curry/katsu&#45;curry.js -->
<g id="edge57" class="edge">
<title>random&#45;take.js&#45;&gt;✪katsu&#45;curry/katsu&#45;curry.js</title>
<path fill="none" stroke="#242424" d="M1376.6143,-1105.5823C1385.8908,-1068.6748 1396.4218,-1022.9198 1403.1988,-981.4382 1436.0765,-780.1975 1377.778,-716.75 1446.1988,-524.6631 1458.6276,-489.7701 1477.9992,-455.0569 1498.5485,-424.031"/>
<polygon fill="#242424" stroke="#242424" points="1501.6906,-425.631 1504.3709,-415.3808 1495.8835,-421.7223 1501.6906,-425.631"/>
</g>
<!-- random&#45;take.js&#45;&gt;iterate.js -->
<g id="edge58" class="edge">
<title>random&#45;take.js&#45;&gt;iterate.js</title>
<path fill="none" stroke="#242424" d="M1310.3281,-1119.3611C1268.0705,-1066.6061 1206.5074,-989.7497 1165.9189,-939.0785"/>
<polygon fill="#242424" stroke="#242424" points="1168.5745,-936.7953 1159.5909,-931.1785 1163.1111,-941.1715 1168.5745,-936.7953"/>
</g>
<!-- random&#45;take.js&#45;&gt;random&#45;floor.js -->
<g id="edge59" class="edge">
<title>random&#45;take.js&#45;&gt;random&#45;floor.js</title>
<path fill="none" stroke="#242424" d="M1346.4918,-1103.7211C1340.8562,-1064.6905 1333.9067,-1016.5601 1327.9893,-975.578"/>
<polygon fill="#242424" stroke="#242424" points="1331.4412,-974.9928 1326.548,-965.5957 1324.513,-975.9932 1331.4412,-974.9928"/>
</g>
<!-- random&#45;word.js&#45;&gt;array.js -->
<g id="edge61" class="edge">
<title>random&#45;word.js&#45;&gt;array.js</title>
<path fill="none" stroke="#242424" d="M1295.3322,-1481.0172C1198.9107,-1431.7208 1026.5381,-1340.909 973.1988,-1295.3122 949.7823,-1275.2948 928.1247,-1248.6587 911.6116,-1225.8147"/>
<polygon fill="#242424" stroke="#242424" points="914.4124,-1223.7137 905.7669,-1217.5894 908.7062,-1227.7683 914.4124,-1223.7137"/>
</g>
<!-- random&#45;word.js&#45;&gt;✪katsu&#45;curry/katsu&#45;curry.js -->
<g id="edge60" class="edge">
<title>random&#45;word.js&#45;&gt;✪katsu&#45;curry/katsu&#45;curry.js</title>
<path fill="none" stroke="#242424" d="M1392.383,-1445.9841C1409.6887,-1403.4257 1430.1156,-1347.1822 1441.1988,-1295.3122 1488.0232,-1076.172 1445.5502,-1014.0969 1479.1988,-792.5507 1496.8634,-676.2452 1527.3463,-546.3956 1551.9034,-450.69"/>
<polygon fill="#242424" stroke="#242424" points="1555.3066,-451.5092 1554.4118,-440.9522 1548.5279,-449.763 1555.3066,-451.5092"/>
</g>
<!-- random&#45;word.js&#45;&gt;random&#45;take.js -->
<g id="edge62" class="edge">
<title>random&#45;word.js&#45;&gt;random&#45;take.js</title>
<path fill="none" stroke="#242424" d="M1361.0892,-1439.9807C1360.3121,-1387.6271 1359.2722,-1317.5698 1358.4631,-1263.0561"/>
<polygon fill="#242424" stroke="#242424" points="1361.9578,-1262.6656 1358.3097,-1252.7187 1354.9586,-1262.7695 1361.9578,-1262.6656"/>
</g>
<!-- range.js&#45;&gt;✪katsu&#45;curry/katsu&#45;curry.js -->
<g id="edge63" class="edge">
<title>range.js&#45;&gt;✪katsu&#45;curry/katsu&#45;curry.js</title>
<path fill="none" stroke="#242424" d="M1539.6997,-839.7628C1547.6056,-756.7997 1564.2878,-581.7388 1576.3181,-455.4936"/>
<polygon fill="#242424" stroke="#242424" points="1579.8205,-455.6341 1577.285,-445.3472 1572.8521,-454.97 1579.8205,-455.6341"/>
</g>
<!-- reduce.js&#45;&gt;delegate&#45;fast.js -->
<g id="edge65" class="edge">
<title>reduce.js&#45;&gt;delegate&#45;fast.js</title>
<path fill="none" stroke="#242424" d="M713.8128,-1132.1098C701.7713,-1110.1429 686.7361,-1083.6207 672.1988,-1060.4382 649.4701,-1024.1929 630.0087,-1022.2577 617.1988,-981.4382 588.5742,-890.2247 612.4976,-781.2649 637.1458,-706.8122"/>
<polygon fill="#242424" stroke="#242424" points="640.5769,-707.5915 640.4655,-696.9973 633.946,-705.3487 640.5769,-707.5915"/>
</g>
<!-- ✪fast.js/reduce.js -->
<g id="node38" class="node">
<title>✪fast.js/reduce.js</title>
<ellipse fill="none" stroke="#0c821d" stroke-width="4" cx="720.1988" cy="-886.9945" rx="94.3876" ry="94.3876"/>
<text text-anchor="middle" x="720.1988" y="-884.5945" font-family="Fira Code" font-size="12.00" fill="#0c821d">✪fast.js/reduce.js</text>
</g>
<!-- reduce.js&#45;&gt;✪fast.js/reduce.js -->
<g id="edge64" class="edge">
<title>reduce.js&#45;&gt;✪fast.js/reduce.js</title>
<path fill="none" stroke="#242424" d="M735.0015,-1126.2068C732.6957,-1088.9453 729.5041,-1037.3687 726.6747,-991.6443"/>
<polygon fill="#242424" stroke="#242424" points="730.1505,-991.1437 726.0394,-981.379 723.1638,-991.5761 730.1505,-991.1437"/>
</g>
<!-- reject.js&#45;&gt;✪katsu&#45;curry/katsu&#45;curry.js -->
<g id="edge66" class="edge">
<title>reject.js&#45;&gt;✪katsu&#45;curry/katsu&#45;curry.js</title>
<path fill="none" stroke="#242424" d="M1030.1752,-1126.3615C1025.9323,-1051.1799 1024.0451,-907.8084 1059.1988,-792.5507 1071.0518,-753.6885 1091.1644,-751.6794 1105.1988,-713.5507 1134.6632,-633.5019 1087.4295,-592.4561 1139.1988,-524.6631 1214.284,-426.3376 1345.7242,-370.886 1447.4016,-341.0574"/>
<polygon fill="#242424" stroke="#242424" points="1448.5054,-344.3819 1457.1456,-338.2502 1446.5674,-337.6555 1448.5054,-344.3819"/>
</g>
<!-- reject.js&#45;&gt;filter.js -->
<g id="edge67" class="edge">
<title>reject.js&#45;&gt;filter.js</title>
<path fill="none" stroke="#242424" d="M1021.3935,-1127.5398C1008.6467,-1077.4345 989.0777,-1000.5122 975.5152,-947.2004"/>
<polygon fill="#242424" stroke="#242424" points="978.8287,-946.0288 972.9712,-937.2004 972.0448,-947.7547 978.8287,-946.0288"/>
</g>
<!-- string.js&#45;&gt;✪entrust/entrust.js -->
<g id="edge68" class="edge">
<title>string.js&#45;&gt;✪entrust/entrust.js</title>
<path fill="none" stroke="#242424" d="M433.3582,-568.3827C425.4095,-527.4101 413.9464,-468.3228 403.9846,-416.9738"/>
<polygon fill="#242424" stroke="#242424" points="407.4191,-416.2993 402.0786,-407.1489 400.5472,-417.6325 407.4191,-416.2993"/>
</g>
<!-- ternary.js&#45;&gt;✪katsu&#45;curry/katsu&#45;curry.js -->
<g id="edge69" class="edge">
<title>ternary.js&#45;&gt;✪katsu&#45;curry/katsu&#45;curry.js</title>
<path fill="none" stroke="#242424" d="M1834.8847,-573.0346C1823.4059,-557.3492 1810.1195,-539.9306 1797.1988,-524.6631 1765.181,-486.8298 1728.1761,-447.2628 1694.3864,-412.5447"/>
<polygon fill="#242424" stroke="#242424" points="1696.7179,-409.9226 1687.2277,-405.2122 1691.7091,-414.8126 1696.7179,-409.9226"/>
</g>
<!-- triplet.js&#45;&gt;✪katsu&#45;curry/katsu&#45;curry.js -->
<g id="edge70" class="edge">
<title>triplet.js&#45;&gt;✪katsu&#45;curry/katsu&#45;curry.js</title>
<path fill="none" stroke="#242424" d="M2101.5886,-1122.3467C2118.8568,-1001.4509 2142.8556,-710.3845 2012.1988,-524.6631 1946.2866,-430.9726 1827.1052,-375.6273 1732.1699,-344.6414"/>
<polygon fill="#242424" stroke="#242424" points="1733.0688,-341.2542 1722.4776,-341.5346 1730.932,-347.9201 1733.0688,-341.2542"/>
</g>
<!-- types.js&#45;&gt;✪katsu&#45;curry/katsu&#45;curry.js -->
<g id="edge71" class="edge">
<title>types.js&#45;&gt;✪katsu&#45;curry/katsu&#45;curry.js</title>
<path fill="none" stroke="#242424" d="M1953.8298,-841.291C1969.6027,-768.7955 1989.6852,-625.3548 1932.1988,-524.6631 1887.7751,-446.8518 1802.4878,-393.1936 1728.2004,-358.9634"/>
<polygon fill="#242424" stroke="#242424" points="1729.2865,-355.6132 1718.733,-354.6776 1726.3996,-361.9902 1729.2865,-355.6132"/>
</g>
<!-- which.js&#45;&gt;✪katsu&#45;curry/katsu&#45;curry.js -->
<g id="edge74" class="edge">
<title>which.js&#45;&gt;✪katsu&#45;curry/katsu&#45;curry.js</title>
<path fill="none" stroke="#242424" d="M2263.1874,-1485.327C2307.9537,-1447.1028 2380.9652,-1375.6722 2410.1988,-1295.3122 2445.8855,-1197.2133 2439.6533,-1160.585 2410.1988,-1060.4382 2330.285,-788.7268 2279.6631,-709.6452 2065.1988,-524.6631 1967.8488,-440.6957 1832.2935,-383.7689 1730.9004,-349.7259"/>
<polygon fill="#242424" stroke="#242424" points="1731.7907,-346.3337 1721.1972,-346.5027 1729.584,-352.9768 1731.7907,-346.3337"/>
</g>
<!-- which.js&#45;&gt;flip.js -->
<g id="edge75" class="edge">
<title>which.js&#45;&gt;flip.js</title>
<path fill="none" stroke="#242424" d="M2191.1875,-1482.9687C2148.2585,-1442.5991 2075.2926,-1369.2457 2027.1988,-1295.3122 2013.5361,-1274.3089 2001.8487,-1249.117 1993.035,-1227.4605"/>
<polygon fill="#242424" stroke="#242424" points="1996.2615,-1226.1023 1989.3138,-1218.1035 1989.757,-1228.6891 1996.2615,-1226.1023"/>
</g>
<!-- which.js&#45;&gt;triplet.js -->
<g id="edge76" class="edge">
<title>which.js&#45;&gt;triplet.js</title>
<path fill="none" stroke="#242424" d="M2208.818,-1471.0483C2185.3972,-1412.1698 2143.5726,-1307.0255 2116.8935,-1239.9559"/>
<polygon fill="#242424" stroke="#242424" points="2120.0194,-1238.3449 2113.0711,-1230.3467 2113.5151,-1240.9323 2120.0194,-1238.3449"/>
</g>
<!-- ✪fast.js/array/every.js -->
<g id="node39" class="node">
<title>✪fast.js/array/every.js</title>
<ellipse fill="none" stroke="#0c821d" stroke-width="4" cx="2284.1988" cy="-1177.8752" rx="117.374" ry="117.374"/>
<text text-anchor="middle" x="2284.1988" y="-1175.4753" font-family="Fira Code" font-size="12.00" fill="#0c821d">✪fast.js/array/every.js</text>
</g>
<!-- which.js&#45;&gt;✪fast.js/array/every.js -->
<g id="edge72" class="edge">
<title>which.js&#45;&gt;✪fast.js/array/every.js</title>
<path fill="none" stroke="#242424" d="M2234.2026,-1468.2562C2241.5026,-1425.8569 2252.6285,-1361.2372 2262.5329,-1303.7121"/>
<polygon fill="#242424" stroke="#242424" points="2265.991,-1304.2542 2264.2386,-1293.8053 2259.0925,-1303.0664 2265.991,-1304.2542"/>
</g>
<!-- ✪fast.js/array/some.js -->
<g id="node40" class="node">
<title>✪fast.js/array/some.js</title>
<ellipse fill="none" stroke="#0c821d" stroke-width="4" cx="2570.1988" cy="-1177.8752" rx="112.6769" ry="112.6769"/>
<text text-anchor="middle" x="2570.1988" y="-1175.4753" font-family="Fira Code" font-size="12.00" fill="#0c821d">✪fast.js/array/some.js</text>
</g>
<!-- which.js&#45;&gt;✪fast.js/array/some.js -->
<g id="edge73" class="edge">
<title>which.js&#45;&gt;✪fast.js/array/some.js</title>
<path fill="none" stroke="#242424" d="M2259.8093,-1481.8288C2310.805,-1431.8905 2409.4458,-1335.295 2481.8923,-1264.3507"/>
<polygon fill="#242424" stroke="#242424" points="2484.5648,-1266.6323 2489.2608,-1257.135 2479.6672,-1261.631 2484.5648,-1266.6323"/>
</g>
<!-- performance.fixture.js -->
<g id="node37" class="node">
<title>performance.fixture.js</title>
<ellipse fill="none" stroke="#0c821d" stroke-width="4" cx="2025.1988" cy="-111.3893" rx="111.2787" ry="111.2787"/>
<text text-anchor="middle" x="2025.1988" y="-108.9893" font-family="Fira Code" font-size="12.00" fill="#0c821d">performance.fixture.js</text>
</g>
</g>
</svg>
