<?xml version="1.0" encoding="UTF-8" standalone="no"?>
<!DOCTYPE svg PUBLIC "-//W3C//DTD SVG 1.1//EN"
 "http://www.w3.org/Graphics/SVG/1.1/DTD/svg11.dtd">
<!-- Generated by graphviz version 2.40.1 (20161225.0304)
 -->
<!-- Title: G Pages: 1 -->
<svg width="2509pt" height="1628pt"
 viewBox="0.00 0.00 2508.99 1628.09" xmlns="http://www.w3.org/2000/svg" xmlns:xlink="http://www.w3.org/1999/xlink">
<g id="graph0" class="graph" transform="scale(1 1) rotate(0) translate(7.992 1620.0989)">
<title>G</title>
<polygon fill="#eeeeff" stroke="transparent" points="-7.992,7.992 -7.992,-1620.0989 2501.0019,-1620.0989 2501.0019,7.992 -7.992,7.992"/>
<!-- ../f&#45;utility.js -->
<g id="node1" class="node">
<title>../f&#45;utility.js</title>
<ellipse fill="none" stroke="#242424" stroke-width="4" cx="487.6002" cy="-426.9638" rx="79.3981" ry="79.3981"/>
<text text-anchor="middle" x="487.6002" y="-424.5638" font-family="Fira Code" font-size="12.00" fill="#242424">../f&#45;utility.js</text>
</g>
<!-- entrust/entrust.js -->
<g id="node2" class="node">
<title>entrust/entrust.js</title>
<ellipse fill="none" stroke="#0c821d" stroke-width="4" cx="491.6002" cy="-129.7839" rx="92.9895" ry="92.9895"/>
<text text-anchor="middle" x="491.6002" y="-127.3839" font-family="Fira Code" font-size="12.00" fill="#0c821d">entrust/entrust.js</text>
</g>
<!-- ../f&#45;utility.js&#45;&gt;entrust/entrust.js -->
<g id="edge1" class="edge">
<title>../f&#45;utility.js&#45;&gt;entrust/entrust.js</title>
<path fill="none" stroke="#242424" d="M488.6668,-347.7154C489.1396,-312.5885 489.7022,-270.797 490.2075,-233.2518"/>
<polygon fill="#242424" stroke="#242424" points="493.7134,-232.83 490.3484,-222.7838 486.714,-232.7357 493.7134,-232.83"/>
</g>
<!-- fantasy&#45;land/index.js -->
<g id="node3" class="node">
<title>fantasy&#45;land/index.js</title>
<ellipse fill="none" stroke="#0c821d" stroke-width="4" cx="273.6002" cy="-129.7839" rx="106.5817" ry="106.5817"/>
<text text-anchor="middle" x="273.6002" y="-127.3839" font-family="Fira Code" font-size="12.00" fill="#0c821d">fantasy&#45;land/index.js</text>
</g>
<!-- ../f&#45;utility.js&#45;&gt;fantasy&#45;land/index.js -->
<g id="edge2" class="edge">
<title>../f&#45;utility.js&#45;&gt;fantasy&#45;land/index.js</title>
<path fill="none" stroke="#242424" d="M441.1654,-362.4802C412.2341,-322.3036 374.4944,-269.8949 342.1574,-224.9888"/>
<polygon fill="#242424" stroke="#242424" points="344.8695,-222.7654 336.1856,-216.6957 339.189,-226.856 344.8695,-222.7654"/>
</g>
<!-- katsu&#45;curry/katsu&#45;curry.js -->
<g id="node4" class="node">
<title>katsu&#45;curry/katsu&#45;curry.js</title>
<ellipse fill="none" stroke="#0c821d" stroke-width="4" cx="1468.6002" cy="-129.7839" rx="129.5681" ry="129.5681"/>
<text text-anchor="middle" x="1468.6002" y="-127.3839" font-family="Fira Code" font-size="12.00" fill="#0c821d">katsu&#45;curry/katsu&#45;curry.js</text>
</g>
<!-- ../f&#45;utility.js&#45;&gt;katsu&#45;curry/katsu&#45;curry.js -->
<g id="edge3" class="edge">
<title>../f&#45;utility.js&#45;&gt;katsu&#45;curry/katsu&#45;curry.js</title>
<path fill="none" stroke="#242424" d="M538.9775,-366.0194C550.1418,-355.6203 562.5501,-345.8445 575.6002,-338.5677 818.482,-203.1368 1145.6275,-155.3195 1328.9952,-138.6056"/>
<polygon fill="#242424" stroke="#242424" points="1329.3203,-142.0906 1338.969,-137.7143 1328.6971,-135.1184 1329.3203,-142.0906"/>
</g>
<!-- ../package.json -->
<g id="node5" class="node">
<title>../package.json</title>
<ellipse fill="none" stroke="#0c821d" stroke-width="4" cx="360.6002" cy="-1286.3132" rx="79.3981" ry="79.3981"/>
<text text-anchor="middle" x="360.6002" y="-1283.9132" font-family="Fira Code" font-size="12.00" fill="#0c821d">../package.json</text>
</g>
<!-- array.js -->
<g id="node6" class="node">
<title>array.js</title>
<ellipse fill="none" stroke="#242424" stroke-width="4" cx="974.6002" cy="-943.1468" rx="47.0167" ry="47.0167"/>
<text text-anchor="middle" x="974.6002" y="-940.7468" font-family="Fira Code" font-size="12.00" fill="#242424">array.js</text>
</g>
<!-- array.js&#45;&gt;entrust/entrust.js -->
<g id="edge4" class="edge">
<title>array.js&#45;&gt;entrust/entrust.js</title>
<path fill="none" stroke="#242424" d="M979.3367,-896.0198C991.0403,-770.0781 1016.1888,-429.1185 955.6002,-338.5677 874.2609,-217.0047 704.0276,-165.3508 593.9219,-144.0276"/>
<polygon fill="#242424" stroke="#242424" points="594.2654,-140.5308 583.7902,-142.118 592.9689,-147.4096 594.2654,-140.5308"/>
</g>
<!-- array.js&#45;&gt;katsu&#45;curry/katsu&#45;curry.js -->
<g id="edge5" class="edge">
<title>array.js&#45;&gt;katsu&#45;curry/katsu&#45;curry.js</title>
<path fill="none" stroke="#242424" d="M980.9612,-896.2538C986.076,-857.7491 993.2637,-801.7745 998.6002,-752.7575 1008.6038,-660.8717 983.9508,-414.5356 1036.6002,-338.5677 1104.7917,-240.1741 1232.5657,-186.455 1331.5341,-158.2603"/>
<polygon fill="#242424" stroke="#242424" points="1332.6313,-161.5879 1341.3219,-155.5279 1330.7491,-154.8457 1332.6313,-161.5879"/>
</g>
<!-- filter.js -->
<g id="node7" class="node">
<title>filter.js</title>
<ellipse fill="none" stroke="#242424" stroke-width="4" cx="858.6002" cy="-673.5587" rx="51.7142" ry="51.7142"/>
<text text-anchor="middle" x="858.6002" y="-671.1587" font-family="Fira Code" font-size="12.00" fill="#242424">filter.js</text>
</g>
<!-- array.js&#45;&gt;filter.js -->
<g id="edge6" class="edge">
<title>array.js&#45;&gt;filter.js</title>
<path fill="none" stroke="#242424" d="M955.9628,-899.8328C936.2282,-853.969 904.9821,-781.352 883.2287,-730.7962"/>
<polygon fill="#242424" stroke="#242424" points="886.3142,-729.1117 879.1466,-721.3093 879.8841,-731.8785 886.3142,-729.1117"/>
</g>
<!-- delegate&#45;fast.js -->
<g id="node9" class="node">
<title>delegate&#45;fast.js</title>
<ellipse fill="none" stroke="#242424" stroke-width="4" cx="668.6002" cy="-426.9638" rx="83.5954" ry="83.5954"/>
<text text-anchor="middle" x="668.6002" y="-424.5638" font-family="Fira Code" font-size="12.00" fill="#242424">delegate&#45;fast.js</text>
</g>
<!-- filter.js&#45;&gt;delegate&#45;fast.js -->
<g id="edge11" class="edge">
<title>filter.js&#45;&gt;delegate&#45;fast.js</title>
<path fill="none" stroke="#242424" d="M827.0123,-632.5618C799.6515,-597.0512 759.3759,-544.7787 726.2832,-501.8288"/>
<polygon fill="#242424" stroke="#242424" points="728.8557,-499.4329 719.9797,-493.6477 723.3107,-503.7053 728.8557,-499.4329"/>
</g>
<!-- fast.js/filter.js -->
<g id="node10" class="node">
<title>fast.js/filter.js</title>
<ellipse fill="none" stroke="#0c821d" stroke-width="4" cx="858.6002" cy="-426.9638" rx="88.2923" ry="88.2923"/>
<text text-anchor="middle" x="858.6002" y="-424.5638" font-family="Fira Code" font-size="12.00" fill="#0c821d">fast.js/filter.js</text>
</g>
<!-- filter.js&#45;&gt;fast.js/filter.js -->
<g id="edge10" class="edge">
<title>filter.js&#45;&gt;fast.js/filter.js</title>
<path fill="none" stroke="#242424" d="M858.6002,-621.8643C858.6002,-593.9627 858.6002,-558.5745 858.6002,-525.6318"/>
<polygon fill="#242424" stroke="#242424" points="862.1003,-525.4976 858.6002,-515.4977 855.1003,-525.4977 862.1003,-525.4976"/>
</g>
<!-- choice.js -->
<g id="node8" class="node">
<title>choice.js</title>
<ellipse fill="none" stroke="#242424" stroke-width="4" cx="2288.6002" cy="-673.5587" rx="51.7142" ry="51.7142"/>
<text text-anchor="middle" x="2288.6002" y="-671.1587" font-family="Fira Code" font-size="12.00" fill="#242424">choice.js</text>
</g>
<!-- choice.js&#45;&gt;katsu&#45;curry/katsu&#45;curry.js -->
<g id="edge7" class="edge">
<title>choice.js&#45;&gt;katsu&#45;curry/katsu&#45;curry.js</title>
<path fill="none" stroke="#242424" d="M2290.2981,-621.7621C2289.7701,-548.652 2277.6114,-415.542 2202.6002,-338.5677 2120.0508,-253.858 1795.5784,-185.746 1606.8151,-152.2881"/>
<polygon fill="#242424" stroke="#242424" points="1607.2709,-148.8146 1596.8152,-150.5255 1606.0558,-155.7083 1607.2709,-148.8146"/>
</g>
<!-- delegate&#45;fast.js&#45;&gt;entrust/entrust.js -->
<g id="edge8" class="edge">
<title>delegate&#45;fast.js&#45;&gt;entrust/entrust.js</title>
<path fill="none" stroke="#242424" d="M625.5274,-354.6454C601.1154,-313.658 570.3763,-262.0477 544.5064,-218.6125"/>
<polygon fill="#242424" stroke="#242424" points="547.3568,-216.5584 539.2325,-209.7578 541.3427,-220.1404 547.3568,-216.5584"/>
</g>
<!-- delegate&#45;fast.js&#45;&gt;katsu&#45;curry/katsu&#45;curry.js -->
<g id="edge9" class="edge">
<title>delegate&#45;fast.js&#45;&gt;katsu&#45;curry/katsu&#45;curry.js</title>
<path fill="none" stroke="#242424" d="M725.46,-365.0857C736.7063,-355.2117 748.9643,-345.8628 761.6002,-338.5677 943.0832,-233.7916 1181.6389,-177.6341 1330.0171,-150.7649"/>
<polygon fill="#242424" stroke="#242424" points="1330.874,-154.1672 1340.1003,-148.9589 1329.6399,-147.2768 1330.874,-154.1672"/>
</g>
<!-- flip.js -->
<g id="node11" class="node">
<title>flip.js</title>
<ellipse fill="none" stroke="#242424" stroke-width="4" cx="2385.6002" cy="-943.1468" rx="42.3196" ry="42.3196"/>
<text text-anchor="middle" x="2385.6002" y="-940.7468" font-family="Fira Code" font-size="12.00" fill="#242424">flip.js</text>
</g>
<!-- flip.js&#45;&gt;katsu&#45;curry/katsu&#45;curry.js -->
<g id="edge12" class="edge">
<title>flip.js&#45;&gt;katsu&#45;curry/katsu&#45;curry.js</title>
<path fill="none" stroke="#242424" d="M2391.279,-900.8249C2403.5594,-789.6941 2419.472,-487.8892 2255.6002,-338.5677 2161.0043,-252.3711 1806.5107,-183.6595 1607.0931,-150.8203"/>
<polygon fill="#242424" stroke="#242424" points="1607.5623,-147.3506 1597.128,-149.1879 1606.4307,-154.2585 1607.5623,-147.3506"/>
</g>
<!-- future.js -->
<g id="node12" class="node">
<title>future.js</title>
<ellipse fill="none" stroke="#242424" stroke-width="4" cx="342.6002" cy="-673.5587" rx="51.7142" ry="51.7142"/>
<text text-anchor="middle" x="342.6002" y="-671.1587" font-family="Fira Code" font-size="12.00" fill="#242424">future.js</text>
</g>
<!-- future.js&#45;&gt;entrust/entrust.js -->
<g id="edge13" class="edge">
<title>future.js&#45;&gt;entrust/entrust.js</title>
<path fill="none" stroke="#242424" d="M343.5366,-621.8879C345.9913,-555.0711 354.6292,-435.7453 384.6002,-338.5677 397.3261,-297.3053 417.8621,-254.4123 437.5571,-218.3156"/>
<polygon fill="#242424" stroke="#242424" points="440.7709,-219.736 442.5409,-209.2901 434.643,-216.3523 440.7709,-219.736"/>
</g>
<!-- index.js -->
<g id="node13" class="node">
<title>index.js</title>
<ellipse fill="none" stroke="#242424" stroke-width="4" cx="1308.6002" cy="-1565.0986" rx="47.0167" ry="47.0167"/>
<text text-anchor="middle" x="1308.6002" y="-1562.6986" font-family="Fira Code" font-size="12.00" fill="#242424">index.js</text>
</g>
<!-- index.js&#45;&gt;katsu&#45;curry/katsu&#45;curry.js -->
<g id="edge14" class="edge">
<title>index.js&#45;&gt;katsu&#45;curry/katsu&#45;curry.js</title>
<path fill="none" stroke="#242424" d="M1355.7316,-1564.393C1507.0178,-1561.1011 1976.3835,-1542.579 2077.6002,-1439.0903 2155.4243,-1359.5192 2147.6002,-1054.4489 2147.6002,-943.1468 2147.6002,-943.1468 2147.6002,-943.1468 2147.6002,-673.5587 2147.6002,-397.1787 1800.619,-238.0634 1602.7392,-169.7933"/>
<polygon fill="#242424" stroke="#242424" points="1603.7338,-166.4345 1593.1392,-166.5121 1601.4698,-173.0583 1603.7338,-166.4345"/>
</g>
<!-- index.js&#45;&gt;../package.json -->
<g id="edge16" class="edge">
<title>index.js&#45;&gt;../package.json</title>
<path fill="none" stroke="#242424" d="M1261.5695,-1563.3514C1102.7107,-1556.6685 588.4501,-1528.4363 453.6002,-1439.0903 428.0181,-1422.1406 408.3278,-1395.5089 393.7928,-1369.1967"/>
<polygon fill="#242424" stroke="#242424" points="396.8466,-1367.4849 389.0601,-1360.3002 390.6666,-1370.7725 396.8466,-1367.4849"/>
</g>
<!-- index.js&#45;&gt;array.js -->
<g id="edge17" class="edge">
<title>index.js&#45;&gt;array.js</title>
<path fill="none" stroke="#242424" d="M1261.2359,-1562.3182C1134.1274,-1553.7718 790.5265,-1523.1755 722.6002,-1439.0903 679.9312,-1386.2708 692.3409,-1194.3219 722.6002,-1133.5361 744.4364,-1089.6708 858.6099,-1014.2569 925.5476,-972.7258"/>
<polygon fill="#242424" stroke="#242424" points="927.5957,-975.5747 934.2654,-967.3427 923.9179,-969.6187 927.5957,-975.5747"/>
</g>
<!-- index.js&#45;&gt;filter.js -->
<g id="edge19" class="edge">
<title>index.js&#45;&gt;filter.js</title>
<path fill="none" stroke="#242424" d="M1261.6236,-1562.8914C1130.2478,-1555.6403 763.9396,-1527.6965 691.6002,-1439.0903 648.6585,-1386.4923 668.6849,-1197.4534 691.6002,-1133.5361 706.9449,-1090.7354 735.8042,-1094.9699 756.6002,-1054.5361 810.6984,-949.3523 838.2314,-812.6501 850.418,-734.859"/>
<polygon fill="#242424" stroke="#242424" points="853.9126,-735.1602 851.9676,-724.7455 846.9933,-734.1 853.9126,-735.1602"/>
</g>
<!-- index.js&#45;&gt;choice.js -->
<g id="edge18" class="edge">
<title>index.js&#45;&gt;choice.js</title>
<path fill="none" stroke="#242424" d="M1355.7044,-1561.7802C1533.6235,-1548.8223 2157.8875,-1499.3637 2221.6002,-1439.0903 2322.0654,-1344.0482 2303.749,-900.8608 2293.1512,-735.7577"/>
<polygon fill="#242424" stroke="#242424" points="2296.6118,-735.0413 2292.4656,-725.2914 2289.6268,-735.4989 2296.6118,-735.0413"/>
</g>
<!-- index.js&#45;&gt;flip.js -->
<g id="edge20" class="edge">
<title>index.js&#45;&gt;flip.js</title>
<path fill="none" stroke="#242424" d="M1355.7651,-1562.6623C1547.3022,-1552.322 2260.0691,-1509.3451 2329.6002,-1439.0903 2448.1925,-1319.2634 2418.8654,-1095.1006 2397.961,-994.4166"/>
<polygon fill="#242424" stroke="#242424" points="2401.3527,-993.539 2395.8434,-984.4892 2394.5067,-994.9994 2401.3527,-993.539"/>
</g>
<!-- index.js&#45;&gt;future.js -->
<g id="edge21" class="edge">
<title>index.js&#45;&gt;future.js</title>
<path fill="none" stroke="#242424" d="M1261.7186,-1561.2214C1095.1989,-1547.0108 539.2443,-1495.6512 484.6002,-1439.0903 437.0952,-1389.919 460.2943,-1200.8992 448.6002,-1133.5361 423.429,-988.5393 381.412,-820.6239 358.5694,-733.2932"/>
<polygon fill="#242424" stroke="#242424" points="361.9393,-732.3454 356.0158,-723.5611 355.1684,-734.122 361.9393,-732.3454"/>
</g>
<!-- katsu&#45;curry/lib/utils/length.js -->
<g id="node14" class="node">
<title>katsu&#45;curry/lib/utils/length.js</title>
<ellipse fill="none" stroke="#0c821d" stroke-width="4" cx="884.6002" cy="-1286.3132" rx="152.5545" ry="152.5545"/>
<text text-anchor="middle" x="884.6002" y="-1283.9132" font-family="Fira Code" font-size="12.00" fill="#0c821d">katsu&#45;curry/lib/utils/length.js</text>
</g>
<!-- index.js&#45;&gt;katsu&#45;curry/lib/utils/length.js -->
<g id="edge15" class="edge">
<title>index.js&#45;&gt;katsu&#45;curry/lib/utils/length.js</title>
<path fill="none" stroke="#242424" d="M1264.4552,-1548.8871C1210.2992,-1527.918 1116.9084,-1488.1896 1045.6002,-1439.0903 1029.7898,-1428.204 1014.0361,-1415.7694 998.9156,-1402.8011"/>
<polygon fill="#242424" stroke="#242424" points="1000.9115,-1399.8984 991.0693,-1395.9763 996.3175,-1405.18 1000.9115,-1399.8984"/>
</g>
<!-- iterate.js -->
<g id="node15" class="node">
<title>iterate.js</title>
<ellipse fill="none" stroke="#242424" stroke-width="4" cx="1477.6002" cy="-673.5587" rx="56.412" ry="56.412"/>
<text text-anchor="middle" x="1477.6002" y="-671.1587" font-family="Fira Code" font-size="12.00" fill="#242424">iterate.js</text>
</g>
<!-- index.js&#45;&gt;iterate.js -->
<g id="edge22" class="edge">
<title>index.js&#45;&gt;iterate.js</title>
<path fill="none" stroke="#242424" d="M1354.1271,-1552.8937C1405.2845,-1536.4653 1485.8413,-1501.7924 1521.6002,-1439.0903 1589.1443,-1320.6534 1520.4287,-901.6352 1490.264,-738.8775"/>
<polygon fill="#242424" stroke="#242424" points="1493.6954,-738.1856 1488.4216,-728.9966 1486.814,-739.4687 1493.6954,-738.1856"/>
</g>
<!-- map.js -->
<g id="node16" class="node">
<title>map.js</title>
<ellipse fill="none" stroke="#242424" stroke-width="4" cx="273.6002" cy="-426.9638" rx="37.623" ry="37.623"/>
<text text-anchor="middle" x="273.6002" y="-424.5638" font-family="Fira Code" font-size="12.00" fill="#242424">map.js</text>
</g>
<!-- index.js&#45;&gt;map.js -->
<g id="edge23" class="edge">
<title>index.js&#45;&gt;map.js</title>
<path fill="none" stroke="#242424" d="M1261.5067,-1562.9733C1067.7538,-1553.7565 339.2001,-1514.2815 272.6002,-1439.0903 20.6491,-1154.6376 195.075,-628.5297 255.3136,-472.014"/>
<polygon fill="#242424" stroke="#242424" points="258.7498,-472.8343 259.1106,-462.2456 252.2254,-470.2982 258.7498,-472.8343"/>
</g>
<!-- math.js -->
<g id="node17" class="node">
<title>math.js</title>
<ellipse fill="none" stroke="#242424" stroke-width="4" cx="2450.6002" cy="-426.9638" rx="42.3196" ry="42.3196"/>
<text text-anchor="middle" x="2450.6002" y="-424.5638" font-family="Fira Code" font-size="12.00" fill="#242424">math.js</text>
</g>
<!-- index.js&#45;&gt;math.js -->
<g id="edge24" class="edge">
<title>index.js&#45;&gt;math.js</title>
<path fill="none" stroke="#242424" d="M1355.6498,-1562.9567C1553.6041,-1553.5029 2312.0507,-1512.6818 2386.6002,-1439.0903 2522.8729,-1304.5686 2473.7778,-667.9666 2455.9357,-479.5929"/>
<polygon fill="#242424" stroke="#242424" points="2459.3966,-479.0167 2454.9587,-469.3961 2452.4285,-479.6843 2459.3966,-479.0167"/>
</g>
<!-- random&#45;floor.js -->
<g id="node18" class="node">
<title>random&#45;floor.js</title>
<ellipse fill="none" stroke="#242424" stroke-width="4" cx="1324.6002" cy="-673.5587" rx="79.3981" ry="79.3981"/>
<text text-anchor="middle" x="1324.6002" y="-671.1587" font-family="Fira Code" font-size="12.00" fill="#242424">random&#45;floor.js</text>
</g>
<!-- index.js&#45;&gt;random&#45;floor.js -->
<g id="edge25" class="edge">
<title>index.js&#45;&gt;random&#45;floor.js</title>
<path fill="none" stroke="#242424" d="M1305.821,-1517.8783C1302.1862,-1437.8519 1299.2624,-1270.887 1327.6002,-1133.5361 1335.1891,-1096.7533 1350.8222,-1091.477 1357.6002,-1054.5361 1375.4689,-957.1491 1367.7632,-930.2473 1357.6002,-831.7575 1355.2045,-808.541 1350.8811,-783.7077 1346.1357,-760.7602"/>
<polygon fill="#242424" stroke="#242424" points="1349.5028,-759.7654 1344.0062,-750.7079 1342.6547,-761.2162 1349.5028,-759.7654"/>
</g>
<!-- random&#45;shuffle.js -->
<g id="node19" class="node">
<title>random&#45;shuffle.js</title>
<ellipse fill="none" stroke="#0c821d" stroke-width="4" cx="1424.6002" cy="-1286.3132" rx="88.2923" ry="88.2923"/>
<text text-anchor="middle" x="1424.6002" y="-1283.9132" font-family="Fira Code" font-size="12.00" fill="#0c821d">random&#45;shuffle.js</text>
</g>
<!-- index.js&#45;&gt;random&#45;shuffle.js -->
<g id="edge26" class="edge">
<title>index.js&#45;&gt;random&#45;shuffle.js</title>
<path fill="none" stroke="#242424" d="M1326.7252,-1521.5384C1342.7384,-1483.0534 1366.6114,-1425.6789 1386.7708,-1377.2293"/>
<polygon fill="#242424" stroke="#242424" points="1390.009,-1378.5577 1390.6192,-1367.9804 1383.5461,-1375.8685 1390.009,-1378.5577"/>
</g>
<!-- random&#45;take.js -->
<g id="node20" class="node">
<title>random&#45;take.js</title>
<ellipse fill="none" stroke="#242424" stroke-width="4" cx="1273.6002" cy="-943.1468" rx="74.7005" ry="74.7005"/>
<text text-anchor="middle" x="1273.6002" y="-940.7468" font-family="Fira Code" font-size="12.00" fill="#242424">random&#45;take.js</text>
</g>
<!-- index.js&#45;&gt;random&#45;take.js -->
<g id="edge27" class="edge">
<title>index.js&#45;&gt;random&#45;take.js</title>
<path fill="none" stroke="#242424" d="M1302.6181,-1518.1967C1299.794,-1494.5153 1296.61,-1465.3166 1294.6002,-1439.0903 1283.5659,-1295.1034 1277.9794,-1127.1228 1275.4364,-1028.2524"/>
<polygon fill="#242424" stroke="#242424" points="1278.9295,-1027.9276 1275.1778,-1018.0193 1271.9317,-1028.1046 1278.9295,-1027.9276"/>
</g>
<!-- random&#45;word.js -->
<g id="node21" class="node">
<title>random&#45;word.js</title>
<ellipse fill="none" stroke="#242424" stroke-width="4" cx="1129.6002" cy="-1286.3132" rx="74.7005" ry="74.7005"/>
<text text-anchor="middle" x="1129.6002" y="-1283.9132" font-family="Fira Code" font-size="12.00" fill="#242424">random&#45;word.js</text>
</g>
<!-- index.js&#45;&gt;random&#45;word.js -->
<g id="edge28" class="edge">
<title>index.js&#45;&gt;random&#45;word.js</title>
<path fill="none" stroke="#242424" d="M1280.2897,-1527.4098C1262.0758,-1502.6972 1238.2295,-1469.4565 1218.6002,-1439.0903 1202.352,-1413.9546 1185.57,-1385.8033 1171.0179,-1360.5799"/>
<polygon fill="#242424" stroke="#242424" points="1173.9845,-1358.7174 1165.9682,-1351.7899 1167.9148,-1362.2044 1173.9845,-1358.7174"/>
</g>
<!-- random.js -->
<g id="node22" class="node">
<title>random.js</title>
<ellipse fill="none" stroke="#0c821d" stroke-width="4" cx="1658.6002" cy="-1286.3132" rx="51.7142" ry="51.7142"/>
<text text-anchor="middle" x="1658.6002" y="-1283.9132" font-family="Fira Code" font-size="12.00" fill="#0c821d">random.js</text>
</g>
<!-- index.js&#45;&gt;random.js -->
<g id="edge29" class="edge">
<title>index.js&#45;&gt;random.js</title>
<path fill="none" stroke="#242424" d="M1354.8991,-1555.6362C1416.6159,-1540.8103 1525.8004,-1506.5485 1592.6002,-1439.0903 1617.6406,-1413.803 1633.8637,-1377.4827 1643.9576,-1346.5997"/>
<polygon fill="#242424" stroke="#242424" points="1647.3826,-1347.3734 1647.0229,-1336.7847 1640.7009,-1345.2866 1647.3826,-1347.3734"/>
</g>
<!-- reduce.js -->
<g id="node23" class="node">
<title>reduce.js</title>
<ellipse fill="none" stroke="#242424" stroke-width="4" cx="585.6002" cy="-1286.3132" rx="51.7142" ry="51.7142"/>
<text text-anchor="middle" x="585.6002" y="-1283.9132" font-family="Fira Code" font-size="12.00" fill="#242424">reduce.js</text>
</g>
<!-- index.js&#45;&gt;reduce.js -->
<g id="edge30" class="edge">
<title>index.js&#45;&gt;reduce.js</title>
<path fill="none" stroke="#242424" d="M1261.3181,-1561.7108C1126.977,-1551.2264 746.5976,-1515.3237 651.6002,-1439.0903 623.2139,-1416.3109 606.783,-1378.9577 597.4149,-1346.8888"/>
<polygon fill="#242424" stroke="#242424" points="600.7567,-1345.841 594.7289,-1337.128 594.0076,-1347.6983 600.7567,-1345.841"/>
</g>
<!-- reject.js -->
<g id="node24" class="node">
<title>reject.js</title>
<ellipse fill="none" stroke="#242424" stroke-width="4" cx="1129.6002" cy="-943.1468" rx="51.7142" ry="51.7142"/>
<text text-anchor="middle" x="1129.6002" y="-940.7468" font-family="Fira Code" font-size="12.00" fill="#242424">reject.js</text>
</g>
<!-- index.js&#45;&gt;reject.js -->
<g id="edge31" class="edge">
<title>index.js&#45;&gt;reject.js</title>
<path fill="none" stroke="#242424" d="M1296.0702,-1519.7573C1289.6278,-1495.8423 1281.8406,-1465.9646 1275.6002,-1439.0903 1244.2573,-1304.1122 1255.5884,-1265.5908 1213.6002,-1133.5361 1198.7146,-1086.7203 1175.9433,-1035.9233 1157.8632,-998.5825"/>
<polygon fill="#242424" stroke="#242424" points="1160.9076,-996.8405 1153.3752,-989.3897 1154.6172,-999.9115 1160.9076,-996.8405"/>
</g>
<!-- string.js -->
<g id="node25" class="node">
<title>string.js</title>
<ellipse fill="none" stroke="#242424" stroke-width="4" cx="463.6002" cy="-673.5587" rx="51.7142" ry="51.7142"/>
<text text-anchor="middle" x="463.6002" y="-671.1587" font-family="Fira Code" font-size="12.00" fill="#242424">string.js</text>
</g>
<!-- index.js&#45;&gt;string.js -->
<g id="edge32" class="edge">
<title>index.js&#45;&gt;string.js</title>
<path fill="none" stroke="#242424" d="M1261.683,-1560.9306C1100.2647,-1546.1405 574.9418,-1494.1065 524.6002,-1439.0903 478.9315,-1389.1809 487.8145,-899.1218 481.6002,-831.7575 478.6474,-799.7485 474.663,-764.1761 471.1935,-734.8827"/>
<polygon fill="#242424" stroke="#242424" points="474.6506,-734.3141 469.9903,-724.7992 467.6999,-735.1435 474.6506,-734.3141"/>
</g>
<!-- ternary.js -->
<g id="node26" class="node">
<title>ternary.js</title>
<ellipse fill="none" stroke="#242424" stroke-width="4" cx="1552.6002" cy="-426.9638" rx="56.412" ry="56.412"/>
<text text-anchor="middle" x="1552.6002" y="-424.5638" font-family="Fira Code" font-size="12.00" fill="#242424">ternary.js</text>
</g>
<!-- index.js&#45;&gt;ternary.js -->
<g id="edge33" class="edge">
<title>index.js&#45;&gt;ternary.js</title>
<path fill="none" stroke="#242424" d="M1354.9934,-1556.0307C1412.4747,-1542.0378 1508.0226,-1509.1078 1550.6002,-1439.0903 1599.4435,-1358.7688 1568.0262,-705.4972 1556.4013,-493.2812"/>
<polygon fill="#242424" stroke="#242424" points="1559.8915,-493.0063 1555.8465,-483.214 1552.9021,-493.3915 1559.8915,-493.0063"/>
</g>
<!-- triplet.js -->
<g id="node27" class="node">
<title>triplet.js</title>
<ellipse fill="none" stroke="#242424" stroke-width="4" cx="2231.6002" cy="-943.1468" rx="56.412" ry="56.412"/>
<text text-anchor="middle" x="2231.6002" y="-940.7468" font-family="Fira Code" font-size="12.00" fill="#242424">triplet.js</text>
</g>
<!-- index.js&#45;&gt;triplet.js -->
<g id="edge34" class="edge">
<title>index.js&#45;&gt;triplet.js</title>
<path fill="none" stroke="#242424" d="M1355.6037,-1561.4191C1525.9686,-1547.6479 2104.097,-1496.9652 2161.6002,-1439.0903 2275.5955,-1324.3579 2260.8939,-1114.5409 2244.3307,-1008.3756"/>
<polygon fill="#242424" stroke="#242424" points="2247.7746,-1007.7465 2242.7263,-998.4317 2240.864,-1008.8616 2247.7746,-1007.7465"/>
</g>
<!-- types.js -->
<g id="node28" class="node">
<title>types.js</title>
<ellipse fill="none" stroke="#242424" stroke-width="4" cx="1636.6002" cy="-673.5587" rx="47.0167" ry="47.0167"/>
<text text-anchor="middle" x="1636.6002" y="-671.1587" font-family="Fira Code" font-size="12.00" fill="#242424">types.js</text>
</g>
<!-- index.js&#45;&gt;types.js -->
<g id="edge35" class="edge">
<title>index.js&#45;&gt;types.js</title>
<path fill="none" stroke="#242424" d="M1355.1954,-1557.8359C1453.2733,-1541.4981 1675.6189,-1498.5764 1719.6002,-1439.0903 1800.3353,-1329.8933 1779.098,-1255.6105 1719.6002,-1133.5361 1694.6318,-1082.3074 1643.5685,-1105.7649 1618.6002,-1054.5361 1566.8897,-948.4394 1595.9154,-805.3894 1618.317,-728.2816"/>
<polygon fill="#242424" stroke="#242424" points="1621.7886,-728.8867 1621.2864,-718.3037 1615.0794,-726.89 1621.7886,-728.8867"/>
</g>
<!-- which.js -->
<g id="node29" class="node">
<title>which.js</title>
<ellipse fill="none" stroke="#242424" stroke-width="4" cx="2021.6002" cy="-1286.3132" rx="47.0167" ry="47.0167"/>
<text text-anchor="middle" x="2021.6002" y="-1283.9132" font-family="Fira Code" font-size="12.00" fill="#242424">which.js</text>
</g>
<!-- index.js&#45;&gt;which.js -->
<g id="edge36" class="edge">
<title>index.js&#45;&gt;which.js</title>
<path fill="none" stroke="#242424" d="M1354.8877,-1555.8106C1437.0104,-1538.4953 1612.7248,-1497.6563 1752.6002,-1439.0903 1833.7858,-1405.0977 1921.2625,-1352.0197 1973.7072,-1318.2208"/>
<polygon fill="#242424" stroke="#242424" points="1975.6437,-1321.1366 1982.1332,-1312.7619 1971.8375,-1315.2618 1975.6437,-1321.1366"/>
</g>
<!-- iterate.js&#45;&gt;katsu&#45;curry/katsu&#45;curry.js -->
<g id="edge37" class="edge">
<title>iterate.js&#45;&gt;katsu&#45;curry/katsu&#45;curry.js</title>
<path fill="none" stroke="#242424" d="M1476.6667,-617.159C1475.319,-535.7328 1472.7851,-382.6364 1470.9155,-269.676"/>
<polygon fill="#242424" stroke="#242424" points="1474.4132,-269.5016 1470.7481,-259.561 1467.4142,-269.6175 1474.4132,-269.5016"/>
</g>
<!-- map.js&#45;&gt;entrust/entrust.js -->
<g id="edge38" class="edge">
<title>map.js&#45;&gt;entrust/entrust.js</title>
<path fill="none" stroke="#242424" d="M292.9054,-394.1018C303.1042,-377.2257 316.0763,-356.4971 328.6002,-338.5677 333.3297,-331.7968 384.0981,-266.8559 427.7354,-211.1754"/>
<polygon fill="#242424" stroke="#242424" points="430.7013,-213.0651 434.1157,-203.0355 425.192,-208.7467 430.7013,-213.0651"/>
</g>
<!-- map.js&#45;&gt;fantasy&#45;land/index.js -->
<g id="edge39" class="edge">
<title>map.js&#45;&gt;fantasy&#45;land/index.js</title>
<path fill="none" stroke="#242424" d="M273.6002,-389.0239C273.6002,-353.1565 273.6002,-297.4451 273.6002,-246.8466"/>
<polygon fill="#242424" stroke="#242424" points="277.1003,-246.8024 273.6002,-236.8024 270.1003,-246.8024 277.1003,-246.8024"/>
</g>
<!-- map.js&#45;&gt;katsu&#45;curry/katsu&#45;curry.js -->
<g id="edge41" class="edge">
<title>map.js&#45;&gt;katsu&#45;curry/katsu&#45;curry.js</title>
<path fill="none" stroke="#242424" d="M302.0348,-401.7156C326.2912,-381.5449 362.9644,-354.1576 399.6002,-338.5677 714.8118,-204.4338 1119.2251,-155.5872 1328.7455,-138.4909"/>
<polygon fill="#242424" stroke="#242424" points="1329.194,-141.9662 1338.8815,-137.6762 1328.6332,-134.9887 1329.194,-141.9662"/>
</g>
<!-- fast.js/map.js -->
<g id="node30" class="node">
<title>fast.js/map.js</title>
<ellipse fill="none" stroke="#0c821d" stroke-width="4" cx="74.6002" cy="-129.7839" rx="74.7005" ry="74.7005"/>
<text text-anchor="middle" x="74.6002" y="-127.3839" font-family="Fira Code" font-size="12.00" fill="#0c821d">fast.js/map.js</text>
</g>
<!-- map.js&#45;&gt;fast.js/map.js -->
<g id="edge40" class="edge">
<title>map.js&#45;&gt;fast.js/map.js</title>
<path fill="none" stroke="#242424" d="M251.6605,-396.039C228.0722,-362.6211 189.6423,-307.685 157.6002,-259.5677 145.1947,-240.9386 132.0306,-220.6205 119.9294,-201.7084"/>
<polygon fill="#242424" stroke="#242424" points="122.7827,-199.6734 114.4507,-193.1291 116.883,-203.4409 122.7827,-199.6734"/>
</g>
<!-- math.js&#45;&gt;katsu&#45;curry/katsu&#45;curry.js -->
<g id="edge42" class="edge">
<title>math.js&#45;&gt;katsu&#45;curry/katsu&#45;curry.js</title>
<path fill="none" stroke="#242424" d="M2433.4809,-387.9037C2423.8811,-370.3183 2410.2495,-350.8028 2392.6002,-338.5677 2266.4123,-251.0898 1832.7265,-180.1477 1607.2487,-148.1585"/>
<polygon fill="#242424" stroke="#242424" points="1607.7237,-144.691 1597.3325,-146.7578 1606.7446,-151.6222 1607.7237,-144.691"/>
</g>
<!-- random&#45;floor.js&#45;&gt;katsu&#45;curry/katsu&#45;curry.js -->
<g id="edge43" class="edge">
<title>random&#45;floor.js&#45;&gt;katsu&#45;curry/katsu&#45;curry.js</title>
<path fill="none" stroke="#242424" d="M1344.9264,-596.8024C1367.7059,-510.7823 1405.0706,-369.6851 1432.778,-265.0561"/>
<polygon fill="#242424" stroke="#242424" points="1436.1674,-265.9292 1435.344,-255.3664 1429.4006,-264.1372 1436.1674,-265.9292"/>
</g>
<!-- random&#45;take.js&#45;&gt;katsu&#45;curry/katsu&#45;curry.js -->
<g id="edge44" class="edge">
<title>random&#45;take.js&#45;&gt;katsu&#45;curry/katsu&#45;curry.js</title>
<path fill="none" stroke="#242424" d="M1252.1654,-871.4677C1234.1161,-800.3393 1214.4878,-688.6209 1236.6002,-594.3599 1266.2206,-468.0937 1335.8135,-337.0304 1391.1,-246.435"/>
<polygon fill="#242424" stroke="#242424" points="1394.1547,-248.1489 1396.4039,-237.7955 1388.1892,-244.4866 1394.1547,-248.1489"/>
</g>
<!-- random&#45;take.js&#45;&gt;iterate.js -->
<g id="edge45" class="edge">
<title>random&#45;take.js&#45;&gt;iterate.js</title>
<path fill="none" stroke="#242424" d="M1318.6214,-883.6508C1354.0792,-836.793 1403.0627,-772.0608 1437.2537,-726.877"/>
<polygon fill="#242424" stroke="#242424" points="1440.216,-728.7626 1443.4592,-718.6764 1434.634,-724.5387 1440.216,-728.7626"/>
</g>
<!-- random&#45;take.js&#45;&gt;random&#45;floor.js -->
<g id="edge46" class="edge">
<title>random&#45;take.js&#45;&gt;random&#45;floor.js</title>
<path fill="none" stroke="#242424" d="M1287.4688,-869.8368C1293.7776,-836.4879 1301.2954,-796.7487 1307.911,-761.7782"/>
<polygon fill="#242424" stroke="#242424" points="1311.4219,-762.0486 1309.8418,-751.5722 1304.5439,-760.7474 1311.4219,-762.0486"/>
</g>
<!-- random&#45;word.js&#45;&gt;katsu&#45;curry/katsu&#45;curry.js -->
<g id="edge47" class="edge">
<title>random&#45;word.js&#45;&gt;katsu&#45;curry/katsu&#45;curry.js</title>
<path fill="none" stroke="#242424" d="M1105.8828,-1215.4765C1091.9496,-1170.0619 1075.7148,-1109.5222 1068.6002,-1054.5361 1027.2078,-734.6293 1009.6704,-607.6303 1187.6002,-338.5677 1226.8214,-279.258 1288.8825,-230.5525 1344.7158,-195.1459"/>
<polygon fill="#242424" stroke="#242424" points="1346.6407,-198.0703 1353.2612,-189.7987 1342.9274,-192.1363 1346.6407,-198.0703"/>
</g>
<!-- random&#45;word.js&#45;&gt;array.js -->
<g id="edge48" class="edge">
<title>random&#45;word.js&#45;&gt;array.js</title>
<path fill="none" stroke="#242424" d="M1098.7918,-1218.1043C1069.2093,-1152.6093 1025.1563,-1055.0769 998.243,-995.4916"/>
<polygon fill="#242424" stroke="#242424" points="1001.3817,-993.9378 994.0756,-986.265 995.0023,-996.8192 1001.3817,-993.9378"/>
</g>
<!-- random&#45;word.js&#45;&gt;random&#45;take.js -->
<g id="edge49" class="edge">
<title>random&#45;word.js&#45;&gt;random&#45;take.js</title>
<path fill="none" stroke="#242424" d="M1158.5675,-1217.2812C1182.345,-1160.617 1216.0125,-1080.3839 1240.7829,-1021.3536"/>
<polygon fill="#242424" stroke="#242424" points="1244.0371,-1022.6439 1244.6791,-1012.0685 1237.5823,-1019.9353 1244.0371,-1022.6439"/>
</g>
<!-- reduce.js&#45;&gt;delegate&#45;fast.js -->
<g id="edge51" class="edge">
<title>reduce.js&#45;&gt;delegate&#45;fast.js</title>
<path fill="none" stroke="#242424" d="M579.022,-1234.8703C573.3765,-1187.9738 565.6786,-1116.7325 562.6002,-1054.5361 557.7055,-955.6445 549.9557,-929.9595 562.6002,-831.7575 576.8641,-720.9785 612.2292,-597.2536 638.2042,-516.0915"/>
<polygon fill="#242424" stroke="#242424" points="641.5887,-516.9999 641.3233,-506.4084 634.9258,-514.8536 641.5887,-516.9999"/>
</g>
<!-- fast.js/reduce.js -->
<g id="node31" class="node">
<title>fast.js/reduce.js</title>
<ellipse fill="none" stroke="#0c821d" stroke-width="4" cx="659.6002" cy="-943.1468" rx="88.2923" ry="88.2923"/>
<text text-anchor="middle" x="659.6002" y="-940.7468" font-family="Fira Code" font-size="12.00" fill="#0c821d">fast.js/reduce.js</text>
</g>
<!-- reduce.js&#45;&gt;fast.js/reduce.js -->
<g id="edge50" class="edge">
<title>reduce.js&#45;&gt;fast.js/reduce.js</title>
<path fill="none" stroke="#242424" d="M596.5191,-1235.6778C607.6052,-1184.2672 625.0472,-1103.3821 638.7833,-1039.6827"/>
<polygon fill="#242424" stroke="#242424" points="642.2678,-1040.1272 640.9545,-1029.6141 635.4251,-1038.6516 642.2678,-1040.1272"/>
</g>
<!-- reject.js&#45;&gt;katsu&#45;curry/katsu&#45;curry.js -->
<g id="edge52" class="edge">
<title>reject.js&#45;&gt;katsu&#45;curry/katsu&#45;curry.js</title>
<path fill="none" stroke="#242424" d="M1130.8674,-891.1889C1135.5497,-782.1462 1157.3729,-524.189 1258.6002,-338.5677 1283.4183,-293.0585 1321.2631,-251.0101 1358.0232,-216.756"/>
<polygon fill="#242424" stroke="#242424" points="1360.8516,-218.9102 1365.8459,-209.5664 1356.1147,-213.7563 1360.8516,-218.9102"/>
</g>
<!-- reject.js&#45;&gt;filter.js -->
<g id="edge53" class="edge">
<title>reject.js&#45;&gt;filter.js</title>
<path fill="none" stroke="#242424" d="M1096.1711,-903.6116C1077.4075,-881.9177 1053.2727,-854.8199 1030.6002,-831.7575 989.8784,-790.3356 940.9075,-745.7643 905.6511,-714.5222"/>
<polygon fill="#242424" stroke="#242424" points="907.7077,-711.6688 897.8966,-707.6695 903.0723,-716.9141 907.7077,-711.6688"/>
</g>
<!-- string.js&#45;&gt;entrust/entrust.js -->
<g id="edge54" class="edge">
<title>string.js&#45;&gt;entrust/entrust.js</title>
<path fill="none" stroke="#242424" d="M439.5069,-627.5959C424.7498,-596.7771 407.2692,-554.7658 399.6002,-515.3599 384.59,-438.2326 383.4109,-415.4561 399.6002,-338.5677 408.0658,-298.3614 424.776,-256.4589 441.6594,-220.8361"/>
<polygon fill="#242424" stroke="#242424" points="444.9978,-221.9706 446.184,-211.4423 438.6912,-218.9329 444.9978,-221.9706"/>
</g>
<!-- ternary.js&#45;&gt;katsu&#45;curry/katsu&#45;curry.js -->
<g id="edge55" class="edge">
<title>ternary.js&#45;&gt;katsu&#45;curry/katsu&#45;curry.js</title>
<path fill="none" stroke="#242424" d="M1537.291,-372.802C1528.6752,-342.3205 1517.5007,-302.7868 1506.6768,-264.4935"/>
<polygon fill="#242424" stroke="#242424" points="1510.0224,-263.4619 1503.9343,-254.7909 1503.2863,-265.3659 1510.0224,-263.4619"/>
</g>
<!-- triplet.js&#45;&gt;katsu&#45;curry/katsu&#45;curry.js -->
<g id="edge56" class="edge">
<title>triplet.js&#45;&gt;katsu&#45;curry/katsu&#45;curry.js</title>
<path fill="none" stroke="#242424" d="M2228.5844,-886.9689C2220.4795,-745.017 2196.4559,-380.2264 2161.6002,-338.5677 2090.3911,-253.4603 1787.56,-186.4059 1606.6156,-153.0063"/>
<polygon fill="#242424" stroke="#242424" points="1607.2216,-149.5591 1596.7541,-151.1971 1605.9583,-156.4442 1607.2216,-149.5591"/>
</g>
<!-- types.js&#45;&gt;katsu&#45;curry/katsu&#45;curry.js -->
<g id="edge57" class="edge">
<title>types.js&#45;&gt;katsu&#45;curry/katsu&#45;curry.js</title>
<path fill="none" stroke="#242424" d="M1641.9415,-626.7337C1647.7406,-560.4746 1652.0555,-436.5179 1617.6002,-338.5677 1604.7816,-302.1267 1583.5413,-266.4087 1561.0589,-235.1081"/>
<polygon fill="#242424" stroke="#242424" points="1563.7326,-232.8348 1555.007,-226.8253 1558.0806,-236.9645 1563.7326,-232.8348"/>
</g>
<!-- which.js&#45;&gt;katsu&#45;curry/katsu&#45;curry.js -->
<g id="edge60" class="edge">
<title>which.js&#45;&gt;katsu&#45;curry/katsu&#45;curry.js</title>
<path fill="none" stroke="#242424" d="M2041.8652,-1243.7658C2078.0987,-1161.4897 2145.3048,-975.9834 2090.6002,-831.7575 1988.5545,-562.7194 1731.0107,-330.6212 1581.2692,-212.6598"/>
<polygon fill="#242424" stroke="#242424" points="1583.365,-209.8554 1573.3364,-206.4379 1579.0449,-215.3634 1583.365,-209.8554"/>
</g>
<!-- which.js&#45;&gt;flip.js -->
<g id="edge61" class="edge">
<title>which.js&#45;&gt;flip.js</title>
<path fill="none" stroke="#242424" d="M2059.6435,-1258.0982C2114.6581,-1216.4681 2218.3938,-1134.8175 2296.6002,-1054.5361 2317.4297,-1033.1539 2338.3846,-1007.1987 2354.7245,-985.7238"/>
<polygon fill="#242424" stroke="#242424" points="2357.525,-987.8232 2360.7511,-977.7315 2351.9358,-983.6087 2357.525,-987.8232"/>
</g>
<!-- which.js&#45;&gt;triplet.js -->
<g id="edge62" class="edge">
<title>which.js&#45;&gt;triplet.js</title>
<path fill="none" stroke="#242424" d="M2046.3074,-1245.9385C2083.5822,-1185.0267 2154.3436,-1069.3937 2196.8142,-999.9914"/>
<polygon fill="#242424" stroke="#242424" points="2199.8691,-1001.7046 2202.1035,-991.3481 2193.8984,-998.0508 2199.8691,-1001.7046"/>
</g>
<!-- fast.js/array/every.js -->
<g id="node32" class="node">
<title>fast.js/array/every.js</title>
<ellipse fill="none" stroke="#0c821d" stroke-width="4" cx="1970.6002" cy="-943.1468" rx="111.2787" ry="111.2787"/>
<text text-anchor="middle" x="1970.6002" y="-940.7468" font-family="Fira Code" font-size="12.00" fill="#0c821d">fast.js/array/every.js</text>
</g>
<!-- which.js&#45;&gt;fast.js/array/every.js -->
<g id="edge58" class="edge">
<title>which.js&#45;&gt;fast.js/array/every.js</title>
<path fill="none" stroke="#242424" d="M2014.669,-1239.6751C2007.9742,-1194.6275 1997.5498,-1124.4844 1988.5202,-1063.7266"/>
<polygon fill="#242424" stroke="#242424" points="1991.9581,-1063.0494 1987.0261,-1053.6726 1985.0342,-1064.0785 1991.9581,-1063.0494"/>
</g>
<!-- fast.js/array/some.js -->
<g id="node33" class="node">
<title>fast.js/array/some.js</title>
<ellipse fill="none" stroke="#0c821d" stroke-width="4" cx="1734.6002" cy="-943.1468" rx="106.5817" ry="106.5817"/>
<text text-anchor="middle" x="1734.6002" y="-940.7468" font-family="Fira Code" font-size="12.00" fill="#0c821d">fast.js/array/some.js</text>
</g>
<!-- which.js&#45;&gt;fast.js/array/some.js -->
<g id="edge59" class="edge">
<title>which.js&#45;&gt;fast.js/array/some.js</title>
<path fill="none" stroke="#242424" d="M1991.4286,-1250.237C1948.7467,-1199.2022 1869.3404,-1104.2559 1810.0745,-1033.3917"/>
<polygon fill="#242424" stroke="#242424" points="1812.4156,-1030.7352 1803.3153,-1025.3096 1807.0459,-1035.226 1812.4156,-1030.7352"/>
</g>
</g>
</svg>
