<?xml version="1.0" encoding="UTF-8" standalone="no"?>
<!DOCTYPE svg PUBLIC "-//W3C//DTD SVG 1.1//EN"
 "http://www.w3.org/Graphics/SVG/1.1/DTD/svg11.dtd">
<!-- Generated by graphviz version 2.40.1 (20161225.0304)
 -->
<!-- Title: G Pages: 1 -->
<svg width="2712pt" height="1646pt"
 viewBox="0.00 0.00 2712.09 1646.49" xmlns="http://www.w3.org/2000/svg" xmlns:xlink="http://www.w3.org/1999/xlink">
<g id="graph0" class="graph" transform="scale(1 1) rotate(0) translate(7.992 1638.4935)">
<title>G</title>
<polygon fill="#eeeeff" stroke="transparent" points="-7.992,7.992 -7.992,-1638.4935 2704.0977,-1638.4935 2704.0977,7.992 -7.992,7.992"/>
<!-- ../f&#45;utility.js -->
<g id="node1" class="node">
<title>../f&#45;utility.js</title>
<ellipse fill="none" stroke="#242424" stroke-width="4" cx="452.696" cy="-445.3584" rx="79.3981" ry="79.3981"/>
<text text-anchor="middle" x="452.696" y="-442.9584" font-family="Fira Code" font-size="12.00" fill="#242424">../f&#45;utility.js</text>
</g>
<!-- entrust/entrust.js -->
<g id="node2" class="node">
<title>entrust/entrust.js</title>
<ellipse fill="none" stroke="#0c821d" stroke-width="4" cx="279.696" cy="-129.7839" rx="92.9895" ry="92.9895"/>
<text text-anchor="middle" x="279.696" y="-127.3839" font-family="Fira Code" font-size="12.00" fill="#0c821d">entrust/entrust.js</text>
</g>
<!-- ../f&#45;utility.js&#45;&gt;entrust/entrust.js -->
<g id="edge1" class="edge">
<title>../f&#45;utility.js&#45;&gt;entrust/entrust.js</title>
<path fill="none" stroke="#242424" d="M414.5162,-375.7135C389.4532,-329.9953 356.4214,-269.741 329.3268,-220.317"/>
<polygon fill="#242424" stroke="#242424" points="332.3899,-218.6234 324.5137,-211.5372 326.2518,-221.9885 332.3899,-218.6234"/>
</g>
<!-- fantasy&#45;land/index.js -->
<g id="node3" class="node">
<title>fantasy&#45;land/index.js</title>
<ellipse fill="none" stroke="#0c821d" stroke-width="4" cx="497.696" cy="-129.7839" rx="106.5817" ry="106.5817"/>
<text text-anchor="middle" x="497.696" y="-127.3839" font-family="Fira Code" font-size="12.00" fill="#0c821d">fantasy&#45;land/index.js</text>
</g>
<!-- ../f&#45;utility.js&#45;&gt;fantasy&#45;land/index.js -->
<g id="edge2" class="edge">
<title>../f&#45;utility.js&#45;&gt;fantasy&#45;land/index.js</title>
<path fill="none" stroke="#242424" d="M463.8774,-366.9457C469.1077,-330.2671 475.4413,-285.851 481.2067,-245.4195"/>
<polygon fill="#242424" stroke="#242424" points="484.6735,-245.9003 482.6203,-235.5063 477.7436,-244.912 484.6735,-245.9003"/>
</g>
<!-- katsu&#45;curry/katsu&#45;curry.js -->
<g id="node4" class="node">
<title>katsu&#45;curry/katsu&#45;curry.js</title>
<ellipse fill="none" stroke="#0c821d" stroke-width="4" cx="1399.696" cy="-129.7839" rx="129.5681" ry="129.5681"/>
<text text-anchor="middle" x="1399.696" y="-127.3839" font-family="Fira Code" font-size="12.00" fill="#0c821d">katsu&#45;curry/katsu&#45;curry.js</text>
</g>
<!-- ../f&#45;utility.js&#45;&gt;katsu&#45;curry/katsu&#45;curry.js -->
<g id="edge3" class="edge">
<title>../f&#45;utility.js&#45;&gt;katsu&#45;curry/katsu&#45;curry.js</title>
<path fill="none" stroke="#242424" d="M498.0991,-380.341C511.7912,-364.6812 527.9534,-349.3738 545.696,-338.5677 771.2338,-201.2048 1081.9929,-154.1485 1259.7625,-138.0751"/>
<polygon fill="#242424" stroke="#242424" points="1260.3104,-141.5404 1269.9634,-137.1736 1259.6941,-134.5675 1260.3104,-141.5404"/>
</g>
<!-- ../package.json -->
<g id="node5" class="node">
<title>../package.json</title>
<ellipse fill="none" stroke="#0c821d" stroke-width="4" cx="162.696" cy="-1323.1023" rx="79.3981" ry="79.3981"/>
<text text-anchor="middle" x="162.696" y="-1320.7023" font-family="Fira Code" font-size="12.00" fill="#0c821d">../package.json</text>
</g>
<!-- array.js -->
<g id="node6" class="node">
<title>array.js</title>
<ellipse fill="none" stroke="#242424" stroke-width="4" cx="652.696" cy="-998.3305" rx="47.0167" ry="47.0167"/>
<text text-anchor="middle" x="652.696" y="-995.9305" font-family="Fira Code" font-size="12.00" fill="#242424">array.js</text>
</g>
<!-- array.js&#45;&gt;entrust/entrust.js -->
<g id="edge4" class="edge">
<title>array.js&#45;&gt;entrust/entrust.js</title>
<path fill="none" stroke="#242424" d="M622.1796,-962.3462C562.4706,-889.8883 430.3161,-719.0356 364.696,-552.149 329.4145,-462.4205 345.7326,-433.0855 326.696,-338.5677 319.5852,-303.2624 311.121,-264.7602 303.3477,-230.5437"/>
<polygon fill="#242424" stroke="#242424" points="306.7032,-229.5153 301.068,-220.5434 299.8783,-231.0712 306.7032,-229.5153"/>
</g>
<!-- array.js&#45;&gt;katsu&#45;curry/katsu&#45;curry.js -->
<g id="edge5" class="edge">
<title>array.js&#45;&gt;katsu&#45;curry/katsu&#45;curry.js</title>
<path fill="none" stroke="#242424" d="M639.5896,-952.7652C602.4928,-819.6034 504.1446,-434.4508 578.696,-338.5677 661.673,-231.8483 1048.8353,-170.7367 1260.5279,-144.7624"/>
<polygon fill="#242424" stroke="#242424" points="1260.97,-148.2345 1270.474,-143.5521 1260.1244,-141.2858 1260.97,-148.2345"/>
</g>
<!-- filter.js -->
<g id="node7" class="node">
<title>filter.js</title>
<ellipse fill="none" stroke="#242424" stroke-width="4" cx="675.696" cy="-719.5451" rx="51.7142" ry="51.7142"/>
<text text-anchor="middle" x="675.696" y="-717.1451" font-family="Fira Code" font-size="12.00" fill="#242424">filter.js</text>
</g>
<!-- array.js&#45;&gt;filter.js -->
<g id="edge6" class="edge">
<title>array.js&#45;&gt;filter.js</title>
<path fill="none" stroke="#242424" d="M656.5716,-951.3536C660.4243,-904.6544 666.355,-832.7685 670.5899,-781.4371"/>
<polygon fill="#242424" stroke="#242424" points="674.079,-781.7124 671.4131,-771.4585 667.1027,-781.1368 674.079,-781.7124"/>
</g>
<!-- delegate&#45;fast.js -->
<g id="node10" class="node">
<title>delegate&#45;fast.js</title>
<ellipse fill="none" stroke="#242424" stroke-width="4" cx="941.696" cy="-445.3584" rx="83.5954" ry="83.5954"/>
<text text-anchor="middle" x="941.696" y="-442.9584" font-family="Fira Code" font-size="12.00" fill="#242424">delegate&#45;fast.js</text>
</g>
<!-- filter.js&#45;&gt;delegate&#45;fast.js -->
<g id="edge13" class="edge">
<title>filter.js&#45;&gt;delegate&#45;fast.js</title>
<path fill="none" stroke="#242424" d="M711.8468,-682.2817C753.904,-638.9301 824.181,-566.4901 875.9768,-513.1002"/>
<polygon fill="#242424" stroke="#242424" points="878.7069,-515.3127 883.1579,-505.6981 873.6826,-510.4385 878.7069,-515.3127"/>
</g>
<!-- fast.js/filter.js -->
<g id="node12" class="node">
<title>fast.js/filter.js</title>
<ellipse fill="none" stroke="#0c821d" stroke-width="4" cx="675.696" cy="-445.3584" rx="88.2923" ry="88.2923"/>
<text text-anchor="middle" x="675.696" y="-442.9584" font-family="Fira Code" font-size="12.00" fill="#0c821d">fast.js/filter.js</text>
</g>
<!-- filter.js&#45;&gt;fast.js/filter.js -->
<g id="edge12" class="edge">
<title>filter.js&#45;&gt;fast.js/filter.js</title>
<path fill="none" stroke="#242424" d="M675.696,-667.6504C675.696,-632.8693 675.696,-585.9666 675.696,-544.2092"/>
<polygon fill="#242424" stroke="#242424" points="679.1961,-543.9947 675.696,-533.9948 672.1961,-543.9948 679.1961,-543.9947"/>
</g>
<!-- chain.js -->
<g id="node8" class="node">
<title>chain.js</title>
<ellipse fill="none" stroke="#242424" stroke-width="4" cx="1050.696" cy="-719.5451" rx="47.0167" ry="47.0167"/>
<text text-anchor="middle" x="1050.696" y="-717.1451" font-family="Fira Code" font-size="12.00" fill="#242424">chain.js</text>
</g>
<!-- flatmap&#45;fast/index.js -->
<g id="node9" class="node">
<title>flatmap&#45;fast/index.js</title>
<ellipse fill="none" stroke="#0c821d" stroke-width="4" cx="1150.696" cy="-445.3584" rx="106.5817" ry="106.5817"/>
<text text-anchor="middle" x="1150.696" y="-442.9584" font-family="Fira Code" font-size="12.00" fill="#0c821d">flatmap&#45;fast/index.js</text>
</g>
<!-- chain.js&#45;&gt;flatmap&#45;fast/index.js -->
<g id="edge7" class="edge">
<title>chain.js&#45;&gt;flatmap&#45;fast/index.js</title>
<path fill="none" stroke="#242424" d="M1066.8739,-675.1876C1078.7195,-642.7084 1095.333,-597.1563 1110.6483,-555.164"/>
<polygon fill="#242424" stroke="#242424" points="1113.9599,-556.2985 1114.0982,-545.7046 1107.3837,-553.9 1113.9599,-556.2985"/>
</g>
<!-- chain.js&#45;&gt;delegate&#45;fast.js -->
<g id="edge8" class="edge">
<title>chain.js&#45;&gt;delegate&#45;fast.js</title>
<path fill="none" stroke="#242424" d="M1033.3041,-675.7962C1018.0619,-637.4549 995.4451,-580.5629 976.4983,-532.9026"/>
<polygon fill="#242424" stroke="#242424" points="979.7078,-531.5015 972.7611,-523.5018 973.2029,-534.0875 979.7078,-531.5015"/>
</g>
<!-- delegate&#45;fast.js&#45;&gt;entrust/entrust.js -->
<g id="edge10" class="edge">
<title>delegate&#45;fast.js&#45;&gt;entrust/entrust.js</title>
<path fill="none" stroke="#242424" d="M874.4698,-394.9169C844.6444,-374.6933 808.2909,-352.8448 772.696,-338.5677 608.1494,-272.5683 532.651,-352.5413 381.696,-259.5677 363.9766,-248.6543 348.1026,-233.4895 334.4527,-217.3632"/>
<polygon fill="#242424" stroke="#242424" points="336.9701,-214.9126 327.9322,-209.3839 331.5497,-219.342 336.9701,-214.9126"/>
</g>
<!-- delegate&#45;fast.js&#45;&gt;katsu&#45;curry/katsu&#45;curry.js -->
<g id="edge11" class="edge">
<title>delegate&#45;fast.js&#45;&gt;katsu&#45;curry/katsu&#45;curry.js</title>
<path fill="none" stroke="#242424" d="M993.2973,-379.069C1005.9988,-364.8302 1020.1543,-350.4951 1034.696,-338.5677 1107.2293,-279.0744 1198.9136,-226.7009 1272.2461,-189.29"/>
<polygon fill="#242424" stroke="#242424" points="1274.215,-192.216 1281.5518,-184.5726 1271.0498,-185.9725 1274.215,-192.216"/>
</g>
<!-- choice.js -->
<g id="node11" class="node">
<title>choice.js</title>
<ellipse fill="none" stroke="#242424" stroke-width="4" cx="1833.696" cy="-719.5451" rx="51.7142" ry="51.7142"/>
<text text-anchor="middle" x="1833.696" y="-717.1451" font-family="Fira Code" font-size="12.00" fill="#242424">choice.js</text>
</g>
<!-- choice.js&#45;&gt;katsu&#45;curry/katsu&#45;curry.js -->
<g id="edge9" class="edge">
<title>choice.js&#45;&gt;katsu&#45;curry/katsu&#45;curry.js</title>
<path fill="none" stroke="#242424" d="M1804.3603,-676.7349C1794.364,-662.2272 1783.0891,-645.9513 1772.696,-631.149 1680.8664,-500.3627 1659.5226,-466.4544 1563.696,-338.5677 1539.299,-306.0084 1512.2285,-271.08 1487.2287,-239.2873"/>
<polygon fill="#242424" stroke="#242424" points="1489.8565,-236.967 1480.9203,-231.2753 1484.3567,-241.2974 1489.8565,-236.967"/>
</g>
<!-- flip.js -->
<g id="node13" class="node">
<title>flip.js</title>
<ellipse fill="none" stroke="#242424" stroke-width="4" cx="2653.696" cy="-998.3305" rx="42.3196" ry="42.3196"/>
<text text-anchor="middle" x="2653.696" y="-995.9305" font-family="Fira Code" font-size="12.00" fill="#242424">flip.js</text>
</g>
<!-- flip.js&#45;&gt;katsu&#45;curry/katsu&#45;curry.js -->
<g id="edge14" class="edge">
<title>flip.js&#45;&gt;katsu&#45;curry/katsu&#45;curry.js</title>
<path fill="none" stroke="#242424" d="M2648.5154,-956.0907C2631.7135,-838.2687 2567.5674,-503.8376 2365.696,-338.5677 2301.9091,-286.3461 1789.4851,-194.8671 1537.9676,-152.5033"/>
<polygon fill="#242424" stroke="#242424" points="1538.4704,-149.0387 1528.0284,-150.8319 1537.3095,-155.9418 1538.4704,-149.0387"/>
</g>
<!-- future.js -->
<g id="node14" class="node">
<title>future.js</title>
<ellipse fill="none" stroke="#242424" stroke-width="4" cx="172.696" cy="-445.3584" rx="51.7142" ry="51.7142"/>
<text text-anchor="middle" x="172.696" y="-442.9584" font-family="Fira Code" font-size="12.00" fill="#242424">future.js</text>
</g>
<!-- future.js&#45;&gt;entrust/entrust.js -->
<g id="edge15" class="edge">
<title>future.js&#45;&gt;entrust/entrust.js</title>
<path fill="none" stroke="#242424" d="M189.2973,-396.3961C204.5293,-351.4727 227.5415,-283.603 246.5352,-227.5849"/>
<polygon fill="#242424" stroke="#242424" points="249.8925,-228.5828 249.789,-217.9885 243.2632,-226.335 249.8925,-228.5828"/>
</g>
<!-- index.js -->
<g id="node15" class="node">
<title>index.js</title>
<ellipse fill="none" stroke="#242424" stroke-width="4" cx="1296.696" cy="-1583.4931" rx="47.0167" ry="47.0167"/>
<text text-anchor="middle" x="1296.696" y="-1581.0932" font-family="Fira Code" font-size="12.00" fill="#242424">index.js</text>
</g>
<!-- index.js&#45;&gt;katsu&#45;curry/katsu&#45;curry.js -->
<g id="edge16" class="edge">
<title>index.js&#45;&gt;katsu&#45;curry/katsu&#45;curry.js</title>
<path fill="none" stroke="#242424" d="M1343.2335,-1575.3291C1402.6285,-1562.1399 1503.0227,-1529.8988 1547.696,-1457.4848 1566.1453,-1427.5791 1582.8025,-513.0691 1530.696,-338.5677 1520.639,-304.8876 1503.5489,-271.3258 1484.9743,-241.2739"/>
<polygon fill="#242424" stroke="#242424" points="1487.7267,-239.0764 1479.4357,-232.4803 1481.8037,-242.8071 1487.7267,-239.0764"/>
</g>
<!-- index.js&#45;&gt;../package.json -->
<g id="edge18" class="edge">
<title>index.js&#45;&gt;../package.json</title>
<path fill="none" stroke="#242424" d="M1249.677,-1582.8343C1069.7908,-1579.5585 426.7617,-1560.7118 255.696,-1457.4848 234.1319,-1444.4723 216.3405,-1424.326 202.2982,-1403.5579"/>
<polygon fill="#242424" stroke="#242424" points="205.0915,-1401.433 196.7075,-1394.9554 199.2221,-1405.2475 205.0915,-1401.433"/>
</g>
<!-- index.js&#45;&gt;array.js -->
<g id="edge19" class="edge">
<title>index.js&#45;&gt;array.js</title>
<path fill="none" stroke="#242424" d="M1249.7238,-1581.1309C1118.3262,-1573.4689 751.7138,-1544.5413 676.696,-1457.4848 578.308,-1343.3077 611.9998,-1147.7736 636.4593,-1053.0088"/>
<polygon fill="#242424" stroke="#242424" points="639.8447,-1053.8968 639.0151,-1043.3345 633.0769,-1052.1088 639.8447,-1053.8968"/>
</g>
<!-- index.js&#45;&gt;filter.js -->
<g id="edge21" class="edge">
<title>index.js&#45;&gt;filter.js</title>
<path fill="none" stroke="#242424" d="M1249.504,-1582.268C1107.8106,-1577.5128 690.6818,-1555.3038 606.696,-1457.4848 441.4864,-1265.0639 541.2331,-1134.4162 596.696,-886.9412 605.7857,-846.3831 625.8562,-804.078 643.4915,-772.144"/>
<polygon fill="#242424" stroke="#242424" points="646.5447,-773.855 648.3898,-763.422 640.4413,-770.4273 646.5447,-773.855"/>
</g>
<!-- index.js&#45;&gt;choice.js -->
<g id="edge20" class="edge">
<title>index.js&#45;&gt;choice.js</title>
<path fill="none" stroke="#242424" d="M1343.6045,-1577.1477C1447.9777,-1562.0063 1694.269,-1520.2787 1745.696,-1457.4848 1785.9767,-1408.3009 1778.0082,-949.6099 1788.696,-886.9412 1794.9315,-850.3788 1805.5935,-810.2213 1814.9743,-778.4052"/>
<polygon fill="#242424" stroke="#242424" points="1818.3312,-779.3956 1817.8382,-768.8122 1811.6237,-777.3931 1818.3312,-779.3956"/>
</g>
<!-- index.js&#45;&gt;flip.js -->
<g id="edge22" class="edge">
<title>index.js&#45;&gt;flip.js</title>
<path fill="none" stroke="#242424" d="M1343.8805,-1582.5868C1523.6708,-1578.4098 2164.4117,-1556.7138 2337.696,-1457.4848 2501.452,-1363.7121 2599.0879,-1146.3751 2636.3168,-1048.1344"/>
<polygon fill="#242424" stroke="#242424" points="2639.6109,-1049.3178 2639.8352,-1038.7254 2633.0543,-1046.866 2639.6109,-1049.3178"/>
</g>
<!-- index.js&#45;&gt;future.js -->
<g id="edge23" class="edge">
<title>index.js&#45;&gt;future.js</title>
<path fill="none" stroke="#242424" d="M1249.7387,-1580.0822C1073.1071,-1566.8351 455.3977,-1516.5946 391.696,-1457.4848 250.5843,-1326.5451 192.3086,-706.4078 177.0268,-507.1585"/>
<polygon fill="#242424" stroke="#242424" points="180.5142,-506.8589 176.2685,-497.152 173.5342,-507.3879 180.5142,-506.8589"/>
</g>
<!-- katsu&#45;curry/utils/length.js -->
<g id="node16" class="node">
<title>katsu&#45;curry/utils/length.js</title>
<ellipse fill="none" stroke="#0c821d" stroke-width="4" cx="852.696" cy="-1323.1023" rx="134.2651" ry="134.2651"/>
<text text-anchor="middle" x="852.696" y="-1320.7023" font-family="Fira Code" font-size="12.00" fill="#0c821d">katsu&#45;curry/utils/length.js</text>
</g>
<!-- index.js&#45;&gt;katsu&#45;curry/utils/length.js -->
<g id="edge17" class="edge">
<title>index.js&#45;&gt;katsu&#45;curry/utils/length.js</title>
<path fill="none" stroke="#242424" d="M1251.5224,-1569.5524C1191.4038,-1549.85 1083.1096,-1510.2907 1000.696,-1457.4848 985.5325,-1447.7689 970.4354,-1436.4705 956.0009,-1424.6304"/>
<polygon fill="#242424" stroke="#242424" points="957.9753,-1421.7196 948.0536,-1418.0033 953.4923,-1427.0957 957.9753,-1421.7196"/>
</g>
<!-- iterate.js -->
<g id="node17" class="node">
<title>iterate.js</title>
<ellipse fill="none" stroke="#242424" stroke-width="4" cx="1399.696" cy="-719.5451" rx="56.412" ry="56.412"/>
<text text-anchor="middle" x="1399.696" y="-717.1451" font-family="Fira Code" font-size="12.00" fill="#242424">iterate.js</text>
</g>
<!-- index.js&#45;&gt;iterate.js -->
<g id="edge24" class="edge">
<title>index.js&#45;&gt;iterate.js</title>
<path fill="none" stroke="#242424" d="M1343.2335,-1575.3291C1402.6285,-1562.1399 1503.0227,-1529.8988 1547.696,-1457.4848 1685.8481,-1233.5449 1515.079,-905.3052 1435.9088,-775.4182"/>
<polygon fill="#242424" stroke="#242424" points="1438.8194,-773.4696 1430.6014,-766.7827 1432.8557,-777.135 1438.8194,-773.4696"/>
</g>
<!-- map.js -->
<g id="node18" class="node">
<title>map.js</title>
<ellipse fill="none" stroke="#242424" stroke-width="4" cx="279.696" cy="-445.3584" rx="37.623" ry="37.623"/>
<text text-anchor="middle" x="279.696" y="-442.9584" font-family="Fira Code" font-size="12.00" fill="#242424">map.js</text>
</g>
<!-- index.js&#45;&gt;map.js -->
<g id="edge25" class="edge">
<title>index.js&#45;&gt;map.js</title>
<path fill="none" stroke="#242424" d="M1249.5474,-1582.5809C1097.0102,-1578.6467 620.5559,-1558.3595 512.696,-1457.4848 368.2507,-1322.394 300.269,-675.6394 283.7706,-493.3051"/>
<polygon fill="#242424" stroke="#242424" points="287.2454,-492.8667 282.8678,-483.2185 280.2733,-493.4908 287.2454,-492.8667"/>
</g>
<!-- math.js -->
<g id="node19" class="node">
<title>math.js</title>
<ellipse fill="none" stroke="#242424" stroke-width="4" cx="1872.696" cy="-998.3305" rx="42.3196" ry="42.3196"/>
<text text-anchor="middle" x="1872.696" y="-995.9305" font-family="Fira Code" font-size="12.00" fill="#242424">math.js</text>
</g>
<!-- index.js&#45;&gt;math.js -->
<g id="edge26" class="edge">
<title>index.js&#45;&gt;math.js</title>
<path fill="none" stroke="#242424" d="M1343.8395,-1580.7832C1471.2195,-1572.381 1817.3109,-1542.0474 1885.696,-1457.4848 1982.0974,-1338.2783 1926.3809,-1139.1757 1892.6503,-1047.3991"/>
<polygon fill="#242424" stroke="#242424" points="1895.8422,-1045.9422 1889.0592,-1037.8034 1889.2863,-1048.3958 1895.8422,-1045.9422"/>
</g>
<!-- object.js -->
<g id="node20" class="node">
<title>object.js</title>
<ellipse fill="none" stroke="#242424" stroke-width="4" cx="2071.696" cy="-719.5451" rx="51.7142" ry="51.7142"/>
<text text-anchor="middle" x="2071.696" y="-717.1451" font-family="Fira Code" font-size="12.00" fill="#242424">object.js</text>
</g>
<!-- index.js&#45;&gt;object.js -->
<g id="edge27" class="edge">
<title>index.js&#45;&gt;object.js</title>
<path fill="none" stroke="#242424" d="M1343.7905,-1581.4629C1483.2811,-1574.4669 1890.2626,-1546.6616 1981.696,-1457.4848 2077.022,-1364.5116 2077.1482,-941.9858 2073.6107,-781.5717"/>
<polygon fill="#242424" stroke="#242424" points="2077.1056,-781.3065 2073.3734,-771.3908 2070.1075,-781.4697 2077.1056,-781.3065"/>
</g>
<!-- path.js -->
<g id="node21" class="node">
<title>path.js</title>
<ellipse fill="none" stroke="#242424" stroke-width="4" cx="1834.696" cy="-1323.1023" rx="42.3196" ry="42.3196"/>
<text text-anchor="middle" x="1834.696" y="-1320.7023" font-family="Fira Code" font-size="12.00" fill="#242424">path.js</text>
</g>
<!-- index.js&#45;&gt;path.js -->
<g id="edge28" class="edge">
<title>index.js&#45;&gt;path.js</title>
<path fill="none" stroke="#242424" d="M1343.5891,-1576.6291C1451.4334,-1560.0132 1712.862,-1514.742 1778.696,-1457.4848 1803.0061,-1436.3418 1816.9911,-1402.936 1824.906,-1374.7216"/>
<polygon fill="#242424" stroke="#242424" points="1828.3077,-1375.5478 1827.4595,-1364.987 1821.5367,-1373.7717 1828.3077,-1375.5478"/>
</g>
<!-- random&#45;floor.js -->
<g id="node22" class="node">
<title>random&#45;floor.js</title>
<ellipse fill="none" stroke="#242424" stroke-width="4" cx="898.696" cy="-719.5451" rx="79.3981" ry="79.3981"/>
<text text-anchor="middle" x="898.696" y="-717.1451" font-family="Fira Code" font-size="12.00" fill="#242424">random&#45;floor.js</text>
</g>
<!-- index.js&#45;&gt;random&#45;floor.js -->
<g id="edge29" class="edge">
<title>index.js&#45;&gt;random&#45;floor.js</title>
<path fill="none" stroke="#242424" d="M1249.7106,-1580.7567C1122.7579,-1572.2869 777.8297,-1541.7966 709.696,-1457.4848 634.6166,-1364.5781 652.8273,-1293.7652 709.696,-1188.7198 740.2724,-1132.2404 795.3667,-1163.3545 830.696,-1109.7198 890.1223,-1019.5027 902.2186,-893.0604 902.6967,-808.8383"/>
<polygon fill="#242424" stroke="#242424" points="906.1966,-808.783 902.6998,-798.7819 899.1966,-808.7808 906.1966,-808.783"/>
</g>
<!-- random&#45;shuffle.js -->
<g id="node23" class="node">
<title>random&#45;shuffle.js</title>
<ellipse fill="none" stroke="#0c821d" stroke-width="4" cx="1450.696" cy="-1323.1023" rx="88.2923" ry="88.2923"/>
<text text-anchor="middle" x="1450.696" y="-1320.7023" font-family="Fira Code" font-size="12.00" fill="#0c821d">random&#45;shuffle.js</text>
</g>
<!-- index.js&#45;&gt;random&#45;shuffle.js -->
<g id="edge30" class="edge">
<title>index.js&#45;&gt;random&#45;shuffle.js</title>
<path fill="none" stroke="#242424" d="M1320.7585,-1542.8071C1342.0175,-1506.8614 1373.7109,-1453.2725 1400.4743,-1408.0197"/>
<polygon fill="#242424" stroke="#242424" points="1403.5053,-1409.7701 1405.5833,-1399.381 1397.4802,-1406.2067 1403.5053,-1409.7701"/>
</g>
<!-- random&#45;take.js -->
<g id="node24" class="node">
<title>random&#45;take.js</title>
<ellipse fill="none" stroke="#242424" stroke-width="4" cx="1185.696" cy="-998.3305" rx="74.7005" ry="74.7005"/>
<text text-anchor="middle" x="1185.696" y="-995.9305" font-family="Fira Code" font-size="12.00" fill="#242424">random&#45;take.js</text>
</g>
<!-- index.js&#45;&gt;random&#45;take.js -->
<g id="edge31" class="edge">
<title>index.js&#45;&gt;random&#45;take.js</title>
<path fill="none" stroke="#242424" d="M1275.8777,-1541.0219C1264.9658,-1517.0347 1252.3197,-1486.1905 1244.696,-1457.4848 1226.423,-1388.6812 1205.1866,-1195.2267 1193.8386,-1082.5876"/>
<polygon fill="#242424" stroke="#242424" points="1197.319,-1082.2161 1192.8385,-1072.6154 1190.354,-1082.9147 1197.319,-1082.2161"/>
</g>
<!-- random&#45;word.js -->
<g id="node25" class="node">
<title>random&#45;word.js</title>
<ellipse fill="none" stroke="#242424" stroke-width="4" cx="1117.696" cy="-1323.1023" rx="74.7005" ry="74.7005"/>
<text text-anchor="middle" x="1117.696" y="-1320.7023" font-family="Fira Code" font-size="12.00" fill="#242424">random&#45;word.js</text>
</g>
<!-- index.js&#45;&gt;random&#45;word.js -->
<g id="edge32" class="edge">
<title>index.js&#45;&gt;random&#45;word.js</title>
<path fill="none" stroke="#242424" d="M1268.9697,-1545.4147C1250.9922,-1520.5445 1227.1897,-1487.2745 1206.696,-1457.4848 1192.617,-1437.0196 1177.6006,-1414.5891 1163.9898,-1394.0171"/>
<polygon fill="#242424" stroke="#242424" points="1166.8819,-1392.0451 1158.4501,-1385.6298 1161.0409,-1395.903 1166.8819,-1392.0451"/>
</g>
<!-- random.js -->
<g id="node26" class="node">
<title>random.js</title>
<ellipse fill="none" stroke="#0c821d" stroke-width="4" cx="1684.696" cy="-1323.1023" rx="51.7142" ry="51.7142"/>
<text text-anchor="middle" x="1684.696" y="-1320.7023" font-family="Fira Code" font-size="12.00" fill="#0c821d">random.js</text>
</g>
<!-- index.js&#45;&gt;random.js -->
<g id="edge33" class="edge">
<title>index.js&#45;&gt;random.js</title>
<path fill="none" stroke="#242424" d="M1343.3878,-1576.2183C1411.5779,-1563.3951 1538.9451,-1530.8383 1618.696,-1457.4848 1640.6752,-1437.2687 1656.2196,-1408.1317 1666.678,-1382.1529"/>
<polygon fill="#242424" stroke="#242424" points="1669.9726,-1383.3367 1670.3035,-1372.7471 1663.441,-1380.8191 1669.9726,-1383.3367"/>
</g>
<!-- reduce.js -->
<g id="node27" class="node">
<title>reduce.js</title>
<ellipse fill="none" stroke="#242424" stroke-width="4" cx="1684.696" cy="-998.3305" rx="51.7142" ry="51.7142"/>
<text text-anchor="middle" x="1684.696" y="-995.9305" font-family="Fira Code" font-size="12.00" fill="#242424">reduce.js</text>
</g>
<!-- index.js&#45;&gt;reduce.js -->
<g id="edge34" class="edge">
<title>index.js&#45;&gt;reduce.js</title>
<path fill="none" stroke="#242424" d="M1302.3365,-1536.7626C1314.727,-1435.3561 1343.9888,-1203.028 1353.696,-1188.7198 1418.5234,-1093.1655 1548.3648,-1039.5026 1624.74,-1014.9611"/>
<polygon fill="#242424" stroke="#242424" points="1626.2041,-1018.1697 1634.6932,-1011.8305 1624.1037,-1011.4922 1626.2041,-1018.1697"/>
</g>
<!-- reject.js -->
<g id="node28" class="node">
<title>reject.js</title>
<ellipse fill="none" stroke="#242424" stroke-width="4" cx="769.696" cy="-998.3305" rx="51.7142" ry="51.7142"/>
<text text-anchor="middle" x="769.696" y="-995.9305" font-family="Fira Code" font-size="12.00" fill="#242424">reject.js</text>
</g>
<!-- index.js&#45;&gt;reject.js -->
<g id="edge35" class="edge">
<title>index.js&#45;&gt;reject.js</title>
<path fill="none" stroke="#242424" d="M1250.3525,-1575.1559C1190.0256,-1561.6932 1086.1295,-1529.0638 1033.696,-1457.4848 962.4054,-1360.1634 1054.1238,-1294.266 995.696,-1188.7198 955.8011,-1116.6522 877.0478,-1060.0915 823.8732,-1027.9354"/>
<polygon fill="#242424" stroke="#242424" points="825.6238,-1024.9044 815.2414,-1022.7935 822.0413,-1030.9182 825.6238,-1024.9044"/>
</g>
<!-- string.js -->
<g id="node29" class="node">
<title>string.js</title>
<ellipse fill="none" stroke="#242424" stroke-width="4" cx="51.696" cy="-445.3584" rx="51.7142" ry="51.7142"/>
<text text-anchor="middle" x="51.696" y="-442.9584" font-family="Fira Code" font-size="12.00" fill="#242424">string.js</text>
</g>
<!-- index.js&#45;&gt;string.js -->
<g id="edge36" class="edge">
<title>index.js&#45;&gt;string.js</title>
<path fill="none" stroke="#242424" d="M1249.4317,-1582.2345C1034.4511,-1576.0377 155.8842,-1545.4454 74.696,-1457.4848 -52.9499,-1319.1913 16.8683,-704.0035 43.1058,-506.569"/>
<polygon fill="#242424" stroke="#242424" points="46.5752,-507.0303 44.4336,-496.6542 39.6371,-506.1011 46.5752,-507.0303"/>
</g>
<!-- ternary.js -->
<g id="node30" class="node">
<title>ternary.js</title>
<ellipse fill="none" stroke="#242424" stroke-width="4" cx="1269.696" cy="-719.5451" rx="56.412" ry="56.412"/>
<text text-anchor="middle" x="1269.696" y="-717.1451" font-family="Fira Code" font-size="12.00" fill="#242424">ternary.js</text>
</g>
<!-- index.js&#45;&gt;ternary.js -->
<g id="edge37" class="edge">
<title>index.js&#45;&gt;ternary.js</title>
<path fill="none" stroke="#242424" d="M1290.4375,-1536.6107C1287.5443,-1512.9342 1284.3817,-1483.734 1282.696,-1457.4848 1274.3875,-1328.111 1271.0915,-942.2076 1270.0748,-786.1435"/>
<polygon fill="#242424" stroke="#242424" points="1273.5724,-785.7332 1270.0083,-775.7558 1266.5725,-785.778 1273.5724,-785.7332"/>
</g>
<!-- triplet.js -->
<g id="node31" class="node">
<title>triplet.js</title>
<ellipse fill="none" stroke="#242424" stroke-width="4" cx="1989.696" cy="-998.3305" rx="56.412" ry="56.412"/>
<text text-anchor="middle" x="1989.696" y="-995.9305" font-family="Fira Code" font-size="12.00" fill="#242424">triplet.js</text>
</g>
<!-- index.js&#45;&gt;triplet.js -->
<g id="edge38" class="edge">
<title>index.js&#45;&gt;triplet.js</title>
<path fill="none" stroke="#242424" d="M1343.9687,-1580.9049C1476.263,-1572.6435 1845.7779,-1542.2815 1925.696,-1457.4848 2026.3277,-1350.71 2016.0929,-1163.1713 2001.8589,-1064.0379"/>
<polygon fill="#242424" stroke="#242424" points="2005.2765,-1063.2259 2000.3374,-1053.8527 1998.3534,-1064.2601 2005.2765,-1063.2259"/>
</g>
<!-- types.js -->
<g id="node32" class="node">
<title>types.js</title>
<ellipse fill="none" stroke="#242424" stroke-width="4" cx="1474.696" cy="-445.3584" rx="47.0167" ry="47.0167"/>
<text text-anchor="middle" x="1474.696" y="-442.9584" font-family="Fira Code" font-size="12.00" fill="#242424">types.js</text>
</g>
<!-- index.js&#45;&gt;types.js -->
<g id="edge39" class="edge">
<title>index.js&#45;&gt;types.js</title>
<path fill="none" stroke="#242424" d="M1293.1381,-1536.3602C1288.6634,-1461.6757 1284.4408,-1311.9703 1310.696,-1188.7198 1348.7303,-1010.1743 1427.365,-986.6351 1464.696,-807.9412 1486.8504,-701.8936 1483.7443,-574.6298 1479.3238,-502.5588"/>
<polygon fill="#242424" stroke="#242424" points="1482.8009,-502.0892 1478.6649,-492.335 1475.8154,-502.5394 1482.8009,-502.0892"/>
</g>
<!-- which.js -->
<g id="node33" class="node">
<title>which.js</title>
<ellipse fill="none" stroke="#242424" stroke-width="4" cx="2281.696" cy="-1323.1023" rx="47.0167" ry="47.0167"/>
<text text-anchor="middle" x="2281.696" y="-1320.7023" font-family="Fira Code" font-size="12.00" fill="#242424">which.js</text>
</g>
<!-- index.js&#45;&gt;which.js -->
<g id="edge40" class="edge">
<title>index.js&#45;&gt;which.js</title>
<path fill="none" stroke="#242424" d="M1343.4704,-1578.8016C1491.7943,-1563.4959 1949.9453,-1512.8064 2087.696,-1457.4848 2144.6045,-1434.63 2201.2862,-1392.5612 2238.5517,-1361.5599"/>
<polygon fill="#242424" stroke="#242424" points="2241.2697,-1363.8469 2246.6654,-1354.729 2236.7614,-1358.492 2241.2697,-1363.8469"/>
</g>
<!-- iterate.js&#45;&gt;katsu&#45;curry/katsu&#45;curry.js -->
<g id="edge41" class="edge">
<title>iterate.js&#45;&gt;katsu&#45;curry/katsu&#45;curry.js</title>
<path fill="none" stroke="#242424" d="M1399.696,-663.2635C1399.696,-573.5592 1399.696,-395.4827 1399.696,-269.8038"/>
<polygon fill="#242424" stroke="#242424" points="1403.1961,-269.7112 1399.696,-259.7113 1396.1961,-269.7113 1403.1961,-269.7112"/>
</g>
<!-- map.js&#45;&gt;entrust/entrust.js -->
<g id="edge42" class="edge">
<title>map.js&#45;&gt;entrust/entrust.js</title>
<path fill="none" stroke="#242424" d="M279.696,-407.2927C279.696,-364.3669 279.696,-292.763 279.696,-233.0423"/>
<polygon fill="#242424" stroke="#242424" points="283.1961,-232.8047 279.696,-222.8047 276.1961,-232.8047 283.1961,-232.8047"/>
</g>
<!-- map.js&#45;&gt;fantasy&#45;land/index.js -->
<g id="edge43" class="edge">
<title>map.js&#45;&gt;fantasy&#45;land/index.js</title>
<path fill="none" stroke="#242424" d="M301.1953,-414.2362C331.1108,-370.9308 386.6203,-290.5759 431.0296,-226.2894"/>
<polygon fill="#242424" stroke="#242424" points="434.1368,-227.9494 436.9409,-217.7324 428.3774,-223.9708 434.1368,-227.9494"/>
</g>
<!-- map.js&#45;&gt;katsu&#45;curry/katsu&#45;curry.js -->
<g id="edge45" class="edge">
<title>map.js&#45;&gt;katsu&#45;curry/katsu&#45;curry.js</title>
<path fill="none" stroke="#242424" d="M297.7066,-411.8912C312.4904,-387.713 335.6855,-356.306 364.696,-338.5677 440.6435,-292.1302 997.2594,-195.9537 1261.355,-152.2594"/>
<polygon fill="#242424" stroke="#242424" points="1262.1004,-155.6838 1271.3959,-150.6002 1260.959,-148.7775 1262.1004,-155.6838"/>
</g>
<!-- fast.js/map.js -->
<g id="node34" class="node">
<title>fast.js/map.js</title>
<ellipse fill="none" stroke="#0c821d" stroke-width="4" cx="93.696" cy="-129.7839" rx="74.7005" ry="74.7005"/>
<text text-anchor="middle" x="93.696" y="-127.3839" font-family="Fira Code" font-size="12.00" fill="#0c821d">fast.js/map.js</text>
</g>
<!-- map.js&#45;&gt;fast.js/map.js -->
<g id="edge44" class="edge">
<title>map.js&#45;&gt;fast.js/map.js</title>
<path fill="none" stroke="#242424" d="M266.5736,-409.8436C258.2073,-388.6304 246.5459,-361.4495 233.696,-338.5677 212.6225,-301.0423 201.8382,-295.1964 177.696,-259.5677 165.0315,-240.8777 151.6205,-220.4578 139.3209,-201.4627"/>
<polygon fill="#242424" stroke="#242424" points="142.1211,-199.3471 133.7546,-192.8468 136.2414,-203.1457 142.1211,-199.3471"/>
</g>
<!-- math.js&#45;&gt;katsu&#45;curry/katsu&#45;curry.js -->
<g id="edge46" class="edge">
<title>math.js&#45;&gt;katsu&#45;curry/katsu&#45;curry.js</title>
<path fill="none" stroke="#242424" d="M1887.7433,-958.5652C1901.2752,-920.5363 1920.1497,-861.254 1927.696,-807.9412 1942.3144,-704.6655 1986.343,-424.8238 1927.696,-338.5677 1841.2883,-211.4823 1664.302,-161.7529 1539.1075,-142.2935"/>
<polygon fill="#242424" stroke="#242424" points="1539.463,-138.8077 1529.053,-140.7783 1538.4198,-145.7295 1539.463,-138.8077"/>
</g>
<!-- object.js&#45;&gt;katsu&#45;curry/katsu&#45;curry.js -->
<g id="edge47" class="edge">
<title>object.js&#45;&gt;katsu&#45;curry/katsu&#45;curry.js</title>
<path fill="none" stroke="#242424" d="M2077.6735,-668.061C2084.0103,-587.8157 2083.9167,-432.4088 2003.696,-338.5677 1942.2609,-266.7018 1694.9209,-197.9877 1536.4371,-160.0813"/>
<polygon fill="#242424" stroke="#242424" points="1537.1405,-156.651 1526.6019,-157.7411 1535.5201,-163.4609 1537.1405,-156.651"/>
</g>
<!-- path.js&#45;&gt;katsu&#45;curry/katsu&#45;curry.js -->
<g id="edge48" class="edge">
<title>path.js&#45;&gt;katsu&#45;curry/katsu&#45;curry.js</title>
<path fill="none" stroke="#242424" d="M1831.3448,-1280.6273C1828.1289,-1237.5889 1823.5024,-1169.0752 1821.696,-1109.7198 1818.6841,-1010.7529 1785.6172,-979.1466 1821.696,-886.9412 1839.1159,-842.4218 1877.2761,-852.4607 1894.696,-807.9412 1923.3273,-734.769 1921.2336,-705.1063 1894.696,-631.149 1826.8515,-442.0743 1642.343,-289.2568 1518.7731,-203.9888"/>
<polygon fill="#242424" stroke="#242424" points="1520.5813,-200.9849 1510.354,-198.2185 1516.6239,-206.759 1520.5813,-200.9849"/>
</g>
<!-- path.js&#45;&gt;math.js -->
<g id="edge49" class="edge">
<title>path.js&#45;&gt;math.js</title>
<path fill="none" stroke="#242424" d="M1839.6249,-1280.977C1846.5206,-1222.0416 1859.0422,-1115.0243 1866.5417,-1050.9286"/>
<polygon fill="#242424" stroke="#242424" points="1870.0598,-1050.9778 1867.7457,-1040.6387 1863.1072,-1050.1642 1870.0598,-1050.9778"/>
</g>
<!-- path.js&#45;&gt;reduce.js -->
<g id="edge50" class="edge">
<title>path.js&#45;&gt;reduce.js</title>
<path fill="none" stroke="#242424" d="M1816.9,-1284.5714C1790.5679,-1227.5585 1741.0737,-1120.3965 1710.6824,-1054.5949"/>
<polygon fill="#242424" stroke="#242424" points="1713.7126,-1052.8084 1706.3421,-1045.1975 1707.3577,-1055.7435 1713.7126,-1052.8084"/>
</g>
<!-- random&#45;floor.js&#45;&gt;katsu&#45;curry/katsu&#45;curry.js -->
<g id="edge51" class="edge">
<title>random&#45;floor.js&#45;&gt;katsu&#45;curry/katsu&#45;curry.js</title>
<path fill="none" stroke="#242424" d="M862.7816,-648.8655C826.6987,-566.8502 784.8293,-431.0658 848.696,-338.5677 897.1688,-268.3645 1116.3756,-201.0129 1263.262,-162.598"/>
<polygon fill="#242424" stroke="#242424" points="1264.472,-165.8999 1273.2696,-159.9962 1262.7106,-159.1251 1264.472,-165.8999"/>
</g>
<!-- random&#45;take.js&#45;&gt;katsu&#45;curry/katsu&#45;curry.js -->
<g id="edge52" class="edge">
<title>random&#45;take.js&#45;&gt;katsu&#45;curry/katsu&#45;curry.js</title>
<path fill="none" stroke="#242424" d="M1172.9014,-924.6387C1163.1196,-847.2197 1158.1668,-724.0333 1204.696,-631.149 1229.2909,-582.0512 1272.0973,-599.6234 1299.696,-552.149 1348.153,-468.7949 1315.493,-432.3921 1337.696,-338.5677 1343.4805,-314.1239 1350.4379,-288.307 1357.5699,-263.4756"/>
<polygon fill="#242424" stroke="#242424" points="1360.9971,-264.2236 1360.417,-253.6446 1354.2734,-262.2763 1360.9971,-264.2236"/>
</g>
<!-- random&#45;take.js&#45;&gt;iterate.js -->
<g id="edge53" class="edge">
<title>random&#45;take.js&#45;&gt;iterate.js</title>
<path fill="none" stroke="#242424" d="M1232.1322,-939.9321C1261.7633,-902.4384 1300.8279,-852.581 1334.696,-807.9412 1343.127,-796.8287 1352.0531,-784.8409 1360.5012,-773.3878"/>
<polygon fill="#242424" stroke="#242424" points="1363.4459,-775.2915 1366.5543,-765.1629 1357.808,-771.1423 1363.4459,-775.2915"/>
</g>
<!-- random&#45;take.js&#45;&gt;random&#45;floor.js -->
<g id="edge54" class="edge">
<title>random&#45;take.js&#45;&gt;random&#45;floor.js</title>
<path fill="none" stroke="#242424" d="M1132.0502,-946.2202C1084.1125,-899.6546 1013.7894,-831.3443 962.8822,-781.8942"/>
<polygon fill="#242424" stroke="#242424" points="965.1289,-779.1971 955.5172,-774.74 960.2515,-784.2182 965.1289,-779.1971"/>
</g>
<!-- random&#45;word.js&#45;&gt;katsu&#45;curry/katsu&#45;curry.js -->
<g id="edge55" class="edge">
<title>random&#45;word.js&#45;&gt;katsu&#45;curry/katsu&#45;curry.js</title>
<path fill="none" stroke="#242424" d="M1108.0539,-1248.7372C1098.3659,-1161.6995 1086.8295,-1013.3694 1101.696,-886.9412 1115.3449,-770.8676 1098.8779,-729.0604 1162.696,-631.149 1194.3915,-582.5211 1236.9906,-602.0176 1266.696,-552.149 1315.8513,-469.6286 1271.3121,-430.3295 1299.696,-338.5677 1308.499,-310.1086 1320.5876,-280.6267 1333.3211,-253.1002"/>
<polygon fill="#242424" stroke="#242424" points="1336.5845,-254.3845 1337.6603,-243.8444 1330.2465,-251.4131 1336.5845,-254.3845"/>
</g>
<!-- random&#45;word.js&#45;&gt;array.js -->
<g id="edge56" class="edge">
<title>random&#45;word.js&#45;&gt;array.js</title>
<path fill="none" stroke="#242424" d="M1074.6974,-1261.9514C1053.5977,-1235.9848 1026.1649,-1207.448 995.696,-1188.7198 882.9857,-1119.4407 811.0019,-1193.6049 708.696,-1109.7198 690.9233,-1095.1472 678.2598,-1073.4998 669.5247,-1053.1537"/>
<polygon fill="#242424" stroke="#242424" points="672.6615,-1051.5746 665.6654,-1043.6181 666.1728,-1054.2008 672.6615,-1051.5746"/>
</g>
<!-- random&#45;word.js&#45;&gt;random&#45;take.js -->
<g id="edge57" class="edge">
<title>random&#45;word.js&#45;&gt;random&#45;take.js</title>
<path fill="none" stroke="#242424" d="M1133.0413,-1249.8122C1143.5293,-1199.721 1157.4473,-1133.2478 1168.3399,-1081.2243"/>
<polygon fill="#242424" stroke="#242424" points="1171.7828,-1081.859 1170.4065,-1071.354 1164.9314,-1080.4244 1171.7828,-1081.859"/>
</g>
<!-- reduce.js&#45;&gt;delegate&#45;fast.js -->
<g id="edge59" class="edge">
<title>reduce.js&#45;&gt;delegate&#45;fast.js</title>
<path fill="none" stroke="#242424" d="M1659.0937,-953.3911C1604.4033,-857.7072 1479.8973,-641.6671 1464.696,-631.149 1304.9071,-520.5879 1203.514,-648.361 1034.696,-552.149 1020.8106,-544.2355 1007.9802,-533.4548 996.5644,-521.7733"/>
<polygon fill="#242424" stroke="#242424" points="999.039,-519.2956 989.6424,-514.4011 993.9358,-524.0871 999.039,-519.2956"/>
</g>
<!-- fast.js/reduce.js -->
<g id="node35" class="node">
<title>fast.js/reduce.js</title>
<ellipse fill="none" stroke="#0c821d" stroke-width="4" cx="1675.696" cy="-719.5451" rx="88.2923" ry="88.2923"/>
<text text-anchor="middle" x="1675.696" y="-717.1451" font-family="Fira Code" font-size="12.00" fill="#0c821d">fast.js/reduce.js</text>
</g>
<!-- reduce.js&#45;&gt;fast.js/reduce.js -->
<g id="edge58" class="edge">
<title>reduce.js&#45;&gt;fast.js/reduce.js</title>
<path fill="none" stroke="#242424" d="M1683.0243,-946.5465C1681.8617,-910.5361 1680.2757,-861.4074 1678.8764,-818.0632"/>
<polygon fill="#242424" stroke="#242424" points="1682.3741,-817.9304 1678.5531,-808.0486 1675.3777,-818.1563 1682.3741,-817.9304"/>
</g>
<!-- reject.js&#45;&gt;katsu&#45;curry/katsu&#45;curry.js -->
<g id="edge60" class="edge">
<title>reject.js&#45;&gt;katsu&#45;curry/katsu&#45;curry.js</title>
<path fill="none" stroke="#242424" d="M769.7616,-946.4753C770.3934,-799.3222 775.415,-386.6322 811.696,-338.5677 867.0163,-265.2801 1106.9257,-197.4987 1262.6879,-160.0699"/>
<polygon fill="#242424" stroke="#242424" points="1263.9101,-163.3765 1272.8232,-157.6487 1262.2836,-156.5681 1263.9101,-163.3765"/>
</g>
<!-- reject.js&#45;&gt;filter.js -->
<g id="edge61" class="edge">
<title>reject.js&#45;&gt;filter.js</title>
<path fill="none" stroke="#242424" d="M753.1071,-949.131C737.0147,-901.4043 712.5868,-828.9559 695.4875,-778.2428"/>
<polygon fill="#242424" stroke="#242424" points="698.7886,-777.0784 692.2769,-768.7209 692.1555,-779.315 698.7886,-777.0784"/>
</g>
<!-- string.js&#45;&gt;entrust/entrust.js -->
<g id="edge62" class="edge">
<title>string.js&#45;&gt;entrust/entrust.js</title>
<path fill="none" stroke="#242424" d="M75.1626,-399.2986C85.5834,-380.043 98.472,-357.7347 111.696,-338.5677 137.6779,-300.9091 148.8906,-295.1132 177.696,-259.5677 190.1415,-244.2102 203.2853,-227.7065 215.8476,-211.7893"/>
<polygon fill="#242424" stroke="#242424" points="218.917,-213.549 222.3571,-203.5282 213.4188,-209.2165 218.917,-213.549"/>
</g>
<!-- ternary.js&#45;&gt;katsu&#45;curry/katsu&#45;curry.js -->
<g id="edge63" class="edge">
<title>ternary.js&#45;&gt;katsu&#45;curry/katsu&#45;curry.js</title>
<path fill="none" stroke="#242424" d="M1294.115,-668.627C1308.8109,-636.0134 1326.7368,-592.4035 1337.696,-552.149 1362.905,-459.5529 1378.4744,-352.5704 1387.7062,-269.4446"/>
<polygon fill="#242424" stroke="#242424" points="1391.1936,-269.7493 1388.8008,-259.4282 1384.2351,-268.9887 1391.1936,-269.7493"/>
</g>
<!-- triplet.js&#45;&gt;katsu&#45;curry/katsu&#45;curry.js -->
<g id="edge64" class="edge">
<title>triplet.js&#45;&gt;katsu&#45;curry/katsu&#45;curry.js</title>
<path fill="none" stroke="#242424" d="M1994.3906,-942.2842C2005.0793,-800.7873 2025.2293,-433.6279 1955.696,-338.5677 1904.8551,-269.0622 1683.6484,-201.3719 1536.0444,-162.7194"/>
<polygon fill="#242424" stroke="#242424" points="1536.5487,-159.2341 1525.9894,-160.1013 1534.7848,-166.0082 1536.5487,-159.2341"/>
</g>
<!-- types.js&#45;&gt;katsu&#45;curry/katsu&#45;curry.js -->
<g id="edge65" class="edge">
<title>types.js&#45;&gt;katsu&#45;curry/katsu&#45;curry.js</title>
<path fill="none" stroke="#242424" d="M1463.7904,-399.4711C1455.4285,-364.2872 1443.4319,-313.8096 1432.0741,-266.02"/>
<polygon fill="#242424" stroke="#242424" points="1435.4546,-265.1067 1429.7372,-256.187 1428.6443,-266.7253 1435.4546,-265.1067"/>
</g>
<!-- which.js&#45;&gt;katsu&#45;curry/katsu&#45;curry.js -->
<g id="edge68" class="edge">
<title>which.js&#45;&gt;katsu&#45;curry/katsu&#45;curry.js</title>
<path fill="none" stroke="#242424" d="M2297.0305,-1278.5437C2322.1979,-1198.9359 2366.2786,-1027.4555 2332.696,-886.9412 2269.1783,-621.175 2262.7918,-515.6617 2054.696,-338.5677 1907.1271,-212.9835 1683.2908,-162.7155 1539.2761,-142.7438"/>
<polygon fill="#242424" stroke="#242424" points="1539.4266,-139.2322 1529.0471,-141.3575 1538.4865,-146.1688 1539.4266,-139.2322"/>
</g>
<!-- which.js&#45;&gt;flip.js -->
<g id="edge69" class="edge">
<title>which.js&#45;&gt;flip.js</title>
<path fill="none" stroke="#242424" d="M2324.8886,-1304.0519C2392.2469,-1272.4367 2522.8483,-1203.2307 2602.696,-1109.7198 2617.8383,-1091.9865 2629.3647,-1069.0121 2637.5951,-1048.5383"/>
<polygon fill="#242424" stroke="#242424" points="2640.9293,-1049.6195 2641.2588,-1039.0298 2634.3974,-1047.1027 2640.9293,-1049.6195"/>
</g>
<!-- which.js&#45;&gt;triplet.js -->
<g id="edge70" class="edge">
<title>which.js&#45;&gt;triplet.js</title>
<path fill="none" stroke="#242424" d="M2250.1694,-1288.0375C2198.0911,-1230.1143 2093.937,-1114.2707 2034.3196,-1047.9623"/>
<polygon fill="#242424" stroke="#242424" points="2036.5651,-1045.225 2027.2765,-1040.1287 2031.3597,-1049.9051 2036.5651,-1045.225"/>
</g>
<!-- fast.js/array/every.js -->
<g id="node36" class="node">
<title>fast.js/array/every.js</title>
<ellipse fill="none" stroke="#0c821d" stroke-width="4" cx="2212.696" cy="-998.3305" rx="111.2787" ry="111.2787"/>
<text text-anchor="middle" x="2212.696" y="-995.9305" font-family="Fira Code" font-size="12.00" fill="#0c821d">fast.js/array/every.js</text>
</g>
<!-- which.js&#45;&gt;fast.js/array/every.js -->
<g id="edge66" class="edge">
<title>which.js&#45;&gt;fast.js/array/every.js</title>
<path fill="none" stroke="#242424" d="M2271.8833,-1276.9153C2263.0734,-1235.4488 2249.7534,-1172.7535 2237.979,-1117.3334"/>
<polygon fill="#242424" stroke="#242424" points="2241.378,-1116.49 2235.8761,-1107.4357 2234.5308,-1117.9448 2241.378,-1116.49"/>
</g>
<!-- fast.js/array/some.js -->
<g id="node37" class="node">
<title>fast.js/array/some.js</title>
<ellipse fill="none" stroke="#0c821d" stroke-width="4" cx="2486.696" cy="-998.3305" rx="106.5817" ry="106.5817"/>
<text text-anchor="middle" x="2486.696" y="-995.9305" font-family="Fira Code" font-size="12.00" fill="#0c821d">fast.js/array/some.js</text>
</g>
<!-- which.js&#45;&gt;fast.js/array/some.js -->
<g id="edge67" class="edge">
<title>which.js&#45;&gt;fast.js/array/some.js</title>
<path fill="none" stroke="#242424" d="M2306.833,-1283.2789C2335.8331,-1237.3355 2384.5861,-1160.0984 2424.0239,-1097.6189"/>
<polygon fill="#242424" stroke="#242424" points="2427.1459,-1099.23 2429.524,-1088.9055 2421.2265,-1095.4936 2427.1459,-1099.23"/>
</g>
</g>
</svg>
