<?xml version="1.0" encoding="UTF-8" standalone="no"?>
<!DOCTYPE svg PUBLIC "-//W3C//DTD SVG 1.1//EN"
 "http://www.w3.org/Graphics/SVG/1.1/DTD/svg11.dtd">
<!-- Generated by graphviz version 2.40.1 (20161225.0304)
 -->
<!-- Title: G Pages: 1 -->
<svg width="2980pt" height="1610pt"
 viewBox="0.00 0.00 2979.78 1609.70" xmlns="http://www.w3.org/2000/svg" xmlns:xlink="http://www.w3.org/1999/xlink">
<g id="graph0" class="graph" transform="scale(1 1) rotate(0) translate(7.992 1601.7043)">
<title>G</title>
<polygon fill="#eeeeff" stroke="transparent" points="-7.992,7.992 -7.992,-1601.7043 2971.791,-1601.7043 2971.791,7.992 -7.992,7.992"/>
<!-- ../f&#45;utility.js -->
<g id="node1" class="node">
<title>../f&#45;utility.js</title>
<ellipse fill="none" stroke="#242424" stroke-width="4" cx="420.3893" cy="-426.9638" rx="79.3981" ry="79.3981"/>
<text text-anchor="middle" x="420.3893" y="-424.5638" font-family="Fira Code" font-size="12.00" fill="#242424">../f&#45;utility.js</text>
</g>
<!-- entrust/entrust.js -->
<g id="node2" class="node">
<title>entrust/entrust.js</title>
<ellipse fill="none" stroke="#0c821d" stroke-width="4" cx="797.3893" cy="-129.7839" rx="92.9895" ry="92.9895"/>
<text text-anchor="middle" x="797.3893" y="-127.3839" font-family="Fira Code" font-size="12.00" fill="#0c821d">entrust/entrust.js</text>
</g>
<!-- ../f&#45;utility.js&#45;&gt;entrust/entrust.js -->
<g id="edge1" class="edge">
<title>../f&#45;utility.js&#45;&gt;entrust/entrust.js</title>
<path fill="none" stroke="#242424" d="M473.3133,-367.2928C484.2534,-356.9035 496.1838,-346.8052 508.3893,-338.5677 583.1743,-288.0954 623.6847,-314.3281 695.3893,-259.5677 711.6348,-247.1611 726.7459,-231.5927 740.0937,-215.5876"/>
<polygon fill="#242424" stroke="#242424" points="742.9081,-217.6741 746.5018,-207.7074 737.4771,-213.2577 742.9081,-217.6741"/>
</g>
<!-- f&#45;utility/f&#45;utility.js -->
<g id="node3" class="node">
<title>f&#45;utility/f&#45;utility.js</title>
<ellipse fill="none" stroke="#0c821d" stroke-width="4" cx="111.3893" cy="-129.7839" rx="111.2787" ry="111.2787"/>
<text text-anchor="middle" x="111.3893" y="-127.3839" font-family="Fira Code" font-size="12.00" fill="#0c821d">f&#45;utility/f&#45;utility.js</text>
</g>
<!-- ../f&#45;utility.js&#45;&gt;f&#45;utility/f&#45;utility.js -->
<g id="edge2" class="edge">
<title>../f&#45;utility.js&#45;&gt;f&#45;utility/f&#45;utility.js</title>
<path fill="none" stroke="#242424" d="M359.4202,-375.6744C321.6938,-343.2805 272.7366,-300.0398 231.3893,-259.5677 218.7144,-247.1611 205.6461,-233.7412 193.008,-220.3981"/>
<polygon fill="#242424" stroke="#242424" points="195.4419,-217.8773 186.0364,-213 190.3474,-222.6781 195.4419,-217.8773"/>
</g>
<!-- fantasy&#45;land/index.js -->
<g id="node4" class="node">
<title>fantasy&#45;land/index.js</title>
<ellipse fill="none" stroke="#0c821d" stroke-width="4" cx="579.3893" cy="-129.7839" rx="106.5817" ry="106.5817"/>
<text text-anchor="middle" x="579.3893" y="-127.3839" font-family="Fira Code" font-size="12.00" fill="#0c821d">fantasy&#45;land/index.js</text>
</g>
<!-- ../f&#45;utility.js&#45;&gt;fantasy&#45;land/index.js -->
<g id="edge3" class="edge">
<title>../f&#45;utility.js&#45;&gt;fantasy&#45;land/index.js</title>
<path fill="none" stroke="#242424" d="M457.8687,-356.9126C477.6273,-319.9827 502.2456,-273.9698 524.1473,-233.0342"/>
<polygon fill="#242424" stroke="#242424" points="527.2901,-234.5794 528.9216,-224.1109 521.1179,-231.2771 527.2901,-234.5794"/>
</g>
<!-- flatmap&#45;fast/index.js -->
<g id="node5" class="node">
<title>flatmap&#45;fast/index.js</title>
<ellipse fill="none" stroke="#0c821d" stroke-width="4" cx="347.3893" cy="-129.7839" rx="106.5817" ry="106.5817"/>
<text text-anchor="middle" x="347.3893" y="-127.3839" font-family="Fira Code" font-size="12.00" fill="#0c821d">flatmap&#45;fast/index.js</text>
</g>
<!-- ../f&#45;utility.js&#45;&gt;flatmap&#45;fast/index.js -->
<g id="edge4" class="edge">
<title>../f&#45;utility.js&#45;&gt;flatmap&#45;fast/index.js</title>
<path fill="none" stroke="#242424" d="M401.495,-350.0461C393.5211,-317.5844 384.0729,-279.1215 375.3213,-243.494"/>
<polygon fill="#242424" stroke="#242424" points="378.6577,-242.4041 372.8732,-233.5278 371.8598,-244.0741 378.6577,-242.4041"/>
</g>
<!-- katsu&#45;curry/katsu&#45;curry.js -->
<g id="node6" class="node">
<title>katsu&#45;curry/katsu&#45;curry.js</title>
<ellipse fill="none" stroke="#0c821d" stroke-width="4" cx="1760.3893" cy="-129.7839" rx="129.5681" ry="129.5681"/>
<text text-anchor="middle" x="1760.3893" y="-127.3839" font-family="Fira Code" font-size="12.00" fill="#0c821d">katsu&#45;curry/katsu&#45;curry.js</text>
</g>
<!-- ../f&#45;utility.js&#45;&gt;katsu&#45;curry/katsu&#45;curry.js -->
<g id="edge5" class="edge">
<title>../f&#45;utility.js&#45;&gt;katsu&#45;curry/katsu&#45;curry.js</title>
<path fill="none" stroke="#242424" d="M470.7812,-365.5247C482.1119,-355.035 494.8338,-345.3518 508.3893,-338.5677 732.7712,-226.2726 819.7924,-300.2273 1067.3893,-259.5677 1260.8363,-227.8005 1483.4705,-184.9852 1623.0594,-157.3787"/>
<polygon fill="#242424" stroke="#242424" points="1623.8349,-160.7932 1632.9647,-155.4177 1622.4754,-153.9265 1623.8349,-160.7932"/>
</g>
<!-- ../package.json -->
<g id="node7" class="node">
<title>../package.json</title>
<ellipse fill="none" stroke="#0c821d" stroke-width="4" cx="521.3893" cy="-1286.3132" rx="79.3981" ry="79.3981"/>
<text text-anchor="middle" x="521.3893" y="-1283.9132" font-family="Fira Code" font-size="12.00" fill="#0c821d">../package.json</text>
</g>
<!-- array.js -->
<g id="node8" class="node">
<title>array.js</title>
<ellipse fill="none" stroke="#242424" stroke-width="4" cx="891.3893" cy="-961.5414" rx="47.0167" ry="47.0167"/>
<text text-anchor="middle" x="891.3893" y="-959.1414" font-family="Fira Code" font-size="12.00" fill="#242424">array.js</text>
</g>
<!-- array.js&#45;&gt;entrust/entrust.js -->
<g id="edge6" class="edge">
<title>array.js&#45;&gt;entrust/entrust.js</title>
<path fill="none" stroke="#242424" d="M890.1819,-914.3901C886.9974,-810.0684 876.2945,-552.037 844.3893,-338.5677 839.0532,-302.8655 830.9976,-264.1897 823.0553,-229.9401"/>
<polygon fill="#242424" stroke="#242424" points="826.3996,-228.871 820.7093,-219.934 819.5844,-230.4689 826.3996,-228.871"/>
</g>
<!-- array.js&#45;&gt;katsu&#45;curry/katsu&#45;curry.js -->
<g id="edge7" class="edge">
<title>array.js&#45;&gt;katsu&#45;curry/katsu&#45;curry.js</title>
<path fill="none" stroke="#242424" d="M890.3967,-914.1653C887.9475,-776.368 884.2162,-382.6784 920.3893,-338.5677 965.105,-284.0398 1395.8645,-197.2252 1622.5012,-154.7882"/>
<polygon fill="#242424" stroke="#242424" points="1623.2846,-158.2025 1632.4716,-152.9252 1621.9989,-151.3215 1623.2846,-158.2025"/>
</g>
<!-- filter.js -->
<g id="node9" class="node">
<title>filter.js</title>
<ellipse fill="none" stroke="#242424" stroke-width="4" cx="1009.3893" cy="-682.756" rx="51.7142" ry="51.7142"/>
<text text-anchor="middle" x="1009.3893" y="-680.356" font-family="Fira Code" font-size="12.00" fill="#242424">filter.js</text>
</g>
<!-- array.js&#45;&gt;filter.js -->
<g id="edge8" class="edge">
<title>array.js&#45;&gt;filter.js</title>
<path fill="none" stroke="#242424" d="M909.8268,-917.9812C930.1279,-870.018 962.8474,-792.7153 985.196,-739.9149"/>
<polygon fill="#242424" stroke="#242424" points="988.4296,-741.2543 989.1044,-730.6809 981.9833,-738.5257 988.4296,-741.2543"/>
</g>
<!-- delegate&#45;fast.js -->
<g id="node11" class="node">
<title>delegate&#45;fast.js</title>
<ellipse fill="none" stroke="#242424" stroke-width="4" cx="1207.3893" cy="-426.9638" rx="83.5954" ry="83.5954"/>
<text text-anchor="middle" x="1207.3893" y="-424.5638" font-family="Fira Code" font-size="12.00" fill="#242424">delegate&#45;fast.js</text>
</g>
<!-- filter.js&#45;&gt;delegate&#45;fast.js -->
<g id="edge15" class="edge">
<title>filter.js&#45;&gt;delegate&#45;fast.js</title>
<path fill="none" stroke="#242424" d="M1040.0556,-641.2133C1051.1082,-626.3659 1063.7296,-609.554 1075.3893,-594.3599 1099.0737,-563.496 1125.5636,-529.7547 1148.5616,-500.7029"/>
<polygon fill="#242424" stroke="#242424" points="1151.4835,-502.651 1154.9504,-492.6394 1145.9969,-498.3039 1151.4835,-502.651"/>
</g>
<!-- fast.js/filter.js -->
<g id="node13" class="node">
<title>fast.js/filter.js</title>
<ellipse fill="none" stroke="#0c821d" stroke-width="4" cx="1017.3893" cy="-426.9638" rx="88.2923" ry="88.2923"/>
<text text-anchor="middle" x="1017.3893" y="-424.5638" font-family="Fira Code" font-size="12.00" fill="#0c821d">fast.js/filter.js</text>
</g>
<!-- filter.js&#45;&gt;fast.js/filter.js -->
<g id="edge14" class="edge">
<title>filter.js&#45;&gt;fast.js/filter.js</title>
<path fill="none" stroke="#242424" d="M1011.0082,-630.9926C1011.9556,-600.7023 1013.1831,-561.4543 1014.3081,-525.4836"/>
<polygon fill="#242424" stroke="#242424" points="1017.8079,-525.5397 1014.6223,-515.4351 1010.8113,-525.3208 1017.8079,-525.5397"/>
</g>
<!-- chain.js -->
<g id="node10" class="node">
<title>chain.js</title>
<ellipse fill="none" stroke="#242424" stroke-width="4" cx="703.3893" cy="-682.756" rx="47.0167" ry="47.0167"/>
<text text-anchor="middle" x="703.3893" y="-680.356" font-family="Fira Code" font-size="12.00" fill="#242424">chain.js</text>
</g>
<!-- chain.js&#45;&gt;flatmap&#45;fast/index.js -->
<g id="edge9" class="edge">
<title>chain.js&#45;&gt;flatmap&#45;fast/index.js</title>
<path fill="none" stroke="#242424" d="M656.6511,-677.6026C574.3111,-665.7212 405.2317,-628.1404 332.3893,-515.3599 280.2619,-434.6519 291.2495,-323.3569 310.9946,-241.0779"/>
<polygon fill="#242424" stroke="#242424" points="314.4363,-241.7398 313.4423,-231.1917 307.6415,-240.0574 314.4363,-241.7398"/>
</g>
<!-- chain.js&#45;&gt;delegate&#45;fast.js -->
<g id="edge10" class="edge">
<title>chain.js&#45;&gt;delegate&#45;fast.js</title>
<path fill="none" stroke="#242424" d="M747.9543,-666.993C840.5563,-633.8556 1050.4754,-556.6339 1114.3893,-515.3599 1123.7969,-509.2847 1133.0962,-502.1866 1141.9668,-494.7016"/>
<polygon fill="#242424" stroke="#242424" points="1144.3846,-497.2376 1149.6438,-488.0403 1139.7969,-491.9505 1144.3846,-497.2376"/>
</g>
<!-- delegate&#45;fast.js&#45;&gt;entrust/entrust.js -->
<g id="edge12" class="edge">
<title>delegate&#45;fast.js&#45;&gt;entrust/entrust.js</title>
<path fill="none" stroke="#242424" d="M1150.1248,-365.7612C1138.9206,-355.8168 1126.7815,-346.2694 1114.3893,-338.5677 1027.9255,-284.8308 981.7432,-319.4133 899.3893,-259.5677 882.8532,-247.5512 867.6134,-232.1555 854.2313,-216.1965"/>
<polygon fill="#242424" stroke="#242424" points="856.8467,-213.8656 847.8135,-208.3292 851.4225,-218.2904 856.8467,-213.8656"/>
</g>
<!-- delegate&#45;fast.js&#45;&gt;katsu&#45;curry/katsu&#45;curry.js -->
<g id="edge13" class="edge">
<title>delegate&#45;fast.js&#45;&gt;katsu&#45;curry/katsu&#45;curry.js</title>
<path fill="none" stroke="#242424" d="M1266.9951,-368.0535C1279.1676,-357.5359 1292.2786,-347.1961 1305.3893,-338.5677 1407.5159,-271.3564 1534.7892,-214.9691 1628.7377,-177.8041"/>
<polygon fill="#242424" stroke="#242424" points="1630.2726,-180.9614 1638.297,-174.0433 1627.7099,-174.4474 1630.2726,-180.9614"/>
</g>
<!-- choice.js -->
<g id="node12" class="node">
<title>choice.js</title>
<ellipse fill="none" stroke="#242424" stroke-width="4" cx="1990.3893" cy="-682.756" rx="51.7142" ry="51.7142"/>
<text text-anchor="middle" x="1990.3893" y="-680.356" font-family="Fira Code" font-size="12.00" fill="#242424">choice.js</text>
</g>
<!-- choice.js&#45;&gt;katsu&#45;curry/katsu&#45;curry.js -->
<g id="edge11" class="edge">
<title>choice.js&#45;&gt;katsu&#45;curry/katsu&#45;curry.js</title>
<path fill="none" stroke="#242424" d="M1988.0725,-631.1786C1983.3003,-561.7929 1968.7375,-435.8704 1924.3893,-338.5677 1907.2514,-300.966 1882.0035,-264.095 1856.4278,-232.0544"/>
<polygon fill="#242424" stroke="#242424" points="1858.9342,-229.5877 1849.9232,-224.0151 1853.4923,-233.9907 1858.9342,-229.5877"/>
</g>
<!-- flip.js -->
<g id="node14" class="node">
<title>flip.js</title>
<ellipse fill="none" stroke="#242424" stroke-width="4" cx="2921.3893" cy="-961.5414" rx="42.3196" ry="42.3196"/>
<text text-anchor="middle" x="2921.3893" y="-959.1414" font-family="Fira Code" font-size="12.00" fill="#242424">flip.js</text>
</g>
<!-- flip.js&#45;&gt;katsu&#45;curry/katsu&#45;curry.js -->
<g id="edge16" class="edge">
<title>flip.js&#45;&gt;katsu&#45;curry/katsu&#45;curry.js</title>
<path fill="none" stroke="#242424" d="M2926.9414,-919.2488C2939.1273,-806.6288 2955.1882,-497.2512 2790.3893,-338.5677 2664.6437,-217.4883 2151.431,-160.7667 1900.2292,-139.8393"/>
<polygon fill="#242424" stroke="#242424" points="1900.19,-136.3243 1889.9359,-138.9897 1899.614,-143.3006 1900.19,-136.3243"/>
</g>
<!-- future.js -->
<g id="node15" class="node">
<title>future.js</title>
<ellipse fill="none" stroke="#242424" stroke-width="4" cx="569.3893" cy="-426.9638" rx="51.7142" ry="51.7142"/>
<text text-anchor="middle" x="569.3893" y="-424.5638" font-family="Fira Code" font-size="12.00" fill="#242424">future.js</text>
</g>
<!-- future.js&#45;&gt;entrust/entrust.js -->
<g id="edge17" class="edge">
<title>future.js&#45;&gt;entrust/entrust.js</title>
<path fill="none" stroke="#242424" d="M597.5379,-383.6469C607.3184,-369.1021 618.5563,-352.9322 629.3893,-338.5677 656.9375,-302.0392 666.5839,-295.1132 695.3893,-259.5677 707.8348,-244.2102 720.9786,-227.7065 733.5409,-211.7893"/>
<polygon fill="#242424" stroke="#242424" points="736.6103,-213.549 740.0504,-203.5282 731.1121,-209.2165 736.6103,-213.549"/>
</g>
<!-- index.js -->
<g id="node16" class="node">
<title>index.js</title>
<ellipse fill="none" stroke="#242424" stroke-width="4" cx="1526.3893" cy="-1546.704" rx="47.0167" ry="47.0167"/>
<text text-anchor="middle" x="1526.3893" y="-1544.304" font-family="Fira Code" font-size="12.00" fill="#242424">index.js</text>
</g>
<!-- index.js&#45;&gt;katsu&#45;curry/katsu&#45;curry.js -->
<g id="edge18" class="edge">
<title>index.js&#45;&gt;katsu&#45;curry/katsu&#45;curry.js</title>
<path fill="none" stroke="#242424" d="M1573.3168,-1543.5498C1645.7892,-1535.9075 1783.3598,-1509.7952 1848.3893,-1420.6957 1883.859,-1372.0973 1908.0267,-396.3873 1891.3893,-338.5677 1881.6426,-304.6952 1864.6061,-271.0054 1845.9799,-240.8874"/>
<polygon fill="#242424" stroke="#242424" points="1848.7178,-238.6675 1840.423,-232.076 1842.7969,-242.4015 1848.7178,-238.6675"/>
</g>
<!-- index.js&#45;&gt;../package.json -->
<g id="edge20" class="edge">
<title>index.js&#45;&gt;../package.json</title>
<path fill="none" stroke="#242424" d="M1479.3396,-1545.1362C1314.0539,-1538.8838 762.0287,-1511.4907 614.3893,-1420.6957 592.9355,-1407.5021 575.1779,-1387.3003 561.1327,-1366.537"/>
<polygon fill="#242424" stroke="#242424" points="563.9263,-1364.4128 555.5388,-1357.9397 558.059,-1368.2304 563.9263,-1364.4128"/>
</g>
<!-- index.js&#45;&gt;array.js -->
<g id="edge21" class="edge">
<title>index.js&#45;&gt;array.js</title>
<path fill="none" stroke="#242424" d="M1479.3316,-1544.4148C1347.7071,-1536.9462 980.5519,-1508.4819 906.3893,-1420.6957 809.2037,-1305.6572 847.2203,-1110.5324 873.8668,-1016.0417"/>
<polygon fill="#242424" stroke="#242424" points="877.2405,-1016.9742 876.6466,-1006.396 870.5142,-1015.0357 877.2405,-1016.9742"/>
</g>
<!-- index.js&#45;&gt;filter.js -->
<g id="edge24" class="edge">
<title>index.js&#45;&gt;filter.js</title>
<path fill="none" stroke="#242424" d="M1479.4039,-1543.9676C1352.4512,-1535.4978 1007.523,-1505.0075 939.3893,-1420.6957 864.3099,-1327.789 930.5517,-1271.0544 939.3893,-1151.9307 945.1887,-1073.7598 981.0683,-852.4235 999.0867,-744.0577"/>
<polygon fill="#242424" stroke="#242424" points="1002.5826,-744.3711 1000.773,-733.932 995.6777,-743.2211 1002.5826,-744.3711"/>
</g>
<!-- index.js&#45;&gt;chain.js -->
<g id="edge22" class="edge">
<title>index.js&#45;&gt;chain.js</title>
<path fill="none" stroke="#242424" d="M1479.4374,-1542.2825C1321.0264,-1526.9177 813.4066,-1473.8751 764.3893,-1420.6957 586.7428,-1227.9652 653.3814,-874.1166 687.8653,-738.0655"/>
<polygon fill="#242424" stroke="#242424" points="691.2843,-738.8236 690.3895,-728.2666 684.5055,-737.0774 691.2843,-738.8236"/>
</g>
<!-- index.js&#45;&gt;choice.js -->
<g id="edge23" class="edge">
<title>index.js&#45;&gt;choice.js</title>
<path fill="none" stroke="#242424" d="M1573.3899,-1541.7503C1684.695,-1528.9522 1959.1247,-1490.788 2013.3893,-1420.6957 2054.2675,-1367.8943 2013.3549,-912.085 1996.7223,-744.361"/>
<polygon fill="#242424" stroke="#242424" points="2000.1853,-743.8146 1995.7105,-734.2112 1993.2198,-744.5091 2000.1853,-743.8146"/>
</g>
<!-- index.js&#45;&gt;flip.js -->
<g id="edge25" class="edge">
<title>index.js&#45;&gt;flip.js</title>
<path fill="none" stroke="#242424" d="M1573.5306,-1544.8491C1788.0282,-1536.018 2665.4767,-1495.5289 2760.3893,-1420.6957 2887.754,-1320.2759 2914.634,-1112.204 2920.1138,-1014.45"/>
<polygon fill="#242424" stroke="#242424" points="2923.6218,-1014.3783 2920.6314,-1004.2142 2916.6307,-1014.0247 2923.6218,-1014.3783"/>
</g>
<!-- index.js&#45;&gt;future.js -->
<g id="edge26" class="edge">
<title>index.js&#45;&gt;future.js</title>
<path fill="none" stroke="#242424" d="M1479.4492,-1543.3488C1305.814,-1530.4877 706.955,-1481.9687 649.3893,-1420.6957 617.3421,-1386.5846 582.3293,-700.4957 572.2481,-488.692"/>
<polygon fill="#242424" stroke="#242424" points="575.7428,-488.4953 571.773,-478.6724 568.7507,-488.827 575.7428,-488.4953"/>
</g>
<!-- katsu&#45;curry/utils/length.js -->
<g id="node17" class="node">
<title>katsu&#45;curry/utils/length.js</title>
<ellipse fill="none" stroke="#0c821d" stroke-width="4" cx="1082.3893" cy="-1286.3132" rx="134.2651" ry="134.2651"/>
<text text-anchor="middle" x="1082.3893" y="-1283.9132" font-family="Fira Code" font-size="12.00" fill="#0c821d">katsu&#45;curry/utils/length.js</text>
</g>
<!-- index.js&#45;&gt;katsu&#45;curry/utils/length.js -->
<g id="edge19" class="edge">
<title>index.js&#45;&gt;katsu&#45;curry/utils/length.js</title>
<path fill="none" stroke="#242424" d="M1481.0844,-1533.3742C1419.9406,-1514.1652 1309.0402,-1474.9531 1225.3893,-1420.6957 1211.2924,-1411.5522 1197.3195,-1400.9439 1183.946,-1389.7747"/>
<polygon fill="#242424" stroke="#242424" points="1186.0301,-1386.9525 1176.1448,-1383.1404 1181.4953,-1392.285 1186.0301,-1386.9525"/>
</g>
<!-- invert.js -->
<g id="node18" class="node">
<title>invert.js</title>
<ellipse fill="none" stroke="#242424" stroke-width="4" cx="303.3893" cy="-682.756" rx="51.7142" ry="51.7142"/>
<text text-anchor="middle" x="303.3893" y="-680.356" font-family="Fira Code" font-size="12.00" fill="#242424">invert.js</text>
</g>
<!-- index.js&#45;&gt;invert.js -->
<g id="edge27" class="edge">
<title>index.js&#45;&gt;invert.js</title>
<path fill="none" stroke="#242424" d="M1479.1106,-1544.5384C1279.2878,-1534.9517 510.7255,-1493.555 433.3893,-1420.6957 242.4065,-1240.7688 271.6722,-886.2678 292.6783,-743.9827"/>
<polygon fill="#242424" stroke="#242424" points="296.1978,-744.1171 294.2362,-733.7054 289.2769,-743.0679 296.1978,-744.1171"/>
</g>
<!-- iterate.js -->
<g id="node19" class="node">
<title>iterate.js</title>
<ellipse fill="none" stroke="#242424" stroke-width="4" cx="1211.3893" cy="-682.756" rx="56.412" ry="56.412"/>
<text text-anchor="middle" x="1211.3893" y="-680.356" font-family="Fira Code" font-size="12.00" fill="#242424">iterate.js</text>
</g>
<!-- index.js&#45;&gt;iterate.js -->
<g id="edge28" class="edge">
<title>index.js&#45;&gt;iterate.js</title>
<path fill="none" stroke="#242424" d="M1504.885,-1504.8486C1493.3577,-1480.795 1479.8291,-1449.6872 1471.3893,-1420.6957 1437.5962,-1304.6137 1468.7487,-1266.2454 1429.3893,-1151.9307 1416.3055,-1113.9304 1398.7375,-1110.839 1385.3893,-1072.9307 1352.0293,-978.1897 1391.1265,-940.5723 1347.3893,-850.1521 1326.8331,-807.6552 1306.1859,-807.7677 1276.3893,-771.1521 1267.585,-760.3329 1258.4992,-748.4706 1250.0133,-737.0473"/>
<polygon fill="#242424" stroke="#242424" points="1252.7046,-734.7995 1243.9529,-728.828 1247.0705,-738.9538 1252.7046,-734.7995"/>
</g>
<!-- map.js -->
<g id="node20" class="node">
<title>map.js</title>
<ellipse fill="none" stroke="#242424" stroke-width="4" cx="797.3893" cy="-426.9638" rx="37.623" ry="37.623"/>
<text text-anchor="middle" x="797.3893" y="-424.5638" font-family="Fira Code" font-size="12.00" fill="#242424">map.js</text>
</g>
<!-- index.js&#45;&gt;map.js -->
<g id="edge29" class="edge">
<title>index.js&#45;&gt;map.js</title>
<path fill="none" stroke="#242424" d="M1479.0313,-1545.3611C1337.8523,-1540.2846 924.4577,-1517.2872 840.3893,-1420.6957 809.0453,-1384.6825 799.7645,-669.1055 797.8198,-475.1154"/>
<polygon fill="#242424" stroke="#242424" points="801.318,-474.9101 797.7198,-464.945 794.3184,-474.979 801.318,-474.9101"/>
</g>
<!-- math.js -->
<g id="node21" class="node">
<title>math.js</title>
<ellipse fill="none" stroke="#242424" stroke-width="4" cx="2140.3893" cy="-961.5414" rx="42.3196" ry="42.3196"/>
<text text-anchor="middle" x="2140.3893" y="-959.1414" font-family="Fira Code" font-size="12.00" fill="#242424">math.js</text>
</g>
<!-- index.js&#45;&gt;math.js -->
<g id="edge30" class="edge">
<title>index.js&#45;&gt;math.js</title>
<path fill="none" stroke="#242424" d="M1573.6404,-1544.648C1706.7082,-1537.7722 2079.6954,-1510.6733 2153.3893,-1420.6957 2203.2575,-1359.8083 2168.498,-1119.8535 2149.9655,-1013.1593"/>
<polygon fill="#242424" stroke="#242424" points="2153.404,-1012.5038 2148.2261,-1003.2605 2146.5097,-1013.7154 2153.404,-1012.5038"/>
</g>
<!-- object.js -->
<g id="node22" class="node">
<title>object.js</title>
<ellipse fill="none" stroke="#242424" stroke-width="4" cx="2199.3893" cy="-426.9638" rx="51.7142" ry="51.7142"/>
<text text-anchor="middle" x="2199.3893" y="-424.5638" font-family="Fira Code" font-size="12.00" fill="#242424">object.js</text>
</g>
<!-- index.js&#45;&gt;object.js -->
<g id="edge31" class="edge">
<title>index.js&#45;&gt;object.js</title>
<path fill="none" stroke="#242424" d="M1573.4571,-1544.9309C1709.8127,-1538.7265 2100.4239,-1513.0637 2179.3893,-1420.6957 2239.761,-1350.0772 2212.7099,-694.9833 2202.6009,-488.7921"/>
<polygon fill="#242424" stroke="#242424" points="2206.0935,-488.5531 2202.1039,-478.7382 2199.102,-488.8988 2206.0935,-488.5531"/>
</g>
<!-- path.js -->
<g id="node23" class="node">
<title>path.js</title>
<ellipse fill="none" stroke="#242424" stroke-width="4" cx="2102.3893" cy="-1286.3132" rx="42.3196" ry="42.3196"/>
<text text-anchor="middle" x="2102.3893" y="-1283.9132" font-family="Fira Code" font-size="12.00" fill="#242424">path.js</text>
</g>
<!-- index.js&#45;&gt;path.js -->
<g id="edge32" class="edge">
<title>index.js&#45;&gt;path.js</title>
<path fill="none" stroke="#242424" d="M1573.1204,-1540.8355C1686.9148,-1525.7102 1974.3416,-1482.2292 2046.3893,-1420.6957 2070.8884,-1399.7719 2084.8741,-1366.367 2092.7422,-1338.0983"/>
<polygon fill="#242424" stroke="#242424" points="2096.1497,-1338.9012 2095.2773,-1328.3424 2089.3747,-1337.1407 2096.1497,-1338.9012"/>
</g>
<!-- random&#45;floor.js -->
<g id="node24" class="node">
<title>random&#45;floor.js</title>
<ellipse fill="none" stroke="#242424" stroke-width="4" cx="1364.3893" cy="-682.756" rx="79.3981" ry="79.3981"/>
<text text-anchor="middle" x="1364.3893" y="-680.356" font-family="Fira Code" font-size="12.00" fill="#242424">random&#45;floor.js</text>
</g>
<!-- index.js&#45;&gt;random&#45;floor.js -->
<g id="edge33" class="edge">
<title>index.js&#45;&gt;random&#45;floor.js</title>
<path fill="none" stroke="#242424" d="M1529.1592,-1499.2897C1536.52,-1362.4133 1553.0353,-968.8521 1507.3893,-850.1521 1502.6753,-837.8936 1461.8024,-790.545 1424.9565,-749.3195"/>
<polygon fill="#242424" stroke="#242424" points="1427.4126,-746.8157 1418.1331,-741.7028 1422.1988,-751.4865 1427.4126,-746.8157"/>
</g>
<!-- random&#45;shuffle.js -->
<g id="node25" class="node">
<title>random&#45;shuffle.js</title>
<ellipse fill="none" stroke="#0c821d" stroke-width="4" cx="1718.3893" cy="-1286.3132" rx="88.2923" ry="88.2923"/>
<text text-anchor="middle" x="1718.3893" y="-1283.9132" font-family="Fira Code" font-size="12.00" fill="#0c821d">random&#45;shuffle.js</text>
</g>
<!-- index.js&#45;&gt;random&#45;shuffle.js -->
<g id="edge34" class="edge">
<title>index.js&#45;&gt;random&#45;shuffle.js</title>
<path fill="none" stroke="#242424" d="M1554.3077,-1508.841C1581.8367,-1471.5062 1624.7542,-1413.3013 1659.7922,-1365.7827"/>
<polygon fill="#242424" stroke="#242424" points="1662.6719,-1367.7748 1665.7896,-1357.649 1657.0379,-1363.6205 1662.6719,-1367.7748"/>
</g>
<!-- random&#45;take.js -->
<g id="node26" class="node">
<title>random&#45;take.js</title>
<ellipse fill="none" stroke="#242424" stroke-width="4" cx="1263.3893" cy="-961.5414" rx="74.7005" ry="74.7005"/>
<text text-anchor="middle" x="1263.3893" y="-959.1414" font-family="Fira Code" font-size="12.00" fill="#242424">random&#45;take.js</text>
</g>
<!-- index.js&#45;&gt;random&#45;take.js -->
<g id="edge35" class="edge">
<title>index.js&#45;&gt;random&#45;take.js</title>
<path fill="none" stroke="#242424" d="M1494.7527,-1511.8949C1474.8032,-1487.9685 1450.2704,-1454.5196 1436.3893,-1420.6957 1390.4613,-1308.7831 1438.1328,-1264.3221 1393.3893,-1151.9307 1375.4356,-1106.8329 1345.3169,-1061.7354 1318.5886,-1026.7592"/>
<polygon fill="#242424" stroke="#242424" points="1321.1219,-1024.3138 1312.2336,-1018.5476 1315.586,-1028.5981 1321.1219,-1024.3138"/>
</g>
<!-- random&#45;word.js -->
<g id="node27" class="node">
<title>random&#45;word.js</title>
<ellipse fill="none" stroke="#242424" stroke-width="4" cx="1309.3893" cy="-1286.3132" rx="74.7005" ry="74.7005"/>
<text text-anchor="middle" x="1309.3893" y="-1283.9132" font-family="Fira Code" font-size="12.00" fill="#242424">random&#45;word.js</text>
</g>
<!-- index.js&#45;&gt;random&#45;word.js -->
<g id="edge36" class="edge">
<title>index.js&#45;&gt;random&#45;word.js</title>
<path fill="none" stroke="#242424" d="M1491.0012,-1515.6072C1464.1289,-1491.1379 1427.0405,-1455.4738 1398.3893,-1420.6957 1382.5947,-1401.5235 1367.0525,-1379.4893 1353.4868,-1358.8832"/>
<polygon fill="#242424" stroke="#242424" points="1356.3888,-1356.9257 1347.9967,-1350.4586 1350.5242,-1360.7476 1356.3888,-1356.9257"/>
</g>
<!-- random.js -->
<g id="node28" class="node">
<title>random.js</title>
<ellipse fill="none" stroke="#0c821d" stroke-width="4" cx="1952.3893" cy="-1286.3132" rx="51.7142" ry="51.7142"/>
<text text-anchor="middle" x="1952.3893" y="-1283.9132" font-family="Fira Code" font-size="12.00" fill="#0c821d">random.js</text>
</g>
<!-- index.js&#45;&gt;random.js -->
<g id="edge37" class="edge">
<title>index.js&#45;&gt;random.js</title>
<path fill="none" stroke="#242424" d="M1573.2552,-1541.7176C1647.9438,-1531.5064 1794.8585,-1501.8662 1886.3893,-1420.6957 1908.7319,-1400.882 1924.3135,-1371.7862 1934.7025,-1345.7306"/>
<polygon fill="#242424" stroke="#242424" points="1938.0091,-1346.8824 1938.298,-1336.2915 1931.4676,-1344.3906 1938.0091,-1346.8824"/>
</g>
<!-- reduce.js -->
<g id="node29" class="node">
<title>reduce.js</title>
<ellipse fill="none" stroke="#242424" stroke-width="4" cx="1606.3893" cy="-961.5414" rx="51.7142" ry="51.7142"/>
<text text-anchor="middle" x="1606.3893" y="-959.1414" font-family="Fira Code" font-size="12.00" fill="#242424">reduce.js</text>
</g>
<!-- index.js&#45;&gt;reduce.js -->
<g id="edge38" class="edge">
<title>index.js&#45;&gt;reduce.js</title>
<path fill="none" stroke="#242424" d="M1532.8008,-1499.8069C1547.1758,-1394.6607 1581.9756,-1140.1161 1598.0253,-1022.7201"/>
<polygon fill="#242424" stroke="#242424" points="1601.493,-1023.1939 1599.3799,-1012.812 1594.5575,-1022.2457 1601.493,-1023.1939"/>
</g>
<!-- reject.js -->
<g id="node30" class="node">
<title>reject.js</title>
<ellipse fill="none" stroke="#242424" stroke-width="4" cx="1446.3893" cy="-961.5414" rx="51.7142" ry="51.7142"/>
<text text-anchor="middle" x="1446.3893" y="-959.1414" font-family="Fira Code" font-size="12.00" fill="#242424">reject.js</text>
</g>
<!-- index.js&#45;&gt;reject.js -->
<g id="edge39" class="edge">
<title>index.js&#45;&gt;reject.js</title>
<path fill="none" stroke="#242424" d="M1519.9778,-1499.8069C1505.6028,-1394.6607 1470.803,-1140.1161 1454.7533,-1022.7201"/>
<polygon fill="#242424" stroke="#242424" points="1458.2211,-1022.2457 1453.3987,-1012.812 1451.2856,-1023.1939 1458.2211,-1022.2457"/>
</g>
<!-- string.js -->
<g id="node31" class="node">
<title>string.js</title>
<ellipse fill="none" stroke="#242424" stroke-width="4" cx="690.3893" cy="-426.9638" rx="51.7142" ry="51.7142"/>
<text text-anchor="middle" x="690.3893" y="-424.5638" font-family="Fira Code" font-size="12.00" fill="#242424">string.js</text>
</g>
<!-- index.js&#45;&gt;string.js -->
<g id="edge40" class="edge">
<title>index.js&#45;&gt;string.js</title>
<path fill="none" stroke="#242424" d="M1479.3893,-1545.6959C1334.6079,-1541.5315 899.7836,-1520.7647 810.3893,-1420.6957 687.8202,-1283.4904 800.6708,-773.6483 759.3893,-594.3599 750.4341,-555.467 733.3892,-513.9769 718.4818,-482.0327"/>
<polygon fill="#242424" stroke="#242424" points="721.5828,-480.4033 714.1394,-472.8636 715.2564,-483.3994 721.5828,-480.4033"/>
</g>
<!-- ternary.js -->
<g id="node32" class="node">
<title>ternary.js</title>
<ellipse fill="none" stroke="#242424" stroke-width="4" cx="1788.3893" cy="-682.756" rx="56.412" ry="56.412"/>
<text text-anchor="middle" x="1788.3893" y="-680.356" font-family="Fira Code" font-size="12.00" fill="#242424">ternary.js</text>
</g>
<!-- index.js&#45;&gt;ternary.js -->
<g id="edge41" class="edge">
<title>index.js&#45;&gt;ternary.js</title>
<path fill="none" stroke="#242424" d="M1545.5984,-1503.6979C1555.6919,-1479.677 1567.5579,-1448.9716 1575.3893,-1420.6957 1607.7361,-1303.9043 1580.0165,-1265.8378 1621.3893,-1151.9307 1635.26,-1113.7421 1651.045,-1110.1279 1667.3893,-1072.9307 1715.9526,-962.4075 1753.4309,-826.3587 1773.0947,-747.5939"/>
<polygon fill="#242424" stroke="#242424" points="1776.5114,-748.3567 1775.5195,-737.8084 1769.7169,-746.673 1776.5114,-748.3567"/>
</g>
<!-- triplet.js -->
<g id="node33" class="node">
<title>triplet.js</title>
<ellipse fill="none" stroke="#242424" stroke-width="4" cx="2804.3893" cy="-961.5414" rx="56.412" ry="56.412"/>
<text text-anchor="middle" x="2804.3893" y="-959.1414" font-family="Fira Code" font-size="12.00" fill="#242424">triplet.js</text>
</g>
<!-- index.js&#45;&gt;triplet.js -->
<g id="edge42" class="edge">
<title>index.js&#45;&gt;triplet.js</title>
<path fill="none" stroke="#242424" d="M1573.4679,-1544.903C1782.6976,-1536.4744 2621.7343,-1498.0386 2707.3893,-1420.6957 2764.6935,-1368.9524 2790.3149,-1142.1542 2799.7567,-1027.8666"/>
<polygon fill="#242424" stroke="#242424" points="2803.2505,-1028.0836 2800.5678,-1017.834 2796.2732,-1027.5194 2803.2505,-1028.0836"/>
</g>
<!-- types.js -->
<g id="node34" class="node">
<title>types.js</title>
<ellipse fill="none" stroke="#242424" stroke-width="4" cx="1835.3893" cy="-426.9638" rx="47.0167" ry="47.0167"/>
<text text-anchor="middle" x="1835.3893" y="-424.5638" font-family="Fira Code" font-size="12.00" fill="#242424">types.js</text>
</g>
<!-- index.js&#45;&gt;types.js -->
<g id="edge43" class="edge">
<title>index.js&#45;&gt;types.js</title>
<path fill="none" stroke="#242424" d="M1573.3296,-1541.2603C1639.7126,-1530.8087 1759.1828,-1501.2805 1815.3893,-1420.6957 1867.97,-1345.3093 1858.3097,-686.1402 1853.3893,-594.3599 1851.4126,-557.488 1847.0036,-516.2434 1843.0441,-483.9205"/>
<polygon fill="#242424" stroke="#242424" points="1846.4874,-483.2471 1841.778,-473.7564 1839.541,-484.1124 1846.4874,-483.2471"/>
</g>
<!-- which.js -->
<g id="node35" class="node">
<title>which.js</title>
<ellipse fill="none" stroke="#242424" stroke-width="4" cx="2651.3893" cy="-1286.3132" rx="47.0167" ry="47.0167"/>
<text text-anchor="middle" x="2651.3893" y="-1283.9132" font-family="Fira Code" font-size="12.00" fill="#242424">which.js</text>
</g>
<!-- index.js&#45;&gt;which.js -->
<g id="edge44" class="edge">
<title>index.js&#45;&gt;which.js</title>
<path fill="none" stroke="#242424" d="M1573.3804,-1540.3159C1686.454,-1524.4914 1982.2834,-1480.3928 2224.3893,-1420.6957 2360.4291,-1387.1518 2516.6365,-1334.2045 2597.1332,-1305.8206"/>
<polygon fill="#242424" stroke="#242424" points="2598.7782,-1308.9513 2607.0387,-1302.3169 2596.4439,-1302.352 2598.7782,-1308.9513"/>
</g>
<!-- invert.js&#45;&gt;f&#45;utility/f&#45;utility.js -->
<g id="edge45" class="edge">
<title>invert.js&#45;&gt;f&#45;utility/f&#45;utility.js</title>
<path fill="none" stroke="#242424" d="M286.3506,-633.6834C256.2597,-547.0198 192.9599,-364.7125 151.323,-244.7955"/>
<polygon fill="#242424" stroke="#242424" points="154.5755,-243.4921 147.989,-235.1934 147.9628,-245.7882 154.5755,-243.4921"/>
</g>
<!-- iterate.js&#45;&gt;katsu&#45;curry/katsu&#45;curry.js -->
<g id="edge46" class="edge">
<title>iterate.js&#45;&gt;katsu&#45;curry/katsu&#45;curry.js</title>
<path fill="none" stroke="#242424" d="M1242.7751,-635.6524C1252.8538,-621.7942 1264.503,-606.9774 1276.3893,-594.3599 1314.0437,-554.3893 1342.9489,-562.3349 1371.3893,-515.3599 1413.0132,-446.6096 1362.4991,-403.8399 1409.3893,-338.5677 1463.2424,-263.6031 1553.0917,-210.8903 1628.4012,-177.1837"/>
<polygon fill="#242424" stroke="#242424" points="1630.2406,-180.198 1637.9803,-172.9629 1627.418,-173.7923 1630.2406,-180.198"/>
</g>
<!-- map.js&#45;&gt;entrust/entrust.js -->
<g id="edge47" class="edge">
<title>map.js&#45;&gt;entrust/entrust.js</title>
<path fill="none" stroke="#242424" d="M797.3893,-389.0239C797.3893,-349.9213 797.3893,-287.2332 797.3893,-233.2975"/>
<polygon fill="#242424" stroke="#242424" points="800.8894,-232.9869 797.3893,-222.9869 793.8894,-232.987 800.8894,-232.9869"/>
</g>
<!-- map.js&#45;&gt;fantasy&#45;land/index.js -->
<g id="edge48" class="edge">
<title>map.js&#45;&gt;fantasy&#45;land/index.js</title>
<path fill="none" stroke="#242424" d="M781.5186,-392.4392C773.3061,-375.7044 762.6528,-355.5933 751.3893,-338.5677 723.5694,-296.5159 688.8318,-253.0139 657.8719,-216.6745"/>
<polygon fill="#242424" stroke="#242424" points="660.4898,-214.3505 651.3266,-209.0318 655.1731,-218.9038 660.4898,-214.3505"/>
</g>
<!-- map.js&#45;&gt;katsu&#45;curry/katsu&#45;curry.js -->
<g id="edge50" class="edge">
<title>map.js&#45;&gt;katsu&#45;curry/katsu&#45;curry.js</title>
<path fill="none" stroke="#242424" d="M820.6343,-396.8395C837.209,-377.3935 861.1385,-353.0993 887.3893,-338.5677 1012.876,-269.1025 1409.2752,-191.5862 1622.1031,-153.5136"/>
<polygon fill="#242424" stroke="#242424" points="1622.8674,-156.9326 1632.0972,-151.7306 1621.6379,-150.0414 1622.8674,-156.9326"/>
</g>
<!-- fast.js/map.js -->
<g id="node36" class="node">
<title>fast.js/map.js</title>
<ellipse fill="none" stroke="#0c821d" stroke-width="4" cx="983.3893" cy="-129.7839" rx="74.7005" ry="74.7005"/>
<text text-anchor="middle" x="983.3893" y="-127.3839" font-family="Fira Code" font-size="12.00" fill="#0c821d">fast.js/map.js</text>
</g>
<!-- map.js&#45;&gt;fast.js/map.js -->
<g id="edge49" class="edge">
<title>map.js&#45;&gt;fast.js/map.js</title>
<path fill="none" stroke="#242424" d="M817.4713,-394.878C846.2255,-348.9362 899.9024,-263.1744 938.4239,-201.6269"/>
<polygon fill="#242424" stroke="#242424" points="941.4161,-203.4432 943.7547,-193.1097 935.4825,-199.7294 941.4161,-203.4432"/>
</g>
<!-- math.js&#45;&gt;katsu&#45;curry/katsu&#45;curry.js -->
<g id="edge51" class="edge">
<title>math.js&#45;&gt;katsu&#45;curry/katsu&#45;curry.js</title>
<path fill="none" stroke="#242424" d="M2141.3171,-918.7662C2143.2796,-794.5355 2143.5438,-436.3607 2084.3893,-338.5677 2040.4704,-265.962 1960.5643,-214.0578 1891.0985,-180.1612"/>
<polygon fill="#242424" stroke="#242424" points="1892.3393,-176.8745 1881.8093,-175.7042 1889.3111,-183.1857 1892.3393,-176.8745"/>
</g>
<!-- object.js&#45;&gt;katsu&#45;curry/katsu&#45;curry.js -->
<g id="edge52" class="edge">
<title>object.js&#45;&gt;katsu&#45;curry/katsu&#45;curry.js</title>
<path fill="none" stroke="#242424" d="M2170.1665,-384.0621C2158.3386,-368.5835 2143.8294,-351.7075 2128.3893,-338.5677 2055.9544,-276.9243 1962.6465,-224.2249 1888.1127,-187.1925"/>
<polygon fill="#242424" stroke="#242424" points="1889.6354,-184.041 1879.1189,-182.7545 1886.5378,-190.3183 1889.6354,-184.041"/>
</g>
<!-- path.js&#45;&gt;katsu&#45;curry/katsu&#45;curry.js -->
<g id="edge53" class="edge">
<title>path.js&#45;&gt;katsu&#45;curry/katsu&#45;curry.js</title>
<path fill="none" stroke="#242424" d="M2099.5559,-1243.7524C2089.8143,-1098.0173 2057.9366,-626.2558 2051.3893,-594.3599 2027.2147,-476.5905 2026.3676,-440.9776 1963.3893,-338.5677 1937.2431,-296.051 1901.0716,-255.2755 1866.4961,-221.2217"/>
<polygon fill="#242424" stroke="#242424" points="1868.7508,-218.5318 1859.1465,-214.0588 1863.8652,-223.5449 1868.7508,-218.5318"/>
</g>
<!-- path.js&#45;&gt;math.js -->
<g id="edge54" class="edge">
<title>path.js&#45;&gt;math.js</title>
<path fill="none" stroke="#242424" d="M2107.3182,-1244.1879C2114.2139,-1185.2525 2126.7355,-1078.2352 2134.235,-1014.1395"/>
<polygon fill="#242424" stroke="#242424" points="2137.7531,-1014.1886 2135.439,-1003.8496 2130.8005,-1013.3751 2137.7531,-1014.1886"/>
</g>
<!-- path.js&#45;&gt;reduce.js -->
<g id="edge55" class="edge">
<title>path.js&#45;&gt;reduce.js</title>
<path fill="none" stroke="#242424" d="M2084.1917,-1247.6787C2068.7559,-1218.2967 2044.2213,-1178.5224 2013.3893,-1151.9307 1907.6986,-1060.7757 1750.942,-1004.0402 1666.1229,-978.1377"/>
<polygon fill="#242424" stroke="#242424" points="1666.9785,-974.7401 1656.3939,-975.2057 1664.9586,-981.4424 1666.9785,-974.7401"/>
</g>
<!-- random&#45;floor.js&#45;&gt;katsu&#45;curry/katsu&#45;curry.js -->
<g id="edge56" class="edge">
<title>random&#45;floor.js&#45;&gt;katsu&#45;curry/katsu&#45;curry.js</title>
<path fill="none" stroke="#242424" d="M1385.0054,-606.1385C1412.2503,-504.9307 1456.8929,-339.2694 1457.3893,-338.5677 1502.0474,-275.438 1572.2171,-225.3294 1633.7881,-190.0425"/>
<polygon fill="#242424" stroke="#242424" points="1635.8235,-192.9125 1642.8059,-184.944 1632.3783,-186.819 1635.8235,-192.9125"/>
</g>
<!-- random&#45;take.js&#45;&gt;katsu&#45;curry/katsu&#45;curry.js -->
<g id="edge57" class="edge">
<title>random&#45;take.js&#45;&gt;katsu&#45;curry/katsu&#45;curry.js</title>
<path fill="none" stroke="#242424" d="M1215.9876,-903.5046C1159.8929,-827.3053 1081.7757,-691.7994 1146.3893,-594.3599 1196.2511,-519.1665 1275.8615,-584.8638 1333.3893,-515.3599 1384.6338,-453.4474 1323.074,-402.7922 1371.3893,-338.5677 1434.2337,-255.0299 1540.528,-201.2434 1626.1377,-169.2184"/>
<polygon fill="#242424" stroke="#242424" points="1627.4994,-172.4469 1635.675,-165.7081 1625.0815,-165.8777 1627.4994,-172.4469"/>
</g>
<!-- random&#45;take.js&#45;&gt;iterate.js -->
<g id="edge58" class="edge">
<title>random&#45;take.js&#45;&gt;iterate.js</title>
<path fill="none" stroke="#242424" d="M1249.6589,-887.9291C1241.5697,-844.5608 1231.4245,-790.1698 1223.6125,-748.2879"/>
<polygon fill="#242424" stroke="#242424" points="1227.0046,-747.385 1221.7302,-738.1964 1220.1233,-748.6686 1227.0046,-747.385"/>
</g>
<!-- random&#45;take.js&#45;&gt;random&#45;floor.js -->
<g id="edge59" class="edge">
<title>random&#45;take.js&#45;&gt;random&#45;floor.js</title>
<path fill="none" stroke="#242424" d="M1288.8759,-891.1921C1302.5346,-853.4906 1319.4593,-806.774 1333.8219,-767.1298"/>
<polygon fill="#242424" stroke="#242424" points="1337.2034,-768.071 1337.319,-757.4768 1330.622,-765.6866 1337.2034,-768.071"/>
</g>
<!-- random&#45;word.js&#45;&gt;katsu&#45;curry/katsu&#45;curry.js -->
<g id="edge60" class="edge">
<title>random&#45;word.js&#45;&gt;katsu&#45;curry/katsu&#45;curry.js</title>
<path fill="none" stroke="#242424" d="M1269.9383,-1222.7663C1232.8565,-1162.851 1182.5633,-1081.0342 1179.3893,-1072.9307 1140.2896,-973.1054 1059.5789,-683.9993 1118.3893,-594.3599 1166.7612,-520.631 1245.4299,-584.3184 1300.3893,-515.3599 1350.2073,-452.8523 1284.9981,-402.1863 1333.3893,-338.5677 1404.2682,-245.3852 1527.7356,-191.3604 1623.7312,-161.711"/>
<polygon fill="#242424" stroke="#242424" points="1624.9675,-164.9936 1633.5212,-158.7419 1622.9358,-158.2949 1624.9675,-164.9936"/>
</g>
<!-- random&#45;word.js&#45;&gt;array.js -->
<g id="edge61" class="edge">
<title>random&#45;word.js&#45;&gt;array.js</title>
<path fill="none" stroke="#242424" d="M1276.6908,-1218.9743C1263.1212,-1195.7468 1245.7511,-1170.8407 1225.3893,-1151.9307 1170.1787,-1100.6567 1140.98,-1110.0129 1075.3893,-1072.9307 1028.7437,-1046.5592 976.5787,-1014.7538 939.7378,-991.892"/>
<polygon fill="#242424" stroke="#242424" points="941.524,-988.8813 931.1836,-986.5735 937.8279,-994.8259 941.524,-988.8813"/>
</g>
<!-- random&#45;word.js&#45;&gt;random&#45;take.js -->
<g id="edge62" class="edge">
<title>random&#45;word.js&#45;&gt;random&#45;take.js</title>
<path fill="none" stroke="#242424" d="M1298.8936,-1212.2111C1291.8709,-1162.6288 1282.6136,-1097.2697 1275.3125,-1045.7223"/>
<polygon fill="#242424" stroke="#242424" points="1278.7475,-1045.0161 1273.8796,-1035.6058 1271.8167,-1045.9978 1278.7475,-1045.0161"/>
</g>
<!-- reduce.js&#45;&gt;delegate&#45;fast.js -->
<g id="edge64" class="edge">
<title>reduce.js&#45;&gt;delegate&#45;fast.js</title>
<path fill="none" stroke="#242424" d="M1586.6311,-913.446C1546.2888,-815.38 1457.7761,-600.9635 1452.3893,-594.3599 1408.8328,-540.9647 1343.9052,-497.6669 1291.831,-468.4921"/>
<polygon fill="#242424" stroke="#242424" points="1293.3742,-465.346 1282.9291,-463.5713 1289.9877,-471.4723 1293.3742,-465.346"/>
</g>
<!-- fast.js/reduce.js -->
<g id="node37" class="node">
<title>fast.js/reduce.js</title>
<ellipse fill="none" stroke="#0c821d" stroke-width="4" cx="1625.3893" cy="-682.756" rx="88.2923" ry="88.2923"/>
<text text-anchor="middle" x="1625.3893" y="-680.356" font-family="Fira Code" font-size="12.00" fill="#0c821d">fast.js/reduce.js</text>
</g>
<!-- reduce.js&#45;&gt;fast.js/reduce.js -->
<g id="edge63" class="edge">
<title>reduce.js&#45;&gt;fast.js/reduce.js</title>
<path fill="none" stroke="#242424" d="M1609.9185,-909.7574C1612.3777,-873.6739 1615.7346,-824.419 1618.693,-781.0104"/>
<polygon fill="#242424" stroke="#242424" points="1622.1883,-781.1968 1619.3765,-770.9819 1615.2045,-780.7207 1622.1883,-781.1968"/>
</g>
<!-- reject.js&#45;&gt;katsu&#45;curry/katsu&#45;curry.js -->
<g id="edge65" class="edge">
<title>reject.js&#45;&gt;katsu&#45;curry/katsu&#45;curry.js</title>
<path fill="none" stroke="#242424" d="M1453.7932,-910.2594C1465.0914,-838.2578 1489.5141,-703.7591 1528.3893,-594.3599 1571.5235,-472.9754 1638.7851,-342.3578 1689.8015,-250.6317"/>
<polygon fill="#242424" stroke="#242424" points="1692.8697,-252.3159 1694.6865,-241.878 1686.7571,-248.9047 1692.8697,-252.3159"/>
</g>
<!-- reject.js&#45;&gt;filter.js -->
<g id="edge66" class="edge">
<title>reject.js&#45;&gt;filter.js</title>
<path fill="none" stroke="#242424" d="M1416.6223,-919.2478C1398.7153,-896.3019 1374.2274,-868.8839 1347.3893,-850.1521 1268.6793,-795.216 1231.8034,-814.9433 1146.3893,-771.1521 1116.6305,-755.895 1085.1604,-735.8933 1059.8966,-718.7758"/>
<polygon fill="#242424" stroke="#242424" points="1061.8096,-715.8439 1051.5783,-713.0923 1057.8606,-721.6236 1061.8096,-715.8439"/>
</g>
<!-- string.js&#45;&gt;entrust/entrust.js -->
<g id="edge67" class="edge">
<title>string.js&#45;&gt;entrust/entrust.js</title>
<path fill="none" stroke="#242424" d="M707.9384,-378.2234C722.6706,-337.3062 744.1722,-277.5881 762.4025,-226.9556"/>
<polygon fill="#242424" stroke="#242424" points="765.7892,-227.8811 765.8838,-217.2867 759.2031,-225.5097 765.7892,-227.8811"/>
</g>
<!-- ternary.js&#45;&gt;katsu&#45;curry/katsu&#45;curry.js -->
<g id="edge68" class="edge">
<title>ternary.js&#45;&gt;katsu&#45;curry/katsu&#45;curry.js</title>
<path fill="none" stroke="#242424" d="M1785.3061,-626.5787C1783.5385,-594.0856 1781.2986,-552.4181 1779.3893,-515.3599 1775.1983,-434.0141 1770.7044,-343.0039 1767.1397,-269.8391"/>
<polygon fill="#242424" stroke="#242424" points="1770.6252,-269.4545 1766.643,-259.6366 1763.6335,-269.795 1770.6252,-269.4545"/>
</g>
<!-- triplet.js&#45;&gt;katsu&#45;curry/katsu&#45;curry.js -->
<g id="edge69" class="edge">
<title>triplet.js&#45;&gt;katsu&#45;curry/katsu&#45;curry.js</title>
<path fill="none" stroke="#242424" d="M2817.1429,-906.5206C2841.4187,-786.5059 2879.7501,-499.1247 2734.3893,-338.5677 2624.3269,-216.9992 2142.7874,-160.9676 1900.5735,-140.0896"/>
<polygon fill="#242424" stroke="#242424" points="1900.5477,-136.5748 1890.2863,-139.2116 1899.9524,-143.5494 1900.5477,-136.5748"/>
</g>
<!-- types.js&#45;&gt;katsu&#45;curry/katsu&#45;curry.js -->
<g id="edge70" class="edge">
<title>types.js&#45;&gt;katsu&#45;curry/katsu&#45;curry.js</title>
<path fill="none" stroke="#242424" d="M1823.8349,-381.1807C1815.9986,-350.1301 1805.1974,-307.3315 1794.7273,-265.8448"/>
<polygon fill="#242424" stroke="#242424" points="1798.058,-264.7386 1792.2173,-255.8991 1791.2708,-266.4515 1798.058,-264.7386"/>
</g>
<!-- which.js&#45;&gt;katsu&#45;curry/katsu&#45;curry.js -->
<g id="edge73" class="edge">
<title>which.js&#45;&gt;katsu&#45;curry/katsu&#45;curry.js</title>
<path fill="none" stroke="#242424" d="M2669.2281,-1242.6291C2699.3022,-1162.2416 2752.0884,-986.6155 2701.3893,-850.1521 2596.8445,-568.7558 2503.3988,-514.8058 2260.3893,-338.5677 2148.882,-257.6992 2001.3515,-201.0345 1895.4892,-167.3428"/>
<polygon fill="#242424" stroke="#242424" points="1896.2886,-163.925 1885.6988,-164.2545 1894.1827,-170.6007 1896.2886,-163.925"/>
</g>
<!-- which.js&#45;&gt;flip.js -->
<g id="edge74" class="edge">
<title>which.js&#45;&gt;flip.js</title>
<path fill="none" stroke="#242424" d="M2686.7374,-1254.6051C2740.9255,-1205.527 2841.2209,-1112.6864 2869.3893,-1072.9307 2882.8101,-1053.9891 2894.2139,-1031.034 2902.8918,-1010.8958"/>
<polygon fill="#242424" stroke="#242424" points="2906.1644,-1012.1423 2906.8069,-1001.567 2899.7098,-1009.4334 2906.1644,-1012.1423"/>
</g>
<!-- which.js&#45;&gt;triplet.js -->
<g id="edge75" class="edge">
<title>which.js&#45;&gt;triplet.js</title>
<path fill="none" stroke="#242424" d="M2671.5487,-1243.521C2698.3087,-1186.7177 2745.7078,-1086.104 2776.0567,-1021.6828"/>
<polygon fill="#242424" stroke="#242424" points="2779.3106,-1022.9882 2780.4062,-1012.4502 2772.9781,-1020.0049 2779.3106,-1022.9882"/>
</g>
<!-- fast.js/array/every.js -->
<g id="node38" class="node">
<title>fast.js/array/every.js</title>
<ellipse fill="none" stroke="#0c821d" stroke-width="4" cx="2581.3893" cy="-961.5414" rx="111.2787" ry="111.2787"/>
<text text-anchor="middle" x="2581.3893" y="-959.1414" font-family="Fira Code" font-size="12.00" fill="#0c821d">fast.js/array/every.js</text>
</g>
<!-- which.js&#45;&gt;fast.js/array/every.js -->
<g id="edge71" class="edge">
<title>which.js&#45;&gt;fast.js/array/every.js</title>
<path fill="none" stroke="#242424" d="M2641.4343,-1240.1262C2632.4968,-1198.6597 2618.9837,-1135.9644 2607.0387,-1080.5442"/>
<polygon fill="#242424" stroke="#242424" points="2610.4339,-1079.6846 2604.9054,-1070.6466 2603.591,-1081.1596 2610.4339,-1079.6846"/>
</g>
<!-- fast.js/array/some.js -->
<g id="node39" class="node">
<title>fast.js/array/some.js</title>
<ellipse fill="none" stroke="#0c821d" stroke-width="4" cx="2345.3893" cy="-961.5414" rx="106.5817" ry="106.5817"/>
<text text-anchor="middle" x="2345.3893" y="-959.1414" font-family="Fira Code" font-size="12.00" fill="#0c821d">fast.js/array/some.js</text>
</g>
<!-- which.js&#45;&gt;fast.js/array/some.js -->
<g id="edge72" class="edge">
<title>which.js&#45;&gt;fast.js/array/some.js</title>
<path fill="none" stroke="#242424" d="M2618.9316,-1251.8644C2573.389,-1203.5279 2489.0403,-1114.0048 2425.9993,-1047.0965"/>
<polygon fill="#242424" stroke="#242424" points="2428.214,-1044.3432 2418.809,-1039.465 2423.1192,-1049.1435 2428.214,-1044.3432"/>
</g>
</g>
</svg>
