<?xml version="1.0" encoding="UTF-8" standalone="no"?>
<!DOCTYPE svg PUBLIC "-//W3C//DTD SVG 1.1//EN"
 "http://www.w3.org/Graphics/SVG/1.1/DTD/svg11.dtd">
<!-- Generated by graphviz version 2.40.1 (20161225.0304)
 -->
<!-- Title: G Pages: 1 -->
<svg width="3706pt" height="1873pt"
 viewBox="0.00 0.00 3705.86 1872.64" xmlns="http://www.w3.org/2000/svg" xmlns:xlink="http://www.w3.org/1999/xlink">
<g id="graph0" class="graph" transform="scale(1 1) rotate(0) translate(7.992 1864.6432)">
<title>G</title>
<polygon fill="#eeeeff" stroke="transparent" points="-7.992,7.992 -7.992,-1864.6432 3697.867,-1864.6432 3697.867,7.992 -7.992,7.992"/>
<!-- ../package.json -->
<g id="node1" class="node">
<title>../package.json</title>
<ellipse fill="none" stroke="#0c821d" stroke-width="4" cx="79.1988" cy="-1525.2604" rx="79.3981" ry="79.3981"/>
<text text-anchor="middle" x="79.1988" y="-1522.8604" font-family="Fira Code" font-size="12.00" fill="#0c821d">../package.json</text>
</g>
<!-- ap.js -->
<g id="node2" class="node">
<title>ap.js</title>
<ellipse fill="none" stroke="#242424" stroke-width="4" cx="1442.1988" cy="-1525.2604" rx="33.4262" ry="33.4262"/>
<text text-anchor="middle" x="1442.1988" y="-1522.8604" font-family="Fira Code" font-size="12.00" fill="#242424">ap.js</text>
</g>
<!-- Ⓜ katsu&#45;curry/katsu&#45;curry.js -->
<g id="node3" class="node">
<title>Ⓜ katsu&#45;curry/katsu&#45;curry.js</title>
<ellipse fill="none" stroke="#0c821d" stroke-width="4" cx="901.1988" cy="-153.4077" rx="153.3154" ry="153.3154"/>
<text text-anchor="middle" x="901.1988" y="-152.2077" font-family="Fira Code" font-size="12.00" fill="#0c821d">Ⓜ katsu&#45;curry/katsu&#45;curry.js</text>
</g>
<!-- ap.js&#45;&gt;Ⓜ katsu&#45;curry/katsu&#45;curry.js -->
<g id="edge1" class="edge">
<title>ap.js&#45;&gt;Ⓜ katsu&#45;curry/katsu&#45;curry.js</title>
<path fill="none" stroke="#242424" d="M1444.6071,-1491.9855C1452.6681,-1382.4371 1479.0475,-1038.977 1494.1988,-1020.8025 1574.5335,-924.4387 1689.917,-1042.1634 1765.1988,-941.8025 1823.1828,-864.5019 1798.709,-815.0174 1765.1988,-724.383 1730.8447,-631.4662 1555.6166,-443.6662 1475.1988,-385.8153 1348.4819,-294.6578 1180.8636,-232.1434 1059.5003,-195.1043"/>
<polygon fill="#242424" stroke="#242424" points="1060.329,-191.6984 1049.7438,-192.1511 1058.301,-198.3982 1060.329,-191.6984"/>
</g>
<!-- map.js -->
<g id="node4" class="node">
<title>map.js</title>
<ellipse fill="none" stroke="#242424" stroke-width="4" cx="1249.1988" cy="-1154.3444" rx="37.623" ry="37.623"/>
<text text-anchor="middle" x="1249.1988" y="-1151.9444" font-family="Fira Code" font-size="12.00" fill="#242424">map.js</text>
</g>
<!-- ap.js&#45;&gt;map.js -->
<g id="edge2" class="edge">
<title>ap.js&#45;&gt;map.js</title>
<path fill="none" stroke="#242424" d="M1427.3444,-1495.3925C1411.4197,-1463.482 1385.305,-1411.4649 1362.1988,-1366.8863 1331.4718,-1307.605 1295.0826,-1239.5295 1272.0682,-1196.7293"/>
<polygon fill="#242424" stroke="#242424" points="1275.0462,-1194.8772 1267.2257,-1187.7295 1268.8819,-1198.1941 1275.0462,-1194.8772"/>
</g>
<!-- reduce.js -->
<g id="node5" class="node">
<title>reduce.js</title>
<ellipse fill="none" stroke="#242424" stroke-width="4" cx="1395.1988" cy="-1154.3444" rx="51.7142" ry="51.7142"/>
<text text-anchor="middle" x="1395.1988" y="-1151.9444" font-family="Fira Code" font-size="12.00" fill="#242424">reduce.js</text>
</g>
<!-- ap.js&#45;&gt;reduce.js -->
<g id="edge3" class="edge">
<title>ap.js&#45;&gt;reduce.js</title>
<path fill="none" stroke="#242424" d="M1437.9865,-1492.0177C1430.1158,-1429.9037 1413.0682,-1295.3662 1403.0293,-1216.141"/>
<polygon fill="#242424" stroke="#242424" points="1406.4503,-1215.2966 1401.7209,-1205.8159 1399.5059,-1216.1766 1406.4503,-1215.2966"/>
</g>
<!-- types.js -->
<g id="node6" class="node">
<title>types.js</title>
<ellipse fill="none" stroke="#242424" stroke-width="4" cx="1864.1988" cy="-1154.3444" rx="47.0167" ry="47.0167"/>
<text text-anchor="middle" x="1864.1988" y="-1151.9444" font-family="Fira Code" font-size="12.00" fill="#242424">types.js</text>
</g>
<!-- ap.js&#45;&gt;types.js -->
<g id="edge4" class="edge">
<title>ap.js&#45;&gt;types.js</title>
<path fill="none" stroke="#242424" d="M1459.8168,-1497.0462C1482.8031,-1462.2525 1526.0565,-1403.2651 1576.1988,-1366.8863 1651.5529,-1312.2162 1697.348,-1345.8503 1770.1988,-1287.8863 1798.2262,-1265.5862 1821.4824,-1232.7759 1837.8513,-1205.2587"/>
<polygon fill="#242424" stroke="#242424" points="1840.9248,-1206.9356 1842.9212,-1196.5305 1834.8719,-1203.4196 1840.9248,-1206.9356"/>
</g>
<!-- map.js&#45;&gt;Ⓜ katsu&#45;curry/katsu&#45;curry.js -->
<g id="edge56" class="edge">
<title>map.js&#45;&gt;Ⓜ katsu&#45;curry/katsu&#45;curry.js</title>
<path fill="none" stroke="#242424" d="M1256.1666,-1117.135C1263.2509,-1088.0139 1276.7707,-1048.0219 1301.1988,-1020.8025 1352.0507,-964.1401 1413.6807,-1006.8783 1453.1988,-941.8025 1518.1825,-834.7916 1441.2336,-482.9117 1362.1988,-385.8153 1285.1852,-291.2019 1159.7486,-231.499 1059.15,-196.3296"/>
<polygon fill="#242424" stroke="#242424" points="1060.0894,-192.9514 1049.4947,-193.0024 1057.8087,-199.5695 1060.0894,-192.9514"/>
</g>
<!-- Ⓜ fast.js/map.js -->
<g id="node41" class="node">
<title>Ⓜ fast.js/map.js</title>
<ellipse fill="none" stroke="#0c821d" stroke-width="4" cx="1350.1988" cy="-833.0928" rx="93.6213" ry="93.6213"/>
<text text-anchor="middle" x="1350.1988" y="-831.8928" font-family="Fira Code" font-size="12.00" fill="#0c821d">Ⓜ fast.js/map.js</text>
</g>
<!-- map.js&#45;&gt;Ⓜ fast.js/map.js -->
<g id="edge55" class="edge">
<title>map.js&#45;&gt;Ⓜ fast.js/map.js</title>
<path fill="none" stroke="#242424" d="M1260.5885,-1118.1172C1274.6473,-1073.4002 1299.1261,-995.5404 1318.9501,-932.4859"/>
<polygon fill="#242424" stroke="#242424" points="1322.3038,-933.4882 1321.9642,-922.8988 1315.6261,-931.3887 1322.3038,-933.4882"/>
</g>
<!-- delegate&#45;fast.js -->
<g id="node12" class="node">
<title>delegate&#45;fast.js</title>
<ellipse fill="none" stroke="#242424" stroke-width="4" cx="1822.1988" cy="-515.5992" rx="83.5954" ry="83.5954"/>
<text text-anchor="middle" x="1822.1988" y="-513.1992" font-family="Fira Code" font-size="12.00" fill="#242424">delegate&#45;fast.js</text>
</g>
<!-- reduce.js&#45;&gt;delegate&#45;fast.js -->
<g id="edge73" class="edge">
<title>reduce.js&#45;&gt;delegate&#45;fast.js</title>
<path fill="none" stroke="#242424" d="M1419.0221,-1108.2887C1436.2518,-1079.2522 1462.1067,-1043.1491 1494.1988,-1020.8025 1597.1552,-949.1112 1683.4167,-1036.9411 1765.1988,-941.8025 1844.0795,-850.0392 1845.9212,-703.6096 1836.6584,-608.5301"/>
<polygon fill="#242424" stroke="#242424" points="1840.1154,-607.9331 1835.6048,-598.3464 1833.1525,-608.6536 1840.1154,-607.9331"/>
</g>
<!-- Ⓜ fast.js/reduce.js -->
<g id="node42" class="node">
<title>Ⓜ fast.js/reduce.js</title>
<ellipse fill="none" stroke="#0c821d" stroke-width="4" cx="1647.1988" cy="-833.0928" rx="108.9199" ry="108.9199"/>
<text text-anchor="middle" x="1647.1988" y="-831.8928" font-family="Fira Code" font-size="12.00" fill="#0c821d">Ⓜ fast.js/reduce.js</text>
</g>
<!-- reduce.js&#45;&gt;Ⓜ fast.js/reduce.js -->
<g id="edge72" class="edge">
<title>reduce.js&#45;&gt;Ⓜ fast.js/reduce.js</title>
<path fill="none" stroke="#242424" d="M1414.4657,-1106.2115C1426.1128,-1079.8293 1442.3429,-1047.2192 1461.1988,-1020.8025 1488.9519,-981.9212 1524.8996,-943.615 1557.7844,-911.8484"/>
<polygon fill="#242424" stroke="#242424" points="1560.3883,-914.2008 1565.1882,-904.7557 1555.5458,-909.146 1560.3883,-914.2008"/>
</g>
<!-- types.js&#45;&gt;Ⓜ katsu&#45;curry/katsu&#45;curry.js -->
<g id="edge79" class="edge">
<title>types.js&#45;&gt;Ⓜ katsu&#45;curry/katsu&#45;curry.js</title>
<path fill="none" stroke="#242424" d="M1875.007,-1108.3699C1908.7036,-960.1151 2004.4084,-497.7848 1915.1988,-385.8153 1810.6304,-254.5684 1323.5692,-191.4032 1064.4166,-166.6365"/>
<polygon fill="#242424" stroke="#242424" points="1064.439,-163.1231 1054.1535,-165.6644 1063.7789,-170.0919 1064.439,-163.1231"/>
</g>
<!-- array.js -->
<g id="node7" class="node">
<title>array.js</title>
<ellipse fill="none" stroke="#242424" stroke-width="4" cx="1107.1988" cy="-1154.3444" rx="47.0167" ry="47.0167"/>
<text text-anchor="middle" x="1107.1988" y="-1151.9444" font-family="Fira Code" font-size="12.00" fill="#242424">array.js</text>
</g>
<!-- array.js&#45;&gt;Ⓜ katsu&#45;curry/katsu&#45;curry.js -->
<g id="edge6" class="edge">
<title>array.js&#45;&gt;Ⓜ katsu&#45;curry/katsu&#45;curry.js</title>
<path fill="none" stroke="#242424" d="M1103.1491,-1107.2538C1091.9556,-985.9161 1056.4619,-653.3626 983.1988,-385.8153 976.1286,-359.9959 967.6164,-332.9151 958.7893,-306.7315"/>
<polygon fill="#242424" stroke="#242424" points="962.0575,-305.4708 955.525,-297.1295 955.43,-307.7239 962.0575,-305.4708"/>
</g>
<!-- Ⓜ entrust/entrust.js -->
<g id="node8" class="node">
<title>Ⓜ entrust/entrust.js</title>
<ellipse fill="none" stroke="#0c821d" stroke-width="4" cx="2646.1988" cy="-153.4077" rx="113.8526" ry="113.8526"/>
<text text-anchor="middle" x="2646.1988" y="-152.2077" font-family="Fira Code" font-size="12.00" fill="#0c821d">Ⓜ entrust/entrust.js</text>
</g>
<!-- array.js&#45;&gt;Ⓜ entrust/entrust.js -->
<g id="edge5" class="edge">
<title>array.js&#45;&gt;Ⓜ entrust/entrust.js</title>
<path fill="none" stroke="#242424" d="M1104.9323,-1107.3309C1097.7451,-948.6665 1078.6284,-439.8464 1126.1988,-385.8153 1218.5628,-280.9069 2177.1267,-192.1014 2522.789,-163.2657"/>
<polygon fill="#242424" stroke="#242424" points="2523.16,-166.747 2532.8355,-162.4301 2522.5798,-159.7711 2523.16,-166.747"/>
</g>
<!-- filter.js -->
<g id="node9" class="node">
<title>filter.js</title>
<ellipse fill="none" stroke="#242424" stroke-width="4" cx="1187.1988" cy="-833.0928" rx="51.7142" ry="51.7142"/>
<text text-anchor="middle" x="1187.1988" y="-830.6928" font-family="Fira Code" font-size="12.00" fill="#242424">filter.js</text>
</g>
<!-- array.js&#45;&gt;filter.js -->
<g id="edge7" class="edge">
<title>array.js&#45;&gt;filter.js</title>
<path fill="none" stroke="#242424" d="M1118.5759,-1108.6581C1132.6618,-1052.0943 1156.6921,-955.5968 1172.2535,-893.1079"/>
<polygon fill="#242424" stroke="#242424" points="1175.6552,-893.9316 1174.6755,-883.3821 1168.8626,-892.24 1175.6552,-893.9316"/>
</g>
<!-- filter.js&#45;&gt;delegate&#45;fast.js -->
<g id="edge15" class="edge">
<title>filter.js&#45;&gt;delegate&#45;fast.js</title>
<path fill="none" stroke="#242424" d="M1204.8601,-784.5968C1214.5791,-763.6573 1228.5203,-740.3531 1247.1988,-724.383 1388.6223,-603.4668 1605.784,-550.2668 1728.7793,-528.7298"/>
<polygon fill="#242424" stroke="#242424" points="1729.6619,-532.1296 1738.9254,-526.9877 1728.4773,-525.2305 1729.6619,-532.1296"/>
</g>
<!-- Ⓜ fast.js/filter.js -->
<g id="node15" class="node">
<title>Ⓜ fast.js/filter.js</title>
<ellipse fill="none" stroke="#0c821d" stroke-width="4" cx="1244.1988" cy="-515.5992" rx="108.9199" ry="108.9199"/>
<text text-anchor="middle" x="1244.1988" y="-514.3992" font-family="Fira Code" font-size="12.00" fill="#0c821d">Ⓜ fast.js/filter.js</text>
</g>
<!-- filter.js&#45;&gt;Ⓜ fast.js/filter.js -->
<g id="edge14" class="edge">
<title>filter.js&#45;&gt;Ⓜ fast.js/filter.js</title>
<path fill="none" stroke="#242424" d="M1196.3568,-782.0819C1203.5854,-741.8186 1213.957,-684.048 1223.1967,-632.5821"/>
<polygon fill="#242424" stroke="#242424" points="1226.6457,-633.1774 1224.968,-622.7163 1219.7559,-631.9404 1226.6457,-633.1774"/>
</g>
<!-- chain.js -->
<g id="node10" class="node">
<title>chain.js</title>
<ellipse fill="none" stroke="#242424" stroke-width="4" cx="1632.1988" cy="-1525.2604" rx="47.0167" ry="47.0167"/>
<text text-anchor="middle" x="1632.1988" y="-1522.8604" font-family="Fira Code" font-size="12.00" fill="#242424">chain.js</text>
</g>
<!-- Ⓜ flatmap&#45;fast/index.js -->
<g id="node11" class="node">
<title>Ⓜ flatmap&#45;fast/index.js</title>
<ellipse fill="none" stroke="#0c821d" stroke-width="4" cx="1632.1988" cy="-1154.3444" rx="128.651" ry="128.651"/>
<text text-anchor="middle" x="1632.1988" y="-1153.1444" font-family="Fira Code" font-size="12.00" fill="#0c821d">Ⓜ flatmap&#45;fast/index.js</text>
</g>
<!-- chain.js&#45;&gt;Ⓜ flatmap&#45;fast/index.js -->
<g id="edge8" class="edge">
<title>chain.js&#45;&gt;Ⓜ flatmap&#45;fast/index.js</title>
<path fill="none" stroke="#242424" d="M1632.1988,-1477.9069C1632.1988,-1431.4683 1632.1988,-1358.3773 1632.1988,-1293.4053"/>
<polygon fill="#242424" stroke="#242424" points="1635.6989,-1293.0527 1632.1988,-1283.0527 1628.6989,-1293.0527 1635.6989,-1293.0527"/>
</g>
<!-- chain.js&#45;&gt;delegate&#45;fast.js -->
<g id="edge9" class="edge">
<title>chain.js&#45;&gt;delegate&#45;fast.js</title>
<path fill="none" stroke="#242424" d="M1640.8686,-1478.8593C1648.5631,-1445.7454 1662.0926,-1401.1844 1684.1988,-1366.8863 1712.3164,-1323.2615 1746.2988,-1333.9571 1770.1988,-1287.8863 1779.1272,-1270.6757 1813.7874,-961.1398 1815.1988,-941.8025 1823.529,-827.676 1824.3499,-695.9244 1823.6938,-609.4765"/>
<polygon fill="#242424" stroke="#242424" points="1827.1934,-609.3952 1823.6093,-599.425 1820.1936,-609.4541 1827.1934,-609.3952"/>
</g>
<!-- delegate&#45;fast.js&#45;&gt;Ⓜ katsu&#45;curry/katsu&#45;curry.js -->
<g id="edge12" class="edge">
<title>delegate&#45;fast.js&#45;&gt;Ⓜ katsu&#45;curry/katsu&#45;curry.js</title>
<path fill="none" stroke="#242424" d="M1779.9661,-442.7771C1764.7363,-421.8133 1745.8756,-400.6335 1724.1988,-385.8153 1522.6563,-248.0417 1240.4767,-191.3721 1064.3994,-168.4589"/>
<polygon fill="#242424" stroke="#242424" points="1064.6297,-164.9599 1054.2663,-167.1623 1063.7412,-171.9033 1064.6297,-164.9599"/>
</g>
<!-- delegate&#45;fast.js&#45;&gt;Ⓜ entrust/entrust.js -->
<g id="edge11" class="edge">
<title>delegate&#45;fast.js&#45;&gt;Ⓜ entrust/entrust.js</title>
<path fill="none" stroke="#242424" d="M1898.9788,-481.8503C2044.7218,-417.7886 2362.0943,-278.2866 2532.5495,-203.3625"/>
<polygon fill="#242424" stroke="#242424" points="2534.0606,-206.5216 2541.8068,-199.2934 2531.2437,-200.1133 2534.0606,-206.5216"/>
</g>
<!-- choice.js -->
<g id="node13" class="node">
<title>choice.js</title>
<ellipse fill="none" stroke="#242424" stroke-width="4" cx="144.1988" cy="-515.5992" rx="51.7142" ry="51.7142"/>
<text text-anchor="middle" x="144.1988" y="-513.1992" font-family="Fira Code" font-size="12.00" fill="#242424">choice.js</text>
</g>
<!-- choice.js&#45;&gt;Ⓜ katsu&#45;curry/katsu&#45;curry.js -->
<g id="edge10" class="edge">
<title>choice.js&#45;&gt;Ⓜ katsu&#45;curry/katsu&#45;curry.js</title>
<path fill="none" stroke="#242424" d="M159.078,-465.9318C169.4702,-438.9044 185.9032,-406.7995 210.1988,-385.8153 360.6341,-255.8839 586.5563,-197.9046 738.7275,-172.4959"/>
<polygon fill="#242424" stroke="#242424" points="739.3412,-175.942 748.6425,-170.8689 738.2077,-169.0344 739.3412,-175.942"/>
</g>
<!-- either.js -->
<g id="node14" class="node">
<title>either.js</title>
<ellipse fill="none" stroke="#242424" stroke-width="4" cx="2726.1988" cy="-515.5992" rx="51.7142" ry="51.7142"/>
<text text-anchor="middle" x="2726.1988" y="-513.1992" font-family="Fira Code" font-size="12.00" fill="#242424">either.js</text>
</g>
<!-- either.js&#45;&gt;Ⓜ entrust/entrust.js -->
<g id="edge13" class="edge">
<title>either.js&#45;&gt;Ⓜ entrust/entrust.js</title>
<path fill="none" stroke="#242424" d="M2714.9909,-464.8566C2704.1313,-415.6909 2687.2486,-339.2562 2672.9263,-274.4136"/>
<polygon fill="#242424" stroke="#242424" points="2676.3165,-273.5342 2670.742,-264.5245 2669.4813,-275.044 2676.3165,-273.5342"/>
</g>
<!-- flip.js -->
<g id="node16" class="node">
<title>flip.js</title>
<ellipse fill="none" stroke="#242424" stroke-width="4" cx="1971.1988" cy="-1154.3444" rx="42.3196" ry="42.3196"/>
<text text-anchor="middle" x="1971.1988" y="-1151.9444" font-family="Fira Code" font-size="12.00" fill="#242424">flip.js</text>
</g>
<!-- flip.js&#45;&gt;Ⓜ katsu&#45;curry/katsu&#45;curry.js -->
<g id="edge16" class="edge">
<title>flip.js&#45;&gt;Ⓜ katsu&#45;curry/katsu&#45;curry.js</title>
<path fill="none" stroke="#242424" d="M1976.3592,-1112.0515C1993.0213,-967.6404 2039.1558,-496.8502 1947.1988,-385.8153 1836.3108,-251.9217 1329.7574,-189.6546 1064.4107,-165.7971"/>
<polygon fill="#242424" stroke="#242424" points="1064.567,-162.2973 1054.2958,-164.8958 1063.9456,-169.2697 1064.567,-162.2973"/>
</g>
<!-- future.js -->
<g id="node17" class="node">
<title>future.js</title>
<ellipse fill="none" stroke="#242424" stroke-width="4" cx="2847.1988" cy="-515.5992" rx="51.7142" ry="51.7142"/>
<text text-anchor="middle" x="2847.1988" y="-513.1992" font-family="Fira Code" font-size="12.00" fill="#242424">future.js</text>
</g>
<!-- future.js&#45;&gt;Ⓜ entrust/entrust.js -->
<g id="edge17" class="edge">
<title>future.js&#45;&gt;Ⓜ entrust/entrust.js</title>
<path fill="none" stroke="#242424" d="M2826.7881,-468.1209C2815.7234,-443.2764 2801.4296,-412.5478 2787.1988,-385.8153 2764.5199,-343.2129 2737.4594,-297.56 2713.1372,-258.0923"/>
<polygon fill="#242424" stroke="#242424" points="2715.9046,-255.9126 2707.6688,-249.2476 2709.9506,-259.5938 2715.9046,-255.9126"/>
</g>
<!-- index.js -->
<g id="node18" class="node">
<title>index.js</title>
<ellipse fill="none" stroke="#242424" stroke-width="4" cx="1202.1988" cy="-1809.6428" rx="47.0167" ry="47.0167"/>
<text text-anchor="middle" x="1202.1988" y="-1807.2429" font-family="Fira Code" font-size="12.00" fill="#242424">index.js</text>
</g>
<!-- index.js&#45;&gt;../package.json -->
<g id="edge20" class="edge">
<title>index.js&#45;&gt;../package.json</title>
<path fill="none" stroke="#242424" d="M1155.0202,-1806.33C964.1655,-1792.5985 255.5071,-1738.3085 172.1988,-1683.6345 145.1379,-1665.8748 124.9148,-1637.2968 110.3617,-1609.2728"/>
<polygon fill="#242424" stroke="#242424" points="113.4338,-1607.5904 105.8344,-1600.208 107.1714,-1610.7181 113.4338,-1607.5904"/>
</g>
<!-- index.js&#45;&gt;ap.js -->
<g id="edge21" class="edge">
<title>index.js&#45;&gt;ap.js</title>
<path fill="none" stroke="#242424" d="M1245.8935,-1791.9915C1289.8777,-1772.041 1356.5817,-1735.4539 1395.1988,-1683.6345 1420.3597,-1649.8718 1432.1194,-1602.7469 1437.5736,-1568.6899"/>
<polygon fill="#242424" stroke="#242424" points="1441.0696,-1568.9741 1439.0717,-1558.5694 1434.1451,-1567.949 1441.0696,-1568.9741"/>
</g>
<!-- index.js&#45;&gt;Ⓜ katsu&#45;curry/katsu&#45;curry.js -->
<g id="edge18" class="edge">
<title>index.js&#45;&gt;Ⓜ katsu&#45;curry/katsu&#45;curry.js</title>
<path fill="none" stroke="#242424" d="M1155.044,-1806.6986C973.9493,-1794.9389 330.1138,-1748.8012 268.1988,-1683.6345 186.9041,-1598.0703 224.1988,-1272.3702 224.1988,-1154.3444 224.1988,-1154.3444 224.1988,-1154.3444 224.1988,-833.0928 224.1988,-733.3939 198.8006,-465.1369 259.1988,-385.8153 318.8551,-307.4681 571.5042,-232.922 741.504,-190.2452"/>
<polygon fill="#242424" stroke="#242424" points="742.4553,-193.6152 751.309,-187.7961 740.7588,-186.8239 742.4553,-193.6152"/>
</g>
<!-- index.js&#45;&gt;map.js -->
<g id="edge31" class="edge">
<title>index.js&#45;&gt;map.js</title>
<path fill="none" stroke="#242424" d="M1205.5789,-1762.5154C1214.2199,-1642.0379 1237.0481,-1323.7564 1245.7566,-1202.3375"/>
<polygon fill="#242424" stroke="#242424" points="1249.2569,-1202.4572 1246.4814,-1192.2324 1242.2749,-1201.9563 1249.2569,-1202.4572"/>
</g>
<!-- index.js&#45;&gt;reduce.js -->
<g id="edge41" class="edge">
<title>index.js&#45;&gt;reduce.js</title>
<path fill="none" stroke="#242424" d="M1244.6411,-1789.3435C1282.7717,-1768.5895 1336.5822,-1732.4836 1362.1988,-1683.6345 1403.9024,-1604.1088 1401.2119,-1338.4696 1397.5683,-1216.516"/>
<polygon fill="#242424" stroke="#242424" points="1401.0575,-1216.1134 1397.2483,-1206.227 1394.0609,-1216.331 1401.0575,-1216.1134"/>
</g>
<!-- index.js&#45;&gt;types.js -->
<g id="edge46" class="edge">
<title>index.js&#45;&gt;types.js</title>
<path fill="none" stroke="#242424" d="M1248.9603,-1803.2716C1357.8171,-1787.5613 1623.808,-1743.8296 1688.1988,-1683.6345 1824.7445,-1555.9861 1855.4381,-1319.9228 1862.2762,-1211.5035"/>
<polygon fill="#242424" stroke="#242424" points="1865.7761,-1211.6051 1862.8662,-1201.4177 1858.7881,-1211.1962 1865.7761,-1211.6051"/>
</g>
<!-- index.js&#45;&gt;array.js -->
<g id="edge22" class="edge">
<title>index.js&#45;&gt;array.js</title>
<path fill="none" stroke="#242424" d="M1188.7415,-1764.4966C1182.0453,-1740.6349 1174.3109,-1710.7461 1169.1988,-1683.6345 1137.1102,-1513.4568 1118.8003,-1309.1729 1111.2748,-1211.6365"/>
<polygon fill="#242424" stroke="#242424" points="1114.745,-1211.1117 1110.4949,-1201.4067 1107.7652,-1211.6438 1114.745,-1211.1117"/>
</g>
<!-- index.js&#45;&gt;filter.js -->
<g id="edge26" class="edge">
<title>index.js&#45;&gt;filter.js</title>
<path fill="none" stroke="#242424" d="M1201.4753,-1762.5418C1199.0097,-1602.0205 1190.9346,-1076.3042 1188.1516,-895.1229"/>
<polygon fill="#242424" stroke="#242424" points="1191.6489,-894.911 1187.9956,-884.9659 1184.6497,-895.0186 1191.6489,-894.911"/>
</g>
<!-- index.js&#45;&gt;chain.js -->
<g id="edge23" class="edge">
<title>index.js&#45;&gt;chain.js</title>
<path fill="none" stroke="#242424" d="M1247.3357,-1795.7373C1305.56,-1776.4535 1408.3544,-1737.75 1484.1988,-1683.6345 1528.4412,-1652.0673 1569.868,-1605.7126 1597.5753,-1571.3018"/>
<polygon fill="#242424" stroke="#242424" points="1600.4793,-1573.2735 1603.9689,-1563.2699 1595.0026,-1568.9139 1600.4793,-1573.2735"/>
</g>
<!-- index.js&#45;&gt;choice.js -->
<g id="edge24" class="edge">
<title>index.js&#45;&gt;choice.js</title>
<path fill="none" stroke="#242424" d="M1154.9903,-1807.137C966.5951,-1796.6765 275.5742,-1753.7473 210.1988,-1683.6345 172.1968,-1642.8786 150.8428,-813.4026 145.5245,-577.6176"/>
<polygon fill="#242424" stroke="#242424" points="149.021,-577.4192 145.2979,-567.5001 142.0228,-577.576 149.021,-577.4192"/>
</g>
<!-- index.js&#45;&gt;either.js -->
<g id="edge25" class="edge">
<title>index.js&#45;&gt;either.js</title>
<path fill="none" stroke="#242424" d="M1249.2892,-1807.0575C1464.6393,-1794.9489 2349.8393,-1741.9747 2458.1988,-1683.6345 2657.8548,-1576.1408 2704.2578,-1501.5458 2780.1988,-1287.8863 2870.1125,-1034.9146 2786.8338,-706.5248 2745.8966,-574.4289"/>
<polygon fill="#242424" stroke="#242424" points="2749.2361,-573.3808 2742.9062,-564.8848 2742.5563,-575.4739 2749.2361,-573.3808"/>
</g>
<!-- index.js&#45;&gt;flip.js -->
<g id="edge27" class="edge">
<title>index.js&#45;&gt;flip.js</title>
<path fill="none" stroke="#242424" d="M1249.1046,-1805.1782C1371.8482,-1792.6168 1698.5213,-1753.2715 1778.1988,-1683.6345 1922.5255,-1557.495 1958.9843,-1314.3029 1968.1468,-1207.1925"/>
<polygon fill="#242424" stroke="#242424" points="1971.6572,-1207.2038 1968.9743,-1196.9543 1964.68,-1206.6398 1971.6572,-1207.2038"/>
</g>
<!-- index.js&#45;&gt;future.js -->
<g id="edge28" class="edge">
<title>index.js&#45;&gt;future.js</title>
<path fill="none" stroke="#242424" d="M1249.2568,-1808.1576C1481.8125,-1800.4607 2501.7834,-1762.4027 2617.1988,-1683.6345 2984.429,-1433.009 2896.8939,-778.821 2859.5711,-576.273"/>
<polygon fill="#242424" stroke="#242424" points="2863.0045,-575.5916 2857.7263,-566.4052 2856.1237,-576.8781 2863.0045,-575.5916"/>
</g>
<!-- Ⓜ katsu&#45;curry/utils/length.js -->
<g id="node19" class="node">
<title>Ⓜ katsu&#45;curry/utils/length.js</title>
<ellipse fill="none" stroke="#0c821d" stroke-width="4" cx="3033.1988" cy="-1525.2604" rx="158.2483" ry="158.2483"/>
<text text-anchor="middle" x="3033.1988" y="-1524.0604" font-family="Fira Code" font-size="12.00" fill="#0c821d">Ⓜ katsu&#45;curry/utils/length.js</text>
</g>
<!-- index.js&#45;&gt;Ⓜ katsu&#45;curry/utils/length.js -->
<g id="edge19" class="edge">
<title>index.js&#45;&gt;Ⓜ katsu&#45;curry/utils/length.js</title>
<path fill="none" stroke="#242424" d="M1249.4398,-1807.9017C1504.3347,-1798.2621 2709.7025,-1749.4783 2861.1988,-1683.6345 2881.2145,-1674.9352 2900.4095,-1662.9043 2918.2456,-1649.3248"/>
<polygon fill="#242424" stroke="#242424" points="2920.6283,-1651.9045 2926.3431,-1642.983 2916.3121,-1646.3935 2920.6283,-1651.9045"/>
</g>
<!-- invert.js -->
<g id="node20" class="node">
<title>invert.js</title>
<ellipse fill="none" stroke="#242424" stroke-width="4" cx="821.1988" cy="-833.0928" rx="51.7142" ry="51.7142"/>
<text text-anchor="middle" x="821.1988" y="-830.6928" font-family="Fira Code" font-size="12.00" fill="#242424">invert.js</text>
</g>
<!-- index.js&#45;&gt;invert.js -->
<g id="edge29" class="edge">
<title>index.js&#45;&gt;invert.js</title>
<path fill="none" stroke="#242424" d="M1155.1917,-1805.94C1084.0794,-1797.5767 950.7262,-1770.5304 887.1988,-1683.6345 843.6196,-1624.0247 845.3901,-1094.3833 839.1988,-1020.8025 835.6485,-978.6084 831.0909,-931.135 827.4502,-894.4875"/>
<polygon fill="#242424" stroke="#242424" points="830.9245,-894.0547 826.4492,-884.4514 823.959,-894.7495 830.9245,-894.0547"/>
</g>
<!-- iterate.js -->
<g id="node21" class="node">
<title>iterate.js</title>
<ellipse fill="none" stroke="#242424" stroke-width="4" cx="519.1988" cy="-833.0928" rx="56.412" ry="56.412"/>
<text text-anchor="middle" x="519.1988" y="-830.6928" font-family="Fira Code" font-size="12.00" fill="#242424">iterate.js</text>
</g>
<!-- index.js&#45;&gt;iterate.js -->
<g id="edge30" class="edge">
<title>index.js&#45;&gt;iterate.js</title>
<path fill="none" stroke="#242424" d="M1155.8573,-1801.5566C1060.5562,-1783.9406 847.7004,-1739.1858 802.1988,-1683.6345 757.3403,-1628.8683 777.7327,-1437.0343 768.1988,-1366.8863 747.2051,-1212.4192 797.7702,-1150.4414 711.1988,-1020.8025 674.2829,-965.5216 630.7878,-989.218 584.1988,-941.8025 570.2873,-927.6443 558.105,-909.9549 548.162,-892.9847"/>
<polygon fill="#242424" stroke="#242424" points="551.1528,-891.1637 543.1692,-884.1985 545.0668,-894.6221 551.1528,-891.1637"/>
</g>
<!-- math.js -->
<g id="node22" class="node">
<title>math.js</title>
<ellipse fill="none" stroke="#242424" stroke-width="4" cx="416.1988" cy="-1154.3444" rx="42.3196" ry="42.3196"/>
<text text-anchor="middle" x="416.1988" y="-1151.9444" font-family="Fira Code" font-size="12.00" fill="#242424">math.js</text>
</g>
<!-- index.js&#45;&gt;math.js -->
<g id="edge32" class="edge">
<title>index.js&#45;&gt;math.js</title>
<path fill="none" stroke="#242424" d="M1155.1473,-1805.17C997.6339,-1789.7431 496.0301,-1736.7824 448.1988,-1683.6345 327.215,-1549.2029 373.075,-1309.3889 400.9525,-1205.1064"/>
<polygon fill="#242424" stroke="#242424" points="404.4138,-1205.7172 403.6708,-1195.1484 397.6609,-1203.8737 404.4138,-1205.7172"/>
</g>
<!-- object.js -->
<g id="node23" class="node">
<title>object.js</title>
<ellipse fill="none" stroke="#242424" stroke-width="4" cx="1301.1988" cy="-1525.2604" rx="51.7142" ry="51.7142"/>
<text text-anchor="middle" x="1301.1988" y="-1522.8604" font-family="Fira Code" font-size="12.00" fill="#242424">object.js</text>
</g>
<!-- index.js&#45;&gt;object.js -->
<g id="edge33" class="edge">
<title>index.js&#45;&gt;object.js</title>
<path fill="none" stroke="#242424" d="M1217.6676,-1765.2081C1234.6646,-1716.3833 1262.0373,-1637.7537 1280.7844,-1583.9017"/>
<polygon fill="#242424" stroke="#242424" points="1284.1978,-1584.7423 1284.1801,-1574.1475 1277.5869,-1582.4409 1284.1978,-1584.7423"/>
</g>
<!-- path.js -->
<g id="node24" class="node">
<title>path.js</title>
<ellipse fill="none" stroke="#242424" stroke-width="4" cx="499.1988" cy="-1525.2604" rx="42.3196" ry="42.3196"/>
<text text-anchor="middle" x="499.1988" y="-1522.8604" font-family="Fira Code" font-size="12.00" fill="#242424">path.js</text>
</g>
<!-- index.js&#45;&gt;path.js -->
<g id="edge34" class="edge">
<title>index.js&#45;&gt;path.js</title>
<path fill="none" stroke="#242424" d="M1155.0775,-1805.9336C1023.957,-1794.7579 658.4833,-1757.538 567.1988,-1683.6345 534.7074,-1657.3296 517.4271,-1612.5673 508.4323,-1577.3278"/>
<polygon fill="#242424" stroke="#242424" points="511.7387,-1576.1061 506.0042,-1567.1973 504.9315,-1577.7377 511.7387,-1576.1061"/>
</g>
<!-- random&#45;floor.js -->
<g id="node25" class="node">
<title>random&#45;floor.js</title>
<ellipse fill="none" stroke="#242424" stroke-width="4" cx="672.1988" cy="-833.0928" rx="79.3981" ry="79.3981"/>
<text text-anchor="middle" x="672.1988" y="-830.6928" font-family="Fira Code" font-size="12.00" fill="#242424">random&#45;floor.js</text>
</g>
<!-- index.js&#45;&gt;random&#45;floor.js -->
<g id="edge35" class="edge">
<title>index.js&#45;&gt;random&#45;floor.js</title>
<path fill="none" stroke="#242424" d="M1156.0975,-1799.8888C1068.7894,-1780.4172 884.5959,-1734.2281 846.1988,-1683.6345 756.9468,-1566.0327 849.7291,-1160.2332 801.1988,-1020.8025 792.5288,-995.8931 757.865,-945.9722 726.6527,-903.871"/>
<polygon fill="#242424" stroke="#242424" points="729.4492,-901.7662 720.6687,-895.8371 723.8353,-905.9477 729.4492,-901.7662"/>
</g>
<!-- random&#45;shuffle.js -->
<g id="node26" class="node">
<title>random&#45;shuffle.js</title>
<ellipse fill="none" stroke="#0c821d" stroke-width="4" cx="3298.1988" cy="-1525.2604" rx="88.2923" ry="88.2923"/>
<text text-anchor="middle" x="3298.1988" y="-1522.8604" font-family="Fira Code" font-size="12.00" fill="#0c821d">random&#45;shuffle.js</text>
</g>
<!-- index.js&#45;&gt;random&#45;shuffle.js -->
<g id="edge36" class="edge">
<title>index.js&#45;&gt;random&#45;shuffle.js</title>
<path fill="none" stroke="#242424" d="M1249.3164,-1809.2378C1534.9153,-1806.4468 3027.744,-1786.9692 3200.1988,-1683.6345 3226.2391,-1668.0312 3246.3602,-1642.5712 3261.4014,-1616.5829"/>
<polygon fill="#242424" stroke="#242424" points="3264.5053,-1618.2029 3266.3088,-1607.7627 3258.3884,-1614.7995 3264.5053,-1618.2029"/>
</g>
<!-- random&#45;take.js -->
<g id="node27" class="node">
<title>random&#45;take.js</title>
<ellipse fill="none" stroke="#242424" stroke-width="4" cx="627.1988" cy="-1154.3444" rx="74.7005" ry="74.7005"/>
<text text-anchor="middle" x="627.1988" y="-1151.9444" font-family="Fira Code" font-size="12.00" fill="#242424">random&#45;take.js</text>
</g>
<!-- index.js&#45;&gt;random&#45;take.js -->
<g id="edge37" class="edge">
<title>index.js&#45;&gt;random&#45;take.js</title>
<path fill="none" stroke="#242424" d="M1154.9628,-1807.1619C1025.5722,-1799.2829 670.387,-1770.0353 600.1988,-1683.6345 546.3782,-1617.382 584.7557,-1369.1332 609.9579,-1237.5011"/>
<polygon fill="#242424" stroke="#242424" points="613.438,-1237.9384 611.8989,-1227.456 606.5652,-1236.6103 613.438,-1237.9384"/>
</g>
<!-- random&#45;word.js -->
<g id="node28" class="node">
<title>random&#45;word.js</title>
<ellipse fill="none" stroke="#242424" stroke-width="4" cx="684.1988" cy="-1525.2604" rx="74.7005" ry="74.7005"/>
<text text-anchor="middle" x="684.1988" y="-1522.8604" font-family="Fira Code" font-size="12.00" fill="#242424">random&#45;word.js</text>
</g>
<!-- index.js&#45;&gt;random&#45;word.js -->
<g id="edge38" class="edge">
<title>index.js&#45;&gt;random&#45;word.js</title>
<path fill="none" stroke="#242424" d="M1155.0407,-1807.2028C1069.9623,-1800.5354 888.9005,-1775.7248 773.1988,-1683.6345 747.48,-1663.1642 727.9512,-1633.1123 713.835,-1604.6732"/>
<polygon fill="#242424" stroke="#242424" points="716.921,-1603.0139 709.441,-1595.5106 710.6092,-1606.0408 716.921,-1603.0139"/>
</g>
<!-- random.js -->
<g id="node29" class="node">
<title>random.js</title>
<ellipse fill="none" stroke="#0c821d" stroke-width="4" cx="3456.1988" cy="-1525.2604" rx="51.7142" ry="51.7142"/>
<text text-anchor="middle" x="3456.1988" y="-1522.8604" font-family="Fira Code" font-size="12.00" fill="#0c821d">random.js</text>
</g>
<!-- index.js&#45;&gt;random.js -->
<g id="edge39" class="edge">
<title>index.js&#45;&gt;random.js</title>
<path fill="none" stroke="#242424" d="M1249.4485,-1808.3732C1560.5578,-1799.8347 3305.4205,-1749.1304 3395.1988,-1683.6345 3425.9629,-1661.1912 3441.2118,-1621.0433 3448.7702,-1586.7874"/>
<polygon fill="#242424" stroke="#242424" points="3452.2305,-1587.3346 3450.7912,-1576.8379 3445.3705,-1585.941 3452.2305,-1587.3346"/>
</g>
<!-- range.js -->
<g id="node30" class="node">
<title>range.js</title>
<ellipse fill="none" stroke="#242424" stroke-width="4" cx="901.1988" cy="-515.5992" rx="47.0167" ry="47.0167"/>
<text text-anchor="middle" x="901.1988" y="-513.1992" font-family="Fira Code" font-size="12.00" fill="#242424">range.js</text>
</g>
<!-- index.js&#45;&gt;range.js -->
<g id="edge40" class="edge">
<title>index.js&#45;&gt;range.js</title>
<path fill="none" stroke="#242424" d="M1159.3064,-1790.0571C1119.4918,-1769.4891 1062.0165,-1733.2216 1032.1988,-1683.6345 917.608,-1493.0694 903.1826,-780.3907 901.426,-572.7226"/>
<polygon fill="#242424" stroke="#242424" points="904.9254,-572.6143 901.3474,-562.6419 897.9256,-572.6689 904.9254,-572.6143"/>
</g>
<!-- reject.js -->
<g id="node31" class="node">
<title>reject.js</title>
<ellipse fill="none" stroke="#242424" stroke-width="4" cx="304.1988" cy="-1154.3444" rx="51.7142" ry="51.7142"/>
<text text-anchor="middle" x="304.1988" y="-1151.9444" font-family="Fira Code" font-size="12.00" fill="#242424">reject.js</text>
</g>
<!-- index.js&#45;&gt;reject.js -->
<g id="edge42" class="edge">
<title>index.js&#45;&gt;reject.js</title>
<path fill="none" stroke="#242424" d="M1155.1579,-1805.8738C986.7227,-1791.9367 420.7432,-1741.1395 365.1988,-1683.6345 242.4341,-1556.5364 268.9232,-1324.3844 290.2728,-1214.745"/>
<polygon fill="#242424" stroke="#242424" points="293.7242,-1215.3339 292.2526,-1204.8418 286.8601,-1213.9616 293.7242,-1215.3339"/>
</g>
<!-- string.js -->
<g id="node32" class="node">
<title>string.js</title>
<ellipse fill="none" stroke="#242424" stroke-width="4" cx="2688.1988" cy="-833.0928" rx="51.7142" ry="51.7142"/>
<text text-anchor="middle" x="2688.1988" y="-830.6928" font-family="Fira Code" font-size="12.00" fill="#242424">string.js</text>
</g>
<!-- index.js&#45;&gt;string.js -->
<g id="edge43" class="edge">
<title>index.js&#45;&gt;string.js</title>
<path fill="none" stroke="#242424" d="M1249.2309,-1806.611C1420.6576,-1795.1005 2011.0911,-1751.3061 2186.1988,-1683.6345 2472.51,-1572.9876 2610.3743,-1560.1043 2752.1988,-1287.8863 2820.3388,-1157.0984 2756.613,-977.9023 2715.9944,-888.5139"/>
<polygon fill="#242424" stroke="#242424" points="2719.1423,-886.9821 2711.7757,-879.3673 2712.7858,-889.9139 2719.1423,-886.9821"/>
</g>
<!-- ternary.js -->
<g id="node33" class="node">
<title>ternary.js</title>
<ellipse fill="none" stroke="#242424" stroke-width="4" cx="985.1988" cy="-833.0928" rx="56.412" ry="56.412"/>
<text text-anchor="middle" x="985.1988" y="-830.6928" font-family="Fira Code" font-size="12.00" fill="#242424">ternary.js</text>
</g>
<!-- index.js&#45;&gt;ternary.js -->
<g id="edge44" class="edge">
<title>index.js&#45;&gt;ternary.js</title>
<path fill="none" stroke="#242424" d="M1172.8041,-1772.634C1155.1796,-1748.5954 1133.8093,-1715.8423 1121.1988,-1683.6345 1012.7179,-1406.5695 990.7106,-1046.379 986.2889,-899.6582"/>
<polygon fill="#242424" stroke="#242424" points="989.782,-899.364 985.9999,-889.4673 982.7848,-899.5625 989.782,-899.364"/>
</g>
<!-- triplet.js -->
<g id="node34" class="node">
<title>triplet.js</title>
<ellipse fill="none" stroke="#242424" stroke-width="4" cx="2088.1988" cy="-1154.3444" rx="56.412" ry="56.412"/>
<text text-anchor="middle" x="2088.1988" y="-1151.9444" font-family="Fira Code" font-size="12.00" fill="#242424">triplet.js</text>
</g>
<!-- index.js&#45;&gt;triplet.js -->
<g id="edge45" class="edge">
<title>index.js&#45;&gt;triplet.js</title>
<path fill="none" stroke="#242424" d="M1249.1758,-1806.6156C1385.4814,-1796.9612 1777.5258,-1762.769 1874.1988,-1683.6345 2018.819,-1565.2514 2066.4957,-1334.1106 2081.5789,-1220.5426"/>
<polygon fill="#242424" stroke="#242424" points="2085.055,-1220.9518 2082.8572,-1210.5874 2078.112,-1220.0601 2085.055,-1220.9518"/>
</g>
<!-- which.js -->
<g id="node35" class="node">
<title>which.js</title>
<ellipse fill="none" stroke="#242424" stroke-width="4" cx="2130.1988" cy="-1525.2604" rx="47.0167" ry="47.0167"/>
<text text-anchor="middle" x="2130.1988" y="-1522.8604" font-family="Fira Code" font-size="12.00" fill="#242424">which.js</text>
</g>
<!-- index.js&#45;&gt;which.js -->
<g id="edge47" class="edge">
<title>index.js&#45;&gt;which.js</title>
<path fill="none" stroke="#242424" d="M1249.3919,-1808.2277C1408.1449,-1802.6282 1920.1682,-1777.5055 2050.1988,-1683.6345 2084.215,-1659.0777 2104.6801,-1615.8241 2116.385,-1580.7181"/>
<polygon fill="#242424" stroke="#242424" points="2119.7628,-1581.6453 2119.458,-1571.0548 2113.092,-1579.5238 2119.7628,-1581.6453"/>
</g>
<!-- invert.js&#45;&gt;Ⓜ katsu&#45;curry/katsu&#45;curry.js -->
<g id="edge48" class="edge">
<title>invert.js&#45;&gt;Ⓜ katsu&#45;curry/katsu&#45;curry.js</title>
<path fill="none" stroke="#242424" d="M820.9162,-781.4737C821.1416,-697.8995 824.4358,-527.9761 845.1988,-385.8153 848.7333,-361.6151 853.6079,-336.2417 859.0182,-311.5175"/>
<polygon fill="#242424" stroke="#242424" points="862.4449,-312.2315 861.1992,-301.7101 855.6118,-310.7118 862.4449,-312.2315"/>
</g>
<!-- iterate.js&#45;&gt;Ⓜ katsu&#45;curry/katsu&#45;curry.js -->
<g id="edge49" class="edge">
<title>iterate.js&#45;&gt;Ⓜ katsu&#45;curry/katsu&#45;curry.js</title>
<path fill="none" stroke="#242424" d="M540.3495,-780.8653C575.6425,-695.7196 650.7491,-522.7526 732.1988,-385.8153 752.7119,-351.3277 777.0181,-315.5689 800.7089,-282.7423"/>
<polygon fill="#242424" stroke="#242424" points="803.6766,-284.6118 806.716,-274.4623 798.0107,-280.5012 803.6766,-284.6118"/>
</g>
<!-- math.js&#45;&gt;Ⓜ katsu&#45;curry/katsu&#45;curry.js -->
<g id="edge57" class="edge">
<title>math.js&#45;&gt;Ⓜ katsu&#45;curry/katsu&#45;curry.js</title>
<path fill="none" stroke="#242424" d="M401.1778,-1114.5084C382.0129,-1062.8832 350.6781,-975.4982 345.1988,-941.8025 325.3684,-819.8516 276.7225,-488.6563 345.1988,-385.8153 432.0857,-255.3246 607.7526,-197.9686 738.498,-172.8391"/>
<polygon fill="#242424" stroke="#242424" points="739.4395,-176.2236 748.6228,-170.9399 738.1489,-169.3436 739.4395,-176.2236"/>
</g>
<!-- object.js&#45;&gt;Ⓜ katsu&#45;curry/katsu&#45;curry.js -->
<g id="edge58" class="edge">
<title>object.js&#45;&gt;Ⓜ katsu&#45;curry/katsu&#45;curry.js</title>
<path fill="none" stroke="#242424" d="M1301.7854,-1473.2788C1303.5504,-1352.0935 1310.2733,-1058.2426 1334.1988,-1020.8025 1373.7168,-958.9624 1441.7213,-1004.9002 1479.1988,-941.8025 1542.613,-835.0374 1499.1301,-484.073 1423.1988,-385.8153 1335.5836,-272.4381 1180.6626,-213.0147 1062.2774,-182.7545"/>
<polygon fill="#242424" stroke="#242424" points="1062.9332,-179.3106 1052.382,-180.271 1061.2292,-186.1 1062.9332,-179.3106"/>
</g>
<!-- object.js&#45;&gt;map.js -->
<g id="edge59" class="edge">
<title>object.js&#45;&gt;map.js</title>
<path fill="none" stroke="#242424" d="M1294.023,-1474.0756C1283.9395,-1402.1495 1265.714,-1272.1476 1255.8958,-1202.1144"/>
<polygon fill="#242424" stroke="#242424" points="1259.3071,-1201.2363 1254.4525,-1191.819 1252.3748,-1202.2082 1259.3071,-1201.2363"/>
</g>
<!-- object.js&#45;&gt;reduce.js -->
<g id="edge60" class="edge">
<title>object.js&#45;&gt;reduce.js</title>
<path fill="none" stroke="#242424" d="M1313.9739,-1474.851C1331.1375,-1407.125 1361.6008,-1286.9193 1379.9461,-1214.5302"/>
<polygon fill="#242424" stroke="#242424" points="1383.3877,-1215.197 1382.4517,-1204.6436 1376.6022,-1213.4774 1383.3877,-1215.197"/>
</g>
<!-- path.js&#45;&gt;Ⓜ katsu&#45;curry/katsu&#45;curry.js -->
<g id="edge61" class="edge">
<title>path.js&#45;&gt;Ⓜ katsu&#45;curry/katsu&#45;curry.js</title>
<path fill="none" stroke="#242424" d="M499.5932,-1482.8402C500.0846,-1377.2583 498.208,-1105.121 467.1988,-1020.8025 452.073,-979.6734 422.0145,-983.39 408.1988,-941.8025 385.9403,-874.8006 394.4773,-419.4236 416.1988,-385.8153 488.0373,-274.6641 629.0097,-215.3499 740.5355,-184.5452"/>
<polygon fill="#242424" stroke="#242424" points="741.473,-187.9174 750.2095,-181.9238 739.6421,-181.1611 741.473,-187.9174"/>
</g>
<!-- path.js&#45;&gt;reduce.js -->
<g id="edge63" class="edge">
<title>path.js&#45;&gt;reduce.js</title>
<path fill="none" stroke="#242424" d="M513.1991,-1485.0436C528.4407,-1447.763 556.6291,-1394.0846 600.1988,-1366.8863 864.2865,-1202.0301 1026.4858,-1443.3688 1296.1988,-1287.8863 1327.1082,-1270.0679 1351.2512,-1238.318 1367.955,-1210.2466"/>
<polygon fill="#242424" stroke="#242424" points="1371.1589,-1211.6965 1373.1161,-1201.284 1365.0927,-1208.2033 1371.1589,-1211.6965"/>
</g>
<!-- path.js&#45;&gt;math.js -->
<g id="edge62" class="edge">
<title>path.js&#45;&gt;math.js</title>
<path fill="none" stroke="#242424" d="M489.9193,-1483.7913C474.6677,-1415.6339 444.3398,-1280.1028 427.7315,-1205.8825"/>
<polygon fill="#242424" stroke="#242424" points="431.0814,-1204.8243 425.482,-1195.83 424.2503,-1206.353 431.0814,-1204.8243"/>
</g>
<!-- random&#45;floor.js&#45;&gt;Ⓜ katsu&#45;curry/katsu&#45;curry.js -->
<g id="edge64" class="edge">
<title>random&#45;floor.js&#45;&gt;Ⓜ katsu&#45;curry/katsu&#45;curry.js</title>
<path fill="none" stroke="#242424" d="M696.8433,-757.3928C725.9268,-668.345 775.9365,-516.1195 820.1988,-385.8153 828.7668,-360.592 837.9655,-333.8706 846.9796,-307.8766"/>
<polygon fill="#242424" stroke="#242424" points="850.3182,-308.9317 850.2907,-298.3369 843.7052,-306.6364 850.3182,-308.9317"/>
</g>
<!-- random&#45;take.js&#45;&gt;Ⓜ katsu&#45;curry/katsu&#45;curry.js -->
<g id="edge65" class="edge">
<title>random&#45;take.js&#45;&gt;Ⓜ katsu&#45;curry/katsu&#45;curry.js</title>
<path fill="none" stroke="#242424" d="M588.5917,-1090.0526C573.8803,-1067.3579 556.2793,-1042.1833 538.1988,-1020.8025 505.1058,-981.6691 474.535,-988.8451 454.1988,-941.8025 415.8554,-853.1047 434.6635,-819.0186 454.1988,-724.383 487.3273,-563.8973 499.7004,-515.2495 600.1988,-385.8153 644.3921,-328.8977 705.6168,-278.2676 761.3165,-238.9099"/>
<polygon fill="#242424" stroke="#242424" points="763.6623,-241.5402 769.8478,-232.9385 759.6482,-235.8055 763.6623,-241.5402"/>
</g>
<!-- random&#45;take.js&#45;&gt;iterate.js -->
<g id="edge66" class="edge">
<title>random&#45;take.js&#45;&gt;iterate.js</title>
<path fill="none" stroke="#242424" d="M603.3641,-1083.4467C584.563,-1027.5221 558.579,-950.2313 540.4742,-896.3774"/>
<polygon fill="#242424" stroke="#242424" points="543.693,-894.9683 537.1888,-886.6049 537.0579,-897.1989 543.693,-894.9683"/>
</g>
<!-- random&#45;take.js&#45;&gt;random&#45;floor.js -->
<g id="edge67" class="edge">
<title>random&#45;take.js&#45;&gt;random&#45;floor.js</title>
<path fill="none" stroke="#242424" d="M637.5792,-1080.2394C644.1964,-1032.9998 652.807,-971.5292 659.7854,-921.7114"/>
<polygon fill="#242424" stroke="#242424" points="663.2821,-921.9783 661.2032,-911.5894 656.3498,-921.0072 663.2821,-921.9783"/>
</g>
<!-- random&#45;word.js&#45;&gt;Ⓜ katsu&#45;curry/katsu&#45;curry.js -->
<g id="edge68" class="edge">
<title>random&#45;word.js&#45;&gt;Ⓜ katsu&#45;curry/katsu&#45;curry.js</title>
<path fill="none" stroke="#242424" d="M639.6906,-1465.007C607.8194,-1418.8415 566.5614,-1352.3259 543.1988,-1287.8863 502.2186,-1174.8533 552.4255,-1129.0994 500.1988,-1020.8025 479.5632,-978.0127 445.3571,-986.1013 428.1988,-941.8025 393.2973,-851.6947 422.5202,-820.8469 428.1988,-724.383 437.1031,-573.1238 382.9069,-511.0508 468.1988,-385.8153 532.5126,-291.3823 648.0273,-232.1501 743.5767,-197.1319"/>
<polygon fill="#242424" stroke="#242424" points="744.8338,-200.3993 753.0529,-193.7138 742.4586,-193.8146 744.8338,-200.3993"/>
</g>
<!-- random&#45;word.js&#45;&gt;array.js -->
<g id="edge69" class="edge">
<title>random&#45;word.js&#45;&gt;array.js</title>
<path fill="none" stroke="#242424" d="M740.3699,-1476.0056C825.9755,-1400.9407 987.2456,-1259.5278 1064.2112,-1192.039"/>
<polygon fill="#242424" stroke="#242424" points="1066.6249,-1194.5775 1071.8362,-1185.3529 1062.0098,-1189.3143 1066.6249,-1194.5775"/>
</g>
<!-- random&#45;word.js&#45;&gt;random&#45;take.js -->
<g id="edge70" class="edge">
<title>random&#45;word.js&#45;&gt;random&#45;take.js</title>
<path fill="none" stroke="#242424" d="M672.801,-1451.0915C663.3644,-1389.6847 649.9582,-1302.4468 640.1235,-1238.449"/>
<polygon fill="#242424" stroke="#242424" points="643.5552,-1237.7371 638.5769,-1228.3848 636.6365,-1238.8004 643.5552,-1237.7371"/>
</g>
<!-- range.js&#45;&gt;Ⓜ katsu&#45;curry/katsu&#45;curry.js -->
<g id="edge71" class="edge">
<title>range.js&#45;&gt;Ⓜ katsu&#45;curry/katsu&#45;curry.js</title>
<path fill="none" stroke="#242424" d="M901.1988,-468.249C901.1988,-429.5284 901.1988,-372.3771 901.1988,-317.356"/>
<polygon fill="#242424" stroke="#242424" points="904.6989,-317.112 901.1988,-307.112 897.6989,-317.1121 904.6989,-317.112"/>
</g>
<!-- reject.js&#45;&gt;Ⓜ katsu&#45;curry/katsu&#45;curry.js -->
<g id="edge74" class="edge">
<title>reject.js&#45;&gt;Ⓜ katsu&#45;curry/katsu&#45;curry.js</title>
<path fill="none" stroke="#242424" d="M297.0962,-1103.0336C277.0555,-950.3238 226.5168,-502.1587 306.1988,-385.8153 357.2209,-311.3182 584.0809,-237.5594 742.4347,-193.7425"/>
<polygon fill="#242424" stroke="#242424" points="743.5764,-197.0585 752.2888,-191.0299 741.7185,-190.3095 743.5764,-197.0585"/>
</g>
<!-- reject.js&#45;&gt;filter.js -->
<g id="edge75" class="edge">
<title>reject.js&#45;&gt;filter.js</title>
<path fill="none" stroke="#242424" d="M314.407,-1103.6305C322.9676,-1074.6808 338.2937,-1040.3605 365.1988,-1020.8025 613.0872,-840.6067 767.0755,-1059.1074 1050.1988,-941.8025 1085.4068,-927.215 1119.0235,-900.7992 1144.1457,-877.6605"/>
<polygon fill="#242424" stroke="#242424" points="1146.7687,-879.9986 1151.6619,-870.6014 1141.9765,-874.8961 1146.7687,-879.9986"/>
</g>
<!-- string.js&#45;&gt;Ⓜ entrust/entrust.js -->
<g id="edge76" class="edge">
<title>string.js&#45;&gt;Ⓜ entrust/entrust.js</title>
<path fill="none" stroke="#242424" d="M2680.7468,-781.8223C2675.5576,-744.1552 2668.9236,-691.6911 2665.1988,-645.383 2655.1446,-520.3836 2650.3741,-377.075 2648.1334,-277.4969"/>
<polygon fill="#242424" stroke="#242424" points="2651.6303,-277.3153 2647.9114,-267.3946 2644.632,-277.4692 2651.6303,-277.3153"/>
</g>
<!-- ternary.js&#45;&gt;Ⓜ katsu&#45;curry/katsu&#45;curry.js -->
<g id="edge77" class="edge">
<title>ternary.js&#45;&gt;Ⓜ katsu&#45;curry/katsu&#45;curry.js</title>
<path fill="none" stroke="#242424" d="M984.803,-776.6266C983.4993,-691.4596 978.2007,-525.263 957.1988,-385.8153 953.5565,-361.6311 948.6238,-336.2663 943.1877,-311.5459"/>
<polygon fill="#242424" stroke="#242424" points="946.5933,-310.7367 940.9982,-301.7398 939.7616,-312.2622 946.5933,-310.7367"/>
</g>
<!-- triplet.js&#45;&gt;Ⓜ katsu&#45;curry/katsu&#45;curry.js -->
<g id="edge78" class="edge">
<title>triplet.js&#45;&gt;Ⓜ katsu&#45;curry/katsu&#45;curry.js</title>
<path fill="none" stroke="#242424" d="M2100.0849,-1099.3944C2126.7559,-959.8902 2175.2707,-588.7382 1988.1988,-385.8153 1865.21,-252.4054 1336.3651,-189.5874 1064.292,-165.6393"/>
<polygon fill="#242424" stroke="#242424" points="1064.5907,-162.1521 1054.3242,-164.7692 1063.9819,-169.1256 1064.5907,-162.1521"/>
</g>
<!-- which.js&#45;&gt;Ⓜ katsu&#45;curry/katsu&#45;curry.js -->
<g id="edge82" class="edge">
<title>which.js&#45;&gt;Ⓜ katsu&#45;curry/katsu&#45;curry.js</title>
<path fill="none" stroke="#242424" d="M2136.0737,-1478.5163C2141.7646,-1430.7134 2149.9906,-1354.2619 2153.1988,-1287.8863 2172.6545,-885.3561 2349.4326,-667.4719 2061.1988,-385.8153 1921.5554,-249.3584 1349.5383,-187.4008 1064.3787,-164.549"/>
<polygon fill="#242424" stroke="#242424" points="1064.6028,-161.0559 1054.3569,-163.7525 1064.0481,-168.0339 1064.6028,-161.0559"/>
</g>
<!-- which.js&#45;&gt;flip.js -->
<g id="edge83" class="edge">
<title>which.js&#45;&gt;flip.js</title>
<path fill="none" stroke="#242424" d="M2110.1928,-1482.6724C2088.1717,-1435.3904 2052.0661,-1356.6603 2023.1988,-1287.8863 2011.5865,-1260.2209 1999.3754,-1228.9863 1989.7066,-1203.6844"/>
<polygon fill="#242424" stroke="#242424" points="1992.9617,-1202.3972 1986.132,-1194.2975 1986.42,-1204.8884 1992.9617,-1202.3972"/>
</g>
<!-- which.js&#45;&gt;triplet.js -->
<g id="edge84" class="edge">
<title>which.js&#45;&gt;triplet.js</title>
<path fill="none" stroke="#242424" d="M2124.8795,-1478.2837C2117.4903,-1413.0272 2104.0833,-1294.6255 2095.6863,-1220.4689"/>
<polygon fill="#242424" stroke="#242424" points="2099.1389,-1219.8516 2094.5358,-1210.3089 2092.1833,-1220.6392 2099.1389,-1219.8516"/>
</g>
<!-- Ⓜ fast.js/array/every.js -->
<g id="node43" class="node">
<title>Ⓜ fast.js/array/every.js</title>
<ellipse fill="none" stroke="#0c821d" stroke-width="4" cx="2609.1988" cy="-1154.3444" rx="133.5838" ry="133.5838"/>
<text text-anchor="middle" x="2609.1988" y="-1153.1444" font-family="Fira Code" font-size="12.00" fill="#0c821d">Ⓜ fast.js/array/every.js</text>
</g>
<!-- which.js&#45;&gt;Ⓜ fast.js/array/every.js -->
<g id="edge80" class="edge">
<title>which.js&#45;&gt;Ⓜ fast.js/array/every.js</title>
<path fill="none" stroke="#242424" d="M2169.911,-1499.9216C2234.2978,-1458.2658 2364.6026,-1371.5642 2467.1988,-1287.8863 2480.0236,-1277.4264 2493.1303,-1266.0897 2505.9433,-1254.5928"/>
<polygon fill="#242424" stroke="#242424" points="2508.376,-1257.1119 2513.4491,-1247.8105 2503.6829,-1251.9181 2508.376,-1257.1119"/>
</g>
<!-- Ⓜ fast.js/array/some.js -->
<g id="node44" class="node">
<title>Ⓜ fast.js/array/some.js</title>
<ellipse fill="none" stroke="#0c821d" stroke-width="4" cx="2329.1988" cy="-1154.3444" rx="128.651" ry="128.651"/>
<text text-anchor="middle" x="2329.1988" y="-1153.1444" font-family="Fira Code" font-size="12.00" fill="#0c821d">Ⓜ fast.js/array/some.js</text>
</g>
<!-- which.js&#45;&gt;Ⓜ fast.js/array/some.js -->
<g id="edge81" class="edge">
<title>which.js&#45;&gt;Ⓜ fast.js/array/some.js</title>
<path fill="none" stroke="#242424" d="M2152.4474,-1483.7913C2179.146,-1434.0278 2225.1138,-1348.3484 2263.479,-1276.8396"/>
<polygon fill="#242424" stroke="#242424" points="2266.7142,-1278.2126 2268.3578,-1267.746 2260.5459,-1274.9032 2266.7142,-1278.2126"/>
</g>
<!-- map&#45;performance.fixture.js -->
<g id="node36" class="node">
<title>map&#45;performance.fixture.js</title>
<ellipse fill="none" stroke="#242424" stroke-width="4" cx="3111.1988" cy="-515.5992" rx="129.5681" ry="129.5681"/>
<text text-anchor="middle" x="3111.1988" y="-513.1992" font-family="Fira Code" font-size="12.00" fill="#242424">map&#45;performance.fixture.js</text>
</g>
<!-- map&#45;performance.fixture.js&#45;&gt;Ⓜ entrust/entrust.js -->
<g id="edge50" class="edge">
<title>map&#45;performance.fixture.js&#45;&gt;Ⓜ entrust/entrust.js</title>
<path fill="none" stroke="#242424" d="M3002.3225,-444.4355C2972.0559,-425.0791 2939.03,-404.3506 2908.1988,-385.8153 2846.9673,-349.0037 2822.5498,-353.1873 2768.1988,-306.8153 2750.3045,-291.548 2733.1787,-273.3405 2717.7112,-254.894"/>
<polygon fill="#242424" stroke="#242424" points="2720.2488,-252.4699 2711.1863,-246.9815 2714.8482,-256.9234 2720.2488,-252.4699"/>
</g>
<!-- Ⓜ fast.js/index.js -->
<g id="node37" class="node">
<title>Ⓜ fast.js/index.js</title>
<ellipse fill="none" stroke="#0c821d" stroke-width="4" cx="3341.1988" cy="-153.4077" rx="103.9872" ry="103.9872"/>
<text text-anchor="middle" x="3341.1988" y="-152.2077" font-family="Fira Code" font-size="12.00" fill="#0c821d">Ⓜ fast.js/index.js</text>
</g>
<!-- map&#45;performance.fixture.js&#45;&gt;Ⓜ fast.js/index.js -->
<g id="edge51" class="edge">
<title>map&#45;performance.fixture.js&#45;&gt;Ⓜ fast.js/index.js</title>
<path fill="none" stroke="#242424" d="M3180.8306,-405.9469C3212.4491,-356.1558 3249.5168,-297.7835 3280.0456,-249.7085"/>
<polygon fill="#242424" stroke="#242424" points="3283.0651,-251.4825 3285.4712,-241.1644 3277.1559,-247.7299 3283.0651,-251.4825"/>
</g>
<!-- Ⓜ ramda/src/curry.js -->
<g id="node38" class="node">
<title>Ⓜ ramda/src/curry.js</title>
<ellipse fill="none" stroke="#0c821d" stroke-width="4" cx="3576.1988" cy="-153.4077" rx="113.8526" ry="113.8526"/>
<text text-anchor="middle" x="3576.1988" y="-152.2077" font-family="Fira Code" font-size="12.00" fill="#0c821d">Ⓜ ramda/src/curry.js</text>
</g>
<!-- map&#45;performance.fixture.js&#45;&gt;Ⓜ ramda/src/curry.js -->
<g id="edge52" class="edge">
<title>map&#45;performance.fixture.js&#45;&gt;Ⓜ ramda/src/curry.js</title>
<path fill="none" stroke="#242424" d="M3227.6865,-458.0884C3297.5025,-420.4851 3385.714,-367.2297 3454.1988,-306.8153 3471.8384,-291.2544 3488.847,-272.9119 3504.2793,-254.4246"/>
<polygon fill="#242424" stroke="#242424" points="3507.147,-256.4478 3510.7939,-246.5003 3501.7397,-252.0024 3507.147,-256.4478"/>
</g>
<!-- Ⓜ ramda/src/map.js -->
<g id="node39" class="node">
<title>Ⓜ ramda/src/map.js</title>
<ellipse fill="none" stroke="#0c821d" stroke-width="4" cx="2881.1988" cy="-153.4077" rx="103.9872" ry="103.9872"/>
<text text-anchor="middle" x="2881.1988" y="-152.2077" font-family="Fira Code" font-size="12.00" fill="#0c821d">Ⓜ ramda/src/map.js</text>
</g>
<!-- map&#45;performance.fixture.js&#45;&gt;Ⓜ ramda/src/map.js -->
<g id="edge53" class="edge">
<title>map&#45;performance.fixture.js&#45;&gt;Ⓜ ramda/src/map.js</title>
<path fill="none" stroke="#242424" d="M3041.5671,-405.9469C3009.9486,-356.1558 2972.8808,-297.7835 2942.3521,-249.7085"/>
<polygon fill="#242424" stroke="#242424" points="2945.2418,-247.7299 2936.9264,-241.1644 2939.3325,-251.4825 2945.2418,-247.7299"/>
</g>
<!-- Ⓜ testperf/index.js -->
<g id="node40" class="node">
<title>Ⓜ testperf/index.js</title>
<ellipse fill="none" stroke="#0c821d" stroke-width="4" cx="3111.1988" cy="-153.4077" rx="108.9199" ry="108.9199"/>
<text text-anchor="middle" x="3111.1988" y="-152.2077" font-family="Fira Code" font-size="12.00" fill="#0c821d">Ⓜ testperf/index.js</text>
</g>
<!-- map&#45;performance.fixture.js&#45;&gt;Ⓜ testperf/index.js -->
<g id="edge54" class="edge">
<title>map&#45;performance.fixture.js&#45;&gt;Ⓜ testperf/index.js</title>
<path fill="none" stroke="#242424" d="M3111.1988,-385.6071C3111.1988,-348.7009 3111.1988,-308.7106 3111.1988,-272.4856"/>
<polygon fill="#242424" stroke="#242424" points="3114.6989,-272.3739 3111.1988,-262.3739 3107.6989,-272.3739 3114.6989,-272.3739"/>
</g>
</g>
</svg>
