<?xml version="1.0" encoding="UTF-8" standalone="no"?>
<!DOCTYPE svg PUBLIC "-//W3C//DTD SVG 1.1//EN"
 "http://www.w3.org/Graphics/SVG/1.1/DTD/svg11.dtd">
<!-- Generated by graphviz version 2.40.1 (20161225.0304)
 -->
<!-- Title: G Pages: 1 -->
<svg width="4014pt" height="1744pt"
 viewBox="0.00 0.00 4013.86 1744.08" xmlns="http://www.w3.org/2000/svg" xmlns:xlink="http://www.w3.org/1999/xlink">
<g id="graph0" class="graph" transform="scale(1 1) rotate(0) translate(7.992 1736.0912)">
<title>G</title>
<polygon fill="#eeeeff" stroke="transparent" points="-7.992,7.992 -7.992,-1736.0912 4005.867,-1736.0912 4005.867,7.992 -7.992,7.992"/>
<!-- ../package.json -->
<g id="node1" class="node">
<title>../package.json</title>
<ellipse fill="none" stroke="#0c821d" stroke-width="4" cx="79.1988" cy="-1431.4735" rx="79.3981" ry="79.3981"/>
<text text-anchor="middle" x="79.1988" y="-1429.0735" font-family="Fira Code" font-size="12.00" fill="#0c821d">../package.json</text>
</g>
<!-- ap.js -->
<g id="node2" class="node">
<title>ap.js</title>
<ellipse fill="none" stroke="#242424" stroke-width="4" cx="823.1988" cy="-1431.4735" rx="33.4262" ry="33.4262"/>
<text text-anchor="middle" x="823.1988" y="-1429.0735" font-family="Fira Code" font-size="12.00" fill="#242424">ap.js</text>
</g>
<!-- Ⓜ katsu&#45;curry/katsu&#45;curry.js -->
<g id="node3" class="node">
<title>Ⓜ katsu&#45;curry/katsu&#45;curry.js</title>
<ellipse fill="none" stroke="#0c821d" stroke-width="4" cx="1314.1988" cy="-153.4077" rx="153.3154" ry="153.3154"/>
<text text-anchor="middle" x="1314.1988" y="-152.2077" font-family="Fira Code" font-size="12.00" fill="#0c821d">Ⓜ katsu&#45;curry/katsu&#45;curry.js</text>
</g>
<!-- ap.js&#45;&gt;Ⓜ katsu&#45;curry/katsu&#45;curry.js -->
<g id="edge1" class="edge">
<title>ap.js&#45;&gt;Ⓜ katsu&#45;curry/katsu&#45;curry.js</title>
<path fill="none" stroke="#242424" d="M830.5506,-1399.0309C839.2866,-1359.1814 853.6292,-1289.4125 861.1988,-1228.8645 908.4099,-851.231 788.2408,-694.2398 1011.1988,-385.8153 1053.9557,-326.6684 1115.9704,-275.4138 1172.7738,-236.2011"/>
<polygon fill="#242424" stroke="#242424" points="1174.8311,-239.0345 1181.1139,-230.5035 1170.8824,-233.2545 1174.8311,-239.0345"/>
</g>
<!-- map.js -->
<g id="node4" class="node">
<title>map.js</title>
<ellipse fill="none" stroke="#242424" stroke-width="4" cx="630.1988" cy="-803.5818" rx="37.623" ry="37.623"/>
<text text-anchor="middle" x="630.1988" y="-801.1819" font-family="Fira Code" font-size="12.00" fill="#242424">map.js</text>
</g>
<!-- ap.js&#45;&gt;map.js -->
<g id="edge2" class="edge">
<title>ap.js&#45;&gt;map.js</title>
<path fill="none" stroke="#242424" d="M812.9982,-1399.5756C800.2721,-1359.6904 777.9071,-1289.2985 759.1988,-1228.8645 722.5168,-1110.3695 714.2064,-1080.4823 678.1988,-961.7807 666.7715,-924.1099 653.8108,-881.3943 644.2398,-849.8528"/>
<polygon fill="#242424" stroke="#242424" points="647.5107,-848.5781 641.2578,-840.0252 640.8123,-850.6107 647.5107,-848.5781"/>
</g>
<!-- reduce.js -->
<g id="node5" class="node">
<title>reduce.js</title>
<ellipse fill="none" stroke="#242424" stroke-width="4" cx="954.1988" cy="-803.5818" rx="51.7142" ry="51.7142"/>
<text text-anchor="middle" x="954.1988" y="-801.1819" font-family="Fira Code" font-size="12.00" fill="#242424">reduce.js</text>
</g>
<!-- ap.js&#45;&gt;reduce.js -->
<g id="edge3" class="edge">
<title>ap.js&#45;&gt;reduce.js</title>
<path fill="none" stroke="#242424" d="M834.9651,-1400.3152C852.9613,-1352.2746 886.0942,-1262.1836 894.1988,-1228.8645 925.1583,-1101.5853 941.8817,-948.7238 949.3284,-865.3261"/>
<polygon fill="#242424" stroke="#242424" points="952.824,-865.528 950.2121,-855.2602 945.8508,-864.9158 952.824,-865.528"/>
</g>
<!-- types.js -->
<g id="node6" class="node">
<title>types.js</title>
<ellipse fill="none" stroke="#242424" stroke-width="4" cx="1033.1988" cy="-1095.3226" rx="47.0167" ry="47.0167"/>
<text text-anchor="middle" x="1033.1988" y="-1092.9226" font-family="Fira Code" font-size="12.00" fill="#242424">types.js</text>
</g>
<!-- ap.js&#45;&gt;types.js -->
<g id="edge4" class="edge">
<title>ap.js&#45;&gt;types.js</title>
<path fill="none" stroke="#242424" d="M840.9223,-1403.1032C876.7671,-1345.7258 958.237,-1215.3154 1002.7591,-1144.048"/>
<polygon fill="#242424" stroke="#242424" points="1005.9326,-1145.5741 1008.2625,-1135.2386 999.9958,-1141.8652 1005.9326,-1145.5741"/>
</g>
<!-- map.js&#45;&gt;Ⓜ katsu&#45;curry/katsu&#45;curry.js -->
<g id="edge88" class="edge">
<title>map.js&#45;&gt;Ⓜ katsu&#45;curry/katsu&#45;curry.js</title>
<path fill="none" stroke="#242424" d="M647.7903,-769.9349C663.5044,-738.5182 686.0193,-689.9177 699.1988,-645.383 732.3821,-533.2544 669.1701,-477.1431 742.1988,-385.8153 842.3458,-260.5741 1020.7853,-202.3425 1151.8106,-175.5723"/>
<polygon fill="#242424" stroke="#242424" points="1152.8332,-178.9371 1161.9523,-173.5434 1151.46,-172.0731 1152.8332,-178.9371"/>
</g>
<!-- Ⓜ fast.js/map.js -->
<g id="node46" class="node">
<title>Ⓜ fast.js/map.js</title>
<ellipse fill="none" stroke="#0c821d" stroke-width="4" cx="596.1988" cy="-515.5992" rx="93.6213" ry="93.6213"/>
<text text-anchor="middle" x="596.1988" y="-514.3992" font-family="Fira Code" font-size="12.00" fill="#0c821d">Ⓜ fast.js/map.js</text>
</g>
<!-- map.js&#45;&gt;Ⓜ fast.js/map.js -->
<g id="edge87" class="edge">
<title>map.js&#45;&gt;Ⓜ fast.js/map.js</title>
<path fill="none" stroke="#242424" d="M625.7539,-765.9331C621.3664,-728.7702 614.4578,-670.2546 608.4231,-619.14"/>
<polygon fill="#242424" stroke="#242424" points="611.8773,-618.5449 607.2288,-609.0243 604.9255,-619.3657 611.8773,-618.5449"/>
</g>
<!-- delegate&#45;fast.js -->
<g id="node12" class="node">
<title>delegate&#45;fast.js</title>
<ellipse fill="none" stroke="#242424" stroke-width="4" cx="2098.1988" cy="-515.5992" rx="83.5954" ry="83.5954"/>
<text text-anchor="middle" x="2098.1988" y="-513.1992" font-family="Fira Code" font-size="12.00" fill="#242424">delegate&#45;fast.js</text>
</g>
<!-- reduce.js&#45;&gt;delegate&#45;fast.js -->
<g id="edge105" class="edge">
<title>reduce.js&#45;&gt;delegate&#45;fast.js</title>
<path fill="none" stroke="#242424" d="M1004.4603,-790.9294C1181.3335,-746.4045 1776.7104,-596.5284 2006.5773,-538.6633"/>
<polygon fill="#242424" stroke="#242424" points="2007.7411,-541.9796 2016.5841,-536.1443 2006.0322,-535.1914 2007.7411,-541.9796"/>
</g>
<!-- Ⓜ fast.js/reduce.js -->
<g id="node18" class="node">
<title>Ⓜ fast.js/reduce.js</title>
<ellipse fill="none" stroke="#0c821d" stroke-width="4" cx="1139.1988" cy="-515.5992" rx="108.9199" ry="108.9199"/>
<text text-anchor="middle" x="1139.1988" y="-514.3992" font-family="Fira Code" font-size="12.00" fill="#0c821d">Ⓜ fast.js/reduce.js</text>
</g>
<!-- reduce.js&#45;&gt;Ⓜ fast.js/reduce.js -->
<g id="edge104" class="edge">
<title>reduce.js&#45;&gt;Ⓜ fast.js/reduce.js</title>
<path fill="none" stroke="#242424" d="M982.0955,-760.1561C1006.6185,-721.9821 1043.2412,-664.9728 1074.9596,-615.5979"/>
<polygon fill="#242424" stroke="#242424" points="1077.9518,-617.4158 1080.4119,-607.1105 1072.0623,-613.6323 1077.9518,-617.4158"/>
</g>
<!-- types.js&#45;&gt;Ⓜ katsu&#45;curry/katsu&#45;curry.js -->
<g id="edge112" class="edge">
<title>types.js&#45;&gt;Ⓜ katsu&#45;curry/katsu&#45;curry.js</title>
<path fill="none" stroke="#242424" d="M1031.2438,-1048.314C1025.0065,-894.6902 1006.8111,-415.5919 1021.1988,-385.8153 1052.6318,-320.7619 1112.0991,-268.3508 1169.2898,-229.8829"/>
<polygon fill="#242424" stroke="#242424" points="1171.3024,-232.7481 1177.7076,-224.3087 1167.4375,-226.9117 1171.3024,-232.7481"/>
</g>
<!-- array.js -->
<g id="node7" class="node">
<title>array.js</title>
<ellipse fill="none" stroke="#242424" stroke-width="4" cx="2113.1988" cy="-1095.3226" rx="47.0167" ry="47.0167"/>
<text text-anchor="middle" x="2113.1988" y="-1092.9226" font-family="Fira Code" font-size="12.00" fill="#242424">array.js</text>
</g>
<!-- array.js&#45;&gt;Ⓜ katsu&#45;curry/katsu&#45;curry.js -->
<g id="edge6" class="edge">
<title>array.js&#45;&gt;Ⓜ katsu&#45;curry/katsu&#45;curry.js</title>
<path fill="none" stroke="#242424" d="M2094.7944,-1051.7223C2077.5598,-1009.2898 2052.2652,-942.6342 2037.1988,-882.7807 2033.7909,-869.2421 1971.0651,-396.5994 1962.1988,-385.8153 1899.0499,-309.007 1644.229,-233.8603 1473.5808,-190.6646"/>
<polygon fill="#242424" stroke="#242424" points="1474.2918,-187.2345 1463.7397,-188.1853 1472.5817,-194.0224 1474.2918,-187.2345"/>
</g>
<!-- Ⓜ entrust/entrust.js -->
<g id="node8" class="node">
<title>Ⓜ entrust/entrust.js</title>
<ellipse fill="none" stroke="#0c821d" stroke-width="4" cx="2646.1988" cy="-153.4077" rx="113.8526" ry="113.8526"/>
<text text-anchor="middle" x="2646.1988" y="-152.2077" font-family="Fira Code" font-size="12.00" fill="#0c821d">Ⓜ entrust/entrust.js</text>
</g>
<!-- array.js&#45;&gt;Ⓜ entrust/entrust.js -->
<g id="edge5" class="edge">
<title>array.js&#45;&gt;Ⓜ entrust/entrust.js</title>
<path fill="none" stroke="#242424" d="M2127.9776,-1050.5628C2138.3101,-1023.2739 2153.8936,-988.6075 2174.1988,-961.7807 2305.3941,-788.4475 2441.7708,-835.4923 2547.1988,-645.383 2603.7443,-543.4195 2561.9185,-500.0606 2585.1988,-385.8153 2592.7362,-348.8264 2602.5669,-308.9479 2612.1279,-272.8443"/>
<polygon fill="#242424" stroke="#242424" points="2615.6203,-273.3311 2614.8153,-262.7669 2608.8567,-271.5274 2615.6203,-273.3311"/>
</g>
<!-- filter.js -->
<g id="node9" class="node">
<title>filter.js</title>
<ellipse fill="none" stroke="#242424" stroke-width="4" cx="2098.1988" cy="-803.5818" rx="51.7142" ry="51.7142"/>
<text text-anchor="middle" x="2098.1988" y="-801.1819" font-family="Fira Code" font-size="12.00" fill="#242424">filter.js</text>
</g>
<!-- array.js&#45;&gt;filter.js -->
<g id="edge7" class="edge">
<title>array.js&#45;&gt;filter.js</title>
<path fill="none" stroke="#242424" d="M2110.7721,-1048.1251C2108.2171,-998.4321 2104.1834,-919.9777 2101.3762,-865.3806"/>
<polygon fill="#242424" stroke="#242424" points="2104.8584,-864.9428 2100.8495,-855.1357 2097.8677,-865.3023 2104.8584,-864.9428"/>
</g>
<!-- filter.js&#45;&gt;delegate&#45;fast.js -->
<g id="edge44" class="edge">
<title>filter.js&#45;&gt;delegate&#45;fast.js</title>
<path fill="none" stroke="#242424" d="M2098.1988,-751.7637C2098.1988,-712.3118 2098.1988,-656.934 2098.1988,-609.7186"/>
<polygon fill="#242424" stroke="#242424" points="2101.6989,-609.4666 2098.1988,-599.4667 2094.6989,-609.4667 2101.6989,-609.4666"/>
</g>
<!-- Ⓜ fast.js/filter.js -->
<g id="node17" class="node">
<title>Ⓜ fast.js/filter.js</title>
<ellipse fill="none" stroke="#0c821d" stroke-width="4" cx="2429.1988" cy="-515.5992" rx="108.9199" ry="108.9199"/>
<text text-anchor="middle" x="2429.1988" y="-514.3992" font-family="Fira Code" font-size="12.00" fill="#0c821d">Ⓜ fast.js/filter.js</text>
</g>
<!-- filter.js&#45;&gt;Ⓜ fast.js/filter.js -->
<g id="edge43" class="edge">
<title>filter.js&#45;&gt;Ⓜ fast.js/filter.js</title>
<path fill="none" stroke="#242424" d="M2141.5623,-775.3233C2186.2333,-745.3613 2256.9394,-695.5235 2312.1988,-645.383 2325.5627,-633.2571 2339.0332,-619.7591 2351.8391,-606.1814"/>
<polygon fill="#242424" stroke="#242424" points="2354.6151,-608.3367 2358.8802,-598.6382 2349.498,-603.5601 2354.6151,-608.3367"/>
</g>
<!-- chain.js -->
<g id="node10" class="node">
<title>chain.js</title>
<ellipse fill="none" stroke="#242424" stroke-width="4" cx="2575.1988" cy="-1431.4735" rx="47.0167" ry="47.0167"/>
<text text-anchor="middle" x="2575.1988" y="-1429.0735" font-family="Fira Code" font-size="12.00" fill="#242424">chain.js</text>
</g>
<!-- Ⓜ flatmap&#45;fast/index.js -->
<g id="node11" class="node">
<title>Ⓜ flatmap&#45;fast/index.js</title>
<ellipse fill="none" stroke="#0c821d" stroke-width="4" cx="2669.1988" cy="-1095.3226" rx="128.651" ry="128.651"/>
<text text-anchor="middle" x="2669.1988" y="-1094.1226" font-family="Fira Code" font-size="12.00" fill="#0c821d">Ⓜ flatmap&#45;fast/index.js</text>
</g>
<!-- chain.js&#45;&gt;Ⓜ flatmap&#45;fast/index.js -->
<g id="edge8" class="edge">
<title>chain.js&#45;&gt;Ⓜ flatmap&#45;fast/index.js</title>
<path fill="none" stroke="#242424" d="M2587.8761,-1386.1387C2599.1275,-1345.9029 2616.149,-1285.0325 2631.7166,-1229.3619"/>
<polygon fill="#242424" stroke="#242424" points="2635.1809,-1229.9692 2634.5034,-1219.3961 2628.4395,-1228.084 2635.1809,-1229.9692"/>
</g>
<!-- chain.js&#45;&gt;delegate&#45;fast.js -->
<g id="edge9" class="edge">
<title>chain.js&#45;&gt;delegate&#45;fast.js</title>
<path fill="none" stroke="#242424" d="M2564.1932,-1385.3935C2554.6537,-1344.4504 2540.8959,-1282.8937 2531.1988,-1228.8645 2510.0179,-1110.8508 2545.6261,-1069.6103 2493.1988,-961.7807 2408.0627,-786.6771 2314.1668,-795.5209 2190.1988,-645.383 2176.8246,-629.1855 2163.277,-611.1573 2150.8394,-593.8157"/>
<polygon fill="#242424" stroke="#242424" points="2153.4782,-591.4871 2144.8285,-585.3687 2147.7748,-595.5457 2153.4782,-591.4871"/>
</g>
<!-- delegate&#45;fast.js&#45;&gt;Ⓜ katsu&#45;curry/katsu&#45;curry.js -->
<g id="edge41" class="edge">
<title>delegate&#45;fast.js&#45;&gt;Ⓜ katsu&#45;curry/katsu&#45;curry.js</title>
<path fill="none" stroke="#242424" d="M2055.494,-443.449C2040.242,-422.5168 2021.4875,-401.1859 2000.1988,-385.8153 1841.9879,-271.5857 1623.5074,-210.4439 1475.9639,-180.0027"/>
<polygon fill="#242424" stroke="#242424" points="1476.4051,-176.5208 1465.9075,-177.9528 1475.0068,-183.3797 1476.4051,-176.5208"/>
</g>
<!-- delegate&#45;fast.js&#45;&gt;Ⓜ entrust/entrust.js -->
<g id="edge40" class="edge">
<title>delegate&#45;fast.js&#45;&gt;Ⓜ entrust/entrust.js</title>
<path fill="none" stroke="#242424" d="M2140.3593,-443.1624C2154.4389,-422.9359 2171.3928,-402.0696 2190.1988,-385.8153 2291.4679,-298.287 2431.4507,-233.2951 2529.5202,-194.6247"/>
<polygon fill="#242424" stroke="#242424" points="2530.8393,-197.8671 2538.8773,-190.9647 2528.2894,-191.348 2530.8393,-197.8671"/>
</g>
<!-- choice.js -->
<g id="node13" class="node">
<title>choice.js</title>
<ellipse fill="none" stroke="#242424" stroke-width="4" cx="1638.1988" cy="-1431.4735" rx="51.7142" ry="51.7142"/>
<text text-anchor="middle" x="1638.1988" y="-1429.0735" font-family="Fira Code" font-size="12.00" fill="#242424">choice.js</text>
</g>
<!-- choice.js&#45;&gt;Ⓜ katsu&#45;curry/katsu&#45;curry.js -->
<g id="edge10" class="edge">
<title>choice.js&#45;&gt;Ⓜ katsu&#45;curry/katsu&#45;curry.js</title>
<path fill="none" stroke="#242424" d="M1623.8973,-1381.6903C1614.3588,-1356.47 1599.4093,-1327.1803 1577.1988,-1307.8645 1492.7819,-1234.4496 1404.7346,-1318.803 1338.1988,-1228.8645 1285.4668,-1157.5849 1297.7623,-600.2535 1307.6266,-317.2096"/>
<polygon fill="#242424" stroke="#242424" points="1311.1375,-316.96 1307.9911,-306.8432 1304.1418,-316.714 1311.1375,-316.96"/>
</g>
<!-- debug.js -->
<g id="node14" class="node">
<title>debug.js</title>
<ellipse fill="none" stroke="#242424" stroke-width="4" cx="2030.1988" cy="-1681.0909" rx="47.0167" ry="47.0167"/>
<text text-anchor="middle" x="2030.1988" y="-1678.6909" font-family="Fira Code" font-size="12.00" fill="#242424">debug.js</text>
</g>
<!-- debug.js&#45;&gt;ap.js -->
<g id="edge18" class="edge">
<title>debug.js&#45;&gt;ap.js</title>
<path fill="none" stroke="#242424" d="M1983.2598,-1677.2774C1813.5074,-1663.138 1232.2222,-1611.5994 1055.1988,-1555.0826 981.3757,-1531.5137 903.4159,-1484.8288 859.2856,-1456.0622"/>
<polygon fill="#242424" stroke="#242424" points="860.9364,-1452.9587 850.6589,-1450.3852 857.0884,-1458.8062 860.9364,-1452.9587"/>
</g>
<!-- debug.js&#45;&gt;map.js -->
<g id="edge24" class="edge">
<title>debug.js&#45;&gt;map.js</title>
<path fill="none" stroke="#242424" d="M1983.0357,-1679.512C1766.4214,-1671.842 873.5338,-1635.5166 781.1988,-1555.0826 695.9451,-1480.8171 761.9031,-1413.3478 721.1988,-1307.8645 706.8073,-1270.5696 690.2193,-1266.9897 678.1988,-1228.8645 672.5837,-1211.0551 646.1817,-958.9022 635.1071,-851.4839"/>
<polygon fill="#242424" stroke="#242424" points="638.5591,-850.8372 634.0531,-841.2483 631.5959,-851.5543 638.5591,-850.8372"/>
</g>
<!-- debug.js&#45;&gt;types.js -->
<g id="edge38" class="edge">
<title>debug.js&#45;&gt;types.js</title>
<path fill="none" stroke="#242424" d="M1983.5298,-1674.5105C1918.6284,-1662.7503 1802.334,-1631.7258 1742.1988,-1555.0826 1673.3565,-1467.3419 1779.1547,-1385.6124 1699.1988,-1307.8645 1524.0412,-1137.5439 1371.0663,-1343.2783 1155.1988,-1228.8645 1117.79,-1209.0371 1085.9455,-1173.054 1064.1804,-1143.4316"/>
<polygon fill="#242424" stroke="#242424" points="1066.9898,-1141.3433 1058.3126,-1135.264 1061.3048,-1145.4276 1066.9898,-1141.3433"/>
</g>
<!-- debug.js&#45;&gt;array.js -->
<g id="edge19" class="edge">
<title>debug.js&#45;&gt;array.js</title>
<path fill="none" stroke="#242424" d="M2077.3155,-1678.6284C2264.5195,-1668.3721 2948.6048,-1626.231 3011.1988,-1555.0826 3047.4865,-1513.8356 3048.0972,-1348.5661 3011.1988,-1307.8645 2890.6205,-1174.8576 2362.3043,-1319.2651 2207.1988,-1228.8645 2175.7019,-1210.507 2152.1306,-1176.9 2136.4695,-1147.9938"/>
<polygon fill="#242424" stroke="#242424" points="2139.3974,-1146.0397 2131.6627,-1138.7992 2133.194,-1149.2828 2139.3974,-1146.0397"/>
</g>
<!-- debug.js&#45;&gt;Ⓜ entrust/entrust.js -->
<g id="edge11" class="edge">
<title>debug.js&#45;&gt;Ⓜ entrust/entrust.js</title>
<path fill="none" stroke="#242424" d="M2077.174,-1679.2427C2288.9047,-1670.5103 3148.1427,-1630.6213 3239.1988,-1555.0826 3403.2987,-1418.948 3376.1988,-1308.5393 3376.1988,-1095.3226 3376.1988,-1095.3226 3376.1988,-1095.3226 3376.1988,-803.5818 3376.1988,-479.1085 2969.0457,-276.6525 2762.8818,-194.9362"/>
<polygon fill="#242424" stroke="#242424" points="2764.1077,-191.6575 2753.5206,-191.254 2761.5453,-198.1716 2764.1077,-191.6575"/>
</g>
<!-- debug.js&#45;&gt;Ⓜ flatmap&#45;fast/index.js -->
<g id="edge16" class="edge">
<title>debug.js&#45;&gt;Ⓜ flatmap&#45;fast/index.js</title>
<path fill="none" stroke="#242424" d="M2077.4584,-1678.2597C2206.0826,-1669.5105 2557.7282,-1638.2963 2631.1988,-1555.0826 2652.2144,-1531.28 2661.7751,-1360.5456 2666.0083,-1234.0482"/>
<polygon fill="#242424" stroke="#242424" points="2669.5123,-1233.9812 2666.3406,-1223.8722 2662.516,-1233.7526 2669.5123,-1233.9812"/>
</g>
<!-- debug.js&#45;&gt;delegate&#45;fast.js -->
<g id="edge21" class="edge">
<title>debug.js&#45;&gt;delegate&#45;fast.js</title>
<path fill="none" stroke="#242424" d="M2077.2344,-1677.6673C2208.073,-1667.2433 2572.4542,-1631.8112 2660.1988,-1555.0826 2747.6628,-1478.5994 2689.6701,-1409.9242 2745.1988,-1307.8645 2766.5299,-1268.6588 2792.6217,-1271.0498 2807.1988,-1228.8645 2845.9676,-1116.67 2867.8309,-1063.8315 2807.1988,-961.7807 2694.4992,-772.0941 2569.3845,-821.3604 2371.1988,-724.383 2292.3585,-685.8044 2258.2916,-700.7678 2190.1988,-645.383 2173.627,-631.904 2158.671,-614.7231 2145.8671,-597.3075"/>
<polygon fill="#242424" stroke="#242424" points="2148.4177,-594.8568 2139.7568,-588.7544 2142.7219,-598.9259 2148.4177,-594.8568"/>
</g>
<!-- debug.js&#45;&gt;choice.js -->
<g id="edge20" class="edge">
<title>debug.js&#45;&gt;choice.js</title>
<path fill="none" stroke="#242424" d="M1983.5421,-1673.6727C1914.9923,-1660.6373 1786.3198,-1627.7797 1704.1988,-1555.0826 1684.4269,-1537.5796 1669.5563,-1512.6969 1658.9852,-1489.8393"/>
<polygon fill="#242424" stroke="#242424" points="1662.1115,-1488.255 1654.8591,-1480.5314 1655.712,-1491.0919 1662.1115,-1488.255"/>
</g>
<!-- Ⓜ fast.js/array/every.js -->
<g id="node15" class="node">
<title>Ⓜ fast.js/array/every.js</title>
<ellipse fill="none" stroke="#0c821d" stroke-width="4" cx="2350.1988" cy="-1095.3226" rx="133.5838" ry="133.5838"/>
<text text-anchor="middle" x="2350.1988" y="-1094.1226" font-family="Fira Code" font-size="12.00" fill="#0c821d">Ⓜ fast.js/array/every.js</text>
</g>
<!-- debug.js&#45;&gt;Ⓜ fast.js/array/every.js -->
<g id="edge12" class="edge">
<title>debug.js&#45;&gt;Ⓜ fast.js/array/every.js</title>
<path fill="none" stroke="#242424" d="M2077.3078,-1678.7983C2267.755,-1669.0575 2973.6401,-1628.2141 3038.1988,-1555.0826 3074.5563,-1513.8971 3073.93,-1349.5945 3038.1988,-1307.8645 2889.8736,-1134.6376 2741.6806,-1316.6444 2531.1988,-1228.8645 2506.4819,-1218.5565 2482.0186,-1204.188 2459.4469,-1188.6742"/>
<polygon fill="#242424" stroke="#242424" points="2461.4184,-1185.7819 2451.2196,-1182.9122 2457.4027,-1191.5156 2461.4184,-1185.7819"/>
</g>
<!-- Ⓜ fast.js/array/some.js -->
<g id="node16" class="node">
<title>Ⓜ fast.js/array/some.js</title>
<ellipse fill="none" stroke="#0c821d" stroke-width="4" cx="3021.1988" cy="-1095.3226" rx="128.651" ry="128.651"/>
<text text-anchor="middle" x="3021.1988" y="-1094.1226" font-family="Fira Code" font-size="12.00" fill="#0c821d">Ⓜ fast.js/array/some.js</text>
</g>
<!-- debug.js&#45;&gt;Ⓜ fast.js/array/some.js -->
<g id="edge13" class="edge">
<title>debug.js&#45;&gt;Ⓜ fast.js/array/some.js</title>
<path fill="none" stroke="#242424" d="M2077.247,-1678.962C2270.8136,-1669.7307 2998.6666,-1630.2061 3065.1988,-1555.0826 3144.5903,-1465.4392 3116.3824,-1323.9273 3079.0948,-1221.5675"/>
<polygon fill="#242424" stroke="#242424" points="3082.3409,-1220.2547 3075.579,-1212.0982 3075.7786,-1222.6911 3082.3409,-1220.2547"/>
</g>
<!-- debug.js&#45;&gt;Ⓜ fast.js/filter.js -->
<g id="edge14" class="edge">
<title>debug.js&#45;&gt;Ⓜ fast.js/filter.js</title>
<path fill="none" stroke="#242424" d="M2077.4855,-1679.2622C2281.8938,-1670.9047 3082.7386,-1633.3398 3160.1988,-1555.0826 3345.9856,-1367.3842 3316.5722,-1195.2895 3193.1988,-961.7807 3105.7352,-796.2383 3014.0452,-805.2845 2845.1988,-724.383 2736.2837,-672.1972 2691.5059,-702.6952 2585.1988,-645.383 2561.032,-632.3543 2537.1225,-615.231 2515.5531,-597.7135"/>
<polygon fill="#242424" stroke="#242424" points="2517.6575,-594.9123 2507.7163,-591.2487 2513.2031,-600.3121 2517.6575,-594.9123"/>
</g>
<!-- debug.js&#45;&gt;Ⓜ fast.js/reduce.js -->
<g id="edge15" class="edge">
<title>debug.js&#45;&gt;Ⓜ fast.js/reduce.js</title>
<path fill="none" stroke="#242424" d="M1988.212,-1659.8194C1948.6167,-1638.0163 1889.747,-1600.874 1851.1988,-1555.0826 1772.9142,-1462.0881 1830.0353,-1382.6429 1734.1988,-1307.8645 1592.3628,-1197.1939 1469.0503,-1351.2598 1337.1988,-1228.8645 1171.0734,-1074.6534 1139.8725,-794.3604 1136.5344,-634.9218"/>
<polygon fill="#242424" stroke="#242424" points="1140.0283,-634.5344 1136.3537,-624.5972 1133.0294,-634.657 1140.0283,-634.5344"/>
</g>
<!-- Ⓜ katsu&#45;curry/debug.js -->
<g id="node19" class="node">
<title>Ⓜ katsu&#45;curry/debug.js</title>
<ellipse fill="none" stroke="#0c821d" stroke-width="4" cx="2878.1988" cy="-1431.4735" rx="123.7182" ry="123.7182"/>
<text text-anchor="middle" x="2878.1988" y="-1430.2735" font-family="Fira Code" font-size="12.00" fill="#0c821d">Ⓜ katsu&#45;curry/debug.js</text>
</g>
<!-- debug.js&#45;&gt;Ⓜ katsu&#45;curry/debug.js -->
<g id="edge17" class="edge">
<title>debug.js&#45;&gt;Ⓜ katsu&#45;curry/debug.js</title>
<path fill="none" stroke="#242424" d="M2077.2932,-1676.138C2216.1213,-1661.0086 2621.4473,-1612.8929 2740.1988,-1555.0826 2755.5498,-1547.6095 2770.4679,-1537.9209 2784.4727,-1527.257"/>
<polygon fill="#242424" stroke="#242424" points="2786.9011,-1529.8006 2792.6094,-1520.875 2782.5809,-1524.2927 2786.9011,-1529.8006"/>
</g>
<!-- invert.js -->
<g id="node20" class="node">
<title>invert.js</title>
<ellipse fill="none" stroke="#242424" stroke-width="4" cx="1912.1988" cy="-1431.4735" rx="51.7142" ry="51.7142"/>
<text text-anchor="middle" x="1912.1988" y="-1429.0735" font-family="Fira Code" font-size="12.00" fill="#242424">invert.js</text>
</g>
<!-- debug.js&#45;&gt;invert.js -->
<g id="edge22" class="edge">
<title>debug.js&#45;&gt;invert.js</title>
<path fill="none" stroke="#242424" d="M2010.048,-1638.4638C1990.3417,-1596.7771 1960.2266,-1533.0716 1938.6125,-1487.3492"/>
<polygon fill="#242424" stroke="#242424" points="1941.7107,-1485.7133 1934.2726,-1478.1684 1935.3821,-1488.705 1941.7107,-1485.7133"/>
</g>
<!-- iterate.js -->
<g id="node21" class="node">
<title>iterate.js</title>
<ellipse fill="none" stroke="#242424" stroke-width="4" cx="1706.1988" cy="-803.5818" rx="56.412" ry="56.412"/>
<text text-anchor="middle" x="1706.1988" y="-801.1819" font-family="Fira Code" font-size="12.00" fill="#242424">iterate.js</text>
</g>
<!-- debug.js&#45;&gt;iterate.js -->
<g id="edge23" class="edge">
<title>debug.js&#45;&gt;iterate.js</title>
<path fill="none" stroke="#242424" d="M2052.5377,-1639.3917C2088.8176,-1565.3376 2149.6657,-1409.1534 2078.1988,-1307.8645 2017.8217,-1222.2928 1930.1488,-1303.0217 1856.1988,-1228.8645 1804.5177,-1177.0386 1748.3159,-974.066 1721.7638,-868.37"/>
<polygon fill="#242424" stroke="#242424" points="1725.1061,-867.3077 1719.2879,-858.4533 1718.3146,-869.0033 1725.1061,-867.3077"/>
</g>
<!-- math.js -->
<g id="node22" class="node">
<title>math.js</title>
<ellipse fill="none" stroke="#242424" stroke-width="4" cx="314.1988" cy="-803.5818" rx="42.3196" ry="42.3196"/>
<text text-anchor="middle" x="314.1988" y="-801.1819" font-family="Fira Code" font-size="12.00" fill="#242424">math.js</text>
</g>
<!-- debug.js&#45;&gt;math.js -->
<g id="edge25" class="edge">
<title>debug.js&#45;&gt;math.js</title>
<path fill="none" stroke="#242424" d="M1983.1787,-1678.5366C1737.7186,-1665.0197 612.4823,-1600.7314 555.1988,-1555.0826 441.9432,-1464.8298 351.3997,-1011.2055 323.2845,-855.8606"/>
<polygon fill="#242424" stroke="#242424" points="326.6601,-854.8559 321.4459,-845.6329 319.7705,-856.0945 326.6601,-854.8559"/>
</g>
<!-- object.js -->
<g id="node23" class="node">
<title>object.js</title>
<ellipse fill="none" stroke="#242424" stroke-width="4" cx="584.1988" cy="-1095.3226" rx="51.7142" ry="51.7142"/>
<text text-anchor="middle" x="584.1988" y="-1092.9226" font-family="Fira Code" font-size="12.00" fill="#242424">object.js</text>
</g>
<!-- debug.js&#45;&gt;object.js -->
<g id="edge26" class="edge">
<title>debug.js&#45;&gt;object.js</title>
<path fill="none" stroke="#242424" d="M1983.0385,-1679.4712C1763.2965,-1671.5271 846.3807,-1633.843 748.1988,-1555.0826 658.0096,-1482.7337 706.2432,-1416.6946 667.1988,-1307.8645 648.171,-1254.8274 624.6637,-1195.1109 607.5292,-1152.5117"/>
<polygon fill="#242424" stroke="#242424" points="610.7406,-1151.1166 603.7556,-1143.1504 604.2482,-1153.7337 610.7406,-1151.1166"/>
</g>
<!-- path.js -->
<g id="node24" class="node">
<title>path.js</title>
<ellipse fill="none" stroke="#242424" stroke-width="4" cx="288.1988" cy="-1095.3226" rx="42.3196" ry="42.3196"/>
<text text-anchor="middle" x="288.1988" y="-1092.9226" font-family="Fira Code" font-size="12.00" fill="#242424">path.js</text>
</g>
<!-- debug.js&#45;&gt;path.js -->
<g id="edge27" class="edge">
<title>debug.js&#45;&gt;path.js</title>
<path fill="none" stroke="#242424" d="M1982.9348,-1678.5691C1706.5832,-1663.7171 311.0918,-1587.2067 281.1988,-1555.0826 227.4631,-1497.3362 260.864,-1254.7569 278.8907,-1147.13"/>
<polygon fill="#242424" stroke="#242424" points="282.3624,-1147.591 280.5838,-1137.1466 275.4609,-1146.4206 282.3624,-1147.591"/>
</g>
<!-- random&#45;floor.js -->
<g id="node25" class="node">
<title>random&#45;floor.js</title>
<ellipse fill="none" stroke="#242424" stroke-width="4" cx="1502.1988" cy="-803.5818" rx="79.3981" ry="79.3981"/>
<text text-anchor="middle" x="1502.1988" y="-801.1819" font-family="Fira Code" font-size="12.00" fill="#242424">random&#45;floor.js</text>
</g>
<!-- debug.js&#45;&gt;random&#45;floor.js -->
<g id="edge28" class="edge">
<title>debug.js&#45;&gt;random&#45;floor.js</title>
<path fill="none" stroke="#242424" d="M2034.227,-1634.248C2040.8374,-1544.8498 2049.3771,-1354.6236 2007.1988,-1307.8645 1863.5608,-1148.6267 1675.3565,-1387.6319 1531.1988,-1228.8645 1509.1743,-1204.6079 1503.7437,-1010.4036 1502.4884,-892.9823"/>
<polygon fill="#242424" stroke="#242424" points="1505.9877,-892.882 1502.389,-882.9171 1498.9881,-892.9512 1505.9877,-892.882"/>
</g>
<!-- random&#45;shuffle.js -->
<g id="node26" class="node">
<title>random&#45;shuffle.js</title>
<ellipse fill="none" stroke="#0c821d" stroke-width="4" cx="1480.1988" cy="-1431.4735" rx="88.2923" ry="88.2923"/>
<text text-anchor="middle" x="1480.1988" y="-1429.0735" font-family="Fira Code" font-size="12.00" fill="#0c821d">random&#45;shuffle.js</text>
</g>
<!-- debug.js&#45;&gt;random&#45;shuffle.js -->
<g id="edge29" class="edge">
<title>debug.js&#45;&gt;random&#45;shuffle.js</title>
<path fill="none" stroke="#242424" d="M1983.1842,-1677.6474C1896.213,-1669.3131 1707.2371,-1641.8438 1577.1988,-1555.0826 1560.9672,-1544.2529 1546.2332,-1529.8245 1533.4271,-1514.654"/>
<polygon fill="#242424" stroke="#242424" points="1535.9434,-1512.2017 1526.9084,-1506.6682 1530.5207,-1516.6283 1535.9434,-1512.2017"/>
</g>
<!-- random&#45;take.js -->
<g id="node27" class="node">
<title>random&#45;take.js</title>
<ellipse fill="none" stroke="#242424" stroke-width="4" cx="1615.1988" cy="-1095.3226" rx="74.7005" ry="74.7005"/>
<text text-anchor="middle" x="1615.1988" y="-1092.9226" font-family="Fira Code" font-size="12.00" fill="#242424">random&#45;take.js</text>
</g>
<!-- debug.js&#45;&gt;random&#45;take.js -->
<g id="edge30" class="edge">
<title>debug.js&#45;&gt;random&#45;take.js</title>
<path fill="none" stroke="#242424" d="M2048.0739,-1637.4109C2075.8842,-1561.6548 2118.9927,-1404.7403 2044.1988,-1307.8645 1959.4134,-1198.0472 1861.6799,-1299.3816 1742.1988,-1228.8645 1713.7309,-1212.0628 1687.5554,-1187.0714 1666.4589,-1163.2374"/>
<polygon fill="#242424" stroke="#242424" points="1668.9882,-1160.8118 1659.7914,-1155.5516 1663.7006,-1165.3989 1668.9882,-1160.8118"/>
</g>
<!-- random&#45;word.js -->
<g id="node28" class="node">
<title>random&#45;word.js</title>
<ellipse fill="none" stroke="#242424" stroke-width="4" cx="2209.1988" cy="-1431.4735" rx="74.7005" ry="74.7005"/>
<text text-anchor="middle" x="2209.1988" y="-1429.0735" font-family="Fira Code" font-size="12.00" fill="#242424">random&#45;word.js</text>
</g>
<!-- debug.js&#45;&gt;random&#45;word.js -->
<g id="edge31" class="edge">
<title>debug.js&#45;&gt;random&#45;word.js</title>
<path fill="none" stroke="#242424" d="M2057.7753,-1642.6352C2084.8256,-1604.9132 2126.6785,-1546.549 2159.5336,-1500.7322"/>
<polygon fill="#242424" stroke="#242424" points="2162.5748,-1502.4972 2165.5581,-1492.331 2156.8862,-1498.4179 2162.5748,-1502.4972"/>
</g>
<!-- random.js -->
<g id="node29" class="node">
<title>random.js</title>
<ellipse fill="none" stroke="#0c821d" stroke-width="4" cx="1322.1988" cy="-1431.4735" rx="51.7142" ry="51.7142"/>
<text text-anchor="middle" x="1322.1988" y="-1429.0735" font-family="Fira Code" font-size="12.00" fill="#0c821d">random.js</text>
</g>
<!-- debug.js&#45;&gt;random.js -->
<g id="edge32" class="edge">
<title>debug.js&#45;&gt;random.js</title>
<path fill="none" stroke="#242424" d="M1982.8678,-1677.2907C1850.2187,-1665.8171 1478.3423,-1627.766 1383.1988,-1555.0826 1362.39,-1539.186 1348.2253,-1514.2954 1338.8266,-1491.0038"/>
<polygon fill="#242424" stroke="#242424" points="1342.0361,-1489.5967 1335.2083,-1481.4953 1335.4938,-1492.0863 1342.0361,-1489.5967"/>
</g>
<!-- range.js -->
<g id="node30" class="node">
<title>range.js</title>
<ellipse fill="none" stroke="#242424" stroke-width="4" cx="611.1988" cy="-1431.4735" rx="47.0167" ry="47.0167"/>
<text text-anchor="middle" x="611.1988" y="-1429.0735" font-family="Fira Code" font-size="12.00" fill="#242424">range.js</text>
</g>
<!-- debug.js&#45;&gt;range.js -->
<g id="edge33" class="edge">
<title>debug.js&#45;&gt;range.js</title>
<path fill="none" stroke="#242424" d="M1983.1631,-1679.4282C1756.4014,-1671.0555 782.4261,-1630.8897 672.1988,-1555.0826 649.1344,-1539.2204 634.4118,-1512.0467 625.2232,-1487.2103"/>
<polygon fill="#242424" stroke="#242424" points="628.4312,-1485.7781 621.85,-1477.4752 621.817,-1488.07 628.4312,-1485.7781"/>
</g>
<!-- reject.js -->
<g id="node31" class="node">
<title>reject.js</title>
<ellipse fill="none" stroke="#242424" stroke-width="4" cx="1432.1988" cy="-1095.3226" rx="51.7142" ry="51.7142"/>
<text text-anchor="middle" x="1432.1988" y="-1092.9226" font-family="Fira Code" font-size="12.00" fill="#242424">reject.js</text>
</g>
<!-- debug.js&#45;&gt;reject.js -->
<g id="edge34" class="edge">
<title>debug.js&#45;&gt;reject.js</title>
<path fill="none" stroke="#242424" d="M2024.5018,-1634.0762C2012.4599,-1536.3629 1984.5939,-1319.4117 1973.1988,-1307.8645 1822.8765,-1155.5362 1670.0741,-1356.3776 1498.1988,-1228.8645 1474.059,-1210.9553 1458.2344,-1181.7817 1448.1504,-1155.2635"/>
<polygon fill="#242424" stroke="#242424" points="1451.3672,-1153.8656 1444.6902,-1145.6396 1444.78,-1156.234 1451.3672,-1153.8656"/>
</g>
<!-- string.js -->
<g id="node32" class="node">
<title>string.js</title>
<ellipse fill="none" stroke="#242424" stroke-width="4" cx="2251.1988" cy="-515.5992" rx="51.7142" ry="51.7142"/>
<text text-anchor="middle" x="2251.1988" y="-513.1992" font-family="Fira Code" font-size="12.00" fill="#242424">string.js</text>
</g>
<!-- debug.js&#45;&gt;string.js -->
<g id="edge35" class="edge">
<title>debug.js&#45;&gt;string.js</title>
<path fill="none" stroke="#242424" d="M2077.3362,-1678.8462C2274.7849,-1669.0099 3028.6102,-1626.9662 3104.1988,-1555.0826 3200.1489,-1463.8355 3233.2228,-1071.5664 3159.1988,-961.7807 3001.8726,-728.4486 2837.5887,-817.9972 2572.1988,-724.383 2457.9038,-684.0664 2402.6477,-724.9185 2311.1988,-645.383 2290.2816,-627.1908 2276.196,-600.1729 2266.9622,-575.4913"/>
<polygon fill="#242424" stroke="#242424" points="2270.1725,-574.0715 2263.5368,-565.812 2263.5735,-576.4068 2270.1725,-574.0715"/>
</g>
<!-- ternary.js -->
<g id="node33" class="node">
<title>ternary.js</title>
<ellipse fill="none" stroke="#242424" stroke-width="4" cx="1120.1988" cy="-1431.4735" rx="56.412" ry="56.412"/>
<text text-anchor="middle" x="1120.1988" y="-1429.0735" font-family="Fira Code" font-size="12.00" fill="#242424">ternary.js</text>
</g>
<!-- debug.js&#45;&gt;ternary.js -->
<g id="edge36" class="edge">
<title>debug.js&#45;&gt;ternary.js</title>
<path fill="none" stroke="#242424" d="M1983.1692,-1676.8018C1836.8053,-1662.9249 1391.4128,-1616.5587 1261.1988,-1555.0826 1224.2,-1537.6148 1189.5448,-1507.5048 1163.8498,-1481.3763"/>
<polygon fill="#242424" stroke="#242424" points="1166.3109,-1478.8864 1156.8457,-1474.1261 1161.2765,-1483.75 1166.3109,-1478.8864"/>
</g>
<!-- triplet.js -->
<g id="node34" class="node">
<title>triplet.js</title>
<ellipse fill="none" stroke="#242424" stroke-width="4" cx="1954.1988" cy="-1095.3226" rx="56.412" ry="56.412"/>
<text text-anchor="middle" x="1954.1988" y="-1092.9226" font-family="Fira Code" font-size="12.00" fill="#242424">triplet.js</text>
</g>
<!-- debug.js&#45;&gt;triplet.js -->
<g id="edge37" class="edge">
<title>debug.js&#45;&gt;triplet.js</title>
<path fill="none" stroke="#242424" d="M2076.7593,-1674.0595C2138.6072,-1661.9455 2245.58,-1630.6999 2293.1988,-1555.0826 2351.7485,-1462.1074 2359.0421,-1395.8253 2293.1988,-1307.8645 2218.5285,-1208.1115 2120.5513,-1307.874 2024.1988,-1228.8645 2002.0326,-1210.6881 1986.0213,-1183.6256 1974.9553,-1158.6057"/>
<polygon fill="#242424" stroke="#242424" points="1978.0712,-1156.9875 1970.9538,-1149.1393 1971.6236,-1159.713 1978.0712,-1156.9875"/>
</g>
<!-- which.js -->
<g id="node35" class="node">
<title>which.js</title>
<ellipse fill="none" stroke="#242424" stroke-width="4" cx="2425.1988" cy="-1431.4735" rx="47.0167" ry="47.0167"/>
<text text-anchor="middle" x="2425.1988" y="-1429.0735" font-family="Fira Code" font-size="12.00" fill="#242424">which.js</text>
</g>
<!-- debug.js&#45;&gt;which.js -->
<g id="edge39" class="edge">
<title>debug.js&#45;&gt;which.js</title>
<path fill="none" stroke="#242424" d="M2076.8434,-1674.5846C2147.0782,-1662.5758 2280.6421,-1630.8526 2364.1988,-1555.0826 2384.5438,-1536.6335 2398.9069,-1509.8836 2408.5626,-1485.9832"/>
<polygon fill="#242424" stroke="#242424" points="2411.8323,-1487.2318 2412.1619,-1476.6421 2405.3004,-1484.7149 2411.8323,-1487.2318"/>
</g>
<!-- invert.js&#45;&gt;Ⓜ katsu&#45;curry/katsu&#45;curry.js -->
<g id="edge77" class="edge">
<title>invert.js&#45;&gt;Ⓜ katsu&#45;curry/katsu&#45;curry.js</title>
<path fill="none" stroke="#242424" d="M1878.1521,-1392.5107C1851.5548,-1364.599 1812.1649,-1328.4409 1770.1988,-1307.8645 1607.8839,-1228.2795 1489.6012,-1365.4689 1371.1988,-1228.8645 1341.8783,-1195.0365 1324.524,-609.7721 1317.6435,-317.187"/>
<polygon fill="#242424" stroke="#242424" points="1321.136,-316.8192 1317.4032,-306.9037 1314.1379,-316.9828 1321.136,-316.8192"/>
</g>
<!-- iterate.js&#45;&gt;Ⓜ katsu&#45;curry/katsu&#45;curry.js -->
<g id="edge78" class="edge">
<title>iterate.js&#45;&gt;Ⓜ katsu&#45;curry/katsu&#45;curry.js</title>
<path fill="none" stroke="#242424" d="M1707.5332,-747.2491C1706.9666,-662.3842 1695.6307,-499.5861 1624.1988,-385.8153 1583.8894,-321.6139 1518.9918,-268.898 1458.9671,-229.9975"/>
<polygon fill="#242424" stroke="#242424" points="1460.8424,-227.0422 1450.5328,-224.6004 1457.0694,-232.9384 1460.8424,-227.0422"/>
</g>
<!-- math.js&#45;&gt;Ⓜ katsu&#45;curry/katsu&#45;curry.js -->
<g id="edge89" class="edge">
<title>math.js&#45;&gt;Ⓜ katsu&#45;curry/katsu&#45;curry.js</title>
<path fill="none" stroke="#242424" d="M305.9893,-761.8168C292.2899,-678.8243 274.8979,-492.0226 370.1988,-385.8153 473.1809,-271.0478 910.0544,-201.7145 1151.7349,-171.4243"/>
<polygon fill="#242424" stroke="#242424" points="1152.1801,-174.896 1161.6711,-170.1872 1151.3152,-167.9496 1152.1801,-174.896"/>
</g>
<!-- object.js&#45;&gt;Ⓜ katsu&#45;curry/katsu&#45;curry.js -->
<g id="edge90" class="edge">
<title>object.js&#45;&gt;Ⓜ katsu&#45;curry/katsu&#45;curry.js</title>
<path fill="none" stroke="#242424" d="M569.1253,-1045.9307C526.7012,-902.5869 414.3604,-490.0692 493.1988,-385.8153 572.4129,-281.0647 935.748,-209.9277 1151.6279,-176.0926"/>
<polygon fill="#242424" stroke="#242424" points="1152.4523,-179.5065 1161.7947,-174.5096 1151.3753,-172.5898 1152.4523,-179.5065"/>
</g>
<!-- object.js&#45;&gt;map.js -->
<g id="edge91" class="edge">
<title>object.js&#45;&gt;map.js</title>
<path fill="none" stroke="#242424" d="M592.264,-1044.1714C600.8396,-989.7838 614.2951,-904.446 622.663,-851.3753"/>
<polygon fill="#242424" stroke="#242424" points="626.1655,-851.6332 624.2658,-841.2101 619.2509,-850.5429 626.1655,-851.6332"/>
</g>
<!-- object.js&#45;&gt;reduce.js -->
<g id="edge92" class="edge">
<title>object.js&#45;&gt;reduce.js</title>
<path fill="none" stroke="#242424" d="M624.8537,-1063.2667C693.3617,-1009.2489 831.5279,-900.3064 905.2481,-842.1789"/>
<polygon fill="#242424" stroke="#242424" points="907.7912,-844.6309 913.4767,-835.6907 903.457,-839.134 907.7912,-844.6309"/>
</g>
<!-- path.js&#45;&gt;Ⓜ katsu&#45;curry/katsu&#45;curry.js -->
<g id="edge93" class="edge">
<title>path.js&#45;&gt;Ⓜ katsu&#45;curry/katsu&#45;curry.js</title>
<path fill="none" stroke="#242424" d="M272.6494,-1055.4535C229.2571,-936.8079 120.8061,-582.0774 291.1988,-385.8153 402.1778,-257.9872 891.3895,-193.2576 1151.0182,-167.3909"/>
<polygon fill="#242424" stroke="#242424" points="1151.6922,-170.8415 1161.2995,-166.375 1151.0038,-163.8754 1151.6922,-170.8415"/>
</g>
<!-- path.js&#45;&gt;reduce.js -->
<g id="edge95" class="edge">
<title>path.js&#45;&gt;reduce.js</title>
<path fill="none" stroke="#242424" d="M324.2443,-1072.3464C369.5354,-1044.0672 450.191,-995.6416 523.1988,-961.7807 652.2235,-901.9391 810.7755,-848.6611 895.0096,-821.8694"/>
<polygon fill="#242424" stroke="#242424" points="896.1828,-825.1692 904.6591,-818.8128 894.069,-818.496 896.1828,-825.1692"/>
</g>
<!-- path.js&#45;&gt;math.js -->
<g id="edge94" class="edge">
<title>path.js&#45;&gt;math.js</title>
<path fill="none" stroke="#242424" d="M291.9794,-1052.901C296.62,-1000.8299 304.4898,-912.5246 309.5107,-856.1863"/>
<polygon fill="#242424" stroke="#242424" points="313.012,-856.3259 310.4136,-846.0546 306.0397,-855.7044 313.012,-856.3259"/>
</g>
<!-- random&#45;floor.js&#45;&gt;Ⓜ katsu&#45;curry/katsu&#45;curry.js -->
<g id="edge96" class="edge">
<title>random&#45;floor.js&#45;&gt;Ⓜ katsu&#45;curry/katsu&#45;curry.js</title>
<path fill="none" stroke="#242424" d="M1487.9525,-725.6535C1471.6381,-641.0342 1442.4296,-502.3611 1406.1988,-385.8153 1397.9019,-359.1262 1387.9566,-331.1558 1377.7174,-304.2383"/>
<polygon fill="#242424" stroke="#242424" points="1380.9334,-302.8495 1374.0857,-294.765 1374.3973,-305.3552 1380.9334,-302.8495"/>
</g>
<!-- random&#45;take.js&#45;&gt;Ⓜ katsu&#45;curry/katsu&#45;curry.js -->
<g id="edge97" class="edge">
<title>random&#45;take.js&#45;&gt;Ⓜ katsu&#45;curry/katsu&#45;curry.js</title>
<path fill="none" stroke="#242424" d="M1617.101,-1020.4037C1617.4086,-944.7457 1613.4577,-825.0023 1590.1988,-724.383 1553.6021,-566.0636 1524.5472,-531.3147 1452.1988,-385.8153 1436.8435,-354.9343 1418.9308,-322.6294 1401.1948,-292.2633"/>
<polygon fill="#242424" stroke="#242424" points="1404.0316,-290.1821 1395.9503,-283.3307 1397.9951,-293.7263 1404.0316,-290.1821"/>
</g>
<!-- random&#45;take.js&#45;&gt;iterate.js -->
<g id="edge98" class="edge">
<title>random&#45;take.js&#45;&gt;iterate.js</title>
<path fill="none" stroke="#242424" d="M1637.4599,-1023.9548C1652.4427,-975.9209 1672.021,-913.1539 1686.4492,-866.898"/>
<polygon fill="#242424" stroke="#242424" points="1689.8098,-867.878 1689.4463,-857.2894 1683.1273,-865.7935 1689.8098,-867.878"/>
</g>
<!-- random&#45;take.js&#45;&gt;random&#45;floor.js -->
<g id="edge99" class="edge">
<title>random&#45;take.js&#45;&gt;random&#45;floor.js</title>
<path fill="none" stroke="#242424" d="M1588.1325,-1025.4434C1572.0126,-983.8255 1551.4579,-930.7578 1534.4933,-886.9591"/>
<polygon fill="#242424" stroke="#242424" points="1537.6958,-885.5366 1530.8202,-877.4758 1531.1683,-888.0649 1537.6958,-885.5366"/>
</g>
<!-- random&#45;word.js&#45;&gt;Ⓜ katsu&#45;curry/katsu&#45;curry.js -->
<g id="edge100" class="edge">
<title>random&#45;word.js&#45;&gt;Ⓜ katsu&#45;curry/katsu&#45;curry.js</title>
<path fill="none" stroke="#242424" d="M2168.5714,-1368.8264C2151.9913,-1347.136 2131.2708,-1324.1955 2108.1988,-1307.8645 2023.7426,-1248.0839 1957.9841,-1306.1636 1889.1988,-1228.8645 1850.9305,-1185.8595 1785.5339,-780.1361 1771.1988,-724.383 1732.2808,-573.0202 1769.1316,-511.4688 1676.1988,-385.8153 1622.3215,-312.9683 1538.2107,-256.9713 1464.6216,-218.2139"/>
<polygon fill="#242424" stroke="#242424" points="1466.1888,-215.0839 1455.7022,-213.5729 1462.9576,-221.2936 1466.1888,-215.0839"/>
</g>
<!-- random&#45;word.js&#45;&gt;array.js -->
<g id="edge101" class="edge">
<title>random&#45;word.js&#45;&gt;array.js</title>
<path fill="none" stroke="#242424" d="M2188.6044,-1359.3607C2170.7776,-1296.9389 2145.3665,-1207.9599 2129.0771,-1150.9217"/>
<polygon fill="#242424" stroke="#242424" points="2132.3569,-1149.6603 2126.2453,-1141.0058 2125.626,-1151.5826 2132.3569,-1149.6603"/>
</g>
<!-- random&#45;word.js&#45;&gt;random&#45;take.js -->
<g id="edge102" class="edge">
<title>random&#45;word.js&#45;&gt;random&#45;take.js</title>
<path fill="none" stroke="#242424" d="M2160.776,-1374.409C2138.7255,-1351.2288 2111.1108,-1325.7531 2082.1988,-1307.8645 1991.7139,-1251.8792 1953.3059,-1272.3626 1856.1988,-1228.8645 1797.8598,-1202.7321 1734.7553,-1167.4922 1687.7584,-1139.7745"/>
<polygon fill="#242424" stroke="#242424" points="1689.2655,-1136.5993 1678.878,-1134.5135 1685.6976,-1142.6218 1689.2655,-1136.5993"/>
</g>
<!-- range.js&#45;&gt;Ⓜ katsu&#45;curry/katsu&#45;curry.js -->
<g id="edge103" class="edge">
<title>range.js&#45;&gt;Ⓜ katsu&#45;curry/katsu&#45;curry.js</title>
<path fill="none" stroke="#242424" d="M619.2286,-1384.8314C626.2463,-1343.7865 636.625,-1282.3961 645.1988,-1228.8645 686.6847,-969.8412 696.4015,-904.9702 734.1988,-645.383 742.5895,-587.7568 734.8439,-432.0886 770.1988,-385.8153 861.8686,-265.8359 1027.6649,-207.0123 1152.2137,-178.6724"/>
<polygon fill="#242424" stroke="#242424" points="1153.2412,-182.0293 1162.2395,-176.4364 1151.7174,-175.1972 1153.2412,-182.0293"/>
</g>
<!-- reject.js&#45;&gt;Ⓜ katsu&#45;curry/katsu&#45;curry.js -->
<g id="edge106" class="edge">
<title>reject.js&#45;&gt;Ⓜ katsu&#45;curry/katsu&#45;curry.js</title>
<path fill="none" stroke="#242424" d="M1427.7868,-1043.7777C1414.7,-891.515 1376.3779,-450.3519 1366.1988,-385.8153 1362.4479,-362.0344 1357.7132,-337.0481 1352.6362,-312.6351"/>
<polygon fill="#242424" stroke="#242424" points="1356.0048,-311.6462 1350.5198,-302.5816 1349.1549,-313.0882 1356.0048,-311.6462"/>
</g>
<!-- reject.js&#45;&gt;filter.js -->
<g id="edge107" class="edge">
<title>reject.js&#45;&gt;filter.js</title>
<path fill="none" stroke="#242424" d="M1455.9366,-1049.1433C1473.1307,-1020.0553 1498.9781,-983.9413 1531.1988,-961.7807 1573.6078,-932.6127 1900.4047,-851.3817 2037.7296,-818.0927"/>
<polygon fill="#242424" stroke="#242424" points="2038.78,-821.4396 2047.6759,-815.6852 2037.1331,-814.6361 2038.78,-821.4396"/>
</g>
<!-- string.js&#45;&gt;Ⓜ katsu&#45;curry/katsu&#45;curry.js -->
<g id="edge109" class="edge">
<title>string.js&#45;&gt;Ⓜ katsu&#45;curry/katsu&#45;curry.js</title>
<path fill="none" stroke="#242424" d="M2239.2397,-465.3883C2230.2985,-438.1854 2215.3433,-406.0861 2191.1988,-385.8153 2083.3804,-295.2952 1698.5436,-217.875 1476.1138,-179.3943"/>
<polygon fill="#242424" stroke="#242424" points="1476.4237,-175.8962 1465.9746,-177.6477 1475.2353,-182.7946 1476.4237,-175.8962"/>
</g>
<!-- string.js&#45;&gt;Ⓜ entrust/entrust.js -->
<g id="edge108" class="edge">
<title>string.js&#45;&gt;Ⓜ entrust/entrust.js</title>
<path fill="none" stroke="#242424" d="M2266.9335,-466.1518C2276.8236,-440.3193 2291.4807,-409.2894 2311.1988,-385.8153 2373.1975,-312.007 2464.0279,-250.9601 2535.4738,-209.9827"/>
<polygon fill="#242424" stroke="#242424" points="2537.566,-212.8194 2544.5308,-204.8356 2534.1074,-206.7335 2537.566,-212.8194"/>
</g>
<!-- ternary.js&#45;&gt;Ⓜ katsu&#45;curry/katsu&#45;curry.js -->
<g id="edge110" class="edge">
<title>ternary.js&#45;&gt;Ⓜ katsu&#45;curry/katsu&#45;curry.js</title>
<path fill="none" stroke="#242424" d="M1131.0136,-1375.8921C1155.7327,-1247.5781 1217.3053,-920.6081 1257.1988,-645.383 1273.0725,-535.8702 1287.3916,-412.1311 1297.7074,-316.1459"/>
<polygon fill="#242424" stroke="#242424" points="1301.2025,-316.3774 1298.7874,-306.0615 1294.2423,-315.6319 1301.2025,-316.3774"/>
</g>
<!-- triplet.js&#45;&gt;Ⓜ katsu&#45;curry/katsu&#45;curry.js -->
<g id="edge111" class="edge">
<title>triplet.js&#45;&gt;Ⓜ katsu&#45;curry/katsu&#45;curry.js</title>
<path fill="none" stroke="#242424" d="M1949.4598,-1039.071C1935.8918,-889.8175 1892.6107,-488.1844 1812.1988,-385.8153 1728.8743,-279.7383 1585.6966,-219.9431 1474.1886,-187.6631"/>
<polygon fill="#242424" stroke="#242424" points="1475.0979,-184.2829 1464.5216,-184.9103 1473.1807,-191.0153 1475.0979,-184.2829"/>
</g>
<!-- which.js&#45;&gt;Ⓜ katsu&#45;curry/katsu&#45;curry.js -->
<g id="edge115" class="edge">
<title>which.js&#45;&gt;Ⓜ katsu&#45;curry/katsu&#45;curry.js</title>
<path fill="none" stroke="#242424" d="M2402.7398,-1390.0168C2386.0676,-1362.9381 2360.9432,-1328.8349 2330.1988,-1307.8645 2225.8501,-1236.6892 2140.0319,-1324.223 2057.1988,-1228.8645 2017.8847,-1183.6056 2031.0899,-1020.5392 2019.1988,-961.7807 2006.0705,-896.9086 1910.6163,-435.7719 1867.1988,-385.8153 1766.9301,-270.4453 1599.8559,-210.971 1475.541,-181.2222"/>
<polygon fill="#242424" stroke="#242424" points="1476.0731,-177.7519 1465.5374,-178.8702 1474.4709,-184.5661 1476.0731,-177.7519"/>
</g>
<!-- which.js&#45;&gt;Ⓜ fast.js/array/every.js -->
<g id="edge113" class="edge">
<title>which.js&#45;&gt;Ⓜ fast.js/array/every.js</title>
<path fill="none" stroke="#242424" d="M2414.9276,-1385.438C2406.2977,-1346.7586 2393.4936,-1289.3703 2381.5461,-1235.8215"/>
<polygon fill="#242424" stroke="#242424" points="2384.9201,-1234.8706 2379.3264,-1225.8728 2378.0881,-1236.395 2384.9201,-1234.8706"/>
</g>
<!-- which.js&#45;&gt;Ⓜ fast.js/array/some.js -->
<g id="edge114" class="edge">
<title>which.js&#45;&gt;Ⓜ fast.js/array/some.js</title>
<path fill="none" stroke="#242424" d="M2447.2312,-1389.877C2463.6441,-1362.7367 2488.482,-1328.6174 2519.1988,-1307.8645 2629.1787,-1233.5596 2685.6201,-1282.1131 2807.1988,-1228.8645 2841.0242,-1214.0498 2875.7842,-1194.506 2907.1932,-1174.9559"/>
<polygon fill="#242424" stroke="#242424" points="2909.356,-1177.7305 2915.9598,-1169.4456 2905.6308,-1171.8041 2909.356,-1177.7305"/>
</g>
<!-- which.js&#45;&gt;triplet.js -->
<g id="edge117" class="edge">
<title>which.js&#45;&gt;triplet.js</title>
<path fill="none" stroke="#242424" d="M2401.9634,-1390.3586C2384.4977,-1363.0747 2358.1409,-1328.5952 2326.1988,-1307.8645 2209.8216,-1232.3347 2132.7791,-1315.2283 2024.1988,-1228.8645 2001.6735,-1210.948 1985.5844,-1183.7869 1974.5581,-1158.6276"/>
<polygon fill="#242424" stroke="#242424" points="1977.6639,-1156.9823 1970.5773,-1149.1065 1971.2057,-1159.6826 1977.6639,-1156.9823"/>
</g>
<!-- flip.js -->
<g id="node37" class="node">
<title>flip.js</title>
<ellipse fill="none" stroke="#242424" stroke-width="4" cx="810.1988" cy="-1095.3226" rx="42.3196" ry="42.3196"/>
<text text-anchor="middle" x="810.1988" y="-1092.9226" font-family="Fira Code" font-size="12.00" fill="#242424">flip.js</text>
</g>
<!-- which.js&#45;&gt;flip.js -->
<g id="edge116" class="edge">
<title>which.js&#45;&gt;flip.js</title>
<path fill="none" stroke="#242424" d="M2397.0883,-1393.5451C2373.0782,-1364.4121 2335.7382,-1326.1651 2293.1988,-1307.8645 2024.0754,-1192.0864 1250.6346,-1334.054 977.1988,-1228.8645 925.2355,-1208.8744 876.8402,-1166.4729 845.6669,-1134.7802"/>
<polygon fill="#242424" stroke="#242424" points="847.9774,-1132.1347 838.5086,-1127.3814 842.9466,-1137.002 847.9774,-1132.1347"/>
</g>
<!-- either.js -->
<g id="node36" class="node">
<title>either.js</title>
<ellipse fill="none" stroke="#242424" stroke-width="4" cx="3296.1988" cy="-803.5818" rx="51.7142" ry="51.7142"/>
<text text-anchor="middle" x="3296.1988" y="-801.1819" font-family="Fira Code" font-size="12.00" fill="#242424">either.js</text>
</g>
<!-- either.js&#45;&gt;Ⓜ entrust/entrust.js -->
<g id="edge42" class="edge">
<title>either.js&#45;&gt;Ⓜ entrust/entrust.js</title>
<path fill="none" stroke="#242424" d="M3263.7369,-763.0172C3253.291,-750.4066 3241.4926,-736.6109 3230.1988,-724.383 3063.5702,-543.9739 2855.0975,-346.3288 2737.6697,-237.3471"/>
<polygon fill="#242424" stroke="#242424" points="2739.7805,-234.5312 2730.0681,-230.298 2735.0208,-239.664 2739.7805,-234.5312"/>
</g>
<!-- flip.js&#45;&gt;Ⓜ katsu&#45;curry/katsu&#45;curry.js -->
<g id="edge45" class="edge">
<title>flip.js&#45;&gt;Ⓜ katsu&#45;curry/katsu&#45;curry.js</title>
<path fill="none" stroke="#242424" d="M800.1546,-1053.7118C774.4869,-936.9681 718.0698,-600.8641 860.1988,-385.8153 927.1826,-284.4652 1052.7691,-224.9956 1154.9043,-191.6266"/>
<polygon fill="#242424" stroke="#242424" points="1156.2606,-194.8672 1164.7124,-188.4782 1154.1212,-188.2021 1156.2606,-194.8672"/>
</g>
<!-- future.js -->
<g id="node38" class="node">
<title>future.js</title>
<ellipse fill="none" stroke="#242424" stroke-width="4" cx="2646.1988" cy="-515.5992" rx="51.7142" ry="51.7142"/>
<text text-anchor="middle" x="2646.1988" y="-513.1992" font-family="Fira Code" font-size="12.00" fill="#242424">future.js</text>
</g>
<!-- future.js&#45;&gt;Ⓜ entrust/entrust.js -->
<g id="edge46" class="edge">
<title>future.js&#45;&gt;Ⓜ entrust/entrust.js</title>
<path fill="none" stroke="#242424" d="M2646.1988,-463.706C2646.1988,-415.2459 2646.1988,-341.0305 2646.1988,-277.3311"/>
<polygon fill="#242424" stroke="#242424" points="2649.6989,-277.2036 2646.1988,-267.2036 2642.6989,-277.2036 2649.6989,-277.2036"/>
</g>
<!-- index.js -->
<g id="node39" class="node">
<title>index.js</title>
<ellipse fill="none" stroke="#242424" stroke-width="4" cx="1078.1988" cy="-1681.0909" rx="47.0167" ry="47.0167"/>
<text text-anchor="middle" x="1078.1988" y="-1678.6909" font-family="Fira Code" font-size="12.00" fill="#242424">index.js</text>
</g>
<!-- index.js&#45;&gt;../package.json -->
<g id="edge48" class="edge">
<title>index.js&#45;&gt;../package.json</title>
<path fill="none" stroke="#242424" d="M1031.0126,-1679.2572C866.5307,-1672.1491 320.4341,-1642.3323 172.1988,-1555.0826 153.1321,-1543.8601 136.7059,-1527.0596 123.1953,-1509.4334"/>
<polygon fill="#242424" stroke="#242424" points="125.9455,-1507.2655 117.1939,-1501.2938 120.3113,-1511.4196 125.9455,-1507.2655"/>
</g>
<!-- index.js&#45;&gt;ap.js -->
<g id="edge49" class="edge">
<title>index.js&#45;&gt;ap.js</title>
<path fill="none" stroke="#242424" d="M1034.0916,-1664.5756C987.4224,-1645.0292 914.5262,-1608.276 870.1988,-1555.0826 850.8006,-1531.8044 838.9117,-1499.6742 831.9451,-1474.0064"/>
<polygon fill="#242424" stroke="#242424" points="835.2957,-1472.9817 829.425,-1464.1621 828.5144,-1474.7178 835.2957,-1472.9817"/>
</g>
<!-- index.js&#45;&gt;Ⓜ katsu&#45;curry/katsu&#45;curry.js -->
<g id="edge47" class="edge">
<title>index.js&#45;&gt;Ⓜ katsu&#45;curry/katsu&#45;curry.js</title>
<path fill="none" stroke="#242424" d="M1031.0711,-1677.9809C903.6492,-1668.5564 556.8582,-1635.8523 482.1988,-1555.0826 412.2601,-1479.4199 422.1988,-1198.3578 422.1988,-1095.3226 422.1988,-1095.3226 422.1988,-1095.3226 422.1988,-803.5818 422.1988,-710.3412 401.2072,-457.1934 461.1988,-385.8153 549.402,-280.871 929.8271,-209.2251 1151.7208,-175.5041"/>
<polygon fill="#242424" stroke="#242424" points="1152.4728,-178.9304 1161.838,-173.9762 1151.4274,-172.0088 1152.4728,-178.9304"/>
</g>
<!-- index.js&#45;&gt;map.js -->
<g id="edge60" class="edge">
<title>index.js&#45;&gt;map.js</title>
<path fill="none" stroke="#242424" d="M1031.0999,-1678.1583C905.5591,-1669.2639 567.9151,-1637.9412 501.1988,-1555.0826 464.6529,-1509.6943 508.2383,-1005.5886 523.1988,-961.7807 539.085,-915.262 572.4559,-869.5674 597.7326,-839.3432"/>
<polygon fill="#242424" stroke="#242424" points="600.4864,-841.5076 604.2967,-831.6216 595.1531,-836.9737 600.4864,-841.5076"/>
</g>
<!-- index.js&#45;&gt;reduce.js -->
<g id="edge70" class="edge">
<title>index.js&#45;&gt;reduce.js</title>
<path fill="none" stroke="#242424" d="M1035.1664,-1661.4129C996.2806,-1640.9932 941.5285,-1605.02 917.1988,-1555.0826 869.075,-1456.3073 908.2487,-1417.3741 917.1988,-1307.8645 920.0973,-1272.3994 926.3019,-1264.2338 930.1988,-1228.8645 944.3872,-1100.0864 950.396,-948.3931 952.7756,-865.4593"/>
<polygon fill="#242424" stroke="#242424" points="956.2746,-865.5412 953.0548,-855.4475 949.2773,-865.346 956.2746,-865.5412"/>
</g>
<!-- index.js&#45;&gt;types.js -->
<g id="edge75" class="edge">
<title>index.js&#45;&gt;types.js</title>
<path fill="none" stroke="#242424" d="M1038.0278,-1656.1983C1006.4387,-1634.0491 964.769,-1598.4828 946.1988,-1555.0826 902.976,-1454.0665 924.9883,-1415.6725 946.1988,-1307.8645 952.4303,-1276.1915 985.5845,-1199.5546 1009.1109,-1147.5051"/>
<polygon fill="#242424" stroke="#242424" points="1012.4386,-1148.6415 1013.3831,-1138.0888 1006.064,-1145.7493 1012.4386,-1148.6415"/>
</g>
<!-- index.js&#45;&gt;array.js -->
<g id="edge50" class="edge">
<title>index.js&#45;&gt;array.js</title>
<path fill="none" stroke="#242424" d="M1125.2387,-1679.852C1339.1925,-1673.7428 2213.4955,-1643.4795 2293.1988,-1555.0826 2366.7756,-1473.4804 2345.1381,-1404.6878 2293.1988,-1307.8645 2263.1898,-1251.9227 2215.4153,-1277.1472 2174.1988,-1228.8645 2154.7557,-1206.088 2140.3108,-1176.0898 2130.3715,-1150.296"/>
<polygon fill="#242424" stroke="#242424" points="2133.5471,-1148.7936 2126.7818,-1140.6399 2126.9858,-1151.2328 2133.5471,-1148.7936"/>
</g>
<!-- index.js&#45;&gt;filter.js -->
<g id="edge54" class="edge">
<title>index.js&#45;&gt;filter.js</title>
<path fill="none" stroke="#242424" d="M1125.2727,-1679.9526C1271.3982,-1675.3941 1713.1239,-1653.5688 1808.1988,-1555.0826 1854.4091,-1507.2142 1855.6051,-1019.2108 1889.1988,-961.7807 1924.6734,-901.1351 1993.3759,-856.0995 2042.3249,-829.9031"/>
<polygon fill="#242424" stroke="#242424" points="2043.9958,-832.979 2051.2225,-825.2314 2040.7416,-826.7814 2043.9958,-832.979"/>
</g>
<!-- index.js&#45;&gt;chain.js -->
<g id="edge51" class="edge">
<title>index.js&#45;&gt;chain.js</title>
<path fill="none" stroke="#242424" d="M1125.4451,-1678.2474C1367.0566,-1663.5428 2455.4586,-1595.2643 2514.1988,-1555.0826 2537.3028,-1539.2781 2552.0288,-1512.1094 2561.2094,-1487.2614"/>
<polygon fill="#242424" stroke="#242424" points="2564.6174,-1488.1156 2564.5789,-1477.5208 2558.002,-1485.8271 2564.6174,-1488.1156"/>
</g>
<!-- index.js&#45;&gt;choice.js -->
<g id="edge52" class="edge">
<title>index.js&#45;&gt;choice.js</title>
<path fill="none" stroke="#242424" d="M1124.8447,-1674.3946C1234.8959,-1657.812 1506.7583,-1612.0288 1577.1988,-1555.0826 1597.4808,-1538.686 1611.5494,-1513.8475 1621.0191,-1490.7266"/>
<polygon fill="#242424" stroke="#242424" points="1624.3244,-1491.8833 1624.6755,-1481.2943 1617.7976,-1489.3532 1624.3244,-1491.8833"/>
</g>
<!-- index.js&#45;&gt;invert.js -->
<g id="edge57" class="edge">
<title>index.js&#45;&gt;invert.js</title>
<path fill="none" stroke="#242424" d="M1125.2362,-1678.7548C1273.6297,-1670.5728 1729.002,-1639.0152 1846.1988,-1555.0826 1868.1119,-1539.3891 1883.4196,-1514.1271 1893.735,-1490.5183"/>
<polygon fill="#242424" stroke="#242424" points="1896.989,-1491.8083 1897.5828,-1481.2301 1890.522,-1489.1292 1896.989,-1491.8083"/>
</g>
<!-- index.js&#45;&gt;iterate.js -->
<g id="edge58" class="edge">
<title>index.js&#45;&gt;iterate.js</title>
<path fill="none" stroke="#242424" d="M1113.624,-1650.0373C1137.9693,-1626.5295 1168.7592,-1592.0591 1185.1988,-1555.0826 1230.2318,-1453.7929 1141.0045,-1387.417 1218.1988,-1307.8645 1369.0661,-1152.3884 1557.6177,-1392.8417 1699.1988,-1228.8645 1744.138,-1176.8166 1727.3948,-975.4105 1714.9332,-869.5122"/>
<polygon fill="#242424" stroke="#242424" points="1718.4069,-869.0834 1713.7428,-859.5704 1711.4566,-869.9156 1718.4069,-869.0834"/>
</g>
<!-- index.js&#45;&gt;math.js -->
<g id="edge61" class="edge">
<title>index.js&#45;&gt;math.js</title>
<path fill="none" stroke="#242424" d="M1031.1026,-1677.6992C859.7427,-1664.8882 276.6699,-1617.0117 223.1988,-1555.0826 195.6414,-1523.1661 221.6971,-1023.3364 237.1988,-961.7807 247.3828,-921.3413 268.6037,-879.0419 286.1933,-848.3674"/>
<polygon fill="#242424" stroke="#242424" points="289.2704,-850.0385 291.282,-839.6364 283.2226,-846.5137 289.2704,-850.0385"/>
</g>
<!-- index.js&#45;&gt;object.js -->
<g id="edge62" class="edge">
<title>index.js&#45;&gt;object.js</title>
<path fill="none" stroke="#242424" d="M1031.2514,-1677.0345C914.1749,-1665.8495 614.4354,-1630.2863 555.1988,-1555.0826 462.618,-1437.5467 520.8328,-1246.2743 558.891,-1151.7988"/>
<polygon fill="#242424" stroke="#242424" points="562.1833,-1152.995 562.7339,-1142.4144 555.7054,-1150.3422 562.1833,-1152.995"/>
</g>
<!-- index.js&#45;&gt;path.js -->
<g id="edge63" class="edge">
<title>index.js&#45;&gt;path.js</title>
<path fill="none" stroke="#242424" d="M1031.323,-1677.4989C863.5091,-1664.1723 299.8907,-1615.2145 248.1988,-1555.0826 196.5263,-1494.9732 248.6272,-1253.121 274.9541,-1146.3804"/>
<polygon fill="#242424" stroke="#242424" points="278.3985,-1147.0323 277.417,-1136.483 271.6057,-1145.3419 278.3985,-1147.0323"/>
</g>
<!-- index.js&#45;&gt;random&#45;floor.js -->
<g id="edge64" class="edge">
<title>index.js&#45;&gt;random&#45;floor.js</title>
<path fill="none" stroke="#242424" d="M1044.7351,-1647.8483C1023.4327,-1624.2143 997.7492,-1590.4905 986.1988,-1555.0826 952.1239,-1450.6252 937.592,-1406.403 986.1988,-1307.8645 1011.7209,-1256.1246 1046.0992,-1267.2158 1089.1988,-1228.8645 1222.6086,-1110.1525 1364.9014,-956.9909 1442.7481,-870.6142"/>
<polygon fill="#242424" stroke="#242424" points="1445.5315,-872.7535 1449.6185,-862.9787 1440.3278,-868.0714 1445.5315,-872.7535"/>
</g>
<!-- index.js&#45;&gt;random&#45;shuffle.js -->
<g id="edge65" class="edge">
<title>index.js&#45;&gt;random&#45;shuffle.js</title>
<path fill="none" stroke="#242424" d="M1124.0527,-1670.0699C1187.1937,-1653.2316 1302.2704,-1616.4273 1383.1988,-1555.0826 1398.5639,-1543.4357 1412.8386,-1528.7977 1425.4538,-1513.708"/>
<polygon fill="#242424" stroke="#242424" points="1428.3003,-1515.7552 1431.8965,-1505.7893 1422.8704,-1511.3374 1428.3003,-1515.7552"/>
</g>
<!-- index.js&#45;&gt;random&#45;take.js -->
<g id="edge66" class="edge">
<title>index.js&#45;&gt;random&#45;take.js</title>
<path fill="none" stroke="#242424" d="M1067.8446,-1635.2078C1049.0227,-1546.5823 1014.7118,-1356.3072 1055.1988,-1307.8645 1182.0504,-1156.0864 1320.0338,-1324.4771 1493.1988,-1228.8645 1521.3552,-1213.318 1546.51,-1188.8355 1566.5581,-1165.0559"/>
<polygon fill="#242424" stroke="#242424" points="1569.5084,-1166.9787 1573.1581,-1157.0324 1564.1023,-1162.5318 1569.5084,-1166.9787"/>
</g>
<!-- index.js&#45;&gt;random&#45;word.js -->
<g id="edge67" class="edge">
<title>index.js&#45;&gt;random&#45;word.js</title>
<path fill="none" stroke="#242424" d="M1125.5675,-1680.0768C1261.0733,-1675.9882 1660.6244,-1655.6142 1973.1988,-1555.0826 2031.1956,-1536.4294 2091.9886,-1504.2474 2137.3465,-1477.3966"/>
<polygon fill="#242424" stroke="#242424" points="2139.4173,-1480.2365 2146.2069,-1472.1031 2135.8272,-1474.2273 2139.4173,-1480.2365"/>
</g>
<!-- index.js&#45;&gt;random.js -->
<g id="edge68" class="edge">
<title>index.js&#45;&gt;random.js</title>
<path fill="none" stroke="#242424" d="M1119.8324,-1659.1366C1158.8446,-1636.9621 1216.8861,-1599.6706 1256.1988,-1555.0826 1273.3031,-1535.6831 1287.5835,-1511.0785 1298.4357,-1488.9377"/>
<polygon fill="#242424" stroke="#242424" points="1301.7326,-1490.155 1302.8749,-1479.622 1295.4134,-1487.1437 1301.7326,-1490.155"/>
</g>
<!-- index.js&#45;&gt;range.js -->
<g id="edge69" class="edge">
<title>index.js&#45;&gt;range.js</title>
<path fill="none" stroke="#242424" d="M1031.126,-1678.3262C949.0221,-1671.1714 778.2845,-1645.6508 672.1988,-1555.0826 651.2308,-1537.1816 636.7812,-1510.3586 627.2295,-1486.2693"/>
<polygon fill="#242424" stroke="#242424" points="630.4812,-1484.9724 623.6809,-1476.848 623.9304,-1487.4399 630.4812,-1484.9724"/>
</g>
<!-- index.js&#45;&gt;reject.js -->
<g id="edge71" class="edge">
<title>index.js&#45;&gt;reject.js</title>
<path fill="none" stroke="#242424" d="M1055.0079,-1639.9977C1016.9897,-1566.5607 952.2715,-1410.8605 1022.1988,-1307.8645 1075.6501,-1229.136 1136.4049,-1272.0524 1221.1988,-1228.8645 1278.3006,-1199.7809 1339.8077,-1159.7607 1381.5951,-1131.13"/>
<polygon fill="#242424" stroke="#242424" points="1383.6915,-1133.936 1389.943,-1125.3821 1379.7217,-1128.1705 1383.6915,-1133.936"/>
</g>
<!-- index.js&#45;&gt;string.js -->
<g id="edge72" class="edge">
<title>index.js&#45;&gt;string.js</title>
<path fill="none" stroke="#242424" d="M1125.35,-1677.8827C1255.5602,-1668.0721 1615.9789,-1634.1942 1699.1988,-1555.0826 1896.4855,-1367.5353 1730.9154,-1205.969 1851.1988,-961.7807 1910.428,-841.539 1933.8305,-809.7126 2037.1988,-724.383 2096.5223,-675.4121 2137.9295,-700.8791 2191.1988,-645.383 2210.0921,-625.7 2223.822,-598.9952 2233.3396,-574.9262"/>
<polygon fill="#242424" stroke="#242424" points="2236.6397,-576.0946 2236.9093,-565.5031 2230.0936,-573.6147 2236.6397,-576.0946"/>
</g>
<!-- index.js&#45;&gt;ternary.js -->
<g id="edge73" class="edge">
<title>index.js&#45;&gt;ternary.js</title>
<path fill="none" stroke="#242424" d="M1086.0003,-1634.7248C1092.5148,-1596.0073 1101.879,-1540.353 1109.1621,-1497.0676"/>
<polygon fill="#242424" stroke="#242424" points="1112.616,-1497.6337 1110.8238,-1487.1915 1105.713,-1496.4722 1112.616,-1497.6337"/>
</g>
<!-- index.js&#45;&gt;triplet.js -->
<g id="edge74" class="edge">
<title>index.js&#45;&gt;triplet.js</title>
<path fill="none" stroke="#242424" d="M1118.1218,-1656.2489C1150.4783,-1633.8925 1194.4641,-1598.0089 1218.1988,-1555.0826 1272.163,-1457.4836 1182.1017,-1386.486 1261.1988,-1307.8645 1411.7394,-1158.2291 1533.0928,-1302.4175 1732.1988,-1228.8645 1793.9027,-1206.0701 1857.5595,-1165.7358 1900.7994,-1135.3418"/>
<polygon fill="#242424" stroke="#242424" points="1903.0383,-1138.0449 1909.1686,-1129.4037 1898.9876,-1132.3359 1903.0383,-1138.0449"/>
</g>
<!-- index.js&#45;&gt;which.js -->
<g id="edge76" class="edge">
<title>index.js&#45;&gt;which.js</title>
<path fill="none" stroke="#242424" d="M1125.2725,-1679.1681C1344.6417,-1669.8512 2260.3533,-1626.8952 2364.1988,-1555.0826 2387.2223,-1539.161 2401.9414,-1511.9823 2411.1382,-1487.1578"/>
<polygon fill="#242424" stroke="#242424" points="2414.5427,-1488.0231 2414.5152,-1477.4283 2407.9297,-1485.7277 2414.5427,-1488.0231"/>
</g>
<!-- index.js&#45;&gt;either.js -->
<g id="edge53" class="edge">
<title>index.js&#45;&gt;either.js</title>
<path fill="none" stroke="#242424" d="M1125.5017,-1678.5953C1379.0236,-1665.0518 2567.829,-1599.3581 2631.1988,-1555.0826 2730.3822,-1485.7846 2682.0867,-1411.0944 2745.1988,-1307.8645 2768.48,-1269.7845 2786.9327,-1268.6311 2807.1988,-1228.8645 2863.2374,-1118.9043 2799.8798,-1052.8274 2883.1988,-961.7807 2976.9088,-859.3791 3144.2266,-822.7132 3234.4585,-810.0072"/>
<polygon fill="#242424" stroke="#242424" points="3235.0989,-813.4525 3244.5389,-808.6425 3234.1597,-806.5158 3235.0989,-813.4525"/>
</g>
<!-- index.js&#45;&gt;flip.js -->
<g id="edge55" class="edge">
<title>index.js&#45;&gt;flip.js</title>
<path fill="none" stroke="#242424" d="M1031.3542,-1676.7867C962.8042,-1667.6827 837.2391,-1639.7343 781.1988,-1555.0826 696.6447,-1427.3593 754.8369,-1233.4159 789.5146,-1143.8217"/>
<polygon fill="#242424" stroke="#242424" points="792.7968,-1145.0389 793.2035,-1134.4519 786.2834,-1142.4745 792.7968,-1145.0389"/>
</g>
<!-- index.js&#45;&gt;future.js -->
<g id="edge56" class="edge">
<title>index.js&#45;&gt;future.js</title>
<path fill="none" stroke="#242424" d="M1125.5361,-1678.6201C1365.1024,-1665.8937 2434.3251,-1606.3549 2481.1988,-1555.0826 2518.2672,-1514.5357 2514.229,-1351.7634 2481.1988,-1307.8645 2404.9994,-1206.5912 2283.3982,-1330.1377 2207.1988,-1228.8645 2171.5144,-1181.4379 2174.8442,-1011.5384 2207.1988,-961.7807 2254.3814,-889.2192 2316.3177,-935.1901 2385.1988,-882.7807 2493.8622,-800.1021 2505.4788,-759.6652 2580.1988,-645.383 2595.2806,-622.3159 2609.4872,-595.3565 2620.8285,-572.0041"/>
<polygon fill="#242424" stroke="#242424" points="2624.0202,-573.4429 2625.1889,-562.9127 2617.7085,-570.4157 2624.0202,-573.4429"/>
</g>
<!-- length.js -->
<g id="node40" class="node">
<title>length.js</title>
<ellipse fill="none" stroke="#242424" stroke-width="4" cx="342.1988" cy="-1431.4735" rx="51.7142" ry="51.7142"/>
<text text-anchor="middle" x="342.1988" y="-1429.0735" font-family="Fira Code" font-size="12.00" fill="#242424">length.js</text>
</g>
<!-- index.js&#45;&gt;length.js -->
<g id="edge59" class="edge">
<title>index.js&#45;&gt;length.js</title>
<path fill="none" stroke="#242424" d="M1031.2632,-1677.5097C895.9767,-1666.3901 508.5072,-1628.7013 408.1988,-1555.0826 386.4699,-1539.1352 371.1869,-1513.839 360.8403,-1490.2731"/>
<polygon fill="#242424" stroke="#242424" points="364.0555,-1488.8895 356.9774,-1481.0059 357.5943,-1491.5827 364.0555,-1488.8895"/>
</g>
<!-- length.js&#45;&gt;Ⓜ katsu&#45;curry/katsu&#45;curry.js -->
<g id="edge79" class="edge">
<title>length.js&#45;&gt;Ⓜ katsu&#45;curry/katsu&#45;curry.js</title>
<path fill="none" stroke="#242424" d="M344.6473,-1379.6209C354.5893,-1171.2552 392.1705,-405.1819 408.1988,-385.8153 502.0377,-272.4325 917.2456,-203.0928 1151.6553,-172.2726"/>
<polygon fill="#242424" stroke="#242424" points="1152.1802,-175.7338 1161.6428,-170.9683 1151.2738,-168.7927 1152.1802,-175.7338"/>
</g>
<!-- length.js&#45;&gt;object.js -->
<g id="edge80" class="edge">
<title>length.js&#45;&gt;object.js</title>
<path fill="none" stroke="#242424" d="M372.359,-1389.5794C416.952,-1327.6373 500.3363,-1211.8122 548.1109,-1145.4506"/>
<polygon fill="#242424" stroke="#242424" points="551.0375,-1147.3759 554.0396,-1137.2153 545.3565,-1143.2861 551.0375,-1147.3759"/>
</g>
<!-- length.js&#45;&gt;path.js -->
<g id="edge81" class="edge">
<title>length.js&#45;&gt;path.js</title>
<path fill="none" stroke="#242424" d="M333.9974,-1380.4194C323.88,-1317.4384 306.7713,-1210.9369 296.5744,-1147.461"/>
<polygon fill="#242424" stroke="#242424" points="299.98,-1146.5931 294.9381,-1137.2749 293.0686,-1147.7035 299.98,-1146.5931"/>
</g>
<!-- map&#45;performance.fixture.js -->
<g id="node41" class="node">
<title>map&#45;performance.fixture.js</title>
<ellipse fill="none" stroke="#242424" stroke-width="4" cx="3534.1988" cy="-515.5992" rx="129.5681" ry="129.5681"/>
<text text-anchor="middle" x="3534.1988" y="-513.1992" font-family="Fira Code" font-size="12.00" fill="#242424">map&#45;performance.fixture.js</text>
</g>
<!-- map&#45;performance.fixture.js&#45;&gt;Ⓜ entrust/entrust.js -->
<g id="edge82" class="edge">
<title>map&#45;performance.fixture.js&#45;&gt;Ⓜ entrust/entrust.js</title>
<path fill="none" stroke="#242424" d="M3443.5676,-422.2126C3426.8387,-408.5162 3408.7584,-395.7147 3390.1988,-385.8153 3263.2269,-318.0903 3213.9046,-348.5965 3076.1988,-306.8153 2968.5494,-274.1535 2848.0941,-230.5546 2762.1207,-198.1852"/>
<polygon fill="#242424" stroke="#242424" points="2763.1916,-194.8485 2752.5999,-194.5934 2760.7208,-201.3979 2763.1916,-194.8485"/>
</g>
<!-- Ⓜ fast.js/index.js -->
<g id="node42" class="node">
<title>Ⓜ fast.js/index.js</title>
<ellipse fill="none" stroke="#0c821d" stroke-width="4" cx="3649.1988" cy="-153.4077" rx="103.9872" ry="103.9872"/>
<text text-anchor="middle" x="3649.1988" y="-152.2077" font-family="Fira Code" font-size="12.00" fill="#0c821d">Ⓜ fast.js/index.js</text>
</g>
<!-- map&#45;performance.fixture.js&#45;&gt;Ⓜ fast.js/index.js -->
<g id="edge83" class="edge">
<title>map&#45;performance.fixture.js&#45;&gt;Ⓜ fast.js/index.js</title>
<path fill="none" stroke="#242424" d="M3573.534,-391.7133C3586.902,-349.6108 3601.7299,-302.9105 3614.6916,-262.0878"/>
<polygon fill="#242424" stroke="#242424" points="3618.0809,-262.9787 3617.7713,-252.3884 3611.4091,-260.8603 3618.0809,-262.9787"/>
</g>
<!-- Ⓜ ramda/src/curry.js -->
<g id="node43" class="node">
<title>Ⓜ ramda/src/curry.js</title>
<ellipse fill="none" stroke="#0c821d" stroke-width="4" cx="3884.1988" cy="-153.4077" rx="113.8526" ry="113.8526"/>
<text text-anchor="middle" x="3884.1988" y="-152.2077" font-family="Fira Code" font-size="12.00" fill="#0c821d">Ⓜ ramda/src/curry.js</text>
</g>
<!-- map&#45;performance.fixture.js&#45;&gt;Ⓜ ramda/src/curry.js -->
<g id="edge84" class="edge">
<title>map&#45;performance.fixture.js&#45;&gt;Ⓜ ramda/src/curry.js</title>
<path fill="none" stroke="#242424" d="M3633.0755,-431.2087C3674.3873,-394.4059 3722.0206,-349.8912 3762.1988,-306.8153 3778.0399,-289.8318 3794.1057,-271.0003 3809.1506,-252.5132"/>
<polygon fill="#242424" stroke="#242424" points="3811.9682,-254.5951 3815.5323,-244.6177 3806.5242,-250.1948 3811.9682,-254.5951"/>
</g>
<!-- Ⓜ ramda/src/map.js -->
<g id="node44" class="node">
<title>Ⓜ ramda/src/map.js</title>
<ellipse fill="none" stroke="#0c821d" stroke-width="4" cx="3189.1988" cy="-153.4077" rx="103.9872" ry="103.9872"/>
<text text-anchor="middle" x="3189.1988" y="-152.2077" font-family="Fira Code" font-size="12.00" fill="#0c821d">Ⓜ ramda/src/map.js</text>
</g>
<!-- map&#45;performance.fixture.js&#45;&gt;Ⓜ ramda/src/map.js -->
<g id="edge85" class="edge">
<title>map&#45;performance.fixture.js&#45;&gt;Ⓜ ramda/src/map.js</title>
<path fill="none" stroke="#242424" d="M3437.8537,-428.5828C3421.9518,-414.2732 3405.6262,-399.6141 3390.1988,-385.8153 3350.7765,-350.5546 3336.7741,-345.9539 3301.1988,-306.8153 3284.6286,-288.5854 3268.1915,-267.9309 3253.2209,-247.8194"/>
<polygon fill="#242424" stroke="#242424" points="3255.8718,-245.5169 3247.1201,-239.5454 3250.2377,-249.6712 3255.8718,-245.5169"/>
</g>
<!-- Ⓜ testperf/index.js -->
<g id="node45" class="node">
<title>Ⓜ testperf/index.js</title>
<ellipse fill="none" stroke="#0c821d" stroke-width="4" cx="3419.1988" cy="-153.4077" rx="108.9199" ry="108.9199"/>
<text text-anchor="middle" x="3419.1988" y="-152.2077" font-family="Fira Code" font-size="12.00" fill="#0c821d">Ⓜ testperf/index.js</text>
</g>
<!-- map&#45;performance.fixture.js&#45;&gt;Ⓜ testperf/index.js -->
<g id="edge86" class="edge">
<title>map&#45;performance.fixture.js&#45;&gt;Ⓜ testperf/index.js</title>
<path fill="none" stroke="#242424" d="M3494.8636,-391.7133C3482.0045,-351.2136 3467.7946,-306.4596 3455.1943,-266.7751"/>
<polygon fill="#242424" stroke="#242424" points="3458.4742,-265.5393 3452.112,-257.0674 3451.8024,-267.6578 3458.4742,-265.5393"/>
</g>
</g>
</svg>
