<?xml version="1.0" encoding="UTF-8" standalone="no"?>
<!DOCTYPE svg PUBLIC "-//W3C//DTD SVG 1.1//EN"
 "http://www.w3.org/Graphics/SVG/1.1/DTD/svg11.dtd">
<!-- Generated by graphviz version 2.40.1 (20161225.0304)
 -->
<!-- Title: G Pages: 1 -->
<svg width="3556pt" height="1674pt"
 viewBox="0.00 0.00 3555.86 1673.66" xmlns="http://www.w3.org/2000/svg" xmlns:xlink="http://www.w3.org/1999/xlink">
<g id="graph0" class="graph" transform="scale(1 1) rotate(0) translate(7.992 1665.6653)">
<title>G</title>
<polygon fill="#eeeeff" stroke="transparent" points="-7.992,7.992 -7.992,-1665.6653 3547.867,-1665.6653 3547.867,7.992 -7.992,7.992"/>
<!-- ../package.json -->
<g id="node1" class="node">
<title>../package.json</title>
<ellipse fill="none" stroke="#0c821d" stroke-width="4" cx="79.1988" cy="-1396.2606" rx="79.3981" ry="79.3981"/>
<text text-anchor="middle" x="79.1988" y="-1393.8606" font-family="Fira Code" font-size="12.00" fill="#0c821d">../package.json</text>
</g>
<!-- ap.js -->
<g id="node2" class="node">
<title>ap.js</title>
<ellipse fill="none" stroke="#242424" stroke-width="4" cx="1455.1988" cy="-1095.3226" rx="33.4262" ry="33.4262"/>
<text text-anchor="middle" x="1455.1988" y="-1092.9226" font-family="Fira Code" font-size="12.00" fill="#242424">ap.js</text>
</g>
<!-- Ⓜ katsu&#45;curry/katsu&#45;curry.js -->
<g id="node3" class="node">
<title>Ⓜ katsu&#45;curry/katsu&#45;curry.js</title>
<ellipse fill="none" stroke="#0c821d" stroke-width="4" cx="1399.1988" cy="-153.4077" rx="153.3154" ry="153.3154"/>
<text text-anchor="middle" x="1399.1988" y="-152.2077" font-family="Fira Code" font-size="12.00" fill="#0c821d">Ⓜ katsu&#45;curry/katsu&#45;curry.js</text>
</g>
<!-- ap.js&#45;&gt;Ⓜ katsu&#45;curry/katsu&#45;curry.js -->
<g id="edge1" class="edge">
<title>ap.js&#45;&gt;Ⓜ katsu&#45;curry/katsu&#45;curry.js</title>
<path fill="none" stroke="#242424" d="M1452.9412,-1062.0415C1449.2048,-1032.1565 1439.3173,-988.9273 1413.1988,-961.7807 1340.8782,-886.6134 1260.467,-961.6467 1192.1988,-882.7807 1121.7472,-801.3923 1154.9188,-752.4931 1144.1988,-645.383 1132.7102,-530.5931 1097.5948,-491.3463 1144.1988,-385.8153 1169.132,-329.3561 1215.305,-280.6954 1261.5806,-242.7019"/>
<polygon fill="#242424" stroke="#242424" points="1264.0299,-245.2227 1269.6089,-236.2157 1259.6308,-239.7777 1264.0299,-245.2227"/>
</g>
<!-- map.js -->
<g id="node4" class="node">
<title>map.js</title>
<ellipse fill="none" stroke="#242424" stroke-width="4" cx="524.1988" cy="-803.5818" rx="37.623" ry="37.623"/>
<text text-anchor="middle" x="524.1988" y="-801.1819" font-family="Fira Code" font-size="12.00" fill="#242424">map.js</text>
</g>
<!-- ap.js&#45;&gt;map.js -->
<g id="edge2" class="edge">
<title>ap.js&#45;&gt;map.js</title>
<path fill="none" stroke="#242424" d="M1454.0435,-1061.864C1451.1023,-1031.2085 1441.7668,-986.8921 1413.1988,-961.7807 1348.911,-905.2712 747.2835,-830.0407 571.9395,-809.1605"/>
<polygon fill="#242424" stroke="#242424" points="572.3187,-805.681 561.9759,-807.978 571.4936,-812.6323 572.3187,-805.681"/>
</g>
<!-- reduce.js -->
<g id="node5" class="node">
<title>reduce.js</title>
<ellipse fill="none" stroke="#242424" stroke-width="4" cx="1253.1988" cy="-803.5818" rx="51.7142" ry="51.7142"/>
<text text-anchor="middle" x="1253.1988" y="-801.1819" font-family="Fira Code" font-size="12.00" fill="#242424">reduce.js</text>
</g>
<!-- ap.js&#45;&gt;reduce.js -->
<g id="edge3" class="edge">
<title>ap.js&#45;&gt;reduce.js</title>
<path fill="none" stroke="#242424" d="M1450.3786,-1062.1964C1444.9782,-1033.6152 1434.0884,-992.2493 1413.1988,-961.7807 1381.3675,-915.3527 1353.6596,-922.9259 1314.1988,-882.7807 1305.6445,-874.0779 1297.1875,-864.1812 1289.4197,-854.4029"/>
<polygon fill="#242424" stroke="#242424" points="1291.9745,-851.9869 1283.0699,-846.2458 1286.4508,-856.2868 1291.9745,-851.9869"/>
</g>
<!-- types.js -->
<g id="node6" class="node">
<title>types.js</title>
<ellipse fill="none" stroke="#242424" stroke-width="4" cx="1370.1988" cy="-803.5818" rx="47.0167" ry="47.0167"/>
<text text-anchor="middle" x="1370.1988" y="-801.1819" font-family="Fira Code" font-size="12.00" fill="#242424">types.js</text>
</g>
<!-- ap.js&#45;&gt;types.js -->
<g id="edge4" class="edge">
<title>ap.js&#45;&gt;types.js</title>
<path fill="none" stroke="#242424" d="M1445.8592,-1063.2667C1431.4997,-1013.9813 1403.8187,-918.9736 1386.2156,-858.5554"/>
<polygon fill="#242424" stroke="#242424" points="1389.531,-857.4221 1383.3734,-848.8003 1382.8105,-859.3802 1389.531,-857.4221"/>
</g>
<!-- map.js&#45;&gt;Ⓜ katsu&#45;curry/katsu&#45;curry.js -->
<g id="edge59" class="edge">
<title>map.js&#45;&gt;Ⓜ katsu&#45;curry/katsu&#45;curry.js</title>
<path fill="none" stroke="#242424" d="M504.9904,-770.9401C462.8722,-694.6396 373.1446,-502.273 464.1988,-385.8153 558.3224,-265.4318 994.398,-198.4992 1236.3475,-170.0437"/>
<polygon fill="#242424" stroke="#242424" points="1236.7686,-173.5184 1246.2954,-168.8825 1235.957,-166.5656 1236.7686,-173.5184"/>
</g>
<!-- Ⓜ fast.js/map.js -->
<g id="node41" class="node">
<title>Ⓜ fast.js/map.js</title>
<ellipse fill="none" stroke="#0c821d" stroke-width="4" cx="567.1988" cy="-515.5992" rx="93.6213" ry="93.6213"/>
<text text-anchor="middle" x="567.1988" y="-514.3992" font-family="Fira Code" font-size="12.00" fill="#0c821d">Ⓜ fast.js/map.js</text>
</g>
<!-- map.js&#45;&gt;Ⓜ fast.js/map.js -->
<g id="edge58" class="edge">
<title>map.js&#45;&gt;Ⓜ fast.js/map.js</title>
<path fill="none" stroke="#242424" d="M529.8203,-765.9331C535.3906,-728.6273 544.1738,-669.8041 551.8267,-618.5506"/>
<polygon fill="#242424" stroke="#242424" points="555.3257,-618.8166 553.3409,-608.4094 548.4024,-617.7828 555.3257,-618.8166"/>
</g>
<!-- delegate&#45;fast.js -->
<g id="node12" class="node">
<title>delegate&#45;fast.js</title>
<ellipse fill="none" stroke="#242424" stroke-width="4" cx="2071.1988" cy="-515.5992" rx="83.5954" ry="83.5954"/>
<text text-anchor="middle" x="2071.1988" y="-513.1992" font-family="Fira Code" font-size="12.00" fill="#242424">delegate&#45;fast.js</text>
</g>
<!-- reduce.js&#45;&gt;delegate&#45;fast.js -->
<g id="edge76" class="edge">
<title>reduce.js&#45;&gt;delegate&#45;fast.js</title>
<path fill="none" stroke="#242424" d="M1278.5225,-758.2536C1288.0198,-745.2568 1300.0124,-732.4389 1314.1988,-724.383 1572.6305,-577.6301 1722.3406,-796.578 1978.1988,-645.383 1997.445,-634.0098 2013.7947,-616.922 2027.1627,-598.8489"/>
<polygon fill="#242424" stroke="#242424" points="2030.16,-600.673 2033.0947,-590.4927 2024.452,-596.6209 2030.16,-600.673"/>
</g>
<!-- Ⓜ fast.js/reduce.js -->
<g id="node42" class="node">
<title>Ⓜ fast.js/reduce.js</title>
<ellipse fill="none" stroke="#0c821d" stroke-width="4" cx="1262.1988" cy="-515.5992" rx="108.9199" ry="108.9199"/>
<text text-anchor="middle" x="1262.1988" y="-514.3992" font-family="Fira Code" font-size="12.00" fill="#0c821d">Ⓜ fast.js/reduce.js</text>
</g>
<!-- reduce.js&#45;&gt;Ⓜ fast.js/reduce.js -->
<g id="edge75" class="edge">
<title>reduce.js&#45;&gt;Ⓜ fast.js/reduce.js</title>
<path fill="none" stroke="#242424" d="M1254.8182,-751.7637C1255.8421,-719.0008 1257.2093,-675.2545 1258.4885,-634.3208"/>
<polygon fill="#242424" stroke="#242424" points="1261.9888,-634.3651 1258.8029,-624.2606 1254.9922,-634.1464 1261.9888,-634.3651"/>
</g>
<!-- types.js&#45;&gt;Ⓜ katsu&#45;curry/katsu&#45;curry.js -->
<g id="edge83" class="edge">
<title>types.js&#45;&gt;Ⓜ katsu&#45;curry/katsu&#45;curry.js</title>
<path fill="none" stroke="#242424" d="M1373.4763,-756.5276C1375.5926,-725.0734 1378.2959,-682.7617 1380.1988,-645.383 1385.7707,-535.9336 1390.5272,-412.7126 1393.8875,-316.9678"/>
<polygon fill="#242424" stroke="#242424" points="1397.3876,-317.024 1394.239,-306.9079 1390.3918,-316.7795 1397.3876,-317.024"/>
</g>
<!-- array.js -->
<g id="node7" class="node">
<title>array.js</title>
<ellipse fill="none" stroke="#242424" stroke-width="4" cx="2070.1988" cy="-1095.3226" rx="47.0167" ry="47.0167"/>
<text text-anchor="middle" x="2070.1988" y="-1092.9226" font-family="Fira Code" font-size="12.00" fill="#242424">array.js</text>
</g>
<!-- array.js&#45;&gt;Ⓜ katsu&#45;curry/katsu&#45;curry.js -->
<g id="edge6" class="edge">
<title>array.js&#45;&gt;Ⓜ katsu&#45;curry/katsu&#45;curry.js</title>
<path fill="none" stroke="#242424" d="M2055.8409,-1050.3432C2042.3488,-1007.4694 2021.9342,-941.0009 2006.1988,-882.7807 1987.3097,-812.8918 2016.7461,-778.0897 1968.1988,-724.383 1896.8467,-645.4479 1810.6928,-726.8106 1742.1988,-645.383 1666.9256,-555.8962 1759.1113,-486.2367 1699.1988,-385.8153 1661.7166,-322.9901 1600.3092,-270.9411 1542.7832,-232.1397"/>
<polygon fill="#242424" stroke="#242424" points="1544.5912,-229.1387 1534.3273,-226.5113 1540.7125,-234.9659 1544.5912,-229.1387"/>
</g>
<!-- Ⓜ entrust/entrust.js -->
<g id="node8" class="node">
<title>Ⓜ entrust/entrust.js</title>
<ellipse fill="none" stroke="#0c821d" stroke-width="4" cx="2496.1988" cy="-153.4077" rx="113.8526" ry="113.8526"/>
<text text-anchor="middle" x="2496.1988" y="-152.2077" font-family="Fira Code" font-size="12.00" fill="#0c821d">Ⓜ entrust/entrust.js</text>
</g>
<!-- array.js&#45;&gt;Ⓜ entrust/entrust.js -->
<g id="edge5" class="edge">
<title>array.js&#45;&gt;Ⓜ entrust/entrust.js</title>
<path fill="none" stroke="#242424" d="M2091.4274,-1053.0522C2138.9721,-957.7639 2251.7582,-728.0816 2276.1988,-645.383 2309.2437,-533.5707 2268.274,-492.9828 2314.1988,-385.8153 2336.6711,-333.3753 2374.0161,-282.5939 2409.0488,-241.9455"/>
<polygon fill="#242424" stroke="#242424" points="2411.8554,-244.0523 2415.7889,-234.2147 2406.5791,-239.4522 2411.8554,-244.0523"/>
</g>
<!-- filter.js -->
<g id="node9" class="node">
<title>filter.js</title>
<ellipse fill="none" stroke="#242424" stroke-width="4" cx="2067.1988" cy="-803.5818" rx="51.7142" ry="51.7142"/>
<text text-anchor="middle" x="2067.1988" y="-801.1819" font-family="Fira Code" font-size="12.00" fill="#242424">filter.js</text>
</g>
<!-- array.js&#45;&gt;filter.js -->
<g id="edge7" class="edge">
<title>array.js&#45;&gt;filter.js</title>
<path fill="none" stroke="#242424" d="M2069.7135,-1048.1251C2069.2033,-998.5078 2068.3982,-920.2169 2067.8369,-865.6304"/>
<polygon fill="#242424" stroke="#242424" points="2071.3343,-865.3491 2067.7315,-855.3857 2064.3346,-865.4212 2071.3343,-865.3491"/>
</g>
<!-- filter.js&#45;&gt;delegate&#45;fast.js -->
<g id="edge15" class="edge">
<title>filter.js&#45;&gt;delegate&#45;fast.js</title>
<path fill="none" stroke="#242424" d="M2067.9186,-751.7637C2068.4665,-712.3118 2069.2357,-656.934 2069.8915,-609.7186"/>
<polygon fill="#242424" stroke="#242424" points="2073.3946,-609.5143 2070.0339,-599.4667 2066.3953,-609.4171 2073.3946,-609.5143"/>
</g>
<!-- Ⓜ fast.js/filter.js -->
<g id="node15" class="node">
<title>Ⓜ fast.js/filter.js</title>
<ellipse fill="none" stroke="#0c821d" stroke-width="4" cx="1860.1988" cy="-515.5992" rx="108.9199" ry="108.9199"/>
<text text-anchor="middle" x="1860.1988" y="-514.3992" font-family="Fira Code" font-size="12.00" fill="#0c821d">Ⓜ fast.js/filter.js</text>
</g>
<!-- filter.js&#45;&gt;Ⓜ fast.js/filter.js -->
<g id="edge14" class="edge">
<title>filter.js&#45;&gt;Ⓜ fast.js/filter.js</title>
<path fill="none" stroke="#242424" d="M2036.8775,-761.3983C2008.8476,-722.4025 1966.1571,-663.0105 1929.7619,-612.3768"/>
<polygon fill="#242424" stroke="#242424" points="1932.4244,-610.0841 1923.7457,-604.007 1926.7404,-614.1698 1932.4244,-610.0841"/>
</g>
<!-- chain.js -->
<g id="node10" class="node">
<title>chain.js</title>
<ellipse fill="none" stroke="#242424" stroke-width="4" cx="2378.1988" cy="-1396.2606" rx="47.0167" ry="47.0167"/>
<text text-anchor="middle" x="2378.1988" y="-1393.8606" font-family="Fira Code" font-size="12.00" fill="#242424">chain.js</text>
</g>
<!-- Ⓜ flatmap&#45;fast/index.js -->
<g id="node11" class="node">
<title>Ⓜ flatmap&#45;fast/index.js</title>
<ellipse fill="none" stroke="#0c821d" stroke-width="4" cx="2378.1988" cy="-1095.3226" rx="128.651" ry="128.651"/>
<text text-anchor="middle" x="2378.1988" y="-1094.1226" font-family="Fira Code" font-size="12.00" fill="#0c821d">Ⓜ flatmap&#45;fast/index.js</text>
</g>
<!-- chain.js&#45;&gt;Ⓜ flatmap&#45;fast/index.js -->
<g id="edge8" class="edge">
<title>chain.js&#45;&gt;Ⓜ flatmap&#45;fast/index.js</title>
<path fill="none" stroke="#242424" d="M2378.1988,-1349.239C2378.1988,-1318.1609 2378.1988,-1275.6713 2378.1988,-1234.3406"/>
<polygon fill="#242424" stroke="#242424" points="2381.6989,-1234.1478 2378.1988,-1224.1478 2374.6989,-1234.1478 2381.6989,-1234.1478"/>
</g>
<!-- chain.js&#45;&gt;delegate&#45;fast.js -->
<g id="edge9" class="edge">
<title>chain.js&#45;&gt;delegate&#45;fast.js</title>
<path fill="none" stroke="#242424" d="M2414.544,-1366.0722C2448.235,-1335.5106 2496.0887,-1284.873 2516.1988,-1228.8645 2556.3127,-1117.1439 2564.5264,-1070.2014 2516.1988,-961.7807 2430.5576,-769.6485 2304.5077,-802.1076 2164.1988,-645.383 2150.0574,-629.5871 2136.0647,-611.6451 2123.394,-594.2493"/>
<polygon fill="#242424" stroke="#242424" points="2125.9688,-591.8353 2117.2852,-585.7652 2120.2881,-595.9256 2125.9688,-591.8353"/>
</g>
<!-- delegate&#45;fast.js&#45;&gt;Ⓜ katsu&#45;curry/katsu&#45;curry.js -->
<g id="edge12" class="edge">
<title>delegate&#45;fast.js&#45;&gt;Ⓜ katsu&#45;curry/katsu&#45;curry.js</title>
<path fill="none" stroke="#242424" d="M2029.5932,-442.4241C2015.3381,-422.059 1997.9339,-401.3023 1978.1988,-385.8153 1853.6484,-288.0749 1682.5719,-226.1822 1558.702,-191.065"/>
<polygon fill="#242424" stroke="#242424" points="1559.3179,-187.6027 1548.7441,-188.2707 1557.4266,-194.3424 1559.3179,-187.6027"/>
</g>
<!-- delegate&#45;fast.js&#45;&gt;Ⓜ entrust/entrust.js -->
<g id="edge11" class="edge">
<title>delegate&#45;fast.js&#45;&gt;Ⓜ entrust/entrust.js</title>
<path fill="none" stroke="#242424" d="M2115.6613,-444.4517C2129.8872,-424.3714 2146.5598,-403.261 2164.1988,-385.8153 2231.5999,-319.1531 2320.0196,-258.2826 2388.6622,-215.5734"/>
<polygon fill="#242424" stroke="#242424" points="2390.695,-218.4314 2397.358,-210.194 2387.0124,-212.4784 2390.695,-218.4314"/>
</g>
<!-- choice.js -->
<g id="node13" class="node">
<title>choice.js</title>
<ellipse fill="none" stroke="#242424" stroke-width="4" cx="2375.1988" cy="-515.5992" rx="51.7142" ry="51.7142"/>
<text text-anchor="middle" x="2375.1988" y="-513.1992" font-family="Fira Code" font-size="12.00" fill="#242424">choice.js</text>
</g>
<!-- choice.js&#45;&gt;Ⓜ katsu&#45;curry/katsu&#45;curry.js -->
<g id="edge10" class="edge">
<title>choice.js&#45;&gt;Ⓜ katsu&#45;curry/katsu&#45;curry.js</title>
<path fill="none" stroke="#242424" d="M2350.8818,-469.957C2333.6082,-441.7425 2307.89,-406.993 2276.1988,-385.8153 2056.9419,-239.2966 1749.3781,-185.0201 1562.7846,-165.0012"/>
<polygon fill="#242424" stroke="#242424" points="1562.9208,-161.4963 1552.6095,-163.9307 1562.1883,-168.4579 1562.9208,-161.4963"/>
</g>
<!-- either.js -->
<g id="node14" class="node">
<title>either.js</title>
<ellipse fill="none" stroke="#242424" stroke-width="4" cx="2617.1988" cy="-515.5992" rx="51.7142" ry="51.7142"/>
<text text-anchor="middle" x="2617.1988" y="-513.1992" font-family="Fira Code" font-size="12.00" fill="#242424">either.js</text>
</g>
<!-- either.js&#45;&gt;Ⓜ entrust/entrust.js -->
<g id="edge13" class="edge">
<title>either.js&#45;&gt;Ⓜ entrust/entrust.js</title>
<path fill="none" stroke="#242424" d="M2600.7543,-466.3755C2584.0641,-416.4163 2557.6038,-337.2123 2535.4789,-270.9856"/>
<polygon fill="#242424" stroke="#242424" points="2538.7361,-269.6893 2532.2478,-261.3136 2532.0968,-271.9074 2538.7361,-269.6893"/>
</g>
<!-- flip.js -->
<g id="node16" class="node">
<title>flip.js</title>
<ellipse fill="none" stroke="#242424" stroke-width="4" cx="632.1988" cy="-1095.3226" rx="42.3196" ry="42.3196"/>
<text text-anchor="middle" x="632.1988" y="-1092.9226" font-family="Fira Code" font-size="12.00" fill="#242424">flip.js</text>
</g>
<!-- flip.js&#45;&gt;Ⓜ katsu&#45;curry/katsu&#45;curry.js -->
<g id="edge16" class="edge">
<title>flip.js&#45;&gt;Ⓜ katsu&#45;curry/katsu&#45;curry.js</title>
<path fill="none" stroke="#242424" d="M639.3315,-1053.2596C664.6824,-904.6457 750.0953,-411.7758 772.1988,-385.8153 888.3224,-249.4288 1092.2383,-193.021 1235.933,-169.7277"/>
<polygon fill="#242424" stroke="#242424" points="1236.843,-173.1273 1246.173,-168.1071 1235.7488,-166.2134 1236.843,-173.1273"/>
</g>
<!-- future.js -->
<g id="node17" class="node">
<title>future.js</title>
<ellipse fill="none" stroke="#242424" stroke-width="4" cx="2691.1988" cy="-803.5818" rx="51.7142" ry="51.7142"/>
<text text-anchor="middle" x="2691.1988" y="-801.1819" font-family="Fira Code" font-size="12.00" fill="#242424">future.js</text>
</g>
<!-- future.js&#45;&gt;Ⓜ entrust/entrust.js -->
<g id="edge17" class="edge">
<title>future.js&#45;&gt;Ⓜ entrust/entrust.js</title>
<path fill="none" stroke="#242424" d="M2699.5342,-752.4914C2710.5432,-671.8056 2723.6353,-511.1713 2678.1988,-385.8153 2676.668,-381.5919 2622.1877,-312.2395 2573.2348,-250.3886"/>
<polygon fill="#242424" stroke="#242424" points="2575.9401,-248.167 2566.9886,-242.4994 2570.452,-252.5122 2575.9401,-248.167"/>
</g>
<!-- index.js -->
<g id="node18" class="node">
<title>index.js</title>
<ellipse fill="none" stroke="#242424" stroke-width="4" cx="1621.1988" cy="-1610.665" rx="47.0167" ry="47.0167"/>
<text text-anchor="middle" x="1621.1988" y="-1608.265" font-family="Fira Code" font-size="12.00" fill="#242424">index.js</text>
</g>
<!-- index.js&#45;&gt;../package.json -->
<g id="edge19" class="edge">
<title>index.js&#45;&gt;../package.json</title>
<path fill="none" stroke="#242424" d="M1573.8832,-1608.4091C1338.8183,-1596.9541 302.7026,-1543.4665 172.1988,-1484.6567 160.3039,-1479.2964 148.9838,-1471.7618 138.5981,-1463.3283"/>
<polygon fill="#242424" stroke="#242424" points="140.7268,-1460.544 130.8442,-1456.7251 136.1883,-1465.8734 140.7268,-1460.544"/>
</g>
<!-- index.js&#45;&gt;ap.js -->
<g id="edge20" class="edge">
<title>index.js&#45;&gt;ap.js</title>
<path fill="none" stroke="#242424" d="M1583.6454,-1582.1796C1556.1931,-1559.096 1520.6584,-1524.0235 1502.1988,-1484.6567 1447.9249,-1368.9124 1447.9822,-1213.5083 1451.8685,-1138.8883"/>
<polygon fill="#242424" stroke="#242424" points="1455.387,-1138.6628 1452.4637,-1128.4793 1448.3985,-1138.2631 1455.387,-1138.6628"/>
</g>
<!-- index.js&#45;&gt;Ⓜ katsu&#45;curry/katsu&#45;curry.js -->
<g id="edge18" class="edge">
<title>index.js&#45;&gt;Ⓜ katsu&#45;curry/katsu&#45;curry.js</title>
<path fill="none" stroke="#242424" d="M1574.0733,-1608.9495C1363.665,-1600.8593 516.6884,-1563.5668 431.1988,-1484.6567 388.7007,-1445.4293 388.7525,-1286.4321 383.1988,-1228.8645 374.2037,-1135.6242 320.7809,-459.041 379.1988,-385.8153 484.5445,-253.7665 975.3347,-190.9105 1235.8053,-166.4122"/>
<polygon fill="#242424" stroke="#242424" points="1236.4879,-169.8638 1246.1199,-165.4508 1235.8382,-162.894 1236.4879,-169.8638"/>
</g>
<!-- index.js&#45;&gt;map.js -->
<g id="edge31" class="edge">
<title>index.js&#45;&gt;map.js</title>
<path fill="none" stroke="#242424" d="M1574.155,-1608.1509C1382.2561,-1597.4654 665.417,-1553.2019 593.1988,-1484.6567 502.2692,-1398.3516 514.3493,-991.7457 521.4123,-851.3747"/>
<polygon fill="#242424" stroke="#242424" points="524.9097,-851.5133 521.9314,-841.3457 517.9191,-851.1513 524.9097,-851.5133"/>
</g>
<!-- index.js&#45;&gt;reduce.js -->
<g id="edge41" class="edge">
<title>index.js&#45;&gt;reduce.js</title>
<path fill="none" stroke="#242424" d="M1602.7325,-1567.2924C1593.0986,-1543.2913 1581.7752,-1512.7211 1574.1988,-1484.6567 1544.1335,-1373.2885 1547.054,-1342.9815 1530.1988,-1228.8645 1521.4606,-1169.703 1533.0617,-1009.6376 1497.1988,-961.7807 1444.0741,-890.8887 1384.1283,-937.166 1314.1988,-882.7807 1304.2535,-875.046 1295.0435,-865.3295 1286.9514,-855.377"/>
<polygon fill="#242424" stroke="#242424" points="1289.6204,-853.1081 1280.7087,-847.3781 1284.1021,-857.4149 1289.6204,-853.1081"/>
</g>
<!-- index.js&#45;&gt;types.js -->
<g id="edge46" class="edge">
<title>index.js&#45;&gt;types.js</title>
<path fill="none" stroke="#242424" d="M1614.0183,-1564.0097C1610.4005,-1540.2629 1605.9888,-1510.9332 1602.1988,-1484.6567 1601.1523,-1477.4011 1533.8226,-968.153 1530.1988,-961.7807 1502.372,-912.8475 1470.6596,-922.9259 1431.1988,-882.7807 1421.6008,-873.0162 1412.1255,-861.7487 1403.6086,-850.8317"/>
<polygon fill="#242424" stroke="#242424" points="1406.1529,-848.3973 1397.2964,-842.5825 1400.5937,-852.6512 1406.1529,-848.3973"/>
</g>
<!-- index.js&#45;&gt;array.js -->
<g id="edge21" class="edge">
<title>index.js&#45;&gt;array.js</title>
<path fill="none" stroke="#242424" d="M1667.7267,-1601.8473C1760.6494,-1583.2763 1964.1622,-1537.4692 2009.1988,-1484.6567 2089.4241,-1390.5798 2086.7827,-1235.3143 2078.2903,-1152.1266"/>
<polygon fill="#242424" stroke="#242424" points="2081.7612,-1151.6674 2077.2028,-1142.1034 2074.802,-1152.4226 2081.7612,-1151.6674"/>
</g>
<!-- index.js&#45;&gt;filter.js -->
<g id="edge25" class="edge">
<title>index.js&#45;&gt;filter.js</title>
<path fill="none" stroke="#242424" d="M1667.8675,-1603.0893C1768.6895,-1585.8181 2002.1912,-1540.6559 2057.1988,-1484.6567 2221.4604,-1317.4341 2167.8147,-1192.4609 2126.1988,-961.7807 2119.8592,-926.6399 2106.1937,-889.1215 2093.6097,-859.4451"/>
<polygon fill="#242424" stroke="#242424" points="2096.7509,-857.8909 2089.5726,-850.0985 2090.3248,-860.6666 2096.7509,-857.8909"/>
</g>
<!-- index.js&#45;&gt;chain.js -->
<g id="edge22" class="edge">
<title>index.js&#45;&gt;chain.js</title>
<path fill="none" stroke="#242424" d="M1668.2371,-1606.6699C1773.2542,-1596.5513 2033.434,-1564.7855 2235.1988,-1484.6567 2269.5888,-1470.999 2304.9882,-1449.1893 2331.9628,-1430.6513"/>
<polygon fill="#242424" stroke="#242424" points="2334.2101,-1433.3513 2340.4129,-1424.762 2330.2076,-1427.6085 2334.2101,-1433.3513"/>
</g>
<!-- index.js&#45;&gt;choice.js -->
<g id="edge23" class="edge">
<title>index.js&#45;&gt;choice.js</title>
<path fill="none" stroke="#242424" d="M1668.2006,-1606.2077C1786.2955,-1594.0247 2090.8283,-1556.2054 2158.1988,-1484.6567 2319.4557,-1313.3989 2189.4228,-1191.4648 2240.1988,-961.7807 2271.4543,-820.3973 2324.962,-658.7004 2354.3514,-574.1423"/>
<polygon fill="#242424" stroke="#242424" points="2357.7374,-575.062 2357.7261,-564.4672 2351.1279,-572.7566 2357.7374,-575.062"/>
</g>
<!-- index.js&#45;&gt;either.js -->
<g id="edge24" class="edge">
<title>index.js&#45;&gt;either.js</title>
<path fill="none" stroke="#242424" d="M1668.2559,-1606.8711C1840.9498,-1592.5488 2433.0907,-1539.7741 2496.1988,-1484.6567 2632.3945,-1365.7059 2625.6321,-772.1842 2619.5889,-577.5359"/>
<polygon fill="#242424" stroke="#242424" points="2623.0851,-577.3582 2619.2661,-567.4756 2616.0887,-577.5828 2623.0851,-577.3582"/>
</g>
<!-- index.js&#45;&gt;flip.js -->
<g id="edge26" class="edge">
<title>index.js&#45;&gt;flip.js</title>
<path fill="none" stroke="#242424" d="M1574.3051,-1606.8843C1403.6257,-1592.7097 822.3579,-1540.663 762.1988,-1484.6567 703.3062,-1429.8294 749.8689,-1383.7794 723.1988,-1307.8645 710.2202,-1270.9214 699.9845,-1264.6981 684.1988,-1228.8645 672.103,-1201.4069 659.864,-1170.1844 650.3008,-1144.8371"/>
<polygon fill="#242424" stroke="#242424" points="653.5615,-1143.5641 646.7726,-1135.4302 647.0074,-1146.0224 653.5615,-1143.5641"/>
</g>
<!-- index.js&#45;&gt;future.js -->
<g id="edge27" class="edge">
<title>index.js&#45;&gt;future.js</title>
<path fill="none" stroke="#242424" d="M1668.2521,-1608.1634C1857.6728,-1597.6435 2557.5054,-1554.2899 2625.1988,-1484.6567 2667.9156,-1440.7158 2684.6496,-1025.1234 2689.5341,-865.5543"/>
<polygon fill="#242424" stroke="#242424" points="2693.0366,-865.5214 2689.8389,-855.4207 2686.0398,-865.3109 2693.0366,-865.5214"/>
</g>
<!-- invert.js -->
<g id="node19" class="node">
<title>invert.js</title>
<ellipse fill="none" stroke="#242424" stroke-width="4" cx="1907.1988" cy="-803.5818" rx="51.7142" ry="51.7142"/>
<text text-anchor="middle" x="1907.1988" y="-801.1819" font-family="Fira Code" font-size="12.00" fill="#242424">invert.js</text>
</g>
<!-- index.js&#45;&gt;invert.js -->
<g id="edge28" class="edge">
<title>index.js&#45;&gt;invert.js</title>
<path fill="none" stroke="#242424" d="M1667.2059,-1599.959C1750.4199,-1579.5811 1920.5485,-1532.9265 1955.1988,-1484.6567 2022.968,-1390.2504 1984.1934,-1076.2595 1964.1988,-961.7807 1958.1029,-926.8783 1944.9759,-889.5133 1932.8545,-859.865"/>
<polygon fill="#242424" stroke="#242424" points="1936.0397,-858.4093 1928.9645,-850.523 1929.5776,-861.1001 1936.0397,-858.4093"/>
</g>
<!-- iterate.js -->
<g id="node20" class="node">
<title>iterate.js</title>
<ellipse fill="none" stroke="#242424" stroke-width="4" cx="1529.1988" cy="-803.5818" rx="56.412" ry="56.412"/>
<text text-anchor="middle" x="1529.1988" y="-801.1819" font-family="Fira Code" font-size="12.00" fill="#242424">iterate.js</text>
</g>
<!-- index.js&#45;&gt;iterate.js -->
<g id="edge29" class="edge">
<title>index.js&#45;&gt;iterate.js</title>
<path fill="none" stroke="#242424" d="M1619.9343,-1563.5309C1616.4901,-1456.1162 1604.6167,-1185.1716 1568.1988,-961.7807 1563.0892,-930.438 1554.961,-896.1617 1547.4443,-867.5523"/>
<polygon fill="#242424" stroke="#242424" points="1550.7719,-866.4462 1544.817,-857.6832 1544.0075,-868.2471 1550.7719,-866.4462"/>
</g>
<!-- length.js -->
<g id="node21" class="node">
<title>length.js</title>
<ellipse fill="none" stroke="#242424" stroke-width="4" cx="326.1988" cy="-1396.2606" rx="51.7142" ry="51.7142"/>
<text text-anchor="middle" x="326.1988" y="-1393.8606" font-family="Fira Code" font-size="12.00" fill="#242424">length.js</text>
</g>
<!-- index.js&#45;&gt;length.js -->
<g id="edge30" class="edge">
<title>index.js&#45;&gt;length.js</title>
<path fill="none" stroke="#242424" d="M1574.0021,-1608.068C1361.1996,-1596.059 496.8005,-1543.9671 392.1988,-1484.6567 377.85,-1476.5207 365.6858,-1463.8542 355.8603,-1450.6263"/>
<polygon fill="#242424" stroke="#242424" points="358.6596,-1448.5223 350.0461,-1442.353 352.9324,-1452.5472 358.6596,-1448.5223"/>
</g>
<!-- math.js -->
<g id="node22" class="node">
<title>math.js</title>
<ellipse fill="none" stroke="#242424" stroke-width="4" cx="218.1988" cy="-803.5818" rx="42.3196" ry="42.3196"/>
<text text-anchor="middle" x="218.1988" y="-801.1819" font-family="Fira Code" font-size="12.00" fill="#242424">math.js</text>
</g>
<!-- index.js&#45;&gt;math.js -->
<g id="edge32" class="edge">
<title>index.js&#45;&gt;math.js</title>
<path fill="none" stroke="#242424" d="M1574.1364,-1610.1337C1339.3221,-1607.0082 301.9578,-1587.426 207.1988,-1484.6567 164.9806,-1438.8696 199.6928,-1007.2502 213.313,-855.7977"/>
<polygon fill="#242424" stroke="#242424" points="216.8012,-856.0846 214.2172,-845.8097 209.8297,-855.4534 216.8012,-856.0846"/>
</g>
<!-- object.js -->
<g id="node23" class="node">
<title>object.js</title>
<ellipse fill="none" stroke="#242424" stroke-width="4" cx="444.1988" cy="-1095.3226" rx="51.7142" ry="51.7142"/>
<text text-anchor="middle" x="444.1988" y="-1092.9226" font-family="Fira Code" font-size="12.00" fill="#242424">object.js</text>
</g>
<!-- index.js&#45;&gt;object.js -->
<g id="edge33" class="edge">
<title>index.js&#45;&gt;object.js</title>
<path fill="none" stroke="#242424" d="M1574.1541,-1608.6162C1372.6146,-1599.406 588.7534,-1559.0063 510.1988,-1484.6567 420.8744,-1400.1137 424.3305,-1242.8677 434.3968,-1156.3319"/>
<polygon fill="#242424" stroke="#242424" points="437.8721,-1156.7468 435.6183,-1146.3945 430.9244,-1155.8928 437.8721,-1156.7468"/>
</g>
<!-- path.js -->
<g id="node24" class="node">
<title>path.js</title>
<ellipse fill="none" stroke="#242424" stroke-width="4" cx="256.1988" cy="-1095.3226" rx="42.3196" ry="42.3196"/>
<text text-anchor="middle" x="256.1988" y="-1092.9226" font-family="Fira Code" font-size="12.00" fill="#242424">path.js</text>
</g>
<!-- index.js&#45;&gt;path.js -->
<g id="edge34" class="edge">
<title>index.js&#45;&gt;path.js</title>
<path fill="none" stroke="#242424" d="M1573.8328,-1609.9105C1344.4557,-1605.783 356.3659,-1582.3954 265.1988,-1484.6567 179.0051,-1392.2497 213.872,-1227.2473 238.9735,-1144.9069"/>
<polygon fill="#242424" stroke="#242424" points="242.338,-1145.8743 241.9775,-1135.2856 235.6561,-1143.788 242.338,-1145.8743"/>
</g>
<!-- random&#45;floor.js -->
<g id="node25" class="node">
<title>random&#45;floor.js</title>
<ellipse fill="none" stroke="#242424" stroke-width="4" cx="1758.1988" cy="-803.5818" rx="79.3981" ry="79.3981"/>
<text text-anchor="middle" x="1758.1988" y="-801.1819" font-family="Fira Code" font-size="12.00" fill="#242424">random&#45;floor.js</text>
</g>
<!-- index.js&#45;&gt;random&#45;floor.js -->
<g id="edge35" class="edge">
<title>index.js&#45;&gt;random&#45;floor.js</title>
<path fill="none" stroke="#242424" d="M1668.1716,-1605.9331C1736.3158,-1596.3038 1860.8102,-1567.7169 1919.1988,-1484.6567 1986.0452,-1389.5649 1980.3713,-1068.0145 1933.1988,-961.7807 1932.8135,-960.9128 1874.0819,-907.9026 1824.7708,-863.4871"/>
<polygon fill="#242424" stroke="#242424" points="1827.0333,-860.8145 1817.2604,-856.7231 1822.3488,-866.016 1827.0333,-860.8145"/>
</g>
<!-- random&#45;shuffle.js -->
<g id="node26" class="node">
<title>random&#45;shuffle.js</title>
<ellipse fill="none" stroke="#0c821d" stroke-width="4" cx="2765.1988" cy="-1396.2606" rx="88.2923" ry="88.2923"/>
<text text-anchor="middle" x="2765.1988" y="-1393.8606" font-family="Fira Code" font-size="12.00" fill="#0c821d">random&#45;shuffle.js</text>
</g>
<!-- index.js&#45;&gt;random&#45;shuffle.js -->
<g id="edge36" class="edge">
<title>index.js&#45;&gt;random&#45;shuffle.js</title>
<path fill="none" stroke="#242424" d="M1668.1634,-1608.6245C1846.46,-1600.3234 2480.5738,-1565.6009 2663.1988,-1484.6567 2674.3555,-1479.7117 2685.1941,-1473.1205 2695.3823,-1465.7575"/>
<polygon fill="#242424" stroke="#242424" points="2697.5319,-1468.5202 2703.4073,-1459.7037 2693.3163,-1462.9319 2697.5319,-1468.5202"/>
</g>
<!-- random&#45;take.js -->
<g id="node27" class="node">
<title>random&#45;take.js</title>
<ellipse fill="none" stroke="#242424" stroke-width="4" cx="1816.1988" cy="-1095.3226" rx="74.7005" ry="74.7005"/>
<text text-anchor="middle" x="1816.1988" y="-1092.9226" font-family="Fira Code" font-size="12.00" fill="#242424">random&#45;take.js</text>
</g>
<!-- index.js&#45;&gt;random&#45;take.js -->
<g id="edge37" class="edge">
<title>index.js&#45;&gt;random&#45;take.js</title>
<path fill="none" stroke="#242424" d="M1637.9932,-1566.2812C1670.9823,-1479.0981 1744.6399,-1284.4372 1786.1909,-1174.627"/>
<polygon fill="#242424" stroke="#242424" points="1789.4748,-1175.838 1789.7404,-1165.2465 1782.9278,-1173.3606 1789.4748,-1175.838"/>
</g>
<!-- random&#45;word.js -->
<g id="node28" class="node">
<title>random&#45;word.js</title>
<ellipse fill="none" stroke="#242424" stroke-width="4" cx="1835.1988" cy="-1396.2606" rx="74.7005" ry="74.7005"/>
<text text-anchor="middle" x="1835.1988" y="-1393.8606" font-family="Fira Code" font-size="12.00" fill="#242424">random&#45;word.js</text>
</g>
<!-- index.js&#45;&gt;random&#45;word.js -->
<g id="edge38" class="edge">
<title>index.js&#45;&gt;random&#45;word.js</title>
<path fill="none" stroke="#242424" d="M1654.6363,-1577.1643C1686.8401,-1544.8997 1736.2746,-1495.3717 1775.2816,-1456.291"/>
<polygon fill="#242424" stroke="#242424" points="1777.85,-1458.6722 1782.4372,-1449.1219 1772.8956,-1453.7271 1777.85,-1458.6722"/>
</g>
<!-- random.js -->
<g id="node29" class="node">
<title>random.js</title>
<ellipse fill="none" stroke="#0c821d" stroke-width="4" cx="2923.1988" cy="-1396.2606" rx="51.7142" ry="51.7142"/>
<text text-anchor="middle" x="2923.1988" y="-1393.8606" font-family="Fira Code" font-size="12.00" fill="#0c821d">random.js</text>
</g>
<!-- index.js&#45;&gt;random.js -->
<g id="edge39" class="edge">
<title>index.js&#45;&gt;random.js</title>
<path fill="none" stroke="#242424" d="M1668.1909,-1608.2208C1882.0645,-1596.7866 2757.5751,-1546.5177 2862.1988,-1484.6567 2875.6283,-1476.7162 2886.7956,-1464.5232 2895.7447,-1451.7059"/>
<polygon fill="#242424" stroke="#242424" points="2898.7458,-1453.5119 2901.3068,-1443.2313 2892.8937,-1449.671 2898.7458,-1453.5119"/>
</g>
<!-- range.js -->
<g id="node30" class="node">
<title>range.js</title>
<ellipse fill="none" stroke="#242424" stroke-width="4" cx="2220.1988" cy="-515.5992" rx="47.0167" ry="47.0167"/>
<text text-anchor="middle" x="2220.1988" y="-513.1992" font-family="Fira Code" font-size="12.00" fill="#242424">range.js</text>
</g>
<!-- index.js&#45;&gt;range.js -->
<g id="edge40" class="edge">
<title>index.js&#45;&gt;range.js</title>
<path fill="none" stroke="#242424" d="M1668.1315,-1605.4885C1780.8049,-1592.0707 2061.8083,-1552.4096 2123.1988,-1484.6567 2184.6471,-1416.84 2211.5373,-770.6384 2218.3724,-572.8453"/>
<polygon fill="#242424" stroke="#242424" points="2221.8766,-572.7784 2218.7201,-562.6647 2214.8807,-572.5394 2221.8766,-572.7784"/>
</g>
<!-- reject.js -->
<g id="node31" class="node">
<title>reject.js</title>
<ellipse fill="none" stroke="#242424" stroke-width="4" cx="1672.1988" cy="-1095.3226" rx="51.7142" ry="51.7142"/>
<text text-anchor="middle" x="1672.1988" y="-1092.9226" font-family="Fira Code" font-size="12.00" fill="#242424">reject.js</text>
</g>
<!-- index.js&#45;&gt;reject.js -->
<g id="edge42" class="edge">
<title>index.js&#45;&gt;reject.js</title>
<path fill="none" stroke="#242424" d="M1625.8599,-1563.5656C1635.1052,-1470.1447 1655.7604,-1261.4288 1666.0826,-1157.1255"/>
<polygon fill="#242424" stroke="#242424" points="1669.5767,-1157.3573 1667.0786,-1147.0611 1662.6107,-1156.6678 1669.5767,-1157.3573"/>
</g>
<!-- string.js -->
<g id="node32" class="node">
<title>string.js</title>
<ellipse fill="none" stroke="#242424" stroke-width="4" cx="2496.1988" cy="-515.5992" rx="51.7142" ry="51.7142"/>
<text text-anchor="middle" x="2496.1988" y="-513.1992" font-family="Fira Code" font-size="12.00" fill="#242424">string.js</text>
</g>
<!-- index.js&#45;&gt;string.js -->
<g id="edge43" class="edge">
<title>index.js&#45;&gt;string.js</title>
<path fill="none" stroke="#242424" d="M1668.2551,-1609.1901C1822.9244,-1603.4721 2312.6598,-1578.1931 2434.1988,-1484.6567 2532.5503,-1408.9653 2520.7704,-1350.3371 2546.1988,-1228.8645 2595.9858,-991.0297 2540.4013,-699.8848 2511.4783,-576.0104"/>
<polygon fill="#242424" stroke="#242424" points="2514.8105,-574.8921 2509.1052,-565.9646 2507.9981,-576.5015 2514.8105,-574.8921"/>
</g>
<!-- ternary.js -->
<g id="node33" class="node">
<title>ternary.js</title>
<ellipse fill="none" stroke="#242424" stroke-width="4" cx="658.1988" cy="-1396.2606" rx="56.412" ry="56.412"/>
<text text-anchor="middle" x="658.1988" y="-1393.8606" font-family="Fira Code" font-size="12.00" fill="#242424">ternary.js</text>
</g>
<!-- index.js&#45;&gt;ternary.js -->
<g id="edge44" class="edge">
<title>index.js&#45;&gt;ternary.js</title>
<path fill="none" stroke="#242424" d="M1574.0011,-1608.3613C1412.0091,-1599.7859 880.5351,-1565.9292 733.1988,-1484.6567 718.605,-1476.6065 705.6047,-1464.5145 694.6941,-1451.838"/>
<polygon fill="#242424" stroke="#242424" points="697.2267,-1449.407 688.1752,-1443.9005 691.8172,-1453.8497 697.2267,-1449.407"/>
</g>
<!-- triplet.js -->
<g id="node34" class="node">
<title>triplet.js</title>
<ellipse fill="none" stroke="#242424" stroke-width="4" cx="749.1988" cy="-1095.3226" rx="56.412" ry="56.412"/>
<text text-anchor="middle" x="749.1988" y="-1092.9226" font-family="Fira Code" font-size="12.00" fill="#242424">triplet.js</text>
</g>
<!-- index.js&#45;&gt;triplet.js -->
<g id="edge45" class="edge">
<title>index.js&#45;&gt;triplet.js</title>
<path fill="none" stroke="#242424" d="M1574.1807,-1609.3177C1424.8635,-1604.088 964.99,-1580.3694 858.1988,-1484.6567 766.3132,-1402.3032 749.2229,-1249.4686 747.5338,-1161.7807"/>
<polygon fill="#242424" stroke="#242424" points="751.0322,-1161.6332 747.4019,-1151.6797 744.0328,-1161.7246 751.0322,-1161.6332"/>
</g>
<!-- which.js -->
<g id="node35" class="node">
<title>which.js</title>
<ellipse fill="none" stroke="#242424" stroke-width="4" cx="914.1988" cy="-1396.2606" rx="47.0167" ry="47.0167"/>
<text text-anchor="middle" x="914.1988" y="-1393.8606" font-family="Fira Code" font-size="12.00" fill="#242424">which.js</text>
</g>
<!-- index.js&#45;&gt;which.js -->
<g id="edge47" class="edge">
<title>index.js&#45;&gt;which.js</title>
<path fill="none" stroke="#242424" d="M1576.1672,-1597.0087C1451.9853,-1559.3494 1104.9163,-1454.0975 969.3987,-1413.0005"/>
<polygon fill="#242424" stroke="#242424" points="970.2144,-1409.5905 959.629,-1410.0377 968.1829,-1416.2892 970.2144,-1409.5905"/>
</g>
<!-- invert.js&#45;&gt;Ⓜ katsu&#45;curry/katsu&#45;curry.js -->
<g id="edge48" class="edge">
<title>invert.js&#45;&gt;Ⓜ katsu&#45;curry/katsu&#45;curry.js</title>
<path fill="none" stroke="#242424" d="M1878.656,-760.251C1869.2289,-747.7959 1858.0852,-734.7824 1846.1988,-724.383 1793.3,-678.1017 1749.7682,-702.7796 1709.1988,-645.383 1641.4823,-549.5795 1718.8825,-487.9741 1661.1988,-385.8153 1630.4018,-331.2733 1581.9652,-282.9936 1535.0724,-244.7683"/>
<polygon fill="#242424" stroke="#242424" points="1537.243,-242.0225 1527.2585,-238.4784 1532.8537,-247.4754 1537.243,-242.0225"/>
</g>
<!-- iterate.js&#45;&gt;Ⓜ katsu&#45;curry/katsu&#45;curry.js -->
<g id="edge49" class="edge">
<title>iterate.js&#45;&gt;Ⓜ katsu&#45;curry/katsu&#45;curry.js</title>
<path fill="none" stroke="#242424" d="M1521.4342,-747.88C1509.8781,-667.5232 1486.5539,-514.5783 1459.1988,-385.8153 1454.0768,-361.7053 1448.1186,-336.3298 1441.9841,-311.5606"/>
<polygon fill="#242424" stroke="#242424" points="1445.3491,-310.5891 1439.5334,-301.7332 1438.5571,-312.2829 1445.3491,-310.5891"/>
</g>
<!-- length.js&#45;&gt;Ⓜ katsu&#45;curry/katsu&#45;curry.js -->
<g id="edge50" class="edge">
<title>length.js&#45;&gt;Ⓜ katsu&#45;curry/katsu&#45;curry.js</title>
<path fill="none" stroke="#242424" d="M323.7784,-1344.697C315.0839,-1149.0887 289.0702,-460.144 350.1988,-385.8153 461.0015,-251.086 969.8253,-189.1697 1235.9418,-165.5872"/>
<polygon fill="#242424" stroke="#242424" points="1236.4302,-169.0579 1246.0857,-164.6964 1235.8178,-162.0847 1236.4302,-169.0579"/>
</g>
<!-- length.js&#45;&gt;object.js -->
<g id="edge51" class="edge">
<title>length.js&#45;&gt;object.js</title>
<path fill="none" stroke="#242424" d="M345.1576,-1347.9097C365.9734,-1294.8225 399.3798,-1209.6255 421.5558,-1153.0696"/>
<polygon fill="#242424" stroke="#242424" points="424.895,-1154.1411 425.2871,-1143.5535 418.3781,-1151.5857 424.895,-1154.1411"/>
</g>
<!-- length.js&#45;&gt;path.js -->
<g id="edge52" class="edge">
<title>length.js&#45;&gt;path.js</title>
<path fill="none" stroke="#242424" d="M314.4824,-1345.8903C301.6218,-1290.601 281.0852,-1202.312 268.1371,-1146.6466"/>
<polygon fill="#242424" stroke="#242424" points="271.4859,-1145.5946 265.8113,-1136.6476 264.6679,-1147.1806 271.4859,-1145.5946"/>
</g>
<!-- math.js&#45;&gt;Ⓜ katsu&#45;curry/katsu&#45;curry.js -->
<g id="edge60" class="edge">
<title>math.js&#45;&gt;Ⓜ katsu&#45;curry/katsu&#45;curry.js</title>
<path fill="none" stroke="#242424" d="M209.7064,-761.8286C195.392,-678.4414 176.7895,-490.3425 274.1988,-385.8153 402.8407,-247.7733 955.9561,-186.8241 1235.7564,-164.42"/>
<polygon fill="#242424" stroke="#242424" points="1236.3113,-167.8871 1246.0031,-163.607 1235.7576,-160.909 1236.3113,-167.8871"/>
</g>
<!-- object.js&#45;&gt;Ⓜ katsu&#45;curry/katsu&#45;curry.js -->
<g id="edge61" class="edge">
<title>object.js&#45;&gt;Ⓜ katsu&#45;curry/katsu&#45;curry.js</title>
<path fill="none" stroke="#242424" d="M434.4188,-1044.4059C407.7631,-899.2487 341.0152,-487.2863 421.1988,-385.8153 520.9677,-259.5595 984.4959,-194.6026 1235.939,-168.1463"/>
<polygon fill="#242424" stroke="#242424" points="1236.3191,-171.6257 1245.9017,-167.1065 1235.5924,-164.6636 1236.3191,-171.6257"/>
</g>
<!-- object.js&#45;&gt;map.js -->
<g id="edge62" class="edge">
<title>object.js&#45;&gt;map.js</title>
<path fill="none" stroke="#242424" d="M457.8604,-1045.502C472.8695,-990.7675 496.7849,-903.5539 511.4294,-850.1488"/>
<polygon fill="#242424" stroke="#242424" points="514.8713,-850.8317 514.1405,-840.2621 508.1205,-848.9805 514.8713,-850.8317"/>
</g>
<!-- object.js&#45;&gt;reduce.js -->
<g id="edge63" class="edge">
<title>object.js&#45;&gt;reduce.js</title>
<path fill="none" stroke="#242424" d="M475.8448,-1054.2192C501.1621,-1024.1686 539.2685,-984.7915 581.1988,-961.7807 785.855,-849.4681 1068.0942,-816.4816 1191.3901,-807.1275"/>
<polygon fill="#242424" stroke="#242424" points="1191.6891,-810.6151 1201.4065,-806.3934 1191.1773,-803.6338 1191.6891,-810.6151"/>
</g>
<!-- path.js&#45;&gt;Ⓜ katsu&#45;curry/katsu&#45;curry.js -->
<g id="edge64" class="edge">
<title>path.js&#45;&gt;Ⓜ katsu&#45;curry/katsu&#45;curry.js</title>
<path fill="none" stroke="#242424" d="M258.8665,-1052.865C268.4467,-901.7632 301.1302,-398.4491 312.1988,-385.8153 431.85,-249.2456 962.9158,-187.877 1235.9214,-164.9452"/>
<polygon fill="#242424" stroke="#242424" points="1236.248,-168.4302 1245.9232,-164.1126 1235.6673,-161.4543 1236.248,-168.4302"/>
</g>
<!-- path.js&#45;&gt;reduce.js -->
<g id="edge66" class="edge">
<title>path.js&#45;&gt;reduce.js</title>
<path fill="none" stroke="#242424" d="M279.97,-1059.767C302.6933,-1028.7643 339.8456,-985.1944 383.1988,-961.7807 524.7436,-885.3366 1017.6041,-828.0312 1191.7065,-809.7608"/>
<polygon fill="#242424" stroke="#242424" points="1192.1434,-813.2343 1201.7263,-808.7156 1191.4171,-806.2721 1192.1434,-813.2343"/>
</g>
<!-- path.js&#45;&gt;math.js -->
<g id="edge65" class="edge">
<title>path.js&#45;&gt;math.js</title>
<path fill="none" stroke="#242424" d="M250.7139,-1053.2125C243.9223,-1001.0712 232.3541,-912.2572 225.0034,-855.8235"/>
<polygon fill="#242424" stroke="#242424" points="228.4445,-855.1433 223.6821,-845.6791 221.5031,-856.0474 228.4445,-855.1433"/>
</g>
<!-- random&#45;floor.js&#45;&gt;Ⓜ katsu&#45;curry/katsu&#45;curry.js -->
<g id="edge67" class="edge">
<title>random&#45;floor.js&#45;&gt;Ⓜ katsu&#45;curry/katsu&#45;curry.js</title>
<path fill="none" stroke="#242424" d="M1715.3226,-736.9063C1699.3619,-709.4823 1682.4201,-676.8222 1671.1988,-645.383 1631.7617,-534.8907 1676.8449,-490.151 1623.1988,-385.8153 1598.9955,-338.7427 1562.1592,-294.7681 1525.3067,-258.0134"/>
<polygon fill="#242424" stroke="#242424" points="1527.5211,-255.2819 1517.9397,-250.76 1522.6099,-260.27 1527.5211,-255.2819"/>
</g>
<!-- random&#45;take.js&#45;&gt;Ⓜ katsu&#45;curry/katsu&#45;curry.js -->
<g id="edge68" class="edge">
<title>random&#45;take.js&#45;&gt;Ⓜ katsu&#45;curry/katsu&#45;curry.js</title>
<path fill="none" stroke="#242424" d="M1780.9241,-1029.1897C1767.4477,-1006.6905 1751.0015,-982.1127 1733.1988,-961.7807 1696.7984,-920.2085 1667.1868,-929.1914 1637.1988,-882.7807 1597.6099,-821.511 1613.8962,-794.6202 1594.1988,-724.383 1551.8993,-573.5506 1548.2291,-533.5736 1496.1988,-385.8153 1486.7484,-358.9776 1475.8345,-330.7661 1464.8118,-303.6135"/>
<polygon fill="#242424" stroke="#242424" points="1467.9306,-301.9928 1460.9106,-294.0575 1461.4499,-304.6386 1467.9306,-301.9928"/>
</g>
<!-- random&#45;take.js&#45;&gt;iterate.js -->
<g id="edge69" class="edge">
<title>random&#45;take.js&#45;&gt;iterate.js</title>
<path fill="none" stroke="#242424" d="M1783.0519,-1028.2418C1769.6618,-1005.4054 1752.7256,-980.8558 1733.1988,-961.7807 1683.7444,-913.47 1652.526,-926.7791 1599.1988,-882.7807 1589.3701,-874.6713 1579.7233,-865.1344 1570.8828,-855.5409"/>
<polygon fill="#242424" stroke="#242424" points="1573.2665,-852.9572 1563.9777,-847.8612 1568.0612,-857.6375 1573.2665,-852.9572"/>
</g>
<!-- random&#45;take.js&#45;&gt;random&#45;floor.js -->
<g id="edge70" class="edge">
<title>random&#45;take.js&#45;&gt;random&#45;floor.js</title>
<path fill="none" stroke="#242424" d="M1801.6378,-1022.0806C1793.7472,-982.3905 1783.9417,-933.0691 1775.6448,-891.3352"/>
<polygon fill="#242424" stroke="#242424" points="1779.0629,-890.5786 1773.6801,-881.4531 1772.1973,-891.9436 1779.0629,-890.5786"/>
</g>
<!-- random&#45;word.js&#45;&gt;Ⓜ katsu&#45;curry/katsu&#45;curry.js -->
<g id="edge71" class="edge">
<title>random&#45;word.js&#45;&gt;Ⓜ katsu&#45;curry/katsu&#45;curry.js</title>
<path fill="none" stroke="#242424" d="M1867.8303,-1329.1257C1880.6425,-1299.1907 1893.7981,-1263.0312 1900.1988,-1228.8645 1911.1275,-1170.5274 1934.683,-1010.0869 1900.1988,-961.7807 1837.4006,-873.8116 1743.1811,-962.5037 1670.1988,-882.7807 1665.3975,-877.5359 1549.9994,-392.3511 1547.1988,-385.8153 1532.8618,-352.3571 1513.9712,-318.2549 1494.501,-286.8479"/>
<polygon fill="#242424" stroke="#242424" points="1497.2727,-284.6795 1488.9974,-278.0637 1491.3409,-288.3961 1497.2727,-284.6795"/>
</g>
<!-- random&#45;word.js&#45;&gt;array.js -->
<g id="edge72" class="edge">
<title>random&#45;word.js&#45;&gt;array.js</title>
<path fill="none" stroke="#242424" d="M1881.3469,-1337.164C1926.3895,-1279.483 1993.9458,-1192.9712 2034.8704,-1140.5637"/>
<polygon fill="#242424" stroke="#242424" points="2037.8062,-1142.4909 2041.2024,-1132.4551 2032.2891,-1138.1825 2037.8062,-1142.4909"/>
</g>
<!-- random&#45;word.js&#45;&gt;random&#45;take.js -->
<g id="edge73" class="edge">
<title>random&#45;word.js&#45;&gt;random&#45;take.js</title>
<path fill="none" stroke="#242424" d="M1830.4778,-1321.4847C1827.7707,-1278.6076 1824.3635,-1224.6425 1821.5564,-1180.1813"/>
<polygon fill="#242424" stroke="#242424" points="1825.0352,-1179.7337 1820.912,-1169.9741 1818.0492,-1180.1748 1825.0352,-1179.7337"/>
</g>
<!-- range.js&#45;&gt;Ⓜ katsu&#45;curry/katsu&#45;curry.js -->
<g id="edge74" class="edge">
<title>range.js&#45;&gt;Ⓜ katsu&#45;curry/katsu&#45;curry.js</title>
<path fill="none" stroke="#242424" d="M2210.604,-469.2535C2202.5952,-441.4851 2188.446,-407.4793 2164.1988,-385.8153 2074.6226,-305.7822 1756.4929,-227.7358 1559.7981,-185.5723"/>
<polygon fill="#242424" stroke="#242424" points="1560.4524,-182.1332 1549.9419,-183.4678 1558.9906,-188.9789 1560.4524,-182.1332"/>
</g>
<!-- reject.js&#45;&gt;Ⓜ katsu&#45;curry/katsu&#45;curry.js -->
<g id="edge77" class="edge">
<title>reject.js&#45;&gt;Ⓜ katsu&#45;curry/katsu&#45;curry.js</title>
<path fill="none" stroke="#242424" d="M1641.4894,-1053.7431C1620.4666,-1026.4064 1591.2366,-990.5131 1562.1988,-961.7807 1522.431,-922.431 1490.5581,-932.127 1464.1988,-882.7807 1438.2258,-834.1575 1417.6098,-516.6079 1407.0146,-316.8619"/>
<polygon fill="#242424" stroke="#242424" points="1410.5084,-316.65 1406.4866,-306.8482 1403.5181,-317.0187 1410.5084,-316.65"/>
</g>
<!-- reject.js&#45;&gt;filter.js -->
<g id="edge78" class="edge">
<title>reject.js&#45;&gt;filter.js</title>
<path fill="none" stroke="#242424" d="M1684.1106,-1044.9281C1693.0812,-1017.0015 1708.0812,-983.616 1732.1988,-961.7807 1814.1949,-887.5438 1871.0703,-935.7007 1968.1988,-882.7807 1986.9681,-872.5543 2005.7432,-858.6901 2021.819,-845.4195"/>
<polygon fill="#242424" stroke="#242424" points="2024.0841,-848.0877 2029.482,-838.9711 2019.5771,-842.7318 2024.0841,-848.0877"/>
</g>
<!-- string.js&#45;&gt;Ⓜ katsu&#45;curry/katsu&#45;curry.js -->
<g id="edge80" class="edge">
<title>string.js&#45;&gt;Ⓜ katsu&#45;curry/katsu&#45;curry.js</title>
<path fill="none" stroke="#242424" d="M2484.5341,-465.0307C2475.688,-437.7123 2460.7298,-405.6166 2436.1988,-385.8153 2303.115,-278.3905 1818.9047,-204.6685 1561.9477,-172.1759"/>
<polygon fill="#242424" stroke="#242424" points="1562.1309,-168.6714 1551.7722,-170.8957 1561.257,-175.6167 1562.1309,-168.6714"/>
</g>
<!-- string.js&#45;&gt;Ⓜ entrust/entrust.js -->
<g id="edge79" class="edge">
<title>string.js&#45;&gt;Ⓜ entrust/entrust.js</title>
<path fill="none" stroke="#242424" d="M2496.1988,-463.706C2496.1988,-415.2459 2496.1988,-341.0305 2496.1988,-277.3311"/>
<polygon fill="#242424" stroke="#242424" points="2499.6989,-277.2036 2496.1988,-267.2036 2492.6989,-277.2036 2499.6989,-277.2036"/>
</g>
<!-- ternary.js&#45;&gt;Ⓜ katsu&#45;curry/katsu&#45;curry.js -->
<g id="edge81" class="edge">
<title>ternary.js&#45;&gt;Ⓜ katsu&#45;curry/katsu&#45;curry.js</title>
<path fill="none" stroke="#242424" d="M629.2413,-1348.0544C611.4989,-1315.6223 590.4702,-1271.2064 581.1988,-1228.8645 525.088,-972.6112 614.6035,-901.7486 670.1988,-645.383 694.9368,-531.3093 635.0752,-475.1529 710.1988,-385.8153 778.9087,-304.1049 1057.5873,-228.9156 1238.7907,-187.2986"/>
<polygon fill="#242424" stroke="#242424" points="1239.7227,-190.6759 1248.6915,-185.0358 1238.163,-183.8519 1239.7227,-190.6759"/>
</g>
<!-- triplet.js&#45;&gt;Ⓜ katsu&#45;curry/katsu&#45;curry.js -->
<g id="edge82" class="edge">
<title>triplet.js&#45;&gt;Ⓜ katsu&#45;curry/katsu&#45;curry.js</title>
<path fill="none" stroke="#242424" d="M751.4237,-1039.0151C758.1525,-880.342 780.2523,-437.6886 819.1988,-385.8153 917.6871,-254.6375 1102.1922,-197.3402 1236.7326,-172.4122"/>
<polygon fill="#242424" stroke="#242424" points="1237.5207,-175.8265 1246.7372,-170.6009 1236.2736,-168.9385 1237.5207,-175.8265"/>
</g>
<!-- which.js&#45;&gt;Ⓜ katsu&#45;curry/katsu&#45;curry.js -->
<g id="edge86" class="edge">
<title>which.js&#45;&gt;Ⓜ katsu&#45;curry/katsu&#45;curry.js</title>
<path fill="none" stroke="#242424" d="M893.6561,-1353.7426C878.8348,-1320.5957 860.0997,-1272.9442 852.1988,-1228.8645 831.2561,-1112.0226 826.8861,-1077.7543 852.1988,-961.7807 912.2466,-686.6634 944.3251,-608.8728 1116.1988,-385.8153 1157.1765,-332.6345 1212.5022,-283.782 1263.366,-244.7361"/>
<polygon fill="#242424" stroke="#242424" points="1265.6504,-247.396 1271.4881,-238.5546 1261.4109,-241.8257 1265.6504,-247.396"/>
</g>
<!-- which.js&#45;&gt;flip.js -->
<g id="edge87" class="edge">
<title>which.js&#45;&gt;flip.js</title>
<path fill="none" stroke="#242424" d="M872.0154,-1375.2771C821.049,-1347.9775 735.7426,-1295.7616 684.1988,-1228.8645 665.6171,-1204.7478 652.9183,-1173.1747 644.7241,-1146.7837"/>
<polygon fill="#242424" stroke="#242424" points="648.0051,-1145.5377 641.8012,-1136.9492 641.2952,-1147.5319 648.0051,-1145.5377"/>
</g>
<!-- which.js&#45;&gt;triplet.js -->
<g id="edge88" class="edge">
<title>which.js&#45;&gt;triplet.js</title>
<path fill="none" stroke="#242424" d="M890.5859,-1355.5409C871.1271,-1321.775 842.9672,-1272.4241 819.1988,-1228.8645 805.9716,-1204.6233 791.7586,-1177.6831 779.6185,-1154.3851"/>
<polygon fill="#242424" stroke="#242424" points="782.6203,-1152.5712 774.9007,-1145.3145 776.41,-1155.8013 782.6203,-1152.5712"/>
</g>
<!-- Ⓜ fast.js/array/every.js -->
<g id="node43" class="node">
<title>Ⓜ fast.js/array/every.js</title>
<ellipse fill="none" stroke="#0c821d" stroke-width="4" cx="995.1988" cy="-1095.3226" rx="133.5838" ry="133.5838"/>
<text text-anchor="middle" x="995.1988" y="-1094.1226" font-family="Fira Code" font-size="12.00" fill="#0c821d">Ⓜ fast.js/array/every.js</text>
</g>
<!-- which.js&#45;&gt;Ⓜ fast.js/array/every.js -->
<g id="edge84" class="edge">
<title>which.js&#45;&gt;Ⓜ fast.js/array/every.js</title>
<path fill="none" stroke="#242424" d="M926.501,-1350.5546C934.8974,-1319.3593 946.504,-1276.2376 957.7888,-1234.3115"/>
<polygon fill="#242424" stroke="#242424" points="961.1989,-1235.108 960.4183,-1224.542 954.4395,-1233.2886 961.1989,-1235.108"/>
</g>
<!-- Ⓜ fast.js/array/some.js -->
<g id="node44" class="node">
<title>Ⓜ fast.js/array/some.js</title>
<ellipse fill="none" stroke="#0c821d" stroke-width="4" cx="1275.1988" cy="-1095.3226" rx="128.651" ry="128.651"/>
<text text-anchor="middle" x="1275.1988" y="-1094.1226" font-family="Fira Code" font-size="12.00" fill="#0c821d">Ⓜ fast.js/array/some.js</text>
</g>
<!-- which.js&#45;&gt;Ⓜ fast.js/array/some.js -->
<g id="edge85" class="edge">
<title>which.js&#45;&gt;Ⓜ fast.js/array/some.js</title>
<path fill="none" stroke="#242424" d="M953.0217,-1369.5879C998.6449,-1337.7176 1076.0126,-1282.0128 1138.1988,-1228.8645 1151.0741,-1217.8604 1164.2558,-1205.9418 1177.1109,-1193.9094"/>
<polygon fill="#242424" stroke="#242424" points="1179.7593,-1196.2229 1184.6374,-1186.8178 1174.9589,-1191.1282 1179.7593,-1196.2229"/>
</g>
<!-- map&#45;performance.fixture.js -->
<g id="node36" class="node">
<title>map&#45;performance.fixture.js</title>
<ellipse fill="none" stroke="#242424" stroke-width="4" cx="2961.1988" cy="-515.5992" rx="129.5681" ry="129.5681"/>
<text text-anchor="middle" x="2961.1988" y="-513.1992" font-family="Fira Code" font-size="12.00" fill="#242424">map&#45;performance.fixture.js</text>
</g>
<!-- map&#45;performance.fixture.js&#45;&gt;Ⓜ entrust/entrust.js -->
<g id="edge53" class="edge">
<title>map&#45;performance.fixture.js&#45;&gt;Ⓜ entrust/entrust.js</title>
<path fill="none" stroke="#242424" d="M2844.7111,-458.0884C2774.8951,-420.4851 2686.6836,-367.2297 2618.1988,-306.8153 2600.5592,-291.2544 2583.5506,-272.9119 2568.1183,-254.4246"/>
<polygon fill="#242424" stroke="#242424" points="2570.6579,-252.0024 2561.6038,-246.5003 2565.2506,-256.4478 2570.6579,-252.0024"/>
</g>
<!-- Ⓜ fast.js/index.js -->
<g id="node37" class="node">
<title>Ⓜ fast.js/index.js</title>
<ellipse fill="none" stroke="#0c821d" stroke-width="4" cx="3191.1988" cy="-153.4077" rx="103.9872" ry="103.9872"/>
<text text-anchor="middle" x="3191.1988" y="-152.2077" font-family="Fira Code" font-size="12.00" fill="#0c821d">Ⓜ fast.js/index.js</text>
</g>
<!-- map&#45;performance.fixture.js&#45;&gt;Ⓜ fast.js/index.js -->
<g id="edge54" class="edge">
<title>map&#45;performance.fixture.js&#45;&gt;Ⓜ fast.js/index.js</title>
<path fill="none" stroke="#242424" d="M3030.8306,-405.9469C3062.4491,-356.1558 3099.5168,-297.7835 3130.0456,-249.7085"/>
<polygon fill="#242424" stroke="#242424" points="3133.0651,-251.4825 3135.4712,-241.1644 3127.1559,-247.7299 3133.0651,-251.4825"/>
</g>
<!-- Ⓜ ramda/src/curry.js -->
<g id="node38" class="node">
<title>Ⓜ ramda/src/curry.js</title>
<ellipse fill="none" stroke="#0c821d" stroke-width="4" cx="3426.1988" cy="-153.4077" rx="113.8526" ry="113.8526"/>
<text text-anchor="middle" x="3426.1988" y="-152.2077" font-family="Fira Code" font-size="12.00" fill="#0c821d">Ⓜ ramda/src/curry.js</text>
</g>
<!-- map&#45;performance.fixture.js&#45;&gt;Ⓜ ramda/src/curry.js -->
<g id="edge55" class="edge">
<title>map&#45;performance.fixture.js&#45;&gt;Ⓜ ramda/src/curry.js</title>
<path fill="none" stroke="#242424" d="M3077.6865,-458.0884C3147.5025,-420.4851 3235.714,-367.2297 3304.1988,-306.8153 3321.8384,-291.2544 3338.847,-272.9119 3354.2793,-254.4246"/>
<polygon fill="#242424" stroke="#242424" points="3357.147,-256.4478 3360.7939,-246.5003 3351.7397,-252.0024 3357.147,-256.4478"/>
</g>
<!-- Ⓜ ramda/src/map.js -->
<g id="node39" class="node">
<title>Ⓜ ramda/src/map.js</title>
<ellipse fill="none" stroke="#0c821d" stroke-width="4" cx="2731.1988" cy="-153.4077" rx="103.9872" ry="103.9872"/>
<text text-anchor="middle" x="2731.1988" y="-152.2077" font-family="Fira Code" font-size="12.00" fill="#0c821d">Ⓜ ramda/src/map.js</text>
</g>
<!-- map&#45;performance.fixture.js&#45;&gt;Ⓜ ramda/src/map.js -->
<g id="edge56" class="edge">
<title>map&#45;performance.fixture.js&#45;&gt;Ⓜ ramda/src/map.js</title>
<path fill="none" stroke="#242424" d="M2891.5671,-405.9469C2859.9486,-356.1558 2822.8808,-297.7835 2792.3521,-249.7085"/>
<polygon fill="#242424" stroke="#242424" points="2795.2418,-247.7299 2786.9264,-241.1644 2789.3325,-251.4825 2795.2418,-247.7299"/>
</g>
<!-- Ⓜ testperf/index.js -->
<g id="node40" class="node">
<title>Ⓜ testperf/index.js</title>
<ellipse fill="none" stroke="#0c821d" stroke-width="4" cx="2961.1988" cy="-153.4077" rx="108.9199" ry="108.9199"/>
<text text-anchor="middle" x="2961.1988" y="-152.2077" font-family="Fira Code" font-size="12.00" fill="#0c821d">Ⓜ testperf/index.js</text>
</g>
<!-- map&#45;performance.fixture.js&#45;&gt;Ⓜ testperf/index.js -->
<g id="edge57" class="edge">
<title>map&#45;performance.fixture.js&#45;&gt;Ⓜ testperf/index.js</title>
<path fill="none" stroke="#242424" d="M2961.1988,-385.6071C2961.1988,-348.7009 2961.1988,-308.7106 2961.1988,-272.4856"/>
<polygon fill="#242424" stroke="#242424" points="2964.6989,-272.3739 2961.1988,-262.3739 2957.6989,-272.3739 2964.6989,-272.3739"/>
</g>
</g>
</svg>
