<?xml version="1.0" encoding="UTF-8" standalone="no"?>
<!DOCTYPE svg PUBLIC "-//W3C//DTD SVG 1.1//EN"
 "http://www.w3.org/Graphics/SVG/1.1/DTD/svg11.dtd">
<!-- Generated by graphviz version 2.40.1 (20161225.0304)
 -->
<!-- Title: G Pages: 1 -->
<svg width="3625pt" height="1814pt"
 viewBox="0.00 0.00 3624.55 1813.61" xmlns="http://www.w3.org/2000/svg" xmlns:xlink="http://www.w3.org/1999/xlink">
<g id="graph0" class="graph" transform="scale(1 1) rotate(0) translate(7.992 1805.6213)">
<title>G</title>
<polygon fill="#eeeeff" stroke="transparent" points="-7.992,7.992 -7.992,-1805.6213 3616.5545,-1805.6213 3616.5545,7.992 -7.992,7.992"/>
<!-- ../package.json -->
<g id="node1" class="node">
<title>../package.json</title>
<ellipse fill="none" stroke="#0c821d" stroke-width="4" cx="3023.8863" cy="-1466.2386" rx="79.3981" ry="79.3981"/>
<text text-anchor="middle" x="3023.8863" y="-1463.8386" font-family="Fira Code" font-size="12.00" fill="#0c821d">../package.json</text>
</g>
<!-- ap.js -->
<g id="node2" class="node">
<title>ap.js</title>
<ellipse fill="none" stroke="#242424" stroke-width="4" cx="1415.8863" cy="-1095.3226" rx="33.4262" ry="33.4262"/>
<text text-anchor="middle" x="1415.8863" y="-1092.9226" font-family="Fira Code" font-size="12.00" fill="#242424">ap.js</text>
</g>
<!-- Ⓜ katsu&#45;curry/katsu&#45;curry.js -->
<g id="node3" class="node">
<title>Ⓜ katsu&#45;curry/katsu&#45;curry.js</title>
<ellipse fill="none" stroke="#0c821d" stroke-width="4" cx="1288.8863" cy="-153.4077" rx="153.3154" ry="153.3154"/>
<text text-anchor="middle" x="1288.8863" y="-152.2077" font-family="Fira Code" font-size="12.00" fill="#0c821d">Ⓜ katsu&#45;curry/katsu&#45;curry.js</text>
</g>
<!-- ap.js&#45;&gt;Ⓜ katsu&#45;curry/katsu&#45;curry.js -->
<g id="edge1" class="edge">
<title>ap.js&#45;&gt;Ⓜ katsu&#45;curry/katsu&#45;curry.js</title>
<path fill="none" stroke="#242424" d="M1404.6377,-1063.8205C1386.8607,-1013.6892 1353.411,-917.8427 1344.8863,-882.7807 1298.5818,-692.3312 1287.7546,-466.4332 1286.4581,-317.0409"/>
<polygon fill="#242424" stroke="#242424" points="1289.9569,-316.8397 1286.3836,-306.8657 1282.957,-316.8911 1289.9569,-316.8397"/>
</g>
<!-- map.js -->
<g id="node4" class="node">
<title>map.js</title>
<ellipse fill="none" stroke="#242424" stroke-width="4" cx="1236.8863" cy="-803.5818" rx="37.623" ry="37.623"/>
<text text-anchor="middle" x="1236.8863" y="-801.1819" font-family="Fira Code" font-size="12.00" fill="#242424">map.js</text>
</g>
<!-- ap.js&#45;&gt;map.js -->
<g id="edge2" class="edge">
<title>ap.js&#45;&gt;map.js</title>
<path fill="none" stroke="#242424" d="M1408.8227,-1062.7329C1401.7091,-1034.4955 1388.8905,-993.3327 1368.8863,-961.7807 1342.1296,-919.578 1320.5526,-921.436 1288.8863,-882.7807 1279.2314,-870.9948 1269.7558,-857.3696 1261.5936,-844.7789"/>
<polygon fill="#242424" stroke="#242424" points="1264.4924,-842.8151 1256.1666,-836.2629 1258.5892,-846.5771 1264.4924,-842.8151"/>
</g>
<!-- reduce.js -->
<g id="node5" class="node">
<title>reduce.js</title>
<ellipse fill="none" stroke="#242424" stroke-width="4" cx="1405.8863" cy="-803.5818" rx="51.7142" ry="51.7142"/>
<text text-anchor="middle" x="1405.8863" y="-801.1819" font-family="Fira Code" font-size="12.00" fill="#242424">reduce.js</text>
</g>
<!-- ap.js&#45;&gt;reduce.js -->
<g id="edge3" class="edge">
<title>ap.js&#45;&gt;reduce.js</title>
<path fill="none" stroke="#242424" d="M1414.7392,-1061.8562C1413.1,-1014.0344 1410.059,-925.3161 1408.0042,-865.3685"/>
<polygon fill="#242424" stroke="#242424" points="1411.4985,-865.1409 1407.6579,-855.2667 1404.5026,-865.3808 1411.4985,-865.1409"/>
</g>
<!-- types.js -->
<g id="node6" class="node">
<title>types.js</title>
<ellipse fill="none" stroke="#242424" stroke-width="4" cx="1522.8863" cy="-803.5818" rx="47.0167" ry="47.0167"/>
<text text-anchor="middle" x="1522.8863" y="-801.1819" font-family="Fira Code" font-size="12.00" fill="#242424">types.js</text>
</g>
<!-- ap.js&#45;&gt;types.js -->
<g id="edge4" class="edge">
<title>ap.js&#45;&gt;types.js</title>
<path fill="none" stroke="#242424" d="M1427.3372,-1064.1012C1445.453,-1014.7076 1480.9454,-917.9357 1503.2032,-857.2488"/>
<polygon fill="#242424" stroke="#242424" points="1506.4997,-858.4252 1506.6571,-847.8315 1499.9277,-856.0148 1506.4997,-858.4252"/>
</g>
<!-- map.js&#45;&gt;Ⓜ katsu&#45;curry/katsu&#45;curry.js -->
<g id="edge59" class="edge">
<title>map.js&#45;&gt;Ⓜ katsu&#45;curry/katsu&#45;curry.js</title>
<path fill="none" stroke="#242424" d="M1239.9068,-765.8154C1246.7509,-680.2417 1263.7808,-467.3104 1275.8308,-316.6459"/>
<polygon fill="#242424" stroke="#242424" points="1279.3448,-316.6086 1276.6533,-306.3614 1272.3671,-316.0505 1279.3448,-316.6086"/>
</g>
<!-- Ⓜ fast.js/map.js -->
<g id="node42" class="node">
<title>Ⓜ fast.js/map.js</title>
<ellipse fill="none" stroke="#0c821d" stroke-width="4" cx="1128.8863" cy="-515.5992" rx="93.6213" ry="93.6213"/>
<text text-anchor="middle" x="1128.8863" y="-514.3992" font-family="Fira Code" font-size="12.00" fill="#0c821d">Ⓜ fast.js/map.js</text>
</g>
<!-- map.js&#45;&gt;Ⓜ fast.js/map.js -->
<g id="edge58" class="edge">
<title>map.js&#45;&gt;Ⓜ fast.js/map.js</title>
<path fill="none" stroke="#242424" d="M1223.5351,-767.9807C1209.1071,-729.5083 1185.4898,-666.5326 1165.4571,-613.1153"/>
<polygon fill="#242424" stroke="#242424" points="1168.6788,-611.7385 1161.8902,-603.6043 1162.1246,-614.1965 1168.6788,-611.7385"/>
</g>
<!-- delegate&#45;fast.js -->
<g id="node12" class="node">
<title>delegate&#45;fast.js</title>
<ellipse fill="none" stroke="#242424" stroke-width="4" cx="2098.8863" cy="-515.5992" rx="83.5954" ry="83.5954"/>
<text text-anchor="middle" x="2098.8863" y="-513.1992" font-family="Fira Code" font-size="12.00" fill="#242424">delegate&#45;fast.js</text>
</g>
<!-- reduce.js&#45;&gt;delegate&#45;fast.js -->
<g id="edge76" class="edge">
<title>reduce.js&#45;&gt;delegate&#45;fast.js</title>
<path fill="none" stroke="#242424" d="M1432.0419,-758.7146C1441.5154,-745.9016 1453.2849,-733.0732 1466.8863,-724.383 1600.9029,-638.7571 1665.2423,-696.3597 1815.8863,-645.383 1885.1203,-621.9548 1960.173,-587.0661 2015.5806,-559.3606"/>
<polygon fill="#242424" stroke="#242424" points="2017.2841,-562.4216 2024.6472,-554.8035 2014.1405,-556.1672 2017.2841,-562.4216"/>
</g>
<!-- Ⓜ fast.js/reduce.js -->
<g id="node43" class="node">
<title>Ⓜ fast.js/reduce.js</title>
<ellipse fill="none" stroke="#0c821d" stroke-width="4" cx="1425.8863" cy="-515.5992" rx="108.9199" ry="108.9199"/>
<text text-anchor="middle" x="1425.8863" y="-514.3992" font-family="Fira Code" font-size="12.00" fill="#0c821d">Ⓜ fast.js/reduce.js</text>
</g>
<!-- reduce.js&#45;&gt;Ⓜ fast.js/reduce.js -->
<g id="edge75" class="edge">
<title>reduce.js&#45;&gt;Ⓜ fast.js/reduce.js</title>
<path fill="none" stroke="#242424" d="M1409.4619,-752.0963C1411.7403,-719.2895 1414.7903,-675.3724 1417.6433,-634.2917"/>
<polygon fill="#242424" stroke="#242424" points="1421.1431,-634.4142 1418.3444,-624.1957 1414.1599,-633.9292 1421.1431,-634.4142"/>
</g>
<!-- types.js&#45;&gt;Ⓜ katsu&#45;curry/katsu&#45;curry.js -->
<g id="edge83" class="edge">
<title>types.js&#45;&gt;Ⓜ katsu&#45;curry/katsu&#45;curry.js</title>
<path fill="none" stroke="#242424" d="M1537.7488,-758.8278C1561.3626,-679.687 1599.4064,-511.536 1543.8863,-385.8153 1518.9531,-329.3561 1472.7801,-280.6954 1426.5045,-242.7019"/>
<polygon fill="#242424" stroke="#242424" points="1428.4543,-239.7777 1418.4762,-236.2157 1424.0552,-245.2227 1428.4543,-239.7777"/>
</g>
<!-- array.js -->
<g id="node7" class="node">
<title>array.js</title>
<ellipse fill="none" stroke="#242424" stroke-width="4" cx="2466.8863" cy="-1095.3226" rx="47.0167" ry="47.0167"/>
<text text-anchor="middle" x="2466.8863" y="-1092.9226" font-family="Fira Code" font-size="12.00" fill="#242424">array.js</text>
</g>
<!-- array.js&#45;&gt;Ⓜ katsu&#45;curry/katsu&#45;curry.js -->
<g id="edge6" class="edge">
<title>array.js&#45;&gt;Ⓜ katsu&#45;curry/katsu&#45;curry.js</title>
<path fill="none" stroke="#242424" d="M2465.8668,-1048.217C2462.3197,-893.7337 2449.5403,-410.8957 2427.8863,-385.8153 2302.6336,-240.7435 1736.2574,-183.0065 1452.275,-162.8682"/>
<polygon fill="#242424" stroke="#242424" points="1452.5137,-159.3764 1442.2931,-162.1676 1452.0235,-166.3592 1452.5137,-159.3764"/>
</g>
<!-- Ⓜ entrust/entrust.js -->
<g id="node8" class="node">
<title>Ⓜ entrust/entrust.js</title>
<ellipse fill="none" stroke="#0c821d" stroke-width="4" cx="2564.8863" cy="-153.4077" rx="113.8526" ry="113.8526"/>
<text text-anchor="middle" x="2564.8863" y="-152.2077" font-family="Fira Code" font-size="12.00" fill="#0c821d">Ⓜ entrust/entrust.js</text>
</g>
<!-- array.js&#45;&gt;Ⓜ entrust/entrust.js -->
<g id="edge5" class="edge">
<title>array.js&#45;&gt;Ⓜ entrust/entrust.js</title>
<path fill="none" stroke="#242424" d="M2466.0311,-1048.0735C2464.6791,-933.656 2465.4289,-632.9241 2503.8863,-385.8153 2509.706,-348.4211 2519.0615,-308.3437 2528.716,-272.1808"/>
<polygon fill="#242424" stroke="#242424" points="2532.2128,-272.6573 2531.4443,-262.0904 2525.4554,-270.8302 2532.2128,-272.6573"/>
</g>
<!-- filter.js -->
<g id="node9" class="node">
<title>filter.js</title>
<ellipse fill="none" stroke="#242424" stroke-width="4" cx="2309.8863" cy="-803.5818" rx="51.7142" ry="51.7142"/>
<text text-anchor="middle" x="2309.8863" y="-801.1819" font-family="Fira Code" font-size="12.00" fill="#242424">filter.js</text>
</g>
<!-- array.js&#45;&gt;filter.js -->
<g id="edge7" class="edge">
<title>array.js&#45;&gt;filter.js</title>
<path fill="none" stroke="#242424" d="M2448.5018,-1051.7019C2436.9986,-1025.3051 2421.4511,-991.1769 2405.8863,-961.7807 2386.7308,-925.6029 2362.8606,-886.2462 2343.7148,-855.8381"/>
<polygon fill="#242424" stroke="#242424" points="2346.4956,-853.687 2338.1922,-847.1064 2340.5796,-857.4288 2346.4956,-853.687"/>
</g>
<!-- filter.js&#45;&gt;delegate&#45;fast.js -->
<g id="edge15" class="edge">
<title>filter.js&#45;&gt;delegate&#45;fast.js</title>
<path fill="none" stroke="#242424" d="M2278.6129,-762.1073C2254.703,-730.2891 2221.0072,-685.2127 2191.8863,-645.383 2179.4435,-628.3645 2166.1856,-610.0031 2153.6951,-592.5988"/>
<polygon fill="#242424" stroke="#242424" points="2156.3032,-590.2296 2147.632,-584.1418 2150.6142,-594.3083 2156.3032,-590.2296"/>
</g>
<!-- Ⓜ fast.js/filter.js -->
<g id="node15" class="node">
<title>Ⓜ fast.js/filter.js</title>
<ellipse fill="none" stroke="#0c821d" stroke-width="4" cx="2309.8863" cy="-515.5992" rx="108.9199" ry="108.9199"/>
<text text-anchor="middle" x="2309.8863" y="-514.3992" font-family="Fira Code" font-size="12.00" fill="#0c821d">Ⓜ fast.js/filter.js</text>
</g>
<!-- filter.js&#45;&gt;Ⓜ fast.js/filter.js -->
<g id="edge14" class="edge">
<title>filter.js&#45;&gt;Ⓜ fast.js/filter.js</title>
<path fill="none" stroke="#242424" d="M2309.8863,-751.7637C2309.8863,-719.0756 2309.8863,-675.4542 2309.8863,-634.6012"/>
<polygon fill="#242424" stroke="#242424" points="2313.3864,-634.56 2309.8863,-624.5601 2306.3864,-634.5601 2313.3864,-634.56"/>
</g>
<!-- chain.js -->
<g id="node10" class="node">
<title>chain.js</title>
<ellipse fill="none" stroke="#242424" stroke-width="4" cx="2114.8863" cy="-1466.2386" rx="47.0167" ry="47.0167"/>
<text text-anchor="middle" x="2114.8863" y="-1463.8386" font-family="Fira Code" font-size="12.00" fill="#242424">chain.js</text>
</g>
<!-- Ⓜ flatmap&#45;fast/index.js -->
<g id="node11" class="node">
<title>Ⓜ flatmap&#45;fast/index.js</title>
<ellipse fill="none" stroke="#0c821d" stroke-width="4" cx="2234.8863" cy="-1095.3226" rx="128.651" ry="128.651"/>
<text text-anchor="middle" x="2234.8863" y="-1094.1226" font-family="Fira Code" font-size="12.00" fill="#0c821d">Ⓜ flatmap&#45;fast/index.js</text>
</g>
<!-- chain.js&#45;&gt;Ⓜ flatmap&#45;fast/index.js -->
<g id="edge8" class="edge">
<title>chain.js&#45;&gt;Ⓜ flatmap&#45;fast/index.js</title>
<path fill="none" stroke="#242424" d="M2129.3611,-1421.4974C2144.8386,-1373.657 2170.1208,-1295.5106 2192.0585,-1227.7019"/>
<polygon fill="#242424" stroke="#242424" points="2195.5212,-1228.369 2195.2694,-1217.7772 2188.8611,-1226.2143 2195.5212,-1228.369"/>
</g>
<!-- chain.js&#45;&gt;delegate&#45;fast.js -->
<g id="edge9" class="edge">
<title>chain.js&#45;&gt;delegate&#45;fast.js</title>
<path fill="none" stroke="#242424" d="M2110.2464,-1419.0091C2105.7939,-1371.1481 2099.3881,-1294.9437 2096.8863,-1228.8645 2092.3953,-1110.2455 2047.0455,-1069.5142 2096.8863,-961.7807 2119.6574,-912.5596 2167.1152,-932.0017 2189.8863,-882.7807 2219.445,-818.8878 2204.2528,-793.3005 2189.8863,-724.383 2180.8483,-681.0265 2162.2987,-635.6415 2144.2909,-598.3029"/>
<polygon fill="#242424" stroke="#242424" points="2147.2716,-596.4314 2139.7304,-588.9895 2140.9848,-599.5098 2147.2716,-596.4314"/>
</g>
<!-- delegate&#45;fast.js&#45;&gt;Ⓜ katsu&#45;curry/katsu&#45;curry.js -->
<g id="edge12" class="edge">
<title>delegate&#45;fast.js&#45;&gt;Ⓜ katsu&#45;curry/katsu&#45;curry.js</title>
<path fill="none" stroke="#242424" d="M2056.2852,-443.3045C2041.0381,-422.3655 2022.2603,-401.0671 2000.8863,-385.8153 1834.5249,-267.1049 1604.0551,-206.556 1450.9068,-177.4985"/>
<polygon fill="#242424" stroke="#242424" points="1451.406,-174.0312 1440.9325,-175.6297 1450.1169,-180.9115 1451.406,-174.0312"/>
</g>
<!-- delegate&#45;fast.js&#45;&gt;Ⓜ entrust/entrust.js -->
<g id="edge11" class="edge">
<title>delegate&#45;fast.js&#45;&gt;Ⓜ entrust/entrust.js</title>
<path fill="none" stroke="#242424" d="M2142.7643,-443.8448C2156.9756,-423.7493 2173.7867,-402.7827 2191.8863,-385.8153 2270.14,-312.4566 2374.9313,-249.5817 2453.5155,-207.7987"/>
<polygon fill="#242424" stroke="#242424" points="2455.2742,-210.828 2462.4816,-203.0624 2452.0046,-204.6385 2455.2742,-210.828"/>
</g>
<!-- choice.js -->
<g id="node13" class="node">
<title>choice.js</title>
<ellipse fill="none" stroke="#242424" stroke-width="4" cx="1754.8863" cy="-515.5992" rx="51.7142" ry="51.7142"/>
<text text-anchor="middle" x="1754.8863" y="-513.1992" font-family="Fira Code" font-size="12.00" fill="#242424">choice.js</text>
</g>
<!-- choice.js&#45;&gt;Ⓜ katsu&#45;curry/katsu&#45;curry.js -->
<g id="edge10" class="edge">
<title>choice.js&#45;&gt;Ⓜ katsu&#45;curry/katsu&#45;curry.js</title>
<path fill="none" stroke="#242424" d="M1739.7631,-466.089C1729.8936,-439.9278 1714.8918,-408.6087 1693.8863,-385.8153 1624.2541,-310.2563 1524.2935,-252.5462 1441.1057,-213.5328"/>
<polygon fill="#242424" stroke="#242424" points="1442.3675,-210.2599 1431.8234,-209.2242 1439.4202,-216.6092 1442.3675,-210.2599"/>
</g>
<!-- either.js -->
<g id="node14" class="node">
<title>either.js</title>
<ellipse fill="none" stroke="#242424" stroke-width="4" cx="2712.8863" cy="-515.5992" rx="51.7142" ry="51.7142"/>
<text text-anchor="middle" x="2712.8863" y="-513.1992" font-family="Fira Code" font-size="12.00" fill="#242424">either.js</text>
</g>
<!-- either.js&#45;&gt;Ⓜ entrust/entrust.js -->
<g id="edge13" class="edge">
<title>either.js&#45;&gt;Ⓜ entrust/entrust.js</title>
<path fill="none" stroke="#242424" d="M2693.2331,-467.5029C2672.581,-416.9624 2639.3427,-335.6204 2611.8659,-268.3779"/>
<polygon fill="#242424" stroke="#242424" points="2615.0515,-266.9209 2608.0289,-258.9879 2608.5716,-269.5688 2615.0515,-266.9209"/>
</g>
<!-- flip.js -->
<g id="node16" class="node">
<title>flip.js</title>
<ellipse fill="none" stroke="#242424" stroke-width="4" cx="178.8863" cy="-1095.3226" rx="42.3196" ry="42.3196"/>
<text text-anchor="middle" x="178.8863" y="-1092.9226" font-family="Fira Code" font-size="12.00" fill="#242424">flip.js</text>
</g>
<!-- flip.js&#45;&gt;Ⓜ katsu&#45;curry/katsu&#45;curry.js -->
<g id="edge16" class="edge">
<title>flip.js&#45;&gt;Ⓜ katsu&#45;curry/katsu&#45;curry.js</title>
<path fill="none" stroke="#242424" d="M168.7625,-1054.061C141.94,-933.8464 82.3977,-580.1438 255.8863,-385.8153 369.8794,-258.129 864.6862,-193.2262 1125.9262,-167.3334"/>
<polygon fill="#242424" stroke="#242424" points="1126.2771,-170.8159 1135.8865,-166.3539 1125.5919,-163.8495 1126.2771,-170.8159"/>
</g>
<!-- future.js -->
<g id="node17" class="node">
<title>future.js</title>
<ellipse fill="none" stroke="#242424" stroke-width="4" cx="3210.8863" cy="-803.5818" rx="51.7142" ry="51.7142"/>
<text text-anchor="middle" x="3210.8863" y="-801.1819" font-family="Fira Code" font-size="12.00" fill="#242424">future.js</text>
</g>
<!-- future.js&#45;&gt;Ⓜ entrust/entrust.js -->
<g id="edge17" class="edge">
<title>future.js&#45;&gt;Ⓜ entrust/entrust.js</title>
<path fill="none" stroke="#242424" d="M3182.1857,-760.2127C3171.761,-747.1671 3159.0265,-733.826 3144.8863,-724.383 3046.5708,-658.7268 2979.4209,-723.7304 2890.8863,-645.383 2796.1223,-561.523 2848.2856,-488.1748 2773.8863,-385.8153 2743.1784,-343.5669 2722.5909,-344.9346 2686.8863,-306.8153 2671.0097,-289.865 2654.9273,-271.049 2639.8772,-252.5668"/>
<polygon fill="#242424" stroke="#242424" points="2642.5032,-250.248 2633.4939,-244.6728 2637.0601,-254.6494 2642.5032,-250.248"/>
</g>
<!-- index.js -->
<g id="node18" class="node">
<title>index.js</title>
<ellipse fill="none" stroke="#242424" stroke-width="4" cx="1663.8863" cy="-1750.621" rx="47.0167" ry="47.0167"/>
<text text-anchor="middle" x="1663.8863" y="-1748.221" font-family="Fira Code" font-size="12.00" fill="#242424">index.js</text>
</g>
<!-- index.js&#45;&gt;../package.json -->
<g id="edge20" class="edge">
<title>index.js&#45;&gt;../package.json</title>
<path fill="none" stroke="#242424" d="M1711.0988,-1748.5233C1929.0324,-1738.4982 2831.6125,-1693.1063 2935.8863,-1624.6127 2962.3411,-1607.2355 2981.595,-1579.0501 2995.2216,-1551.238"/>
<polygon fill="#242424" stroke="#242424" points="2998.5533,-1552.3766 2999.6293,-1541.8365 2992.2153,-1549.4051 2998.5533,-1552.3766"/>
</g>
<!-- index.js&#45;&gt;ap.js -->
<g id="edge21" class="edge">
<title>index.js&#45;&gt;ap.js</title>
<path fill="none" stroke="#242424" d="M1619.8857,-1733.2C1576.7644,-1713.6429 1512.9817,-1677.5552 1480.8863,-1624.6127 1385.2426,-1466.8449 1399.1163,-1233.9715 1409.9594,-1138.5236"/>
<polygon fill="#242424" stroke="#242424" points="1413.4602,-1138.722 1411.1601,-1128.3799 1406.5088,-1137.8991 1413.4602,-1138.722"/>
</g>
<!-- index.js&#45;&gt;Ⓜ katsu&#45;curry/katsu&#45;curry.js -->
<g id="edge18" class="edge">
<title>index.js&#45;&gt;Ⓜ katsu&#45;curry/katsu&#45;curry.js</title>
<path fill="none" stroke="#242424" d="M1616.871,-1748.8492C1479.6776,-1742.626 1084.3913,-1716.869 1002.8863,-1624.6127 905.1582,-1513.9933 1039.3348,-1086.1806 959.8863,-961.7807 920.385,-899.9298 852.3638,-945.8783 814.8863,-882.7807 772.0355,-810.6364 768.9028,-484.2719 832.8863,-385.8153 899.6177,-283.1304 1026.6643,-223.649 1129.741,-190.6145"/>
<polygon fill="#242424" stroke="#242424" points="1130.8351,-193.9394 1139.3221,-187.5974 1128.7326,-187.2627 1130.8351,-193.9394"/>
</g>
<!-- index.js&#45;&gt;map.js -->
<g id="edge31" class="edge">
<title>index.js&#45;&gt;map.js</title>
<path fill="none" stroke="#242424" d="M1617.3041,-1742.9794C1555.8521,-1730.217 1449.4691,-1698.2858 1397.8863,-1624.6127 1228.1859,-1382.2379 1430.7044,-1242.0543 1335.8863,-961.7807 1320.7013,-916.8951 1290.5556,-871.6633 1267.4989,-841.1302"/>
<polygon fill="#242424" stroke="#242424" points="1270.0653,-838.7252 1261.2021,-832.9205 1264.511,-842.9854 1270.0653,-838.7252"/>
</g>
<!-- index.js&#45;&gt;reduce.js -->
<g id="edge41" class="edge">
<title>index.js&#45;&gt;reduce.js</title>
<path fill="none" stroke="#242424" d="M1622.7374,-1727.8337C1588.0244,-1706.1803 1540.3509,-1670.1881 1516.8863,-1624.6127 1449.1957,-1493.1365 1487.7254,-1106.6172 1457.8863,-961.7807 1450.8893,-927.818 1439.0342,-890.9532 1428.4091,-861.361"/>
<polygon fill="#242424" stroke="#242424" points="1431.5721,-859.8178 1424.8618,-851.6188 1424.9946,-862.2128 1431.5721,-859.8178"/>
</g>
<!-- index.js&#45;&gt;types.js -->
<g id="edge46" class="edge">
<title>index.js&#45;&gt;types.js</title>
<path fill="none" stroke="#242424" d="M1633.9362,-1714.233C1616.0538,-1690.3076 1594.7656,-1657.4512 1583.8863,-1624.6127 1492.9822,-1350.2234 1507.6336,-996.9889 1517.7984,-860.7111"/>
<polygon fill="#242424" stroke="#242424" points="1521.3059,-860.7458 1518.5817,-850.5072 1514.3264,-860.2099 1521.3059,-860.7458"/>
</g>
<!-- index.js&#45;&gt;array.js -->
<g id="edge22" class="edge">
<title>index.js&#45;&gt;array.js</title>
<path fill="none" stroke="#242424" d="M1710.7989,-1746.326C1829.4337,-1734.4716 2136.7534,-1697.2593 2203.8863,-1624.6127 2300.5206,-1520.0417 2168.7389,-1423.449 2251.8863,-1307.8645 2296.8077,-1245.4185 2352.7437,-1284.4819 2405.8863,-1228.8645 2426.8225,-1206.9533 2441.4696,-1176.5888 2451.1533,-1150.3497"/>
<polygon fill="#242424" stroke="#242424" points="2454.4633,-1151.4874 2454.4989,-1140.8927 2447.8641,-1149.1528 2454.4633,-1151.4874"/>
</g>
<!-- index.js&#45;&gt;filter.js -->
<g id="edge26" class="edge">
<title>index.js&#45;&gt;filter.js</title>
<path fill="none" stroke="#242424" d="M1711.0509,-1745.7317C1824.9823,-1732.9011 2110.2727,-1694.3523 2170.8863,-1624.6127 2263.7353,-1517.7842 2121.801,-1423.1696 2203.8863,-1307.8645 2251.9712,-1240.3196 2328.3705,-1298.8131 2372.8863,-1228.8645 2446.6403,-1112.9734 2381.7862,-943.9089 2339.501,-858.0242"/>
<polygon fill="#242424" stroke="#242424" points="2342.5788,-856.3533 2334.9765,-848.9738 2336.3176,-859.4835 2342.5788,-856.3533"/>
</g>
<!-- index.js&#45;&gt;chain.js -->
<g id="edge23" class="edge">
<title>index.js&#45;&gt;chain.js</title>
<path fill="none" stroke="#242424" d="M1710.9314,-1748.1611C1791.5011,-1741.4825 1956.5952,-1716.6817 2053.8863,-1624.6127 2082.2271,-1597.793 2097.5701,-1556.3406 2105.7788,-1522.5712"/>
<polygon fill="#242424" stroke="#242424" points="2109.192,-1523.3452 2108.0068,-1512.8169 2102.3678,-1521.7864 2109.192,-1523.3452"/>
</g>
<!-- index.js&#45;&gt;choice.js -->
<g id="edge24" class="edge">
<title>index.js&#45;&gt;choice.js</title>
<path fill="none" stroke="#242424" d="M1659.3986,-1703.7468C1648.529,-1581.2884 1623.8839,-1241.866 1654.8863,-961.7807 1670.4701,-820.9921 1712.9123,-659.6997 1737.2006,-574.8851"/>
<polygon fill="#242424" stroke="#242424" points="1740.5924,-575.7544 1739.9974,-565.1763 1733.866,-573.8167 1740.5924,-575.7544"/>
</g>
<!-- index.js&#45;&gt;either.js -->
<g id="edge25" class="edge">
<title>index.js&#45;&gt;either.js</title>
<path fill="none" stroke="#242424" d="M1710.9068,-1750.2085C1949.0985,-1747.6429 3015.0092,-1730.2864 3111.8863,-1624.6127 3159.4521,-1572.7278 3128.5001,-1376.2642 3111.8863,-1307.8645 3033.6766,-985.8708 2912.5786,-944.4408 2769.8863,-645.383 2758.6161,-621.7627 2746.8729,-595.3697 2736.9947,-572.584"/>
<polygon fill="#242424" stroke="#242424" points="2740.2014,-571.1813 2733.024,-563.3881 2733.7749,-573.9563 2740.2014,-571.1813"/>
</g>
<!-- index.js&#45;&gt;flip.js -->
<g id="edge27" class="edge">
<title>index.js&#45;&gt;flip.js</title>
<path fill="none" stroke="#242424" d="M1616.6495,-1749.201C1392.2658,-1742.0514 440.7319,-1707.0331 339.8863,-1624.6127 193.4545,-1504.9348 177.0318,-1256.2427 177.2536,-1147.7925"/>
<polygon fill="#242424" stroke="#242424" points="180.7537,-1147.7682 177.3232,-1137.7441 173.7539,-1147.7196 180.7537,-1147.7682"/>
</g>
<!-- index.js&#45;&gt;future.js -->
<g id="edge28" class="edge">
<title>index.js&#45;&gt;future.js</title>
<path fill="none" stroke="#242424" d="M1711.016,-1750.1511C1952.2319,-1747.2868 3041.3506,-1728.6324 3144.8863,-1624.6127 3351.8529,-1416.6784 3269.4783,-1014.7115 3228.5984,-863.259"/>
<polygon fill="#242424" stroke="#242424" points="3231.8668,-861.9422 3225.8503,-853.2214 3225.1152,-863.7907 3231.8668,-861.9422"/>
</g>
<!-- Ⓜ katsu&#45;curry/utils/length.js -->
<g id="node19" class="node">
<title>Ⓜ katsu&#45;curry/utils/length.js</title>
<ellipse fill="none" stroke="#0c821d" stroke-width="4" cx="2451.8863" cy="-1466.2386" rx="158.2483" ry="158.2483"/>
<text text-anchor="middle" x="2451.8863" y="-1465.0386" font-family="Fira Code" font-size="12.00" fill="#0c821d">Ⓜ katsu&#45;curry/utils/length.js</text>
</g>
<!-- index.js&#45;&gt;Ⓜ katsu&#45;curry/utils/length.js -->
<g id="edge19" class="edge">
<title>index.js&#45;&gt;Ⓜ katsu&#45;curry/utils/length.js</title>
<path fill="none" stroke="#242424" d="M1710.5277,-1744.3842C1836.1571,-1727.0687 2178.9456,-1676.2656 2279.8863,-1624.6127 2299.1581,-1614.751 2317.865,-1602.1247 2335.4061,-1588.3137"/>
<polygon fill="#242424" stroke="#242424" points="2337.7886,-1590.8889 2343.3814,-1581.8904 2333.3978,-1585.4372 2337.7886,-1590.8889"/>
</g>
<!-- invert.js -->
<g id="node20" class="node">
<title>invert.js</title>
<ellipse fill="none" stroke="#242424" stroke-width="4" cx="875.8863" cy="-803.5818" rx="51.7142" ry="51.7142"/>
<text text-anchor="middle" x="875.8863" y="-801.1819" font-family="Fira Code" font-size="12.00" fill="#242424">invert.js</text>
</g>
<!-- index.js&#45;&gt;invert.js -->
<g id="edge29" class="edge">
<title>index.js&#45;&gt;invert.js</title>
<path fill="none" stroke="#242424" d="M1616.7702,-1747.8246C1487.6445,-1739.1276 1132.7403,-1707.9592 1057.8863,-1624.6127 958.9931,-1514.4996 1046.0299,-1099.9129 992.8863,-961.7807 983.7538,-938.0431 945.6594,-888.395 915.3857,-851.0108"/>
<polygon fill="#242424" stroke="#242424" points="918.0838,-848.7811 909.0576,-843.2333 912.654,-853.199 918.0838,-848.7811"/>
</g>
<!-- iterate.js -->
<g id="node21" class="node">
<title>iterate.js</title>
<ellipse fill="none" stroke="#242424" stroke-width="4" cx="1948.8863" cy="-803.5818" rx="56.412" ry="56.412"/>
<text text-anchor="middle" x="1948.8863" y="-801.1819" font-family="Fira Code" font-size="12.00" fill="#242424">iterate.js</text>
</g>
<!-- index.js&#45;&gt;iterate.js -->
<g id="edge30" class="edge">
<title>index.js&#45;&gt;iterate.js</title>
<path fill="none" stroke="#242424" d="M1710.2019,-1741.8107C1769.6244,-1727.9146 1871.1811,-1694.9015 1922.8863,-1624.6127 2010.5244,-1505.4763 1998.5121,-1108.8511 1982.8863,-961.7807 1979.5676,-930.5447 1972.6615,-896.4144 1965.935,-867.8773"/>
<polygon fill="#242424" stroke="#242424" points="1969.3086,-866.9363 1963.5694,-858.0305 1962.5022,-868.5715 1969.3086,-866.9363"/>
</g>
<!-- math.js -->
<g id="node22" class="node">
<title>math.js</title>
<ellipse fill="none" stroke="#242424" stroke-width="4" cx="1025.8863" cy="-803.5818" rx="42.3196" ry="42.3196"/>
<text text-anchor="middle" x="1025.8863" y="-801.1819" font-family="Fira Code" font-size="12.00" fill="#242424">math.js</text>
</g>
<!-- index.js&#45;&gt;math.js -->
<g id="edge32" class="edge">
<title>index.js&#45;&gt;math.js</title>
<path fill="none" stroke="#242424" d="M1616.6228,-1747.0055C1493.9266,-1736.5852 1170.0605,-1702.144 1101.8863,-1624.6127 1076.3992,-1595.6273 1039.9056,-1032.5897 1029.0483,-856.0528"/>
<polygon fill="#242424" stroke="#242424" points="1032.5356,-855.7373 1028.4302,-845.9702 1025.5487,-856.1656 1032.5356,-855.7373"/>
</g>
<!-- object.js -->
<g id="node23" class="node">
<title>object.js</title>
<ellipse fill="none" stroke="#242424" stroke-width="4" cx="1274.8863" cy="-1095.3226" rx="51.7142" ry="51.7142"/>
<text text-anchor="middle" x="1274.8863" y="-1092.9226" font-family="Fira Code" font-size="12.00" fill="#242424">object.js</text>
</g>
<!-- index.js&#45;&gt;object.js -->
<g id="edge33" class="edge">
<title>index.js&#45;&gt;object.js</title>
<path fill="none" stroke="#242424" d="M1616.8725,-1746.9638C1544.9,-1738.6494 1408.6408,-1711.6531 1340.8863,-1624.6127 1285.145,-1553.0048 1276.0692,-1280.8118 1274.8772,-1157.1354"/>
<polygon fill="#242424" stroke="#242424" points="1278.3766,-1157.0356 1274.7945,-1147.0647 1271.3768,-1157.0931 1278.3766,-1157.0356"/>
</g>
<!-- path.js -->
<g id="node24" class="node">
<title>path.js</title>
<ellipse fill="none" stroke="#242424" stroke-width="4" cx="1162.8863" cy="-1095.3226" rx="42.3196" ry="42.3196"/>
<text text-anchor="middle" x="1162.8863" y="-1092.9226" font-family="Fira Code" font-size="12.00" fill="#242424">path.js</text>
</g>
<!-- index.js&#45;&gt;path.js -->
<g id="edge34" class="edge">
<title>index.js&#45;&gt;path.js</title>
<path fill="none" stroke="#242424" d="M1617.6142,-1741.876C1524.6535,-1723.3541 1320.2174,-1677.5031 1274.8863,-1624.6127 1182.0941,-1516.3466 1254.9432,-1447.0313 1223.8863,-1307.8645 1211.3197,-1251.5532 1192.4838,-1188.1048 1179.071,-1145.308"/>
<polygon fill="#242424" stroke="#242424" points="1182.3856,-1144.1811 1176.0409,-1135.6961 1175.7095,-1146.2857 1182.3856,-1144.1811"/>
</g>
<!-- random&#45;floor.js -->
<g id="node25" class="node">
<title>random&#45;floor.js</title>
<ellipse fill="none" stroke="#242424" stroke-width="4" cx="2101.8863" cy="-803.5818" rx="79.3981" ry="79.3981"/>
<text text-anchor="middle" x="2101.8863" y="-801.1819" font-family="Fira Code" font-size="12.00" fill="#242424">random&#45;floor.js</text>
</g>
<!-- index.js&#45;&gt;random&#45;floor.js -->
<g id="edge35" class="edge">
<title>index.js&#45;&gt;random&#45;floor.js</title>
<path fill="none" stroke="#242424" d="M1710.6633,-1745.6986C1779.4108,-1735.8012 1906.5283,-1706.8473 1970.8863,-1624.6127 2062.6534,-1507.3557 2042.7835,-1108.372 2068.8863,-961.7807 2072.978,-938.8023 2077.8951,-914.0524 2082.6692,-891.1089"/>
<polygon fill="#242424" stroke="#242424" points="2086.1509,-891.5587 2084.7761,-881.0535 2079.2997,-890.1231 2086.1509,-891.5587"/>
</g>
<!-- random&#45;shuffle.js -->
<g id="node26" class="node">
<title>random&#45;shuffle.js</title>
<ellipse fill="none" stroke="#0c821d" stroke-width="4" cx="2716.8863" cy="-1466.2386" rx="88.2923" ry="88.2923"/>
<text text-anchor="middle" x="2716.8863" y="-1463.8386" font-family="Fira Code" font-size="12.00" fill="#0c821d">random&#45;shuffle.js</text>
</g>
<!-- index.js&#45;&gt;random&#45;shuffle.js -->
<g id="edge36" class="edge">
<title>index.js&#45;&gt;random&#45;shuffle.js</title>
<path fill="none" stroke="#242424" d="M1710.9405,-1749.6506C1881.5849,-1745.3456 2465.8946,-1723.5264 2618.8863,-1624.6127 2644.0257,-1608.3593 2663.7994,-1583.1476 2678.8003,-1557.5831"/>
<polygon fill="#242424" stroke="#242424" points="2682.0375,-1558.9685 2683.9083,-1548.5401 2675.9426,-1555.5257 2682.0375,-1558.9685"/>
</g>
<!-- random&#45;take.js -->
<g id="node27" class="node">
<title>random&#45;take.js</title>
<ellipse fill="none" stroke="#242424" stroke-width="4" cx="1898.8863" cy="-1095.3226" rx="74.7005" ry="74.7005"/>
<text text-anchor="middle" x="1898.8863" y="-1092.9226" font-family="Fira Code" font-size="12.00" fill="#242424">random&#45;take.js</text>
</g>
<!-- index.js&#45;&gt;random&#45;take.js -->
<g id="edge37" class="edge">
<title>index.js&#45;&gt;random&#45;take.js</title>
<path fill="none" stroke="#242424" d="M1709.6319,-1738.3746C1761.1128,-1721.9071 1842.4316,-1687.1977 1879.8863,-1624.6127 1962.8789,-1485.936 1940.8667,-1288.1841 1918.9154,-1177.846"/>
<polygon fill="#242424" stroke="#242424" points="1922.289,-1176.8721 1916.863,-1167.7722 1915.4299,-1178.2697 1922.289,-1176.8721"/>
</g>
<!-- random&#45;word.js -->
<g id="node28" class="node">
<title>random&#45;word.js</title>
<ellipse fill="none" stroke="#242424" stroke-width="4" cx="1795.8863" cy="-1466.2386" rx="74.7005" ry="74.7005"/>
<text text-anchor="middle" x="1795.8863" y="-1463.8386" font-family="Fira Code" font-size="12.00" fill="#242424">random&#45;word.js</text>
</g>
<!-- index.js&#45;&gt;random&#45;word.js -->
<g id="edge38" class="edge">
<title>index.js&#45;&gt;random&#45;word.js</title>
<path fill="none" stroke="#242424" d="M1683.791,-1707.7382C1703.936,-1664.3374 1735.5248,-1596.2821 1760.0417,-1543.4626"/>
<polygon fill="#242424" stroke="#242424" points="1763.3417,-1544.6661 1764.3773,-1534.1219 1756.9924,-1541.7189 1763.3417,-1544.6661"/>
</g>
<!-- random.js -->
<g id="node29" class="node">
<title>random.js</title>
<ellipse fill="none" stroke="#0c821d" stroke-width="4" cx="2874.8863" cy="-1466.2386" rx="51.7142" ry="51.7142"/>
<text text-anchor="middle" x="2874.8863" y="-1463.8386" font-family="Fira Code" font-size="12.00" fill="#0c821d">random.js</text>
</g>
<!-- index.js&#45;&gt;random.js -->
<g id="edge39" class="edge">
<title>index.js&#45;&gt;random.js</title>
<path fill="none" stroke="#242424" d="M1711.1726,-1748.3195C1916.5779,-1737.9403 2725.0651,-1692.9996 2813.8863,-1624.6127 2843.9533,-1601.4629 2859.2065,-1561.5233 2866.9414,-1527.5458"/>
<polygon fill="#242424" stroke="#242424" points="2870.3831,-1528.1866 2869.0192,-1517.6799 2863.5334,-1526.7439 2870.3831,-1528.1866"/>
</g>
<!-- range.js -->
<g id="node30" class="node">
<title>range.js</title>
<ellipse fill="none" stroke="#242424" stroke-width="4" cx="1637.8863" cy="-515.5992" rx="47.0167" ry="47.0167"/>
<text text-anchor="middle" x="1637.8863" y="-513.1992" font-family="Fira Code" font-size="12.00" fill="#242424">range.js</text>
</g>
<!-- index.js&#45;&gt;range.js -->
<g id="edge40" class="edge">
<title>index.js&#45;&gt;range.js</title>
<path fill="none" stroke="#242424" d="M1645.5553,-1707.1768C1636.4634,-1683.2834 1626.4663,-1652.8374 1621.8863,-1624.6127 1557.801,-1229.6763 1606.5892,-1124.1925 1621.8863,-724.383 1623.8573,-672.8687 1628.5542,-614.3614 1632.3523,-572.4153"/>
<polygon fill="#242424" stroke="#242424" points="1635.8437,-572.6684 1633.2714,-562.3906 1628.8729,-572.0292 1635.8437,-572.6684"/>
</g>
<!-- reject.js -->
<g id="node31" class="node">
<title>reject.js</title>
<ellipse fill="none" stroke="#242424" stroke-width="4" cx="1715.8863" cy="-1095.3226" rx="51.7142" ry="51.7142"/>
<text text-anchor="middle" x="1715.8863" y="-1092.9226" font-family="Fira Code" font-size="12.00" fill="#242424">reject.js</text>
</g>
<!-- index.js&#45;&gt;reject.js -->
<g id="edge42" class="edge">
<title>index.js&#45;&gt;reject.js</title>
<path fill="none" stroke="#242424" d="M1667.6052,-1703.7565C1676.8052,-1587.8188 1700.632,-1287.5559 1710.9748,-1157.2169"/>
<polygon fill="#242424" stroke="#242424" points="1714.4828,-1157.2541 1711.7849,-1147.0085 1707.5047,-1156.7003 1714.4828,-1157.2541"/>
</g>
<!-- string.js -->
<g id="node32" class="node">
<title>string.js</title>
<ellipse fill="none" stroke="#242424" stroke-width="4" cx="2564.8863" cy="-515.5992" rx="51.7142" ry="51.7142"/>
<text text-anchor="middle" x="2564.8863" y="-513.1992" font-family="Fira Code" font-size="12.00" fill="#242424">string.js</text>
</g>
<!-- index.js&#45;&gt;string.js -->
<g id="edge43" class="edge">
<title>index.js&#45;&gt;string.js</title>
<path fill="none" stroke="#242424" d="M1710.9299,-1747.1596C1835.5659,-1736.9801 2169.6896,-1702.8071 2241.8863,-1624.6127 2338.2608,-1520.2319 2194.168,-1417.1969 2284.8863,-1307.8645 2356.055,-1222.093 2455.0326,-1317.2817 2522.8863,-1228.8645 2673.5878,-1032.4921 2614.8664,-708.8719 2581.6426,-575.7014"/>
<polygon fill="#242424" stroke="#242424" points="2584.9536,-574.519 2579.102,-565.6867 2578.1685,-576.2403 2584.9536,-574.519"/>
</g>
<!-- ternary.js -->
<g id="node33" class="node">
<title>ternary.js</title>
<ellipse fill="none" stroke="#242424" stroke-width="4" cx="123.8863" cy="-1466.2386" rx="56.412" ry="56.412"/>
<text text-anchor="middle" x="123.8863" y="-1463.8386" font-family="Fira Code" font-size="12.00" fill="#242424">ternary.js</text>
</g>
<!-- index.js&#45;&gt;ternary.js -->
<g id="edge44" class="edge">
<title>index.js&#45;&gt;ternary.js</title>
<path fill="none" stroke="#242424" d="M1616.8577,-1749.9805C1406.9461,-1746.5571 555.2945,-1726.5223 311.8863,-1624.6127 255.1051,-1600.8396 202.6263,-1553.578 167.6276,-1516.8436"/>
<polygon fill="#242424" stroke="#242424" points="169.8258,-1514.0714 160.4293,-1509.1769 164.7226,-1518.8629 169.8258,-1514.0714"/>
</g>
<!-- triplet.js -->
<g id="node34" class="node">
<title>triplet.js</title>
<ellipse fill="none" stroke="#242424" stroke-width="4" cx="295.8863" cy="-1095.3226" rx="56.412" ry="56.412"/>
<text text-anchor="middle" x="295.8863" y="-1092.9226" font-family="Fira Code" font-size="12.00" fill="#242424">triplet.js</text>
</g>
<!-- index.js&#45;&gt;triplet.js -->
<g id="edge45" class="edge">
<title>index.js&#45;&gt;triplet.js</title>
<path fill="none" stroke="#242424" d="M1616.8813,-1748.6372C1406.9794,-1739.3847 561.6961,-1697.8004 470.8863,-1624.6127 397.334,-1565.3335 334.1966,-1288.6865 308.3599,-1160.6503"/>
<polygon fill="#242424" stroke="#242424" points="311.7393,-1159.7003 306.3435,-1150.5824 304.8756,-1161.0751 311.7393,-1159.7003"/>
</g>
<!-- which.js -->
<g id="node35" class="node">
<title>which.js</title>
<ellipse fill="none" stroke="#242424" stroke-width="4" cx="526.8863" cy="-1466.2386" rx="47.0167" ry="47.0167"/>
<text text-anchor="middle" x="526.8863" y="-1463.8386" font-family="Fira Code" font-size="12.00" fill="#242424">which.js</text>
</g>
<!-- index.js&#45;&gt;which.js -->
<g id="edge47" class="edge">
<title>index.js&#45;&gt;which.js</title>
<path fill="none" stroke="#242424" d="M1617.0757,-1744.959C1503.7768,-1730.657 1206.3234,-1689.5272 964.8863,-1624.6127 822.6921,-1586.3813 661.1719,-1522.406 579.7662,-1488.6552"/>
<polygon fill="#242424" stroke="#242424" points="580.8198,-1485.3028 570.2425,-1484.6929 578.1308,-1491.7657 580.8198,-1485.3028"/>
</g>
<!-- invert.js&#45;&gt;Ⓜ katsu&#45;curry/katsu&#45;curry.js -->
<g id="edge48" class="edge">
<title>invert.js&#45;&gt;Ⓜ katsu&#45;curry/katsu&#45;curry.js</title>
<path fill="none" stroke="#242424" d="M861.3648,-754.0492C840.1713,-671.3186 810.2774,-502.6051 878.8863,-385.8153 933.4739,-292.8935 1040.4242,-234.0672 1131.405,-198.8496"/>
<polygon fill="#242424" stroke="#242424" points="1132.8992,-202.026 1141.0012,-195.1989 1130.4101,-195.4834 1132.8992,-202.026"/>
</g>
<!-- iterate.js&#45;&gt;Ⓜ katsu&#45;curry/katsu&#45;curry.js -->
<g id="edge49" class="edge">
<title>iterate.js&#45;&gt;Ⓜ katsu&#45;curry/katsu&#45;curry.js</title>
<path fill="none" stroke="#242424" d="M1953.032,-747.2319C1959.2557,-646.6494 1966.2591,-441.509 1924.8863,-385.8153 1866.7344,-307.5345 1616.8432,-233.1075 1448.1543,-190.4161"/>
<polygon fill="#242424" stroke="#242424" points="1448.976,-187.0139 1438.4241,-187.966 1447.2667,-193.802 1448.976,-187.0139"/>
</g>
<!-- math.js&#45;&gt;Ⓜ katsu&#45;curry/katsu&#45;curry.js -->
<g id="edge60" class="edge">
<title>math.js&#45;&gt;Ⓜ katsu&#45;curry/katsu&#45;curry.js</title>
<path fill="none" stroke="#242424" d="M1005.0107,-766.5547C965.2068,-690.6107 888.1163,-513.6198 954.8863,-385.8153 993.9415,-311.0597 1069.2163,-255.482 1138.4314,-217.4539"/>
<polygon fill="#242424" stroke="#242424" points="1140.1448,-220.5065 1147.2758,-212.6708 1136.8148,-214.3492 1140.1448,-220.5065"/>
</g>
<!-- object.js&#45;&gt;Ⓜ katsu&#45;curry/katsu&#45;curry.js -->
<g id="edge61" class="edge">
<title>object.js&#45;&gt;Ⓜ katsu&#45;curry/katsu&#45;curry.js</title>
<path fill="none" stroke="#242424" d="M1256.181,-1047.0265C1221.9007,-959.6823 1148.9504,-779.4153 1109.8863,-724.383 1080.221,-682.5914 1046.2225,-692.4256 1025.8863,-645.383 980.1097,-539.4905 978.4735,-490.9854 1025.8863,-385.8153 1052.1584,-327.5391 1101.0656,-277.9962 1149.644,-239.8156"/>
<polygon fill="#242424" stroke="#242424" points="1151.9818,-242.4321 1157.75,-233.5451 1147.6988,-236.8953 1151.9818,-242.4321"/>
</g>
<!-- object.js&#45;&gt;map.js -->
<g id="edge62" class="edge">
<title>object.js&#45;&gt;map.js</title>
<path fill="none" stroke="#242424" d="M1268.1802,-1043.8367C1261.089,-989.3953 1249.9941,-904.215 1243.0967,-851.2612"/>
<polygon fill="#242424" stroke="#242424" points="1246.538,-850.5829 1241.7756,-841.1188 1239.5966,-851.4871 1246.538,-850.5829"/>
</g>
<!-- object.js&#45;&gt;reduce.js -->
<g id="edge63" class="edge">
<title>object.js&#45;&gt;reduce.js</title>
<path fill="none" stroke="#242424" d="M1296.0793,-1048.1251C1319.1482,-996.7501 1356.0207,-914.6339 1380.5885,-859.9207"/>
<polygon fill="#242424" stroke="#242424" points="1383.8203,-861.2677 1384.7238,-850.7114 1377.4345,-858.4003 1383.8203,-861.2677"/>
</g>
<!-- path.js&#45;&gt;Ⓜ katsu&#45;curry/katsu&#45;curry.js -->
<g id="edge64" class="edge">
<title>path.js&#45;&gt;Ⓜ katsu&#45;curry/katsu&#45;curry.js</title>
<path fill="none" stroke="#242424" d="M1152.151,-1054.2937C1141.091,-1011.5706 1123.5823,-942.6519 1109.8863,-882.7807 1093.8504,-812.6809 1113.1089,-786.5043 1076.8863,-724.383 1050.0765,-678.4045 1008.8412,-693.8678 986.8863,-645.383 963.0926,-592.8375 961.4107,-437.5664 986.8863,-385.8153 1019.8884,-318.775 1082.5545,-265.6517 1142.2857,-227.2147"/>
<polygon fill="#242424" stroke="#242424" points="1144.497,-229.9572 1151.0733,-221.6503 1140.7522,-224.0431 1144.497,-229.9572"/>
</g>
<!-- path.js&#45;&gt;reduce.js -->
<g id="edge66" class="edge">
<title>path.js&#45;&gt;reduce.js</title>
<path fill="none" stroke="#242424" d="M1172.7503,-1053.7829C1180.7352,-1025.9582 1193.9698,-989.4897 1213.8863,-961.7807 1251.384,-909.6116 1310.1303,-864.6563 1352.7712,-836.1455"/>
<polygon fill="#242424" stroke="#242424" points="1354.9234,-838.9187 1361.3428,-830.49 1351.0683,-833.0759 1354.9234,-838.9187"/>
</g>
<!-- path.js&#45;&gt;math.js -->
<g id="edge65" class="edge">
<title>path.js&#45;&gt;math.js</title>
<path fill="none" stroke="#242424" d="M1147.2462,-1055.8284C1136.4222,-1029.0626 1121.4051,-993.0132 1106.8863,-961.7807 1089.188,-923.7082 1067.4202,-881.4152 1050.909,-850.1442"/>
<polygon fill="#242424" stroke="#242424" points="1053.9559,-848.419 1046.182,-841.2205 1047.7701,-851.6957 1053.9559,-848.419"/>
</g>
<!-- random&#45;floor.js&#45;&gt;Ⓜ katsu&#45;curry/katsu&#45;curry.js -->
<g id="edge67" class="edge">
<title>random&#45;floor.js&#45;&gt;Ⓜ katsu&#45;curry/katsu&#45;curry.js</title>
<path fill="none" stroke="#242424" d="M2055.5468,-738.9161C2037.6454,-711.2536 2018.4821,-677.8849 2005.8863,-645.383 1963.4024,-535.7581 2031.9248,-474.6273 1954.8863,-385.8153 1887.6974,-308.3582 1623.4317,-232.7901 1448.6695,-189.7831"/>
<polygon fill="#242424" stroke="#242424" points="1449.4011,-186.359 1438.8555,-187.3791 1447.7356,-193.1579 1449.4011,-186.359"/>
</g>
<!-- random&#45;take.js&#45;&gt;Ⓜ katsu&#45;curry/katsu&#45;curry.js -->
<g id="edge68" class="edge">
<title>random&#45;take.js&#45;&gt;Ⓜ katsu&#45;curry/katsu&#45;curry.js</title>
<path fill="none" stroke="#242424" d="M1892.3235,-1020.6348C1889.0717,-979.9205 1885.5019,-928.6215 1883.8863,-882.7807 1881.4068,-812.4254 1882.5503,-794.7693 1883.8863,-724.383 1886.742,-573.9297 1971.8614,-510.0071 1886.8863,-385.8153 1835.5977,-310.8566 1606.9663,-237.0838 1447.7602,-193.4068"/>
<polygon fill="#242424" stroke="#242424" points="1448.4225,-189.9596 1437.8538,-190.7033 1446.5794,-196.7127 1448.4225,-189.9596"/>
</g>
<!-- random&#45;take.js&#45;&gt;iterate.js -->
<g id="edge69" class="edge">
<title>random&#45;take.js&#45;&gt;iterate.js</title>
<path fill="none" stroke="#242424" d="M1911.5034,-1021.7041C1919.5452,-974.7815 1929.8741,-914.5148 1937.6361,-869.2247"/>
<polygon fill="#242424" stroke="#242424" points="1941.1115,-869.6656 1939.3511,-859.218 1934.2121,-868.4831 1941.1115,-869.6656"/>
</g>
<!-- random&#45;take.js&#45;&gt;random&#45;floor.js -->
<g id="edge70" class="edge">
<title>random&#45;take.js&#45;&gt;random&#45;floor.js</title>
<path fill="none" stroke="#242424" d="M1941.6893,-1033.8083C1973.5235,-988.058 2017.0945,-925.4401 2050.7605,-877.0571"/>
<polygon fill="#242424" stroke="#242424" points="2053.661,-879.0165 2056.4997,-868.809 2047.9151,-875.0184 2053.661,-879.0165"/>
</g>
<!-- random&#45;word.js&#45;&gt;Ⓜ katsu&#45;curry/katsu&#45;curry.js -->
<g id="edge71" class="edge">
<title>random&#45;word.js&#45;&gt;Ⓜ katsu&#45;curry/katsu&#45;curry.js</title>
<path fill="none" stroke="#242424" d="M1797.6684,-1391.4025C1800.2526,-1292.8584 1805.7565,-1114.223 1814.8863,-961.7807 1823.3214,-820.9379 1835.1037,-786.3596 1840.8863,-645.383 1845.6144,-530.1165 1904.7002,-481.922 1840.8863,-385.8153 1754.9086,-256.3288 1581.1329,-198.8196 1451.4054,-173.3798"/>
<polygon fill="#242424" stroke="#242424" points="1451.8382,-169.8991 1441.3584,-171.4561 1450.5218,-176.7743 1451.8382,-169.8991"/>
</g>
<!-- random&#45;word.js&#45;&gt;array.js -->
<g id="edge72" class="edge">
<title>random&#45;word.js&#45;&gt;array.js</title>
<path fill="none" stroke="#242424" d="M1856.6274,-1422.5293C1908.2398,-1387.1788 1985.4398,-1338.4206 2058.8863,-1307.8645 2191.7513,-1252.5884 2254.2768,-1310.3527 2372.8863,-1228.8645 2402.6181,-1208.4379 2426.0151,-1175.3298 2442.0302,-1147.191"/>
<polygon fill="#242424" stroke="#242424" points="2445.1965,-1148.6974 2446.9692,-1138.2519 2439.0695,-1145.3121 2445.1965,-1148.6974"/>
</g>
<!-- random&#45;word.js&#45;&gt;random&#45;take.js -->
<g id="edge73" class="edge">
<title>random&#45;word.js&#45;&gt;random&#45;take.js</title>
<path fill="none" stroke="#242424" d="M1815.8679,-1394.2824C1833.1458,-1332.0626 1858.114,-1242.1487 1876.1515,-1177.1933"/>
<polygon fill="#242424" stroke="#242424" points="1879.5693,-1177.9663 1878.8726,-1167.3944 1872.8245,-1176.0933 1879.5693,-1177.9663"/>
</g>
<!-- range.js&#45;&gt;Ⓜ katsu&#45;curry/katsu&#45;curry.js -->
<g id="edge74" class="edge">
<title>range.js&#45;&gt;Ⓜ katsu&#45;curry/katsu&#45;curry.js</title>
<path fill="none" stroke="#242424" d="M1622.7453,-471.033C1612.4095,-444.597 1596.9498,-411.3704 1576.8863,-385.8153 1534.7059,-332.0898 1477.8906,-282.9058 1425.8701,-243.7569"/>
<polygon fill="#242424" stroke="#242424" points="1427.6733,-240.7354 1417.5653,-237.5607 1423.4873,-246.3459 1427.6733,-240.7354"/>
</g>
<!-- reject.js&#45;&gt;Ⓜ katsu&#45;curry/katsu&#45;curry.js -->
<g id="edge77" class="edge">
<title>reject.js&#45;&gt;Ⓜ katsu&#45;curry/katsu&#45;curry.js</title>
<path fill="none" stroke="#242424" d="M1731.1687,-1045.9379C1773.9606,-903.5439 1887.303,-495.3631 1815.8863,-385.8153 1735.6671,-262.765 1573.9875,-204.4075 1450.7475,-177.0154"/>
<polygon fill="#242424" stroke="#242424" points="1451.3373,-173.562 1440.8219,-174.8575 1449.85,-180.4022 1451.3373,-173.562"/>
</g>
<!-- reject.js&#45;&gt;filter.js -->
<g id="edge78" class="edge">
<title>reject.js&#45;&gt;filter.js</title>
<path fill="none" stroke="#242424" d="M1738.9727,-1048.7704C1755.9713,-1019.3342 1781.8467,-982.9694 1814.8863,-961.7807 1958.2604,-869.8327 2032.7097,-948.4014 2189.8863,-882.7807 2214.7881,-872.3842 2240.0577,-856.6451 2260.9437,-841.9296"/>
<polygon fill="#242424" stroke="#242424" points="2263.2309,-844.5962 2269.3146,-835.9221 2259.1495,-838.9092 2263.2309,-844.5962"/>
</g>
<!-- string.js&#45;&gt;Ⓜ katsu&#45;curry/katsu&#45;curry.js -->
<g id="edge80" class="edge">
<title>string.js&#45;&gt;Ⓜ katsu&#45;curry/katsu&#45;curry.js</title>
<path fill="none" stroke="#242424" d="M2539.883,-470.2132C2521.7089,-441.5446 2494.4554,-406.1895 2460.8863,-385.8153 2293.0026,-283.9211 1732.3045,-205.6145 1451.7171,-171.7457"/>
<polygon fill="#242424" stroke="#242424" points="1451.7906,-168.2294 1441.4443,-170.5104 1450.9549,-175.1793 1451.7906,-168.2294"/>
</g>
<!-- string.js&#45;&gt;Ⓜ entrust/entrust.js -->
<g id="edge79" class="edge">
<title>string.js&#45;&gt;Ⓜ entrust/entrust.js</title>
<path fill="none" stroke="#242424" d="M2564.8863,-463.706C2564.8863,-415.2459 2564.8863,-341.0305 2564.8863,-277.3311"/>
<polygon fill="#242424" stroke="#242424" points="2568.3864,-277.2036 2564.8863,-267.2036 2561.3864,-277.2036 2568.3864,-277.2036"/>
</g>
<!-- ternary.js&#45;&gt;Ⓜ katsu&#45;curry/katsu&#45;curry.js -->
<g id="edge81" class="edge">
<title>ternary.js&#45;&gt;Ⓜ katsu&#45;curry/katsu&#45;curry.js</title>
<path fill="none" stroke="#242424" d="M104.3653,-1413.3297C44.7331,-1241.5501 -115.7839,-692.8451 142.8863,-385.8153 267.3061,-238.1347 839.6916,-181.6 1125.5273,-162.3006"/>
<polygon fill="#242424" stroke="#242424" points="1125.8287,-165.7883 1135.5733,-161.6296 1125.3622,-158.8039 1125.8287,-165.7883"/>
</g>
<!-- triplet.js&#45;&gt;Ⓜ katsu&#45;curry/katsu&#45;curry.js -->
<g id="edge82" class="edge">
<title>triplet.js&#45;&gt;Ⓜ katsu&#45;curry/katsu&#45;curry.js</title>
<path fill="none" stroke="#242424" d="M282.4487,-1040.6754C253.8283,-909.9452 202.0694,-575.9291 365.8863,-385.8153 463.9844,-271.9699 888.6226,-202.5773 1126.2682,-171.9402"/>
<polygon fill="#242424" stroke="#242424" points="1126.9167,-175.3858 1136.3912,-170.644 1126.0276,-168.4425 1126.9167,-175.3858"/>
</g>
<!-- which.js&#45;&gt;Ⓜ katsu&#45;curry/katsu&#45;curry.js -->
<g id="edge86" class="edge">
<title>which.js&#45;&gt;Ⓜ katsu&#45;curry/katsu&#45;curry.js</title>
<path fill="none" stroke="#242424" d="M498.7345,-1428.4107C467.2472,-1383.5258 418.1386,-1305.1304 398.8863,-1228.8645 369.8326,-1113.771 364.5546,-1075.4114 398.8863,-961.7807 487.7973,-667.5043 548.1332,-585.473 781.8863,-385.8153 884.177,-298.4448 1024.7656,-237.4566 1131.9561,-199.9481"/>
<polygon fill="#242424" stroke="#242424" points="1133.2662,-203.1983 1141.5682,-196.616 1130.9734,-196.5844 1133.2662,-203.1983"/>
</g>
<!-- which.js&#45;&gt;flip.js -->
<g id="edge87" class="edge">
<title>which.js&#45;&gt;flip.js</title>
<path fill="none" stroke="#242424" d="M491.7024,-1435.061C454.6021,-1402.5148 394.1247,-1350.3893 339.8863,-1307.8645 292.8024,-1270.949 267.4501,-1276.2221 230.8863,-1228.8645 212.2132,-1204.679 199.4889,-1172.9651 191.3031,-1146.5121"/>
<polygon fill="#242424" stroke="#242424" points="194.5805,-1145.2527 188.3852,-1136.658 187.8686,-1147.2402 194.5805,-1145.2527"/>
</g>
<!-- which.js&#45;&gt;triplet.js -->
<g id="edge88" class="edge">
<title>which.js&#45;&gt;triplet.js</title>
<path fill="none" stroke="#242424" d="M506.094,-1424.0557C489.1832,-1391.2517 463.7883,-1345.1956 436.8863,-1307.8645 409.2868,-1269.5655 392.8315,-1267.6265 365.8863,-1228.8645 350.1241,-1206.1897 335.4654,-1179.5249 323.6775,-1156.0093"/>
<polygon fill="#242424" stroke="#242424" points="326.708,-1154.2415 319.1391,-1146.8279 320.4327,-1157.3434 326.708,-1154.2415"/>
</g>
<!-- Ⓜ fast.js/array/every.js -->
<g id="node44" class="node">
<title>Ⓜ fast.js/array/every.js</title>
<ellipse fill="none" stroke="#0c821d" stroke-width="4" cx="541.8863" cy="-1095.3226" rx="133.5838" ry="133.5838"/>
<text text-anchor="middle" x="541.8863" y="-1094.1226" font-family="Fira Code" font-size="12.00" fill="#0c821d">Ⓜ fast.js/array/every.js</text>
</g>
<!-- which.js&#45;&gt;Ⓜ fast.js/array/every.js -->
<g id="edge84" class="edge">
<title>which.js&#45;&gt;Ⓜ fast.js/array/every.js</title>
<path fill="none" stroke="#242424" d="M528.7861,-1419.2618C530.6194,-1373.9273 533.49,-1302.9435 536.0774,-1238.9641"/>
<polygon fill="#242424" stroke="#242424" points="539.583,-1238.8942 536.49,-1228.7609 532.5887,-1238.6113 539.583,-1238.8942"/>
</g>
<!-- Ⓜ fast.js/array/some.js -->
<g id="node45" class="node">
<title>Ⓜ fast.js/array/some.js</title>
<ellipse fill="none" stroke="#0c821d" stroke-width="4" cx="821.8863" cy="-1095.3226" rx="128.651" ry="128.651"/>
<text text-anchor="middle" x="821.8863" y="-1094.1226" font-family="Fira Code" font-size="12.00" fill="#0c821d">Ⓜ fast.js/array/some.js</text>
</g>
<!-- which.js&#45;&gt;Ⓜ fast.js/array/some.js -->
<g id="edge85" class="edge">
<title>which.js&#45;&gt;Ⓜ fast.js/array/some.js</title>
<path fill="none" stroke="#242424" d="M556.2505,-1429.3177C597.5906,-1377.3391 674.6604,-1280.436 735.1797,-1204.3424"/>
<polygon fill="#242424" stroke="#242424" points="738.2414,-1206.1157 741.7268,-1196.1106 732.7628,-1201.7584 738.2414,-1206.1157"/>
</g>
<!-- length.js -->
<g id="node36" class="node">
<title>length.js</title>
<ellipse fill="none" stroke="#242424" stroke-width="4" cx="1162.8863" cy="-1466.2386" rx="51.7142" ry="51.7142"/>
<text text-anchor="middle" x="1162.8863" y="-1463.8386" font-family="Fira Code" font-size="12.00" fill="#242424">length.js</text>
</g>
<!-- length.js&#45;&gt;Ⓜ katsu&#45;curry/katsu&#45;curry.js -->
<g id="edge50" class="edge">
<title>length.js&#45;&gt;Ⓜ katsu&#45;curry/katsu&#45;curry.js</title>
<path fill="none" stroke="#242424" d="M1151.6361,-1415.7456C1130.365,-1323.6663 1080.5275,-1123.089 1015.8863,-961.7807 1001.1717,-925.0612 988.271,-920.0055 974.8863,-882.7807 965.7577,-857.3926 926.7356,-672.2115 923.8863,-645.383 911.7029,-530.6647 868.3857,-486.9509 923.8863,-385.8153 968.948,-303.7021 1056.6963,-246.4449 1134.8623,-209.3098"/>
<polygon fill="#242424" stroke="#242424" points="1136.7649,-212.2842 1144.3437,-204.8806 1133.8022,-205.942 1136.7649,-212.2842"/>
</g>
<!-- length.js&#45;&gt;object.js -->
<g id="edge51" class="edge">
<title>length.js&#45;&gt;object.js</title>
<path fill="none" stroke="#242424" d="M1177.8749,-1416.6001C1198.3411,-1348.821 1234.9851,-1227.4654 1256.9051,-1154.8719"/>
<polygon fill="#242424" stroke="#242424" points="1260.357,-1155.5478 1259.8971,-1144.9629 1253.6558,-1153.5243 1260.357,-1155.5478"/>
</g>
<!-- length.js&#45;&gt;path.js -->
<g id="edge52" class="edge">
<title>length.js&#45;&gt;path.js</title>
<path fill="none" stroke="#242424" d="M1162.8863,-1414.2737C1162.8863,-1343.772 1162.8863,-1218.5174 1162.8863,-1147.7679"/>
<polygon fill="#242424" stroke="#242424" points="1166.3864,-1147.7379 1162.8863,-1137.7379 1159.3864,-1147.7379 1166.3864,-1147.7379"/>
</g>
<!-- map&#45;performance.fixture.js -->
<g id="node37" class="node">
<title>map&#45;performance.fixture.js</title>
<ellipse fill="none" stroke="#242424" stroke-width="4" cx="3029.8863" cy="-515.5992" rx="129.5681" ry="129.5681"/>
<text text-anchor="middle" x="3029.8863" y="-513.1992" font-family="Fira Code" font-size="12.00" fill="#242424">map&#45;performance.fixture.js</text>
</g>
<!-- map&#45;performance.fixture.js&#45;&gt;Ⓜ entrust/entrust.js -->
<g id="edge53" class="edge">
<title>map&#45;performance.fixture.js&#45;&gt;Ⓜ entrust/entrust.js</title>
<path fill="none" stroke="#242424" d="M2922.5767,-442.4896C2893.7655,-423.5275 2862.4074,-403.4814 2832.8863,-385.8153 2769.5773,-347.9297 2743.436,-354.2019 2686.8863,-306.8153 2668.8571,-291.7075 2651.6693,-273.5735 2636.183,-255.149"/>
<polygon fill="#242424" stroke="#242424" points="2638.7196,-252.724 2629.6527,-247.243 2633.3226,-257.1819 2638.7196,-252.724"/>
</g>
<!-- Ⓜ fast.js/index.js -->
<g id="node38" class="node">
<title>Ⓜ fast.js/index.js</title>
<ellipse fill="none" stroke="#0c821d" stroke-width="4" cx="3259.8863" cy="-153.4077" rx="103.9872" ry="103.9872"/>
<text text-anchor="middle" x="3259.8863" y="-152.2077" font-family="Fira Code" font-size="12.00" fill="#0c821d">Ⓜ fast.js/index.js</text>
</g>
<!-- map&#45;performance.fixture.js&#45;&gt;Ⓜ fast.js/index.js -->
<g id="edge54" class="edge">
<title>map&#45;performance.fixture.js&#45;&gt;Ⓜ fast.js/index.js</title>
<path fill="none" stroke="#242424" d="M3099.5181,-405.9469C3131.1366,-356.1558 3168.2043,-297.7835 3198.7331,-249.7085"/>
<polygon fill="#242424" stroke="#242424" points="3201.7526,-251.4825 3204.1587,-241.1644 3195.8434,-247.7299 3201.7526,-251.4825"/>
</g>
<!-- Ⓜ ramda/src/curry.js -->
<g id="node39" class="node">
<title>Ⓜ ramda/src/curry.js</title>
<ellipse fill="none" stroke="#0c821d" stroke-width="4" cx="3494.8863" cy="-153.4077" rx="113.8526" ry="113.8526"/>
<text text-anchor="middle" x="3494.8863" y="-152.2077" font-family="Fira Code" font-size="12.00" fill="#0c821d">Ⓜ ramda/src/curry.js</text>
</g>
<!-- map&#45;performance.fixture.js&#45;&gt;Ⓜ ramda/src/curry.js -->
<g id="edge55" class="edge">
<title>map&#45;performance.fixture.js&#45;&gt;Ⓜ ramda/src/curry.js</title>
<path fill="none" stroke="#242424" d="M3146.374,-458.0884C3216.19,-420.4851 3304.4015,-367.2297 3372.8863,-306.8153 3390.5259,-291.2544 3407.5345,-272.9119 3422.9668,-254.4246"/>
<polygon fill="#242424" stroke="#242424" points="3425.8345,-256.4478 3429.4814,-246.5003 3420.4272,-252.0024 3425.8345,-256.4478"/>
</g>
<!-- Ⓜ ramda/src/map.js -->
<g id="node40" class="node">
<title>Ⓜ ramda/src/map.js</title>
<ellipse fill="none" stroke="#0c821d" stroke-width="4" cx="2799.8863" cy="-153.4077" rx="103.9872" ry="103.9872"/>
<text text-anchor="middle" x="2799.8863" y="-152.2077" font-family="Fira Code" font-size="12.00" fill="#0c821d">Ⓜ ramda/src/map.js</text>
</g>
<!-- map&#45;performance.fixture.js&#45;&gt;Ⓜ ramda/src/map.js -->
<g id="edge56" class="edge">
<title>map&#45;performance.fixture.js&#45;&gt;Ⓜ ramda/src/map.js</title>
<path fill="none" stroke="#242424" d="M2960.2546,-405.9469C2928.6361,-356.1558 2891.5683,-297.7835 2861.0396,-249.7085"/>
<polygon fill="#242424" stroke="#242424" points="2863.9293,-247.7299 2855.6139,-241.1644 2858.02,-251.4825 2863.9293,-247.7299"/>
</g>
<!-- Ⓜ testperf/index.js -->
<g id="node41" class="node">
<title>Ⓜ testperf/index.js</title>
<ellipse fill="none" stroke="#0c821d" stroke-width="4" cx="3029.8863" cy="-153.4077" rx="108.9199" ry="108.9199"/>
<text text-anchor="middle" x="3029.8863" y="-152.2077" font-family="Fira Code" font-size="12.00" fill="#0c821d">Ⓜ testperf/index.js</text>
</g>
<!-- map&#45;performance.fixture.js&#45;&gt;Ⓜ testperf/index.js -->
<g id="edge57" class="edge">
<title>map&#45;performance.fixture.js&#45;&gt;Ⓜ testperf/index.js</title>
<path fill="none" stroke="#242424" d="M3029.8863,-385.6071C3029.8863,-348.7009 3029.8863,-308.7106 3029.8863,-272.4856"/>
<polygon fill="#242424" stroke="#242424" points="3033.3864,-272.3739 3029.8863,-262.3739 3026.3864,-272.3739 3033.3864,-272.3739"/>
</g>
</g>
</svg>
