<?xml version="1.0" encoding="UTF-8" standalone="no"?>
<!DOCTYPE svg PUBLIC "-//W3C//DTD SVG 1.1//EN"
 "http://www.w3.org/Graphics/SVG/1.1/DTD/svg11.dtd">
<!-- Generated by graphviz version 2.40.1 (20161225.0304)
 -->
<!-- Title: G Pages: 1 -->
<svg width="3186pt" height="1676pt"
 viewBox="0.00 0.00 3185.59 1676.47" xmlns="http://www.w3.org/2000/svg" xmlns:xlink="http://www.w3.org/1999/xlink">
<g id="graph0" class="graph" transform="scale(1 1) rotate(0) translate(7.992 1668.4804)">
<title>G</title>
<polygon fill="#eeeeff" stroke="transparent" points="-7.992,7.992 -7.992,-1668.4804 3177.6005,-1668.4804 3177.6005,7.992 -7.992,7.992"/>
<!-- ../package.json -->
<g id="node1" class="node">
<title>../package.json</title>
<ellipse fill="none" stroke="#0c821d" stroke-width="4" cx="79.1988" cy="-1347.0416" rx="79.3981" ry="79.3981"/>
<text text-anchor="middle" x="79.1988" y="-1344.6416" font-family="Fira Code" font-size="12.00" fill="#0c821d">../package.json</text>
</g>
<!-- ap.js -->
<g id="node2" class="node">
<title>ap.js</title>
<ellipse fill="none" stroke="#242424" stroke-width="4" cx="323.1988" cy="-463.5015" rx="33.4262" ry="33.4262"/>
<text text-anchor="middle" x="323.1988" y="-461.1015" font-family="Fira Code" font-size="12.00" fill="#242424">ap.js</text>
</g>
<!-- ✪entrust/entrust.js -->
<g id="node3" class="node">
<title>✪entrust/entrust.js</title>
<ellipse fill="none" stroke="#0c821d" stroke-width="4" cx="323.1988" cy="-135.8316" rx="99.0849" ry="99.0849"/>
<text text-anchor="middle" x="323.1988" y="-133.4316" font-family="Fira Code" font-size="12.00" fill="#0c821d">✪entrust/entrust.js</text>
</g>
<!-- ap.js&#45;&gt;✪entrust/entrust.js -->
<g id="edge1" class="edge">
<title>ap.js&#45;&gt;✪entrust/entrust.js</title>
<path fill="none" stroke="#242424" d="M323.1988,-430.2795C323.1988,-387.1909 323.1988,-309.8986 323.1988,-245.3146"/>
<polygon fill="#242424" stroke="#242424" points="326.6989,-245.0655 323.1988,-235.0656 319.6989,-245.0656 326.6989,-245.0655"/>
</g>
<!-- array.js -->
<g id="node4" class="node">
<title>array.js</title>
<ellipse fill="none" stroke="#242424" stroke-width="4" cx="1344.1988" cy="-1010.1744" rx="47.0167" ry="47.0167"/>
<text text-anchor="middle" x="1344.1988" y="-1007.7744" font-family="Fira Code" font-size="12.00" fill="#242424">array.js</text>
</g>
<!-- array.js&#45;&gt;✪entrust/entrust.js -->
<g id="edge2" class="edge">
<title>array.js&#45;&gt;✪entrust/entrust.js</title>
<path fill="none" stroke="#242424" d="M1342.232,-963.0782C1335.8916,-816.0262 1315.2344,-373.7986 1295.1988,-350.6631 1183.091,-221.2103 662.05,-163.44 432.4003,-143.9475"/>
<polygon fill="#242424" stroke="#242424" points="432.6117,-140.453 422.3538,-143.1034 432.0256,-147.4284 432.6117,-140.453"/>
</g>
<!-- ✪katsu&#45;curry/katsu&#45;curry.js -->
<g id="node5" class="node">
<title>✪katsu&#45;curry/katsu&#45;curry.js</title>
<ellipse fill="none" stroke="#0c821d" stroke-width="4" cx="1942.1988" cy="-135.8316" rx="135.6633" ry="135.6633"/>
<text text-anchor="middle" x="1942.1988" y="-133.4316" font-family="Fira Code" font-size="12.00" fill="#0c821d">✪katsu&#45;curry/katsu&#45;curry.js</text>
</g>
<!-- array.js&#45;&gt;✪katsu&#45;curry/katsu&#45;curry.js -->
<g id="edge3" class="edge">
<title>array.js&#45;&gt;✪katsu&#45;curry/katsu&#45;curry.js</title>
<path fill="none" stroke="#242424" d="M1343.1689,-963.0383C1340.457,-820.3651 1335.5962,-399.913 1371.1988,-350.6631 1422.809,-279.2696 1648.4428,-209.9493 1800.1491,-170.1525"/>
<polygon fill="#242424" stroke="#242424" points="1801.2396,-173.4853 1810.0322,-167.5742 1799.4725,-166.712 1801.2396,-173.4853"/>
</g>
<!-- filter.js -->
<g id="node6" class="node">
<title>filter.js</title>
<ellipse fill="none" stroke="#242424" stroke-width="4" cx="1424.1988" cy="-734.5386" rx="51.7142" ry="51.7142"/>
<text text-anchor="middle" x="1424.1988" y="-732.1386" font-family="Fira Code" font-size="12.00" fill="#242424">filter.js</text>
</g>
<!-- array.js&#45;&gt;filter.js -->
<g id="edge4" class="edge">
<title>array.js&#45;&gt;filter.js</title>
<path fill="none" stroke="#242424" d="M1357.3196,-964.9674C1370.8538,-918.3359 1392.0293,-845.3768 1406.9197,-794.0729"/>
<polygon fill="#242424" stroke="#242424" points="1410.2905,-795.0154 1409.7167,-784.4361 1403.568,-793.0642 1410.2905,-795.0154"/>
</g>
<!-- delegate&#45;fast.js -->
<g id="node9" class="node">
<title>delegate&#45;fast.js</title>
<ellipse fill="none" stroke="#242424" stroke-width="4" cx="1202.1988" cy="-463.5015" rx="83.5954" ry="83.5954"/>
<text text-anchor="middle" x="1202.1988" y="-461.1015" font-family="Fira Code" font-size="12.00" fill="#242424">delegate&#45;fast.js</text>
</g>
<!-- filter.js&#45;&gt;delegate&#45;fast.js -->
<g id="edge12" class="edge">
<title>filter.js&#45;&gt;delegate&#45;fast.js</title>
<path fill="none" stroke="#242424" d="M1391.4419,-694.5461C1357.4394,-653.0329 1303.5065,-587.1868 1261.9004,-536.3904"/>
<polygon fill="#242424" stroke="#242424" points="1264.3779,-533.8916 1255.3337,-528.3731 1258.9625,-538.3271 1264.3779,-533.8916"/>
</g>
<!-- ✪fast.js/filter.js -->
<g id="node12" class="node">
<title>✪fast.js/filter.js</title>
<ellipse fill="none" stroke="#0c821d" stroke-width="4" cx="1474.1988" cy="-463.5015" rx="94.3876" ry="94.3876"/>
<text text-anchor="middle" x="1474.1988" y="-461.1015" font-family="Fira Code" font-size="12.00" fill="#0c821d">✪fast.js/filter.js</text>
</g>
<!-- filter.js&#45;&gt;✪fast.js/filter.js -->
<g id="edge11" class="edge">
<title>filter.js&#45;&gt;✪fast.js/filter.js</title>
<path fill="none" stroke="#242424" d="M1433.6034,-683.5586C1439.6797,-650.6205 1447.8026,-606.5887 1455.1853,-566.5687"/>
<polygon fill="#242424" stroke="#242424" points="1458.6724,-566.9587 1457.0447,-556.4897 1451.7885,-565.6888 1458.6724,-566.9587"/>
</g>
<!-- chain.js -->
<g id="node7" class="node">
<title>chain.js</title>
<ellipse fill="none" stroke="#242424" stroke-width="4" cx="849.1988" cy="-1347.0416" rx="47.0167" ry="47.0167"/>
<text text-anchor="middle" x="849.1988" y="-1344.6416" font-family="Fira Code" font-size="12.00" fill="#242424">chain.js</text>
</g>
<!-- ✪flatmap&#45;fast/index.js -->
<g id="node8" class="node">
<title>✪flatmap&#45;fast/index.js</title>
<ellipse fill="none" stroke="#0c821d" stroke-width="4" cx="849.1988" cy="-1010.1744" rx="112.6769" ry="112.6769"/>
<text text-anchor="middle" x="849.1988" y="-1007.7744" font-family="Fira Code" font-size="12.00" fill="#0c821d">✪flatmap&#45;fast/index.js</text>
</g>
<!-- chain.js&#45;&gt;✪flatmap&#45;fast/index.js -->
<g id="edge5" class="edge">
<title>chain.js&#45;&gt;✪flatmap&#45;fast/index.js</title>
<path fill="none" stroke="#242424" d="M849.1988,-1299.847C849.1988,-1256.8005 849.1988,-1191.2792 849.1988,-1133.4338"/>
<polygon fill="#242424" stroke="#242424" points="852.6989,-1133.1039 849.1988,-1123.1039 845.6989,-1133.104 852.6989,-1133.1039"/>
</g>
<!-- chain.js&#45;&gt;delegate&#45;fast.js -->
<g id="edge6" class="edge">
<title>chain.js&#45;&gt;delegate&#45;fast.js</title>
<path fill="none" stroke="#242424" d="M820.4808,-1309.5835C790.4386,-1267.8303 745.196,-1197.0177 727.1988,-1127.6114 700.9973,-1026.5648 682.7802,-987.204 727.1988,-892.7374 821.0036,-693.2394 953.5052,-732.4112 1109.1988,-576.3398 1121.1139,-564.3958 1133.11,-551.0489 1144.3422,-537.8322"/>
<polygon fill="#242424" stroke="#242424" points="1147.1057,-539.9841 1150.8609,-530.0771 1141.7472,-535.4799 1147.1057,-539.9841"/>
</g>
<!-- delegate&#45;fast.js&#45;&gt;✪entrust/entrust.js -->
<g id="edge8" class="edge">
<title>delegate&#45;fast.js&#45;&gt;✪entrust/entrust.js</title>
<path fill="none" stroke="#242424" d="M1155.6899,-393.3538C1142.3079,-377.4186 1126.5711,-361.9 1109.1988,-350.6631 895.0466,-212.1432 592.6876,-162.1787 432.5803,-144.7409"/>
<polygon fill="#242424" stroke="#242424" points="432.5572,-141.2187 422.2424,-143.6388 431.815,-148.1793 432.5572,-141.2187"/>
</g>
<!-- delegate&#45;fast.js&#45;&gt;✪katsu&#45;curry/katsu&#45;curry.js -->
<g id="edge9" class="edge">
<title>delegate&#45;fast.js&#45;&gt;✪katsu&#45;curry/katsu&#45;curry.js</title>
<path fill="none" stroke="#242424" d="M1262.7849,-405.4719C1285.2114,-386.1622 1311.6644,-365.7557 1338.1988,-350.6631 1486.5811,-266.2643 1673.9758,-205.8814 1800.3713,-171.0329"/>
<polygon fill="#242424" stroke="#242424" points="1801.404,-174.379 1810.1239,-168.3613 1799.5545,-167.6278 1801.404,-174.379"/>
</g>
<!-- choice.js -->
<g id="node10" class="node">
<title>choice.js</title>
<ellipse fill="none" stroke="#242424" stroke-width="4" cx="2172.1988" cy="-734.5386" rx="51.7142" ry="51.7142"/>
<text text-anchor="middle" x="2172.1988" y="-732.1386" font-family="Fira Code" font-size="12.00" fill="#242424">choice.js</text>
</g>
<!-- choice.js&#45;&gt;✪katsu&#45;curry/katsu&#45;curry.js -->
<g id="edge7" class="edge">
<title>choice.js&#45;&gt;✪katsu&#45;curry/katsu&#45;curry.js</title>
<path fill="none" stroke="#242424" d="M2164.7667,-683.1866C2150.4502,-585.6773 2119.3063,-380.7271 2106.1988,-350.6631 2089.8618,-313.1918 2065.6518,-276.3451 2040.819,-244.0371"/>
<polygon fill="#242424" stroke="#242424" points="2043.404,-241.6601 2034.4966,-235.9233 2037.8824,-245.9626 2043.404,-241.6601"/>
</g>
<!-- either.js -->
<g id="node11" class="node">
<title>either.js</title>
<ellipse fill="none" stroke="#242424" stroke-width="4" cx="123.1988" cy="-734.5386" rx="51.7142" ry="51.7142"/>
<text text-anchor="middle" x="123.1988" y="-732.1386" font-family="Fira Code" font-size="12.00" fill="#242424">either.js</text>
</g>
<!-- either.js&#45;&gt;✪entrust/entrust.js -->
<g id="edge10" class="edge">
<title>either.js&#45;&gt;✪entrust/entrust.js</title>
<path fill="none" stroke="#242424" d="M111.4037,-684.1884C96.2117,-608.6711 76.6949,-462.9619 121.1988,-350.6631 144.5078,-291.8464 192.3853,-239.7526 235.6794,-201.5972"/>
<polygon fill="#242424" stroke="#242424" points="238.1642,-204.0751 243.4219,-194.8768 233.5756,-198.7887 238.1642,-204.0751"/>
</g>
<!-- flip.js -->
<g id="node13" class="node">
<title>flip.js</title>
<ellipse fill="none" stroke="#242424" stroke-width="4" cx="3127.1988" cy="-1010.1744" rx="42.3196" ry="42.3196"/>
<text text-anchor="middle" x="3127.1988" y="-1007.7744" font-family="Fira Code" font-size="12.00" fill="#242424">flip.js</text>
</g>
<!-- flip.js&#45;&gt;✪katsu&#45;curry/katsu&#45;curry.js -->
<g id="edge13" class="edge">
<title>flip.js&#45;&gt;✪katsu&#45;curry/katsu&#45;curry.js</title>
<path fill="none" stroke="#242424" d="M3121.0228,-968.1314C3101.4844,-850.8263 3029.853,-517.638 2827.1988,-350.6631 2715.059,-258.2666 2307.7455,-187.8045 2086.9153,-155.4088"/>
<polygon fill="#242424" stroke="#242424" points="2087.2678,-151.9233 2076.8671,-153.9422 2086.2567,-158.8499 2087.2678,-151.9233"/>
</g>
<!-- future.js -->
<g id="node14" class="node">
<title>future.js</title>
<ellipse fill="none" stroke="#242424" stroke-width="4" cx="182.1988" cy="-463.5015" rx="51.7142" ry="51.7142"/>
<text text-anchor="middle" x="182.1988" y="-461.1015" font-family="Fira Code" font-size="12.00" fill="#242424">future.js</text>
</g>
<!-- future.js&#45;&gt;✪entrust/entrust.js -->
<g id="edge14" class="edge">
<title>future.js&#45;&gt;✪entrust/entrust.js</title>
<path fill="none" stroke="#242424" d="M202.7014,-415.8554C222.8565,-369.017 254.244,-296.0757 279.9317,-236.3799"/>
<polygon fill="#242424" stroke="#242424" points="283.2652,-237.488 284.0029,-226.9188 276.8352,-234.721 283.2652,-237.488"/>
</g>
<!-- index.js -->
<g id="node15" class="node">
<title>index.js</title>
<ellipse fill="none" stroke="#242424" stroke-width="4" cx="1708.1988" cy="-1613.4801" rx="47.0167" ry="47.0167"/>
<text text-anchor="middle" x="1708.1988" y="-1611.0801" font-family="Fira Code" font-size="12.00" fill="#242424">index.js</text>
</g>
<!-- index.js&#45;&gt;../package.json -->
<g id="edge17" class="edge">
<title>index.js&#45;&gt;../package.json</title>
<path fill="none" stroke="#242424" d="M1661.0042,-1612.0474C1416.8475,-1604.3132 303.3439,-1564.9926 172.1988,-1487.4718 148.8731,-1473.6838 130.2489,-1451.4786 115.9787,-1428.7561"/>
<polygon fill="#242424" stroke="#242424" points="118.8832,-1426.7948 110.722,-1420.0386 112.8887,-1430.4096 118.8832,-1426.7948"/>
</g>
<!-- index.js&#45;&gt;ap.js -->
<g id="edge18" class="edge">
<title>index.js&#45;&gt;ap.js</title>
<path fill="none" stroke="#242424" d="M1661.2331,-1610.9284C1465.3462,-1599.8888 719.8952,-1553.7869 640.1988,-1487.4718 481.5339,-1355.4471 359.8182,-683.3599 330.1535,-506.3016"/>
<polygon fill="#242424" stroke="#242424" points="333.5861,-505.607 328.4907,-496.3179 326.6812,-506.7571 333.5861,-505.607"/>
</g>
<!-- index.js&#45;&gt;array.js -->
<g id="edge19" class="edge">
<title>index.js&#45;&gt;array.js</title>
<path fill="none" stroke="#242424" d="M1661.0573,-1610.2291C1537.9175,-1600.6596 1211.6768,-1568.039 1147.1988,-1487.4718 1108.2005,-1438.7423 1123.273,-1264.2568 1147.1988,-1206.6114 1177.1538,-1134.4399 1247.9278,-1075.0339 1295.9637,-1041.0833"/>
<polygon fill="#242424" stroke="#242424" points="1298.1453,-1043.8293 1304.3564,-1035.2461 1294.1484,-1038.0826 1298.1453,-1043.8293"/>
</g>
<!-- index.js&#45;&gt;✪katsu&#45;curry/katsu&#45;curry.js -->
<g id="edge15" class="edge">
<title>index.js&#45;&gt;✪katsu&#45;curry/katsu&#45;curry.js</title>
<path fill="none" stroke="#242424" d="M1754.2659,-1603.6019C1841.006,-1584.0026 2023.2788,-1537.7282 2061.1988,-1487.4718 2125.2183,-1402.625 2092.1988,-1116.464 2092.1988,-1010.1744 2092.1988,-1010.1744 2092.1988,-1010.1744 2092.1988,-734.5386 2092.1988,-563.7184 2123.4376,-513.9285 2073.1988,-350.6631 2062.9671,-317.4121 2046.4236,-284.0585 2028.4856,-253.8841"/>
<polygon fill="#242424" stroke="#242424" points="2031.3086,-251.7886 2023.1375,-245.0445 2025.3194,-255.4122 2031.3086,-251.7886"/>
</g>
<!-- index.js&#45;&gt;filter.js -->
<g id="edge23" class="edge">
<title>index.js&#45;&gt;filter.js</title>
<path fill="none" stroke="#242424" d="M1662.6407,-1601.2964C1610.7716,-1584.8091 1528.0791,-1550.0039 1488.1988,-1487.4718 1451.3873,-1429.7515 1432.0567,-965.5819 1426.1736,-796.1542"/>
<polygon fill="#242424" stroke="#242424" points="1429.6711,-796.0196 1425.8298,-786.1457 1422.6752,-796.26 1429.6711,-796.0196"/>
</g>
<!-- index.js&#45;&gt;chain.js -->
<g id="edge20" class="edge">
<title>index.js&#45;&gt;chain.js</title>
<path fill="none" stroke="#242424" d="M1661.2757,-1607.784C1526.7778,-1590.9906 1142.1915,-1539.5794 1027.1988,-1487.4718 974.2009,-1463.4564 923.0591,-1420.3532 889.3003,-1388.2128"/>
<polygon fill="#242424" stroke="#242424" points="891.574,-1385.5431 881.9458,-1381.1216 886.7152,-1390.5823 891.574,-1385.5431"/>
</g>
<!-- index.js&#45;&gt;choice.js -->
<g id="edge21" class="edge">
<title>index.js&#45;&gt;choice.js</title>
<path fill="none" stroke="#242424" d="M1755.3233,-1609.453C1872.8418,-1598.3367 2173.7154,-1562.9215 2233.1988,-1487.4718 2275.644,-1433.6336 2208.052,-965.4058 2181.8632,-795.6631"/>
<polygon fill="#242424" stroke="#242424" points="2185.3003,-794.9868 2180.3114,-785.6401 2178.3827,-796.0579 2185.3003,-794.9868"/>
</g>
<!-- index.js&#45;&gt;either.js -->
<g id="edge22" class="edge">
<title>index.js&#45;&gt;either.js</title>
<path fill="none" stroke="#242424" d="M1660.998,-1612.989C1418.1661,-1610.0101 316.8384,-1590.8436 210.1988,-1487.4718 197.759,-1475.4131 146.8802,-973.35 129.2484,-795.8901"/>
<polygon fill="#242424" stroke="#242424" points="132.7303,-795.5335 128.2596,-785.9281 125.7645,-796.2249 132.7303,-795.5335"/>
</g>
<!-- index.js&#45;&gt;flip.js -->
<g id="edge24" class="edge">
<title>index.js&#45;&gt;flip.js</title>
<path fill="none" stroke="#242424" d="M1755.2487,-1612.8011C1939.8823,-1609.4194 2613.6917,-1590.1427 2796.1988,-1487.4718 2968.8223,-1390.361 3071.4044,-1161.2989 3109.8059,-1059.9281"/>
<polygon fill="#242424" stroke="#242424" points="3113.0977,-1061.1179 3113.322,-1050.5254 3106.5411,-1058.666 3113.0977,-1061.1179"/>
</g>
<!-- index.js&#45;&gt;future.js -->
<g id="edge25" class="edge">
<title>index.js&#45;&gt;future.js</title>
<path fill="none" stroke="#242424" d="M1661.0135,-1612.5196C1431.3482,-1607.4025 437.4968,-1580.0091 339.1988,-1487.4718 198.8196,-1355.3193 183.4546,-726.3185 182.168,-525.3699"/>
<polygon fill="#242424" stroke="#242424" points="185.6676,-525.2621 182.1131,-515.2813 178.6677,-525.3003 185.6676,-525.2621"/>
</g>
<!-- ✪katsu&#45;curry/utils/length.js -->
<g id="node16" class="node">
<title>✪katsu&#45;curry/utils/length.js</title>
<ellipse fill="none" stroke="#0c821d" stroke-width="4" cx="1296.1988" cy="-1347.0416" rx="140.3604" ry="140.3604"/>
<text text-anchor="middle" x="1296.1988" y="-1344.6416" font-family="Fira Code" font-size="12.00" fill="#0c821d">✪katsu&#45;curry/utils/length.js</text>
</g>
<!-- index.js&#45;&gt;✪katsu&#45;curry/utils/length.js -->
<g id="edge16" class="edge">
<title>index.js&#45;&gt;✪katsu&#45;curry/utils/length.js</title>
<path fill="none" stroke="#242424" d="M1664.1428,-1596.4978C1611.0645,-1575.0386 1520.2908,-1535.0994 1450.1988,-1487.4718 1434.6528,-1476.9082 1419.075,-1464.8497 1404.1185,-1452.3378"/>
<polygon fill="#242424" stroke="#242424" points="1406.2487,-1449.5552 1396.3573,-1445.759 1401.7225,-1454.895 1406.2487,-1449.5552"/>
</g>
<!-- invert.js -->
<g id="node17" class="node">
<title>invert.js</title>
<ellipse fill="none" stroke="#242424" stroke-width="4" cx="2210.1988" cy="-463.5015" rx="51.7142" ry="51.7142"/>
<text text-anchor="middle" x="2210.1988" y="-461.1015" font-family="Fira Code" font-size="12.00" fill="#242424">invert.js</text>
</g>
<!-- index.js&#45;&gt;invert.js -->
<g id="edge26" class="edge">
<title>index.js&#45;&gt;invert.js</title>
<path fill="none" stroke="#242424" d="M1755.3233,-1609.8971C1875.9806,-1599.6479 2190.9428,-1565.7642 2253.1988,-1487.4718 2280.576,-1453.0426 2255.7775,-944.9935 2233.1988,-655.3398 2229.7914,-611.627 2223.8674,-562.5402 2218.885,-524.9633"/>
<polygon fill="#242424" stroke="#242424" points="2222.3048,-524.1304 2217.5076,-514.6839 2215.3668,-525.0601 2222.3048,-524.1304"/>
</g>
<!-- iterate.js -->
<g id="node18" class="node">
<title>iterate.js</title>
<ellipse fill="none" stroke="#242424" stroke-width="4" cx="1794.1988" cy="-734.5386" rx="56.412" ry="56.412"/>
<text text-anchor="middle" x="1794.1988" y="-732.1386" font-family="Fira Code" font-size="12.00" fill="#242424">iterate.js</text>
</g>
<!-- index.js&#45;&gt;iterate.js -->
<g id="edge27" class="edge">
<title>index.js&#45;&gt;iterate.js</title>
<path fill="none" stroke="#242424" d="M1723.5171,-1568.8841C1731.4542,-1544.917 1740.9705,-1514.762 1748.1988,-1487.4718 1780.8805,-1364.0831 1765.6817,-1326.9657 1808.1988,-1206.6114 1821.3078,-1169.5035 1839.0601,-1165.891 1848.1988,-1127.6114 1872.4388,-1026.0764 1865.2904,-995.7172 1848.1988,-892.7374 1842.7344,-859.8136 1831.2824,-824.5457 1820.3249,-795.6836"/>
<polygon fill="#242424" stroke="#242424" points="1823.5103,-794.2168 1816.6373,-786.1538 1816.982,-796.743 1823.5103,-794.2168"/>
</g>
<!-- map.js -->
<g id="node19" class="node">
<title>map.js</title>
<ellipse fill="none" stroke="#242424" stroke-width="4" cx="642.1988" cy="-734.5386" rx="37.623" ry="37.623"/>
<text text-anchor="middle" x="642.1988" y="-732.1386" font-family="Fira Code" font-size="12.00" fill="#242424">map.js</text>
</g>
<!-- index.js&#45;&gt;map.js -->
<g id="edge28" class="edge">
<title>index.js&#45;&gt;map.js</title>
<path fill="none" stroke="#242424" d="M1661.1212,-1610.0273C1483.2856,-1596.5797 859.1514,-1545.5714 793.1988,-1487.4718 583.8194,-1303.023 615.8727,-916.8996 634.5363,-782.1556"/>
<polygon fill="#242424" stroke="#242424" points="638.0171,-782.5382 635.9632,-772.1444 631.0871,-781.5504 638.0171,-782.5382"/>
</g>
<!-- math.js -->
<g id="node20" class="node">
<title>math.js</title>
<ellipse fill="none" stroke="#242424" stroke-width="4" cx="2360.1988" cy="-734.5386" rx="42.3196" ry="42.3196"/>
<text text-anchor="middle" x="2360.1988" y="-732.1386" font-family="Fira Code" font-size="12.00" fill="#242424">math.js</text>
</g>
<!-- index.js&#45;&gt;math.js -->
<g id="edge29" class="edge">
<title>index.js&#45;&gt;math.js</title>
<path fill="none" stroke="#242424" d="M1755.3145,-1611.4187C1889.9142,-1604.4757 2271.5214,-1577.1033 2350.1988,-1487.4718 2441.1413,-1383.8674 2389.0262,-939.9408 2367.8433,-786.755"/>
<polygon fill="#242424" stroke="#242424" points="2371.2836,-786.0837 2366.4343,-776.6639 2364.3509,-787.0518 2371.2836,-786.0837"/>
</g>
<!-- object.js -->
<g id="node21" class="node">
<title>object.js</title>
<ellipse fill="none" stroke="#242424" stroke-width="4" cx="1031.1988" cy="-1010.1744" rx="51.7142" ry="51.7142"/>
<text text-anchor="middle" x="1031.1988" y="-1007.7744" font-family="Fira Code" font-size="12.00" fill="#242424">object.js</text>
</g>
<!-- index.js&#45;&gt;object.js -->
<g id="edge30" class="edge">
<title>index.js&#45;&gt;object.js</title>
<path fill="none" stroke="#242424" d="M1660.9888,-1611.1312C1527.9756,-1603.4732 1154.7021,-1574.4901 1076.1988,-1487.4718 971.9002,-1371.8602 996.006,-1170.3344 1016.5468,-1070.1984"/>
<polygon fill="#242424" stroke="#242424" points="1020.0064,-1070.7547 1018.6452,-1060.2477 1013.1571,-1069.3103 1020.0064,-1070.7547"/>
</g>
<!-- path.js -->
<g id="node22" class="node">
<title>path.js</title>
<ellipse fill="none" stroke="#242424" stroke-width="4" cx="2322.1988" cy="-1010.1744" rx="42.3196" ry="42.3196"/>
<text text-anchor="middle" x="2322.1988" y="-1007.7744" font-family="Fira Code" font-size="12.00" fill="#242424">path.js</text>
</g>
<!-- index.js&#45;&gt;path.js -->
<g id="edge31" class="edge">
<title>index.js&#45;&gt;path.js</title>
<path fill="none" stroke="#242424" d="M1755.2647,-1610.7541C1883.3323,-1602.2755 2233.2505,-1571.693 2304.1988,-1487.4718 2407.2673,-1365.1214 2365.2127,-1156.1123 2338.2311,-1060.5423"/>
<polygon fill="#242424" stroke="#242424" points="2341.5644,-1059.4693 2335.4303,-1050.8309 2334.8386,-1061.4092 2341.5644,-1059.4693"/>
</g>
<!-- random&#45;floor.js -->
<g id="node23" class="node">
<title>random&#45;floor.js</title>
<ellipse fill="none" stroke="#242424" stroke-width="4" cx="1947.1988" cy="-734.5386" rx="79.3981" ry="79.3981"/>
<text text-anchor="middle" x="1947.1988" y="-732.1386" font-family="Fira Code" font-size="12.00" fill="#242424">random&#45;floor.js</text>
</g>
<!-- index.js&#45;&gt;random&#45;floor.js -->
<g id="edge32" class="edge">
<title>index.js&#45;&gt;random&#45;floor.js</title>
<path fill="none" stroke="#242424" d="M1738.3365,-1577.1913C1756.7178,-1553.1761 1779.1196,-1520.1849 1792.1988,-1487.4718 1839.24,-1369.8149 1809.0314,-1329.1727 1841.1988,-1206.6114 1850.6555,-1170.5805 1859.3254,-1163.5304 1869.1988,-1127.6114 1897.5812,-1024.3575 1920.0304,-903.1731 1933.4211,-822.9442"/>
<polygon fill="#242424" stroke="#242424" points="1936.907,-823.3172 1935.0893,-812.8794 1930.0012,-822.1725 1936.907,-823.3172"/>
</g>
<!-- random&#45;shuffle.js -->
<g id="node24" class="node">
<title>random&#45;shuffle.js</title>
<ellipse fill="none" stroke="#0c821d" stroke-width="4" cx="1938.1988" cy="-1347.0416" rx="88.2923" ry="88.2923"/>
<text text-anchor="middle" x="1938.1988" y="-1344.6416" font-family="Fira Code" font-size="12.00" fill="#0c821d">random&#45;shuffle.js</text>
</g>
<!-- index.js&#45;&gt;random&#45;shuffle.js -->
<g id="edge33" class="edge">
<title>index.js&#45;&gt;random&#45;shuffle.js</title>
<path fill="none" stroke="#242424" d="M1743.163,-1582.0263C1769.8104,-1557.3676 1806.8028,-1521.6227 1836.1988,-1487.4718 1852.094,-1469.0055 1868.1241,-1448.1945 1882.618,-1428.3623"/>
<polygon fill="#242424" stroke="#242424" points="1885.4787,-1430.3793 1888.517,-1420.2295 1879.8123,-1426.2693 1885.4787,-1430.3793"/>
</g>
<!-- random&#45;take.js -->
<g id="node25" class="node">
<title>random&#45;take.js</title>
<ellipse fill="none" stroke="#242424" stroke-width="4" cx="1764.1988" cy="-1010.1744" rx="74.7005" ry="74.7005"/>
<text text-anchor="middle" x="1764.1988" y="-1007.7744" font-family="Fira Code" font-size="12.00" fill="#242424">random&#45;take.js</text>
</g>
<!-- index.js&#45;&gt;random&#45;take.js -->
<g id="edge34" class="edge">
<title>index.js&#45;&gt;random&#45;take.js</title>
<path fill="none" stroke="#242424" d="M1713.673,-1566.5335C1716.37,-1542.8409 1719.5936,-1513.6457 1722.1988,-1487.4718 1735.872,-1350.1036 1749.4676,-1190.258 1757.3402,-1094.8039"/>
<polygon fill="#242424" stroke="#242424" points="1760.8454,-1094.8838 1758.1778,-1084.6303 1753.869,-1094.3094 1760.8454,-1094.8838"/>
</g>
<!-- random&#45;word.js -->
<g id="node26" class="node">
<title>random&#45;word.js</title>
<ellipse fill="none" stroke="#242424" stroke-width="4" cx="1605.1988" cy="-1347.0416" rx="74.7005" ry="74.7005"/>
<text text-anchor="middle" x="1605.1988" y="-1344.6416" font-family="Fira Code" font-size="12.00" fill="#242424">random&#45;word.js</text>
</g>
<!-- index.js&#45;&gt;random&#45;word.js -->
<g id="edge35" class="edge">
<title>index.js&#45;&gt;random&#45;word.js</title>
<path fill="none" stroke="#242424" d="M1691.1905,-1569.4832C1676.1694,-1530.627 1653.9032,-1473.0291 1635.792,-1426.1794"/>
<polygon fill="#242424" stroke="#242424" points="1638.982,-1424.7244 1632.1116,-1416.6591 1632.4529,-1427.2485 1638.982,-1424.7244"/>
</g>
<!-- random.js -->
<g id="node27" class="node">
<title>random.js</title>
<ellipse fill="none" stroke="#0c821d" stroke-width="4" cx="2172.1988" cy="-1347.0416" rx="51.7142" ry="51.7142"/>
<text text-anchor="middle" x="2172.1988" y="-1344.6416" font-family="Fira Code" font-size="12.00" fill="#0c821d">random.js</text>
</g>
<!-- index.js&#45;&gt;random.js -->
<g id="edge36" class="edge">
<title>index.js&#45;&gt;random.js</title>
<path fill="none" stroke="#242424" d="M1755.1768,-1610.5868C1836.2012,-1603.2445 2003.3999,-1577.4578 2106.1988,-1487.4718 2130.2236,-1466.4414 2146.1497,-1434.7822 2156.3263,-1406.8443"/>
<polygon fill="#242424" stroke="#242424" points="2159.7216,-1407.7358 2159.69,-1397.141 2153.1077,-1405.443 2159.7216,-1407.7358"/>
</g>
<!-- reduce.js -->
<g id="node28" class="node">
<title>reduce.js</title>
<ellipse fill="none" stroke="#242424" stroke-width="4" cx="1111.1988" cy="-734.5386" rx="51.7142" ry="51.7142"/>
<text text-anchor="middle" x="1111.1988" y="-732.1386" font-family="Fira Code" font-size="12.00" fill="#242424">reduce.js</text>
</g>
<!-- index.js&#45;&gt;reduce.js -->
<g id="edge37" class="edge">
<title>index.js&#45;&gt;reduce.js</title>
<path fill="none" stroke="#242424" d="M1661.1026,-1610.7317C1533.8434,-1602.2313 1188.0322,-1571.6699 1119.1988,-1487.4718 1075.9966,-1434.6262 1097.9628,-966.8447 1107.5178,-796.3555"/>
<polygon fill="#242424" stroke="#242424" points="1111.017,-796.467 1108.0872,-786.2853 1104.0281,-796.0717 1111.017,-796.467"/>
</g>
<!-- reject.js -->
<g id="node29" class="node">
<title>reject.js</title>
<ellipse fill="none" stroke="#242424" stroke-width="4" cx="1620.1988" cy="-1010.1744" rx="51.7142" ry="51.7142"/>
<text text-anchor="middle" x="1620.1988" y="-1007.7744" font-family="Fira Code" font-size="12.00" fill="#242424">reject.js</text>
</g>
<!-- index.js&#45;&gt;reject.js -->
<g id="edge38" class="edge">
<title>index.js&#45;&gt;reject.js</title>
<path fill="none" stroke="#242424" d="M1710.4029,-1566.2736C1712.9877,-1489.8997 1714.1581,-1334.849 1689.1988,-1206.6114 1679.7769,-1158.2026 1660.7988,-1105.5966 1645.127,-1067.0176"/>
<polygon fill="#242424" stroke="#242424" points="1648.2625,-1065.4396 1641.2216,-1057.5227 1641.7887,-1068.1023 1648.2625,-1065.4396"/>
</g>
<!-- string.js -->
<g id="node30" class="node">
<title>string.js</title>
<ellipse fill="none" stroke="#242424" stroke-width="4" cx="400.1988" cy="-1347.0416" rx="51.7142" ry="51.7142"/>
<text text-anchor="middle" x="400.1988" y="-1344.6416" font-family="Fira Code" font-size="12.00" fill="#242424">string.js</text>
</g>
<!-- index.js&#45;&gt;string.js -->
<g id="edge39" class="edge">
<title>index.js&#45;&gt;string.js</title>
<path fill="none" stroke="#242424" d="M1661.0059,-1610.6316C1452.1383,-1597.7391 616.6887,-1543.0672 514.1988,-1487.4718 478.2451,-1467.9688 449.3657,-1431.9574 429.6694,-1401.2856"/>
<polygon fill="#242424" stroke="#242424" points="432.6291,-1399.4172 424.3594,-1392.7944 426.6941,-1403.1288 432.6291,-1399.4172"/>
</g>
<!-- ternary.js -->
<g id="node31" class="node">
<title>ternary.js</title>
<ellipse fill="none" stroke="#242424" stroke-width="4" cx="1550.1988" cy="-734.5386" rx="56.412" ry="56.412"/>
<text text-anchor="middle" x="1550.1988" y="-732.1386" font-family="Fira Code" font-size="12.00" fill="#242424">ternary.js</text>
</g>
<!-- index.js&#45;&gt;ternary.js -->
<g id="edge40" class="edge">
<title>index.js&#45;&gt;ternary.js</title>
<path fill="none" stroke="#242424" d="M1663.5423,-1597.8071C1618.3716,-1579.2689 1551.0774,-1543.6342 1521.1988,-1487.4718 1458.5235,-1369.6619 1514.166,-961.4144 1539.3458,-800.4862"/>
<polygon fill="#242424" stroke="#242424" points="1542.8595,-800.6724 1540.9587,-790.2495 1535.9448,-799.5828 1542.8595,-800.6724"/>
</g>
<!-- triplet.js -->
<g id="node32" class="node">
<title>triplet.js</title>
<ellipse fill="none" stroke="#242424" stroke-width="4" cx="2476.1988" cy="-1010.1744" rx="56.412" ry="56.412"/>
<text text-anchor="middle" x="2476.1988" y="-1007.7744" font-family="Fira Code" font-size="12.00" fill="#242424">triplet.js</text>
</g>
<!-- index.js&#45;&gt;triplet.js -->
<g id="edge41" class="edge">
<title>index.js&#45;&gt;triplet.js</title>
<path fill="none" stroke="#242424" d="M1755.4274,-1611.8854C1897.3051,-1606.0745 2315.5434,-1581.1677 2406.1988,-1487.4718 2513.4222,-1376.6522 2502.6212,-1178.3474 2488.1022,-1075.7222"/>
<polygon fill="#242424" stroke="#242424" points="2491.5602,-1075.18 2486.6436,-1065.7951 2484.6345,-1076.1977 2491.5602,-1075.18"/>
</g>
<!-- types.js -->
<g id="node33" class="node">
<title>types.js</title>
<ellipse fill="none" stroke="#242424" stroke-width="4" cx="2017.1988" cy="-463.5015" rx="47.0167" ry="47.0167"/>
<text text-anchor="middle" x="2017.1988" y="-461.1015" font-family="Fira Code" font-size="12.00" fill="#242424">types.js</text>
</g>
<!-- index.js&#45;&gt;types.js -->
<g id="edge42" class="edge">
<title>index.js&#45;&gt;types.js</title>
<path fill="none" stroke="#242424" d="M1754.0562,-1602.5803C1836.0418,-1582.0636 2002.2773,-1535.4393 2035.1988,-1487.4718 2087.519,-1411.24 2039.5222,-747.6978 2035.1988,-655.3398 2033.0756,-609.9829 2028.1434,-558.7913 2023.978,-520.7041"/>
<polygon fill="#242424" stroke="#242424" points="2027.4078,-519.8778 2022.8264,-510.3248 2020.4505,-520.6498 2027.4078,-519.8778"/>
</g>
<!-- which.js -->
<g id="node34" class="node">
<title>which.js</title>
<ellipse fill="none" stroke="#242424" stroke-width="4" cx="2740.1988" cy="-1347.0416" rx="47.0167" ry="47.0167"/>
<text text-anchor="middle" x="2740.1988" y="-1344.6416" font-family="Fira Code" font-size="12.00" fill="#242424">which.js</text>
</g>
<!-- index.js&#45;&gt;which.js -->
<g id="edge43" class="edge">
<title>index.js&#45;&gt;which.js</title>
<path fill="none" stroke="#242424" d="M1755.1736,-1610.7492C1876.1126,-1602.6458 2206.9384,-1573.6639 2467.1988,-1487.4718 2549.9436,-1460.0687 2638.38,-1410.368 2691.4682,-1378.0414"/>
<polygon fill="#242424" stroke="#242424" points="2693.6244,-1380.8248 2700.319,-1372.6131 2689.9647,-1374.8577 2693.6244,-1380.8248"/>
</g>
<!-- invert.js&#45;&gt;✪katsu&#45;curry/katsu&#45;curry.js -->
<g id="edge44" class="edge">
<title>invert.js&#45;&gt;✪katsu&#45;curry/katsu&#45;curry.js</title>
<path fill="none" stroke="#242424" d="M2186.4104,-417.5409C2174.7314,-396.4605 2159.8256,-371.5669 2144.1988,-350.6631 2115.0806,-311.712 2079.7585,-272.0875 2046.8459,-237.6526"/>
<polygon fill="#242424" stroke="#242424" points="2049.315,-235.1707 2039.8624,-230.3854 2044.2677,-240.021 2049.315,-235.1707"/>
</g>
<!-- iterate.js&#45;&gt;✪katsu&#45;curry/katsu&#45;curry.js -->
<g id="edge45" class="edge">
<title>iterate.js&#45;&gt;✪katsu&#45;curry/katsu&#45;curry.js</title>
<path fill="none" stroke="#242424" d="M1807.7252,-679.8202C1830.0496,-589.5107 1875.2995,-406.4604 1907.1233,-277.7231"/>
<polygon fill="#242424" stroke="#242424" points="1910.5805,-278.3224 1909.5826,-267.7747 1903.785,-276.6425 1910.5805,-278.3224"/>
</g>
<!-- map.js&#45;&gt;✪entrust/entrust.js -->
<g id="edge46" class="edge">
<title>map.js&#45;&gt;✪entrust/entrust.js</title>
<path fill="none" stroke="#242424" d="M613.3408,-709.7476C593.8321,-693.4796 567.1702,-672.1801 542.1988,-655.3398 483.2855,-615.6095 443.929,-634.5664 403.1988,-576.3398 344.8978,-492.9944 383.4026,-450.7336 365.1988,-350.6631 358.8226,-315.6118 351.4841,-277.423 344.7432,-243.0949"/>
<polygon fill="#242424" stroke="#242424" points="348.1312,-242.1846 342.7659,-233.0487 341.263,-243.5364 348.1312,-242.1846"/>
</g>
<!-- map.js&#45;&gt;✪katsu&#45;curry/katsu&#45;curry.js -->
<g id="edge49" class="edge">
<title>map.js&#45;&gt;✪katsu&#45;curry/katsu&#45;curry.js</title>
<path fill="none" stroke="#242424" d="M643.8947,-696.5358C648.3562,-604.532 661.7226,-375.5351 685.1988,-350.6631 834.8478,-192.1168 1498.2299,-150.3672 1796.3018,-139.5425"/>
<polygon fill="#242424" stroke="#242424" points="1796.4468,-143.0397 1806.3157,-139.1855 1796.1973,-136.0441 1796.4468,-143.0397"/>
</g>
<!-- ✪fantasy&#45;land/index.js -->
<g id="node35" class="node">
<title>✪fantasy&#45;land/index.js</title>
<ellipse fill="none" stroke="#0c821d" stroke-width="4" cx="525.1988" cy="-463.5015" rx="112.6769" ry="112.6769"/>
<text text-anchor="middle" x="525.1988" y="-461.1015" font-family="Fira Code" font-size="12.00" fill="#0c821d">✪fantasy&#45;land/index.js</text>
</g>
<!-- map.js&#45;&gt;✪fantasy&#45;land/index.js -->
<g id="edge47" class="edge">
<title>map.js&#45;&gt;✪fantasy&#45;land/index.js</title>
<path fill="none" stroke="#242424" d="M627.1426,-699.6601C613.6596,-668.4258 593.1229,-620.8514 574.0065,-576.5672"/>
<polygon fill="#242424" stroke="#242424" points="577.1286,-574.9684 569.9519,-567.1745 570.7018,-577.7428 577.1286,-574.9684"/>
</g>
<!-- ✪fast.js/map.js -->
<g id="node36" class="node">
<title>✪fast.js/map.js</title>
<ellipse fill="none" stroke="#0c821d" stroke-width="4" cx="775.1988" cy="-463.5015" rx="80.796" ry="80.796"/>
<text text-anchor="middle" x="775.1988" y="-461.1015" font-family="Fira Code" font-size="12.00" fill="#0c821d">✪fast.js/map.js</text>
</g>
<!-- map.js&#45;&gt;✪fast.js/map.js -->
<g id="edge48" class="edge">
<title>map.js&#45;&gt;✪fast.js/map.js</title>
<path fill="none" stroke="#242424" d="M658.9087,-700.486C677.8966,-661.791 709.5566,-597.2719 735.0516,-545.3164"/>
<polygon fill="#242424" stroke="#242424" points="738.3099,-546.6213 739.5731,-536.1021 732.0257,-543.5376 738.3099,-546.6213"/>
</g>
<!-- math.js&#45;&gt;✪katsu&#45;curry/katsu&#45;curry.js -->
<g id="edge50" class="edge">
<title>math.js&#45;&gt;✪katsu&#45;curry/katsu&#45;curry.js</title>
<path fill="none" stroke="#242424" d="M2365.1487,-692.3518C2371.7577,-616.9443 2375.3972,-456.993 2304.1988,-350.6631 2251.3526,-271.741 2158.8621,-217.5826 2080.6014,-183.3852"/>
<polygon fill="#242424" stroke="#242424" points="2081.7009,-180.0482 2071.1316,-179.3134 2078.9358,-186.4789 2081.7009,-180.0482"/>
</g>
<!-- object.js&#45;&gt;✪katsu&#45;curry/katsu&#45;curry.js -->
<g id="edge51" class="edge">
<title>object.js&#45;&gt;✪katsu&#45;curry/katsu&#45;curry.js</title>
<path fill="none" stroke="#242424" d="M1012.2424,-961.6918C960.5732,-825.8513 826.1406,-445.2845 903.1988,-350.6631 1014.1789,-214.3884 1537.017,-161.9065 1796.0398,-144.0166"/>
<polygon fill="#242424" stroke="#242424" points="1796.5398,-147.4907 1806.2783,-143.318 1796.0632,-140.507 1796.5398,-147.4907"/>
</g>
<!-- object.js&#45;&gt;map.js -->
<g id="edge52" class="edge">
<title>object.js&#45;&gt;map.js</title>
<path fill="none" stroke="#242424" d="M1014.5438,-961.0404C1004.7895,-938.0344 990.5314,-911.609 971.1988,-892.7374 888.96,-812.4595 758.1565,-766.5349 688.8494,-746.5745"/>
<polygon fill="#242424" stroke="#242424" points="689.6579,-743.166 679.0831,-743.817 687.7557,-749.9026 689.6579,-743.166"/>
</g>
<!-- object.js&#45;&gt;reduce.js -->
<g id="edge53" class="edge">
<title>object.js&#45;&gt;reduce.js</title>
<path fill="none" stroke="#242424" d="M1045.5936,-960.5779C1059.1736,-913.7889 1079.5462,-843.5959 1093.9809,-793.8621"/>
<polygon fill="#242424" stroke="#242424" points="1097.3587,-794.7804 1096.7849,-784.2011 1090.6362,-792.8292 1097.3587,-794.7804"/>
</g>
<!-- path.js&#45;&gt;✪katsu&#45;curry/katsu&#45;curry.js -->
<g id="edge54" class="edge">
<title>path.js&#45;&gt;✪katsu&#45;curry/katsu&#45;curry.js</title>
<path fill="none" stroke="#242424" d="M2319.4148,-967.6295C2309.9398,-823.8143 2279.0952,-363.9945 2271.1988,-350.6631 2227.7797,-277.3592 2148.4206,-224.4478 2078.5232,-189.4785"/>
<polygon fill="#242424" stroke="#242424" points="2079.6878,-186.1508 2069.1698,-184.8766 2076.5975,-192.4317 2079.6878,-186.1508"/>
</g>
<!-- path.js&#45;&gt;math.js -->
<g id="edge55" class="edge">
<title>path.js&#45;&gt;math.js</title>
<path fill="none" stroke="#242424" d="M2328.0116,-968.0112C2334.7166,-919.3756 2345.7452,-839.3786 2352.9905,-786.8246"/>
<polygon fill="#242424" stroke="#242424" points="2356.4881,-787.0814 2354.3867,-776.6971 2349.5537,-786.1254 2356.4881,-787.0814"/>
</g>
<!-- path.js&#45;&gt;reduce.js -->
<g id="edge56" class="edge">
<title>path.js&#45;&gt;reduce.js</title>
<path fill="none" stroke="#242424" d="M2281.2435,-998.8307C2199.4265,-976.4356 2009.7371,-925.8476 1848.1988,-892.7374 1634.2504,-848.8849 1575.6944,-864.162 1363.1988,-813.7374 1295.7091,-797.7223 1220.0015,-772.985 1169.3458,-755.4227"/>
<polygon fill="#242424" stroke="#242424" points="1170.4676,-752.1072 1159.8727,-752.1207 1168.1635,-758.7172 1170.4676,-752.1072"/>
</g>
<!-- random&#45;floor.js&#45;&gt;✪katsu&#45;curry/katsu&#45;curry.js -->
<g id="edge57" class="edge">
<title>random&#45;floor.js&#45;&gt;✪katsu&#45;curry/katsu&#45;curry.js</title>
<path fill="none" stroke="#242424" d="M1946.5349,-655.0349C1945.7424,-560.1481 1944.4015,-399.5822 1943.4202,-282.0801"/>
<polygon fill="#242424" stroke="#242424" points="1946.9188,-281.8889 1943.3353,-271.9185 1939.919,-281.9474 1946.9188,-281.8889"/>
</g>
<!-- random&#45;take.js&#45;&gt;✪katsu&#45;curry/katsu&#45;curry.js -->
<g id="edge58" class="edge">
<title>random&#45;take.js&#45;&gt;✪katsu&#45;curry/katsu&#45;curry.js</title>
<path fill="none" stroke="#242424" d="M1746.1657,-937.4702C1730.8684,-865.5151 1713.6815,-752.3767 1729.1988,-655.3398 1751.6671,-514.8355 1817.7635,-365.6577 1870.4302,-263.3784"/>
<polygon fill="#242424" stroke="#242424" points="1873.6683,-264.7366 1875.1605,-254.2473 1867.4528,-261.5166 1873.6683,-264.7366"/>
</g>
<!-- random&#45;take.js&#45;&gt;iterate.js -->
<g id="edge59" class="edge">
<title>random&#45;take.js&#45;&gt;iterate.js</title>
<path fill="none" stroke="#242424" d="M1772.2777,-935.9465C1776.8694,-893.7591 1782.5692,-841.3898 1787.0058,-800.6272"/>
<polygon fill="#242424" stroke="#242424" points="1790.5024,-800.8472 1788.1051,-790.5271 1783.5435,-800.0897 1790.5024,-800.8472"/>
</g>
<!-- random&#45;take.js&#45;&gt;random&#45;floor.js -->
<g id="edge60" class="edge">
<title>random&#45;take.js&#45;&gt;random&#45;floor.js</title>
<path fill="none" stroke="#242424" d="M1805.4958,-947.9727C1832.7726,-906.8881 1868.6706,-852.8184 1897.5094,-809.3811"/>
<polygon fill="#242424" stroke="#242424" points="1900.5631,-811.1094 1903.1784,-800.8425 1894.7313,-807.2376 1900.5631,-811.1094"/>
</g>
<!-- random&#45;word.js&#45;&gt;array.js -->
<g id="edge62" class="edge">
<title>random&#45;word.js&#45;&gt;array.js</title>
<path fill="none" stroke="#242424" d="M1559.4374,-1287.9783C1508.1928,-1221.838 1426.2355,-1116.0574 1379.6341,-1055.9099"/>
<polygon fill="#242424" stroke="#242424" points="1382.1914,-1053.496 1373.2999,-1047.7346 1376.6579,-1057.7832 1382.1914,-1053.496"/>
</g>
<!-- random&#45;word.js&#45;&gt;✪katsu&#45;curry/katsu&#45;curry.js -->
<g id="edge61" class="edge">
<title>random&#45;word.js&#45;&gt;✪katsu&#45;curry/katsu&#45;curry.js</title>
<path fill="none" stroke="#242424" d="M1580.8225,-1276.3459C1553.3221,-1185.4135 1517.5198,-1023.6056 1559.1988,-892.7374 1572.2591,-851.7292 1596.7442,-852.6177 1615.1988,-813.7374 1706.7598,-620.8359 1639.2536,-537.1834 1743.1988,-350.6631 1766.8239,-308.27 1800.5003,-267.6211 1833.4469,-233.3103"/>
<polygon fill="#242424" stroke="#242424" points="1836.0062,-235.6988 1840.4623,-226.0866 1830.9846,-230.8219 1836.0062,-235.6988"/>
</g>
<!-- random&#45;word.js&#45;&gt;random&#45;take.js -->
<g id="edge63" class="edge">
<title>random&#45;word.js&#45;&gt;random&#45;take.js</title>
<path fill="none" stroke="#242424" d="M1637.1836,-1279.2767C1663.4379,-1223.6527 1700.6125,-1144.8923 1727.9631,-1086.9456"/>
<polygon fill="#242424" stroke="#242424" points="1731.1619,-1088.3682 1732.2652,-1077.831 1724.8316,-1085.3803 1731.1619,-1088.3682"/>
</g>
<!-- reduce.js&#45;&gt;delegate&#45;fast.js -->
<g id="edge65" class="edge">
<title>reduce.js&#45;&gt;delegate&#45;fast.js</title>
<path fill="none" stroke="#242424" d="M1127.6782,-685.4558C1140.0846,-648.5042 1157.4315,-596.8378 1172.2674,-552.6502"/>
<polygon fill="#242424" stroke="#242424" points="1175.6247,-553.6469 1175.4896,-543.053 1168.9887,-551.4189 1175.6247,-553.6469"/>
</g>
<!-- ✪fast.js/reduce.js -->
<g id="node37" class="node">
<title>✪fast.js/reduce.js</title>
<ellipse fill="none" stroke="#0c821d" stroke-width="4" cx="1006.1988" cy="-463.5015" rx="94.3876" ry="94.3876"/>
<text text-anchor="middle" x="1006.1988" y="-461.1015" font-family="Fira Code" font-size="12.00" fill="#0c821d">✪fast.js/reduce.js</text>
</g>
<!-- reduce.js&#45;&gt;✪fast.js/reduce.js -->
<g id="edge64" class="edge">
<title>reduce.js&#45;&gt;✪fast.js/reduce.js</title>
<path fill="none" stroke="#242424" d="M1092.5479,-686.3949C1079.1249,-651.7461 1060.5556,-603.813 1044.0754,-561.2726"/>
<polygon fill="#242424" stroke="#242424" points="1047.2513,-559.7815 1040.3752,-551.7211 1040.724,-562.3102 1047.2513,-559.7815"/>
</g>
<!-- reject.js&#45;&gt;✪katsu&#45;curry/katsu&#45;curry.js -->
<g id="edge66" class="edge">
<title>reject.js&#45;&gt;✪katsu&#45;curry/katsu&#45;curry.js</title>
<path fill="none" stroke="#242424" d="M1632.6956,-959.802C1661.2045,-847.8842 1735.853,-571.0276 1829.1988,-350.6631 1841.3982,-321.8636 1856.0217,-291.7062 1870.6384,-263.399"/>
<polygon fill="#242424" stroke="#242424" points="1873.8732,-264.7644 1875.3807,-254.2774 1867.6624,-261.5354 1873.8732,-264.7644"/>
</g>
<!-- reject.js&#45;&gt;filter.js -->
<g id="edge67" class="edge">
<title>reject.js&#45;&gt;filter.js</title>
<path fill="none" stroke="#242424" d="M1590.2173,-968.0112C1555.201,-918.7676 1497.3232,-837.3738 1459.9863,-784.8668"/>
<polygon fill="#242424" stroke="#242424" points="1462.8245,-782.8185 1454.177,-776.6971 1457.1198,-786.8751 1462.8245,-782.8185"/>
</g>
<!-- string.js&#45;&gt;✪entrust/entrust.js -->
<g id="edge68" class="edge">
<title>string.js&#45;&gt;✪entrust/entrust.js</title>
<path fill="none" stroke="#242424" d="M386.5694,-1297.1028C348.4812,-1151.4816 245.9584,-714.5877 281.1988,-350.6631 284.641,-315.1164 291.2155,-276.7182 298.159,-242.3519"/>
<polygon fill="#242424" stroke="#242424" points="301.6401,-242.7989 300.2233,-232.2993 294.7832,-241.3908 301.6401,-242.7989"/>
</g>
<!-- ternary.js&#45;&gt;✪katsu&#45;curry/katsu&#45;curry.js -->
<g id="edge69" class="edge">
<title>ternary.js&#45;&gt;✪katsu&#45;curry/katsu&#45;curry.js</title>
<path fill="none" stroke="#242424" d="M1559.7338,-679.1043C1577.8142,-574.44 1615.6877,-357.5275 1620.1988,-350.6631 1665.4989,-281.7318 1741.3796,-229.5149 1808.104,-193.8304"/>
<polygon fill="#242424" stroke="#242424" points="1809.8184,-196.8832 1817.0324,-189.1238 1806.5541,-190.6909 1809.8184,-196.8832"/>
</g>
<!-- triplet.js&#45;&gt;✪katsu&#45;curry/katsu&#45;curry.js -->
<g id="edge70" class="edge">
<title>triplet.js&#45;&gt;✪katsu&#45;curry/katsu&#45;curry.js</title>
<path fill="none" stroke="#242424" d="M2480.8316,-953.8048C2487.8923,-831.1377 2488.1425,-536.1386 2349.1988,-350.6631 2283.8478,-263.4263 2172.5674,-208.1581 2082.8675,-175.5601"/>
<polygon fill="#242424" stroke="#242424" points="2084.0229,-172.2563 2073.4283,-172.184 2081.6654,-178.8474 2084.0229,-172.2563"/>
</g>
<!-- types.js&#45;&gt;✪katsu&#45;curry/katsu&#45;curry.js -->
<g id="edge71" class="edge">
<title>types.js&#45;&gt;✪katsu&#45;curry/katsu&#45;curry.js</title>
<path fill="none" stroke="#242424" d="M2006.6914,-417.5953C1998.3765,-381.2682 1986.2952,-328.4857 1974.8312,-278.4003"/>
<polygon fill="#242424" stroke="#242424" points="1978.191,-277.3918 1972.5479,-268.4248 1971.3674,-278.9537 1978.191,-277.3918"/>
</g>
<!-- which.js&#45;&gt;✪katsu&#45;curry/katsu&#45;curry.js -->
<g id="edge74" class="edge">
<title>which.js&#45;&gt;✪katsu&#45;curry/katsu&#45;curry.js</title>
<path fill="none" stroke="#242424" d="M2757.3744,-1302.9973C2786.9561,-1220.5083 2840.1258,-1037.9499 2794.1988,-892.7374 2705.3985,-611.9677 2639.7421,-538.7994 2413.1988,-350.6631 2315.4906,-269.5198 2182.1311,-212.4974 2082.2545,-177.6918"/>
<polygon fill="#242424" stroke="#242424" points="2083.2906,-174.3469 2072.6958,-174.3928 2081.0068,-180.9639 2083.2906,-174.3469"/>
</g>
<!-- which.js&#45;&gt;flip.js -->
<g id="edge75" class="edge">
<title>which.js&#45;&gt;flip.js</title>
<path fill="none" stroke="#242424" d="M2779.671,-1321.4715C2867.852,-1264.3206 3073.3763,-1130.9557 3076.1988,-1127.6114 3092.4961,-1108.3012 3104.376,-1082.9839 3112.5481,-1060.8021"/>
<polygon fill="#242424" stroke="#242424" points="3115.9126,-1061.785 3115.9348,-1051.1902 3109.3104,-1059.4587 3115.9126,-1061.785"/>
</g>
<!-- which.js&#45;&gt;triplet.js -->
<g id="edge76" class="edge">
<title>which.js&#45;&gt;triplet.js</title>
<path fill="none" stroke="#242424" d="M2706.1425,-1314.0997C2664.543,-1272.8358 2593.3989,-1198.8675 2542.1988,-1127.6114 2529.1804,-1109.4935 2516.6999,-1088.5718 2506.164,-1069.4515"/>
<polygon fill="#242424" stroke="#242424" points="2509.1607,-1067.6358 2501.3101,-1060.5211 2503.0104,-1070.9786 2509.1607,-1067.6358"/>
</g>
<!-- ✪fast.js/array/every.js -->
<g id="node38" class="node">
<title>✪fast.js/array/every.js</title>
<ellipse fill="none" stroke="#0c821d" stroke-width="4" cx="2668.1988" cy="-1010.1744" rx="117.374" ry="117.374"/>
<text text-anchor="middle" x="2668.1988" y="-1007.7744" font-family="Fira Code" font-size="12.00" fill="#0c821d">✪fast.js/array/every.js</text>
</g>
<!-- which.js&#45;&gt;✪fast.js/array/every.js -->
<g id="edge72" class="edge">
<title>which.js&#45;&gt;✪fast.js/array/every.js</title>
<path fill="none" stroke="#242424" d="M2730.3385,-1300.908C2721.2366,-1258.323 2707.2981,-1193.1085 2694.927,-1135.228"/>
<polygon fill="#242424" stroke="#242424" points="2698.3099,-1134.3097 2692.797,-1125.2621 2691.4645,-1135.7728 2698.3099,-1134.3097"/>
</g>
<!-- ✪fast.js/array/some.js -->
<g id="node39" class="node">
<title>✪fast.js/array/some.js</title>
<ellipse fill="none" stroke="#0c821d" stroke-width="4" cx="2954.1988" cy="-1010.1744" rx="112.6769" ry="112.6769"/>
<text text-anchor="middle" x="2954.1988" y="-1007.7744" font-family="Fira Code" font-size="12.00" fill="#0c821d">✪fast.js/array/some.js</text>
</g>
<!-- which.js&#45;&gt;✪fast.js/array/some.js -->
<g id="edge73" class="edge">
<title>which.js&#45;&gt;✪fast.js/array/some.js</title>
<path fill="none" stroke="#242424" d="M2765.5878,-1307.0757C2795.574,-1259.873 2846.6137,-1179.5291 2888.042,-1114.3148"/>
<polygon fill="#242424" stroke="#242424" points="2891.1534,-1115.9443 2893.5613,-1105.6267 2885.2448,-1112.1908 2891.1534,-1115.9443"/>
</g>
</g>
</svg>
