<?xml version="1.0" encoding="UTF-8" standalone="no"?>
<!DOCTYPE svg PUBLIC "-//W3C//DTD SVG 1.1//EN"
 "http://www.w3.org/Graphics/SVG/1.1/DTD/svg11.dtd">
<!-- Generated by graphviz version 2.40.1 (20161225.0304)
 -->
<!-- Title: G Pages: 1 -->
<svg width="2374pt" height="1190pt"
 viewBox="0.00 0.00 2374.18 1189.58" xmlns="http://www.w3.org/2000/svg" xmlns:xlink="http://www.w3.org/1999/xlink">
<g id="graph0" class="graph" transform="scale(1 1) rotate(0) translate(7.992 1181.592)">
<title>G</title>
<polygon fill="#eeeeff" stroke="transparent" points="-7.992,7.992 -7.992,-1181.592 2366.192,-1181.592 2366.192,7.992 -7.992,7.992"/>
<!-- array.js -->
<g id="node1" class="node">
<title>array.js</title>
<polygon fill="none" stroke="#242424" stroke-width="4" points="335.4011,-652.2011 262.1989,-652.2011 262.1989,-578.9989 335.4011,-578.9989 335.4011,-652.2011"/>
<text text-anchor="middle" x="298.8" y="-613.2" font-family="Fira Code" font-size="12.00" fill="#242424">array.js</text>
</g>
<!-- entrust/entrust.js -->
<g id="node2" class="node">
<title>entrust/entrust.js</title>
<polygon fill="none" stroke="#0c821d" stroke-width="4" points="145.4005,-438.4005 .1995,-438.4005 .1995,-293.1995 145.4005,-293.1995 145.4005,-438.4005"/>
<text text-anchor="middle" x="72.8" y="-363.4" font-family="Fira Code" font-size="12.00" fill="#0c821d">entrust/entrust.js</text>
</g>
<!-- array.js&#45;&gt;entrust/entrust.js -->
<g id="edge1" class="edge">
<title>array.js&#45;&gt;entrust/entrust.js</title>
<path fill="none" stroke="#242424" d="M274.9512,-578.7911C263.9957,-562.7777 250.4253,-544.1219 236.8,-528.4 203.4466,-489.9145 189.9707,-485.2505 153.8,-449.4 152.5665,-448.1774 151.3246,-446.9427 150.0761,-445.6981"/>
<polygon fill="#242424" stroke="#242424" points="152.4098,-443.0818 142.8683,-438.4764 147.4553,-448.0268 152.4098,-443.0818"/>
</g>
<!-- choice.js -->
<g id="node3" class="node">
<title>choice.js</title>
<polygon fill="none" stroke="#242424" stroke-width="4" points="1797.1002,-406.1002 1716.4998,-406.1002 1716.4998,-325.4998 1797.1002,-325.4998 1797.1002,-406.1002"/>
<text text-anchor="middle" x="1756.8" y="-363.4" font-family="Fira Code" font-size="12.00" fill="#242424">choice.js</text>
</g>
<!-- katsu&#45;curry/katsu&#45;curry.js -->
<g id="node4" class="node">
<title>katsu&#45;curry/katsu&#45;curry.js</title>
<polygon fill="none" stroke="#0c821d" stroke-width="4" points="1278.5001,-203.3001 1075.0999,-203.3001 1075.0999,.1001 1278.5001,.1001 1278.5001,-203.3001"/>
<text text-anchor="middle" x="1176.8" y="-99.2" font-family="Fira Code" font-size="12.00" fill="#0c821d">katsu&#45;curry/katsu&#45;curry.js</text>
</g>
<!-- choice.js&#45;&gt;katsu&#45;curry/katsu&#45;curry.js -->
<g id="edge2" class="edge">
<title>choice.js&#45;&gt;katsu&#45;curry/katsu&#45;curry.js</title>
<path fill="none" stroke="#242424" d="M1729.8403,-325.1186C1718.115,-309.9463 1703.281,-293.646 1686.8,-282.2 1564.2934,-197.1194 1397.5409,-148.1008 1288.5672,-123.1418"/>
<polygon fill="#242424" stroke="#242424" points="1289.0589,-119.6647 1278.5333,-120.8742 1287.5158,-126.4925 1289.0589,-119.6647"/>
</g>
<!-- filter.js -->
<g id="node5" class="node">
<title>filter.js</title>
<polygon fill="none" stroke="#242424" stroke-width="4" points="1323.1002,-941.7002 1242.4998,-941.7002 1242.4998,-861.0998 1323.1002,-861.0998 1323.1002,-941.7002"/>
<text text-anchor="middle" x="1282.8" y="-899" font-family="Fira Code" font-size="12.00" fill="#242424">filter.js</text>
</g>
<!-- fast.js/filter.js -->
<g id="node6" class="node">
<title>fast.js/filter.js</title>
<polygon fill="none" stroke="#0c821d" stroke-width="4" points="1461.2006,-685.0006 1322.3994,-685.0006 1322.3994,-546.1994 1461.2006,-546.1994 1461.2006,-685.0006"/>
<text text-anchor="middle" x="1391.8" y="-613.2" font-family="Fira Code" font-size="12.00" fill="#0c821d">fast.js/filter.js</text>
</g>
<!-- filter.js&#45;&gt;fast.js/filter.js -->
<g id="edge3" class="edge">
<title>filter.js&#45;&gt;fast.js/filter.js</title>
<path fill="none" stroke="#242424" d="M1298.1859,-861.058C1314.6276,-817.9473 1341.1078,-748.516 1361.7163,-694.48"/>
<polygon fill="#242424" stroke="#242424" points="1365.0681,-695.5132 1365.3614,-684.9224 1358.5277,-693.0187 1365.0681,-695.5132"/>
</g>
<!-- flip.js -->
<g id="node7" class="node">
<title>flip.js</title>
<polygon fill="none" stroke="#242424" stroke-width="4" points="1305.2012,-649.0012 1238.3988,-649.0012 1238.3988,-582.1988 1305.2012,-582.1988 1305.2012,-649.0012"/>
<text text-anchor="middle" x="1271.8" y="-613.2" font-family="Fira Code" font-size="12.00" fill="#242424">flip.js</text>
</g>
<!-- filter.js&#45;&gt;flip.js -->
<g id="edge4" class="edge">
<title>filter.js&#45;&gt;flip.js</title>
<path fill="none" stroke="#242424" d="M1281.2473,-861.058C1279.1943,-807.718 1275.5905,-714.0848 1273.4771,-659.1728"/>
<polygon fill="#242424" stroke="#242424" points="1276.9699,-658.9174 1273.0878,-649.0594 1269.9751,-659.1867 1276.9699,-658.9174"/>
</g>
<!-- flip.js&#45;&gt;katsu&#45;curry/katsu&#45;curry.js -->
<g id="edge5" class="edge">
<title>flip.js&#45;&gt;katsu&#45;curry/katsu&#45;curry.js</title>
<path fill="none" stroke="#242424" d="M1265.64,-582.2711C1252.0963,-508.9928 1219.2078,-331.0484 1197.4716,-213.4441"/>
<polygon fill="#242424" stroke="#242424" points="1200.8595,-212.5163 1195.6002,-203.319 1193.976,-213.7886 1200.8595,-212.5163"/>
</g>
<!-- future.js -->
<g id="node8" class="node">
<title>future.js</title>
<polygon fill="none" stroke="#242424" stroke-width="4" points="228.1002,-655.9002 147.4998,-655.9002 147.4998,-575.2998 228.1002,-575.2998 228.1002,-655.9002"/>
<text text-anchor="middle" x="187.8" y="-613.2" font-family="Fira Code" font-size="12.00" fill="#242424">future.js</text>
</g>
<!-- future.js&#45;&gt;entrust/entrust.js -->
<g id="edge6" class="edge">
<title>future.js&#45;&gt;entrust/entrust.js</title>
<path fill="none" stroke="#242424" d="M169.1955,-575.1877C153.3827,-540.8397 130.1819,-490.4435 110.5042,-447.7001"/>
<polygon fill="#242424" stroke="#242424" points="113.595,-446.0441 106.2338,-438.4241 107.2364,-448.9714 113.595,-446.0441"/>
</g>
<!-- index.js -->
<g id="node9" class="node">
<title>index.js</title>
<polygon fill="none" stroke="#242424" stroke-width="4" points="1232.4011,-1173.4011 1159.1989,-1173.4011 1159.1989,-1100.1989 1232.4011,-1100.1989 1232.4011,-1173.4011"/>
<text text-anchor="middle" x="1195.8" y="-1134.4" font-family="Fira Code" font-size="12.00" fill="#242424">index.js</text>
</g>
<!-- index.js&#45;&gt;array.js -->
<g id="edge9" class="edge">
<title>index.js&#45;&gt;array.js</title>
<path fill="none" stroke="#242424" d="M1158.9892,-1134.3432C1004.1158,-1123.6644 410.7543,-1079.1918 352.8,-1021 257.2048,-925.013 274.1063,-746.9232 288.9189,-662.4256"/>
<polygon fill="#242424" stroke="#242424" points="292.4047,-662.8192 290.7532,-652.3539 285.518,-661.565 292.4047,-662.8192"/>
</g>
<!-- index.js&#45;&gt;choice.js -->
<g id="edge10" class="edge">
<title>index.js&#45;&gt;choice.js</title>
<path fill="none" stroke="#242424" d="M1232.7371,-1134.0243C1341.3257,-1125.0803 1656.1461,-1093.2863 1723.8,-1021 1874.1113,-860.3967 1781.914,-748.1376 1771.8,-528.4 1770.0651,-490.7086 1766.0797,-448.2581 1762.6528,-416.1851"/>
<polygon fill="#242424" stroke="#242424" points="1766.1228,-415.7191 1761.5633,-406.1556 1759.1638,-416.4751 1766.1228,-415.7191"/>
</g>
<!-- index.js&#45;&gt;katsu&#45;curry/katsu&#45;curry.js -->
<g id="edge7" class="edge">
<title>index.js&#45;&gt;katsu&#45;curry/katsu&#45;curry.js</title>
<path fill="none" stroke="#242424" d="M1232.767,-1135.1786C1349.613,-1129.2251 1707.525,-1104.3739 1779.8,-1021 1833.6033,-958.9344 1855.2215,-347.8083 1805.8,-282.2 1743.614,-199.6465 1452.1103,-143.214 1288.6541,-117.4717"/>
<polygon fill="#242424" stroke="#242424" points="1288.9791,-113.9802 1278.5588,-115.8952 1287.899,-120.8963 1288.9791,-113.9802"/>
</g>
<!-- index.js&#45;&gt;filter.js -->
<g id="edge11" class="edge">
<title>index.js&#45;&gt;filter.js</title>
<path fill="none" stroke="#242424" d="M1209.3938,-1100.0187C1224.1756,-1060.0228 1247.8873,-995.865 1264.345,-951.3347"/>
<polygon fill="#242424" stroke="#242424" points="1267.6604,-952.4599 1267.8442,-941.8667 1261.0945,-950.0332 1267.6604,-952.4599"/>
</g>
<!-- index.js&#45;&gt;flip.js -->
<g id="edge12" class="edge">
<title>index.js&#45;&gt;flip.js</title>
<path fill="none" stroke="#242424" d="M1198.294,-1100.0659C1203.0034,-1035.4105 1214.5018,-897.1923 1233.8,-781.8 1240.8351,-739.7343 1251.9896,-692.3681 1260.3974,-658.9955"/>
<polygon fill="#242424" stroke="#242424" points="1263.8389,-659.6633 1262.9109,-649.1091 1257.0547,-657.9384 1263.8389,-659.6633"/>
</g>
<!-- index.js&#45;&gt;future.js -->
<g id="edge13" class="edge">
<title>index.js&#45;&gt;future.js</title>
<path fill="none" stroke="#242424" d="M1159.0272,-1134.6738C995.602,-1124.8967 340.274,-1082.1064 273.8,-1021 173.9097,-929.1756 174.52,-752.6419 181.7689,-666.0318"/>
<polygon fill="#242424" stroke="#242424" points="185.2678,-666.2009 182.6795,-655.9271 178.296,-665.5726 185.2678,-666.2009"/>
</g>
<!-- katsu&#45;curry/lib/utils/length.js -->
<g id="node10" class="node">
<title>katsu&#45;curry/lib/utils/length.js</title>
<polygon fill="none" stroke="#0c821d" stroke-width="4" points="2102.5001,-1021.1001 1863.0999,-1021.1001 1863.0999,-781.6999 2102.5001,-781.6999 2102.5001,-1021.1001"/>
<text text-anchor="middle" x="1982.8" y="-899" font-family="Fira Code" font-size="12.00" fill="#0c821d">katsu&#45;curry/lib/utils/length.js</text>
</g>
<!-- index.js&#45;&gt;katsu&#45;curry/lib/utils/length.js -->
<g id="edge8" class="edge">
<title>index.js&#45;&gt;katsu&#45;curry/lib/utils/length.js</title>
<path fill="none" stroke="#242424" d="M1232.5371,-1132.9558C1353.4466,-1119.8928 1737.5922,-1075.007 1848.8,-1021 1850.5882,-1020.1316 1852.3704,-1019.2323 1854.1458,-1018.3041"/>
<polygon fill="#242424" stroke="#242424" points="1855.9026,-1021.3322 1862.9628,-1013.4326 1852.5173,-1015.2052 1855.9026,-1021.3322"/>
</g>
<!-- iterate.js -->
<g id="node11" class="node">
<title>iterate.js</title>
<polygon fill="none" stroke="#242424" stroke-width="4" points="608.8,-409.8 520.8,-409.8 520.8,-321.8 608.8,-321.8 608.8,-409.8"/>
<text text-anchor="middle" x="564.8" y="-363.4" font-family="Fira Code" font-size="12.00" fill="#242424">iterate.js</text>
</g>
<!-- index.js&#45;&gt;iterate.js -->
<g id="edge14" class="edge">
<title>index.js&#45;&gt;iterate.js</title>
<path fill="none" stroke="#242424" d="M1158.7232,-1133.8019C1015.1439,-1121.8234 501.3656,-1075.4078 454.8,-1021 448.3684,-1013.4852 456.2446,-533.4833 457.8,-528.4 461.5541,-516.1307 498.5135,-461.1906 527.9581,-418.5279"/>
<polygon fill="#242424" stroke="#242424" points="530.9252,-420.3909 533.7348,-410.1753 525.1679,-416.4091 530.9252,-420.3909"/>
</g>
<!-- map.js -->
<g id="node12" class="node">
<title>map.js</title>
<polygon fill="none" stroke="#242424" stroke-width="4" points="412.5003,-645.3003 353.0997,-645.3003 353.0997,-585.8997 412.5003,-585.8997 412.5003,-645.3003"/>
<text text-anchor="middle" x="382.8" y="-613.2" font-family="Fira Code" font-size="12.00" fill="#242424">map.js</text>
</g>
<!-- index.js&#45;&gt;map.js -->
<g id="edge15" class="edge">
<title>index.js&#45;&gt;map.js</title>
<path fill="none" stroke="#242424" d="M1159.0088,-1133.8761C1012.8111,-1121.9115 478.3859,-1074.7644 426.8,-1021 330.5596,-920.6954 356.0673,-735.7656 373.1786,-655.0338"/>
<polygon fill="#242424" stroke="#242424" points="376.5983,-655.7789 375.3179,-645.2618 369.7603,-654.2819 376.5983,-655.7789"/>
</g>
<!-- math.js -->
<g id="node13" class="node">
<title>math.js</title>
<polygon fill="none" stroke="#242424" stroke-width="4" points="994.2012,-399.2012 927.3988,-399.2012 927.3988,-332.3988 994.2012,-332.3988 994.2012,-399.2012"/>
<text text-anchor="middle" x="960.8" y="-363.4" font-family="Fira Code" font-size="12.00" fill="#242424">math.js</text>
</g>
<!-- index.js&#45;&gt;math.js -->
<g id="edge16" class="edge">
<title>index.js&#45;&gt;math.js</title>
<path fill="none" stroke="#242424" d="M1159.1783,-1118.5575C1062.8738,-1068.2298 803.3854,-916.84 707.8,-702.8 676.1937,-632.0256 670.6436,-596.4248 707.8,-528.4 738.9451,-471.3805 776.1433,-484.5266 830.8,-449.4 860.1805,-430.5179 893.2892,-409.2262 918.7407,-392.8559"/>
<polygon fill="#242424" stroke="#242424" points="920.8881,-395.6362 927.4052,-387.2828 917.1013,-389.7489 920.8881,-395.6362"/>
</g>
<!-- random&#45;floor.js -->
<g id="node14" class="node">
<title>random&#45;floor.js</title>
<polygon fill="none" stroke="#242424" stroke-width="4" points="750.8,-427.8 626.8,-427.8 626.8,-303.8 750.8,-303.8 750.8,-427.8"/>
<text text-anchor="middle" x="688.8" y="-363.4" font-family="Fira Code" font-size="12.00" fill="#242424">random&#45;floor.js</text>
</g>
<!-- index.js&#45;&gt;random&#45;floor.js -->
<g id="edge17" class="edge">
<title>index.js&#45;&gt;random&#45;floor.js</title>
<path fill="none" stroke="#242424" d="M1159.1001,-1136.3569C1029.9149,-1133.965 599.3312,-1118.6748 512.8,-1021 440.1771,-939.0246 445.844,-624.8087 497.8,-528.4 528.0925,-472.1897 569.9833,-491.7178 617.8,-449.4 622.7819,-444.991 627.7265,-440.2283 632.551,-435.2907"/>
<polygon fill="#242424" stroke="#242424" points="635.1731,-437.6123 639.524,-427.9521 630.0985,-432.7906 635.1731,-437.6123"/>
</g>
<!-- random&#45;shuffle.js -->
<g id="node15" class="node">
<title>random&#45;shuffle.js</title>
<polygon fill="none" stroke="#0c821d" stroke-width="4" points="2259.2006,-970.8006 2120.3994,-970.8006 2120.3994,-831.9994 2259.2006,-831.9994 2259.2006,-970.8006"/>
<text text-anchor="middle" x="2189.8" y="-899" font-family="Fira Code" font-size="12.00" fill="#0c821d">random&#45;shuffle.js</text>
</g>
<!-- index.js&#45;&gt;random&#45;shuffle.js -->
<g id="edge18" class="edge">
<title>index.js&#45;&gt;random&#45;shuffle.js</title>
<path fill="none" stroke="#242424" d="M1232.5114,-1136.2003C1384.1969,-1133.1207 1961.1574,-1115.3034 2111.8,-1021 2128.2615,-1010.695 2141.9526,-995.4962 2153.0273,-979.364"/>
<polygon fill="#242424" stroke="#242424" points="2156.0413,-981.1498 2158.581,-970.8638 2150.1812,-977.321 2156.0413,-981.1498"/>
</g>
<!-- random&#45;take.js -->
<g id="node16" class="node">
<title>random&#45;take.js</title>
<polygon fill="none" stroke="#242424" stroke-width="4" points="623.1002,-673.9002 506.4998,-673.9002 506.4998,-557.2998 623.1002,-557.2998 623.1002,-673.9002"/>
<text text-anchor="middle" x="564.8" y="-613.2" font-family="Fira Code" font-size="12.00" fill="#242424">random&#45;take.js</text>
</g>
<!-- index.js&#45;&gt;random&#45;take.js -->
<g id="edge19" class="edge">
<title>index.js&#45;&gt;random&#45;take.js</title>
<path fill="none" stroke="#242424" d="M1158.8551,-1136.2583C1031.873,-1133.5435 616.6943,-1117.3233 535.8,-1021 494.3536,-971.6485 526.8201,-786.3186 548.8215,-684.1905"/>
<polygon fill="#242424" stroke="#242424" points="552.2732,-684.7886 550.9814,-674.2728 545.4335,-683.2989 552.2732,-684.7886"/>
</g>
<!-- random&#45;word.js -->
<g id="node17" class="node">
<title>random&#45;word.js</title>
<polygon fill="none" stroke="#242424" stroke-width="4" points="661.1002,-959.7002 544.4998,-959.7002 544.4998,-843.0998 661.1002,-843.0998 661.1002,-959.7002"/>
<text text-anchor="middle" x="602.8" y="-899" font-family="Fira Code" font-size="12.00" fill="#242424">random&#45;word.js</text>
</g>
<!-- index.js&#45;&gt;random&#45;word.js -->
<g id="edge20" class="edge">
<title>index.js&#45;&gt;random&#45;word.js</title>
<path fill="none" stroke="#242424" d="M1159.0289,-1132.4317C1053.7665,-1119.3469 753.7678,-1077.8308 674.8,-1021 656.3764,-1007.7411 641.7965,-988.176 630.7138,-968.6936"/>
<polygon fill="#242424" stroke="#242424" points="633.7157,-966.8873 625.8666,-959.7709 627.5647,-970.2288 633.7157,-966.8873"/>
</g>
<!-- random.js -->
<g id="node18" class="node">
<title>random.js</title>
<polygon fill="none" stroke="#0c821d" stroke-width="4" points="2358.1002,-941.7002 2277.4998,-941.7002 2277.4998,-861.0998 2358.1002,-861.0998 2358.1002,-941.7002"/>
<text text-anchor="middle" x="2317.8" y="-899" font-family="Fira Code" font-size="12.00" fill="#0c821d">random.js</text>
</g>
<!-- index.js&#45;&gt;random.js -->
<g id="edge21" class="edge">
<title>index.js&#45;&gt;random.js</title>
<path fill="none" stroke="#242424" d="M1232.4295,-1135.0379C1410.7578,-1126.1698 2182.9496,-1084.3348 2267.8,-1021 2289.8332,-1004.5538 2302.224,-976.567 2309.1576,-951.7999"/>
<polygon fill="#242424" stroke="#242424" points="2312.6321,-952.3406 2311.7237,-941.7848 2305.8511,-950.6031 2312.6321,-952.3406"/>
</g>
<!-- reduce.js -->
<g id="node19" class="node">
<title>reduce.js</title>
<polygon fill="none" stroke="#242424" stroke-width="4" points="1635.1002,-941.7002 1554.4998,-941.7002 1554.4998,-861.0998 1635.1002,-861.0998 1635.1002,-941.7002"/>
<text text-anchor="middle" x="1594.8" y="-899" font-family="Fira Code" font-size="12.00" fill="#242424">reduce.js</text>
</g>
<!-- index.js&#45;&gt;reduce.js -->
<g id="edge22" class="edge">
<title>index.js&#45;&gt;reduce.js</title>
<path fill="none" stroke="#242424" d="M1232.5687,-1133.9908C1301.3659,-1126.8858 1450.7164,-1102.4754 1540.8,-1021 1560.9966,-1002.7333 1574.1056,-975.4504 1582.3425,-951.5533"/>
<polygon fill="#242424" stroke="#242424" points="1585.7171,-952.4931 1585.4754,-941.901 1579.0591,-950.332 1585.7171,-952.4931"/>
</g>
<!-- reject.js -->
<g id="node20" class="node">
<title>reject.js</title>
<polygon fill="none" stroke="#242424" stroke-width="4" points="1432.1002,-941.7002 1351.4998,-941.7002 1351.4998,-861.0998 1432.1002,-861.0998 1432.1002,-941.7002"/>
<text text-anchor="middle" x="1391.8" y="-899" font-family="Fira Code" font-size="12.00" fill="#242424">reject.js</text>
</g>
<!-- index.js&#45;&gt;reject.js -->
<g id="edge23" class="edge">
<title>index.js&#45;&gt;reject.js</title>
<path fill="none" stroke="#242424" d="M1232.5674,-1111.8575C1262.1656,-1090.3949 1303.376,-1057.232 1331.8,-1021 1348.2354,-1000.0498 1361.9818,-973.8828 1372.1522,-951.3709"/>
<polygon fill="#242424" stroke="#242424" points="1375.4637,-952.5352 1376.2894,-941.9726 1369.057,-949.7149 1375.4637,-952.5352"/>
</g>
<!-- string.js -->
<g id="node21" class="node">
<title>string.js</title>
<polygon fill="none" stroke="#242424" stroke-width="4" points="154.1002,-941.7002 73.4998,-941.7002 73.4998,-861.0998 154.1002,-861.0998 154.1002,-941.7002"/>
<text text-anchor="middle" x="113.8" y="-899" font-family="Fira Code" font-size="12.00" fill="#242424">string.js</text>
</g>
<!-- index.js&#45;&gt;string.js -->
<g id="edge24" class="edge">
<title>index.js&#45;&gt;string.js</title>
<path fill="none" stroke="#242424" d="M1159.0694,-1135.3037C1005.1961,-1128.5854 412.6644,-1098.0988 244.8,-1021 209.1406,-1004.6219 176.5248,-974.9174 152.7571,-949.2104"/>
<polygon fill="#242424" stroke="#242424" points="155.2901,-946.7933 145.9829,-941.7311 150.1018,-951.4925 155.2901,-946.7933"/>
</g>
<!-- ternary.js -->
<g id="node22" class="node">
<title>ternary.js</title>
<polygon fill="none" stroke="#242424" stroke-width="4" points="1536.8,-409.8 1448.8,-409.8 1448.8,-321.8 1536.8,-321.8 1536.8,-409.8"/>
<text text-anchor="middle" x="1492.8" y="-363.4" font-family="Fira Code" font-size="12.00" fill="#242424">ternary.js</text>
</g>
<!-- index.js&#45;&gt;ternary.js -->
<g id="edge25" class="edge">
<title>index.js&#45;&gt;ternary.js</title>
<path fill="none" stroke="#242424" d="M1232.5701,-1130.5886C1287.427,-1119.2492 1389.7002,-1089.7052 1440.8,-1021 1577.0807,-837.7667 1532.0684,-540.6145 1505.9268,-419.6275"/>
<polygon fill="#242424" stroke="#242424" points="1509.3417,-418.8602 1503.7712,-409.8479 1502.5058,-420.3669 1509.3417,-418.8602"/>
</g>
<!-- triplet.js -->
<g id="node23" class="node">
<title>triplet.js</title>
<polygon fill="none" stroke="#242424" stroke-width="4" points="1220.8,-659.6 1132.8,-659.6 1132.8,-571.6 1220.8,-571.6 1220.8,-659.6"/>
<text text-anchor="middle" x="1176.8" y="-613.2" font-family="Fira Code" font-size="12.00" fill="#242424">triplet.js</text>
</g>
<!-- index.js&#45;&gt;triplet.js -->
<g id="edge26" class="edge">
<title>index.js&#45;&gt;triplet.js</title>
<path fill="none" stroke="#242424" d="M1194.464,-1100.1502C1191.1737,-1009.892 1182.6657,-776.5058 1178.7838,-670.0175"/>
<polygon fill="#242424" stroke="#242424" points="1182.2738,-669.6773 1178.4117,-659.8115 1175.2784,-669.9324 1182.2738,-669.6773"/>
</g>
<!-- types.js -->
<g id="node24" class="node">
<title>types.js</title>
<polygon fill="none" stroke="#242424" stroke-width="4" points="1677.4011,-402.4011 1604.1989,-402.4011 1604.1989,-329.1989 1677.4011,-329.1989 1677.4011,-402.4011"/>
<text text-anchor="middle" x="1640.8" y="-363.4" font-family="Fira Code" font-size="12.00" fill="#242424">types.js</text>
</g>
<!-- index.js&#45;&gt;types.js -->
<g id="edge27" class="edge">
<title>index.js&#45;&gt;types.js</title>
<path fill="none" stroke="#242424" d="M1232.5138,-1131.9796C1328.5518,-1118.6671 1583.9135,-1078.5338 1643.8,-1021 1804.6495,-866.4695 1800.0369,-743.1644 1739.8,-528.4 1727.5921,-484.8748 1700.1685,-441.4434 1677.2732,-410.4302"/>
<polygon fill="#242424" stroke="#242424" points="1680.0623,-408.3158 1671.2578,-402.4224 1674.4655,-412.52 1680.0623,-408.3158"/>
</g>
<!-- which.js -->
<g id="node25" class="node">
<title>which.js</title>
<polygon fill="none" stroke="#242424" stroke-width="4" points="1145.4011,-938.0011 1072.1989,-938.0011 1072.1989,-864.7989 1145.4011,-864.7989 1145.4011,-938.0011"/>
<text text-anchor="middle" x="1108.8" y="-899" font-family="Fira Code" font-size="12.00" fill="#242424">which.js</text>
</g>
<!-- index.js&#45;&gt;which.js -->
<g id="edge28" class="edge">
<title>index.js&#45;&gt;which.js</title>
<path fill="none" stroke="#242424" d="M1182.2063,-1100.0187C1167.0237,-1058.9386 1142.4206,-992.3688 1125.9329,-947.7574"/>
<polygon fill="#242424" stroke="#242424" points="1129.1913,-946.4772 1122.4416,-938.3106 1122.6253,-948.9039 1129.1913,-946.4772"/>
</g>
<!-- iterate.js&#45;&gt;katsu&#45;curry/katsu&#45;curry.js -->
<g id="edge29" class="edge">
<title>iterate.js&#45;&gt;katsu&#45;curry/katsu&#45;curry.js</title>
<path fill="none" stroke="#242424" d="M584.9765,-321.7941C593.3775,-307.4824 604.3508,-292.6193 617.8,-282.2 750.6227,-179.3003 943.9937,-134.0467 1064.9778,-114.8591"/>
<polygon fill="#242424" stroke="#242424" points="1065.6621,-118.2949 1075.0067,-113.302 1064.5881,-111.3777 1065.6621,-118.2949"/>
</g>
<!-- map.js&#45;&gt;entrust/entrust.js -->
<g id="edge30" class="edge">
<title>map.js&#45;&gt;entrust/entrust.js</title>
<path fill="none" stroke="#242424" d="M375.8957,-585.6239C370.2647,-567.0648 360.5935,-543.8997 344.8,-528.4 279.2356,-464.0554 229.7896,-501.0188 153.8,-449.4 151.679,-447.9593 149.5693,-446.456 147.475,-444.8999"/>
<polygon fill="#242424" stroke="#242424" points="149.5173,-442.054 139.4818,-438.6568 145.2084,-447.5707 149.5173,-442.054"/>
</g>
<!-- map.js&#45;&gt;katsu&#45;curry/katsu&#45;curry.js -->
<g id="edge33" class="edge">
<title>map.js&#45;&gt;katsu&#45;curry/katsu&#45;curry.js</title>
<path fill="none" stroke="#242424" d="M397.1641,-585.8699C405.5279,-568.8866 416.4376,-547.2784 426.8,-528.4 446.4586,-492.5855 458.6429,-487.3394 473.8,-449.4 502.0722,-378.6324 459.0494,-337.1978 511.8,-282.2 587.7669,-202.9968 896.4104,-144.5587 1065.202,-117.8029"/>
<polygon fill="#242424" stroke="#242424" points="1065.7856,-121.2542 1075.1197,-116.2418 1064.6971,-114.3394 1065.7856,-121.2542"/>
</g>
<!-- fantasy&#45;land/index.js -->
<g id="node26" class="node">
<title>fantasy&#45;land/index.js</title>
<polygon fill="none" stroke="#0c821d" stroke-width="4" points="330.5001,-449.5001 163.0999,-449.5001 163.0999,-282.0999 330.5001,-282.0999 330.5001,-449.5001"/>
<text text-anchor="middle" x="246.8" y="-363.4" font-family="Fira Code" font-size="12.00" fill="#0c821d">fantasy&#45;land/index.js</text>
</g>
<!-- map.js&#45;&gt;fantasy&#45;land/index.js -->
<g id="edge31" class="edge">
<title>map.js&#45;&gt;fantasy&#45;land/index.js</title>
<path fill="none" stroke="#242424" d="M370.9078,-585.6843C363.8504,-568.6409 354.423,-547.0346 344.8,-528.4 332.798,-505.1586 318.8192,-480.7007 305.2428,-458.0141"/>
<polygon fill="#242424" stroke="#242424" points="308.2205,-456.1742 300.0641,-449.4123 302.2234,-459.7847 308.2205,-456.1742"/>
</g>
<!-- fast.js/map.js -->
<g id="node27" class="node">
<title>fast.js/map.js</title>
<polygon fill="none" stroke="#0c821d" stroke-width="4" points="465.1002,-424.1002 348.4998,-424.1002 348.4998,-307.4998 465.1002,-307.4998 465.1002,-424.1002"/>
<text text-anchor="middle" x="406.8" y="-363.4" font-family="Fira Code" font-size="12.00" fill="#0c821d">fast.js/map.js</text>
</g>
<!-- map.js&#45;&gt;fast.js/map.js -->
<g id="edge32" class="edge">
<title>map.js&#45;&gt;fast.js/map.js</title>
<path fill="none" stroke="#242424" d="M385.6474,-585.9637C389.2136,-548.8451 395.4351,-484.0899 400.2106,-434.3847"/>
<polygon fill="#242424" stroke="#242424" points="403.7032,-434.6288 401.1757,-424.3399 396.7353,-433.9593 403.7032,-434.6288"/>
</g>
<!-- math.js&#45;&gt;katsu&#45;curry/katsu&#45;curry.js -->
<g id="edge34" class="edge">
<title>math.js&#45;&gt;katsu&#45;curry/katsu&#45;curry.js</title>
<path fill="none" stroke="#242424" d="M988.1565,-332.3389C1013.1622,-301.7532 1051.5683,-254.7769 1087.2161,-211.1744"/>
<polygon fill="#242424" stroke="#242424" points="1089.9839,-213.3186 1093.6038,-203.3613 1084.5645,-208.8879 1089.9839,-213.3186"/>
</g>
<!-- random&#45;floor.js&#45;&gt;katsu&#45;curry/katsu&#45;curry.js -->
<g id="edge35" class="edge">
<title>random&#45;floor.js&#45;&gt;katsu&#45;curry/katsu&#45;curry.js</title>
<path fill="none" stroke="#242424" d="M739.5804,-303.7606C747.5343,-295.9441 756.0389,-288.4951 764.8,-282.2 857.4148,-215.6538 978.4252,-166.2632 1065.3026,-136.1089"/>
<polygon fill="#242424" stroke="#242424" points="1066.6079,-139.3612 1074.9258,-132.7988 1064.3311,-132.7418 1066.6079,-139.3612"/>
</g>
<!-- random&#45;take.js&#45;&gt;katsu&#45;curry/katsu&#45;curry.js -->
<g id="edge36" class="edge">
<title>random&#45;take.js&#45;&gt;katsu&#45;curry/katsu&#45;curry.js</title>
<path fill="none" stroke="#242424" d="M608.8941,-557.0109C617.6276,-546.9614 627.1078,-536.9999 636.8,-528.4 685.3982,-485.2786 721.7437,-502.0588 759.8,-449.4 804.7436,-387.2112 754.1767,-341.5561 802.8,-282.2 869.3455,-200.9657 981.2182,-153.7093 1065.3084,-128.0619"/>
<polygon fill="#242424" stroke="#242424" points="1066.3251,-131.4111 1074.9028,-125.1922 1064.3192,-124.7046 1066.3251,-131.4111"/>
</g>
<!-- random&#45;take.js&#45;&gt;iterate.js -->
<g id="edge37" class="edge">
<title>random&#45;take.js&#45;&gt;iterate.js</title>
<path fill="none" stroke="#242424" d="M564.8,-557.033C564.8,-515.6437 564.8,-460.5638 564.8,-420.1491"/>
<polygon fill="#242424" stroke="#242424" points="568.3001,-419.9469 564.8,-409.947 561.3001,-419.947 568.3001,-419.9469"/>
</g>
<!-- random&#45;take.js&#45;&gt;random&#45;floor.js -->
<g id="edge38" class="edge">
<title>random&#45;take.js&#45;&gt;random&#45;floor.js</title>
<path fill="none" stroke="#242424" d="M593.8725,-557.033C611.6993,-521.1207 634.6424,-474.9014 653.5072,-436.8979"/>
<polygon fill="#242424" stroke="#242424" points="656.6496,-438.4391 657.961,-427.9257 650.3796,-435.3267 656.6496,-438.4391"/>
</g>
<!-- random&#45;word.js&#45;&gt;array.js -->
<g id="edge40" class="edge">
<title>random&#45;word.js&#45;&gt;array.js</title>
<path fill="none" stroke="#242424" d="M544.3202,-867.2346C487.5128,-831.7833 401.6001,-771.9093 343.8,-702.8 333.5793,-690.5795 324.8209,-675.6512 317.8203,-661.624"/>
<polygon fill="#242424" stroke="#242424" points="320.9589,-660.0744 313.4761,-652.5738 314.6483,-663.1036 320.9589,-660.0744"/>
</g>
<!-- random&#45;word.js&#45;&gt;katsu&#45;curry/katsu&#45;curry.js -->
<g id="edge39" class="edge">
<title>random&#45;word.js&#45;&gt;katsu&#45;curry/katsu&#45;curry.js</title>
<path fill="none" stroke="#242424" d="M612.1922,-843.0713C628.3837,-744.7935 661.4771,-554.3311 678.8,-528.4 713.6535,-476.227 750.5473,-492.8624 795.8,-449.4 862.3355,-385.4968 852.8046,-346.6608 918.8,-282.2 962.9852,-239.0422 1018.4139,-198.806 1066.5591,-167.3169"/>
<polygon fill="#242424" stroke="#242424" points="1068.6667,-170.1216 1075.1484,-161.7408 1064.8551,-164.2503 1068.6667,-170.1216"/>
</g>
<!-- random&#45;word.js&#45;&gt;random&#45;take.js -->
<g id="edge41" class="edge">
<title>random&#45;word.js&#45;&gt;random&#45;take.js</title>
<path fill="none" stroke="#242424" d="M595.0184,-842.8744C588.8964,-796.8301 580.3533,-732.5774 573.9121,-684.1327"/>
<polygon fill="#242424" stroke="#242424" points="577.3587,-683.4987 572.5712,-674.0473 570.4198,-684.4214 577.3587,-683.4987"/>
</g>
<!-- reduce.js&#45;&gt;katsu&#45;curry/katsu&#45;curry.js -->
<g id="edge43" class="edge">
<title>reduce.js&#45;&gt;katsu&#45;curry/katsu&#45;curry.js</title>
<path fill="none" stroke="#242424" d="M1592.1222,-860.7128C1583.1071,-724.7786 1553.9686,-294.2094 1545.8,-282.2 1486.8002,-195.4595 1373.7912,-148.7755 1288.3091,-124.7525"/>
<polygon fill="#242424" stroke="#242424" points="1289.1228,-121.3465 1278.5531,-122.075 1287.2701,-128.0969 1289.1228,-121.3465"/>
</g>
<!-- fast.js/reduce.js -->
<g id="node28" class="node">
<title>fast.js/reduce.js</title>
<polygon fill="none" stroke="#0c821d" stroke-width="4" points="1731.2006,-685.0006 1592.3994,-685.0006 1592.3994,-546.1994 1731.2006,-546.1994 1731.2006,-685.0006"/>
<text text-anchor="middle" x="1661.8" y="-613.2" font-family="Fira Code" font-size="12.00" fill="#0c821d">fast.js/reduce.js</text>
</g>
<!-- reduce.js&#45;&gt;fast.js/reduce.js -->
<g id="edge42" class="edge">
<title>reduce.js&#45;&gt;fast.js/reduce.js</title>
<path fill="none" stroke="#242424" d="M1604.2574,-861.058C1614.3429,-818.0366 1630.5732,-748.8034 1643.2295,-694.8159"/>
<polygon fill="#242424" stroke="#242424" points="1646.6739,-695.4573 1645.5488,-684.9224 1639.8587,-693.8596 1646.6739,-695.4573"/>
</g>
<!-- reject.js&#45;&gt;katsu&#45;curry/katsu&#45;curry.js -->
<g id="edge45" class="edge">
<title>reject.js&#45;&gt;katsu&#45;curry/katsu&#45;curry.js</title>
<path fill="none" stroke="#242424" d="M1413.4597,-861.0216C1447.6264,-791.8958 1506.5534,-646.8758 1469.8,-528.4 1432.5225,-408.2349 1348.4041,-291.8702 1279.8175,-211.0796"/>
<polygon fill="#242424" stroke="#242424" points="1282.3886,-208.7009 1273.2307,-203.3733 1277.0675,-213.249 1282.3886,-208.7009"/>
</g>
<!-- reject.js&#45;&gt;fast.js/filter.js -->
<g id="edge44" class="edge">
<title>reject.js&#45;&gt;fast.js/filter.js</title>
<path fill="none" stroke="#242424" d="M1391.8,-861.058C1391.8,-818.1258 1391.8,-749.0905 1391.8,-695.1521"/>
<polygon fill="#242424" stroke="#242424" points="1395.3001,-694.9224 1391.8,-684.9224 1388.3001,-694.9224 1395.3001,-694.9224"/>
</g>
<!-- string.js&#45;&gt;entrust/entrust.js -->
<g id="edge46" class="edge">
<title>string.js&#45;&gt;entrust/entrust.js</title>
<path fill="none" stroke="#242424" d="M110.6847,-860.7033C103.982,-773.1431 88.0783,-565.3865 79.1542,-448.8079"/>
<polygon fill="#242424" stroke="#242424" points="82.6189,-448.2111 78.3657,-438.5074 75.6393,-448.7454 82.6189,-448.2111"/>
</g>
<!-- ternary.js&#45;&gt;katsu&#45;curry/katsu&#45;curry.js -->
<g id="edge47" class="edge">
<title>ternary.js&#45;&gt;katsu&#45;curry/katsu&#45;curry.js</title>
<path fill="none" stroke="#242424" d="M1466.3007,-321.4407C1457.2164,-308.0569 1446.3922,-293.8409 1434.8,-282.2 1391.126,-238.3428 1335.6278,-197.9582 1287.3028,-166.551"/>
<polygon fill="#242424" stroke="#242424" points="1288.9812,-163.4688 1278.6799,-160.9921 1285.1883,-169.3522 1288.9812,-163.4688"/>
</g>
<!-- triplet.js&#45;&gt;katsu&#45;curry/katsu&#45;curry.js -->
<g id="edge48" class="edge">
<title>triplet.js&#45;&gt;katsu&#45;curry/katsu&#45;curry.js</title>
<path fill="none" stroke="#242424" d="M1176.8,-571.3318C1176.8,-492.5203 1176.8,-325.6514 1176.8,-213.5423"/>
<polygon fill="#242424" stroke="#242424" points="1180.3001,-213.2071 1176.8,-203.2071 1173.3001,-213.2072 1180.3001,-213.2071"/>
</g>
<!-- types.js&#45;&gt;katsu&#45;curry/katsu&#45;curry.js -->
<g id="edge49" class="edge">
<title>types.js&#45;&gt;katsu&#45;curry/katsu&#45;curry.js</title>
<path fill="none" stroke="#242424" d="M1619.5495,-329.0877C1608.9008,-313.1024 1594.8505,-295.112 1578.8,-282.2 1492.0336,-212.3999 1373.9885,-163.592 1288.2758,-134.4681"/>
<polygon fill="#242424" stroke="#242424" points="1289.3701,-131.1435 1278.7761,-131.2757 1287.1402,-137.7789 1289.3701,-131.1435"/>
</g>
<!-- which.js&#45;&gt;katsu&#45;curry/katsu&#45;curry.js -->
<g id="edge52" class="edge">
<title>which.js&#45;&gt;katsu&#45;curry/katsu&#45;curry.js</title>
<path fill="none" stroke="#242424" d="M1109.2647,-864.5429C1110.3361,-797.5287 1113.7167,-651.2867 1123.8,-528.4 1132.5957,-421.2059 1148.2734,-299.5145 1160.3036,-213.5795"/>
<polygon fill="#242424" stroke="#242424" points="1163.7882,-213.9332 1161.7147,-203.5433 1156.8564,-212.9585 1163.7882,-213.9332"/>
</g>
<!-- which.js&#45;&gt;flip.js -->
<g id="edge53" class="edge">
<title>which.js&#45;&gt;flip.js</title>
<path fill="none" stroke="#242424" d="M1132.6572,-864.704C1157.9039,-825.3216 1198.3624,-760.6161 1229.8,-702.8 1237.5698,-688.5107 1245.4686,-672.5604 1252.288,-658.2481"/>
<polygon fill="#242424" stroke="#242424" points="1255.4964,-659.6504 1256.6013,-649.1134 1249.1665,-656.6616 1255.4964,-659.6504"/>
</g>
<!-- which.js&#45;&gt;triplet.js -->
<g id="edge54" class="edge">
<title>which.js&#45;&gt;triplet.js</title>
<path fill="none" stroke="#242424" d="M1117.5506,-864.6217C1129.3265,-815.1283 1150.3601,-726.7254 1163.9381,-669.6576"/>
<polygon fill="#242424" stroke="#242424" points="1167.3898,-670.271 1166.2996,-659.7324 1160.5799,-668.6507 1167.3898,-670.271"/>
</g>
<!-- fast.js/array/every.js -->
<g id="node29" class="node">
<title>fast.js/array/every.js</title>
<polygon fill="none" stroke="#0c821d" stroke-width="4" points="1077.2005,-703.0005 902.3995,-703.0005 902.3995,-528.1995 1077.2005,-528.1995 1077.2005,-703.0005"/>
<text text-anchor="middle" x="989.8" y="-613.2" font-family="Fira Code" font-size="12.00" fill="#0c821d">fast.js/array/every.js</text>
</g>
<!-- which.js&#45;&gt;fast.js/array/every.js -->
<g id="edge50" class="edge">
<title>which.js&#45;&gt;fast.js/array/every.js</title>
<path fill="none" stroke="#242424" d="M1093.4864,-864.6217C1077.5272,-826.2928 1051.8517,-764.6284 1030.0443,-712.2539"/>
<polygon fill="#242424" stroke="#242424" points="1033.236,-710.8138 1026.161,-702.9274 1026.7738,-713.5046 1033.236,-710.8138"/>
</g>
<!-- fast.js/array/some.js -->
<g id="node30" class="node">
<title>fast.js/array/some.js</title>
<polygon fill="none" stroke="#0c821d" stroke-width="4" points="884.5001,-699.3001 717.0999,-699.3001 717.0999,-531.8999 884.5001,-531.8999 884.5001,-699.3001"/>
<text text-anchor="middle" x="800.8" y="-613.2" font-family="Fira Code" font-size="12.00" fill="#0c821d">fast.js/array/some.js</text>
</g>
<!-- which.js&#45;&gt;fast.js/array/some.js -->
<g id="edge51" class="edge">
<title>which.js&#45;&gt;fast.js/array/some.js</title>
<path fill="none" stroke="#242424" d="M1071.8199,-867.3955C1028.9212,-827.9129 956.106,-760.7853 893.8,-702.8 893.1266,-702.1733 892.4505,-701.544 891.7721,-700.9122"/>
<polygon fill="#242424" stroke="#242424" points="894.1258,-698.3214 884.4239,-694.0639 889.3532,-703.4423 894.1258,-698.3214"/>
</g>
</g>
</svg>
