<?xml version="1.0" encoding="UTF-8" standalone="no"?>
<!DOCTYPE svg PUBLIC "-//W3C//DTD SVG 1.1//EN"
 "http://www.w3.org/Graphics/SVG/1.1/DTD/svg11.dtd">
<!-- Generated by graphviz version 2.40.1 (20161225.0304)
 -->
<!-- Title: G Pages: 1 -->
<svg width="3699pt" height="1733pt"
 viewBox="0.00 0.00 3698.86 1732.68" xmlns="http://www.w3.org/2000/svg" xmlns:xlink="http://www.w3.org/1999/xlink">
<g id="graph0" class="graph" transform="scale(1 1) rotate(0) translate(7.992 1724.6872)">
<title>G</title>
<polygon fill="#eeeeff" stroke="transparent" points="-7.992,7.992 -7.992,-1724.6872 3690.867,-1724.6872 3690.867,7.992 -7.992,7.992"/>
<!-- ../package.json -->
<g id="node1" class="node">
<title>../package.json</title>
<ellipse fill="none" stroke="#0c821d" stroke-width="4" cx="79.1988" cy="-1455.2824" rx="79.3981" ry="79.3981"/>
<text text-anchor="middle" x="79.1988" y="-1452.8824" font-family="Fira Code" font-size="12.00" fill="#0c821d">../package.json</text>
</g>
<!-- ap.js -->
<g id="node2" class="node">
<title>ap.js</title>
<ellipse fill="none" stroke="#242424" stroke-width="4" cx="523.1988" cy="-1455.2824" rx="33.4262" ry="33.4262"/>
<text text-anchor="middle" x="523.1988" y="-1452.8824" font-family="Fira Code" font-size="12.00" fill="#242424">ap.js</text>
</g>
<!-- Ⓜ katsu&#45;curry/katsu&#45;curry.js -->
<g id="node3" class="node">
<title>Ⓜ katsu&#45;curry/katsu&#45;curry.js</title>
<ellipse fill="none" stroke="#0c821d" stroke-width="4" cx="1356.1988" cy="-153.4077" rx="153.3154" ry="153.3154"/>
<text text-anchor="middle" x="1356.1988" y="-152.2077" font-family="Fira Code" font-size="12.00" fill="#0c821d">Ⓜ katsu&#45;curry/katsu&#45;curry.js</text>
</g>
<!-- ap.js&#45;&gt;Ⓜ katsu&#45;curry/katsu&#45;curry.js -->
<g id="edge1" class="edge">
<title>ap.js&#45;&gt;Ⓜ katsu&#45;curry/katsu&#45;curry.js</title>
<path fill="none" stroke="#242424" d="M498.4827,-1432.5C453.7893,-1391.042 363.3797,-1305.8771 355.1988,-1287.8863 334.4419,-1242.2395 292.8775,-424.9747 324.1988,-385.8153 431.1918,-252.0478 930.2071,-189.8261 1193.1283,-165.9086"/>
<polygon fill="#242424" stroke="#242424" points="1193.5069,-169.3888 1203.1522,-165.0049 1192.8783,-162.4171 1193.5069,-169.3888"/>
</g>
<!-- map.js -->
<g id="node4" class="node">
<title>map.js</title>
<ellipse fill="none" stroke="#242424" stroke-width="4" cx="1006.1988" cy="-1154.3444" rx="37.623" ry="37.623"/>
<text text-anchor="middle" x="1006.1988" y="-1151.9444" font-family="Fira Code" font-size="12.00" fill="#242424">map.js</text>
</g>
<!-- ap.js&#45;&gt;map.js -->
<g id="edge2" class="edge">
<title>ap.js&#45;&gt;map.js</title>
<path fill="none" stroke="#242424" d="M543.1713,-1428.6309C558.2204,-1409.784 580.1481,-1384.7861 603.1988,-1366.8863 720.9266,-1275.4661 883.6967,-1203.4709 961.409,-1171.8382"/>
<polygon fill="#242424" stroke="#242424" points="962.9424,-1174.9937 970.9033,-1168.0026 960.3203,-1168.5033 962.9424,-1174.9937"/>
</g>
<!-- reduce.js -->
<g id="node5" class="node">
<title>reduce.js</title>
<ellipse fill="none" stroke="#242424" stroke-width="4" cx="654.1988" cy="-1154.3444" rx="51.7142" ry="51.7142"/>
<text text-anchor="middle" x="654.1988" y="-1151.9444" font-family="Fira Code" font-size="12.00" fill="#242424">reduce.js</text>
</g>
<!-- ap.js&#45;&gt;reduce.js -->
<g id="edge3" class="edge">
<title>ap.js&#45;&gt;reduce.js</title>
<path fill="none" stroke="#242424" d="M536.4807,-1424.7708C558.2283,-1374.8115 601.7698,-1274.7863 629.3688,-1211.3847"/>
<polygon fill="#242424" stroke="#242424" points="632.7059,-1212.4878 633.4881,-1201.9219 626.2876,-1209.6939 632.7059,-1212.4878"/>
</g>
<!-- types.js -->
<g id="node6" class="node">
<title>types.js</title>
<ellipse fill="none" stroke="#242424" stroke-width="4" cx="261.1988" cy="-1154.3444" rx="47.0167" ry="47.0167"/>
<text text-anchor="middle" x="261.1988" y="-1151.9444" font-family="Fira Code" font-size="12.00" fill="#242424">types.js</text>
</g>
<!-- ap.js&#45;&gt;types.js -->
<g id="edge4" class="edge">
<title>ap.js&#45;&gt;types.js</title>
<path fill="none" stroke="#242424" d="M494.7523,-1437.6438C452.3585,-1410.1498 372.2395,-1353.3817 322.1988,-1287.8863 304.0864,-1264.1801 289.7848,-1234.2353 279.5955,-1208.7122"/>
<polygon fill="#242424" stroke="#242424" points="282.773,-1207.2256 275.8924,-1199.169 276.2471,-1209.7579 282.773,-1207.2256"/>
</g>
<!-- map.js&#45;&gt;Ⓜ katsu&#45;curry/katsu&#45;curry.js -->
<g id="edge55" class="edge">
<title>map.js&#45;&gt;Ⓜ katsu&#45;curry/katsu&#45;curry.js</title>
<path fill="none" stroke="#242424" d="M1013.8996,-1117.0464C1021.347,-1088.2573 1034.9977,-1048.7524 1058.1988,-1020.8025 1100.6565,-969.6546 1150.6947,-998.62 1185.1988,-941.8025 1249.522,-835.8822 1192.7269,-504.5517 1228.1988,-385.8153 1237.7694,-353.7793 1252.203,-321.2262 1267.9725,-291.0247"/>
<polygon fill="#242424" stroke="#242424" points="1271.0846,-292.6267 1272.6781,-282.1524 1264.9006,-289.3468 1271.0846,-292.6267"/>
</g>
<!-- Ⓜ fast.js/map.js -->
<g id="node40" class="node">
<title>Ⓜ fast.js/map.js</title>
<ellipse fill="none" stroke="#0c821d" stroke-width="4" cx="906.1988" cy="-833.0928" rx="93.6213" ry="93.6213"/>
<text text-anchor="middle" x="906.1988" y="-831.8928" font-family="Fira Code" font-size="12.00" fill="#0c821d">Ⓜ fast.js/map.js</text>
</g>
<!-- map.js&#45;&gt;Ⓜ fast.js/map.js -->
<g id="edge54" class="edge">
<title>map.js&#45;&gt;Ⓜ fast.js/map.js</title>
<path fill="none" stroke="#242424" d="M994.9219,-1118.1172C981.0023,-1073.4002 956.7659,-995.5404 937.1381,-932.4859"/>
<polygon fill="#242424" stroke="#242424" points="940.4679,-931.4066 934.1538,-922.8988 933.7842,-933.4871 940.4679,-931.4066"/>
</g>
<!-- delegate&#45;fast.js -->
<g id="node12" class="node">
<title>delegate&#45;fast.js</title>
<ellipse fill="none" stroke="#242424" stroke-width="4" cx="1618.1988" cy="-515.5992" rx="83.5954" ry="83.5954"/>
<text text-anchor="middle" x="1618.1988" y="-513.1992" font-family="Fira Code" font-size="12.00" fill="#242424">delegate&#45;fast.js</text>
</g>
<!-- reduce.js&#45;&gt;delegate&#45;fast.js -->
<g id="edge72" class="edge">
<title>reduce.js&#45;&gt;delegate&#45;fast.js</title>
<path fill="none" stroke="#242424" d="M648.5174,-1102.943C638.4562,-1000.8039 622.9897,-777.5545 673.1988,-724.383 792.2048,-598.3558 1288.1108,-709.3826 1449.1988,-645.383 1485.9664,-630.7754 1521.5081,-605.7228 1550.4314,-581.5014"/>
<polygon fill="#242424" stroke="#242424" points="1553.0694,-583.8519 1558.4093,-574.7012 1548.5284,-578.5246 1553.0694,-583.8519"/>
</g>
<!-- Ⓜ fast.js/reduce.js -->
<g id="node41" class="node">
<title>Ⓜ fast.js/reduce.js</title>
<ellipse fill="none" stroke="#0c821d" stroke-width="4" cx="517.1988" cy="-833.0928" rx="108.9199" ry="108.9199"/>
<text text-anchor="middle" x="517.1988" y="-831.8928" font-family="Fira Code" font-size="12.00" fill="#0c821d">Ⓜ fast.js/reduce.js</text>
</g>
<!-- reduce.js&#45;&gt;Ⓜ fast.js/reduce.js -->
<g id="edge71" class="edge">
<title>reduce.js&#45;&gt;Ⓜ fast.js/reduce.js</title>
<path fill="none" stroke="#242424" d="M633.8365,-1106.5967C615.443,-1063.4659 587.6863,-998.379 563.8642,-942.5185"/>
<polygon fill="#242424" stroke="#242424" points="567.0668,-941.1059 559.9245,-933.2804 560.6279,-943.8519 567.0668,-941.1059"/>
</g>
<!-- types.js&#45;&gt;Ⓜ katsu&#45;curry/katsu&#45;curry.js -->
<g id="edge79" class="edge">
<title>types.js&#45;&gt;Ⓜ katsu&#45;curry/katsu&#45;curry.js</title>
<path fill="none" stroke="#242424" d="M259.6879,-1107.1437C255.0525,-948.4532 244.0002,-441.0076 290.1988,-385.8153 404.1958,-249.626 923.1884,-188.2526 1192.6686,-165.1642"/>
<polygon fill="#242424" stroke="#242424" points="1193.2707,-168.6258 1202.9388,-164.2925 1192.6786,-161.6509 1193.2707,-168.6258"/>
</g>
<!-- array.js -->
<g id="node7" class="node">
<title>array.js</title>
<ellipse fill="none" stroke="#242424" stroke-width="4" cx="1513.1988" cy="-1154.3444" rx="47.0167" ry="47.0167"/>
<text text-anchor="middle" x="1513.1988" y="-1151.9444" font-family="Fira Code" font-size="12.00" fill="#242424">array.js</text>
</g>
<!-- array.js&#45;&gt;Ⓜ katsu&#45;curry/katsu&#45;curry.js -->
<g id="edge6" class="edge">
<title>array.js&#45;&gt;Ⓜ katsu&#45;curry/katsu&#45;curry.js</title>
<path fill="none" stroke="#242424" d="M1517.3583,-1107.4062C1526.7372,-985.7462 1543.5685,-651.2042 1473.1988,-385.8153 1465.0672,-355.1481 1452.5909,-323.8149 1438.7659,-294.4895"/>
<polygon fill="#242424" stroke="#242424" points="1441.9143,-292.9604 1434.4354,-285.456 1435.6021,-295.9864 1441.9143,-292.9604"/>
</g>
<!-- Ⓜ entrust/entrust.js -->
<g id="node8" class="node">
<title>Ⓜ entrust/entrust.js</title>
<ellipse fill="none" stroke="#0c821d" stroke-width="4" cx="2639.1988" cy="-153.4077" rx="113.8526" ry="113.8526"/>
<text text-anchor="middle" x="2639.1988" y="-152.2077" font-family="Fira Code" font-size="12.00" fill="#0c821d">Ⓜ entrust/entrust.js</text>
</g>
<!-- array.js&#45;&gt;Ⓜ entrust/entrust.js -->
<g id="edge5" class="edge">
<title>array.js&#45;&gt;Ⓜ entrust/entrust.js</title>
<path fill="none" stroke="#242424" d="M1532.107,-1111.015C1547.7193,-1080.6497 1572.8884,-1041.8656 1607.1988,-1020.8025 1816.1586,-892.5228 1957.739,-1089.8409 2153.1988,-941.8025 2368.7465,-778.5499 2245.5826,-607.6397 2400.1988,-385.8153 2440.1736,-328.4644 2495.6325,-273.494 2543.0647,-231.4253"/>
<polygon fill="#242424" stroke="#242424" points="2545.4126,-234.0214 2550.6047,-224.7859 2540.7866,-228.7678 2545.4126,-234.0214"/>
</g>
<!-- filter.js -->
<g id="node9" class="node">
<title>filter.js</title>
<ellipse fill="none" stroke="#242424" stroke-width="4" cx="1588.1988" cy="-833.0928" rx="51.7142" ry="51.7142"/>
<text text-anchor="middle" x="1588.1988" y="-830.6928" font-family="Fira Code" font-size="12.00" fill="#242424">filter.js</text>
</g>
<!-- array.js&#45;&gt;filter.js -->
<g id="edge7" class="edge">
<title>array.js&#45;&gt;filter.js</title>
<path fill="none" stroke="#242424" d="M1523.9445,-1108.3169C1537.124,-1051.8644 1559.5032,-956.0064 1574.0659,-893.6291"/>
<polygon fill="#242424" stroke="#242424" points="1577.5572,-894.0692 1576.4224,-883.5353 1570.7405,-892.4777 1577.5572,-894.0692"/>
</g>
<!-- filter.js&#45;&gt;delegate&#45;fast.js -->
<g id="edge15" class="edge">
<title>filter.js&#45;&gt;delegate&#45;fast.js</title>
<path fill="none" stroke="#242424" d="M1593.0856,-781.3753C1597.479,-734.8792 1604.0391,-665.4536 1609.3527,-609.2187"/>
<polygon fill="#242424" stroke="#242424" points="1612.8393,-609.5248 1610.2956,-599.2399 1605.8703,-608.8662 1612.8393,-609.5248"/>
</g>
<!-- Ⓜ fast.js/filter.js -->
<g id="node15" class="node">
<title>Ⓜ fast.js/filter.js</title>
<ellipse fill="none" stroke="#0c821d" stroke-width="4" cx="1829.1988" cy="-515.5992" rx="108.9199" ry="108.9199"/>
<text text-anchor="middle" x="1829.1988" y="-514.3992" font-family="Fira Code" font-size="12.00" fill="#0c821d">Ⓜ fast.js/filter.js</text>
</g>
<!-- filter.js&#45;&gt;Ⓜ fast.js/filter.js -->
<g id="edge14" class="edge">
<title>filter.js&#45;&gt;Ⓜ fast.js/filter.js</title>
<path fill="none" stroke="#242424" d="M1619.4583,-791.9115C1654.1355,-746.2277 1711.2451,-670.9915 1757.122,-610.5533"/>
<polygon fill="#242424" stroke="#242424" points="1759.972,-612.5875 1763.2303,-602.5061 1754.3963,-608.3552 1759.972,-612.5875"/>
</g>
<!-- chain.js -->
<g id="node10" class="node">
<title>chain.js</title>
<ellipse fill="none" stroke="#242424" stroke-width="4" cx="1699.1988" cy="-1455.2824" rx="47.0167" ry="47.0167"/>
<text text-anchor="middle" x="1699.1988" y="-1452.8824" font-family="Fira Code" font-size="12.00" fill="#242424">chain.js</text>
</g>
<!-- Ⓜ flatmap&#45;fast/index.js -->
<g id="node11" class="node">
<title>Ⓜ flatmap&#45;fast/index.js</title>
<ellipse fill="none" stroke="#0c821d" stroke-width="4" cx="1745.1988" cy="-1154.3444" rx="128.651" ry="128.651"/>
<text text-anchor="middle" x="1745.1988" y="-1153.1444" font-family="Fira Code" font-size="12.00" fill="#0c821d">Ⓜ flatmap&#45;fast/index.js</text>
</g>
<!-- chain.js&#45;&gt;Ⓜ flatmap&#45;fast/index.js -->
<g id="edge8" class="edge">
<title>chain.js&#45;&gt;Ⓜ flatmap&#45;fast/index.js</title>
<path fill="none" stroke="#242424" d="M1706.3358,-1408.5911C1711.1602,-1377.0295 1717.8,-1333.5908 1724.227,-1291.5448"/>
<polygon fill="#242424" stroke="#242424" points="1727.7163,-1291.8802 1725.7676,-1281.4662 1720.7967,-1290.8225 1727.7163,-1291.8802"/>
</g>
<!-- chain.js&#45;&gt;delegate&#45;fast.js -->
<g id="edge9" class="edge">
<title>chain.js&#45;&gt;delegate&#45;fast.js</title>
<path fill="none" stroke="#242424" d="M1718.8758,-1412.2488C1727.3393,-1396.7549 1738.2802,-1379.903 1751.1988,-1366.8863 1799.3612,-1318.3584 1849.4794,-1347.3638 1883.1988,-1287.8863 1941.7417,-1184.6228 1911.593,-1136.0604 1883.1988,-1020.8025 1842.7813,-856.7395 1738.5458,-686.9808 1673.4998,-591.9786"/>
<polygon fill="#242424" stroke="#242424" points="1676.2737,-589.8355 1667.7203,-583.5833 1670.5079,-593.8049 1676.2737,-589.8355"/>
</g>
<!-- delegate&#45;fast.js&#45;&gt;Ⓜ katsu&#45;curry/katsu&#45;curry.js -->
<g id="edge12" class="edge">
<title>delegate&#45;fast.js&#45;&gt;Ⓜ katsu&#45;curry/katsu&#45;curry.js</title>
<path fill="none" stroke="#242424" d="M1568.9186,-447.4737C1536.1374,-402.1566 1491.989,-341.1254 1452.4087,-286.4092"/>
<polygon fill="#242424" stroke="#242424" points="1455.0484,-284.0866 1446.3515,-278.0356 1449.3767,-288.1894 1455.0484,-284.0866"/>
</g>
<!-- delegate&#45;fast.js&#45;&gt;Ⓜ entrust/entrust.js -->
<g id="edge11" class="edge">
<title>delegate&#45;fast.js&#45;&gt;Ⓜ entrust/entrust.js</title>
<path fill="none" stroke="#242424" d="M1657.8354,-441.7092C1672.1691,-420.9511 1690.111,-400.1561 1711.1988,-385.8153 1842.654,-296.419 2296.4293,-210.763 2516.9656,-173.2421"/>
<polygon fill="#242424" stroke="#242424" points="2517.6926,-176.6689 2526.9668,-171.5464 2516.5224,-169.7674 2517.6926,-176.6689"/>
</g>
<!-- choice.js -->
<g id="node13" class="node">
<title>choice.js</title>
<ellipse fill="none" stroke="#242424" stroke-width="4" cx="2461.1988" cy="-515.5992" rx="51.7142" ry="51.7142"/>
<text text-anchor="middle" x="2461.1988" y="-513.1992" font-family="Fira Code" font-size="12.00" fill="#242424">choice.js</text>
</g>
<!-- choice.js&#45;&gt;Ⓜ katsu&#45;curry/katsu&#45;curry.js -->
<g id="edge10" class="edge">
<title>choice.js&#45;&gt;Ⓜ katsu&#45;curry/katsu&#45;curry.js</title>
<path fill="none" stroke="#242424" d="M2418.845,-485.4729C2376.2467,-456.3825 2307.7962,-412.8697 2243.1988,-385.8153 1999.353,-283.6891 1698.6068,-216.2607 1517.3998,-181.4896"/>
<polygon fill="#242424" stroke="#242424" points="1517.9993,-178.0409 1507.5203,-179.6035 1516.6866,-184.9168 1517.9993,-178.0409"/>
</g>
<!-- either.js -->
<g id="node14" class="node">
<title>either.js</title>
<ellipse fill="none" stroke="#242424" stroke-width="4" cx="2787.1988" cy="-515.5992" rx="51.7142" ry="51.7142"/>
<text text-anchor="middle" x="2787.1988" y="-513.1992" font-family="Fira Code" font-size="12.00" fill="#242424">either.js</text>
</g>
<!-- either.js&#45;&gt;Ⓜ entrust/entrust.js -->
<g id="edge13" class="edge">
<title>either.js&#45;&gt;Ⓜ entrust/entrust.js</title>
<path fill="none" stroke="#242424" d="M2767.5456,-467.5029C2746.8935,-416.9624 2713.6552,-335.6204 2686.1784,-268.3779"/>
<polygon fill="#242424" stroke="#242424" points="2689.364,-266.9209 2682.3414,-258.9879 2682.8841,-269.5688 2689.364,-266.9209"/>
</g>
<!-- flip.js -->
<g id="node16" class="node">
<title>flip.js</title>
<ellipse fill="none" stroke="#242424" stroke-width="4" cx="1972.1988" cy="-1154.3444" rx="42.3196" ry="42.3196"/>
<text text-anchor="middle" x="1972.1988" y="-1151.9444" font-family="Fira Code" font-size="12.00" fill="#242424">flip.js</text>
</g>
<!-- flip.js&#45;&gt;Ⓜ katsu&#45;curry/katsu&#45;curry.js -->
<g id="edge16" class="edge">
<title>flip.js&#45;&gt;Ⓜ katsu&#45;curry/katsu&#45;curry.js</title>
<path fill="none" stroke="#242424" d="M1973.5041,-1111.7146C1977.8166,-958.9988 1989.0631,-445.166 1947.1988,-385.8153 1849.9963,-248.0122 1657.9719,-191.9129 1519.1326,-169.0778"/>
<polygon fill="#242424" stroke="#242424" points="1519.6581,-165.6175 1509.2301,-167.4905 1518.5501,-172.5292 1519.6581,-165.6175"/>
</g>
<!-- future.js -->
<g id="node17" class="node">
<title>future.js</title>
<ellipse fill="none" stroke="#242424" stroke-width="4" cx="3003.1988" cy="-833.0928" rx="51.7142" ry="51.7142"/>
<text text-anchor="middle" x="3003.1988" y="-830.6928" font-family="Fira Code" font-size="12.00" fill="#242424">future.js</text>
</g>
<!-- future.js&#45;&gt;Ⓜ entrust/entrust.js -->
<g id="edge17" class="edge">
<title>future.js&#45;&gt;Ⓜ entrust/entrust.js</title>
<path fill="none" stroke="#242424" d="M2994.1512,-782.1269C2976.9019,-695.0501 2933.2184,-514.5772 2848.1988,-385.8153 2819.42,-342.23 2796.9034,-344.9346 2761.1988,-306.8153 2745.3222,-289.865 2729.2398,-271.049 2714.1897,-252.5668"/>
<polygon fill="#242424" stroke="#242424" points="2716.8157,-250.248 2707.8064,-244.6728 2711.3726,-254.6494 2716.8157,-250.248"/>
</g>
<!-- index.js -->
<g id="node18" class="node">
<title>index.js</title>
<ellipse fill="none" stroke="#242424" stroke-width="4" cx="1407.1988" cy="-1669.6868" rx="47.0167" ry="47.0167"/>
<text text-anchor="middle" x="1407.1988" y="-1667.2869" font-family="Fira Code" font-size="12.00" fill="#242424">index.js</text>
</g>
<!-- index.js&#45;&gt;../package.json -->
<g id="edge19" class="edge">
<title>index.js&#45;&gt;../package.json</title>
<path fill="none" stroke="#242424" d="M1360.1457,-1668.9161C1161.2744,-1665.05 389.9332,-1643.7605 172.1988,-1543.6785 160.3442,-1538.2296 149.046,-1530.6468 138.6701,-1522.1919"/>
<polygon fill="#242424" stroke="#242424" points="140.7995,-1519.4079 130.9214,-1515.5773 136.2547,-1524.7319 140.7995,-1519.4079"/>
</g>
<!-- index.js&#45;&gt;ap.js -->
<g id="edge20" class="edge">
<title>index.js&#45;&gt;ap.js</title>
<path fill="none" stroke="#242424" d="M1360.1404,-1668.0686C1203.0423,-1661.8453 699.3053,-1635.0267 570.1988,-1543.6785 554.2766,-1532.4129 543.2822,-1514.0382 535.955,-1496.9518"/>
<polygon fill="#242424" stroke="#242424" points="539.2015,-1495.6438 532.2536,-1487.6452 532.6971,-1498.2308 539.2015,-1495.6438"/>
</g>
<!-- index.js&#45;&gt;Ⓜ katsu&#45;curry/katsu&#45;curry.js -->
<g id="edge18" class="edge">
<title>index.js&#45;&gt;Ⓜ katsu&#45;curry/katsu&#45;curry.js</title>
<path fill="none" stroke="#242424" d="M1454.3825,-1666.2315C1579.3931,-1656.0669 1914.5438,-1621.9279 1987.1988,-1543.6785 2066.4478,-1458.3275 2027.5004,-1137.1928 2023.1988,-1020.8025 2020.5859,-950.1036 2018.6198,-442.4335 1976.1988,-385.8153 1919.4729,-310.1048 1679.3897,-235.6761 1515.1796,-192.1789"/>
<polygon fill="#242424" stroke="#242424" points="1516.0205,-188.781 1505.4587,-189.6165 1514.2362,-195.5498 1516.0205,-188.781"/>
</g>
<!-- index.js&#45;&gt;map.js -->
<g id="edge30" class="edge">
<title>index.js&#45;&gt;map.js</title>
<path fill="none" stroke="#242424" d="M1361.0332,-1660.6408C1300.6723,-1646.3887 1195.7564,-1612.8826 1137.1988,-1543.6785 1084.5308,-1481.4348 1113.7927,-1444.3017 1088.1988,-1366.8863 1068.6931,-1307.8863 1042.2428,-1241.2481 1024.7196,-1198.5714"/>
<polygon fill="#242424" stroke="#242424" points="1027.9504,-1197.225 1020.9038,-1189.3133 1021.4786,-1199.8925 1027.9504,-1197.225"/>
</g>
<!-- index.js&#45;&gt;reduce.js -->
<g id="edge40" class="edge">
<title>index.js&#45;&gt;reduce.js</title>
<path fill="none" stroke="#242424" d="M1360.3373,-1665.2357C1236.0237,-1652.5809 901.6728,-1612.775 818.1988,-1543.6785 765.2823,-1499.8763 701.9998,-1311.7275 671.8522,-1213.9222"/>
<polygon fill="#242424" stroke="#242424" points="675.1415,-1212.7102 668.8651,-1204.1745 668.4487,-1214.7612 675.1415,-1212.7102"/>
</g>
<!-- index.js&#45;&gt;types.js -->
<g id="edge45" class="edge">
<title>index.js&#45;&gt;types.js</title>
<path fill="none" stroke="#242424" d="M1360.1385,-1668.487C1192.8588,-1663.4401 629.1025,-1639.5157 481.1988,-1543.6785 360.9002,-1465.7286 299.6897,-1297.6983 274.911,-1210.0717"/>
<polygon fill="#242424" stroke="#242424" points="278.2492,-1209.0116 272.2072,-1200.3085 271.5032,-1210.8799 278.2492,-1209.0116"/>
</g>
<!-- index.js&#45;&gt;array.js -->
<g id="edge21" class="edge">
<title>index.js&#45;&gt;array.js</title>
<path fill="none" stroke="#242424" d="M1416.6989,-1623.5001C1436.1735,-1528.8198 1480.5602,-1313.0241 1501.654,-1210.4723"/>
<polygon fill="#242424" stroke="#242424" points="1505.0954,-1211.113 1503.6819,-1200.6128 1498.2389,-1209.7026 1505.0954,-1211.113"/>
</g>
<!-- index.js&#45;&gt;filter.js -->
<g id="edge25" class="edge">
<title>index.js&#45;&gt;filter.js</title>
<path fill="none" stroke="#242424" d="M1427.4126,-1627.0354C1438.7857,-1602.7287 1453.0897,-1571.6331 1465.1988,-1543.6785 1513.9788,-1431.0669 1543.141,-1407.8107 1569.1988,-1287.8863 1599.18,-1149.9057 1596.5659,-982.9863 1592.2515,-894.7391"/>
<polygon fill="#242424" stroke="#242424" points="1595.7409,-894.4411 1591.733,-884.6336 1588.7501,-894.7999 1595.7409,-894.4411"/>
</g>
<!-- index.js&#45;&gt;chain.js -->
<g id="edge22" class="edge">
<title>index.js&#45;&gt;chain.js</title>
<path fill="none" stroke="#242424" d="M1448.1033,-1645.9682C1488.5002,-1621.9247 1551.4265,-1582.7878 1602.1988,-1543.6785 1621.2951,-1528.9689 1641.1743,-1511.32 1657.9279,-1495.6736"/>
<polygon fill="#242424" stroke="#242424" points="1660.512,-1498.0478 1665.3915,-1488.6434 1655.7124,-1492.9523 1660.512,-1498.0478"/>
</g>
<!-- index.js&#45;&gt;choice.js -->
<g id="edge23" class="edge">
<title>index.js&#45;&gt;choice.js</title>
<path fill="none" stroke="#242424" d="M1454.2285,-1665.9134C1622.9442,-1652.0095 2196.9706,-1601.4403 2371.1988,-1543.6785 2592.1362,-1470.4313 2710.4772,-1488.685 2828.1988,-1287.8863 2888.2343,-1185.4834 2864.8766,-1133.6979 2828.1988,-1020.8025 2794.7364,-917.8041 2589.9655,-667.8561 2501.6631,-563.0682"/>
<polygon fill="#242424" stroke="#242424" points="2504.1288,-560.5631 2495.004,-555.179 2498.7797,-565.0783 2504.1288,-560.5631"/>
</g>
<!-- index.js&#45;&gt;either.js -->
<g id="edge24" class="edge">
<title>index.js&#45;&gt;either.js</title>
<path fill="none" stroke="#242424" d="M1454.4644,-1667.5077C1675.8153,-1656.9862 2603.8388,-1609.2513 2714.1988,-1543.6785 3043.2754,-1348.1504 2873.3514,-761.5103 2808.6017,-573.9456"/>
<polygon fill="#242424" stroke="#242424" points="2811.8247,-572.558 2805.2305,-564.2653 2805.2141,-574.8602 2811.8247,-572.558"/>
</g>
<!-- index.js&#45;&gt;flip.js -->
<g id="edge26" class="edge">
<title>index.js&#45;&gt;flip.js</title>
<path fill="none" stroke="#242424" d="M1454.3123,-1666.6827C1529.7083,-1659.2321 1676.9293,-1633.3599 1755.1988,-1543.6785 1808.0449,-1483.1273 1747.4355,-1432.9535 1793.1988,-1366.8863 1830.1943,-1313.4769 1874.4194,-1337.6429 1916.1988,-1287.8863 1936.2123,-1264.0515 1949.9652,-1232.04 1958.8322,-1205.3337"/>
<polygon fill="#242424" stroke="#242424" points="1962.1817,-1206.3501 1961.8806,-1195.7595 1955.5116,-1204.2263 1962.1817,-1206.3501"/>
</g>
<!-- index.js&#45;&gt;future.js -->
<g id="edge27" class="edge">
<title>index.js&#45;&gt;future.js</title>
<path fill="none" stroke="#242424" d="M1454.2293,-1669.3294C1699.962,-1667.0057 2829.2165,-1650.539 2937.1988,-1543.6785 3114.3971,-1368.321 3053.8156,-1029.6327 3019.7706,-892.7014"/>
<polygon fill="#242424" stroke="#242424" points="3023.1133,-891.643 3017.2687,-882.8061 3016.3268,-893.359 3023.1133,-891.643"/>
</g>
<!-- invert.js -->
<g id="node19" class="node">
<title>invert.js</title>
<ellipse fill="none" stroke="#242424" stroke-width="4" cx="186.1988" cy="-833.0928" rx="51.7142" ry="51.7142"/>
<text text-anchor="middle" x="186.1988" y="-830.6928" font-family="Fira Code" font-size="12.00" fill="#242424">invert.js</text>
</g>
<!-- index.js&#45;&gt;invert.js -->
<g id="edge28" class="edge">
<title>index.js&#45;&gt;invert.js</title>
<path fill="none" stroke="#242424" d="M1360.2424,-1666.797C1164.3576,-1654.3918 418.5413,-1603.556 333.1988,-1543.6785 124.478,-1397.2372 153.9037,-1038.2017 175.3798,-894.2563"/>
<polygon fill="#242424" stroke="#242424" points="178.855,-894.6844 176.909,-884.2698 171.9356,-893.6248 178.855,-894.6844"/>
</g>
<!-- iterate.js -->
<g id="node20" class="node">
<title>iterate.js</title>
<ellipse fill="none" stroke="#242424" stroke-width="4" cx="738.1988" cy="-833.0928" rx="56.412" ry="56.412"/>
<text text-anchor="middle" x="738.1988" y="-830.6928" font-family="Fira Code" font-size="12.00" fill="#242424">iterate.js</text>
</g>
<!-- index.js&#45;&gt;iterate.js -->
<g id="edge29" class="edge">
<title>index.js&#45;&gt;iterate.js</title>
<path fill="none" stroke="#242424" d="M1360.4186,-1664.8794C1244.3899,-1651.9943 947.9223,-1612.8856 881.1988,-1543.6785 792.4224,-1451.5976 754.4662,-1057.6789 742.599,-899.3582"/>
<polygon fill="#242424" stroke="#242424" points="746.0816,-898.9915 741.8548,-889.2763 739.1006,-899.5069 746.0816,-898.9915"/>
</g>
<!-- math.js -->
<g id="node21" class="node">
<title>math.js</title>
<ellipse fill="none" stroke="#242424" stroke-width="4" cx="406.1988" cy="-1154.3444" rx="42.3196" ry="42.3196"/>
<text text-anchor="middle" x="406.1988" y="-1151.9444" font-family="Fira Code" font-size="12.00" fill="#242424">math.js</text>
</g>
<!-- index.js&#45;&gt;math.js -->
<g id="edge31" class="edge">
<title>index.js&#45;&gt;math.js</title>
<path fill="none" stroke="#242424" d="M1360.1598,-1669.049C1205.073,-1665.9558 713.5108,-1647.9528 603.1988,-1543.6785 544.7936,-1488.47 608.1695,-1434.803 565.1988,-1366.8863 534.3526,-1318.1328 497.4244,-1333.5761 462.1988,-1287.8863 443.3472,-1263.4347 429.6951,-1231.7101 420.5923,-1205.3179"/>
<polygon fill="#242424" stroke="#242424" points="423.8011,-1203.8753 417.325,-1195.4902 417.1586,-1206.0837 423.8011,-1203.8753"/>
</g>
<!-- object.js -->
<g id="node22" class="node">
<title>object.js</title>
<ellipse fill="none" stroke="#242424" stroke-width="4" cx="1027.1988" cy="-1455.2824" rx="51.7142" ry="51.7142"/>
<text text-anchor="middle" x="1027.1988" y="-1452.8824" font-family="Fira Code" font-size="12.00" fill="#242424">object.js</text>
</g>
<!-- index.js&#45;&gt;object.js -->
<g id="edge32" class="edge">
<title>index.js&#45;&gt;object.js</title>
<path fill="none" stroke="#242424" d="M1361.23,-1659.1183C1296.9935,-1642.6632 1178.9702,-1606.1437 1096.1988,-1543.6785 1082.9439,-1533.6754 1070.8617,-1520.5248 1060.6422,-1507.4346"/>
<polygon fill="#242424" stroke="#242424" points="1063.3403,-1505.1994 1054.5261,-1499.3206 1057.7505,-1509.4129 1063.3403,-1505.1994"/>
</g>
<!-- path.js -->
<g id="node23" class="node">
<title>path.js</title>
<ellipse fill="none" stroke="#242424" stroke-width="4" cx="654.1988" cy="-1455.2824" rx="42.3196" ry="42.3196"/>
<text text-anchor="middle" x="654.1988" y="-1452.8824" font-family="Fira Code" font-size="12.00" fill="#242424">path.js</text>
</g>
<!-- index.js&#45;&gt;path.js -->
<g id="edge33" class="edge">
<title>index.js&#45;&gt;path.js</title>
<path fill="none" stroke="#242424" d="M1360.3709,-1664.3208C1228.0482,-1648.6063 853.9301,-1600.2147 745.1988,-1543.6785 723.1688,-1532.2238 702.8943,-1513.7155 687.1014,-1496.5873"/>
<polygon fill="#242424" stroke="#242424" points="689.448,-1493.9612 680.1703,-1488.845 684.2326,-1498.6302 689.448,-1493.9612"/>
</g>
<!-- random&#45;floor.js -->
<g id="node24" class="node">
<title>random&#45;floor.js</title>
<ellipse fill="none" stroke="#242424" stroke-width="4" cx="1097.1988" cy="-833.0928" rx="79.3981" ry="79.3981"/>
<text text-anchor="middle" x="1097.1988" y="-830.6928" font-family="Fira Code" font-size="12.00" fill="#242424">random&#45;floor.js</text>
</g>
<!-- index.js&#45;&gt;random&#45;floor.js -->
<g id="edge34" class="edge">
<title>index.js&#45;&gt;random&#45;floor.js</title>
<path fill="none" stroke="#242424" d="M1360.5184,-1663.3233C1257.3251,-1648.2141 1015.0752,-1606.6655 966.1988,-1543.6785 823.7191,-1360.0648 886.7584,-1241.6347 959.1988,-1020.8025 963.668,-1007.1784 1005.5245,-951.0579 1041.9799,-903.6977"/>
<polygon fill="#242424" stroke="#242424" points="1044.9082,-905.632 1048.2444,-895.5761 1039.3654,-901.3567 1044.9082,-905.632"/>
</g>
<!-- random&#45;shuffle.js -->
<g id="node25" class="node">
<title>random&#45;shuffle.js</title>
<ellipse fill="none" stroke="#0c821d" stroke-width="4" cx="1890.1988" cy="-1455.2824" rx="88.2923" ry="88.2923"/>
<text text-anchor="middle" x="1890.1988" y="-1452.8824" font-family="Fira Code" font-size="12.00" fill="#0c821d">random&#45;shuffle.js</text>
</g>
<!-- index.js&#45;&gt;random&#45;shuffle.js -->
<g id="edge35" class="edge">
<title>index.js&#45;&gt;random&#45;shuffle.js</title>
<path fill="none" stroke="#242424" d="M1453.6053,-1660.5505C1527.8754,-1644.6023 1676.4412,-1607.1834 1788.1988,-1543.6785 1798.5447,-1537.7996 1808.7996,-1530.7748 1818.5925,-1523.29"/>
<polygon fill="#242424" stroke="#242424" points="1821.007,-1525.8438 1826.7018,-1516.9096 1816.6785,-1520.3425 1821.007,-1525.8438"/>
</g>
<!-- random&#45;take.js -->
<g id="node26" class="node">
<title>random&#45;take.js</title>
<ellipse fill="none" stroke="#242424" stroke-width="4" cx="1175.1988" cy="-1154.3444" rx="74.7005" ry="74.7005"/>
<text text-anchor="middle" x="1175.1988" y="-1151.9444" font-family="Fira Code" font-size="12.00" fill="#242424">random&#45;take.js</text>
</g>
<!-- index.js&#45;&gt;random&#45;take.js -->
<g id="edge36" class="edge">
<title>index.js&#45;&gt;random&#45;take.js</title>
<path fill="none" stroke="#242424" d="M1361.3119,-1658.6929C1307.6723,-1643.1292 1221.2733,-1608.9937 1182.1988,-1543.6785 1126.2522,-1450.1607 1137.9867,-1320.0467 1154.3503,-1236.5032"/>
<polygon fill="#242424" stroke="#242424" points="1157.8111,-1237.047 1156.3646,-1226.5514 1150.9502,-1235.6583 1157.8111,-1237.047"/>
</g>
<!-- random&#45;word.js -->
<g id="node27" class="node">
<title>random&#45;word.js</title>
<ellipse fill="none" stroke="#242424" stroke-width="4" cx="1266.1988" cy="-1455.2824" rx="74.7005" ry="74.7005"/>
<text text-anchor="middle" x="1266.1988" y="-1452.8824" font-family="Fira Code" font-size="12.00" fill="#242424">random&#45;word.js</text>
</g>
<!-- index.js&#45;&gt;random&#45;word.js -->
<g id="edge37" class="edge">
<title>index.js&#45;&gt;random&#45;word.js</title>
<path fill="none" stroke="#242424" d="M1381.3372,-1630.3618C1362.2814,-1601.3855 1335.834,-1561.1696 1313.0918,-1526.5878"/>
<polygon fill="#242424" stroke="#242424" points="1315.8155,-1524.3596 1307.3965,-1517.9275 1309.9669,-1528.2059 1315.8155,-1524.3596"/>
</g>
<!-- random.js -->
<g id="node28" class="node">
<title>random.js</title>
<ellipse fill="none" stroke="#0c821d" stroke-width="4" cx="2160.1988" cy="-1455.2824" rx="51.7142" ry="51.7142"/>
<text text-anchor="middle" x="2160.1988" y="-1452.8824" font-family="Fira Code" font-size="12.00" fill="#0c821d">random.js</text>
</g>
<!-- index.js&#45;&gt;random.js -->
<g id="edge38" class="edge">
<title>index.js&#45;&gt;random.js</title>
<path fill="none" stroke="#242424" d="M1454.3136,-1665.5379C1591.1563,-1652.7978 1985.7575,-1610.9767 2094.1988,-1543.6785 2108.0794,-1535.0643 2120.0372,-1522.3771 2129.8127,-1509.2873"/>
<polygon fill="#242424" stroke="#242424" points="2132.6779,-1511.2975 2135.615,-1501.1178 2126.9709,-1507.2441 2132.6779,-1511.2975"/>
</g>
<!-- range.js -->
<g id="node29" class="node">
<title>range.js</title>
<ellipse fill="none" stroke="#242424" stroke-width="4" cx="1393.1988" cy="-515.5992" rx="47.0167" ry="47.0167"/>
<text text-anchor="middle" x="1393.1988" y="-513.1992" font-family="Fira Code" font-size="12.00" fill="#242424">range.js</text>
</g>
<!-- index.js&#45;&gt;range.js -->
<g id="edge39" class="edge">
<title>index.js&#45;&gt;range.js</title>
<path fill="none" stroke="#242424" d="M1398.4819,-1623.2552C1387.3194,-1563.8257 1367.3653,-1457.6867 1350.1988,-1366.8863 1343.5598,-1331.77 1338.5469,-1323.4676 1335.1988,-1287.8863 1309.9964,-1020.0494 1359.6181,-699.1272 1382.4984,-571.7073"/>
<polygon fill="#242424" stroke="#242424" points="1385.957,-572.2497 1384.2964,-561.7858 1379.0692,-571.0014 1385.957,-572.2497"/>
</g>
<!-- reject.js -->
<g id="node30" class="node">
<title>reject.js</title>
<ellipse fill="none" stroke="#242424" stroke-width="4" cx="1396.1988" cy="-1154.3444" rx="51.7142" ry="51.7142"/>
<text text-anchor="middle" x="1396.1988" y="-1151.9444" font-family="Fira Code" font-size="12.00" fill="#242424">reject.js</text>
</g>
<!-- index.js&#45;&gt;reject.js -->
<g id="edge41" class="edge">
<title>index.js&#45;&gt;reject.js</title>
<path fill="none" stroke="#242424" d="M1406.1935,-1622.5875C1404.1994,-1529.1666 1399.7444,-1320.4506 1397.518,-1216.1473"/>
<polygon fill="#242424" stroke="#242424" points="1401.0159,-1216.006 1397.3032,-1206.083 1394.0175,-1216.1554 1401.0159,-1216.006"/>
</g>
<!-- string.js -->
<g id="node31" class="node">
<title>string.js</title>
<ellipse fill="none" stroke="#242424" stroke-width="4" cx="2639.1988" cy="-515.5992" rx="51.7142" ry="51.7142"/>
<text text-anchor="middle" x="2639.1988" y="-513.1992" font-family="Fira Code" font-size="12.00" fill="#242424">string.js</text>
</g>
<!-- index.js&#45;&gt;string.js -->
<g id="edge42" class="edge">
<title>index.js&#45;&gt;string.js</title>
<path fill="none" stroke="#242424" d="M1454.2347,-1668.5602C1646.9981,-1663.3507 2376.1311,-1637.688 2583.1988,-1543.6785 2735.7828,-1474.4048 2793.0047,-1441.3975 2860.1988,-1287.8863 2907.7972,-1179.1435 2884.5005,-1136.9922 2860.1988,-1020.8025 2823.6758,-846.1811 2723.2212,-658.0858 2671.2634,-568.6615"/>
<polygon fill="#242424" stroke="#242424" points="2674.1534,-566.6699 2666.0863,-559.8017 2668.1096,-570.2016 2674.1534,-566.6699"/>
</g>
<!-- ternary.js -->
<g id="node32" class="node">
<title>ternary.js</title>
<ellipse fill="none" stroke="#242424" stroke-width="4" cx="2088.1988" cy="-833.0928" rx="56.412" ry="56.412"/>
<text text-anchor="middle" x="2088.1988" y="-830.6928" font-family="Fira Code" font-size="12.00" fill="#242424">ternary.js</text>
</g>
<!-- index.js&#45;&gt;ternary.js -->
<g id="edge43" class="edge">
<title>index.js&#45;&gt;ternary.js</title>
<path fill="none" stroke="#242424" d="M1454.4195,-1667.8041C1590.261,-1661.322 1977.3644,-1635.0239 2056.1988,-1543.6785 2097.6397,-1495.661 2093.1751,-1067.0553 2089.796,-899.6568"/>
<polygon fill="#242424" stroke="#242424" points="2093.2919,-899.4171 2089.5856,-889.4917 2086.2934,-899.562 2093.2919,-899.4171"/>
</g>
<!-- triplet.js -->
<g id="node33" class="node">
<title>triplet.js</title>
<ellipse fill="none" stroke="#242424" stroke-width="4" cx="2164.1988" cy="-1154.3444" rx="56.412" ry="56.412"/>
<text text-anchor="middle" x="2164.1988" y="-1151.9444" font-family="Fira Code" font-size="12.00" fill="#242424">triplet.js</text>
</g>
<!-- index.js&#45;&gt;triplet.js -->
<g id="edge44" class="edge">
<title>index.js&#45;&gt;triplet.js</title>
<path fill="none" stroke="#242424" d="M1454.3159,-1665.9294C1620.3064,-1652.2224 2170.6832,-1602.6158 2221.1988,-1543.6785 2262.1378,-1495.9145 2214.6688,-1315.3635 2184.8097,-1217.8101"/>
<polygon fill="#242424" stroke="#242424" points="2188.0943,-1216.584 2181.7999,-1208.0615 2181.4058,-1218.649 2188.0943,-1216.584"/>
</g>
<!-- which.js -->
<g id="node34" class="node">
<title>which.js</title>
<ellipse fill="none" stroke="#242424" stroke-width="4" cx="2315.1988" cy="-1455.2824" rx="47.0167" ry="47.0167"/>
<text text-anchor="middle" x="2315.1988" y="-1452.8824" font-family="Fira Code" font-size="12.00" fill="#242424">which.js</text>
</g>
<!-- index.js&#45;&gt;which.js -->
<g id="edge46" class="edge">
<title>index.js&#45;&gt;which.js</title>
<path fill="none" stroke="#242424" d="M1454.428,-1667.5568C1612.155,-1659.7016 2118.4002,-1628.2932 2254.1988,-1543.6785 2268.6147,-1534.6962 2280.4949,-1520.9137 2289.8188,-1506.8845"/>
<polygon fill="#242424" stroke="#242424" points="2292.9438,-1508.4892 2295.2936,-1498.1582 2287.0142,-1504.769 2292.9438,-1508.4892"/>
</g>
<!-- invert.js&#45;&gt;Ⓜ katsu&#45;curry/katsu&#45;curry.js -->
<g id="edge47" class="edge">
<title>invert.js&#45;&gt;Ⓜ katsu&#45;curry/katsu&#45;curry.js</title>
<path fill="none" stroke="#242424" d="M176.8808,-781.9863C163.2561,-689.7338 149.6036,-494.8658 252.1988,-385.8153 378.7244,-251.3287 917.7282,-188.8752 1192.9945,-165.3001"/>
<polygon fill="#242424" stroke="#242424" points="1193.4095,-168.7775 1203.0775,-164.4438 1192.8172,-161.8026 1193.4095,-168.7775"/>
</g>
<!-- iterate.js&#45;&gt;Ⓜ katsu&#45;curry/katsu&#45;curry.js -->
<g id="edge48" class="edge">
<title>iterate.js&#45;&gt;Ⓜ katsu&#45;curry/katsu&#45;curry.js</title>
<path fill="none" stroke="#242424" d="M764.9081,-783.5271C775.925,-764.4642 789.3485,-742.8567 803.1988,-724.383 934.5526,-549.182 1115.5311,-371.8063 1234.1505,-262.2633"/>
<polygon fill="#242424" stroke="#242424" points="1236.5371,-264.8235 1241.5181,-255.4725 1231.7929,-259.6763 1236.5371,-264.8235"/>
</g>
<!-- math.js&#45;&gt;Ⓜ katsu&#45;curry/katsu&#45;curry.js -->
<g id="edge56" class="edge">
<title>math.js&#45;&gt;Ⓜ katsu&#45;curry/katsu&#45;curry.js</title>
<path fill="none" stroke="#242424" d="M397.1157,-1112.7005C366.8789,-969.37 276.4781,-499.0375 366.1988,-385.8153 467.6053,-257.8464 939.2963,-193.4723 1193.2537,-167.6006"/>
<polygon fill="#242424" stroke="#242424" points="1193.7166,-171.0717 1203.3141,-166.5842 1193.0129,-164.1071 1193.7166,-171.0717"/>
</g>
<!-- object.js&#45;&gt;Ⓜ katsu&#45;curry/katsu&#45;curry.js -->
<g id="edge57" class="edge">
<title>object.js&#45;&gt;Ⓜ katsu&#45;curry/katsu&#45;curry.js</title>
<path fill="none" stroke="#242424" d="M1035.3337,-1404.024C1040.547,-1370.9041 1047.3988,-1326.867 1053.1988,-1287.8863 1070.8447,-1169.2926 1026.0684,-1121.4697 1091.1988,-1020.8025 1126.8989,-965.6236 1181.0912,-997.3603 1216.1988,-941.8025 1249.4381,-889.2013 1270.0978,-446.6438 1283.1988,-385.8153 1288.6469,-360.5195 1295.6607,-334.0398 1303.1804,-308.3871"/>
<polygon fill="#242424" stroke="#242424" points="1306.5952,-309.1826 1306.085,-298.6001 1299.8844,-307.191 1306.5952,-309.1826"/>
</g>
<!-- object.js&#45;&gt;map.js -->
<g id="edge58" class="edge">
<title>object.js&#45;&gt;map.js</title>
<path fill="none" stroke="#242424" d="M1023.5888,-1403.5493C1019.6447,-1347.0294 1013.3785,-1257.2326 1009.5428,-1202.2651"/>
<polygon fill="#242424" stroke="#242424" points="1013.0205,-1201.8216 1008.8327,-1192.0896 1006.0374,-1202.309 1013.0205,-1201.8216"/>
</g>
<!-- object.js&#45;&gt;reduce.js -->
<g id="edge59" class="edge">
<title>object.js&#45;&gt;reduce.js</title>
<path fill="none" stroke="#242424" d="M986.9269,-1422.7909C917.7689,-1366.9939 776.719,-1253.1943 702.4326,-1193.2597"/>
<polygon fill="#242424" stroke="#242424" points="704.5654,-1190.4833 694.5849,-1186.9281 700.17,-1195.9313 704.5654,-1190.4833"/>
</g>
<!-- path.js&#45;&gt;Ⓜ katsu&#45;curry/katsu&#45;curry.js -->
<g id="edge60" class="edge">
<title>path.js&#45;&gt;Ⓜ katsu&#45;curry/katsu&#45;curry.js</title>
<path fill="none" stroke="#242424" d="M639.2961,-1415.2724C609.4583,-1337.0263 538.2506,-1159.2963 457.1988,-1020.8025 435.1979,-983.2094 412.762,-983.1948 399.1988,-941.8025 369.1095,-849.9757 355.2854,-810.4594 399.1988,-724.383 557.9254,-413.2572 968.7097,-256.9926 1197.1117,-191.8985"/>
<polygon fill="#242424" stroke="#242424" points="1198.168,-195.2371 1206.8395,-189.1497 1196.2646,-188.5008 1198.168,-195.2371"/>
</g>
<!-- path.js&#45;&gt;reduce.js -->
<g id="edge62" class="edge">
<title>path.js&#45;&gt;reduce.js</title>
<path fill="none" stroke="#242424" d="M654.1988,-1412.8036C654.1988,-1361.6015 654.1988,-1275.1389 654.1988,-1216.451"/>
<polygon fill="#242424" stroke="#242424" points="657.6989,-1216.1939 654.1988,-1206.1939 650.6989,-1216.1939 657.6989,-1216.1939"/>
</g>
<!-- path.js&#45;&gt;math.js -->
<g id="edge61" class="edge">
<title>path.js&#45;&gt;math.js</title>
<path fill="none" stroke="#242424" d="M635.3981,-1417.117C625.8593,-1400.3464 613.1221,-1381.2465 598.1988,-1366.8863 547.8293,-1318.4174 508.3339,-1340.4018 462.1988,-1287.8863 441.584,-1264.4205 427.7887,-1232.2776 419.0492,-1205.407"/>
<polygon fill="#242424" stroke="#242424" points="422.3649,-1204.2825 416.0549,-1195.7717 415.6803,-1206.3599 422.3649,-1204.2825"/>
</g>
<!-- random&#45;floor.js&#45;&gt;Ⓜ katsu&#45;curry/katsu&#45;curry.js -->
<g id="edge63" class="edge">
<title>random&#45;floor.js&#45;&gt;Ⓜ katsu&#45;curry/katsu&#45;curry.js</title>
<path fill="none" stroke="#242424" d="M1103.6699,-754.1427C1113.4119,-662.3601 1136.7658,-507.8785 1190.1988,-385.8153 1206.2378,-349.1756 1228.6503,-312.5514 1251.8275,-279.5707"/>
<polygon fill="#242424" stroke="#242424" points="1254.7899,-281.4443 1257.7331,-271.2665 1249.0853,-277.3875 1254.7899,-281.4443"/>
</g>
<!-- random&#45;take.js&#45;&gt;Ⓜ katsu&#45;curry/katsu&#45;curry.js -->
<g id="edge64" class="edge">
<title>random&#45;take.js&#45;&gt;Ⓜ katsu&#45;curry/katsu&#45;curry.js</title>
<path fill="none" stroke="#242424" d="M1206.6253,-1086.4558C1224.1904,-1045.4538 1244.784,-991.6498 1256.1988,-941.8025 1311.5623,-700.0359 1266.3697,-630.938 1304.1988,-385.8153 1307.8708,-362.0221 1312.5625,-337.0291 1317.6202,-312.613"/>
<polygon fill="#242424" stroke="#242424" points="1321.1016,-313.0642 1319.7298,-302.5585 1314.2508,-311.6267 1321.1016,-313.0642"/>
</g>
<!-- random&#45;take.js&#45;&gt;iterate.js -->
<g id="edge65" class="edge">
<title>random&#45;take.js&#45;&gt;iterate.js</title>
<path fill="none" stroke="#242424" d="M1131.521,-1093.7675C1110.3814,-1068.1579 1083.1062,-1039.9006 1053.1988,-1020.8025 954.9883,-958.0876 894.6081,-1014.0715 803.1988,-941.8025 787.3344,-929.26 774.4796,-911.699 764.5195,-894.3441"/>
<polygon fill="#242424" stroke="#242424" points="767.4478,-892.4043 759.5743,-885.315 761.3083,-895.767 767.4478,-892.4043"/>
</g>
<!-- random&#45;take.js&#45;&gt;random&#45;floor.js -->
<g id="edge66" class="edge">
<title>random&#45;take.js&#45;&gt;random&#45;floor.js</title>
<path fill="none" stroke="#242424" d="M1157.5968,-1081.8487C1145.9496,-1033.8781 1130.6144,-970.7186 1118.3111,-920.0462"/>
<polygon fill="#242424" stroke="#242424" points="1121.6536,-918.9783 1115.8929,-910.0864 1114.8512,-920.6299 1121.6536,-918.9783"/>
</g>
<!-- random&#45;word.js&#45;&gt;Ⓜ katsu&#45;curry/katsu&#45;curry.js -->
<g id="edge67" class="edge">
<title>random&#45;word.js&#45;&gt;Ⓜ katsu&#45;curry/katsu&#45;curry.js</title>
<path fill="none" stroke="#242424" d="M1270.7566,-1380.7018C1281.4889,-1206.4942 1309.5378,-759.2785 1337.1988,-385.8153 1338.8528,-363.4834 1340.6792,-339.9517 1342.5261,-316.7812"/>
<polygon fill="#242424" stroke="#242424" points="1346.038,-316.7709 1343.3469,-306.5236 1339.0603,-316.2125 1346.038,-316.7709"/>
</g>
<!-- random&#45;word.js&#45;&gt;array.js -->
<g id="edge68" class="edge">
<title>random&#45;word.js&#45;&gt;array.js</title>
<path fill="none" stroke="#242424" d="M1327.8657,-1412.845C1368.9162,-1382.0489 1421.6405,-1337.2631 1457.1988,-1287.8863 1474.2645,-1264.1887 1487.3729,-1234.5018 1496.6016,-1209.14"/>
<polygon fill="#242424" stroke="#242424" points="1499.9221,-1210.2479 1499.9487,-1199.6531 1493.3209,-1207.9188 1499.9221,-1210.2479"/>
</g>
<!-- random&#45;word.js&#45;&gt;random&#45;take.js -->
<g id="edge69" class="edge">
<title>random&#45;word.js&#45;&gt;random&#45;take.js</title>
<path fill="none" stroke="#242424" d="M1244.5177,-1383.5826C1231.0454,-1339.0298 1213.6932,-1281.6459 1199.7203,-1235.4374"/>
<polygon fill="#242424" stroke="#242424" points="1203.0373,-1234.3142 1196.7926,-1225.7553 1196.3369,-1236.3403 1203.0373,-1234.3142"/>
</g>
<!-- range.js&#45;&gt;Ⓜ katsu&#45;curry/katsu&#45;curry.js -->
<g id="edge70" class="edge">
<title>range.js&#45;&gt;Ⓜ katsu&#45;curry/katsu&#45;curry.js</title>
<path fill="none" stroke="#242424" d="M1388.3996,-468.6203C1384.4153,-429.6182 1378.5022,-371.7343 1372.8265,-316.1753"/>
<polygon fill="#242424" stroke="#242424" points="1376.3054,-315.79 1371.8072,-306.1975 1369.3417,-316.5014 1376.3054,-315.79"/>
</g>
<!-- reject.js&#45;&gt;Ⓜ katsu&#45;curry/katsu&#45;curry.js -->
<g id="edge73" class="edge">
<title>reject.js&#45;&gt;Ⓜ katsu&#45;curry/katsu&#45;curry.js</title>
<path fill="none" stroke="#242424" d="M1408.5725,-1103.8994C1436.9824,-980.2582 1500.6223,-652.7378 1449.1988,-385.8153 1443.8486,-358.044 1435.2087,-329.3736 1425.2974,-302.0557"/>
<polygon fill="#242424" stroke="#242424" points="1428.4965,-300.6157 1421.7419,-292.4531 1421.932,-303.0463 1428.4965,-300.6157"/>
</g>
<!-- reject.js&#45;&gt;filter.js -->
<g id="edge74" class="edge">
<title>reject.js&#45;&gt;filter.js</title>
<path fill="none" stroke="#242424" d="M1415.6264,-1106.3353C1426.7233,-1080.4372 1441.5248,-1048.248 1457.1988,-1020.8025 1485.2316,-971.7164 1522.5559,-919.2267 1550.1919,-882.27"/>
<polygon fill="#242424" stroke="#242424" points="1553.0773,-884.2563 1556.2878,-874.1596 1547.4816,-880.0505 1553.0773,-884.2563"/>
</g>
<!-- string.js&#45;&gt;Ⓜ katsu&#45;curry/katsu&#45;curry.js -->
<g id="edge76" class="edge">
<title>string.js&#45;&gt;Ⓜ katsu&#45;curry/katsu&#45;curry.js</title>
<path fill="none" stroke="#242424" d="M2611.192,-472.1108C2590.1993,-443.1269 2558.8562,-406.6556 2522.1988,-385.8153 2352.5922,-289.3912 1797.6714,-208.6446 1518.9775,-173.0003"/>
<polygon fill="#242424" stroke="#242424" points="1519.1354,-169.4922 1508.7731,-171.6996 1518.2503,-176.436 1519.1354,-169.4922"/>
</g>
<!-- string.js&#45;&gt;Ⓜ entrust/entrust.js -->
<g id="edge75" class="edge">
<title>string.js&#45;&gt;Ⓜ entrust/entrust.js</title>
<path fill="none" stroke="#242424" d="M2639.1988,-463.706C2639.1988,-415.2459 2639.1988,-341.0305 2639.1988,-277.3311"/>
<polygon fill="#242424" stroke="#242424" points="2642.6989,-277.2036 2639.1988,-267.2036 2635.6989,-277.2036 2642.6989,-277.2036"/>
</g>
<!-- ternary.js&#45;&gt;Ⓜ katsu&#45;curry/katsu&#45;curry.js -->
<g id="edge77" class="edge">
<title>ternary.js&#45;&gt;Ⓜ katsu&#45;curry/katsu&#45;curry.js</title>
<path fill="none" stroke="#242424" d="M2096.2181,-777.3764C2106.255,-684.87 2112.1057,-498.6255 2018.1988,-385.8153 1952.9967,-307.4881 1690.1825,-232.2588 1515.9564,-189.5442"/>
<polygon fill="#242424" stroke="#242424" points="1516.7165,-186.127 1506.1719,-187.1566 1515.0571,-192.9275 1516.7165,-186.127"/>
</g>
<!-- triplet.js&#45;&gt;Ⓜ katsu&#45;curry/katsu&#45;curry.js -->
<g id="edge78" class="edge">
<title>triplet.js&#45;&gt;Ⓜ katsu&#45;curry/katsu&#45;curry.js</title>
<path fill="none" stroke="#242424" d="M2177.0469,-1099.3847C2206.1144,-959.8577 2260.7144,-588.6565 2074.1988,-385.8153 1998.4554,-303.4421 1704.1136,-227.5214 1516.6211,-186.1176"/>
<polygon fill="#242424" stroke="#242424" points="1517.1796,-182.6569 1506.6613,-183.9285 1515.6768,-189.4937 1517.1796,-182.6569"/>
</g>
<!-- which.js&#45;&gt;Ⓜ katsu&#45;curry/katsu&#45;curry.js -->
<g id="edge82" class="edge">
<title>which.js&#45;&gt;Ⓜ katsu&#45;curry/katsu&#45;curry.js</title>
<path fill="none" stroke="#242424" d="M2299.8607,-1410.7311C2288.9902,-1377.3237 2275.0014,-1330.2559 2267.1988,-1287.8863 2193.9487,-890.1225 2422.0836,-682.497 2147.1988,-385.8153 2062.0158,-293.8778 1723.1899,-218.9629 1517.6258,-180.8072"/>
<polygon fill="#242424" stroke="#242424" points="1518.1044,-177.3365 1507.6351,-178.9622 1516.8332,-184.2201 1518.1044,-177.3365"/>
</g>
<!-- which.js&#45;&gt;flip.js -->
<g id="edge83" class="edge">
<title>which.js&#45;&gt;flip.js</title>
<path fill="none" stroke="#242424" d="M2282.1472,-1421.4106C2264.7015,-1404.2676 2242.5347,-1383.6053 2221.1988,-1366.8863 2170.3526,-1327.0429 2148.9134,-1329.1331 2099.1988,-1287.8863 2064.9879,-1259.5025 2030.5033,-1222.5931 2006.119,-1194.7727"/>
<polygon fill="#242424" stroke="#242424" points="2008.7208,-1192.4309 1999.5178,-1187.1816 2003.4387,-1197.0242 2008.7208,-1192.4309"/>
</g>
<!-- which.js&#45;&gt;triplet.js -->
<g id="edge84" class="edge">
<title>which.js&#45;&gt;triplet.js</title>
<path fill="none" stroke="#242424" d="M2294.0439,-1413.1214C2268.0027,-1361.2222 2223.612,-1272.7529 2194.0941,-1213.9247"/>
<polygon fill="#242424" stroke="#242424" points="2197.1025,-1212.1161 2189.4894,-1204.7478 2190.8459,-1215.2554 2197.1025,-1212.1161"/>
</g>
<!-- Ⓜ fast.js/array/every.js -->
<g id="node42" class="node">
<title>Ⓜ fast.js/array/every.js</title>
<ellipse fill="none" stroke="#0c821d" stroke-width="4" cx="2685.1988" cy="-1154.3444" rx="133.5838" ry="133.5838"/>
<text text-anchor="middle" x="2685.1988" y="-1153.1444" font-family="Fira Code" font-size="12.00" fill="#0c821d">Ⓜ fast.js/array/every.js</text>
</g>
<!-- which.js&#45;&gt;Ⓜ fast.js/array/every.js -->
<g id="edge80" class="edge">
<title>which.js&#45;&gt;Ⓜ fast.js/array/every.js</title>
<path fill="none" stroke="#242424" d="M2354.1955,-1428.8153C2400.4756,-1396.9179 2479.4057,-1340.9686 2543.1988,-1287.8863 2555.9202,-1277.3009 2568.963,-1265.8866 2581.7403,-1254.3464"/>
<polygon fill="#242424" stroke="#242424" points="2584.1809,-1256.8578 2589.2282,-1247.5424 2579.4734,-1251.6771 2584.1809,-1256.8578"/>
</g>
<!-- Ⓜ fast.js/array/some.js -->
<g id="node43" class="node">
<title>Ⓜ fast.js/array/some.js</title>
<ellipse fill="none" stroke="#0c821d" stroke-width="4" cx="2405.1988" cy="-1154.3444" rx="128.651" ry="128.651"/>
<text text-anchor="middle" x="2405.1988" y="-1153.1444" font-family="Fira Code" font-size="12.00" fill="#0c821d">Ⓜ fast.js/array/some.js</text>
</g>
<!-- which.js&#45;&gt;Ⓜ fast.js/array/some.js -->
<g id="edge81" class="edge">
<title>which.js&#45;&gt;Ⓜ fast.js/array/some.js</title>
<path fill="none" stroke="#242424" d="M2328.6727,-1410.229C2338.4493,-1377.5385 2352.2156,-1331.5074 2365.382,-1287.4822"/>
<polygon fill="#242424" stroke="#242424" points="2368.7567,-1288.4131 2368.2687,-1277.8295 2362.0502,-1286.4074 2368.7567,-1288.4131"/>
</g>
<!-- map&#45;performance.fixture.js -->
<g id="node35" class="node">
<title>map&#45;performance.fixture.js</title>
<ellipse fill="none" stroke="#242424" stroke-width="4" cx="3104.1988" cy="-515.5992" rx="129.5681" ry="129.5681"/>
<text text-anchor="middle" x="3104.1988" y="-513.1992" font-family="Fira Code" font-size="12.00" fill="#242424">map&#45;performance.fixture.js</text>
</g>
<!-- map&#45;performance.fixture.js&#45;&gt;Ⓜ entrust/entrust.js -->
<g id="edge49" class="edge">
<title>map&#45;performance.fixture.js&#45;&gt;Ⓜ entrust/entrust.js</title>
<path fill="none" stroke="#242424" d="M3003.8772,-433.1677C2981.5833,-416.5266 2957.6043,-399.8518 2934.1988,-385.8153 2861.7088,-342.3424 2827.7839,-358.8837 2761.1988,-306.8153 2742.552,-292.2338 2725.0309,-274.2497 2709.4005,-255.7887"/>
<polygon fill="#242424" stroke="#242424" points="2711.8984,-253.3179 2702.8198,-247.8562 2706.5109,-257.7873 2711.8984,-253.3179"/>
</g>
<!-- Ⓜ fast.js/index.js -->
<g id="node36" class="node">
<title>Ⓜ fast.js/index.js</title>
<ellipse fill="none" stroke="#0c821d" stroke-width="4" cx="3334.1988" cy="-153.4077" rx="103.9872" ry="103.9872"/>
<text text-anchor="middle" x="3334.1988" y="-152.2077" font-family="Fira Code" font-size="12.00" fill="#0c821d">Ⓜ fast.js/index.js</text>
</g>
<!-- map&#45;performance.fixture.js&#45;&gt;Ⓜ fast.js/index.js -->
<g id="edge50" class="edge">
<title>map&#45;performance.fixture.js&#45;&gt;Ⓜ fast.js/index.js</title>
<path fill="none" stroke="#242424" d="M3173.8306,-405.9469C3205.4491,-356.1558 3242.5168,-297.7835 3273.0456,-249.7085"/>
<polygon fill="#242424" stroke="#242424" points="3276.0651,-251.4825 3278.4712,-241.1644 3270.1559,-247.7299 3276.0651,-251.4825"/>
</g>
<!-- Ⓜ ramda/src/curry.js -->
<g id="node37" class="node">
<title>Ⓜ ramda/src/curry.js</title>
<ellipse fill="none" stroke="#0c821d" stroke-width="4" cx="3569.1988" cy="-153.4077" rx="113.8526" ry="113.8526"/>
<text text-anchor="middle" x="3569.1988" y="-152.2077" font-family="Fira Code" font-size="12.00" fill="#0c821d">Ⓜ ramda/src/curry.js</text>
</g>
<!-- map&#45;performance.fixture.js&#45;&gt;Ⓜ ramda/src/curry.js -->
<g id="edge51" class="edge">
<title>map&#45;performance.fixture.js&#45;&gt;Ⓜ ramda/src/curry.js</title>
<path fill="none" stroke="#242424" d="M3220.6865,-458.0884C3290.5025,-420.4851 3378.714,-367.2297 3447.1988,-306.8153 3464.8384,-291.2544 3481.847,-272.9119 3497.2793,-254.4246"/>
<polygon fill="#242424" stroke="#242424" points="3500.147,-256.4478 3503.7939,-246.5003 3494.7397,-252.0024 3500.147,-256.4478"/>
</g>
<!-- Ⓜ ramda/src/map.js -->
<g id="node38" class="node">
<title>Ⓜ ramda/src/map.js</title>
<ellipse fill="none" stroke="#0c821d" stroke-width="4" cx="2874.1988" cy="-153.4077" rx="103.9872" ry="103.9872"/>
<text text-anchor="middle" x="2874.1988" y="-152.2077" font-family="Fira Code" font-size="12.00" fill="#0c821d">Ⓜ ramda/src/map.js</text>
</g>
<!-- map&#45;performance.fixture.js&#45;&gt;Ⓜ ramda/src/map.js -->
<g id="edge52" class="edge">
<title>map&#45;performance.fixture.js&#45;&gt;Ⓜ ramda/src/map.js</title>
<path fill="none" stroke="#242424" d="M3034.5671,-405.9469C3002.9486,-356.1558 2965.8808,-297.7835 2935.3521,-249.7085"/>
<polygon fill="#242424" stroke="#242424" points="2938.2418,-247.7299 2929.9264,-241.1644 2932.3325,-251.4825 2938.2418,-247.7299"/>
</g>
<!-- Ⓜ testperf/index.js -->
<g id="node39" class="node">
<title>Ⓜ testperf/index.js</title>
<ellipse fill="none" stroke="#0c821d" stroke-width="4" cx="3104.1988" cy="-153.4077" rx="108.9199" ry="108.9199"/>
<text text-anchor="middle" x="3104.1988" y="-152.2077" font-family="Fira Code" font-size="12.00" fill="#0c821d">Ⓜ testperf/index.js</text>
</g>
<!-- map&#45;performance.fixture.js&#45;&gt;Ⓜ testperf/index.js -->
<g id="edge53" class="edge">
<title>map&#45;performance.fixture.js&#45;&gt;Ⓜ testperf/index.js</title>
<path fill="none" stroke="#242424" d="M3104.1988,-385.6071C3104.1988,-348.7009 3104.1988,-308.7106 3104.1988,-272.4856"/>
<polygon fill="#242424" stroke="#242424" points="3107.6989,-272.3739 3104.1988,-262.3739 3100.6989,-272.3739 3107.6989,-272.3739"/>
</g>
</g>
</svg>
