<?xml version="1.0" encoding="UTF-8" standalone="no"?>
<!DOCTYPE svg PUBLIC "-//W3C//DTD SVG 1.1//EN"
 "http://www.w3.org/Graphics/SVG/1.1/DTD/svg11.dtd">
<!-- Generated by graphviz version 2.40.1 (20161225.0304)
 -->
<!-- Title: G Pages: 1 -->
<svg width="3151pt" height="1676pt"
 viewBox="0.00 0.00 3150.79 1676.47" xmlns="http://www.w3.org/2000/svg" xmlns:xlink="http://www.w3.org/1999/xlink">
<g id="graph0" class="graph" transform="scale(1 1) rotate(0) translate(7.992 1668.4804)">
<title>G</title>
<polygon fill="#eeeeff" stroke="transparent" points="-7.992,7.992 -7.992,-1668.4804 3142.7978,-1668.4804 3142.7978,7.992 -7.992,7.992"/>
<!-- ../package.json -->
<g id="node1" class="node">
<title>../package.json</title>
<ellipse fill="none" stroke="#0c821d" stroke-width="4" cx="79.1988" cy="-1347.0416" rx="79.3981" ry="79.3981"/>
<text text-anchor="middle" x="79.1988" y="-1344.6416" font-family="Fira Code" font-size="12.00" fill="#0c821d">../package.json</text>
</g>
<!-- array.js -->
<g id="node2" class="node">
<title>array.js</title>
<ellipse fill="none" stroke="#242424" stroke-width="4" cx="719.1988" cy="-1010.1744" rx="47.0167" ry="47.0167"/>
<text text-anchor="middle" x="719.1988" y="-1007.7744" font-family="Fira Code" font-size="12.00" fill="#242424">array.js</text>
</g>
<!-- ✪entrust/entrust.js -->
<g id="node3" class="node">
<title>✪entrust/entrust.js</title>
<ellipse fill="none" stroke="#0c821d" stroke-width="4" cx="381.1988" cy="-135.8316" rx="99.0849" ry="99.0849"/>
<text text-anchor="middle" x="381.1988" y="-133.4316" font-family="Fira Code" font-size="12.00" fill="#0c821d">✪entrust/entrust.js</text>
</g>
<!-- array.js&#45;&gt;✪entrust/entrust.js -->
<g id="edge1" class="edge">
<title>array.js&#45;&gt;✪entrust/entrust.js</title>
<path fill="none" stroke="#242424" d="M688.4392,-974.2412C614.7337,-887.2812 431.793,-666.064 400.1988,-576.3398 362.0924,-468.1214 362.0938,-335.6238 368.6428,-244.3717"/>
<polygon fill="#242424" stroke="#242424" points="372.1414,-244.5221 369.4053,-234.2867 365.1613,-243.9943 372.1414,-244.5221"/>
</g>
<!-- ✪katsu&#45;curry/katsu&#45;curry.js -->
<g id="node4" class="node">
<title>✪katsu&#45;curry/katsu&#45;curry.js</title>
<ellipse fill="none" stroke="#0c821d" stroke-width="4" cx="1782.1988" cy="-135.8316" rx="135.6633" ry="135.6633"/>
<text text-anchor="middle" x="1782.1988" y="-133.4316" font-family="Fira Code" font-size="12.00" fill="#0c821d">✪katsu&#45;curry/katsu&#45;curry.js</text>
</g>
<!-- array.js&#45;&gt;✪katsu&#45;curry/katsu&#45;curry.js -->
<g id="edge2" class="edge">
<title>array.js&#45;&gt;✪katsu&#45;curry/katsu&#45;curry.js</title>
<path fill="none" stroke="#242424" d="M713.8614,-963.3101C707.6846,-893.9507 702.4797,-760.8086 738.1988,-655.3398 751.8413,-615.0574 776.7244,-615.9546 792.1988,-576.3398 829.0813,-481.9203 756.2822,-424.9991 825.1988,-350.6631 933.6931,-233.6372 1396.3241,-172.8125 1636.3636,-148.6251"/>
<polygon fill="#242424" stroke="#242424" points="1636.9651,-152.0825 1646.5675,-147.6055 1636.269,-145.1172 1636.9651,-152.0825"/>
</g>
<!-- filter.js -->
<g id="node5" class="node">
<title>filter.js</title>
<ellipse fill="none" stroke="#242424" stroke-width="4" cx="639.1988" cy="-734.5386" rx="51.7142" ry="51.7142"/>
<text text-anchor="middle" x="639.1988" y="-732.1386" font-family="Fira Code" font-size="12.00" fill="#242424">filter.js</text>
</g>
<!-- array.js&#45;&gt;filter.js -->
<g id="edge3" class="edge">
<title>array.js&#45;&gt;filter.js</title>
<path fill="none" stroke="#242424" d="M706.078,-964.9674C692.5438,-918.3359 671.3683,-845.3768 656.4779,-794.0729"/>
<polygon fill="#242424" stroke="#242424" points="659.8297,-793.0642 653.681,-784.4361 653.1071,-795.0154 659.8297,-793.0642"/>
</g>
<!-- delegate&#45;fast.js -->
<g id="node8" class="node">
<title>delegate&#45;fast.js</title>
<ellipse fill="none" stroke="#242424" stroke-width="4" cx="493.1988" cy="-463.5015" rx="83.5954" ry="83.5954"/>
<text text-anchor="middle" x="493.1988" y="-461.1015" font-family="Fira Code" font-size="12.00" fill="#242424">delegate&#45;fast.js</text>
</g>
<!-- filter.js&#45;&gt;delegate&#45;fast.js -->
<g id="edge10" class="edge">
<title>filter.js&#45;&gt;delegate&#45;fast.js</title>
<path fill="none" stroke="#242424" d="M614.597,-688.8673C593.678,-650.0328 563.1084,-593.2829 537.8795,-546.4475"/>
<polygon fill="#242424" stroke="#242424" points="540.896,-544.667 533.0721,-537.523 534.7332,-547.9868 540.896,-544.667"/>
</g>
<!-- ✪fast.js/filter.js -->
<g id="node10" class="node">
<title>✪fast.js/filter.js</title>
<ellipse fill="none" stroke="#0c821d" stroke-width="4" cx="689.1988" cy="-463.5015" rx="94.3876" ry="94.3876"/>
<text text-anchor="middle" x="689.1988" y="-461.1015" font-family="Fira Code" font-size="12.00" fill="#0c821d">✪fast.js/filter.js</text>
</g>
<!-- filter.js&#45;&gt;✪fast.js/filter.js -->
<g id="edge9" class="edge">
<title>filter.js&#45;&gt;✪fast.js/filter.js</title>
<path fill="none" stroke="#242424" d="M648.6034,-683.5586C654.6797,-650.6205 662.8026,-606.5887 670.1853,-566.5687"/>
<polygon fill="#242424" stroke="#242424" points="673.6724,-566.9587 672.0447,-556.4897 666.7885,-565.6888 673.6724,-566.9587"/>
</g>
<!-- chain.js -->
<g id="node6" class="node">
<title>chain.js</title>
<ellipse fill="none" stroke="#242424" stroke-width="4" cx="496.1988" cy="-1347.0416" rx="47.0167" ry="47.0167"/>
<text text-anchor="middle" x="496.1988" y="-1344.6416" font-family="Fira Code" font-size="12.00" fill="#242424">chain.js</text>
</g>
<!-- ✪flatmap&#45;fast/index.js -->
<g id="node7" class="node">
<title>✪flatmap&#45;fast/index.js</title>
<ellipse fill="none" stroke="#0c821d" stroke-width="4" cx="496.1988" cy="-1010.1744" rx="112.6769" ry="112.6769"/>
<text text-anchor="middle" x="496.1988" y="-1007.7744" font-family="Fira Code" font-size="12.00" fill="#0c821d">✪flatmap&#45;fast/index.js</text>
</g>
<!-- chain.js&#45;&gt;✪flatmap&#45;fast/index.js -->
<g id="edge4" class="edge">
<title>chain.js&#45;&gt;✪flatmap&#45;fast/index.js</title>
<path fill="none" stroke="#242424" d="M496.1988,-1299.847C496.1988,-1256.8005 496.1988,-1191.2792 496.1988,-1133.4338"/>
<polygon fill="#242424" stroke="#242424" points="499.6989,-1133.1039 496.1988,-1123.1039 492.6989,-1133.104 499.6989,-1133.1039"/>
</g>
<!-- chain.js&#45;&gt;delegate&#45;fast.js -->
<g id="edge5" class="edge">
<title>chain.js&#45;&gt;delegate&#45;fast.js</title>
<path fill="none" stroke="#242424" d="M467.4808,-1309.5835C437.4386,-1267.8303 392.196,-1197.0177 374.1988,-1127.6114 321.1,-922.8349 402.1507,-676.4559 454.4968,-549.0951"/>
<polygon fill="#242424" stroke="#242424" points="457.7706,-550.3375 458.3702,-539.7596 451.305,-547.6548 457.7706,-550.3375"/>
</g>
<!-- delegate&#45;fast.js&#45;&gt;✪entrust/entrust.js -->
<g id="edge7" class="edge">
<title>delegate&#45;fast.js&#45;&gt;✪entrust/entrust.js</title>
<path fill="none" stroke="#242424" d="M466.0867,-384.1817C451.2175,-340.68 432.6066,-286.2313 416.603,-239.4108"/>
<polygon fill="#242424" stroke="#242424" points="419.8808,-238.1791 413.3345,-229.8486 413.2571,-240.4432 419.8808,-238.1791"/>
</g>
<!-- delegate&#45;fast.js&#45;&gt;✪katsu&#45;curry/katsu&#45;curry.js -->
<g id="edge8" class="edge">
<title>delegate&#45;fast.js&#45;&gt;✪katsu&#45;curry/katsu&#45;curry.js</title>
<path fill="none" stroke="#242424" d="M538.5424,-392.8461C552.041,-376.7235 568.1244,-361.2436 586.1988,-350.6631 762.7785,-247.2958 1358.4419,-177.2314 1636.7048,-149.3492"/>
<polygon fill="#242424" stroke="#242424" points="1637.271,-152.8102 1646.8743,-148.3348 1636.5762,-145.8447 1637.271,-152.8102"/>
</g>
<!-- choice.js -->
<g id="node9" class="node">
<title>choice.js</title>
<ellipse fill="none" stroke="#242424" stroke-width="4" cx="2365.1988" cy="-463.5015" rx="51.7142" ry="51.7142"/>
<text text-anchor="middle" x="2365.1988" y="-461.1015" font-family="Fira Code" font-size="12.00" fill="#242424">choice.js</text>
</g>
<!-- choice.js&#45;&gt;✪katsu&#45;curry/katsu&#45;curry.js -->
<g id="edge6" class="edge">
<title>choice.js&#45;&gt;✪katsu&#45;curry/katsu&#45;curry.js</title>
<path fill="none" stroke="#242424" d="M2324.9638,-430.5746C2295.0912,-406.8984 2252.8331,-374.9903 2213.1988,-350.6631 2117.0237,-291.6316 2002.4531,-235.1283 1915.6197,-194.897"/>
<polygon fill="#242424" stroke="#242424" points="1917.053,-191.7038 1906.507,-190.6875 1914.1174,-198.0585 1917.053,-191.7038"/>
</g>
<!-- flip.js -->
<g id="node11" class="node">
<title>flip.js</title>
<ellipse fill="none" stroke="#242424" stroke-width="4" cx="1597.1988" cy="-1010.1744" rx="42.3196" ry="42.3196"/>
<text text-anchor="middle" x="1597.1988" y="-1007.7744" font-family="Fira Code" font-size="12.00" fill="#242424">flip.js</text>
</g>
<!-- flip.js&#45;&gt;✪katsu&#45;curry/katsu&#45;curry.js -->
<g id="edge11" class="edge">
<title>flip.js&#45;&gt;✪katsu&#45;curry/katsu&#45;curry.js</title>
<path fill="none" stroke="#242424" d="M1608.2445,-968.9913C1616.4124,-944.6127 1629.5688,-914.3681 1649.1988,-892.7374 1697.212,-839.8307 1735.3872,-860.7343 1789.1988,-813.7374 1888.9285,-726.6377 1926.9981,-701.8447 1969.1988,-576.3398 2001.1659,-481.2696 2004.356,-444.6004 1969.1988,-350.6631 1952.8435,-306.963 1923.1377,-266.2898 1892.1458,-232.3497"/>
<polygon fill="#242424" stroke="#242424" points="1894.4689,-229.708 1885.0972,-224.7661 1889.3416,-234.4737 1894.4689,-229.708"/>
</g>
<!-- future.js -->
<g id="node12" class="node">
<title>future.js</title>
<ellipse fill="none" stroke="#242424" stroke-width="4" cx="301.1988" cy="-463.5015" rx="51.7142" ry="51.7142"/>
<text text-anchor="middle" x="301.1988" y="-461.1015" font-family="Fira Code" font-size="12.00" fill="#242424">future.js</text>
</g>
<!-- future.js&#45;&gt;✪entrust/entrust.js -->
<g id="edge12" class="edge">
<title>future.js&#45;&gt;✪entrust/entrust.js</title>
<path fill="none" stroke="#242424" d="M313.5235,-413.0211C324.6067,-367.6258 341.2499,-299.4572 355.2576,-242.0833"/>
<polygon fill="#242424" stroke="#242424" points="358.6889,-242.7856 357.6607,-232.2407 351.8887,-241.1252 358.6889,-242.7856"/>
</g>
<!-- index.js -->
<g id="node13" class="node">
<title>index.js</title>
<ellipse fill="none" stroke="#242424" stroke-width="4" cx="1329.1988" cy="-1613.4801" rx="47.0167" ry="47.0167"/>
<text text-anchor="middle" x="1329.1988" y="-1611.0801" font-family="Fira Code" font-size="12.00" fill="#242424">index.js</text>
</g>
<!-- index.js&#45;&gt;../package.json -->
<g id="edge15" class="edge">
<title>index.js&#45;&gt;../package.json</title>
<path fill="none" stroke="#242424" d="M1282.0712,-1610.7927C1076.3758,-1598.7395 263.2367,-1547.618 167.1988,-1487.4718 145.0262,-1473.5856 127.5025,-1451.847 114.1224,-1429.586"/>
<polygon fill="#242424" stroke="#242424" points="117.035,-1427.6302 109.0119,-1420.7106 110.9688,-1431.1232 117.035,-1427.6302"/>
</g>
<!-- index.js&#45;&gt;array.js -->
<g id="edge16" class="edge">
<title>index.js&#45;&gt;array.js</title>
<path fill="none" stroke="#242424" d="M1282.3459,-1608.4814C1167.64,-1595.2783 877.3391,-1555.7229 812.1988,-1487.4718 701.8597,-1371.8635 703.8505,-1166.2457 712.378,-1066.9487"/>
<polygon fill="#242424" stroke="#242424" points="715.8795,-1067.0915 713.3032,-1056.8147 708.9084,-1066.455 715.8795,-1067.0915"/>
</g>
<!-- index.js&#45;&gt;✪katsu&#45;curry/katsu&#45;curry.js -->
<g id="edge13" class="edge">
<title>index.js&#45;&gt;✪katsu&#45;curry/katsu&#45;curry.js</title>
<path fill="none" stroke="#242424" d="M1282.5828,-1606.4755C1182.6331,-1590.4249 952.977,-1547.6788 906.1988,-1487.4718 841.0719,-1403.6486 887.1988,-1116.3245 887.1988,-1010.1744 887.1988,-1010.1744 887.1988,-1010.1744 887.1988,-734.5386 887.1988,-561.8558 831.1427,-478.5314 947.1988,-350.6631 1038.8624,-249.67 1423.1398,-183.5996 1636.9913,-153.9083"/>
<polygon fill="#242424" stroke="#242424" points="1637.616,-157.3554 1647.0441,-152.522 1636.6596,-150.421 1637.616,-157.3554"/>
</g>
<!-- index.js&#45;&gt;filter.js -->
<g id="edge19" class="edge">
<title>index.js&#45;&gt;filter.js</title>
<path fill="none" stroke="#242424" d="M1281.905,-1610.846C1150.4766,-1602.4992 785.3682,-1572.0074 707.1988,-1487.4718 615.1006,-1387.873 627.3987,-958.2055 635.5483,-796.4468"/>
<polygon fill="#242424" stroke="#242424" points="639.0577,-796.353 636.0779,-786.1858 632.067,-795.9921 639.0577,-796.353"/>
</g>
<!-- index.js&#45;&gt;chain.js -->
<g id="edge17" class="edge">
<title>index.js&#45;&gt;chain.js</title>
<path fill="none" stroke="#242424" d="M1281.9714,-1608.8851C1143.7735,-1594.8371 742.7273,-1549.6076 628.1988,-1487.4718 587.4321,-1465.3544 552.113,-1426.0174 528.294,-1394.5925"/>
<polygon fill="#242424" stroke="#242424" points="530.962,-1392.3147 522.1883,-1386.3754 525.3433,-1396.4897 530.962,-1392.3147"/>
</g>
<!-- index.js&#45;&gt;choice.js -->
<g id="edge18" class="edge">
<title>index.js&#45;&gt;choice.js</title>
<path fill="none" stroke="#242424" d="M1376.2744,-1610.421C1528.8345,-1599.8577 2007.4684,-1561.4405 2141.1988,-1487.4718 2326.4321,-1385.0159 2379.1959,-1325.9348 2453.1988,-1127.6114 2532.9869,-913.784 2438.7471,-637.553 2390.3952,-520.228"/>
<polygon fill="#242424" stroke="#242424" points="2393.5082,-518.5992 2386.431,-510.7148 2387.0467,-521.2918 2393.5082,-518.5992"/>
</g>
<!-- index.js&#45;&gt;flip.js -->
<g id="edge20" class="edge">
<title>index.js&#45;&gt;flip.js</title>
<path fill="none" stroke="#242424" d="M1374.5864,-1599.9718C1424.3853,-1582.5874 1502.3901,-1547.2715 1541.1988,-1487.4718 1627.5516,-1354.4122 1616.5287,-1155.7351 1605.1373,-1062.294"/>
<polygon fill="#242424" stroke="#242424" points="1608.5922,-1061.7172 1603.8597,-1052.2381 1601.648,-1062.5995 1608.5922,-1061.7172"/>
</g>
<!-- index.js&#45;&gt;future.js -->
<g id="edge21" class="edge">
<title>index.js&#45;&gt;future.js</title>
<path fill="none" stroke="#242424" d="M1282.2229,-1609.8874C1107.6974,-1596.1303 503.3882,-1544.6942 440.1988,-1487.4718 297.564,-1358.306 296.3716,-726.5898 299.7299,-525.2661"/>
<polygon fill="#242424" stroke="#242424" points="303.2312,-525.2204 299.9085,-515.1601 296.2323,-525.0966 303.2312,-525.2204"/>
</g>
<!-- ✪katsu&#45;curry/utils/length.js -->
<g id="node14" class="node">
<title>✪katsu&#45;curry/utils/length.js</title>
<ellipse fill="none" stroke="#0c821d" stroke-width="4" cx="2678.1988" cy="-1347.0416" rx="140.3604" ry="140.3604"/>
<text text-anchor="middle" x="2678.1988" y="-1344.6416" font-family="Fira Code" font-size="12.00" fill="#0c821d">✪katsu&#45;curry/utils/length.js</text>
</g>
<!-- index.js&#45;&gt;✪katsu&#45;curry/utils/length.js -->
<g id="edge14" class="edge">
<title>index.js&#45;&gt;✪katsu&#45;curry/utils/length.js</title>
<path fill="none" stroke="#242424" d="M1376.3151,-1612.4067C1571.108,-1607.3797 2313.2072,-1582.2522 2524.1988,-1487.4718 2541.7654,-1479.5806 2558.6841,-1468.9008 2574.465,-1456.933"/>
<polygon fill="#242424" stroke="#242424" points="2576.8881,-1459.4814 2582.6111,-1450.5652 2572.577,-1453.9664 2576.8881,-1459.4814"/>
</g>
<!-- invert.js -->
<g id="node15" class="node">
<title>invert.js</title>
<ellipse fill="none" stroke="#242424" stroke-width="4" cx="1695.1988" cy="-734.5386" rx="51.7142" ry="51.7142"/>
<text text-anchor="middle" x="1695.1988" y="-732.1386" font-family="Fira Code" font-size="12.00" fill="#242424">invert.js</text>
</g>
<!-- index.js&#45;&gt;invert.js -->
<g id="edge22" class="edge">
<title>index.js&#45;&gt;invert.js</title>
<path fill="none" stroke="#242424" d="M1347.1795,-1569.8745C1356.7568,-1545.804 1368.3514,-1515.2418 1377.1988,-1487.4718 1427.345,-1330.0743 1434.635,-1288.9304 1470.1988,-1127.6114 1493.0458,-1023.9765 1455.3079,-981.6802 1513.1988,-892.7374 1547.2253,-840.4596 1583.0088,-855.6569 1629.1988,-813.7374 1639.1268,-804.7273 1648.8956,-794.2093 1657.7483,-783.8372"/>
<polygon fill="#242424" stroke="#242424" points="1660.6023,-785.88 1664.3269,-775.9614 1655.2299,-781.3924 1660.6023,-785.88"/>
</g>
<!-- iterate.js -->
<g id="node16" class="node">
<title>iterate.js</title>
<ellipse fill="none" stroke="#242424" stroke-width="4" cx="803.1988" cy="-734.5386" rx="56.412" ry="56.412"/>
<text text-anchor="middle" x="803.1988" y="-732.1386" font-family="Fira Code" font-size="12.00" fill="#242424">iterate.js</text>
</g>
<!-- index.js&#45;&gt;iterate.js -->
<g id="edge23" class="edge">
<title>index.js&#45;&gt;iterate.js</title>
<path fill="none" stroke="#242424" d="M1282.4358,-1607.2952C1177.0756,-1592.3495 926.1823,-1550.7672 873.1988,-1487.4718 787.0319,-1384.5347 793.8636,-965.5511 800.0976,-801.172"/>
<polygon fill="#242424" stroke="#242424" points="803.6128,-800.848 800.5063,-790.7189 796.6182,-800.5744 803.6128,-800.848"/>
</g>
<!-- map.js -->
<g id="node17" class="node">
<title>map.js</title>
<ellipse fill="none" stroke="#242424" stroke-width="4" cx="1273.1988" cy="-734.5386" rx="37.623" ry="37.623"/>
<text text-anchor="middle" x="1273.1988" y="-732.1386" font-family="Fira Code" font-size="12.00" fill="#242424">map.js</text>
</g>
<!-- index.js&#45;&gt;map.js -->
<g id="edge24" class="edge">
<title>index.js&#45;&gt;map.js</title>
<path fill="none" stroke="#242424" d="M1323.3667,-1566.5662C1320.5801,-1542.8818 1317.3844,-1513.684 1315.1988,-1487.4718 1293.0499,-1221.8323 1279.5653,-902.4659 1274.9733,-782.8651"/>
<polygon fill="#242424" stroke="#242424" points="1278.46,-782.4484 1274.5818,-772.5889 1271.4651,-782.7149 1278.46,-782.4484"/>
</g>
<!-- math.js -->
<g id="node18" class="node">
<title>math.js</title>
<ellipse fill="none" stroke="#242424" stroke-width="4" cx="2526.1988" cy="-734.5386" rx="42.3196" ry="42.3196"/>
<text text-anchor="middle" x="2526.1988" y="-732.1386" font-family="Fira Code" font-size="12.00" fill="#242424">math.js</text>
</g>
<!-- index.js&#45;&gt;math.js -->
<g id="edge25" class="edge">
<title>index.js&#45;&gt;math.js</title>
<path fill="none" stroke="#242424" d="M1376.3066,-1611.8811C1583.6985,-1604.3791 2408.5659,-1569.5298 2486.1988,-1487.4718 2534.0648,-1436.8774 2529.9895,-950.015 2527.2537,-787.2411"/>
<polygon fill="#242424" stroke="#242424" points="2530.749,-786.934 2527.076,-776.9962 2523.75,-787.0555 2530.749,-786.934"/>
</g>
<!-- object.js -->
<g id="node19" class="node">
<title>object.js</title>
<ellipse fill="none" stroke="#242424" stroke-width="4" cx="1409.1988" cy="-1010.1744" rx="51.7142" ry="51.7142"/>
<text text-anchor="middle" x="1409.1988" y="-1007.7744" font-family="Fira Code" font-size="12.00" fill="#242424">object.js</text>
</g>
<!-- index.js&#45;&gt;object.js -->
<g id="edge26" class="edge">
<title>index.js&#45;&gt;object.js</title>
<path fill="none" stroke="#242424" d="M1335.4097,-1566.6417C1349.7142,-1458.7673 1384.9819,-1192.8016 1401.0214,-1071.8427"/>
<polygon fill="#242424" stroke="#242424" points="1404.5289,-1072.0168 1402.3739,-1061.6435 1397.5896,-1071.0966 1404.5289,-1072.0168"/>
</g>
<!-- path.js -->
<g id="node20" class="node">
<title>path.js</title>
<ellipse fill="none" stroke="#242424" stroke-width="4" cx="2402.1988" cy="-1010.1744" rx="42.3196" ry="42.3196"/>
<text text-anchor="middle" x="2402.1988" y="-1007.7744" font-family="Fira Code" font-size="12.00" fill="#242424">path.js</text>
</g>
<!-- index.js&#45;&gt;path.js -->
<g id="edge27" class="edge">
<title>index.js&#45;&gt;path.js</title>
<path fill="none" stroke="#242424" d="M1375.895,-1607.5829C1504.2647,-1590.8455 1859.8665,-1540.7956 1964.1988,-1487.4718 2173.337,-1380.5822 2215.552,-1319.351 2351.1988,-1127.6114 2365.6804,-1107.1414 2377.3021,-1081.9085 2385.7725,-1060.0851"/>
<polygon fill="#242424" stroke="#242424" points="2389.0778,-1061.239 2389.3249,-1050.6471 2382.5265,-1058.7731 2389.0778,-1061.239"/>
</g>
<!-- random&#45;floor.js -->
<g id="node21" class="node">
<title>random&#45;floor.js</title>
<ellipse fill="none" stroke="#242424" stroke-width="4" cx="1070.1988" cy="-734.5386" rx="79.3981" ry="79.3981"/>
<text text-anchor="middle" x="1070.1988" y="-732.1386" font-family="Fira Code" font-size="12.00" fill="#242424">random&#45;floor.js</text>
</g>
<!-- index.js&#45;&gt;random&#45;floor.js -->
<g id="edge28" class="edge">
<title>index.js&#45;&gt;random&#45;floor.js</title>
<path fill="none" stroke="#242424" d="M1294.7137,-1581.4349C1271.2758,-1557.7091 1241.4947,-1523.3909 1224.1988,-1487.4718 1107.5061,-1245.1309 1168.2558,-1155.8037 1112.1988,-892.7374 1107.1981,-869.2701 1100.9271,-844.0729 1094.7676,-820.84"/>
<polygon fill="#242424" stroke="#242424" points="1098.1045,-819.7697 1092.1387,-811.0141 1091.3423,-821.5789 1098.1045,-819.7697"/>
</g>
<!-- random&#45;shuffle.js -->
<g id="node22" class="node">
<title>random&#45;shuffle.js</title>
<ellipse fill="none" stroke="#0c821d" stroke-width="4" cx="2925.1988" cy="-1347.0416" rx="88.2923" ry="88.2923"/>
<text text-anchor="middle" x="2925.1988" y="-1344.6416" font-family="Fira Code" font-size="12.00" fill="#0c821d">random&#45;shuffle.js</text>
</g>
<!-- index.js&#45;&gt;random&#45;shuffle.js -->
<g id="edge29" class="edge">
<title>index.js&#45;&gt;random&#45;shuffle.js</title>
<path fill="none" stroke="#242424" d="M1376.3768,-1611.8841C1616.7245,-1603.4392 2698.6539,-1561.5359 2827.1988,-1487.4718 2848.7074,-1475.0791 2866.6107,-1455.8316 2880.9725,-1435.5192"/>
<polygon fill="#242424" stroke="#242424" points="2883.9828,-1437.3164 2886.7071,-1427.0778 2878.1925,-1433.3828 2883.9828,-1437.3164"/>
</g>
<!-- random&#45;take.js -->
<g id="node23" class="node">
<title>random&#45;take.js</title>
<ellipse fill="none" stroke="#242424" stroke-width="4" cx="1028.1988" cy="-1010.1744" rx="74.7005" ry="74.7005"/>
<text text-anchor="middle" x="1028.1988" y="-1007.7744" font-family="Fira Code" font-size="12.00" fill="#242424">random&#45;take.js</text>
</g>
<!-- index.js&#45;&gt;random&#45;take.js -->
<g id="edge30" class="edge">
<title>index.js&#45;&gt;random&#45;take.js</title>
<path fill="none" stroke="#242424" d="M1284.1941,-1599.7185C1234.7425,-1582.1043 1157.0518,-1546.5807 1117.1988,-1487.4718 1046.6032,-1382.7663 1098.169,-1330.5969 1074.1988,-1206.6114 1066.9374,-1169.0517 1057.4991,-1127.7855 1049.0631,-1092.8121"/>
<polygon fill="#242424" stroke="#242424" points="1052.3565,-1091.5415 1046.5973,-1082.6487 1045.5538,-1093.192 1052.3565,-1091.5415"/>
</g>
<!-- random&#45;word.js -->
<g id="node24" class="node">
<title>random&#45;word.js</title>
<ellipse fill="none" stroke="#242424" stroke-width="4" cx="990.1988" cy="-1347.0416" rx="74.7005" ry="74.7005"/>
<text text-anchor="middle" x="990.1988" y="-1344.6416" font-family="Fira Code" font-size="12.00" fill="#242424">random&#45;word.js</text>
</g>
<!-- index.js&#45;&gt;random&#45;word.js -->
<g id="edge31" class="edge">
<title>index.js&#45;&gt;random&#45;word.js</title>
<path fill="none" stroke="#242424" d="M1284.2404,-1599.1611C1230.5746,-1580.324 1140.4171,-1542.966 1079.1988,-1487.4718 1059.1931,-1469.3366 1041.9239,-1445.7031 1028.0627,-1423.0115"/>
<polygon fill="#242424" stroke="#242424" points="1031.0426,-1421.1749 1022.9185,-1414.3742 1025.0285,-1424.7568 1031.0426,-1421.1749"/>
</g>
<!-- random.js -->
<g id="node25" class="node">
<title>random.js</title>
<ellipse fill="none" stroke="#0c821d" stroke-width="4" cx="3083.1988" cy="-1347.0416" rx="51.7142" ry="51.7142"/>
<text text-anchor="middle" x="3083.1988" y="-1344.6416" font-family="Fira Code" font-size="12.00" fill="#0c821d">random.js</text>
</g>
<!-- index.js&#45;&gt;random.js -->
<g id="edge32" class="edge">
<title>index.js&#45;&gt;random.js</title>
<path fill="none" stroke="#242424" d="M1376.2805,-1612.8445C1635.7446,-1608.9662 2884.4874,-1585.2974 3022.1988,-1487.4718 3048.2874,-1468.9393 3063.329,-1436.7801 3071.9442,-1407.9095"/>
<polygon fill="#242424" stroke="#242424" points="3075.3178,-1408.8413 3074.6262,-1398.2691 3068.574,-1406.9651 3075.3178,-1408.8413"/>
</g>
<!-- reduce.js -->
<g id="node26" class="node">
<title>reduce.js</title>
<ellipse fill="none" stroke="#242424" stroke-width="4" cx="1409.1988" cy="-734.5386" rx="51.7142" ry="51.7142"/>
<text text-anchor="middle" x="1409.1988" y="-732.1386" font-family="Fira Code" font-size="12.00" fill="#242424">reduce.js</text>
</g>
<!-- index.js&#45;&gt;reduce.js -->
<g id="edge33" class="edge">
<title>index.js&#45;&gt;reduce.js</title>
<path fill="none" stroke="#242424" d="M1328.3477,-1566.009C1326.1867,-1426.93 1322.3577,-1022.0818 1348.1988,-892.7374 1355.2239,-857.5743 1369.3754,-820.0548 1382.2806,-790.3835"/>
<polygon fill="#242424" stroke="#242424" points="1385.5697,-791.5996 1386.4161,-781.0386 1379.1686,-788.7667 1385.5697,-791.5996"/>
</g>
<!-- reject.js -->
<g id="node27" class="node">
<title>reject.js</title>
<ellipse fill="none" stroke="#242424" stroke-width="4" cx="1211.1988" cy="-1010.1744" rx="51.7142" ry="51.7142"/>
<text text-anchor="middle" x="1211.1988" y="-1007.7744" font-family="Fira Code" font-size="12.00" fill="#242424">reject.js</text>
</g>
<!-- index.js&#45;&gt;reject.js -->
<g id="edge34" class="edge">
<title>index.js&#45;&gt;reject.js</title>
<path fill="none" stroke="#242424" d="M1308.488,-1570.98C1297.6091,-1546.984 1284.9604,-1516.1405 1277.1988,-1487.4718 1237.7314,-1341.6918 1221.106,-1164.1405 1214.734,-1072.1369"/>
<polygon fill="#242424" stroke="#242424" points="1218.2078,-1071.629 1214.0423,-1061.8874 1211.2237,-1072.1005 1218.2078,-1071.629"/>
</g>
<!-- string.js -->
<g id="node28" class="node">
<title>string.js</title>
<ellipse fill="none" stroke="#242424" stroke-width="4" cx="228.1988" cy="-1347.0416" rx="51.7142" ry="51.7142"/>
<text text-anchor="middle" x="228.1988" y="-1344.6416" font-family="Fira Code" font-size="12.00" fill="#242424">string.js</text>
</g>
<!-- index.js&#45;&gt;string.js -->
<g id="edge35" class="edge">
<title>index.js&#45;&gt;string.js</title>
<path fill="none" stroke="#242424" d="M1281.9734,-1610.4109C1090.1132,-1597.5834 375.3649,-1546.1924 294.1988,-1487.4718 267.8246,-1468.3911 251.6436,-1436.0341 241.9094,-1407.1858"/>
<polygon fill="#242424" stroke="#242424" points="245.2149,-1406.031 238.8499,-1397.5613 238.5439,-1408.1517 245.2149,-1406.031"/>
</g>
<!-- ternary.js -->
<g id="node29" class="node">
<title>ternary.js</title>
<ellipse fill="none" stroke="#242424" stroke-width="4" cx="1904.1988" cy="-463.5015" rx="56.412" ry="56.412"/>
<text text-anchor="middle" x="1904.1988" y="-461.1015" font-family="Fira Code" font-size="12.00" fill="#242424">ternary.js</text>
</g>
<!-- index.js&#45;&gt;ternary.js -->
<g id="edge36" class="edge">
<title>index.js&#45;&gt;ternary.js</title>
<path fill="none" stroke="#242424" d="M1362.5229,-1580.0014C1384.4076,-1556.1349 1411.9027,-1522.2342 1428.1988,-1487.4718 1497.6227,-1339.3785 1474.0192,-1288.1702 1505.1988,-1127.6114 1525.3996,-1023.5877 1478.5916,-974.3356 1546.1988,-892.7374 1609.8198,-815.9503 1691.3355,-889.4781 1756.1988,-813.7374 1802.9738,-759.1185 1763.0132,-722.3132 1789.1988,-655.3398 1808.5074,-605.9554 1839.9377,-554.6723 1865.0642,-517.5672"/>
<polygon fill="#242424" stroke="#242424" points="1868.2188,-519.1546 1870.9762,-508.9249 1862.4413,-515.2023 1868.2188,-519.1546"/>
</g>
<!-- triplet.js -->
<g id="node30" class="node">
<title>triplet.js</title>
<ellipse fill="none" stroke="#242424" stroke-width="4" cx="1714.1988" cy="-1010.1744" rx="56.412" ry="56.412"/>
<text text-anchor="middle" x="1714.1988" y="-1007.7744" font-family="Fira Code" font-size="12.00" fill="#242424">triplet.js</text>
</g>
<!-- index.js&#45;&gt;triplet.js -->
<g id="edge37" class="edge">
<title>index.js&#45;&gt;triplet.js</title>
<path fill="none" stroke="#242424" d="M1375.276,-1603.8021C1434.0256,-1589.0277 1534.6316,-1555.1295 1590.1988,-1487.4718 1688.9939,-1367.1806 1710.0037,-1177.0022 1713.884,-1076.8828"/>
<polygon fill="#242424" stroke="#242424" points="1717.3918,-1076.7121 1714.2343,-1066.5988 1710.3958,-1076.4738 1717.3918,-1076.7121"/>
</g>
<!-- types.js -->
<g id="node31" class="node">
<title>types.js</title>
<ellipse fill="none" stroke="#242424" stroke-width="4" cx="2064.1988" cy="-734.5386" rx="47.0167" ry="47.0167"/>
<text text-anchor="middle" x="2064.1988" y="-732.1386" font-family="Fira Code" font-size="12.00" fill="#242424">types.js</text>
</g>
<!-- index.js&#45;&gt;types.js -->
<g id="edge38" class="edge">
<title>index.js&#45;&gt;types.js</title>
<path fill="none" stroke="#242424" d="M1376.0394,-1608.2694C1447.0299,-1597.9184 1581.7743,-1568.2903 1659.1988,-1487.4718 1775.8304,-1365.7275 1738.9376,-1291.3295 1779.1988,-1127.6114 1804.4512,-1024.925 1752.3787,-976.287 1817.1988,-892.7374 1871.0019,-823.3882 1927.9959,-866.4219 1998.1988,-813.7374 2010.1791,-804.7467 2021.3798,-793.1705 2031.0302,-781.66"/>
<polygon fill="#242424" stroke="#242424" points="2033.8765,-783.7068 2037.4542,-773.7343 2028.4384,-779.2991 2033.8765,-783.7068"/>
</g>
<!-- which.js -->
<g id="node32" class="node">
<title>which.js</title>
<ellipse fill="none" stroke="#242424" stroke-width="4" cx="1908.1988" cy="-1347.0416" rx="47.0167" ry="47.0167"/>
<text text-anchor="middle" x="1908.1988" y="-1344.6416" font-family="Fira Code" font-size="12.00" fill="#242424">which.js</text>
</g>
<!-- index.js&#45;&gt;which.js -->
<g id="edge39" class="edge">
<title>index.js&#45;&gt;which.js</title>
<path fill="none" stroke="#242424" d="M1375.8416,-1605.6104C1482.5576,-1586.9323 1740.7939,-1537.7163 1812.1988,-1487.4718 1843.7178,-1465.2933 1868.0489,-1429.2341 1884.3297,-1399.2094"/>
<polygon fill="#242424" stroke="#242424" points="1887.5603,-1400.5861 1889.123,-1390.1072 1881.3666,-1397.3245 1887.5603,-1400.5861"/>
</g>
<!-- invert.js&#45;&gt;✪katsu&#45;curry/katsu&#45;curry.js -->
<g id="edge40" class="edge">
<title>invert.js&#45;&gt;✪katsu&#45;curry/katsu&#45;curry.js</title>
<path fill="none" stroke="#242424" d="M1729.2282,-695.4247C1753.1538,-665.1894 1783.1379,-621.0688 1796.1988,-576.3398 1824.2843,-480.1567 1819.973,-367.1085 1809.06,-279.6176"/>
<polygon fill="#242424" stroke="#242424" points="1812.5208,-279.0884 1807.7703,-269.6183 1805.5784,-279.9839 1812.5208,-279.0884"/>
</g>
<!-- iterate.js&#45;&gt;✪katsu&#45;curry/katsu&#45;curry.js -->
<g id="edge41" class="edge">
<title>iterate.js&#45;&gt;✪katsu&#45;curry/katsu&#45;curry.js</title>
<path fill="none" stroke="#242424" d="M811.7232,-678.7919C827.7853,-575.2313 861.9304,-362.5298 873.1988,-350.6631 976.7608,-241.6024 1407.4844,-177.7981 1636.8885,-150.925"/>
<polygon fill="#242424" stroke="#242424" points="1637.4557,-154.3828 1646.9844,-149.751 1636.647,-147.4296 1637.4557,-154.3828"/>
</g>
<!-- map.js&#45;&gt;✪entrust/entrust.js -->
<g id="edge42" class="edge">
<title>map.js&#45;&gt;✪entrust/entrust.js</title>
<path fill="none" stroke="#242424" d="M1245.1197,-708.905C1173.2674,-644.0484 975.467,-470.1088 792.1988,-350.6631 690.5099,-284.387 566.0557,-221.6673 480.9143,-181.2997"/>
<polygon fill="#242424" stroke="#242424" points="482.3037,-178.0852 471.767,-176.977 479.3128,-184.4141 482.3037,-178.0852"/>
</g>
<!-- map.js&#45;&gt;✪katsu&#45;curry/katsu&#45;curry.js -->
<g id="edge45" class="edge">
<title>map.js&#45;&gt;✪katsu&#45;curry/katsu&#45;curry.js</title>
<path fill="none" stroke="#242424" d="M1245.8588,-708.2162C1208.7457,-671.7399 1145.7072,-606.8734 1134.1988,-576.3398 1098.8237,-482.4844 1075.4859,-431.9837 1134.1988,-350.6631 1193.9619,-267.8881 1466.76,-199.2284 1638.7943,-163.1736"/>
<polygon fill="#242424" stroke="#242424" points="1639.6209,-166.5766 1648.697,-161.1108 1638.1934,-159.7237 1639.6209,-166.5766"/>
</g>
<!-- ✪fantasy&#45;land/index.js -->
<g id="node33" class="node">
<title>✪fantasy&#45;land/index.js</title>
<ellipse fill="none" stroke="#0c821d" stroke-width="4" cx="1256.1988" cy="-463.5015" rx="112.6769" ry="112.6769"/>
<text text-anchor="middle" x="1256.1988" y="-461.1015" font-family="Fira Code" font-size="12.00" fill="#0c821d">✪fantasy&#45;land/index.js</text>
</g>
<!-- map.js&#45;&gt;✪fantasy&#45;land/index.js -->
<g id="edge43" class="edge">
<title>map.js&#45;&gt;✪fantasy&#45;land/index.js</title>
<path fill="none" stroke="#242424" d="M1270.8171,-696.5667C1269.006,-667.6905 1266.4064,-626.2443 1263.9002,-586.2876"/>
<polygon fill="#242424" stroke="#242424" points="1267.3848,-585.9311 1263.2656,-576.1698 1260.3985,-586.3693 1267.3848,-585.9311"/>
</g>
<!-- ✪fast.js/map.js -->
<g id="node34" class="node">
<title>✪fast.js/map.js</title>
<ellipse fill="none" stroke="#0c821d" stroke-width="4" cx="1467.1988" cy="-463.5015" rx="80.796" ry="80.796"/>
<text text-anchor="middle" x="1467.1988" y="-461.1015" font-family="Fira Code" font-size="12.00" fill="#0c821d">✪fast.js/map.js</text>
</g>
<!-- map.js&#45;&gt;✪fast.js/map.js -->
<g id="edge44" class="edge">
<title>map.js&#45;&gt;✪fast.js/map.js</title>
<path fill="none" stroke="#242424" d="M1295.2642,-703.7111C1323.9806,-663.5914 1375.1002,-592.1723 1414.1591,-537.6032"/>
<polygon fill="#242424" stroke="#242424" points="1417.1,-539.5078 1420.0743,-529.339 1411.4078,-535.4335 1417.1,-539.5078"/>
</g>
<!-- math.js&#45;&gt;✪katsu&#45;curry/katsu&#45;curry.js -->
<g id="edge46" class="edge">
<title>math.js&#45;&gt;✪katsu&#45;curry/katsu&#45;curry.js</title>
<path fill="none" stroke="#242424" d="M2527.5073,-692.0584C2527.5449,-614.0133 2516.2725,-446.9972 2426.1988,-350.6631 2357.3369,-277.0151 2092.8697,-205.8521 1925.0118,-166.7482"/>
<polygon fill="#242424" stroke="#242424" points="1925.6299,-163.2987 1915.0978,-164.4497 1924.0489,-170.1179 1925.6299,-163.2987"/>
</g>
<!-- object.js&#45;&gt;✪katsu&#45;curry/katsu&#45;curry.js -->
<g id="edge47" class="edge">
<title>object.js&#45;&gt;✪katsu&#45;curry/katsu&#45;curry.js</title>
<path fill="none" stroke="#242424" d="M1430.0883,-962.675C1440.1989,-940.9245 1452.9942,-915.0757 1466.1988,-892.7374 1531.9733,-781.4666 1539.8179,-743.6559 1634.1988,-655.3398 1683.2888,-609.4043 1729.0838,-634.2714 1763.1988,-576.3398 1791.6848,-527.9671 1793.7664,-390.4247 1790.3489,-281.7679"/>
<polygon fill="#242424" stroke="#242424" points="1793.844,-281.5577 1790.0134,-271.6796 1786.8479,-281.7905 1793.844,-281.5577"/>
</g>
<!-- object.js&#45;&gt;map.js -->
<g id="edge48" class="edge">
<title>object.js&#45;&gt;map.js</title>
<path fill="none" stroke="#242424" d="M1386.2821,-963.7282C1360.6265,-911.7312 1319.3881,-828.152 1294.4371,-777.583"/>
<polygon fill="#242424" stroke="#242424" points="1297.5388,-775.959 1289.9752,-768.5399 1291.2613,-779.0564 1297.5388,-775.959"/>
</g>
<!-- object.js&#45;&gt;reduce.js -->
<g id="edge49" class="edge">
<title>object.js&#45;&gt;reduce.js</title>
<path fill="none" stroke="#242424" d="M1409.1988,-958.3294C1409.1988,-912.3226 1409.1988,-845.0336 1409.1988,-796.2629"/>
<polygon fill="#242424" stroke="#242424" points="1412.6989,-796.1511 1409.1988,-786.1511 1405.6989,-796.1512 1412.6989,-796.1511"/>
</g>
<!-- path.js&#45;&gt;✪katsu&#45;curry/katsu&#45;curry.js -->
<g id="edge50" class="edge">
<title>path.js&#45;&gt;✪katsu&#45;curry/katsu&#45;curry.js</title>
<path fill="none" stroke="#242424" d="M2396.2712,-967.7643C2378.586,-855.0735 2316.8778,-543.6303 2153.1988,-350.6631 2090.9729,-277.3027 1997.0141,-223.2582 1919.2249,-187.7246"/>
<polygon fill="#242424" stroke="#242424" points="1920.3765,-184.4045 1909.8218,-183.4829 1917.4981,-190.7853 1920.3765,-184.4045"/>
</g>
<!-- path.js&#45;&gt;math.js -->
<g id="edge51" class="edge">
<title>path.js&#45;&gt;math.js</title>
<path fill="none" stroke="#242424" d="M2419.702,-971.2671C2441.9961,-921.7101 2480.514,-836.0899 2504.6075,-782.5333"/>
<polygon fill="#242424" stroke="#242424" points="2507.8739,-783.8036 2508.7847,-773.248 2501.4901,-780.9317 2507.8739,-783.8036"/>
</g>
<!-- path.js&#45;&gt;reduce.js -->
<g id="edge52" class="edge">
<title>path.js&#45;&gt;reduce.js</title>
<path fill="none" stroke="#242424" d="M2394.9748,-968.2043C2388.2117,-942.2317 2375.3498,-910.5474 2351.1988,-892.7374 2222.1875,-797.5987 1790.4882,-849.3594 1634.1988,-813.7374 1575.7056,-800.4055 1511.3605,-776.7999 1466.5187,-758.8177"/>
<polygon fill="#242424" stroke="#242424" points="1467.5556,-755.4617 1456.9729,-754.9565 1464.9307,-761.951 1467.5556,-755.4617"/>
</g>
<!-- random&#45;floor.js&#45;&gt;✪katsu&#45;curry/katsu&#45;curry.js -->
<g id="edge53" class="edge">
<title>random&#45;floor.js&#45;&gt;✪katsu&#45;curry/katsu&#45;curry.js</title>
<path fill="none" stroke="#242424" d="M1034.6109,-663.3847C998.4628,-579.8612 956.7275,-441.2701 1025.1988,-350.6631 1098.8559,-253.1939 1439.0968,-187.0561 1637.4681,-156.0466"/>
<polygon fill="#242424" stroke="#242424" points="1638.0468,-159.4987 1647.3915,-154.5061 1636.9729,-152.5816 1638.0468,-159.4987"/>
</g>
<!-- random&#45;take.js&#45;&gt;✪katsu&#45;curry/katsu&#45;curry.js -->
<g id="edge54" class="edge">
<title>random&#45;take.js&#45;&gt;✪katsu&#45;curry/katsu&#45;curry.js</title>
<path fill="none" stroke="#242424" d="M1007.2505,-938.5721C997.5181,-901.6447 987.0424,-855.6652 982.1988,-813.7374 972.0574,-725.9511 967.8203,-371.8894 984.1988,-350.6631 1063.4816,-247.9139 1429.2357,-183.0993 1636.9748,-153.9173"/>
<polygon fill="#242424" stroke="#242424" points="1637.6315,-157.3597 1647.0523,-152.5122 1636.6647,-150.4268 1637.6315,-157.3597"/>
</g>
<!-- random&#45;take.js&#45;&gt;iterate.js -->
<g id="edge55" class="edge">
<title>random&#45;take.js&#45;&gt;iterate.js</title>
<path fill="none" stroke="#242424" d="M980.757,-952.056C940.6586,-902.9335 883.7593,-833.2291 845.2656,-786.0725"/>
<polygon fill="#242424" stroke="#242424" points="847.8115,-783.6565 838.7765,-778.123 842.3888,-788.083 847.8115,-783.6565"/>
</g>
<!-- random&#45;take.js&#45;&gt;random&#45;floor.js -->
<g id="edge56" class="edge">
<title>random&#45;take.js&#45;&gt;random&#45;floor.js</title>
<path fill="none" stroke="#242424" d="M1039.454,-936.3091C1044.7623,-901.472 1051.138,-859.6298 1056.7038,-823.1028"/>
<polygon fill="#242424" stroke="#242424" points="1060.2043,-823.3646 1058.2507,-812.9515 1053.2841,-822.3101 1060.2043,-823.3646"/>
</g>
<!-- random&#45;word.js&#45;&gt;array.js -->
<g id="edge58" class="edge">
<title>random&#45;word.js&#45;&gt;array.js</title>
<path fill="none" stroke="#242424" d="M943.3036,-1288.7484C889.8052,-1222.247 803.4918,-1114.955 755.0818,-1054.7788"/>
<polygon fill="#242424" stroke="#242424" points="757.7922,-1052.5642 748.7969,-1046.9664 752.338,-1056.9519 757.7922,-1052.5642"/>
</g>
<!-- random&#45;word.js&#45;&gt;✪katsu&#45;curry/katsu&#45;curry.js -->
<g id="edge57" class="edge">
<title>random&#45;word.js&#45;&gt;✪katsu&#45;curry/katsu&#45;curry.js</title>
<path fill="none" stroke="#242424" d="M971.0527,-1274.4939C960.8373,-1232.0255 949.3373,-1177.1679 944.1988,-1127.6114 924.275,-935.464 961.3097,-360.4335 969.1988,-350.6631 1052.4426,-247.5692 1426.4154,-182.6618 1636.9552,-153.6221"/>
<polygon fill="#242424" stroke="#242424" points="1637.7331,-157.0484 1647.1659,-152.2242 1636.7835,-150.1131 1637.7331,-157.0484"/>
</g>
<!-- random&#45;word.js&#45;&gt;random&#45;take.js -->
<g id="edge59" class="edge">
<title>random&#45;word.js&#45;&gt;random&#45;take.js</title>
<path fill="none" stroke="#242424" d="M998.5851,-1272.6976C1004.5316,-1219.9828 1012.5202,-1149.1639 1018.7017,-1094.366"/>
<polygon fill="#242424" stroke="#242424" points="1022.1908,-1094.6578 1019.8339,-1084.3285 1015.235,-1093.8731 1022.1908,-1094.6578"/>
</g>
<!-- reduce.js&#45;&gt;delegate&#45;fast.js -->
<g id="edge61" class="edge">
<title>reduce.js&#45;&gt;delegate&#45;fast.js</title>
<path fill="none" stroke="#242424" d="M1375.2515,-695.2234C1360.0042,-680.1891 1340.8099,-664.4751 1320.1988,-655.3398 1020.2358,-522.389 875.0236,-732.0124 586.1988,-576.3398 570.6939,-567.9829 556.7622,-555.8673 544.6897,-542.6442"/>
<polygon fill="#242424" stroke="#242424" points="547.0119,-539.9822 537.7987,-534.7508 541.7386,-544.5858 547.0119,-539.9822"/>
</g>
<!-- ✪fast.js/reduce.js -->
<g id="node35" class="node">
<title>✪fast.js/reduce.js</title>
<ellipse fill="none" stroke="#0c821d" stroke-width="4" cx="1660.1988" cy="-463.5015" rx="94.3876" ry="94.3876"/>
<text text-anchor="middle" x="1660.1988" y="-461.1015" font-family="Fira Code" font-size="12.00" fill="#0c821d">✪fast.js/reduce.js</text>
</g>
<!-- reduce.js&#45;&gt;✪fast.js/reduce.js -->
<g id="edge60" class="edge">
<title>reduce.js&#45;&gt;✪fast.js/reduce.js</title>
<path fill="none" stroke="#242424" d="M1444.6151,-696.942C1474.6794,-664.9648 1518.9103,-617.7728 1557.1988,-576.3398 1567.7832,-564.8861 1578.939,-552.7414 1589.8454,-540.8273"/>
<polygon fill="#242424" stroke="#242424" points="1592.4294,-543.188 1596.5965,-533.4471 1587.2644,-538.4632 1592.4294,-543.188"/>
</g>
<!-- reject.js&#45;&gt;✪katsu&#45;curry/katsu&#45;curry.js -->
<g id="edge62" class="edge">
<title>reject.js&#45;&gt;✪katsu&#45;curry/katsu&#45;curry.js</title>
<path fill="none" stroke="#242424" d="M1211.8592,-958.4854C1210.9431,-887.245 1202.6068,-756.2477 1158.1988,-655.3398 1139.9973,-613.9806 1109.287,-618.9335 1094.1988,-576.3398 1060.708,-481.7956 1034.778,-431.4679 1094.1988,-350.6631 1158.9839,-262.5635 1456.0151,-194.6206 1637.9605,-160.3779"/>
<polygon fill="#242424" stroke="#242424" points="1638.6979,-163.8008 1647.8842,-158.5222 1637.4112,-156.9201 1638.6979,-163.8008"/>
</g>
<!-- reject.js&#45;&gt;filter.js -->
<g id="edge63" class="edge">
<title>reject.js&#45;&gt;filter.js</title>
<path fill="none" stroke="#242424" d="M1184.477,-965.7692C1167.01,-940.5447 1141.9453,-910.539 1112.1988,-892.7374 966.4193,-805.4967 891.8019,-886.3234 738.1988,-813.7374 718.8736,-804.6052 699.9642,-791.005 683.9361,-777.6407"/>
<polygon fill="#242424" stroke="#242424" points="686.1849,-774.9585 676.31,-771.1196 681.6356,-780.2787 686.1849,-774.9585"/>
</g>
<!-- string.js&#45;&gt;✪entrust/entrust.js -->
<g id="edge64" class="edge">
<title>string.js&#45;&gt;✪entrust/entrust.js</title>
<path fill="none" stroke="#242424" d="M218.9875,-1296.0125C194.0589,-1146.535 134.017,-698.3149 240.1988,-350.6631 254.6161,-303.4593 282.9056,-256.9323 310.3848,-219.313"/>
<polygon fill="#242424" stroke="#242424" points="313.4534,-221.051 316.5993,-210.9339 307.831,-216.8809 313.4534,-221.051"/>
</g>
<!-- ternary.js&#45;&gt;✪katsu&#45;curry/katsu&#45;curry.js -->
<g id="edge65" class="edge">
<title>ternary.js&#45;&gt;✪katsu&#45;curry/katsu&#45;curry.js</title>
<path fill="none" stroke="#242424" d="M1884.4618,-410.4914C1870.5842,-373.2186 1851.3426,-321.5392 1833.2905,-273.0547"/>
<polygon fill="#242424" stroke="#242424" points="1836.4673,-271.5558 1829.6979,-263.4056 1829.9072,-273.9984 1836.4673,-271.5558"/>
</g>
<!-- triplet.js&#45;&gt;✪katsu&#45;curry/katsu&#45;curry.js -->
<g id="edge66" class="edge">
<title>triplet.js&#45;&gt;✪katsu&#45;curry/katsu&#45;curry.js</title>
<path fill="none" stroke="#242424" d="M1736.1808,-958.3748C1747.7976,-935.8733 1763.8991,-910.6283 1784.1988,-892.7374 1850.0475,-834.7025 1911.5965,-883.2421 1965.1988,-813.7374 2030.4109,-729.1787 1993.952,-682.8047 2002.1988,-576.3398 2009.945,-476.3386 2041.1323,-443.0992 2002.1988,-350.6631 1980.9749,-300.2731 1941.5187,-255.816 1901.8164,-220.6103"/>
<polygon fill="#242424" stroke="#242424" points="1903.7169,-217.6239 1893.878,-213.6935 1899.1183,-222.9016 1903.7169,-217.6239"/>
</g>
<!-- types.js&#45;&gt;✪katsu&#45;curry/katsu&#45;curry.js -->
<g id="edge67" class="edge">
<title>types.js&#45;&gt;✪katsu&#45;curry/katsu&#45;curry.js</title>
<path fill="none" stroke="#242424" d="M2072.5354,-688.063C2083.6978,-612.6546 2096.1597,-460.9823 2040.1988,-350.6631 2010.9748,-293.0519 1958.6981,-245.0584 1908.8066,-209.153"/>
<polygon fill="#242424" stroke="#242424" points="1910.684,-206.1938 1900.5008,-203.2693 1906.6377,-211.9058 1910.684,-206.1938"/>
</g>
<!-- which.js&#45;&gt;✪katsu&#45;curry/katsu&#45;curry.js -->
<g id="edge70" class="edge">
<title>which.js&#45;&gt;✪katsu&#45;curry/katsu&#45;curry.js</title>
<path fill="none" stroke="#242424" d="M1917.936,-1300.9938C1925.7807,-1271.8158 1939.0611,-1234.4666 1960.1988,-1206.6114 1996.3661,-1158.9503 2037.8234,-1178.5549 2069.1988,-1127.6114 2124.6527,-1037.5723 2090.1692,-997.103 2107.1988,-892.7374 2112.9293,-857.6186 2117.3003,-849.2025 2120.1988,-813.7374 2125.9333,-743.5724 2125.4684,-725.5412 2120.1988,-655.3398 2109.9478,-518.7775 2144.9801,-467.8995 2074.1988,-350.6631 2036.0637,-287.4992 1971.6195,-237.1333 1912.9599,-201.0901"/>
<polygon fill="#242424" stroke="#242424" points="1914.7178,-198.063 1904.351,-195.8764 1911.0916,-204.0505 1914.7178,-198.063"/>
</g>
<!-- which.js&#45;&gt;flip.js -->
<g id="edge71" class="edge">
<title>which.js&#45;&gt;flip.js</title>
<path fill="none" stroke="#242424" d="M1868.2214,-1321.7349C1812.7121,-1284.8794 1712.0456,-1211.6031 1649.1988,-1127.6114 1634.0712,-1107.3941 1622.152,-1082.0836 1613.5627,-1060.1419"/>
<polygon fill="#242424" stroke="#242424" points="1616.783,-1058.7625 1609.9687,-1050.6497 1610.2365,-1061.2412 1616.783,-1058.7625"/>
</g>
<!-- which.js&#45;&gt;triplet.js -->
<g id="edge72" class="edge">
<title>which.js&#45;&gt;triplet.js</title>
<path fill="none" stroke="#242424" d="M1884.6046,-1306.0719C1850.2973,-1246.4997 1786.4872,-1135.698 1747.4346,-1067.886"/>
<polygon fill="#242424" stroke="#242424" points="1750.3527,-1065.9397 1742.3291,-1059.0207 1744.2867,-1069.4331 1750.3527,-1065.9397"/>
</g>
<!-- ✪fast.js/array/every.js -->
<g id="node36" class="node">
<title>✪fast.js/array/every.js</title>
<ellipse fill="none" stroke="#0c821d" stroke-width="4" cx="1943.1988" cy="-1010.1744" rx="117.374" ry="117.374"/>
<text text-anchor="middle" x="1943.1988" y="-1007.7744" font-family="Fira Code" font-size="12.00" fill="#0c821d">✪fast.js/array/every.js</text>
</g>
<!-- which.js&#45;&gt;✪fast.js/array/every.js -->
<g id="edge68" class="edge">
<title>which.js&#45;&gt;✪fast.js/array/every.js</title>
<path fill="none" stroke="#242424" d="M1913.0654,-1300.2017C1917.4332,-1258.1623 1924.0493,-1194.4838 1929.9705,-1137.4939"/>
<polygon fill="#242424" stroke="#242424" points="1933.4766,-1137.6153 1931.0289,-1127.3072 1926.5141,-1136.8919 1933.4766,-1137.6153"/>
</g>
<!-- ✪fast.js/array/some.js -->
<g id="node37" class="node">
<title>✪fast.js/array/some.js</title>
<ellipse fill="none" stroke="#0c821d" stroke-width="4" cx="2229.1988" cy="-1010.1744" rx="112.6769" ry="112.6769"/>
<text text-anchor="middle" x="2229.1988" y="-1007.7744" font-family="Fira Code" font-size="12.00" fill="#0c821d">✪fast.js/array/some.js</text>
</g>
<!-- which.js&#45;&gt;✪fast.js/array/some.js -->
<g id="edge69" class="edge">
<title>which.js&#45;&gt;✪fast.js/array/some.js</title>
<path fill="none" stroke="#242424" d="M1940.7445,-1312.8871C1987.9569,-1263.3411 2077.0863,-1169.8059 2143.8305,-1099.7625"/>
<polygon fill="#242424" stroke="#242424" points="2146.6695,-1101.8568 2151.0342,-1092.2028 2141.6018,-1097.0278 2146.6695,-1101.8568"/>
</g>
</g>
</svg>
