<?xml version="1.0" encoding="UTF-8" standalone="no"?>
<!DOCTYPE svg PUBLIC "-//W3C//DTD SVG 1.1//EN"
 "http://www.w3.org/Graphics/SVG/1.1/DTD/svg11.dtd">
<!-- Generated by graphviz version 2.40.1 (20161225.0304)
 -->
<!-- Title: G Pages: 1 -->
<svg width="2582pt" height="1628pt"
 viewBox="0.00 0.00 2582.18 1628.09" xmlns="http://www.w3.org/2000/svg" xmlns:xlink="http://www.w3.org/1999/xlink">
<g id="graph0" class="graph" transform="scale(1 1) rotate(0) translate(7.992 1620.0989)">
<title>G</title>
<polygon fill="#eeeeff" stroke="transparent" points="-7.992,7.992 -7.992,-1620.0989 2574.1923,-1620.0989 2574.1923,7.992 -7.992,7.992"/>
<!-- ../package.json -->
<g id="node1" class="node">
<title>../package.json</title>
<ellipse fill="none" stroke="#0c821d" stroke-width="4" cx="198.7907" cy="-1286.3132" rx="79.3981" ry="79.3981"/>
<text text-anchor="middle" x="198.7907" y="-1283.9132" font-family="Fira Code" font-size="12.00" fill="#0c821d">../package.json</text>
</g>
<!-- array.js -->
<g id="node2" class="node">
<title>array.js</title>
<ellipse fill="none" stroke="#242424" stroke-width="4" cx="763.7907" cy="-943.1468" rx="47.0167" ry="47.0167"/>
<text text-anchor="middle" x="763.7907" y="-940.7468" font-family="Fira Code" font-size="12.00" fill="#242424">array.js</text>
</g>
<!-- entrust/entrust.js -->
<g id="node3" class="node">
<title>entrust/entrust.js</title>
<ellipse fill="none" stroke="#0c821d" stroke-width="4" cx="491.7907" cy="-129.7839" rx="92.9895" ry="92.9895"/>
<text text-anchor="middle" x="491.7907" y="-127.3839" font-family="Fira Code" font-size="12.00" fill="#0c821d">entrust/entrust.js</text>
</g>
<!-- array.js&#45;&gt;entrust/entrust.js -->
<g id="edge1" class="edge">
<title>array.js&#45;&gt;entrust/entrust.js</title>
<path fill="none" stroke="#242424" d="M767.2308,-895.9018C775.5407,-771.2095 792.6663,-436.1444 744.7907,-338.5677 710.5515,-268.7839 640.9012,-214.0618 583.334,-178.1782"/>
<polygon fill="#242424" stroke="#242424" points="584.9244,-175.0478 574.5704,-172.8015 581.2637,-181.0143 584.9244,-175.0478"/>
</g>
<!-- katsu&#45;curry/katsu&#45;curry.js -->
<g id="node4" class="node">
<title>katsu&#45;curry/katsu&#45;curry.js</title>
<ellipse fill="none" stroke="#0c821d" stroke-width="4" cx="1413.7907" cy="-129.7839" rx="129.5681" ry="129.5681"/>
<text text-anchor="middle" x="1413.7907" y="-127.3839" font-family="Fira Code" font-size="12.00" fill="#0c821d">katsu&#45;curry/katsu&#45;curry.js</text>
</g>
<!-- array.js&#45;&gt;katsu&#45;curry/katsu&#45;curry.js -->
<g id="edge2" class="edge">
<title>array.js&#45;&gt;katsu&#45;curry/katsu&#45;curry.js</title>
<path fill="none" stroke="#242424" d="M786.9925,-902.1886C828.5232,-827.4257 916.1355,-662.9292 968.7907,-515.3599 995.9665,-439.198 961.8804,-402.1926 1011.7907,-338.5677 1078.761,-253.1949 1190.3135,-199.2003 1278.9394,-167.5595"/>
<polygon fill="#242424" stroke="#242424" points="1280.258,-170.806 1288.5327,-164.1894 1277.9379,-164.2017 1280.258,-170.806"/>
</g>
<!-- filter.js -->
<g id="node5" class="node">
<title>filter.js</title>
<ellipse fill="none" stroke="#242424" stroke-width="4" cx="647.7907" cy="-673.5587" rx="51.7142" ry="51.7142"/>
<text text-anchor="middle" x="647.7907" y="-671.1587" font-family="Fira Code" font-size="12.00" fill="#242424">filter.js</text>
</g>
<!-- array.js&#45;&gt;filter.js -->
<g id="edge3" class="edge">
<title>array.js&#45;&gt;filter.js</title>
<path fill="none" stroke="#242424" d="M745.1533,-899.8328C725.4187,-853.969 694.1726,-781.352 672.4191,-730.7962"/>
<polygon fill="#242424" stroke="#242424" points="675.5046,-729.1117 668.3371,-721.3093 669.0746,-731.8785 675.5046,-729.1117"/>
</g>
<!-- delegate&#45;fast.js -->
<g id="node7" class="node">
<title>delegate&#45;fast.js</title>
<ellipse fill="none" stroke="#242424" stroke-width="4" cx="875.7907" cy="-426.9638" rx="83.5954" ry="83.5954"/>
<text text-anchor="middle" x="875.7907" y="-424.5638" font-family="Fira Code" font-size="12.00" fill="#242424">delegate&#45;fast.js</text>
</g>
<!-- filter.js&#45;&gt;delegate&#45;fast.js -->
<g id="edge8" class="edge">
<title>filter.js&#45;&gt;delegate&#45;fast.js</title>
<path fill="none" stroke="#242424" d="M682.916,-635.5687C717.2307,-598.4554 770.2464,-541.1159 812.0173,-495.9383"/>
<polygon fill="#242424" stroke="#242424" points="814.6648,-498.2304 818.8838,-488.5118 809.525,-493.4783 814.6648,-498.2304"/>
</g>
<!-- fast.js/filter.js -->
<g id="node8" class="node">
<title>fast.js/filter.js</title>
<ellipse fill="none" stroke="#0c821d" stroke-width="4" cx="647.7907" cy="-426.9638" rx="88.2923" ry="88.2923"/>
<text text-anchor="middle" x="647.7907" y="-424.5638" font-family="Fira Code" font-size="12.00" fill="#0c821d">fast.js/filter.js</text>
</g>
<!-- filter.js&#45;&gt;fast.js/filter.js -->
<g id="edge7" class="edge">
<title>filter.js&#45;&gt;fast.js/filter.js</title>
<path fill="none" stroke="#242424" d="M647.7907,-621.8643C647.7907,-593.9627 647.7907,-558.5745 647.7907,-525.6318"/>
<polygon fill="#242424" stroke="#242424" points="651.2908,-525.4976 647.7907,-515.4977 644.2908,-525.4977 651.2908,-525.4976"/>
</g>
<!-- choice.js -->
<g id="node6" class="node">
<title>choice.js</title>
<ellipse fill="none" stroke="#242424" stroke-width="4" cx="1779.7907" cy="-673.5587" rx="51.7142" ry="51.7142"/>
<text text-anchor="middle" x="1779.7907" y="-671.1587" font-family="Fira Code" font-size="12.00" fill="#242424">choice.js</text>
</g>
<!-- choice.js&#45;&gt;katsu&#45;curry/katsu&#45;curry.js -->
<g id="edge4" class="edge">
<title>choice.js&#45;&gt;katsu&#45;curry/katsu&#45;curry.js</title>
<path fill="none" stroke="#242424" d="M1781.2011,-621.7491C1780.674,-551.8484 1770.9281,-426.033 1713.7907,-338.5677 1671.7828,-274.2626 1602.4277,-224.0901 1540.9792,-189.0626"/>
<polygon fill="#242424" stroke="#242424" points="1542.4073,-185.8505 1531.9745,-184.0046 1538.9791,-191.9536 1542.4073,-185.8505"/>
</g>
<!-- delegate&#45;fast.js&#45;&gt;entrust/entrust.js -->
<g id="edge5" class="edge">
<title>delegate&#45;fast.js&#45;&gt;entrust/entrust.js</title>
<path fill="none" stroke="#242424" d="M814.4264,-369.86C802.4667,-359.234 789.8836,-348.392 777.7907,-338.5677 712.3024,-285.3654 634.8276,-229.1976 577.0428,-188.5365"/>
<polygon fill="#242424" stroke="#242424" points="578.8589,-185.535 568.6638,-182.652 574.8358,-191.2635 578.8589,-185.535"/>
</g>
<!-- delegate&#45;fast.js&#45;&gt;katsu&#45;curry/katsu&#45;curry.js -->
<g id="edge6" class="edge">
<title>delegate&#45;fast.js&#45;&gt;katsu&#45;curry/katsu&#45;curry.js</title>
<path fill="none" stroke="#242424" d="M935.7526,-367.9582C947.8416,-357.5076 960.831,-347.2165 973.7907,-338.5677 1071.4336,-273.4046 1192.581,-217.5133 1283.0194,-180.0031"/>
<polygon fill="#242424" stroke="#242424" points="1284.5941,-183.1396 1292.5033,-176.0901 1281.9242,-176.6688 1284.5941,-183.1396"/>
</g>
<!-- flip.js -->
<g id="node9" class="node">
<title>flip.js</title>
<ellipse fill="none" stroke="#242424" stroke-width="4" cx="2523.7907" cy="-943.1468" rx="42.3196" ry="42.3196"/>
<text text-anchor="middle" x="2523.7907" y="-940.7468" font-family="Fira Code" font-size="12.00" fill="#242424">flip.js</text>
</g>
<!-- flip.js&#45;&gt;katsu&#45;curry/katsu&#45;curry.js -->
<g id="edge9" class="edge">
<title>flip.js&#45;&gt;katsu&#45;curry/katsu&#45;curry.js</title>
<path fill="none" stroke="#242424" d="M2534.7642,-901.8157C2560.7302,-793.7502 2613.3897,-500.0238 2467.7907,-338.5677 2347.5161,-205.1942 1811.8802,-154.3388 1553.7625,-137.3232"/>
<polygon fill="#242424" stroke="#242424" points="1553.7739,-133.8167 1543.5676,-136.6593 1553.3189,-140.8019 1553.7739,-133.8167"/>
</g>
<!-- future.js -->
<g id="node10" class="node">
<title>future.js</title>
<ellipse fill="none" stroke="#242424" stroke-width="4" cx="385.7907" cy="-673.5587" rx="51.7142" ry="51.7142"/>
<text text-anchor="middle" x="385.7907" y="-671.1587" font-family="Fira Code" font-size="12.00" fill="#242424">future.js</text>
</g>
<!-- future.js&#45;&gt;entrust/entrust.js -->
<g id="edge10" class="edge">
<title>future.js&#45;&gt;entrust/entrust.js</title>
<path fill="none" stroke="#242424" d="M379.7617,-622.2048C373.4918,-555.7266 367.5145,-436.7624 390.7907,-338.5677 400.5938,-297.2114 419.4839,-254.464 438.3007,-218.5037"/>
<polygon fill="#242424" stroke="#242424" points="441.4766,-219.9856 443.0775,-209.5124 435.2949,-216.7014 441.4766,-219.9856"/>
</g>
<!-- index.js -->
<g id="node11" class="node">
<title>index.js</title>
<ellipse fill="none" stroke="#242424" stroke-width="4" cx="1227.7907" cy="-1565.0986" rx="47.0167" ry="47.0167"/>
<text text-anchor="middle" x="1227.7907" y="-1562.6986" font-family="Fira Code" font-size="12.00" fill="#242424">index.js</text>
</g>
<!-- index.js&#45;&gt;../package.json -->
<g id="edge13" class="edge">
<title>index.js&#45;&gt;../package.json</title>
<path fill="none" stroke="#242424" d="M1180.7762,-1564.0252C1012.3237,-1559.3906 441.0501,-1536.6461 291.7907,-1439.0903 266.1031,-1422.3009 246.3887,-1395.7058 231.864,-1369.378"/>
<polygon fill="#242424" stroke="#242424" points="234.9172,-1367.6648 227.136,-1360.4742 228.7347,-1370.9478 234.9172,-1367.6648"/>
</g>
<!-- index.js&#45;&gt;array.js -->
<g id="edge14" class="edge">
<title>index.js&#45;&gt;array.js</title>
<path fill="none" stroke="#242424" d="M1180.3907,-1563.0676C1046.9033,-1556.2587 672.7382,-1529.3211 598.7907,-1439.0903 555.7506,-1386.5728 575.0592,-1197.1549 598.7907,-1133.5361 622.581,-1069.7595 678.4231,-1013.1645 718.5559,-978.5886"/>
<polygon fill="#242424" stroke="#242424" points="720.9959,-981.1086 726.3589,-971.9713 716.4684,-975.7698 720.9959,-981.1086"/>
</g>
<!-- index.js&#45;&gt;katsu&#45;curry/katsu&#45;curry.js -->
<g id="edge11" class="edge">
<title>index.js&#45;&gt;katsu&#45;curry/katsu&#45;curry.js</title>
<path fill="none" stroke="#242424" d="M1274.7451,-1559.9072C1384.5355,-1546.7033 1652.7536,-1507.9207 1705.7907,-1439.0903 1766.992,-1359.6645 1704.9432,-532.4067 1613.7907,-338.5677 1592.5528,-293.4048 1557.6428,-251.8291 1522.8845,-217.867"/>
<polygon fill="#242424" stroke="#242424" points="1525.1074,-215.1486 1515.4748,-210.7368 1520.2537,-220.1926 1525.1074,-215.1486"/>
</g>
<!-- index.js&#45;&gt;filter.js -->
<g id="edge16" class="edge">
<title>index.js&#45;&gt;filter.js</title>
<path fill="none" stroke="#242424" d="M1180.5645,-1563.8559C1038.7637,-1559.0506 621.2805,-1536.7135 536.7907,-1439.0903 448.4458,-1337.0127 478.49,-959.2804 522.7907,-831.7575 538.5159,-786.4912 573.1687,-744.3984 602.0087,-715.0296"/>
<polygon fill="#242424" stroke="#242424" points="604.6009,-717.3872 609.2006,-707.8429 599.653,-712.4356 604.6009,-717.3872"/>
</g>
<!-- index.js&#45;&gt;choice.js -->
<g id="edge15" class="edge">
<title>index.js&#45;&gt;choice.js</title>
<path fill="none" stroke="#242424" d="M1274.6638,-1560.9261C1391.5794,-1549.4688 1691.0637,-1513.3194 1751.7907,-1439.0903 1795.8388,-1385.2484 1786.5898,-908.0705 1781.7395,-735.496"/>
<polygon fill="#242424" stroke="#242424" points="1785.2326,-735.2032 1781.4482,-725.3073 1778.2355,-735.4033 1785.2326,-735.2032"/>
</g>
<!-- index.js&#45;&gt;flip.js -->
<g id="edge17" class="edge">
<title>index.js&#45;&gt;flip.js</title>
<path fill="none" stroke="#242424" d="M1274.9681,-1561.8498C1465.8118,-1548.3689 2174.3698,-1494.9233 2256.7907,-1439.0903 2415.2539,-1331.7451 2487.4849,-1098.6286 2512.7118,-994.8169"/>
<polygon fill="#242424" stroke="#242424" points="2516.1649,-995.4246 2515.0771,-984.8858 2509.3554,-993.8028 2516.1649,-995.4246"/>
</g>
<!-- index.js&#45;&gt;future.js -->
<g id="edge18" class="edge">
<title>index.js&#45;&gt;future.js</title>
<path fill="none" stroke="#242424" d="M1180.825,-1560.8145C1020.5,-1545.7433 501.9456,-1493.154 451.7907,-1439.0903 267.9485,-1240.9208 333.7944,-876.8288 369.2338,-733.6494"/>
<polygon fill="#242424" stroke="#242424" points="372.6843,-734.2792 371.729,-723.7276 365.8957,-732.5719 372.6843,-734.2792"/>
</g>
<!-- katsu&#45;curry/lib/utils/length.js -->
<g id="node12" class="node">
<title>katsu&#45;curry/lib/utils/length.js</title>
<ellipse fill="none" stroke="#0c821d" stroke-width="4" cx="760.7907" cy="-1286.3132" rx="152.5545" ry="152.5545"/>
<text text-anchor="middle" x="760.7907" y="-1283.9132" font-family="Fira Code" font-size="12.00" fill="#0c821d">katsu&#45;curry/lib/utils/length.js</text>
</g>
<!-- index.js&#45;&gt;katsu&#45;curry/lib/utils/length.js -->
<g id="edge12" class="edge">
<title>index.js&#45;&gt;katsu&#45;curry/lib/utils/length.js</title>
<path fill="none" stroke="#242424" d="M1182.7447,-1551.5744C1121.9269,-1532.1452 1011.5337,-1492.6843 927.7907,-1439.0903 910.4404,-1427.9864 893.1932,-1415.0238 876.7344,-1401.4293"/>
<polygon fill="#242424" stroke="#242424" points="878.6326,-1398.4534 868.7209,-1394.7103 874.135,-1403.8174 878.6326,-1398.4534"/>
</g>
<!-- iterate.js -->
<g id="node13" class="node">
<title>iterate.js</title>
<ellipse fill="none" stroke="#242424" stroke-width="4" cx="1357.7907" cy="-673.5587" rx="56.412" ry="56.412"/>
<text text-anchor="middle" x="1357.7907" y="-671.1587" font-family="Fira Code" font-size="12.00" fill="#242424">iterate.js</text>
</g>
<!-- index.js&#45;&gt;iterate.js -->
<g id="edge19" class="edge">
<title>index.js&#45;&gt;iterate.js</title>
<path fill="none" stroke="#242424" d="M1274.6618,-1559.1945C1380.203,-1544.8393 1631.1578,-1504.4136 1680.7907,-1439.0903 1721.8696,-1385.025 1700.2285,-1198.5954 1680.7907,-1133.5361 1634.8688,-979.8339 1576.6079,-961.8787 1482.7907,-831.7575 1456.4813,-795.2675 1425.085,-755.5455 1400.3397,-725.0327"/>
<polygon fill="#242424" stroke="#242424" points="1402.8986,-722.6319 1393.8735,-717.0821 1397.4679,-727.0487 1402.8986,-722.6319"/>
</g>
<!-- map.js -->
<g id="node14" class="node">
<title>map.js</title>
<ellipse fill="none" stroke="#242424" stroke-width="4" cx="305.7907" cy="-426.9638" rx="37.623" ry="37.623"/>
<text text-anchor="middle" x="305.7907" y="-424.5638" font-family="Fira Code" font-size="12.00" fill="#242424">map.js</text>
</g>
<!-- index.js&#45;&gt;map.js -->
<g id="edge20" class="edge">
<title>index.js&#45;&gt;map.js</title>
<path fill="none" stroke="#242424" d="M1180.7782,-1562.0232C1003.9875,-1549.9936 386.1809,-1503.5909 328.7907,-1439.0903 264.2948,-1366.6036 293.9488,-666.1522 303.3193,-474.965"/>
<polygon fill="#242424" stroke="#242424" points="306.8169,-475.0971 303.8152,-464.9364 299.8254,-474.7513 306.8169,-475.0971"/>
</g>
<!-- math.js -->
<g id="node15" class="node">
<title>math.js</title>
<ellipse fill="none" stroke="#242424" stroke-width="4" cx="1936.7907" cy="-426.9638" rx="42.3196" ry="42.3196"/>
<text text-anchor="middle" x="1936.7907" y="-424.5638" font-family="Fira Code" font-size="12.00" fill="#242424">math.js</text>
</g>
<!-- index.js&#45;&gt;math.js -->
<g id="edge21" class="edge">
<title>index.js&#45;&gt;math.js</title>
<path fill="none" stroke="#242424" d="M1275.1702,-1562.124C1405.9769,-1552.9236 1767.8052,-1520.4879 1848.7907,-1439.0903 1984.0858,-1303.1065 1953.0004,-667.527 1940.5956,-479.4938"/>
<polygon fill="#242424" stroke="#242424" points="1944.0745,-479.059 1939.9134,-469.3155 1937.0901,-479.5272 1944.0745,-479.059"/>
</g>
<!-- random&#45;floor.js -->
<g id="node16" class="node">
<title>random&#45;floor.js</title>
<ellipse fill="none" stroke="#242424" stroke-width="4" cx="1128.7907" cy="-673.5587" rx="79.3981" ry="79.3981"/>
<text text-anchor="middle" x="1128.7907" y="-671.1587" font-family="Fira Code" font-size="12.00" fill="#242424">random&#45;floor.js</text>
</g>
<!-- index.js&#45;&gt;random&#45;floor.js -->
<g id="edge22" class="edge">
<title>index.js&#45;&gt;random&#45;floor.js</title>
<path fill="none" stroke="#242424" d="M1181.0801,-1558.3975C1118.4047,-1546.6221 1009.3604,-1515.7193 960.7907,-1439.0903 888.089,-1324.388 938.5578,-1267.5057 960.7907,-1133.5361 983.9926,-993.7274 1013.9484,-964.4246 1063.7907,-831.7575 1073.1019,-806.9734 1083.8122,-780.2625 1093.8174,-755.9736"/>
<polygon fill="#242424" stroke="#242424" points="1097.173,-757.0179 1097.7596,-746.4393 1090.7041,-754.3431 1097.173,-757.0179"/>
</g>
<!-- random&#45;shuffle.js -->
<g id="node17" class="node">
<title>random&#45;shuffle.js</title>
<ellipse fill="none" stroke="#0c821d" stroke-width="4" cx="1385.7907" cy="-1286.3132" rx="88.2923" ry="88.2923"/>
<text text-anchor="middle" x="1385.7907" y="-1283.9132" font-family="Fira Code" font-size="12.00" fill="#0c821d">random&#45;shuffle.js</text>
</g>
<!-- index.js&#45;&gt;random&#45;shuffle.js -->
<g id="edge23" class="edge">
<title>index.js&#45;&gt;random&#45;shuffle.js</title>
<path fill="none" stroke="#242424" d="M1251.1041,-1523.9628C1273.6161,-1484.2412 1308.403,-1422.8609 1336.9838,-1372.4312"/>
<polygon fill="#242424" stroke="#242424" points="1340.175,-1373.8988 1342.0607,-1363.4731 1334.0851,-1370.4473 1340.175,-1373.8988"/>
</g>
<!-- random&#45;take.js -->
<g id="node18" class="node">
<title>random&#45;take.js</title>
<ellipse fill="none" stroke="#242424" stroke-width="4" cx="1147.7907" cy="-943.1468" rx="74.7005" ry="74.7005"/>
<text text-anchor="middle" x="1147.7907" y="-940.7468" font-family="Fira Code" font-size="12.00" fill="#242424">random&#45;take.js</text>
</g>
<!-- index.js&#45;&gt;random&#45;take.js -->
<g id="edge24" class="edge">
<title>index.js&#45;&gt;random&#45;take.js</title>
<path fill="none" stroke="#242424" d="M1203.0969,-1525.0133C1189.6929,-1501.0231 1174.3531,-1469.3928 1166.7907,-1439.0903 1131.5925,-1298.0513 1134.5346,-1127.5199 1140.6337,-1027.6196"/>
<polygon fill="#242424" stroke="#242424" points="1144.1303,-1027.7828 1141.2718,-1017.5808 1137.1444,-1027.3386 1144.1303,-1027.7828"/>
</g>
<!-- random&#45;word.js -->
<g id="node19" class="node">
<title>random&#45;word.js</title>
<ellipse fill="none" stroke="#242424" stroke-width="4" cx="1044.7907" cy="-1286.3132" rx="74.7005" ry="74.7005"/>
<text text-anchor="middle" x="1044.7907" y="-1283.9132" font-family="Fira Code" font-size="12.00" fill="#242424">random&#45;word.js</text>
</g>
<!-- index.js&#45;&gt;random&#45;word.js -->
<g id="edge25" class="edge">
<title>index.js&#45;&gt;random&#45;word.js</title>
<path fill="none" stroke="#242424" d="M1198.4743,-1528.13C1179.327,-1503.4331 1154.1876,-1469.9387 1133.7907,-1439.0903 1117.2831,-1414.1241 1100.4394,-1386.0133 1085.9102,-1360.7749"/>
<polygon fill="#242424" stroke="#242424" points="1088.8788,-1358.9157 1080.8719,-1351.9774 1082.8044,-1362.3945 1088.8788,-1358.9157"/>
</g>
<!-- random.js -->
<g id="node20" class="node">
<title>random.js</title>
<ellipse fill="none" stroke="#0c821d" stroke-width="4" cx="1619.7907" cy="-1286.3132" rx="51.7142" ry="51.7142"/>
<text text-anchor="middle" x="1619.7907" y="-1283.9132" font-family="Fira Code" font-size="12.00" fill="#0c821d">random.js</text>
</g>
<!-- index.js&#45;&gt;random.js -->
<g id="edge26" class="edge">
<title>index.js&#45;&gt;random.js</title>
<path fill="none" stroke="#242424" d="M1274.3813,-1558.6913C1343.7247,-1546.8635 1474.4149,-1515.4332 1553.7907,-1439.0903 1579.534,-1414.3305 1595.805,-1377.8578 1605.749,-1346.758"/>
<polygon fill="#242424" stroke="#242424" points="1609.1948,-1347.457 1608.7593,-1336.8711 1602.4983,-1345.4181 1609.1948,-1347.457"/>
</g>
<!-- reduce.js -->
<g id="node21" class="node">
<title>reduce.js</title>
<ellipse fill="none" stroke="#242424" stroke-width="4" cx="1227.7907" cy="-1286.3132" rx="51.7142" ry="51.7142"/>
<text text-anchor="middle" x="1227.7907" y="-1283.9132" font-family="Fira Code" font-size="12.00" fill="#242424">reduce.js</text>
</g>
<!-- index.js&#45;&gt;reduce.js -->
<g id="edge27" class="edge">
<title>index.js&#45;&gt;reduce.js</title>
<path fill="none" stroke="#242424" d="M1227.7907,-1517.8064C1227.7907,-1471.1535 1227.7907,-1399.587 1227.7907,-1348.383"/>
<polygon fill="#242424" stroke="#242424" points="1231.2908,-1348.1048 1227.7907,-1338.1049 1224.2908,-1348.1049 1231.2908,-1348.1048"/>
</g>
<!-- reject.js -->
<g id="node22" class="node">
<title>reject.js</title>
<ellipse fill="none" stroke="#242424" stroke-width="4" cx="583.7907" cy="-943.1468" rx="51.7142" ry="51.7142"/>
<text text-anchor="middle" x="583.7907" y="-940.7468" font-family="Fira Code" font-size="12.00" fill="#242424">reject.js</text>
</g>
<!-- index.js&#45;&gt;reject.js -->
<g id="edge28" class="edge">
<title>index.js&#45;&gt;reject.js</title>
<path fill="none" stroke="#242424" d="M1180.6327,-1563.5457C1043.0648,-1557.9295 647.0097,-1533.6827 568.7907,-1439.0903 515.3849,-1374.5052 551.8294,-1121.5865 572.3917,-1003.9406"/>
<polygon fill="#242424" stroke="#242424" points="575.8535,-1004.4631 574.1466,-994.0067 568.9603,-1003.2454 575.8535,-1004.4631"/>
</g>
<!-- string.js -->
<g id="node23" class="node">
<title>string.js</title>
<ellipse fill="none" stroke="#242424" stroke-width="4" cx="451.7907" cy="-426.9638" rx="51.7142" ry="51.7142"/>
<text text-anchor="middle" x="451.7907" y="-424.5638" font-family="Fira Code" font-size="12.00" fill="#242424">string.js</text>
</g>
<!-- index.js&#45;&gt;string.js -->
<g id="edge29" class="edge">
<title>index.js&#45;&gt;string.js</title>
<path fill="none" stroke="#242424" d="M1180.7739,-1560.6282C1023.9929,-1545.2606 526.3205,-1492.5956 479.7907,-1439.0903 448.5627,-1403.1808 450.1325,-703.6218 451.3565,-489.0205"/>
<polygon fill="#242424" stroke="#242424" points="454.8572,-488.8925 451.4162,-478.8721 447.8574,-488.8513 454.8572,-488.8925"/>
</g>
<!-- ternary.js -->
<g id="node24" class="node">
<title>ternary.js</title>
<ellipse fill="none" stroke="#242424" stroke-width="4" cx="1487.7907" cy="-673.5587" rx="56.412" ry="56.412"/>
<text text-anchor="middle" x="1487.7907" y="-671.1587" font-family="Fira Code" font-size="12.00" fill="#242424">ternary.js</text>
</g>
<!-- index.js&#45;&gt;ternary.js -->
<g id="edge30" class="edge">
<title>index.js&#45;&gt;ternary.js</title>
<path fill="none" stroke="#242424" d="M1274.1959,-1557.2927C1334.3261,-1544.4216 1436.8814,-1512.4493 1482.7907,-1439.0903 1554.9594,-1323.7707 1514.904,-903.3567 1495.9585,-739.5365"/>
<polygon fill="#242424" stroke="#242424" points="1499.4332,-739.1161 1494.7974,-729.5893 1492.4804,-739.9276 1499.4332,-739.1161"/>
</g>
<!-- triplet.js -->
<g id="node25" class="node">
<title>triplet.js</title>
<ellipse fill="none" stroke="#242424" stroke-width="4" cx="1859.7907" cy="-943.1468" rx="56.412" ry="56.412"/>
<text text-anchor="middle" x="1859.7907" y="-940.7468" font-family="Fira Code" font-size="12.00" fill="#242424">triplet.js</text>
</g>
<!-- index.js&#45;&gt;triplet.js -->
<g id="edge31" class="edge">
<title>index.js&#45;&gt;triplet.js</title>
<path fill="none" stroke="#242424" d="M1274.8481,-1561.2975C1397.0397,-1550.4226 1719.7787,-1514.9662 1789.7907,-1439.0903 1899.0737,-1320.6539 1886.8143,-1113.7807 1871.7172,-1008.5877"/>
<polygon fill="#242424" stroke="#242424" points="1875.1386,-1007.7998 1870.204,-998.4243 1868.2149,-1008.8307 1875.1386,-1007.7998"/>
</g>
<!-- types.js -->
<g id="node26" class="node">
<title>types.js</title>
<ellipse fill="none" stroke="#242424" stroke-width="4" cx="1557.7907" cy="-426.9638" rx="47.0167" ry="47.0167"/>
<text text-anchor="middle" x="1557.7907" y="-424.5638" font-family="Fira Code" font-size="12.00" fill="#242424">types.js</text>
</g>
<!-- index.js&#45;&gt;types.js -->
<g id="edge32" class="edge">
<title>index.js&#45;&gt;types.js</title>
<path fill="none" stroke="#242424" d="M1274.5188,-1559.7435C1340.9261,-1549.3863 1460.7495,-1519.9567 1516.7907,-1439.0903 1571.1888,-1360.5947 1562.7902,-686.5798 1558.9978,-484.1919"/>
<polygon fill="#242424" stroke="#242424" points="1562.4949,-483.9999 1558.8046,-474.0685 1555.4962,-484.1336 1562.4949,-483.9999"/>
</g>
<!-- which.js -->
<g id="node27" class="node">
<title>which.js</title>
<ellipse fill="none" stroke="#242424" stroke-width="4" cx="2200.7907" cy="-1286.3132" rx="47.0167" ry="47.0167"/>
<text text-anchor="middle" x="2200.7907" y="-1283.9132" font-family="Fira Code" font-size="12.00" fill="#242424">which.js</text>
</g>
<!-- index.js&#45;&gt;which.js -->
<g id="edge33" class="edge">
<title>index.js&#45;&gt;which.js</title>
<path fill="none" stroke="#242424" d="M1275.1531,-1563.2607C1393.9312,-1557.321 1712.5118,-1533.1252 1957.7907,-1439.0903 2032.6314,-1410.3978 2109.3529,-1357.451 2156.0484,-1322.0538"/>
<polygon fill="#242424" stroke="#242424" points="2158.3094,-1324.7309 2164.1278,-1315.8767 2154.0578,-1319.17 2158.3094,-1324.7309"/>
</g>
<!-- iterate.js&#45;&gt;katsu&#45;curry/katsu&#45;curry.js -->
<g id="edge34" class="edge">
<title>iterate.js&#45;&gt;katsu&#45;curry/katsu&#45;curry.js</title>
<path fill="none" stroke="#242424" d="M1363.5727,-617.4134C1371.9616,-535.9555 1387.7763,-382.3901 1399.4255,-269.2735"/>
<polygon fill="#242424" stroke="#242424" points="1402.9256,-269.4512 1400.4685,-259.1452 1395.9624,-268.734 1402.9256,-269.4512"/>
</g>
<!-- map.js&#45;&gt;entrust/entrust.js -->
<g id="edge35" class="edge">
<title>map.js&#45;&gt;entrust/entrust.js</title>
<path fill="none" stroke="#242424" d="M324.7515,-394.0388C334.4765,-377.3302 346.6016,-356.7697 357.7907,-338.5677 382.6394,-298.1446 410.9174,-253.8473 435.0712,-216.4964"/>
<polygon fill="#242424" stroke="#242424" points="438.3001,-217.9492 440.797,-207.6528 432.4241,-214.1449 438.3001,-217.9492"/>
</g>
<!-- map.js&#45;&gt;katsu&#45;curry/katsu&#45;curry.js -->
<g id="edge38" class="edge">
<title>map.js&#45;&gt;katsu&#45;curry/katsu&#45;curry.js</title>
<path fill="none" stroke="#242424" d="M327.9319,-395.6764C343.3499,-376.2512 365.6106,-352.4269 390.7907,-338.5677 541.6443,-255.5373 1032.0456,-180.753 1274.9121,-147.7076"/>
<polygon fill="#242424" stroke="#242424" points="1275.4283,-151.1697 1284.8672,-146.3575 1274.4876,-144.2332 1275.4283,-151.1697"/>
</g>
<!-- fantasy&#45;land/index.js -->
<g id="node28" class="node">
<title>fantasy&#45;land/index.js</title>
<ellipse fill="none" stroke="#0c821d" stroke-width="4" cx="106.7907" cy="-129.7839" rx="106.5817" ry="106.5817"/>
<text text-anchor="middle" x="106.7907" y="-127.3839" font-family="Fira Code" font-size="12.00" fill="#0c821d">fantasy&#45;land/index.js</text>
</g>
<!-- map.js&#45;&gt;fantasy&#45;land/index.js -->
<g id="edge36" class="edge">
<title>map.js&#45;&gt;fantasy&#45;land/index.js</title>
<path fill="none" stroke="#242424" d="M284.6826,-395.4417C258.0349,-355.647 210.9581,-285.344 171.9251,-227.0535"/>
<polygon fill="#242424" stroke="#242424" points="174.7002,-224.9072 166.2279,-218.5455 168.8838,-228.8021 174.7002,-224.9072"/>
</g>
<!-- fast.js/map.js -->
<g id="node29" class="node">
<title>fast.js/map.js</title>
<ellipse fill="none" stroke="#0c821d" stroke-width="4" cx="305.7907" cy="-129.7839" rx="74.7005" ry="74.7005"/>
<text text-anchor="middle" x="305.7907" y="-127.3839" font-family="Fira Code" font-size="12.00" fill="#0c821d">fast.js/map.js</text>
</g>
<!-- map.js&#45;&gt;fast.js/map.js -->
<g id="edge37" class="edge">
<title>map.js&#45;&gt;fast.js/map.js</title>
<path fill="none" stroke="#242424" d="M305.7907,-389.0239C305.7907,-345.3303 305.7907,-272.1878 305.7907,-214.7142"/>
<polygon fill="#242424" stroke="#242424" points="309.2908,-214.5411 305.7907,-204.5411 302.2908,-214.5411 309.2908,-214.5411"/>
</g>
<!-- math.js&#45;&gt;katsu&#45;curry/katsu&#45;curry.js -->
<g id="edge39" class="edge">
<title>math.js&#45;&gt;katsu&#45;curry/katsu&#45;curry.js</title>
<path fill="none" stroke="#242424" d="M1916.2947,-389.4781C1905.4343,-372.2513 1890.8122,-352.5829 1873.7907,-338.5677 1777.3081,-259.1259 1645.7015,-203.4324 1547.9721,-169.6644"/>
<polygon fill="#242424" stroke="#242424" points="1548.9188,-166.2892 1538.3243,-166.3638 1546.653,-172.9123 1548.9188,-166.2892"/>
</g>
<!-- random&#45;floor.js&#45;&gt;katsu&#45;curry/katsu&#45;curry.js -->
<g id="edge40" class="edge">
<title>random&#45;floor.js&#45;&gt;katsu&#45;curry/katsu&#45;curry.js</title>
<path fill="none" stroke="#242424" d="M1139.816,-595.0912C1152.1596,-524.5398 1176.6437,-419.8181 1221.7907,-338.5677 1244.8054,-297.1485 1277.6444,-257.3691 1309.6709,-223.8485"/>
<polygon fill="#242424" stroke="#242424" points="1312.484,-225.9744 1316.9189,-216.3524 1307.4516,-221.1086 1312.484,-225.9744"/>
</g>
<!-- random&#45;take.js&#45;&gt;katsu&#45;curry/katsu&#45;curry.js -->
<g id="edge41" class="edge">
<title>random&#45;take.js&#45;&gt;katsu&#45;curry/katsu&#45;curry.js</title>
<path fill="none" stroke="#242424" d="M1174.0478,-872.8672C1187.232,-837.0418 1203.2401,-792.7111 1216.7907,-752.7575 1273.6487,-585.1128 1334.3939,-390.353 1373.1573,-263.8375"/>
<polygon fill="#242424" stroke="#242424" points="1376.5607,-264.6767 1376.1417,-254.0901 1369.8674,-262.6273 1376.5607,-264.6767"/>
</g>
<!-- random&#45;take.js&#45;&gt;iterate.js -->
<g id="edge42" class="edge">
<title>random&#45;take.js&#45;&gt;iterate.js</title>
<path fill="none" stroke="#242424" d="M1193.876,-883.9846C1230.665,-836.7567 1281.7204,-771.2141 1317.0318,-725.883"/>
<polygon fill="#242424" stroke="#242424" points="1319.8313,-727.9846 1323.2155,-717.9447 1314.309,-723.6829 1319.8313,-727.9846"/>
</g>
<!-- random&#45;take.js&#45;&gt;random&#45;floor.js -->
<g id="edge43" class="edge">
<title>random&#45;take.js&#45;&gt;random&#45;floor.js</title>
<path fill="none" stroke="#242424" d="M1142.5233,-868.4095C1140.2143,-835.6476 1137.486,-796.9359 1135.0721,-762.6853"/>
<polygon fill="#242424" stroke="#242424" points="1138.5616,-762.412 1134.3672,-752.6828 1131.5789,-762.9041 1138.5616,-762.412"/>
</g>
<!-- random&#45;word.js&#45;&gt;array.js -->
<g id="edge45" class="edge">
<title>random&#45;word.js&#45;&gt;array.js</title>
<path fill="none" stroke="#242424" d="M998.4538,-1227.6712C975.789,-1199.1457 948.0182,-1164.4267 922.7907,-1133.5361 881.4653,-1082.9343 833.2806,-1025.4442 800.8795,-987.0008"/>
<polygon fill="#242424" stroke="#242424" points="803.3355,-984.4841 794.2131,-979.0959 797.9843,-988.9969 803.3355,-984.4841"/>
</g>
<!-- random&#45;word.js&#45;&gt;katsu&#45;curry/katsu&#45;curry.js -->
<g id="edge44" class="edge">
<title>random&#45;word.js&#45;&gt;katsu&#45;curry/katsu&#45;curry.js</title>
<path fill="none" stroke="#242424" d="M1034.3442,-1212.3368C1018.5258,-1084.6539 994.9094,-815.3467 1040.7907,-594.3599 1065.9834,-473.0196 1076.4275,-436.9473 1151.7907,-338.5677 1191.3259,-286.9581 1246.2858,-240.6133 1295.6634,-204.775"/>
<polygon fill="#242424" stroke="#242424" points="1297.7767,-207.5664 1303.8545,-198.8882 1293.6914,-201.8821 1297.7767,-207.5664"/>
</g>
<!-- random&#45;word.js&#45;&gt;random&#45;take.js -->
<g id="edge46" class="edge">
<title>random&#45;word.js&#45;&gt;random&#45;take.js</title>
<path fill="none" stroke="#242424" d="M1066.2575,-1214.792C1082.8939,-1159.3642 1105.9576,-1082.5226 1123.311,-1024.7061"/>
<polygon fill="#242424" stroke="#242424" points="1126.7405,-1025.4547 1126.263,-1014.8707 1120.0359,-1023.4424 1126.7405,-1025.4547"/>
</g>
<!-- reduce.js&#45;&gt;delegate&#45;fast.js -->
<g id="edge48" class="edge">
<title>reduce.js&#45;&gt;delegate&#45;fast.js</title>
<path fill="none" stroke="#242424" d="M1233.9221,-1234.956C1249.8124,-1092.9539 1286.4324,-698.6469 1216.7907,-594.3599 1160.4185,-509.9438 1048.5653,-466.5245 968.3236,-445.3196"/>
<polygon fill="#242424" stroke="#242424" points="968.7646,-441.8193 958.2081,-442.7193 967.0218,-448.5989 968.7646,-441.8193"/>
</g>
<!-- fast.js/reduce.js -->
<g id="node30" class="node">
<title>fast.js/reduce.js</title>
<ellipse fill="none" stroke="#0c821d" stroke-width="4" cx="1385.7907" cy="-943.1468" rx="88.2923" ry="88.2923"/>
<text text-anchor="middle" x="1385.7907" y="-940.7468" font-family="Fira Code" font-size="12.00" fill="#0c821d">fast.js/reduce.js</text>
</g>
<!-- reduce.js&#45;&gt;fast.js/reduce.js -->
<g id="edge47" class="edge">
<title>reduce.js&#45;&gt;fast.js/reduce.js</title>
<path fill="none" stroke="#242424" d="M1245.9075,-1237.6724C1257.4962,-1207.4186 1273.2279,-1167.873 1288.7907,-1133.5361 1304.3283,-1099.2546 1322.7865,-1062.2406 1339.4096,-1030.045"/>
<polygon fill="#242424" stroke="#242424" points="1342.5523,-1031.5874 1344.0455,-1021.0983 1336.3371,-1028.3668 1342.5523,-1031.5874"/>
</g>
<!-- reject.js&#45;&gt;katsu&#45;curry/katsu&#45;curry.js -->
<g id="edge49" class="edge">
<title>reject.js&#45;&gt;katsu&#45;curry/katsu&#45;curry.js</title>
<path fill="none" stroke="#242424" d="M572.8434,-892.7045C546.0042,-763.2827 483.8348,-423.6537 550.7907,-338.5677 639.2761,-226.1225 1053.2682,-166.9666 1274.1298,-142.9449"/>
<polygon fill="#242424" stroke="#242424" points="1274.6073,-146.4138 1284.1746,-141.8621 1273.8571,-139.4541 1274.6073,-146.4138"/>
</g>
<!-- reject.js&#45;&gt;filter.js -->
<g id="edge50" class="edge">
<title>reject.js&#45;&gt;filter.js</title>
<path fill="none" stroke="#242424" d="M595.7535,-892.7556C606.427,-847.7954 622.0771,-781.8721 633.4251,-734.071"/>
<polygon fill="#242424" stroke="#242424" points="636.8735,-734.6979 635.778,-724.1599 630.0628,-733.081 636.8735,-734.6979"/>
</g>
<!-- string.js&#45;&gt;entrust/entrust.js -->
<g id="edge51" class="edge">
<title>string.js&#45;&gt;entrust/entrust.js</title>
<path fill="none" stroke="#242424" d="M458.7125,-375.5383C464.0148,-336.1442 471.5012,-280.5246 478.011,-232.1595"/>
<polygon fill="#242424" stroke="#242424" points="481.5189,-232.335 479.3842,-221.9575 474.5815,-231.4012 481.5189,-232.335"/>
</g>
<!-- ternary.js&#45;&gt;katsu&#45;curry/katsu&#45;curry.js -->
<g id="edge52" class="edge">
<title>ternary.js&#45;&gt;katsu&#45;curry/katsu&#45;curry.js</title>
<path fill="none" stroke="#242424" d="M1480.1846,-617.6673C1469.0862,-536.1126 1448.0993,-381.8941 1432.6811,-268.5965"/>
<polygon fill="#242424" stroke="#242424" points="1436.1173,-267.8898 1431.3007,-258.4531 1429.1812,-268.8337 1436.1173,-267.8898"/>
</g>
<!-- triplet.js&#45;&gt;katsu&#45;curry/katsu&#45;curry.js -->
<g id="edge53" class="edge">
<title>triplet.js&#45;&gt;katsu&#45;curry/katsu&#45;curry.js</title>
<path fill="none" stroke="#242424" d="M1866.715,-887.355C1877.8967,-771.6461 1886.9863,-502.684 1756.7907,-338.5677 1701.4263,-268.779 1615.8714,-216.6411 1544.0603,-181.9214"/>
<polygon fill="#242424" stroke="#242424" points="1545.4576,-178.7101 1534.9251,-177.5621 1542.4428,-185.0277 1545.4576,-178.7101"/>
</g>
<!-- types.js&#45;&gt;katsu&#45;curry/katsu&#45;curry.js -->
<g id="edge54" class="edge">
<title>types.js&#45;&gt;katsu&#45;curry/katsu&#45;curry.js</title>
<path fill="none" stroke="#242424" d="M1537.159,-384.3852C1520.8277,-350.6814 1497.1391,-301.7942 1474.8759,-255.8486"/>
<polygon fill="#242424" stroke="#242424" points="1477.9553,-254.177 1470.4449,-246.704 1471.6558,-257.2295 1477.9553,-254.177"/>
</g>
<!-- which.js&#45;&gt;katsu&#45;curry/katsu&#45;curry.js -->
<g id="edge57" class="edge">
<title>which.js&#45;&gt;katsu&#45;curry/katsu&#45;curry.js</title>
<path fill="none" stroke="#242424" d="M2206.5675,-1239.46C2212.8688,-1206.2891 2225.9217,-1162.688 2252.7907,-1133.5361 2312.5531,-1068.6959 2386.4187,-1128.2651 2434.7907,-1054.5361 2489.1046,-971.7502 2470.4248,-924.1357 2434.7907,-831.7575 2328.3233,-555.7507 2233.3318,-503.5666 1987.7907,-338.5677 1852.5018,-247.6562 1672.736,-190.6461 1550.6799,-159.6021"/>
<polygon fill="#242424" stroke="#242424" points="1551.4446,-156.1854 1540.8926,-157.1369 1549.7348,-162.9734 1551.4446,-156.1854"/>
</g>
<!-- which.js&#45;&gt;flip.js -->
<g id="edge58" class="edge">
<title>which.js&#45;&gt;flip.js</title>
<path fill="none" stroke="#242424" d="M2236.972,-1256.2494C2305.6068,-1199.0252 2449.5172,-1078.039 2467.7907,-1054.5361 2482.4801,-1035.6429 2494.9269,-1012.2914 2504.3281,-991.8569"/>
<polygon fill="#242424" stroke="#242424" points="2507.5361,-993.2569 2508.4304,-982.6998 2501.1478,-990.3949 2507.5361,-993.2569"/>
</g>
<!-- which.js&#45;&gt;triplet.js -->
<g id="edge59" class="edge">
<title>which.js&#45;&gt;triplet.js</title>
<path fill="none" stroke="#242424" d="M2166.3454,-1253.8551C2119.5601,-1209.5245 2033.6342,-1127.2362 1962.7907,-1054.5361 1943.3172,-1034.5524 1922.3224,-1012.033 1904.4001,-992.4987"/>
<polygon fill="#242424" stroke="#242424" points="1906.7697,-989.9037 1897.4361,-984.8902 1901.6061,-994.6299 1906.7697,-989.9037"/>
</g>
<!-- fast.js/array/every.js -->
<g id="node31" class="node">
<title>fast.js/array/every.js</title>
<ellipse fill="none" stroke="#0c821d" stroke-width="4" cx="2082.7907" cy="-943.1468" rx="111.2787" ry="111.2787"/>
<text text-anchor="middle" x="2082.7907" y="-940.7468" font-family="Fira Code" font-size="12.00" fill="#0c821d">fast.js/array/every.js</text>
</g>
<!-- which.js&#45;&gt;fast.js/array/every.js -->
<g id="edge55" class="edge">
<title>which.js&#45;&gt;fast.js/array/every.js</title>
<path fill="none" stroke="#242424" d="M2185.4852,-1241.802C2169.5593,-1195.4865 2143.97,-1121.0679 2122.3201,-1058.106"/>
<polygon fill="#242424" stroke="#242424" points="2125.5805,-1056.824 2119.0189,-1048.5055 2118.9609,-1059.1002 2125.5805,-1056.824"/>
</g>
<!-- fast.js/array/some.js -->
<g id="node32" class="node">
<title>fast.js/array/some.js</title>
<ellipse fill="none" stroke="#0c821d" stroke-width="4" cx="2318.7907" cy="-943.1468" rx="106.5817" ry="106.5817"/>
<text text-anchor="middle" x="2318.7907" y="-940.7468" font-family="Fira Code" font-size="12.00" fill="#0c821d">fast.js/array/some.js</text>
</g>
<!-- which.js&#45;&gt;fast.js/array/some.js -->
<g id="edge56" class="edge">
<title>which.js&#45;&gt;fast.js/array/some.js</title>
<path fill="none" stroke="#242424" d="M2216.0961,-1241.802C2232.3779,-1194.4515 2258.7598,-1117.7279 2280.7065,-1053.9027"/>
<polygon fill="#242424" stroke="#242424" points="2284.1074,-1054.7757 2284.0494,-1044.181 2277.4878,-1052.4995 2284.1074,-1054.7757"/>
</g>
</g>
</svg>
