<?xml version="1.0" encoding="UTF-8" standalone="no"?>
<!DOCTYPE svg PUBLIC "-//W3C//DTD SVG 1.1//EN"
 "http://www.w3.org/Graphics/SVG/1.1/DTD/svg11.dtd">
<!-- Generated by graphviz version 2.40.1 (20161225.0304)
 -->
<!-- Title: G Pages: 1 -->
<svg width="3331pt" height="1610pt"
 viewBox="0.00 0.00 3331.38 1609.70" xmlns="http://www.w3.org/2000/svg" xmlns:xlink="http://www.w3.org/1999/xlink">
<g id="graph0" class="graph" transform="scale(1 1) rotate(0) translate(7.992 1601.7043)">
<title>G</title>
<polygon fill="#eeeeff" stroke="transparent" points="-7.992,7.992 -7.992,-1601.7043 3323.3896,-1601.7043 3323.3896,7.992 -7.992,7.992"/>
<!-- ../f&#45;utility.js -->
<g id="node1" class="node">
<title>../f&#45;utility.js</title>
<ellipse fill="none" stroke="#242424" stroke-width="4" cx="407.7907" cy="-426.9638" rx="79.3981" ry="79.3981"/>
<text text-anchor="middle" x="407.7907" y="-424.5638" font-family="Fira Code" font-size="12.00" fill="#242424">../f&#45;utility.js</text>
</g>
<!-- entrust/entrust.js -->
<g id="node2" class="node">
<title>entrust/entrust.js</title>
<ellipse fill="none" stroke="#0c821d" stroke-width="4" cx="324.7907" cy="-129.7839" rx="92.9895" ry="92.9895"/>
<text text-anchor="middle" x="324.7907" y="-127.3839" font-family="Fira Code" font-size="12.00" fill="#0c821d">entrust/entrust.js</text>
</g>
<!-- ../f&#45;utility.js&#45;&gt;entrust/entrust.js -->
<g id="edge1" class="edge">
<title>../f&#45;utility.js&#45;&gt;entrust/entrust.js</title>
<path fill="none" stroke="#242424" d="M386.4161,-350.4326C376.0993,-313.4936 363.5931,-268.7153 352.5501,-229.1759"/>
<polygon fill="#242424" stroke="#242424" points="355.9114,-228.1997 349.8504,-219.5098 349.1694,-230.0827 355.9114,-228.1997"/>
</g>
<!-- fantasy&#45;land/index.js -->
<g id="node3" class="node">
<title>fantasy&#45;land/index.js</title>
<ellipse fill="none" stroke="#0c821d" stroke-width="4" cx="542.7907" cy="-129.7839" rx="106.5817" ry="106.5817"/>
<text text-anchor="middle" x="542.7907" y="-127.3839" font-family="Fira Code" font-size="12.00" fill="#0c821d">fantasy&#45;land/index.js</text>
</g>
<!-- ../f&#45;utility.js&#45;&gt;fantasy&#45;land/index.js -->
<g id="edge2" class="edge">
<title>../f&#45;utility.js&#45;&gt;fantasy&#45;land/index.js</title>
<path fill="none" stroke="#242424" d="M440.6427,-354.6454C456.7556,-319.1757 476.4823,-275.7506 494.2888,-236.5526"/>
<polygon fill="#242424" stroke="#242424" points="497.5821,-237.7653 498.5315,-227.213 491.2089,-234.8701 497.5821,-237.7653"/>
</g>
<!-- flatmap&#45;fast/index.js -->
<g id="node4" class="node">
<title>flatmap&#45;fast/index.js</title>
<ellipse fill="none" stroke="#0c821d" stroke-width="4" cx="106.7907" cy="-129.7839" rx="106.5817" ry="106.5817"/>
<text text-anchor="middle" x="106.7907" y="-127.3839" font-family="Fira Code" font-size="12.00" fill="#0c821d">flatmap&#45;fast/index.js</text>
</g>
<!-- ../f&#45;utility.js&#45;&gt;flatmap&#45;fast/index.js -->
<g id="edge3" class="edge">
<title>../f&#45;utility.js&#45;&gt;flatmap&#45;fast/index.js</title>
<path fill="none" stroke="#242424" d="M347.5738,-375.3626C310.6593,-343.0308 262.9434,-299.9665 222.7907,-259.5677 209.8487,-246.5465 196.5168,-232.3967 183.7088,-218.3872"/>
<polygon fill="#242424" stroke="#242424" points="185.9698,-215.6712 176.6529,-210.6266 180.7904,-220.3802 185.9698,-215.6712"/>
</g>
<!-- katsu&#45;curry/katsu&#45;curry.js -->
<g id="node5" class="node">
<title>katsu&#45;curry/katsu&#45;curry.js</title>
<ellipse fill="none" stroke="#0c821d" stroke-width="4" cx="1525.7907" cy="-129.7839" rx="129.5681" ry="129.5681"/>
<text text-anchor="middle" x="1525.7907" y="-127.3839" font-family="Fira Code" font-size="12.00" fill="#0c821d">katsu&#45;curry/katsu&#45;curry.js</text>
</g>
<!-- ../f&#45;utility.js&#45;&gt;katsu&#45;curry/katsu&#45;curry.js -->
<g id="edge4" class="edge">
<title>../f&#45;utility.js&#45;&gt;katsu&#45;curry/katsu&#45;curry.js</title>
<path fill="none" stroke="#242424" d="M458.9975,-365.7081C470.1767,-355.3362 482.634,-345.65 495.7907,-338.5677 535.1053,-317.4045 1116.6306,-206.5132 1388.0972,-155.5036"/>
<polygon fill="#242424" stroke="#242424" points="1388.8358,-158.9261 1398.0178,-153.6402 1387.5435,-152.0464 1388.8358,-158.9261"/>
</g>
<!-- ../package.json -->
<g id="node6" class="node">
<title>../package.json</title>
<ellipse fill="none" stroke="#0c821d" stroke-width="4" cx="2632.7907" cy="-1286.3132" rx="79.3981" ry="79.3981"/>
<text text-anchor="middle" x="2632.7907" y="-1283.9132" font-family="Fira Code" font-size="12.00" fill="#0c821d">../package.json</text>
</g>
<!-- array.js -->
<g id="node7" class="node">
<title>array.js</title>
<ellipse fill="none" stroke="#242424" stroke-width="4" cx="852.7907" cy="-961.5414" rx="47.0167" ry="47.0167"/>
<text text-anchor="middle" x="852.7907" y="-959.1414" font-family="Fira Code" font-size="12.00" fill="#242424">array.js</text>
</g>
<!-- array.js&#45;&gt;entrust/entrust.js -->
<g id="edge5" class="edge">
<title>array.js&#45;&gt;entrust/entrust.js</title>
<path fill="none" stroke="#242424" d="M815.9771,-932.1473C697.5779,-837.4279 333.4663,-544.6428 319.7907,-515.3599 277.9549,-425.7793 286.0523,-311.2348 300.3941,-230.3416"/>
<polygon fill="#242424" stroke="#242424" points="303.9016,-230.6192 302.2652,-220.1515 297.0167,-229.355 303.9016,-230.6192"/>
</g>
<!-- array.js&#45;&gt;katsu&#45;curry/katsu&#45;curry.js -->
<g id="edge6" class="edge">
<title>array.js&#45;&gt;katsu&#45;curry/katsu&#45;curry.js</title>
<path fill="none" stroke="#242424" d="M868.2961,-916.8564C881.327,-878.4766 899.9822,-821.5307 913.7907,-771.1521 917.0492,-759.2637 1004.8059,-347.959 1012.7907,-338.5677 1107.3555,-227.3461 1270.1902,-174.613 1387.0565,-150.113"/>
<polygon fill="#242424" stroke="#242424" points="1388.0621,-153.4797 1397.155,-148.042 1386.6557,-146.6225 1388.0621,-153.4797"/>
</g>
<!-- filter.js -->
<g id="node8" class="node">
<title>filter.js</title>
<ellipse fill="none" stroke="#242424" stroke-width="4" cx="852.7907" cy="-682.756" rx="51.7142" ry="51.7142"/>
<text text-anchor="middle" x="852.7907" y="-680.356" font-family="Fira Code" font-size="12.00" fill="#242424">filter.js</text>
</g>
<!-- array.js&#45;&gt;filter.js -->
<g id="edge7" class="edge">
<title>array.js&#45;&gt;filter.js</title>
<path fill="none" stroke="#242424" d="M852.7907,-914.2493C852.7907,-867.5963 852.7907,-796.0298 852.7907,-744.8258"/>
<polygon fill="#242424" stroke="#242424" points="856.2908,-744.5476 852.7907,-734.5477 849.2908,-744.5477 856.2908,-744.5476"/>
</g>
<!-- delegate&#45;fast.js -->
<g id="node10" class="node">
<title>delegate&#45;fast.js</title>
<ellipse fill="none" stroke="#242424" stroke-width="4" cx="682.7907" cy="-426.9638" rx="83.5954" ry="83.5954"/>
<text text-anchor="middle" x="682.7907" y="-424.5638" font-family="Fira Code" font-size="12.00" fill="#242424">delegate&#45;fast.js</text>
</g>
<!-- filter.js&#45;&gt;delegate&#45;fast.js -->
<g id="edge14" class="edge">
<title>filter.js&#45;&gt;delegate&#45;fast.js</title>
<path fill="none" stroke="#242424" d="M824.1447,-639.6536C799.7869,-603.0034 764.1922,-549.4454 734.8161,-505.2444"/>
<polygon fill="#242424" stroke="#242424" points="737.6685,-503.213 729.2185,-496.8219 731.8386,-507.0876 737.6685,-503.213"/>
</g>
<!-- fast.js/filter.js -->
<g id="node12" class="node">
<title>fast.js/filter.js</title>
<ellipse fill="none" stroke="#0c821d" stroke-width="4" cx="872.7907" cy="-426.9638" rx="88.2923" ry="88.2923"/>
<text text-anchor="middle" x="872.7907" y="-424.5638" font-family="Fira Code" font-size="12.00" fill="#0c821d">fast.js/filter.js</text>
</g>
<!-- filter.js&#45;&gt;fast.js/filter.js -->
<g id="edge13" class="edge">
<title>filter.js&#45;&gt;fast.js/filter.js</title>
<path fill="none" stroke="#242424" d="M856.8139,-631.3003C859.1912,-600.896 862.2802,-561.3881 865.1077,-525.2252"/>
<polygon fill="#242424" stroke="#242424" points="868.6073,-525.3669 865.8975,-515.1245 861.6286,-524.8212 868.6073,-525.3669"/>
</g>
<!-- chain.js -->
<g id="node9" class="node">
<title>chain.js</title>
<ellipse fill="none" stroke="#242424" stroke-width="4" cx="341.7907" cy="-682.756" rx="47.0167" ry="47.0167"/>
<text text-anchor="middle" x="341.7907" y="-680.356" font-family="Fira Code" font-size="12.00" fill="#242424">chain.js</text>
</g>
<!-- chain.js&#45;&gt;flatmap&#45;fast/index.js -->
<g id="edge8" class="edge">
<title>chain.js&#45;&gt;flatmap&#45;fast/index.js</title>
<path fill="none" stroke="#242424" d="M325.4327,-638.6354C300.774,-572.7777 252.0332,-445.0969 205.7907,-338.5677 191.0438,-304.5954 174.0581,-267.9731 158.3662,-235.0303"/>
<polygon fill="#242424" stroke="#242424" points="161.4456,-233.3567 153.9775,-225.8415 155.1291,-236.3736 161.4456,-233.3567"/>
</g>
<!-- chain.js&#45;&gt;delegate&#45;fast.js -->
<g id="edge9" class="edge">
<title>chain.js&#45;&gt;delegate&#45;fast.js</title>
<path fill="none" stroke="#242424" d="M382.3144,-658.3206C432.6441,-627.3239 520.3446,-571.1609 589.7907,-515.3599 598.4533,-508.3994 607.2713,-500.7949 615.8553,-493.0617"/>
<polygon fill="#242424" stroke="#242424" points="618.2986,-495.5703 623.3287,-486.2457 613.5816,-490.3983 618.2986,-495.5703"/>
</g>
<!-- delegate&#45;fast.js&#45;&gt;entrust/entrust.js -->
<g id="edge11" class="edge">
<title>delegate&#45;fast.js&#45;&gt;entrust/entrust.js</title>
<path fill="none" stroke="#242424" d="M624.6115,-366.5358C613.5487,-356.5667 601.6943,-346.8108 589.7907,-338.5677 523.6058,-292.7359 489.4899,-310.0632 426.7907,-259.5677 410.9664,-246.8235 396.0838,-231.1839 382.8349,-215.2301"/>
<polygon fill="#242424" stroke="#242424" points="385.4854,-212.9418 376.4652,-207.3843 380.0509,-217.3539 385.4854,-212.9418"/>
</g>
<!-- delegate&#45;fast.js&#45;&gt;katsu&#45;curry/katsu&#45;curry.js -->
<g id="edge12" class="edge">
<title>delegate&#45;fast.js&#45;&gt;katsu&#45;curry/katsu&#45;curry.js</title>
<path fill="none" stroke="#242424" d="M739.5563,-364.9212C750.8124,-355.0642 763.0981,-345.7638 775.7907,-338.5677 971.5217,-227.5979 1229.8369,-172.6641 1386.5768,-147.8131"/>
<polygon fill="#242424" stroke="#242424" points="1387.4143,-151.2247 1396.7523,-146.2194 1386.3312,-144.309 1387.4143,-151.2247"/>
</g>
<!-- choice.js -->
<g id="node11" class="node">
<title>choice.js</title>
<ellipse fill="none" stroke="#242424" stroke-width="4" cx="2405.7907" cy="-426.9638" rx="51.7142" ry="51.7142"/>
<text text-anchor="middle" x="2405.7907" y="-424.5638" font-family="Fira Code" font-size="12.00" fill="#242424">choice.js</text>
</g>
<!-- choice.js&#45;&gt;katsu&#45;curry/katsu&#45;curry.js -->
<g id="edge10" class="edge">
<title>choice.js&#45;&gt;katsu&#45;curry/katsu&#45;curry.js</title>
<path fill="none" stroke="#242424" d="M2379.7923,-381.7535C2368.6939,-366.0083 2354.4351,-349.5531 2337.7907,-338.5677 2129.7933,-201.2888 1836.8069,-154.2465 1665.5513,-138.1443"/>
<polygon fill="#242424" stroke="#242424" points="1665.7416,-134.6471 1655.4635,-137.2183 1665.1017,-141.6178 1665.7416,-134.6471"/>
</g>
<!-- flip.js -->
<g id="node13" class="node">
<title>flip.js</title>
<ellipse fill="none" stroke="#242424" stroke-width="4" cx="1587.7907" cy="-961.5414" rx="42.3196" ry="42.3196"/>
<text text-anchor="middle" x="1587.7907" y="-959.1414" font-family="Fira Code" font-size="12.00" fill="#242424">flip.js</text>
</g>
<!-- flip.js&#45;&gt;katsu&#45;curry/katsu&#45;curry.js -->
<g id="edge15" class="edge">
<title>flip.js&#45;&gt;katsu&#45;curry/katsu&#45;curry.js</title>
<path fill="none" stroke="#242424" d="M1581.6484,-919.2831C1576.2435,-880.7598 1568.5188,-822.2393 1563.7907,-771.1521 1547.8362,-598.7654 1537.2597,-399.6586 1531.4044,-269.5954"/>
<polygon fill="#242424" stroke="#242424" points="1534.8996,-269.4061 1530.9564,-259.5724 1527.9065,-269.7188 1534.8996,-269.4061"/>
</g>
<!-- future.js -->
<g id="node14" class="node">
<title>future.js</title>
<ellipse fill="none" stroke="#242424" stroke-width="4" cx="224.7907" cy="-682.756" rx="51.7142" ry="51.7142"/>
<text text-anchor="middle" x="224.7907" y="-680.356" font-family="Fira Code" font-size="12.00" fill="#242424">future.js</text>
</g>
<!-- future.js&#45;&gt;entrust/entrust.js -->
<g id="edge16" class="edge">
<title>future.js&#45;&gt;entrust/entrust.js</title>
<path fill="none" stroke="#242424" d="M233.9532,-631.7251C246.0266,-564.5209 267.9402,-442.6736 286.7907,-338.5677 293.1088,-303.6744 300.0475,-265.5062 306.2471,-231.458"/>
<polygon fill="#242424" stroke="#242424" points="309.7118,-231.968 308.0602,-221.5026 302.825,-230.7137 309.7118,-231.968"/>
</g>
<!-- index.js -->
<g id="node15" class="node">
<title>index.js</title>
<ellipse fill="none" stroke="#242424" stroke-width="4" cx="1587.7907" cy="-1546.704" rx="47.0167" ry="47.0167"/>
<text text-anchor="middle" x="1587.7907" y="-1544.304" font-family="Fira Code" font-size="12.00" fill="#242424">index.js</text>
</g>
<!-- index.js&#45;&gt;katsu&#45;curry/katsu&#45;curry.js -->
<g id="edge17" class="edge">
<title>index.js&#45;&gt;katsu&#45;curry/katsu&#45;curry.js</title>
<path fill="none" stroke="#242424" d="M1634.9129,-1542.6553C1800.9669,-1527.9609 2351.9565,-1475.4227 2407.7907,-1420.6957 2481.7564,-1348.1966 2487.7907,-1065.1128 2487.7907,-961.5414 2487.7907,-961.5414 2487.7907,-961.5414 2487.7907,-682.756 2487.7907,-606.1275 2516.5476,-396.8445 2466.7907,-338.5677 2364.29,-218.5159 1901.7851,-162.0174 1665.574,-140.6017"/>
<polygon fill="#242424" stroke="#242424" points="1665.8102,-137.1089 1655.5373,-139.7005 1665.1842,-144.0808 1665.8102,-137.1089"/>
</g>
<!-- index.js&#45;&gt;../package.json -->
<g id="edge19" class="edge">
<title>index.js&#45;&gt;../package.json</title>
<path fill="none" stroke="#242424" d="M1634.8252,-1545.4441C1804.7372,-1540.1449 2384.9029,-1515.3409 2539.7907,-1420.6957 2561.2819,-1407.5633 2579.0511,-1387.3803 2593.0953,-1366.6153"/>
<polygon fill="#242424" stroke="#242424" points="2596.1698,-1368.3075 2598.6881,-1358.0163 2590.3018,-1364.4909 2596.1698,-1368.3075"/>
</g>
<!-- index.js&#45;&gt;array.js -->
<g id="edge20" class="edge">
<title>index.js&#45;&gt;array.js</title>
<path fill="none" stroke="#242424" d="M1540.667,-1545.2724C1399.1389,-1539.9273 982.1931,-1516.2109 894.7907,-1420.6957 792.8872,-1309.3334 818.3233,-1112.8902 838.7903,-1017.1391"/>
<polygon fill="#242424" stroke="#242424" points="842.2114,-1017.8781 840.9388,-1007.36 835.3744,-1016.376 842.2114,-1017.8781"/>
</g>
<!-- index.js&#45;&gt;filter.js -->
<g id="edge23" class="edge">
<title>index.js&#45;&gt;filter.js</title>
<path fill="none" stroke="#242424" d="M1540.7929,-1542.4224C1380.9926,-1527.4103 865.8024,-1475.1198 816.7907,-1420.6957 642.2285,-1226.8568 767.7336,-875.2881 826.7168,-738.9236"/>
<polygon fill="#242424" stroke="#242424" points="830.0455,-740.0471 830.8436,-729.4824 823.6314,-737.2435 830.0455,-740.0471"/>
</g>
<!-- index.js&#45;&gt;chain.js -->
<g id="edge21" class="edge">
<title>index.js&#45;&gt;chain.js</title>
<path fill="none" stroke="#242424" d="M1540.7522,-1543.0572C1361.5397,-1528.7986 727.9927,-1474.9293 656.7907,-1420.6957 430.5734,-1248.389 364.8343,-881.6378 347.4834,-740.1209"/>
<polygon fill="#242424" stroke="#242424" points="350.9275,-739.4425 346.27,-729.9263 343.9765,-740.2699 350.9275,-739.4425"/>
</g>
<!-- index.js&#45;&gt;choice.js -->
<g id="edge22" class="edge">
<title>index.js&#45;&gt;choice.js</title>
<path fill="none" stroke="#242424" d="M1634.9488,-1545.6316C1785.2381,-1541.2278 2249.1846,-1519.7152 2353.7907,-1420.6957 2487.9877,-1293.6655 2434.2162,-685.0292 2412.9144,-488.3832"/>
<polygon fill="#242424" stroke="#242424" points="2416.3703,-487.7884 2411.8034,-478.2284 2409.4118,-488.5498 2416.3703,-487.7884"/>
</g>
<!-- index.js&#45;&gt;flip.js -->
<g id="edge24" class="edge">
<title>index.js&#45;&gt;flip.js</title>
<path fill="none" stroke="#242424" d="M1587.7907,-1499.3134C1587.7907,-1391.2679 1587.7907,-1127.328 1587.7907,-1014.3085"/>
<polygon fill="#242424" stroke="#242424" points="1591.2908,-1014.1742 1587.7907,-1004.1742 1584.2908,-1014.1742 1591.2908,-1014.1742"/>
</g>
<!-- index.js&#45;&gt;future.js -->
<g id="edge25" class="edge">
<title>index.js&#45;&gt;future.js</title>
<path fill="none" stroke="#242424" d="M1540.7059,-1544.4845C1337.1219,-1534.4891 538.99,-1491.0539 453.7907,-1420.6957 244.9566,-1248.2391 223.0878,-888.7911 223.1705,-744.5809"/>
<polygon fill="#242424" stroke="#242424" points="226.6704,-744.5898 223.2121,-734.5753 219.6705,-744.5606 226.6704,-744.5898"/>
</g>
<!-- katsu&#45;curry/utils/length.js -->
<g id="node16" class="node">
<title>katsu&#45;curry/utils/length.js</title>
<ellipse fill="none" stroke="#0c821d" stroke-width="4" cx="2864.7907" cy="-1286.3132" rx="134.2651" ry="134.2651"/>
<text text-anchor="middle" x="2864.7907" y="-1283.9132" font-family="Fira Code" font-size="12.00" fill="#0c821d">katsu&#45;curry/utils/length.js</text>
</g>
<!-- index.js&#45;&gt;katsu&#45;curry/utils/length.js -->
<g id="edge18" class="edge">
<title>index.js&#45;&gt;katsu&#45;curry/utils/length.js</title>
<path fill="none" stroke="#242424" d="M1635.0299,-1545.3835C1823.665,-1539.5144 2522.3032,-1511.9215 2720.7907,-1420.6957 2736.7823,-1413.3459 2752.1643,-1403.5195 2766.5355,-1392.5096"/>
<polygon fill="#242424" stroke="#242424" points="2768.7406,-1395.2279 2774.4129,-1386.2793 2764.3983,-1389.7375 2768.7406,-1395.2279"/>
</g>
<!-- invert.js -->
<g id="node17" class="node">
<title>invert.js</title>
<ellipse fill="none" stroke="#242424" stroke-width="4" cx="2567.7907" cy="-426.9638" rx="51.7142" ry="51.7142"/>
<text text-anchor="middle" x="2567.7907" y="-424.5638" font-family="Fira Code" font-size="12.00" fill="#242424">invert.js</text>
</g>
<!-- index.js&#45;&gt;invert.js -->
<g id="edge26" class="edge">
<title>index.js&#45;&gt;invert.js</title>
<path fill="none" stroke="#242424" d="M1634.8838,-1543.6513C1813.4731,-1531.6193 2441.9054,-1484.9708 2501.7907,-1420.6957 2533.663,-1386.487 2558.799,-700.4655 2565.8235,-488.685"/>
<polygon fill="#242424" stroke="#242424" points="2569.3223,-488.7764 2566.154,-478.6664 2562.3261,-488.5456 2569.3223,-488.7764"/>
</g>
<!-- iterate.js -->
<g id="node18" class="node">
<title>iterate.js</title>
<ellipse fill="none" stroke="#242424" stroke-width="4" cx="1114.7907" cy="-682.756" rx="56.412" ry="56.412"/>
<text text-anchor="middle" x="1114.7907" y="-680.356" font-family="Fira Code" font-size="12.00" fill="#242424">iterate.js</text>
</g>
<!-- index.js&#45;&gt;iterate.js -->
<g id="edge27" class="edge">
<title>index.js&#45;&gt;iterate.js</title>
<path fill="none" stroke="#242424" d="M1541.6046,-1536.9907C1452.5227,-1517.3249 1261.9341,-1470.4214 1218.7907,-1420.6957 1132.2972,-1321.0062 1117.6123,-911.5197 1115.2147,-749.3413"/>
<polygon fill="#242424" stroke="#242424" points="1118.7101,-748.9737 1115.074,-739.0225 1111.7108,-749.0693 1118.7101,-748.9737"/>
</g>
<!-- map.js -->
<g id="node19" class="node">
<title>map.js</title>
<ellipse fill="none" stroke="#242424" stroke-width="4" cx="542.7907" cy="-426.9638" rx="37.623" ry="37.623"/>
<text text-anchor="middle" x="542.7907" y="-424.5638" font-family="Fira Code" font-size="12.00" fill="#242424">map.js</text>
</g>
<!-- index.js&#45;&gt;map.js -->
<g id="edge28" class="edge">
<title>index.js&#45;&gt;map.js</title>
<path fill="none" stroke="#242424" d="M1540.8512,-1543.0392C1369.3161,-1529.2223 783.2995,-1478.1376 723.7907,-1420.6957 585.703,-1287.4044 551.4284,-655.5444 544.3932,-475.1536"/>
<polygon fill="#242424" stroke="#242424" points="547.8816,-474.7782 544.0046,-464.9182 540.8866,-475.0438 547.8816,-474.7782"/>
</g>
<!-- math.js -->
<g id="node20" class="node">
<title>math.js</title>
<ellipse fill="none" stroke="#242424" stroke-width="4" cx="1484.7907" cy="-961.5414" rx="42.3196" ry="42.3196"/>
<text text-anchor="middle" x="1484.7907" y="-959.1414" font-family="Fira Code" font-size="12.00" fill="#242424">math.js</text>
</g>
<!-- index.js&#45;&gt;math.js -->
<g id="edge29" class="edge">
<title>index.js&#45;&gt;math.js</title>
<path fill="none" stroke="#242424" d="M1579.6223,-1500.2982C1560.6815,-1392.6915 1513.8689,-1126.7402 1493.9737,-1013.7122"/>
<polygon fill="#242424" stroke="#242424" points="1497.3714,-1012.8249 1492.1908,-1003.5831 1490.4774,-1014.0384 1497.3714,-1012.8249"/>
</g>
<!-- object.js -->
<g id="node21" class="node">
<title>object.js</title>
<ellipse fill="none" stroke="#242424" stroke-width="4" cx="1624.7907" cy="-682.756" rx="51.7142" ry="51.7142"/>
<text text-anchor="middle" x="1624.7907" y="-680.356" font-family="Fira Code" font-size="12.00" fill="#242424">object.js</text>
</g>
<!-- index.js&#45;&gt;object.js -->
<g id="edge30" class="edge">
<title>index.js&#45;&gt;object.js</title>
<path fill="none" stroke="#242424" d="M1593.0615,-1499.7362C1595.7076,-1476.0383 1598.947,-1446.8447 1601.7907,-1420.6957 1629.2624,-1168.0775 1649.3889,-1104.0386 1638.7907,-850.1521 1637.3254,-815.0517 1634.1392,-775.9192 1631.1761,-744.3214"/>
<polygon fill="#242424" stroke="#242424" points="1634.658,-743.9643 1630.2243,-734.3417 1627.6896,-744.6289 1634.658,-743.9643"/>
</g>
<!-- path.js -->
<g id="node22" class="node">
<title>path.js</title>
<ellipse fill="none" stroke="#242424" stroke-width="4" cx="1451.7907" cy="-1286.3132" rx="42.3196" ry="42.3196"/>
<text text-anchor="middle" x="1451.7907" y="-1283.9132" font-family="Fira Code" font-size="12.00" fill="#242424">path.js</text>
</g>
<!-- index.js&#45;&gt;path.js -->
<g id="edge31" class="edge">
<title>index.js&#45;&gt;path.js</title>
<path fill="none" stroke="#242424" d="M1565.9399,-1504.8677C1541.4626,-1458.0025 1501.8801,-1382.2164 1476.3501,-1333.3357"/>
<polygon fill="#242424" stroke="#242424" points="1479.3288,-1331.4785 1471.5969,-1324.235 1473.1241,-1334.7192 1479.3288,-1331.4785"/>
</g>
<!-- random&#45;floor.js -->
<g id="node23" class="node">
<title>random&#45;floor.js</title>
<ellipse fill="none" stroke="#242424" stroke-width="4" cx="1811.7907" cy="-682.756" rx="79.3981" ry="79.3981"/>
<text text-anchor="middle" x="1811.7907" y="-680.356" font-family="Fira Code" font-size="12.00" fill="#242424">random&#45;floor.js</text>
</g>
<!-- index.js&#45;&gt;random&#45;floor.js -->
<g id="edge32" class="edge">
<title>index.js&#45;&gt;random&#45;floor.js</title>
<path fill="none" stroke="#242424" d="M1631.9532,-1529.8606C1751.8326,-1481.2644 2081.3921,-1327.7821 2186.7907,-1072.9307 2224.6308,-981.434 2240.6766,-933.2172 2186.7907,-850.1521 2123.8657,-753.1533 1990.1781,-711.8726 1900.6327,-694.6427"/>
<polygon fill="#242424" stroke="#242424" points="1901.2259,-691.1931 1890.7544,-692.8047 1899.9454,-698.075 1901.2259,-691.1931"/>
</g>
<!-- random&#45;shuffle.js -->
<g id="node24" class="node">
<title>random&#45;shuffle.js</title>
<ellipse fill="none" stroke="#0c821d" stroke-width="4" cx="3105.7907" cy="-1286.3132" rx="88.2923" ry="88.2923"/>
<text text-anchor="middle" x="3105.7907" y="-1283.9132" font-family="Fira Code" font-size="12.00" fill="#0c821d">random&#45;shuffle.js</text>
</g>
<!-- index.js&#45;&gt;random&#45;shuffle.js -->
<g id="edge33" class="edge">
<title>index.js&#45;&gt;random&#45;shuffle.js</title>
<path fill="none" stroke="#242424" d="M1634.7685,-1544.8336C1866.9607,-1535.2838 2885.7289,-1489.7116 3007.7907,-1420.6957 3027.8441,-1409.3571 3044.9164,-1392.0342 3058.9181,-1373.5581"/>
<polygon fill="#242424" stroke="#242424" points="3062.0864,-1375.1521 3065.1349,-1365.0053 3056.4242,-1371.0363 3062.0864,-1375.1521"/>
</g>
<!-- random&#45;take.js -->
<g id="node25" class="node">
<title>random&#45;take.js</title>
<ellipse fill="none" stroke="#242424" stroke-width="4" cx="1030.7907" cy="-961.5414" rx="74.7005" ry="74.7005"/>
<text text-anchor="middle" x="1030.7907" y="-959.1414" font-family="Fira Code" font-size="12.00" fill="#242424">random&#45;take.js</text>
</g>
<!-- index.js&#45;&gt;random&#45;take.js -->
<g id="edge34" class="edge">
<title>index.js&#45;&gt;random&#45;take.js</title>
<path fill="none" stroke="#242424" d="M1541.043,-1540.4395C1434.33,-1525.183 1177.5529,-1482.7462 1119.7907,-1420.6957 1107.031,-1406.9888 1066.4341,-1174.5399 1044.7532,-1045.7708"/>
<polygon fill="#242424" stroke="#242424" points="1048.1434,-1044.8252 1043.0343,-1035.5436 1041.2403,-1045.9854 1048.1434,-1044.8252"/>
</g>
<!-- random&#45;word.js -->
<g id="node26" class="node">
<title>random&#45;word.js</title>
<ellipse fill="none" stroke="#242424" stroke-width="4" cx="978.7907" cy="-1286.3132" rx="74.7005" ry="74.7005"/>
<text text-anchor="middle" x="978.7907" y="-1283.9132" font-family="Fira Code" font-size="12.00" fill="#242424">random&#45;word.js</text>
</g>
<!-- index.js&#45;&gt;random&#45;word.js -->
<g id="edge35" class="edge">
<title>index.js&#45;&gt;random&#45;word.js</title>
<path fill="none" stroke="#242424" d="M1541.0535,-1539.3846C1429.9902,-1521.3342 1153.7911,-1472.3896 1076.7907,-1420.6957 1054.0447,-1405.4253 1034.6977,-1383.0152 1019.3546,-1360.8552"/>
<polygon fill="#242424" stroke="#242424" points="1022.1513,-1358.7416 1013.6716,-1352.3898 1016.3395,-1362.6433 1022.1513,-1358.7416"/>
</g>
<!-- random.js -->
<g id="node27" class="node">
<title>random.js</title>
<ellipse fill="none" stroke="#0c821d" stroke-width="4" cx="3263.7907" cy="-1286.3132" rx="51.7142" ry="51.7142"/>
<text text-anchor="middle" x="3263.7907" y="-1283.9132" font-family="Fira Code" font-size="12.00" fill="#0c821d">random.js</text>
</g>
<!-- index.js&#45;&gt;random.js -->
<g id="edge36" class="edge">
<title>index.js&#45;&gt;random.js</title>
<path fill="none" stroke="#242424" d="M1635.141,-1545.8461C1887.8615,-1540.8949 3071.2274,-1512.8973 3202.7907,-1420.6957 3227.364,-1403.4743 3242.2203,-1373.8844 3251.1074,-1346.8472"/>
<polygon fill="#242424" stroke="#242424" points="3254.5325,-1347.616 3254.1185,-1337.0293 3247.8401,-1345.5635 3254.5325,-1347.616"/>
</g>
<!-- reduce.js -->
<g id="node28" class="node">
<title>reduce.js</title>
<ellipse fill="none" stroke="#242424" stroke-width="4" cx="1334.7907" cy="-961.5414" rx="51.7142" ry="51.7142"/>
<text text-anchor="middle" x="1334.7907" y="-959.1414" font-family="Fira Code" font-size="12.00" fill="#242424">reduce.js</text>
</g>
<!-- index.js&#45;&gt;reduce.js -->
<g id="edge37" class="edge">
<title>index.js&#45;&gt;reduce.js</title>
<path fill="none" stroke="#242424" d="M1543.8942,-1529.7629C1500.0199,-1510.3849 1434.3907,-1474.2525 1400.7907,-1420.6957 1322.8232,-1296.4196 1322.3986,-1116.5071 1328.6384,-1023.0717"/>
<polygon fill="#242424" stroke="#242424" points="1332.1409,-1023.1604 1329.3645,-1012.9358 1325.1588,-1022.6601 1332.1409,-1023.1604"/>
</g>
<!-- reject.js -->
<g id="node29" class="node">
<title>reject.js</title>
<ellipse fill="none" stroke="#242424" stroke-width="4" cx="1213.7907" cy="-961.5414" rx="51.7142" ry="51.7142"/>
<text text-anchor="middle" x="1213.7907" y="-959.1414" font-family="Fira Code" font-size="12.00" fill="#242424">reject.js</text>
</g>
<!-- index.js&#45;&gt;reject.js -->
<g id="edge38" class="edge">
<title>index.js&#45;&gt;reject.js</title>
<path fill="none" stroke="#242424" d="M1541.6995,-1537.4C1482.3873,-1522.9636 1380.3849,-1489.3606 1324.7907,-1420.6957 1230.1871,-1303.8501 1214.1539,-1118.899 1212.6753,-1023.2998"/>
<polygon fill="#242424" stroke="#242424" points="1216.1743,-1023.1756 1212.5686,-1013.2132 1209.1747,-1023.2497 1216.1743,-1023.1756"/>
</g>
<!-- string.js -->
<g id="node30" class="node">
<title>string.js</title>
<ellipse fill="none" stroke="#242424" stroke-width="4" cx="144.7907" cy="-426.9638" rx="51.7142" ry="51.7142"/>
<text text-anchor="middle" x="144.7907" y="-424.5638" font-family="Fira Code" font-size="12.00" fill="#242424">string.js</text>
</g>
<!-- index.js&#45;&gt;string.js -->
<g id="edge39" class="edge">
<title>index.js&#45;&gt;string.js</title>
<path fill="none" stroke="#242424" d="M1540.6962,-1545.455C1318.0979,-1539.1186 378.2857,-1507.3639 283.7907,-1420.6957 13.8133,-1173.0799 93.5891,-661.7151 130.6825,-487.0061"/>
<polygon fill="#242424" stroke="#242424" points="134.1069,-487.7293 132.7916,-477.2164 127.2639,-486.2549 134.1069,-487.7293"/>
</g>
<!-- ternary.js -->
<g id="node31" class="node">
<title>ternary.js</title>
<ellipse fill="none" stroke="#242424" stroke-width="4" cx="2183.7907" cy="-682.756" rx="56.412" ry="56.412"/>
<text text-anchor="middle" x="2183.7907" y="-680.356" font-family="Fira Code" font-size="12.00" fill="#242424">ternary.js</text>
</g>
<!-- index.js&#45;&gt;ternary.js -->
<g id="edge40" class="edge">
<title>index.js&#45;&gt;ternary.js</title>
<path fill="none" stroke="#242424" d="M1634.8093,-1543.5935C1718.3139,-1535.878 1894.4464,-1509.4825 2008.7907,-1420.6957 2151.2212,-1310.1002 2169.5927,-1246.6972 2217.7907,-1072.9307 2248.8569,-960.9287 2223.276,-824.5362 2202.8467,-746.2634"/>
<polygon fill="#242424" stroke="#242424" points="2206.2143,-745.308 2200.2585,-736.5456 2199.4501,-747.1096 2206.2143,-745.308"/>
</g>
<!-- triplet.js -->
<g id="node32" class="node">
<title>triplet.js</title>
<ellipse fill="none" stroke="#242424" stroke-width="4" cx="2365.7907" cy="-961.5414" rx="56.412" ry="56.412"/>
<text text-anchor="middle" x="2365.7907" y="-959.1414" font-family="Fira Code" font-size="12.00" fill="#242424">triplet.js</text>
</g>
<!-- index.js&#45;&gt;triplet.js -->
<g id="edge41" class="edge">
<title>index.js&#45;&gt;triplet.js</title>
<path fill="none" stroke="#242424" d="M1634.9035,-1545.2217C1777.9841,-1539.7041 2203.3279,-1515.4846 2295.7907,-1420.6957 2398.674,-1315.224 2390.3502,-1126.394 2377.156,-1026.9368"/>
<polygon fill="#242424" stroke="#242424" points="2380.6206,-1026.4392 2375.7837,-1017.0129 2373.6866,-1027.3981 2380.6206,-1026.4392"/>
</g>
<!-- types.js -->
<g id="node33" class="node">
<title>types.js</title>
<ellipse fill="none" stroke="#242424" stroke-width="4" cx="2159.7907" cy="-426.9638" rx="47.0167" ry="47.0167"/>
<text text-anchor="middle" x="2159.7907" y="-424.5638" font-family="Fira Code" font-size="12.00" fill="#242424">types.js</text>
</g>
<!-- index.js&#45;&gt;types.js -->
<g id="edge42" class="edge">
<title>index.js&#45;&gt;types.js</title>
<path fill="none" stroke="#242424" d="M1634.5999,-1541.2812C1750.0354,-1527.0335 2044.1491,-1485.1394 2115.7907,-1420.6957 2254.0708,-1296.3085 2293.784,-774.8292 2248.7907,-594.3599 2242.7763,-570.236 2212.8655,-516.2878 2189.3571,-476.1172"/>
<polygon fill="#242424" stroke="#242424" points="2192.233,-474.1032 2184.1462,-467.2582 2186.1994,-477.6522 2192.233,-474.1032"/>
</g>
<!-- which.js -->
<g id="node34" class="node">
<title>which.js</title>
<ellipse fill="none" stroke="#242424" stroke-width="4" cx="1783.7907" cy="-1286.3132" rx="47.0167" ry="47.0167"/>
<text text-anchor="middle" x="1783.7907" y="-1283.9132" font-family="Fira Code" font-size="12.00" fill="#242424">which.js</text>
</g>
<!-- index.js&#45;&gt;which.js -->
<g id="edge43" class="edge">
<title>index.js&#45;&gt;which.js</title>
<path fill="none" stroke="#242424" d="M1616.0814,-1509.1191C1651.3296,-1462.291 1711.5231,-1382.3225 1749.3985,-1332.004"/>
<polygon fill="#242424" stroke="#242424" points="1752.2909,-1333.9812 1755.5085,-1323.8868 1746.6982,-1329.7715 1752.2909,-1333.9812"/>
</g>
<!-- invert.js&#45;&gt;katsu&#45;curry/katsu&#45;curry.js -->
<g id="edge44" class="edge">
<title>invert.js&#45;&gt;katsu&#45;curry/katsu&#45;curry.js</title>
<path fill="none" stroke="#242424" d="M2543.0414,-381.3907C2532.3254,-365.6036 2518.3977,-349.2145 2501.7907,-338.5677 2364.2739,-250.4052 1899.9151,-178.8561 1664.739,-147.2702"/>
<polygon fill="#242424" stroke="#242424" points="1665.1244,-143.7907 1654.7486,-145.9339 1664.1963,-150.7289 1665.1244,-143.7907"/>
</g>
<!-- iterate.js&#45;&gt;katsu&#45;curry/katsu&#45;curry.js -->
<g id="edge45" class="edge">
<title>iterate.js&#45;&gt;katsu&#45;curry/katsu&#45;curry.js</title>
<path fill="none" stroke="#242424" d="M1112.9976,-626.5008C1113.4268,-553.6144 1123.8319,-425.5967 1184.7907,-338.5677 1235.9669,-265.5049 1321.688,-213.1848 1394.378,-179.1928"/>
<polygon fill="#242424" stroke="#242424" points="1396.0109,-182.2942 1403.6297,-174.9317 1393.0825,-175.9362 1396.0109,-182.2942"/>
</g>
<!-- map.js&#45;&gt;entrust/entrust.js -->
<g id="edge46" class="edge">
<title>map.js&#45;&gt;entrust/entrust.js</title>
<path fill="none" stroke="#242424" d="M526.6866,-392.3199C518.322,-375.5569 507.4271,-355.4566 495.7907,-338.5677 469.341,-300.1795 456.5371,-295.4618 426.7907,-259.5677 414.1774,-244.3477 400.9562,-227.9075 388.3703,-212.0094"/>
<polygon fill="#242424" stroke="#242424" points="390.7969,-209.4346 381.8533,-203.7546 385.3027,-213.7722 390.7969,-209.4346"/>
</g>
<!-- map.js&#45;&gt;fantasy&#45;land/index.js -->
<g id="edge47" class="edge">
<title>map.js&#45;&gt;fantasy&#45;land/index.js</title>
<path fill="none" stroke="#242424" d="M542.7907,-389.0239C542.7907,-353.1565 542.7907,-297.4451 542.7907,-246.8466"/>
<polygon fill="#242424" stroke="#242424" points="546.2908,-246.8024 542.7907,-236.8024 539.2908,-246.8024 546.2908,-246.8024"/>
</g>
<!-- map.js&#45;&gt;katsu&#45;curry/katsu&#45;curry.js -->
<g id="edge49" class="edge">
<title>map.js&#45;&gt;katsu&#45;curry/katsu&#45;curry.js</title>
<path fill="none" stroke="#242424" d="M553.8941,-390.6646C561.2674,-372.4314 572.7818,-351.5192 589.7907,-338.5677 653.0345,-290.4106 1142.8263,-197.9108 1387.5538,-154.029"/>
<polygon fill="#242424" stroke="#242424" points="1388.3609,-157.4402 1397.5875,-152.2325 1387.1272,-150.5498 1388.3609,-157.4402"/>
</g>
<!-- fast.js/map.js -->
<g id="node35" class="node">
<title>fast.js/map.js</title>
<ellipse fill="none" stroke="#0c821d" stroke-width="4" cx="741.7907" cy="-129.7839" rx="74.7005" ry="74.7005"/>
<text text-anchor="middle" x="741.7907" y="-127.3839" font-family="Fira Code" font-size="12.00" fill="#0c821d">fast.js/map.js</text>
</g>
<!-- map.js&#45;&gt;fast.js/map.js -->
<g id="edge48" class="edge">
<title>map.js&#45;&gt;fast.js/map.js</title>
<path fill="none" stroke="#242424" d="M558.8947,-392.3199C567.2593,-375.5569 578.1542,-355.4566 589.7907,-338.5677 616.2403,-300.1795 630.8216,-296.8634 658.7907,-259.5677 672.2188,-241.6617 685.737,-221.5941 697.8515,-202.6913"/>
<polygon fill="#242424" stroke="#242424" points="700.9019,-204.4169 703.3135,-194.1002 694.9947,-200.6613 700.9019,-204.4169"/>
</g>
<!-- math.js&#45;&gt;katsu&#45;curry/katsu&#45;curry.js -->
<g id="edge50" class="edge">
<title>math.js&#45;&gt;katsu&#45;curry/katsu&#45;curry.js</title>
<path fill="none" stroke="#242424" d="M1486.8802,-919.1509C1492.7117,-800.8493 1509.3581,-463.1479 1518.8818,-269.9421"/>
<polygon fill="#242424" stroke="#242424" points="1522.3894,-269.8723 1519.3861,-259.7121 1515.3979,-269.5276 1522.3894,-269.8723"/>
</g>
<!-- object.js&#45;&gt;katsu&#45;curry/katsu&#45;curry.js -->
<g id="edge51" class="edge">
<title>object.js&#45;&gt;katsu&#45;curry/katsu&#45;curry.js</title>
<path fill="none" stroke="#242424" d="M1615.6544,-631.7249C1600.9651,-549.6765 1571.6021,-385.667 1550.432,-267.4197"/>
<polygon fill="#242424" stroke="#242424" points="1553.8741,-266.785 1548.6665,-257.5584 1546.9836,-268.0187 1553.8741,-266.785"/>
</g>
<!-- path.js&#45;&gt;katsu&#45;curry/katsu&#45;curry.js -->
<g id="edge52" class="edge">
<title>path.js&#45;&gt;katsu&#45;curry/katsu&#45;curry.js</title>
<path fill="none" stroke="#242424" d="M1447.151,-1243.87C1442.6986,-1200.8563 1436.2929,-1132.3615 1433.7907,-1072.9307 1429.6256,-974.0056 1423.9143,-948.671 1433.7907,-850.1521 1437.364,-814.5068 1444.1226,-806.5248 1449.7907,-771.1521 1464.7851,-677.5763 1493.1141,-427.9381 1510.6301,-269.1352"/>
<polygon fill="#242424" stroke="#242424" points="1514.1516,-269.1323 1511.768,-258.8091 1507.1937,-268.3655 1514.1516,-269.1323"/>
</g>
<!-- path.js&#45;&gt;math.js -->
<g id="edge53" class="edge">
<title>path.js&#45;&gt;math.js</title>
<path fill="none" stroke="#242424" d="M1456.1048,-1243.855C1462.104,-1184.8136 1472.9591,-1077.9822 1479.4583,-1014.0205"/>
<polygon fill="#242424" stroke="#242424" points="1482.9727,-1014.055 1480.5016,-1003.7524 1476.0086,-1013.3474 1482.9727,-1014.055"/>
</g>
<!-- path.js&#45;&gt;reduce.js -->
<g id="edge54" class="edge">
<title>path.js&#45;&gt;reduce.js</title>
<path fill="none" stroke="#242424" d="M1437.3268,-1246.1641C1416.8856,-1189.4228 1379.4181,-1085.4195 1355.8771,-1020.0737"/>
<polygon fill="#242424" stroke="#242424" points="1359.0482,-1018.5492 1352.366,-1010.3274 1352.4625,-1020.9218 1359.0482,-1018.5492"/>
</g>
<!-- random&#45;floor.js&#45;&gt;katsu&#45;curry/katsu&#45;curry.js -->
<g id="edge55" class="edge">
<title>random&#45;floor.js&#45;&gt;katsu&#45;curry/katsu&#45;curry.js</title>
<path fill="none" stroke="#242424" d="M1801.5765,-604.2152C1789.6675,-531.6981 1765.359,-422.8034 1718.7907,-338.5677 1695.755,-296.8994 1662.6794,-256.9913 1630.3998,-223.4321"/>
<polygon fill="#242424" stroke="#242424" points="1632.5779,-220.6521 1623.0942,-215.9288 1627.5625,-225.5353 1632.5779,-220.6521"/>
</g>
<!-- random&#45;take.js&#45;&gt;katsu&#45;curry/katsu&#45;curry.js -->
<g id="edge56" class="edge">
<title>random&#45;take.js&#45;&gt;katsu&#45;curry/katsu&#45;curry.js</title>
<path fill="none" stroke="#242424" d="M1030.1235,-886.8778C1030.5183,-812.3535 1034.0207,-694.7818 1049.7907,-594.3599 1068.0399,-478.1501 1043.931,-430.1238 1117.7907,-338.5677 1186.9621,-252.8231 1300.6555,-198.7558 1390.479,-167.1821"/>
<polygon fill="#242424" stroke="#242424" points="1391.8929,-170.3965 1400.1994,-163.8198 1389.6047,-163.7811 1391.8929,-170.3965"/>
</g>
<!-- random&#45;take.js&#45;&gt;iterate.js -->
<g id="edge57" class="edge">
<title>random&#45;take.js&#45;&gt;iterate.js</title>
<path fill="none" stroke="#242424" d="M1052.3137,-890.1093C1065.6623,-845.8069 1082.6645,-789.3786 1095.5612,-746.5761"/>
<polygon fill="#242424" stroke="#242424" points="1098.9627,-747.4186 1098.4966,-736.834 1092.2604,-745.3991 1098.9627,-747.4186"/>
</g>
<!-- random&#45;take.js&#45;&gt;random&#45;floor.js -->
<g id="edge58" class="edge">
<title>random&#45;take.js&#45;&gt;random&#45;floor.js</title>
<path fill="none" stroke="#242424" d="M1079.3717,-904.7768C1099.9365,-884.3379 1125.4604,-863.1376 1152.7907,-850.1521 1369.0936,-747.3796 1463.3489,-859.8584 1685.7907,-771.1521 1705.4144,-763.3264 1724.935,-751.9032 1742.5445,-739.851"/>
<polygon fill="#242424" stroke="#242424" points="1744.8533,-742.5066 1751.0277,-733.8969 1740.8318,-736.777 1744.8533,-742.5066"/>
</g>
<!-- random&#45;word.js&#45;&gt;katsu&#45;curry/katsu&#45;curry.js -->
<g id="edge59" class="edge">
<title>random&#45;word.js&#45;&gt;katsu&#45;curry/katsu&#45;curry.js</title>
<path fill="none" stroke="#242424" d="M964.9635,-1212.554C957.9835,-1171.5946 950.2725,-1119.6258 946.7907,-1072.9307 939.4281,-974.1921 936.5092,-948.6296 946.7907,-850.1521 949.807,-821.2613 1036.5075,-361.1399 1054.7907,-338.5677 1137.7044,-236.2033 1281.1051,-182.5181 1387.9542,-155.3814"/>
<polygon fill="#242424" stroke="#242424" points="1388.9935,-158.7296 1397.8514,-152.9168 1387.302,-151.937 1388.9935,-158.7296"/>
</g>
<!-- random&#45;word.js&#45;&gt;array.js -->
<g id="edge60" class="edge">
<title>random&#45;word.js&#45;&gt;array.js</title>
<path fill="none" stroke="#242424" d="M951.7605,-1216.6415C928.3628,-1156.3328 895.0107,-1070.3658 873.631,-1015.2584"/>
<polygon fill="#242424" stroke="#242424" points="876.7943,-1013.7352 869.9142,-1005.6782 870.2682,-1016.2672 876.7943,-1013.7352"/>
</g>
<!-- random&#45;word.js&#45;&gt;random&#45;take.js -->
<g id="edge61" class="edge">
<title>random&#45;word.js&#45;&gt;random&#45;take.js</title>
<path fill="none" stroke="#242424" d="M990.5903,-1212.6174C998.5544,-1162.8762 1009.0829,-1097.1195 1017.3673,-1045.3785"/>
<polygon fill="#242424" stroke="#242424" points="1020.8677,-1045.6536 1018.9928,-1035.226 1013.9558,-1044.5469 1020.8677,-1045.6536"/>
</g>
<!-- reduce.js&#45;&gt;delegate&#45;fast.js -->
<g id="edge63" class="edge">
<title>reduce.js&#45;&gt;delegate&#45;fast.js</title>
<path fill="none" stroke="#242424" d="M1314.8832,-913.58C1273.7889,-814.6825 1183.1095,-597.056 1179.7907,-594.3599 1037.7859,-479.0011 938.3611,-599.2874 775.7907,-515.3599 765.6866,-510.1437 755.9144,-503.493 746.7433,-496.1873"/>
<polygon fill="#242424" stroke="#242424" points="748.7717,-493.322 738.8454,-489.6181 744.2954,-498.7037 748.7717,-493.322"/>
</g>
<!-- fast.js/reduce.js -->
<g id="node36" class="node">
<title>fast.js/reduce.js</title>
<ellipse fill="none" stroke="#0c821d" stroke-width="4" cx="1352.7907" cy="-682.756" rx="88.2923" ry="88.2923"/>
<text text-anchor="middle" x="1352.7907" y="-680.356" font-family="Fira Code" font-size="12.00" fill="#0c821d">fast.js/reduce.js</text>
</g>
<!-- reduce.js&#45;&gt;fast.js/reduce.js -->
<g id="edge62" class="edge">
<title>reduce.js&#45;&gt;fast.js/reduce.js</title>
<path fill="none" stroke="#242424" d="M1338.1341,-909.7574C1340.4639,-873.6739 1343.6441,-824.419 1346.4468,-781.0104"/>
<polygon fill="#242424" stroke="#242424" points="1349.9426,-781.1867 1347.0943,-770.9819 1342.9571,-780.7356 1349.9426,-781.1867"/>
</g>
<!-- reject.js&#45;&gt;katsu&#45;curry/katsu&#45;curry.js -->
<g id="edge64" class="edge">
<title>reject.js&#45;&gt;katsu&#45;curry/katsu&#45;curry.js</title>
<path fill="none" stroke="#242424" d="M1213.1029,-909.9381C1213.5987,-837.557 1219.8956,-702.6127 1255.7907,-594.3599 1298.5697,-465.346 1380.1141,-332.6988 1442.4402,-242.3451"/>
<polygon fill="#242424" stroke="#242424" points="1445.3988,-244.2205 1448.2194,-234.008 1439.6459,-240.2326 1445.3988,-244.2205"/>
</g>
<!-- reject.js&#45;&gt;filter.js -->
<g id="edge65" class="edge">
<title>reject.js&#45;&gt;filter.js</title>
<path fill="none" stroke="#242424" d="M1182.0967,-920.6456C1163.7661,-898.4096 1139.4911,-871.2279 1114.7907,-850.1521 1048.8616,-793.8977 962.5697,-742.3592 907.3925,-711.75"/>
<polygon fill="#242424" stroke="#242424" points="908.9228,-708.597 898.4755,-706.8353 905.5439,-714.7276 908.9228,-708.597"/>
</g>
<!-- string.js&#45;&gt;entrust/entrust.js -->
<g id="edge66" class="edge">
<title>string.js&#45;&gt;entrust/entrust.js</title>
<path fill="none" stroke="#242424" d="M171.5441,-382.7939C197.7592,-339.5128 238.4504,-272.3317 271.3157,-218.071"/>
<polygon fill="#242424" stroke="#242424" points="274.3327,-219.8458 276.5198,-209.4791 268.3453,-216.2192 274.3327,-219.8458"/>
</g>
<!-- ternary.js&#45;&gt;katsu&#45;curry/katsu&#45;curry.js -->
<g id="edge67" class="edge">
<title>ternary.js&#45;&gt;katsu&#45;curry/katsu&#45;curry.js</title>
<path fill="none" stroke="#242424" d="M2140.6174,-646.474C2038.6555,-560.7868 1780.4523,-343.7972 1633.1248,-219.9857"/>
<polygon fill="#242424" stroke="#242424" points="1635.232,-217.1847 1625.3246,-213.4305 1630.7285,-222.5437 1635.232,-217.1847"/>
</g>
<!-- triplet.js&#45;&gt;katsu&#45;curry/katsu&#45;curry.js -->
<g id="edge68" class="edge">
<title>triplet.js&#45;&gt;katsu&#45;curry/katsu&#45;curry.js</title>
<path fill="none" stroke="#242424" d="M2370.2062,-905.3562C2376.4532,-783.6637 2372.8576,-494.1824 2215.7907,-338.5677 2137.6396,-261.1392 1841.4278,-191.5944 1663.5057,-155.6199"/>
<polygon fill="#242424" stroke="#242424" points="1664.0376,-152.1568 1653.5437,-153.6157 1662.6569,-159.0194 1664.0376,-152.1568"/>
</g>
<!-- types.js&#45;&gt;katsu&#45;curry/katsu&#45;curry.js -->
<g id="edge69" class="edge">
<title>types.js&#45;&gt;katsu&#45;curry/katsu&#45;curry.js</title>
<path fill="none" stroke="#242424" d="M2117.2077,-407.0035C2023.6163,-363.1337 1796.8948,-256.8607 1652.9183,-189.3734"/>
<polygon fill="#242424" stroke="#242424" points="1654.097,-186.0605 1643.5568,-184.9853 1651.1259,-192.3988 1654.097,-186.0605"/>
</g>
<!-- which.js&#45;&gt;katsu&#45;curry/katsu&#45;curry.js -->
<g id="edge72" class="edge">
<title>which.js&#45;&gt;katsu&#45;curry/katsu&#45;curry.js</title>
<path fill="none" stroke="#242424" d="M1766.0598,-1242.6144C1749.6642,-1200.0681 1726.1692,-1133.1872 1714.7907,-1072.9307 1675.251,-863.5429 1727.31,-803.3641 1685.7907,-594.3599 1662.6105,-477.6734 1617.2025,-350.248 1580.6639,-258.4133"/>
<polygon fill="#242424" stroke="#242424" points="1583.8944,-257.0653 1576.9319,-249.0794 1577.3946,-259.6641 1583.8944,-257.0653"/>
</g>
<!-- which.js&#45;&gt;flip.js -->
<g id="edge73" class="edge">
<title>which.js&#45;&gt;flip.js</title>
<path fill="none" stroke="#242424" d="M1759.3634,-1245.8373C1722.6098,-1184.9365 1653.3205,-1070.1243 1614.9989,-1006.6254"/>
<polygon fill="#242424" stroke="#242424" points="1617.9673,-1004.7702 1609.8037,-998.017 1611.9741,-1008.3871 1617.9673,-1004.7702"/>
</g>
<!-- which.js&#45;&gt;triplet.js -->
<g id="edge74" class="edge">
<title>which.js&#45;&gt;triplet.js</title>
<path fill="none" stroke="#242424" d="M1826.0859,-1265.1454C1900.0691,-1227.8477 2057.4189,-1147.3137 2186.7907,-1072.9307 2228.6213,-1048.8799 2274.837,-1020.0613 2309.829,-997.763"/>
<polygon fill="#242424" stroke="#242424" points="2311.9304,-1000.5739 2318.474,-992.2413 2308.1623,-994.6745 2311.9304,-1000.5739"/>
</g>
<!-- fast.js/array/every.js -->
<g id="node37" class="node">
<title>fast.js/array/every.js</title>
<ellipse fill="none" stroke="#0c821d" stroke-width="4" cx="1834.7907" cy="-961.5414" rx="111.2787" ry="111.2787"/>
<text text-anchor="middle" x="1834.7907" y="-959.1414" font-family="Fira Code" font-size="12.00" fill="#0c821d">fast.js/array/every.js</text>
</g>
<!-- which.js&#45;&gt;fast.js/array/every.js -->
<g id="edge70" class="edge">
<title>which.js&#45;&gt;fast.js/array/every.js</title>
<path fill="none" stroke="#242424" d="M1791.0977,-1239.7813C1797.554,-1198.6669 1807.257,-1136.8775 1815.8805,-1081.9625"/>
<polygon fill="#242424" stroke="#242424" points="1819.3834,-1082.2171 1817.4771,-1071.7952 1812.4681,-1081.1312 1819.3834,-1082.2171"/>
</g>
<!-- fast.js/array/some.js -->
<g id="node38" class="node">
<title>fast.js/array/some.js</title>
<ellipse fill="none" stroke="#0c821d" stroke-width="4" cx="2070.7907" cy="-961.5414" rx="106.5817" ry="106.5817"/>
<text text-anchor="middle" x="2070.7907" y="-959.1414" font-family="Fira Code" font-size="12.00" fill="#0c821d">fast.js/array/some.js</text>
</g>
<!-- which.js&#45;&gt;fast.js/array/some.js -->
<g id="edge71" class="edge">
<title>which.js&#45;&gt;fast.js/array/some.js</title>
<path fill="none" stroke="#242424" d="M1815.051,-1250.9387C1857.5077,-1202.8943 1934.8141,-1115.4137 1993.3556,-1049.1676"/>
<polygon fill="#242424" stroke="#242424" points="1996.0382,-1051.4174 2000.0374,-1041.6064 1990.7928,-1046.7821 1996.0382,-1051.4174"/>
</g>
</g>
</svg>
