<?xml version="1.0" encoding="UTF-8" standalone="no"?>
<!DOCTYPE svg PUBLIC "-//W3C//DTD SVG 1.1//EN"
 "http://www.w3.org/Graphics/SVG/1.1/DTD/svg11.dtd">
<!-- Generated by graphviz version 2.40.1 (20161225.0304)
 -->
<!-- Title: G Pages: 1 -->
<svg width="2818pt" height="1670pt"
 viewBox="0.00 0.00 2818.35 1670.17" xmlns="http://www.w3.org/2000/svg" xmlns:xlink="http://www.w3.org/1999/xlink">
<g id="graph0" class="graph" transform="scale(1 1) rotate(0) translate(7.992 1662.1813)">
<title>G</title>
<polygon fill="#eeeeff" stroke="transparent" points="-7.992,7.992 -7.992,-1662.1813 2810.3554,-1662.1813 2810.3554,7.992 -7.992,7.992"/>
<!-- ../package.json -->
<g id="node1" class="node">
<title>../package.json</title>
<ellipse fill="none" stroke="#0c821d" stroke-width="4" cx="149.607" cy="-1340.7424" rx="79.3981" ry="79.3981"/>
<text text-anchor="middle" x="149.607" y="-1338.3424" font-family="Fira Code" font-size="12.00" fill="#0c821d">../package.json</text>
</g>
<!-- ap.js -->
<g id="node2" class="node">
<title>ap.js</title>
<ellipse fill="none" stroke="#242424" stroke-width="4" cx="1529.607" cy="-1340.7424" rx="33.4262" ry="33.4262"/>
<text text-anchor="middle" x="1529.607" y="-1338.3424" font-family="Fira Code" font-size="12.00" fill="#242424">ap.js</text>
</g>
<!-- ✪katsu&#45;curry/katsu&#45;curry.js -->
<g id="node3" class="node">
<title>✪katsu&#45;curry/katsu&#45;curry.js</title>
<ellipse fill="none" stroke="#0c821d" stroke-width="4" cx="1540.607" cy="-135.8316" rx="135.6633" ry="135.6633"/>
<text text-anchor="middle" x="1540.607" y="-133.4316" font-family="Fira Code" font-size="12.00" fill="#0c821d">✪katsu&#45;curry/katsu&#45;curry.js</text>
</g>
<!-- ap.js&#45;&gt;✪katsu&#45;curry/katsu&#45;curry.js -->
<g id="edge1" class="edge">
<title>ap.js&#45;&gt;✪katsu&#45;curry/katsu&#45;curry.js</title>
<path fill="none" stroke="#242424" d="M1523.469,-1307.6729C1501.0473,-1184.1325 1426.9583,-750.0508 1467.607,-618.5507 1480.1672,-577.9178 1508.0949,-579.877 1521.607,-539.5507 1549.1824,-457.2528 1554.5456,-360.2289 1552.7238,-281.9241"/>
<polygon fill="#242424" stroke="#242424" points="1556.2105,-281.3929 1552.4363,-271.4931 1549.2132,-281.5858 1556.2105,-281.3929"/>
</g>
<!-- map.js -->
<g id="node4" class="node">
<title>map.js</title>
<ellipse fill="none" stroke="#242424" stroke-width="4" cx="1711.607" cy="-1003.8752" rx="37.623" ry="37.623"/>
<text text-anchor="middle" x="1711.607" y="-1001.4753" font-family="Fira Code" font-size="12.00" fill="#242424">map.js</text>
</g>
<!-- ap.js&#45;&gt;map.js -->
<g id="edge2" class="edge">
<title>ap.js&#45;&gt;map.js</title>
<path fill="none" stroke="#242424" d="M1536.1604,-1308.1077C1542.763,-1278.9 1554.4442,-1235.4014 1571.607,-1200.3122 1575.7637,-1191.8138 1643.8223,-1097.4175 1683.4884,-1042.6374"/>
<polygon fill="#242424" stroke="#242424" points="1686.3284,-1044.683 1689.3602,-1034.5312 1680.6594,-1040.5766 1686.3284,-1044.683"/>
</g>
<!-- reduce.js -->
<g id="node5" class="node">
<title>reduce.js</title>
<ellipse fill="none" stroke="#242424" stroke-width="4" cx="1565.607" cy="-1003.8752" rx="51.7142" ry="51.7142"/>
<text text-anchor="middle" x="1565.607" y="-1001.4753" font-family="Fira Code" font-size="12.00" fill="#242424">reduce.js</text>
</g>
<!-- ap.js&#45;&gt;reduce.js -->
<g id="edge3" class="edge">
<title>ap.js&#45;&gt;reduce.js</title>
<path fill="none" stroke="#242424" d="M1533.1573,-1307.5204C1539.1594,-1251.3564 1551.4003,-1136.8132 1559.0127,-1065.5803"/>
<polygon fill="#242424" stroke="#242424" points="1562.5185,-1065.7122 1560.101,-1055.3969 1555.5581,-1064.9684 1562.5185,-1065.7122"/>
</g>
<!-- types.js -->
<g id="node6" class="node">
<title>types.js</title>
<ellipse fill="none" stroke="#242424" stroke-width="4" cx="1372.607" cy="-1003.8752" rx="47.0167" ry="47.0167"/>
<text text-anchor="middle" x="1372.607" y="-1001.4753" font-family="Fira Code" font-size="12.00" fill="#242424">types.js</text>
</g>
<!-- ap.js&#45;&gt;types.js -->
<g id="edge4" class="edge">
<title>ap.js&#45;&gt;types.js</title>
<path fill="none" stroke="#242424" d="M1515.5361,-1310.5512C1488.7405,-1253.0572 1430.1027,-1127.2409 1396.8609,-1055.9156"/>
<polygon fill="#242424" stroke="#242424" points="1399.9389,-1054.2346 1392.5422,-1046.6492 1393.5942,-1057.1917 1399.9389,-1054.2346"/>
</g>
<!-- map.js&#45;&gt;✪katsu&#45;curry/katsu&#45;curry.js -->
<g id="edge51" class="edge">
<title>map.js&#45;&gt;✪katsu&#45;curry/katsu&#45;curry.js</title>
<path fill="none" stroke="#242424" d="M1723.5448,-967.8307C1755.101,-866.2653 1832.4776,-570.8089 1744.607,-350.6631 1725.8272,-303.6135 1691.3007,-260.967 1655.9243,-226.3001"/>
<polygon fill="#242424" stroke="#242424" points="1657.9992,-223.4393 1648.3678,-219.025 1653.1442,-228.4821 1657.9992,-223.4393"/>
</g>
<!-- ✪fast.js/map.js -->
<g id="node36" class="node">
<title>✪fast.js/map.js</title>
<ellipse fill="none" stroke="#0c821d" stroke-width="4" cx="1877.607" cy="-712.9945" rx="80.796" ry="80.796"/>
<text text-anchor="middle" x="1877.607" y="-710.5945" font-family="Fira Code" font-size="12.00" fill="#0c821d">✪fast.js/map.js</text>
</g>
<!-- map.js&#45;&gt;✪fast.js/map.js -->
<g id="edge50" class="edge">
<title>map.js&#45;&gt;✪fast.js/map.js</title>
<path fill="none" stroke="#242424" d="M1723.6237,-968.0158C1732.1399,-944.2738 1744.5244,-912.7761 1758.607,-886.4382 1777.1004,-851.8511 1801.022,-815.7568 1822.5621,-785.5078"/>
<polygon fill="#242424" stroke="#242424" points="1825.582,-787.3026 1828.5678,-777.1372 1819.8945,-783.2219 1825.582,-787.3026"/>
</g>
<!-- delegate&#45;fast.js -->
<g id="node12" class="node">
<title>delegate&#45;fast.js</title>
<ellipse fill="none" stroke="#242424" stroke-width="4" cx="446.607" cy="-445.1069" rx="83.5954" ry="83.5954"/>
<text text-anchor="middle" x="446.607" y="-442.7069" font-family="Fira Code" font-size="12.00" fill="#242424">delegate&#45;fast.js</text>
</g>
<!-- reduce.js&#45;&gt;delegate&#45;fast.js -->
<g id="edge68" class="edge">
<title>reduce.js&#45;&gt;delegate&#45;fast.js</title>
<path fill="none" stroke="#242424" d="M1590.8835,-958.5607C1622.4686,-901.8424 1672.5483,-811.5612 1673.607,-807.4382 1694.4857,-726.126 1730.8688,-679.9404 1673.607,-618.5507 1587.4549,-526.188 654.3443,-592.3559 539.607,-539.5507 527.6966,-534.0692 516.4811,-526.3494 506.2412,-517.6592"/>
<polygon fill="#242424" stroke="#242424" points="508.3971,-514.8921 498.6055,-510.8455 503.7365,-520.115 508.3971,-514.8921"/>
</g>
<!-- ✪fast.js/reduce.js -->
<g id="node37" class="node">
<title>✪fast.js/reduce.js</title>
<ellipse fill="none" stroke="#0c821d" stroke-width="4" cx="1570.607" cy="-712.9945" rx="94.3876" ry="94.3876"/>
<text text-anchor="middle" x="1570.607" y="-710.5945" font-family="Fira Code" font-size="12.00" fill="#0c821d">✪fast.js/reduce.js</text>
</g>
<!-- reduce.js&#45;&gt;✪fast.js/reduce.js -->
<g id="edge67" class="edge">
<title>reduce.js&#45;&gt;✪fast.js/reduce.js</title>
<path fill="none" stroke="#242424" d="M1566.4951,-952.2068C1567.1343,-915.0212 1568.0185,-863.5788 1568.8033,-817.9237"/>
<polygon fill="#242424" stroke="#242424" points="1572.307,-817.7317 1568.9795,-807.673 1565.3081,-817.6114 1572.307,-817.7317"/>
</g>
<!-- types.js&#45;&gt;✪katsu&#45;curry/katsu&#45;curry.js -->
<g id="edge74" class="edge">
<title>types.js&#45;&gt;✪katsu&#45;curry/katsu&#45;curry.js</title>
<path fill="none" stroke="#242424" d="M1370.5289,-956.8284C1365.3169,-826.5248 1354.6116,-463.1522 1391.607,-350.6631 1403.5829,-314.2488 1423.873,-278.48 1445.6883,-246.8938"/>
<polygon fill="#242424" stroke="#242424" points="1448.681,-248.7226 1451.5684,-238.5288 1442.9543,-244.697 1448.681,-248.7226"/>
</g>
<!-- array.js -->
<g id="node7" class="node">
<title>array.js</title>
<ellipse fill="none" stroke="#242424" stroke-width="4" cx="727.607" cy="-1003.8752" rx="47.0167" ry="47.0167"/>
<text text-anchor="middle" x="727.607" y="-1001.4753" font-family="Fira Code" font-size="12.00" fill="#242424">array.js</text>
</g>
<!-- array.js&#45;&gt;✪katsu&#45;curry/katsu&#45;curry.js -->
<g id="edge6" class="edge">
<title>array.js&#45;&gt;✪katsu&#45;curry/katsu&#45;curry.js</title>
<path fill="none" stroke="#242424" d="M741.931,-959.1016C754.0287,-919.5939 770.8917,-860.2431 780.607,-807.4382 799.067,-707.1033 761.7115,-429.3807 826.607,-350.6631 899.1098,-262.7178 1209.7219,-194.1095 1396.5511,-159.8496"/>
<polygon fill="#242424" stroke="#242424" points="1397.2485,-163.2802 1406.4587,-158.0437 1395.9932,-156.3937 1397.2485,-163.2802"/>
</g>
<!-- ✪entrust/entrust.js -->
<g id="node8" class="node">
<title>✪entrust/entrust.js</title>
<ellipse fill="none" stroke="#0c821d" stroke-width="4" cx="293.607" cy="-135.8316" rx="99.0849" ry="99.0849"/>
<text text-anchor="middle" x="293.607" y="-133.4316" font-family="Fira Code" font-size="12.00" fill="#0c821d">✪entrust/entrust.js</text>
</g>
<!-- array.js&#45;&gt;✪entrust/entrust.js -->
<g id="edge5" class="edge">
<title>array.js&#45;&gt;✪entrust/entrust.js</title>
<path fill="none" stroke="#242424" d="M735.3807,-957.466C756.4886,-825.5142 809.1647,-451.2429 745.607,-350.6631 670.5556,-231.8946 509.9777,-177.4526 401.8625,-153.4598"/>
<polygon fill="#242424" stroke="#242424" points="402.4089,-149.997 391.8945,-151.3007 400.927,-156.8384 402.4089,-149.997"/>
</g>
<!-- filter.js -->
<g id="node9" class="node">
<title>filter.js</title>
<ellipse fill="none" stroke="#242424" stroke-width="4" cx="652.607" cy="-712.9945" rx="51.7142" ry="51.7142"/>
<text text-anchor="middle" x="652.607" y="-710.5945" font-family="Fira Code" font-size="12.00" fill="#242424">filter.js</text>
</g>
<!-- array.js&#45;&gt;filter.js -->
<g id="edge7" class="edge">
<title>array.js&#45;&gt;filter.js</title>
<path fill="none" stroke="#242424" d="M715.8057,-958.1051C702.9514,-908.2507 682.3347,-828.2907 668.1653,-773.3359"/>
<polygon fill="#242424" stroke="#242424" points="671.4838,-772.188 665.5979,-763.3785 664.7055,-773.9357 671.4838,-772.188"/>
</g>
<!-- filter.js&#45;&gt;delegate&#45;fast.js -->
<g id="edge15" class="edge">
<title>filter.js&#45;&gt;delegate&#45;fast.js</title>
<path fill="none" stroke="#242424" d="M621.0958,-672.0165C590.0272,-631.6141 541.835,-568.9438 503.963,-519.6941"/>
<polygon fill="#242424" stroke="#242424" points="506.6091,-517.3935 497.7387,-511.5999 501.0601,-521.6606 506.6091,-517.3935"/>
</g>
<!-- ✪fast.js/filter.js -->
<g id="node15" class="node">
<title>✪fast.js/filter.js</title>
<ellipse fill="none" stroke="#0c821d" stroke-width="4" cx="642.607" cy="-445.1069" rx="94.3876" ry="94.3876"/>
<text text-anchor="middle" x="642.607" y="-442.7069" font-family="Fira Code" font-size="12.00" fill="#0c821d">✪fast.js/filter.js</text>
</g>
<!-- filter.js&#45;&gt;✪fast.js/filter.js -->
<g id="edge14" class="edge">
<title>filter.js&#45;&gt;✪fast.js/filter.js</title>
<path fill="none" stroke="#242424" d="M650.6789,-661.343C649.4988,-629.7307 647.946,-588.1335 646.5178,-549.8744"/>
<polygon fill="#242424" stroke="#242424" points="650.009,-549.5696 646.1383,-539.7071 643.0139,-549.8308 650.009,-549.5696"/>
</g>
<!-- chain.js -->
<g id="node10" class="node">
<title>chain.js</title>
<ellipse fill="none" stroke="#242424" stroke-width="4" cx="511.607" cy="-1340.7424" rx="47.0167" ry="47.0167"/>
<text text-anchor="middle" x="511.607" y="-1338.3424" font-family="Fira Code" font-size="12.00" fill="#242424">chain.js</text>
</g>
<!-- ✪flatmap&#45;fast/index.js -->
<g id="node11" class="node">
<title>✪flatmap&#45;fast/index.js</title>
<ellipse fill="none" stroke="#0c821d" stroke-width="4" cx="511.607" cy="-1003.8752" rx="112.6769" ry="112.6769"/>
<text text-anchor="middle" x="511.607" y="-1001.4753" font-family="Fira Code" font-size="12.00" fill="#0c821d">✪flatmap&#45;fast/index.js</text>
</g>
<!-- chain.js&#45;&gt;✪flatmap&#45;fast/index.js -->
<g id="edge8" class="edge">
<title>chain.js&#45;&gt;✪flatmap&#45;fast/index.js</title>
<path fill="none" stroke="#242424" d="M511.607,-1293.5478C511.607,-1250.5013 511.607,-1184.98 511.607,-1127.1346"/>
<polygon fill="#242424" stroke="#242424" points="515.1071,-1126.8047 511.607,-1116.8047 508.1071,-1126.8048 515.1071,-1126.8047"/>
</g>
<!-- chain.js&#45;&gt;delegate&#45;fast.js -->
<g id="edge9" class="edge">
<title>chain.js&#45;&gt;delegate&#45;fast.js</title>
<path fill="none" stroke="#242424" d="M482.889,-1303.2843C452.8467,-1261.5311 407.6041,-1190.7185 389.607,-1121.3122 336.5776,-916.8036 385.8124,-666.9972 420.0607,-535.7078"/>
<polygon fill="#242424" stroke="#242424" points="423.5366,-536.253 422.7048,-525.6909 416.7684,-534.4664 423.5366,-536.253"/>
</g>
<!-- delegate&#45;fast.js&#45;&gt;✪katsu&#45;curry/katsu&#45;curry.js -->
<g id="edge12" class="edge">
<title>delegate&#45;fast.js&#45;&gt;✪katsu&#45;curry/katsu&#45;curry.js</title>
<path fill="none" stroke="#242424" d="M500.1898,-380.2662C512.1372,-368.9927 525.4882,-358.4176 539.607,-350.6631 685.7044,-270.4214 1155.0272,-192.4429 1395.5396,-156.4821"/>
<polygon fill="#242424" stroke="#242424" points="1396.3855,-159.8947 1405.7602,-154.9586 1395.3534,-152.9712 1396.3855,-159.8947"/>
</g>
<!-- delegate&#45;fast.js&#45;&gt;✪entrust/entrust.js -->
<g id="edge11" class="edge">
<title>delegate&#45;fast.js&#45;&gt;✪entrust/entrust.js</title>
<path fill="none" stroke="#242424" d="M409.3746,-369.8451C389.1002,-328.8622 363.7772,-277.6742 341.9891,-233.6316"/>
<polygon fill="#242424" stroke="#242424" points="345.1104,-232.0475 337.5391,-224.6363 338.8362,-235.1514 345.1104,-232.0475"/>
</g>
<!-- choice.js -->
<g id="node13" class="node">
<title>choice.js</title>
<ellipse fill="none" stroke="#242424" stroke-width="4" cx="2540.607" cy="-712.9945" rx="51.7142" ry="51.7142"/>
<text text-anchor="middle" x="2540.607" y="-710.5945" font-family="Fira Code" font-size="12.00" fill="#242424">choice.js</text>
</g>
<!-- choice.js&#45;&gt;✪katsu&#45;curry/katsu&#45;curry.js -->
<g id="edge10" class="edge">
<title>choice.js&#45;&gt;✪katsu&#45;curry/katsu&#45;curry.js</title>
<path fill="none" stroke="#242424" d="M2532.811,-661.88C2517.7803,-564.6955 2485.3302,-361.8903 2474.607,-350.6631 2367.4724,-238.4944 1920.9673,-175.7588 1686.2522,-149.9491"/>
<polygon fill="#242424" stroke="#242424" points="1686.5916,-146.4655 1676.2709,-148.8598 1685.8321,-153.4242 1686.5916,-146.4655"/>
</g>
<!-- either.js -->
<g id="node14" class="node">
<title>either.js</title>
<ellipse fill="none" stroke="#242424" stroke-width="4" cx="51.607" cy="-445.1069" rx="51.7142" ry="51.7142"/>
<text text-anchor="middle" x="51.607" y="-442.7069" font-family="Fira Code" font-size="12.00" fill="#242424">either.js</text>
</g>
<!-- either.js&#45;&gt;✪entrust/entrust.js -->
<g id="edge13" class="edge">
<title>either.js&#45;&gt;✪entrust/entrust.js</title>
<path fill="none" stroke="#242424" d="M78.1694,-400.5442C88.186,-384.4992 99.9782,-366.4653 111.607,-350.6631 145.2876,-304.8947 185.9093,-256.3933 220.2229,-217.0788"/>
<polygon fill="#242424" stroke="#242424" points="223.043,-219.171 226.9976,-209.3419 217.7766,-214.5596 223.043,-219.171"/>
</g>
<!-- flip.js -->
<g id="node16" class="node">
<title>flip.js</title>
<ellipse fill="none" stroke="#242424" stroke-width="4" cx="1809.607" cy="-1003.8752" rx="42.3196" ry="42.3196"/>
<text text-anchor="middle" x="1809.607" y="-1001.4753" font-family="Fira Code" font-size="12.00" fill="#242424">flip.js</text>
</g>
<!-- flip.js&#45;&gt;✪katsu&#45;curry/katsu&#45;curry.js -->
<g id="edge16" class="edge">
<title>flip.js&#45;&gt;✪katsu&#45;curry/katsu&#45;curry.js</title>
<path fill="none" stroke="#242424" d="M1821.8568,-962.998C1830.3983,-939.0241 1843.5252,-909.0942 1861.607,-886.4382 1898.2582,-840.5151 1941.2511,-859.9512 1967.607,-807.4382 2005.2641,-732.4079 1993.0931,-698.5386 1967.607,-618.5507 1914.2957,-451.2335 1765.8591,-307.6368 1658.9729,-221.5639"/>
<polygon fill="#242424" stroke="#242424" points="1661.0243,-218.7229 1651.0286,-215.2105 1656.6523,-224.1897 1661.0243,-218.7229"/>
</g>
<!-- future.js -->
<g id="node17" class="node">
<title>future.js</title>
<ellipse fill="none" stroke="#242424" stroke-width="4" cx="293.607" cy="-445.1069" rx="51.7142" ry="51.7142"/>
<text text-anchor="middle" x="293.607" y="-442.7069" font-family="Fira Code" font-size="12.00" fill="#242424">future.js</text>
</g>
<!-- future.js&#45;&gt;✪entrust/entrust.js -->
<g id="edge17" class="edge">
<title>future.js&#45;&gt;✪entrust/entrust.js</title>
<path fill="none" stroke="#242424" d="M293.607,-393.3412C293.607,-353.0417 293.607,-295.6832 293.607,-245.3255"/>
<polygon fill="#242424" stroke="#242424" points="297.1071,-245.0251 293.607,-235.0251 290.1071,-245.0251 297.1071,-245.0251"/>
</g>
<!-- index.js -->
<g id="node18" class="node">
<title>index.js</title>
<ellipse fill="none" stroke="#242424" stroke-width="4" cx="1411.607" cy="-1607.1809" rx="47.0167" ry="47.0167"/>
<text text-anchor="middle" x="1411.607" y="-1604.781" font-family="Fira Code" font-size="12.00" fill="#242424">index.js</text>
</g>
<!-- index.js&#45;&gt;../package.json -->
<g id="edge20" class="edge">
<title>index.js&#45;&gt;../package.json</title>
<path fill="none" stroke="#242424" d="M1364.5793,-1604.4705C1158.3712,-1592.2707 340.0436,-1540.4589 242.607,-1481.1726 219.4591,-1467.0881 200.884,-1444.801 186.6041,-1422.0948"/>
<polygon fill="#242424" stroke="#242424" points="189.5095,-1420.1353 181.3409,-1413.3881 183.5189,-1423.7566 189.5095,-1420.1353"/>
</g>
<!-- index.js&#45;&gt;ap.js -->
<g id="edge21" class="edge">
<title>index.js&#45;&gt;ap.js</title>
<path fill="none" stroke="#242424" d="M1436.644,-1567.3337C1451.2528,-1543.0328 1469.3548,-1511.0047 1482.607,-1481.1726 1496.9385,-1448.9108 1509.4176,-1410.8568 1517.9083,-1382.5056"/>
<polygon fill="#242424" stroke="#242424" points="1521.2672,-1383.4893 1520.7418,-1372.9075 1514.5536,-1381.5074 1521.2672,-1383.4893"/>
</g>
<!-- index.js&#45;&gt;✪katsu&#45;curry/katsu&#45;curry.js -->
<g id="edge18" class="edge">
<title>index.js&#45;&gt;✪katsu&#45;curry/katsu&#45;curry.js</title>
<path fill="none" stroke="#242424" d="M1458.673,-1604.4398C1612.923,-1594.7767 2100.9973,-1558.6238 2235.607,-1481.1726 2413.6476,-1378.7322 2457.2698,-1315.0195 2525.607,-1121.3122 2560.3359,-1022.8701 2562.9453,-983.9205 2525.607,-886.4382 2496.9916,-811.7298 2109.6683,-397.2166 2044.607,-350.6631 1932.8192,-270.6753 1786.6331,-212.535 1680.5078,-177.0656"/>
<polygon fill="#242424" stroke="#242424" points="1681.6038,-173.7416 1671.0104,-173.916 1679.4004,-180.3858 1681.6038,-173.7416"/>
</g>
<!-- index.js&#45;&gt;map.js -->
<g id="edge31" class="edge">
<title>index.js&#45;&gt;map.js</title>
<path fill="none" stroke="#242424" d="M1458.4868,-1601.3808C1523.737,-1590.5421 1639.9496,-1560.599 1693.607,-1481.1726 1740.103,-1412.3468 1724.852,-1158.9595 1716.02,-1052.0089"/>
<polygon fill="#242424" stroke="#242424" points="1719.4892,-1051.4947 1715.1616,-1041.824 1712.5139,-1052.0827 1719.4892,-1051.4947"/>
</g>
<!-- index.js&#45;&gt;reduce.js -->
<g id="edge41" class="edge">
<title>index.js&#45;&gt;reduce.js</title>
<path fill="none" stroke="#242424" d="M1365.4944,-1596.7094C1281.64,-1576.6316 1109.6731,-1530.3311 1075.607,-1481.1726 1040.0572,-1429.873 1036.5897,-1249.0266 1075.607,-1200.3122 1176.111,-1074.8297 1284.8653,-1193.321 1428.607,-1121.3122 1464.2968,-1103.433 1498.3993,-1074.2577 1523.6526,-1049.4608"/>
<polygon fill="#242424" stroke="#242424" points="1526.2609,-1051.8025 1530.8654,-1042.2605 1521.3154,-1046.8484 1526.2609,-1051.8025"/>
</g>
<!-- index.js&#45;&gt;types.js -->
<g id="edge46" class="edge">
<title>index.js&#45;&gt;types.js</title>
<path fill="none" stroke="#242424" d="M1413.4519,-1560.0668C1415.8808,-1484.1426 1418.5597,-1330.098 1406.607,-1200.3122 1402.2218,-1152.6975 1392.6676,-1099.2648 1384.8006,-1060.1609"/>
<polygon fill="#242424" stroke="#242424" points="1388.1635,-1059.1349 1382.7368,-1050.0353 1381.3045,-1060.5329 1388.1635,-1059.1349"/>
</g>
<!-- index.js&#45;&gt;array.js -->
<g id="edge22" class="edge">
<title>index.js&#45;&gt;array.js</title>
<path fill="none" stroke="#242424" d="M1364.6069,-1606.0595C1222.9969,-1601.5955 805.0983,-1580.1187 722.607,-1481.1726 670.6982,-1418.9094 701.0499,-1173.05 718.2476,-1060.5775"/>
<polygon fill="#242424" stroke="#242424" points="721.7453,-1060.8613 719.8169,-1050.4435 714.8277,-1059.79 721.7453,-1060.8613"/>
</g>
<!-- index.js&#45;&gt;filter.js -->
<g id="edge26" class="edge">
<title>index.js&#45;&gt;filter.js</title>
<path fill="none" stroke="#242424" d="M1364.5007,-1606.2678C1218.8635,-1602.379 780.2706,-1582.325 690.607,-1481.1726 644.2505,-1428.8764 648.2994,-948.3989 651.3145,-775.0178"/>
<polygon fill="#242424" stroke="#242424" points="654.8181,-774.8438 651.4976,-764.7828 647.8192,-774.7185 654.8181,-774.8438"/>
</g>
<!-- index.js&#45;&gt;chain.js -->
<g id="edge23" class="edge">
<title>index.js&#45;&gt;chain.js</title>
<path fill="none" stroke="#242424" d="M1364.531,-1603.5918C1216.9905,-1591.7159 765.8634,-1550.4592 638.607,-1481.1726 598.8546,-1459.5289 565.1237,-1420.5409 542.4373,-1389.1283"/>
<polygon fill="#242424" stroke="#242424" points="545.2548,-1387.0507 536.6236,-1380.9063 539.5393,-1391.0921 545.2548,-1387.0507"/>
</g>
<!-- index.js&#45;&gt;choice.js -->
<g id="edge24" class="edge">
<title>index.js&#45;&gt;choice.js</title>
<path fill="none" stroke="#242424" d="M1458.7601,-1605.6345C1665.3836,-1598.383 2483.904,-1564.5319 2558.607,-1481.1726 2651.0427,-1378.0258 2581.6783,-936.7886 2552.1813,-773.8052"/>
<polygon fill="#242424" stroke="#242424" points="2555.6196,-773.1497 2550.3829,-763.9395 2548.7331,-774.4051 2555.6196,-773.1497"/>
</g>
<!-- index.js&#45;&gt;either.js -->
<g id="edge25" class="edge">
<title>index.js&#45;&gt;either.js</title>
<path fill="none" stroke="#242424" d="M1364.4682,-1605.1516C1161.6039,-1595.9879 369.5815,-1555.644 289.607,-1481.1726 196.7014,-1394.6601 264.3534,-1324.4109 237.607,-1200.3122 181.5164,-940.0619 101.4982,-632.7338 67.6784,-505.2087"/>
<polygon fill="#242424" stroke="#242424" points="70.9828,-504.0151 65.0338,-495.2482 64.2172,-505.8115 70.9828,-504.0151"/>
</g>
<!-- index.js&#45;&gt;flip.js -->
<g id="edge27" class="edge">
<title>index.js&#45;&gt;flip.js</title>
<path fill="none" stroke="#242424" d="M1458.6026,-1602.9082C1574.2804,-1591.3216 1867.6226,-1555.089 1925.607,-1481.1726 1964.1292,-1432.0659 1946.4471,-1259.1435 1925.607,-1200.3122 1910.5188,-1157.7185 1885.1819,-1159.8622 1861.607,-1121.3122 1848.5347,-1099.9364 1836.9194,-1074.699 1828.0007,-1053.1087"/>
<polygon fill="#242424" stroke="#242424" points="1831.2228,-1051.7405 1824.2224,-1043.7878 1824.7354,-1054.3702 1831.2228,-1051.7405"/>
</g>
<!-- index.js&#45;&gt;future.js -->
<g id="edge28" class="edge">
<title>index.js&#45;&gt;future.js</title>
<path fill="none" stroke="#242424" d="M1364.6107,-1604.0478C1181.7755,-1591.4512 524.5958,-1542.2287 455.607,-1481.1726 331.9028,-1371.6926 391.7415,-1283.9153 362.607,-1121.3122 351.9195,-1061.6643 313.9611,-662.4014 299.3747,-506.9144"/>
<polygon fill="#242424" stroke="#242424" points="302.825,-506.2194 298.4068,-496.5897 295.8555,-506.8728 302.825,-506.2194"/>
</g>
<!-- ✪katsu&#45;curry/utils/length.js -->
<g id="node19" class="node">
<title>✪katsu&#45;curry/utils/length.js</title>
<ellipse fill="none" stroke="#0c821d" stroke-width="4" cx="1224.607" cy="-1340.7424" rx="140.3604" ry="140.3604"/>
<text text-anchor="middle" x="1224.607" y="-1338.3424" font-family="Fira Code" font-size="12.00" fill="#0c821d">✪katsu&#45;curry/utils/length.js</text>
</g>
<!-- index.js&#45;&gt;✪katsu&#45;curry/utils/length.js -->
<g id="edge19" class="edge">
<title>index.js&#45;&gt;✪katsu&#45;curry/utils/length.js</title>
<path fill="none" stroke="#242424" d="M1384.4156,-1568.4385C1365.0627,-1540.8645 1337.9013,-1502.1648 1311.4535,-1464.4818"/>
<polygon fill="#242424" stroke="#242424" points="1314.0783,-1462.1291 1305.4686,-1455.9545 1308.3486,-1466.1504 1314.0783,-1462.1291"/>
</g>
<!-- invert.js -->
<g id="node20" class="node">
<title>invert.js</title>
<ellipse fill="none" stroke="#242424" stroke-width="4" cx="2578.607" cy="-445.1069" rx="51.7142" ry="51.7142"/>
<text text-anchor="middle" x="2578.607" y="-442.7069" font-family="Fira Code" font-size="12.00" fill="#242424">invert.js</text>
</g>
<!-- index.js&#45;&gt;invert.js -->
<g id="edge29" class="edge">
<title>index.js&#45;&gt;invert.js</title>
<path fill="none" stroke="#242424" d="M1458.8358,-1605.7852C1669.6606,-1599.0808 2517.8214,-1566.905 2595.607,-1481.1726 2660.0127,-1410.1869 2607.9207,-714.1917 2601.607,-618.5507 2599.1318,-581.057 2593.6783,-539.2998 2588.7027,-506.154"/>
<polygon fill="#242424" stroke="#242424" points="2592.146,-505.5159 2587.1778,-496.1582 2585.226,-506.5717 2592.146,-505.5159"/>
</g>
<!-- iterate.js -->
<g id="node21" class="node">
<title>iterate.js</title>
<ellipse fill="none" stroke="#242424" stroke-width="4" cx="924.607" cy="-712.9945" rx="56.412" ry="56.412"/>
<text text-anchor="middle" x="924.607" y="-710.5945" font-family="Fira Code" font-size="12.00" fill="#242424">iterate.js</text>
</g>
<!-- index.js&#45;&gt;iterate.js -->
<g id="edge30" class="edge">
<title>index.js&#45;&gt;iterate.js</title>
<path fill="none" stroke="#242424" d="M1364.1727,-1605.5718C1226.7776,-1599.8184 833.3504,-1575.2707 755.607,-1481.1726 715.8539,-1433.0568 745.0288,-1261.8227 755.607,-1200.3122 761.9205,-1163.5999 771.6495,-1156.5921 783.607,-1121.3122 818.8257,-1017.4011 823.4573,-990.0292 859.607,-886.4382 872.577,-849.2712 888.0059,-807.9895 900.5764,-775.0271"/>
<polygon fill="#242424" stroke="#242424" points="903.9088,-776.1114 904.2103,-765.5209 897.3703,-773.6119 903.9088,-776.1114"/>
</g>
<!-- math.js -->
<g id="node22" class="node">
<title>math.js</title>
<ellipse fill="none" stroke="#242424" stroke-width="4" cx="2728.607" cy="-1003.8752" rx="42.3196" ry="42.3196"/>
<text text-anchor="middle" x="2728.607" y="-1001.4753" font-family="Fira Code" font-size="12.00" fill="#242424">math.js</text>
</g>
<!-- index.js&#45;&gt;math.js -->
<g id="edge32" class="edge">
<title>index.js&#45;&gt;math.js</title>
<path fill="none" stroke="#242424" d="M1458.8629,-1606.3815C1685.4645,-1602.0705 2653.4716,-1578.0528 2741.607,-1481.1726 2850.1422,-1361.8683 2786.1878,-1148.2046 2749.2436,-1052.5293"/>
<polygon fill="#242424" stroke="#242424" points="2752.4533,-1051.1273 2745.5409,-1043.098 2745.9374,-1053.6854 2752.4533,-1051.1273"/>
</g>
<!-- object.js -->
<g id="node23" class="node">
<title>object.js</title>
<ellipse fill="none" stroke="#242424" stroke-width="4" cx="1632.607" cy="-1340.7424" rx="51.7142" ry="51.7142"/>
<text text-anchor="middle" x="1632.607" y="-1338.3424" font-family="Fira Code" font-size="12.00" fill="#242424">object.js</text>
</g>
<!-- index.js&#45;&gt;object.js -->
<g id="edge33" class="edge">
<title>index.js&#45;&gt;object.js</title>
<path fill="none" stroke="#242424" d="M1452.4274,-1583.2074C1487.8783,-1560.6584 1538.5783,-1524.0172 1571.607,-1481.1726 1590.18,-1457.0798 1604.338,-1426.4627 1614.3165,-1399.9698"/>
<polygon fill="#242424" stroke="#242424" points="1617.6628,-1401.0095 1617.8042,-1390.4156 1611.0872,-1398.6091 1617.6628,-1401.0095"/>
</g>
<!-- path.js -->
<g id="node24" class="node">
<title>path.js</title>
<ellipse fill="none" stroke="#242424" stroke-width="4" cx="2690.607" cy="-1340.7424" rx="42.3196" ry="42.3196"/>
<text text-anchor="middle" x="2690.607" y="-1338.3424" font-family="Fira Code" font-size="12.00" fill="#242424">path.js</text>
</g>
<!-- index.js&#45;&gt;path.js -->
<g id="edge34" class="edge">
<title>index.js&#45;&gt;path.js</title>
<path fill="none" stroke="#242424" d="M1458.6142,-1605.1914C1671.5064,-1595.8033 2539.0736,-1553.3475 2634.607,-1481.1726 2662.1716,-1460.3477 2676.1951,-1423.8148 2683.3152,-1393.2312"/>
<polygon fill="#242424" stroke="#242424" points="2686.809,-1393.6293 2685.4747,-1383.1188 2679.9634,-1392.1673 2686.809,-1393.6293"/>
</g>
<!-- random&#45;floor.js -->
<g id="node25" class="node">
<title>random&#45;floor.js</title>
<ellipse fill="none" stroke="#242424" stroke-width="4" cx="1115.607" cy="-712.9945" rx="79.3981" ry="79.3981"/>
<text text-anchor="middle" x="1115.607" y="-710.5945" font-family="Fira Code" font-size="12.00" fill="#242424">random&#45;floor.js</text>
</g>
<!-- index.js&#45;&gt;random&#45;floor.js -->
<g id="edge35" class="edge">
<title>index.js&#45;&gt;random&#45;floor.js</title>
<path fill="none" stroke="#242424" d="M1365.0117,-1599.9183C1266.9338,-1583.5804 1044.5882,-1540.6587 1000.607,-1481.1726 963.5017,-1430.9866 990.3762,-1261.8814 1000.607,-1200.3122 1006.6892,-1163.709 1018.6118,-1157.3105 1027.607,-1121.3122 1053.2422,-1018.7207 1042.475,-989.623 1065.607,-886.4382 1072.0764,-857.5799 1080.571,-826.4277 1088.7183,-798.5946"/>
<polygon fill="#242424" stroke="#242424" points="1092.1065,-799.4792 1091.5818,-788.8974 1085.393,-797.4968 1092.1065,-799.4792"/>
</g>
<!-- random&#45;shuffle.js -->
<g id="node26" class="node">
<title>random&#45;shuffle.js</title>
<ellipse fill="none" stroke="#0c821d" stroke-width="4" cx="1828.607" cy="-1340.7424" rx="88.2923" ry="88.2923"/>
<text text-anchor="middle" x="1828.607" y="-1338.3424" font-family="Fira Code" font-size="12.00" fill="#0c821d">random&#45;shuffle.js</text>
</g>
<!-- index.js&#45;&gt;random&#45;shuffle.js -->
<g id="edge36" class="edge">
<title>index.js&#45;&gt;random&#45;shuffle.js</title>
<path fill="none" stroke="#242424" d="M1457.6525,-1597.3531C1522.8953,-1581.6439 1643.534,-1545.8552 1726.607,-1481.1726 1746.1452,-1465.9597 1763.6503,-1446.043 1778.4141,-1426.01"/>
<polygon fill="#242424" stroke="#242424" points="1781.3668,-1427.8988 1784.3586,-1417.7351 1775.6816,-1423.8147 1781.3668,-1427.8988"/>
</g>
<!-- random&#45;take.js -->
<g id="node27" class="node">
<title>random&#45;take.js</title>
<ellipse fill="none" stroke="#242424" stroke-width="4" cx="943.607" cy="-1003.8752" rx="74.7005" ry="74.7005"/>
<text text-anchor="middle" x="943.607" y="-1001.4753" font-family="Fira Code" font-size="12.00" fill="#242424">random&#45;take.js</text>
</g>
<!-- index.js&#45;&gt;random&#45;take.js -->
<g id="edge37" class="edge">
<title>index.js&#45;&gt;random&#45;take.js</title>
<path fill="none" stroke="#242424" d="M1364.9912,-1600.8672C1261.288,-1585.7916 1016.6882,-1544.1914 966.607,-1481.1726 920.0273,-1422.5599 927.6956,-1209.3418 936.272,-1088.6584"/>
<polygon fill="#242424" stroke="#242424" points="939.7872,-1088.5759 937.0228,-1078.3481 932.8056,-1088.0674 939.7872,-1088.5759"/>
</g>
<!-- random&#45;word.js -->
<g id="node28" class="node">
<title>random&#45;word.js</title>
<ellipse fill="none" stroke="#242424" stroke-width="4" cx="839.607" cy="-1340.7424" rx="74.7005" ry="74.7005"/>
<text text-anchor="middle" x="839.607" y="-1338.3424" font-family="Fira Code" font-size="12.00" fill="#242424">random&#45;word.js</text>
</g>
<!-- index.js&#45;&gt;random&#45;word.js -->
<g id="edge38" class="edge">
<title>index.js&#45;&gt;random&#45;word.js</title>
<path fill="none" stroke="#242424" d="M1364.844,-1599.4789C1257.8718,-1581.1583 999.1278,-1532.6507 928.607,-1481.1726 906.3839,-1464.9505 888.371,-1441.3389 874.514,-1418.09"/>
<polygon fill="#242424" stroke="#242424" points="877.4275,-1416.1356 869.4065,-1409.2135 871.3602,-1419.6267 877.4275,-1416.1356"/>
</g>
<!-- random.js -->
<g id="node29" class="node">
<title>random.js</title>
<ellipse fill="none" stroke="#0c821d" stroke-width="4" cx="2062.607" cy="-1340.7424" rx="51.7142" ry="51.7142"/>
<text text-anchor="middle" x="2062.607" y="-1338.3424" font-family="Fira Code" font-size="12.00" fill="#0c821d">random.js</text>
</g>
<!-- index.js&#45;&gt;random.js -->
<g id="edge39" class="edge">
<title>index.js&#45;&gt;random.js</title>
<path fill="none" stroke="#242424" d="M1458.449,-1602.4544C1581.9016,-1589.1797 1912.4446,-1548.0979 1996.607,-1481.1726 2021.7865,-1461.15 2037.8364,-1429.2492 2047.7951,-1400.9093"/>
<polygon fill="#242424" stroke="#242424" points="2051.2363,-1401.6524 2051.0686,-1391.0589 2044.5935,-1399.4448 2051.2363,-1401.6524"/>
</g>
<!-- range.js -->
<g id="node30" class="node">
<title>range.js</title>
<ellipse fill="none" stroke="#242424" stroke-width="4" cx="1297.607" cy="-712.9945" rx="47.0167" ry="47.0167"/>
<text text-anchor="middle" x="1297.607" y="-710.5945" font-family="Fira Code" font-size="12.00" fill="#242424">range.js</text>
</g>
<!-- index.js&#45;&gt;range.js -->
<g id="edge40" class="edge">
<title>index.js&#45;&gt;range.js</title>
<path fill="none" stroke="#242424" d="M1408.6142,-1560.189C1402.0517,-1460.3115 1385.9943,-1233.3145 1373.607,-1200.3122 1358.3923,-1159.7773 1330.8726,-1162.1908 1316.607,-1121.3122 1274.8439,-1001.6385 1282.108,-850.1949 1290.3165,-769.5682"/>
<polygon fill="#242424" stroke="#242424" points="1293.7973,-769.9329 1291.3711,-759.6196 1286.8364,-769.1949 1293.7973,-769.9329"/>
</g>
<!-- reject.js -->
<g id="node31" class="node">
<title>reject.js</title>
<ellipse fill="none" stroke="#242424" stroke-width="4" cx="1126.607" cy="-1003.8752" rx="51.7142" ry="51.7142"/>
<text text-anchor="middle" x="1126.607" y="-1001.4753" font-family="Fira Code" font-size="12.00" fill="#242424">reject.js</text>
</g>
<!-- index.js&#45;&gt;reject.js -->
<g id="edge42" class="edge">
<title>index.js&#45;&gt;reject.js</title>
<path fill="none" stroke="#242424" d="M1365.1798,-1598.1612C1275.2396,-1579.644 1082.7233,-1534.5602 1044.607,-1481.1726 951.8446,-1351.2452 1041.7955,-1151.4821 1094.4532,-1056.9529"/>
<polygon fill="#242424" stroke="#242424" points="1097.5602,-1058.5687 1099.4253,-1048.1393 1091.4634,-1055.1292 1097.5602,-1058.5687"/>
</g>
<!-- string.js -->
<g id="node32" class="node">
<title>string.js</title>
<ellipse fill="none" stroke="#242424" stroke-width="4" cx="172.607" cy="-445.1069" rx="51.7142" ry="51.7142"/>
<text text-anchor="middle" x="172.607" y="-442.7069" font-family="Fira Code" font-size="12.00" fill="#242424">string.js</text>
</g>
<!-- index.js&#45;&gt;string.js -->
<g id="edge43" class="edge">
<title>index.js&#45;&gt;string.js</title>
<path fill="none" stroke="#242424" d="M1364.3733,-1604.8766C1170.0139,-1594.9466 438.8812,-1553.0293 367.607,-1481.1726 231.761,-1344.2164 330.0301,-802.0719 270.607,-618.5507 262.6496,-593.9754 230.6126,-539.0273 205.3059,-497.5183"/>
<polygon fill="#242424" stroke="#242424" points="208.2247,-495.5825 200.019,-488.8805 202.2543,-499.2368 208.2247,-495.5825"/>
</g>
<!-- ternary.js -->
<g id="node33" class="node">
<title>ternary.js</title>
<ellipse fill="none" stroke="#242424" stroke-width="4" cx="1456.607" cy="-445.1069" rx="56.412" ry="56.412"/>
<text text-anchor="middle" x="1456.607" y="-442.7069" font-family="Fira Code" font-size="12.00" fill="#242424">ternary.js</text>
</g>
<!-- index.js&#45;&gt;ternary.js -->
<g id="edge44" class="edge">
<title>index.js&#45;&gt;ternary.js</title>
<path fill="none" stroke="#242424" d="M1417.2563,-1560.2757C1419.9024,-1536.5935 1422.8516,-1507.395 1424.607,-1481.1726 1427.8422,-1432.8423 1448.2754,-732.7823 1454.6858,-511.5799"/>
<polygon fill="#242424" stroke="#242424" points="1458.1892,-511.5102 1454.9803,-501.413 1451.1921,-511.3074 1458.1892,-511.5102"/>
</g>
<!-- triplet.js -->
<g id="node34" class="node">
<title>triplet.js</title>
<ellipse fill="none" stroke="#242424" stroke-width="4" cx="1926.607" cy="-1003.8752" rx="56.412" ry="56.412"/>
<text text-anchor="middle" x="1926.607" y="-1001.4753" font-family="Fira Code" font-size="12.00" fill="#242424">triplet.js</text>
</g>
<!-- index.js&#45;&gt;triplet.js -->
<g id="edge45" class="edge">
<title>index.js&#45;&gt;triplet.js</title>
<path fill="none" stroke="#242424" d="M1458.6549,-1603.4748C1578.3207,-1592.9752 1889.1707,-1558.6281 1950.607,-1481.1726 1999.7175,-1419.2567 1962.4476,-1185.1868 1940.1611,-1069.4629"/>
<polygon fill="#242424" stroke="#242424" points="1943.5324,-1068.4638 1938.187,-1059.3163 1936.6613,-1069.8007 1943.5324,-1068.4638"/>
</g>
<!-- which.js -->
<g id="node35" class="node">
<title>which.js</title>
<ellipse fill="none" stroke="#242424" stroke-width="4" cx="2179.607" cy="-1340.7424" rx="47.0167" ry="47.0167"/>
<text text-anchor="middle" x="2179.607" y="-1338.3424" font-family="Fira Code" font-size="12.00" fill="#242424">which.js</text>
</g>
<!-- index.js&#45;&gt;which.js -->
<g id="edge47" class="edge">
<title>index.js&#45;&gt;which.js</title>
<path fill="none" stroke="#242424" d="M1458.5817,-1604.7235C1600.3467,-1596.4282 2020.4739,-1565.1291 2123.607,-1481.1726 2149.0272,-1460.479 2162.9727,-1426.5566 2170.5894,-1397.2366"/>
<polygon fill="#242424" stroke="#242424" points="2173.9966,-1398.0372 2172.9373,-1387.4955 2167.1915,-1396.3969 2173.9966,-1398.0372"/>
</g>
<!-- invert.js&#45;&gt;✪katsu&#45;curry/katsu&#45;curry.js -->
<g id="edge48" class="edge">
<title>invert.js&#45;&gt;✪katsu&#45;curry/katsu&#45;curry.js</title>
<path fill="none" stroke="#242424" d="M2555.6433,-398.4557C2544.8513,-381.0073 2530.4018,-362.5569 2512.607,-350.6631 2378.395,-260.958 1922.4384,-187.7718 1685.7982,-154.7666"/>
<polygon fill="#242424" stroke="#242424" points="1686.125,-151.2784 1675.7385,-153.3693 1685.1619,-158.2119 1686.125,-151.2784"/>
</g>
<!-- iterate.js&#45;&gt;✪katsu&#45;curry/katsu&#45;curry.js -->
<g id="edge49" class="edge">
<title>iterate.js&#45;&gt;✪katsu&#45;curry/katsu&#45;curry.js</title>
<path fill="none" stroke="#242424" d="M919.8277,-656.6802C916.3633,-578.8864 921.8204,-438.2469 994.607,-350.6631 1094.3674,-230.6217 1270.3098,-177.3161 1395.4999,-153.863"/>
<polygon fill="#242424" stroke="#242424" points="1396.3501,-157.2656 1405.5566,-152.0225 1395.0899,-150.38 1396.3501,-157.2656"/>
</g>
<!-- math.js&#45;&gt;✪katsu&#45;curry/katsu&#45;curry.js -->
<g id="edge52" class="edge">
<title>math.js&#45;&gt;✪katsu&#45;curry/katsu&#45;curry.js</title>
<path fill="none" stroke="#242424" d="M2739.964,-962.9479C2768.7698,-849.3278 2831.6398,-526.8098 2672.607,-350.6631 2542.8418,-206.9336 1961.8976,-157.7287 1686.429,-142.2817"/>
<polygon fill="#242424" stroke="#242424" points="1686.5359,-138.7823 1676.3578,-141.7244 1686.1491,-145.7716 1686.5359,-138.7823"/>
</g>
<!-- object.js&#45;&gt;✪katsu&#45;curry/katsu&#45;curry.js -->
<g id="edge53" class="edge">
<title>object.js&#45;&gt;✪katsu&#45;curry/katsu&#45;curry.js</title>
<path fill="none" stroke="#242424" d="M1630.0053,-1288.956C1627.0897,-1203.5281 1626.9448,-1028.3954 1664.607,-886.4382 1674.5981,-848.7792 1693.9458,-845.4252 1702.607,-807.4382 1721.2689,-725.5888 1716.1387,-701.403 1702.607,-618.5507 1682.7844,-497.1805 1636.6653,-365.1687 1598.6841,-269.9234"/>
<polygon fill="#242424" stroke="#242424" points="1601.8888,-268.5113 1594.9181,-260.5325 1595.3917,-271.1168 1601.8888,-268.5113"/>
</g>
<!-- object.js&#45;&gt;map.js -->
<g id="edge54" class="edge">
<title>object.js&#45;&gt;map.js</title>
<path fill="none" stroke="#242424" d="M1644.4341,-1290.31C1659.6019,-1225.6322 1685.7101,-1114.3033 1700.5145,-1051.1752"/>
<polygon fill="#242424" stroke="#242424" points="1704.0023,-1051.6316 1702.878,-1041.0966 1697.1872,-1050.0334 1704.0023,-1051.6316"/>
</g>
<!-- object.js&#45;&gt;reduce.js -->
<g id="edge55" class="edge">
<title>object.js&#45;&gt;reduce.js</title>
<path fill="none" stroke="#242424" d="M1622.5038,-1289.9453C1610.4975,-1229.579 1590.4827,-1128.9473 1577.6741,-1064.5471"/>
<polygon fill="#242424" stroke="#242424" points="1581.0661,-1063.6592 1575.6826,-1054.5341 1574.2006,-1065.0247 1581.0661,-1063.6592"/>
</g>
<!-- path.js&#45;&gt;✪katsu&#45;curry/katsu&#45;curry.js -->
<g id="edge56" class="edge">
<title>path.js&#45;&gt;✪katsu&#45;curry/katsu&#45;curry.js</title>
<path fill="none" stroke="#242424" d="M2687.9659,-1298.2735C2685.2468,-1254.0768 2680.9472,-1182.8538 2677.607,-1121.3122 2675.2838,-1078.5094 2667.6623,-383.0727 2639.607,-350.6631 2517.0447,-209.0792 1956.58,-158.9281 1686.69,-142.7772"/>
<polygon fill="#242424" stroke="#242424" points="1686.6135,-139.2667 1676.4245,-142.1709 1686.2007,-146.2545 1686.6135,-139.2667"/>
</g>
<!-- path.js&#45;&gt;reduce.js -->
<g id="edge58" class="edge">
<title>path.js&#45;&gt;reduce.js</title>
<path fill="none" stroke="#242424" d="M2650.7176,-1326.0269C2572.277,-1297.6301 2391.9741,-1235.0199 2235.607,-1200.3122 1985.4989,-1144.7975 1888.955,-1245.0211 1664.607,-1121.3122 1637.3472,-1106.2808 1614.3627,-1080.5386 1597.4226,-1056.9794"/>
<polygon fill="#242424" stroke="#242424" points="1600.2787,-1054.9561 1591.6857,-1048.7584 1594.5382,-1058.962 1600.2787,-1054.9561"/>
</g>
<!-- path.js&#45;&gt;math.js -->
<g id="edge57" class="edge">
<title>path.js&#45;&gt;math.js</title>
<path fill="none" stroke="#242424" d="M2695.3812,-1298.4191C2702.3159,-1236.9436 2715.1664,-1123.0248 2722.6919,-1056.3119"/>
<polygon fill="#242424" stroke="#242424" points="2726.2092,-1056.3548 2723.8522,-1046.0255 2719.2533,-1055.5701 2726.2092,-1056.3548"/>
</g>
<!-- random&#45;floor.js&#45;&gt;✪katsu&#45;curry/katsu&#45;curry.js -->
<g id="edge59" class="edge">
<title>random&#45;floor.js&#45;&gt;✪katsu&#45;curry/katsu&#45;curry.js</title>
<path fill="none" stroke="#242424" d="M1119.4588,-633.5618C1126.8189,-555.0748 1148.0003,-434.8678 1208.607,-350.6631 1258.2161,-281.738 1337.3966,-229.2635 1405.989,-193.4342"/>
<polygon fill="#242424" stroke="#242424" points="1407.8738,-196.4004 1415.1603,-188.7089 1404.6677,-190.1778 1407.8738,-196.4004"/>
</g>
<!-- random&#45;take.js&#45;&gt;✪katsu&#45;curry/katsu&#45;curry.js -->
<g id="edge60" class="edge">
<title>random&#45;take.js&#45;&gt;✪katsu&#45;curry/katsu&#45;curry.js</title>
<path fill="none" stroke="#242424" d="M961.1931,-931.2341C970.0033,-894.2378 980.6693,-848.5085 989.607,-807.4382 1034.7855,-599.8339 989.3009,-509.3239 1130.607,-350.6631 1202.9301,-269.4575 1313.352,-214.0752 1401.3877,-179.9059"/>
<polygon fill="#242424" stroke="#242424" points="1402.8325,-183.1005 1410.9189,-176.255 1400.3286,-176.5636 1402.8325,-183.1005"/>
</g>
<!-- random&#45;take.js&#45;&gt;iterate.js -->
<g id="edge61" class="edge">
<title>random&#45;take.js&#45;&gt;iterate.js</title>
<path fill="none" stroke="#242424" d="M938.7387,-929.3439C935.7193,-883.1195 931.8736,-824.243 928.9565,-779.5835"/>
<polygon fill="#242424" stroke="#242424" points="932.437,-779.1693 928.2925,-769.4187 925.4519,-779.6256 932.437,-779.1693"/>
</g>
<!-- random&#45;take.js&#45;&gt;random&#45;floor.js -->
<g id="edge62" class="edge">
<title>random&#45;take.js&#45;&gt;random&#45;floor.js</title>
<path fill="none" stroke="#242424" d="M981.7793,-939.3194C1007.8596,-895.2134 1042.5443,-836.5557 1070.0678,-790.0089"/>
<polygon fill="#242424" stroke="#242424" points="1073.2187,-791.5565 1075.2959,-781.1672 1067.1933,-787.9936 1073.2187,-791.5565"/>
</g>
<!-- random&#45;word.js&#45;&gt;✪katsu&#45;curry/katsu&#45;curry.js -->
<g id="edge63" class="edge">
<title>random&#45;word.js&#45;&gt;✪katsu&#45;curry/katsu&#45;curry.js</title>
<path fill="none" stroke="#242424" d="M834.6799,-1266.0643C822.6893,-1059.1066 801.203,-484.6409 921.607,-350.6631 985.9824,-279.0302 1236.014,-208.169 1397.9346,-168.3987"/>
<polygon fill="#242424" stroke="#242424" points="1399.1037,-171.716 1407.9867,-165.9418 1397.4417,-164.9162 1399.1037,-171.716"/>
</g>
<!-- random&#45;word.js&#45;&gt;array.js -->
<g id="edge64" class="edge">
<title>random&#45;word.js&#45;&gt;array.js</title>
<path fill="none" stroke="#242424" d="M815.9915,-1269.7132C795,-1206.5762 764.7589,-1115.6186 745.6524,-1058.1513"/>
<polygon fill="#242424" stroke="#242424" points="748.9284,-1056.9107 742.4521,-1048.5257 742.2859,-1059.1192 748.9284,-1056.9107"/>
</g>
<!-- random&#45;word.js&#45;&gt;random&#45;take.js -->
<g id="edge65" class="edge">
<title>random&#45;word.js&#45;&gt;random&#45;take.js</title>
<path fill="none" stroke="#242424" d="M861.6627,-1269.3016C878.3467,-1215.2604 901.2692,-1141.0118 918.6284,-1084.7834"/>
<polygon fill="#242424" stroke="#242424" points="921.9773,-1085.8006 921.583,-1075.2131 915.2888,-1083.7356 921.9773,-1085.8006"/>
</g>
<!-- range.js&#45;&gt;✪katsu&#45;curry/katsu&#45;curry.js -->
<g id="edge66" class="edge">
<title>range.js&#45;&gt;✪katsu&#45;curry/katsu&#45;curry.js</title>
<path fill="none" stroke="#242424" d="M1297.6994,-665.771C1299.5299,-594.2893 1309.7682,-455.8128 1358.607,-350.6631 1377.5592,-309.859 1406.4091,-270.6262 1435.5898,-237.1091"/>
<polygon fill="#242424" stroke="#242424" points="1438.2201,-239.4183 1442.2122,-229.6043 1432.9714,-234.7867 1438.2201,-239.4183"/>
</g>
<!-- reject.js&#45;&gt;✪katsu&#45;curry/katsu&#45;curry.js -->
<g id="edge69" class="edge">
<title>reject.js&#45;&gt;✪katsu&#45;curry/katsu&#45;curry.js</title>
<path fill="none" stroke="#242424" d="M1147.8175,-956.6567C1164.8067,-917.365 1188.2583,-859.6236 1203.607,-807.4382 1262.2736,-607.972 1199.2038,-529.8801 1304.607,-350.6631 1333.8919,-300.8699 1378.4679,-256.0016 1421.0225,-220.3056"/>
<polygon fill="#242424" stroke="#242424" points="1423.4713,-222.822 1428.9407,-213.748 1419.0065,-217.4308 1423.4713,-222.822"/>
</g>
<!-- reject.js&#45;&gt;filter.js -->
<g id="edge70" class="edge">
<title>reject.js&#45;&gt;filter.js</title>
<path fill="none" stroke="#242424" d="M1097.6689,-960.9691C1079.6859,-936.7326 1054.8485,-907.2247 1027.607,-886.4382 1020.7464,-881.2034 812.1859,-785.7794 709.1274,-738.7554"/>
<polygon fill="#242424" stroke="#242424" points="710.3439,-735.4634 699.7932,-734.4971 707.4385,-741.832 710.3439,-735.4634"/>
</g>
<!-- string.js&#45;&gt;✪entrust/entrust.js -->
<g id="edge71" class="edge">
<title>string.js&#45;&gt;✪entrust/entrust.js</title>
<path fill="none" stroke="#242424" d="M191.5132,-396.7826C208.098,-354.3919 232.7653,-291.3425 253.6983,-237.8378"/>
<polygon fill="#242424" stroke="#242424" points="257.0418,-238.898 257.4259,-228.3101 250.523,-236.3475 257.0418,-238.898"/>
</g>
<!-- ternary.js&#45;&gt;✪katsu&#45;curry/katsu&#45;curry.js -->
<g id="edge72" class="edge">
<title>ternary.js&#45;&gt;✪katsu&#45;curry/katsu&#45;curry.js</title>
<path fill="none" stroke="#242424" d="M1471.4311,-390.5266C1480.0646,-358.7394 1491.3829,-317.0671 1502.357,-276.6621"/>
<polygon fill="#242424" stroke="#242424" points="1505.7447,-277.5424 1504.9882,-266.9746 1498.9894,-275.7076 1505.7447,-277.5424"/>
</g>
<!-- triplet.js&#45;&gt;✪katsu&#45;curry/katsu&#45;curry.js -->
<g id="edge73" class="edge">
<title>triplet.js&#45;&gt;✪katsu&#45;curry/katsu&#45;curry.js</title>
<path fill="none" stroke="#242424" d="M1949.1452,-952.1111C1964.8216,-913.168 1984.3345,-858.0338 1992.607,-807.4382 2026.3012,-601.3597 2017.0936,-510.4035 1882.607,-350.6631 1826.4164,-283.9212 1744.0536,-231.3064 1674.235,-194.8532"/>
<polygon fill="#242424" stroke="#242424" points="1675.8397,-191.7428 1665.3484,-190.2648 1672.6281,-197.9626 1675.8397,-191.7428"/>
</g>
<!-- which.js&#45;&gt;✪katsu&#45;curry/katsu&#45;curry.js -->
<g id="edge77" class="edge">
<title>which.js&#45;&gt;✪katsu&#45;curry/katsu&#45;curry.js</title>
<path fill="none" stroke="#242424" d="M2195.6673,-1296.2445C2222.979,-1214.1441 2272.126,-1033.7658 2235.607,-886.4382 2170.8149,-625.0492 2143.5353,-540.5806 1952.607,-350.6631 1875.629,-274.0927 1765.7072,-218.6528 1678.7618,-183.2903"/>
<polygon fill="#242424" stroke="#242424" points="1679.9355,-179.9899 1669.3518,-179.5046 1677.3229,-186.4841 1679.9355,-179.9899"/>
</g>
<!-- which.js&#45;&gt;flip.js -->
<g id="edge78" class="edge">
<title>which.js&#45;&gt;flip.js</title>
<path fill="none" stroke="#242424" d="M2171.8978,-1294.342C2164.4911,-1263.6868 2150.3038,-1224.7919 2123.607,-1200.3122 2033.9649,-1118.1149 1952.77,-1201.8193 1861.607,-1121.3122 1842.1568,-1104.1356 1829.6444,-1078.307 1821.7816,-1055.2423"/>
<polygon fill="#242424" stroke="#242424" points="1825.0659,-1054.0213 1818.6898,-1045.5599 1818.3976,-1056.1507 1825.0659,-1054.0213"/>
</g>
<!-- which.js&#45;&gt;triplet.js -->
<g id="edge79" class="edge">
<title>which.js&#45;&gt;triplet.js</title>
<path fill="none" stroke="#242424" d="M2169.3928,-1294.6884C2161.0046,-1265.1439 2146.667,-1227.3881 2123.607,-1200.3122 2079.2759,-1148.2611 2039.1288,-1170.4675 1991.607,-1121.3122 1976.0164,-1105.1858 1962.9605,-1084.5837 1952.7373,-1065.1515"/>
<polygon fill="#242424" stroke="#242424" points="1955.7498,-1063.354 1948.0945,-1056.0295 1949.5113,-1066.5292 1955.7498,-1063.354"/>
</g>
<!-- ✪fast.js/array/every.js -->
<g id="node38" class="node">
<title>✪fast.js/array/every.js</title>
<ellipse fill="none" stroke="#0c821d" stroke-width="4" cx="2399.607" cy="-1003.8752" rx="117.374" ry="117.374"/>
<text text-anchor="middle" x="2399.607" y="-1001.4753" font-family="Fira Code" font-size="12.00" fill="#0c821d">✪fast.js/array/every.js</text>
</g>
<!-- which.js&#45;&gt;✪fast.js/array/every.js -->
<g id="edge75" class="edge">
<title>which.js&#45;&gt;✪fast.js/array/every.js</title>
<path fill="none" stroke="#242424" d="M2205.4907,-1301.1089C2235.8191,-1254.6696 2287.3083,-1175.8286 2329.6389,-1111.0114"/>
<polygon fill="#242424" stroke="#242424" points="2332.7448,-1112.6564 2335.2824,-1102.37 2326.8839,-1108.8288 2332.7448,-1112.6564"/>
</g>
<!-- ✪fast.js/array/some.js -->
<g id="node39" class="node">
<title>✪fast.js/array/some.js</title>
<ellipse fill="none" stroke="#0c821d" stroke-width="4" cx="2113.607" cy="-1003.8752" rx="112.6769" ry="112.6769"/>
<text text-anchor="middle" x="2113.607" y="-1001.4753" font-family="Fira Code" font-size="12.00" fill="#0c821d">✪fast.js/array/some.js</text>
</g>
<!-- which.js&#45;&gt;✪fast.js/array/some.js -->
<g id="edge76" class="edge">
<title>which.js&#45;&gt;✪fast.js/array/some.js</title>
<path fill="none" stroke="#242424" d="M2170.5683,-1294.6088C2162.0247,-1251.0018 2148.8321,-1183.666 2137.2939,-1124.7745"/>
<polygon fill="#242424" stroke="#242424" points="2140.6667,-1123.7852 2135.3092,-1114.6447 2133.7973,-1125.1311 2140.6667,-1123.7852"/>
</g>
</g>
</svg>
