<?xml version="1.0" encoding="UTF-8" standalone="no"?>
<!DOCTYPE svg PUBLIC "-//W3C//DTD SVG 1.1//EN"
 "http://www.w3.org/Graphics/SVG/1.1/DTD/svg11.dtd">
<!-- Generated by graphviz version 2.40.1 (20161225.0304)
 -->
<!-- Title: G Pages: 1 -->
<svg width="3438pt" height="1646pt"
 viewBox="0.00 0.00 3438.19 1646.49" xmlns="http://www.w3.org/2000/svg" xmlns:xlink="http://www.w3.org/1999/xlink">
<g id="graph0" class="graph" transform="scale(1 1) rotate(0) translate(7.992 1638.4935)">
<title>G</title>
<polygon fill="#eeeeff" stroke="transparent" points="-7.992,7.992 -7.992,-1638.4935 3430.1991,-1638.4935 3430.1991,7.992 -7.992,7.992"/>
<!-- ../f&#45;utility.js -->
<g id="node1" class="node">
<title>../f&#45;utility.js</title>
<ellipse fill="none" stroke="#242424" stroke-width="4" cx="273.6002" cy="-426.9638" rx="79.3981" ry="79.3981"/>
<text text-anchor="middle" x="273.6002" y="-424.5638" font-family="Fira Code" font-size="12.00" fill="#242424">../f&#45;utility.js</text>
</g>
<!-- entrust/entrust.js -->
<g id="node2" class="node">
<title>entrust/entrust.js</title>
<ellipse fill="none" stroke="#0c821d" stroke-width="4" cx="517.6002" cy="-129.7839" rx="92.9895" ry="92.9895"/>
<text text-anchor="middle" x="517.6002" y="-127.3839" font-family="Fira Code" font-size="12.00" fill="#0c821d">entrust/entrust.js</text>
</g>
<!-- ../f&#45;utility.js&#45;&gt;entrust/entrust.js -->
<g id="edge1" class="edge">
<title>../f&#45;utility.js&#45;&gt;entrust/entrust.js</title>
<path fill="none" stroke="#242424" d="M323.8613,-365.7483C360.9397,-320.5886 411.7296,-258.7289 452.0042,-209.6765"/>
<polygon fill="#242424" stroke="#242424" points="454.7334,-211.8681 458.374,-201.9184 449.3233,-207.4261 454.7334,-211.8681"/>
</g>
<!-- fantasy&#45;land/index.js -->
<g id="node3" class="node">
<title>fantasy&#45;land/index.js</title>
<ellipse fill="none" stroke="#0c821d" stroke-width="4" cx="273.6002" cy="-129.7839" rx="106.5817" ry="106.5817"/>
<text text-anchor="middle" x="273.6002" y="-127.3839" font-family="Fira Code" font-size="12.00" fill="#0c821d">fantasy&#45;land/index.js</text>
</g>
<!-- ../f&#45;utility.js&#45;&gt;fantasy&#45;land/index.js -->
<g id="edge2" class="edge">
<title>../f&#45;utility.js&#45;&gt;fantasy&#45;land/index.js</title>
<path fill="none" stroke="#242424" d="M273.6002,-347.7154C273.6002,-316.8623 273.6002,-280.8675 273.6002,-247.1246"/>
<polygon fill="#242424" stroke="#242424" points="277.1003,-246.7331 273.6002,-236.7331 270.1003,-246.7332 277.1003,-246.7331"/>
</g>
<!-- katsu&#45;curry/katsu&#45;curry.js -->
<g id="node4" class="node">
<title>katsu&#45;curry/katsu&#45;curry.js</title>
<ellipse fill="none" stroke="#0c821d" stroke-width="4" cx="1593.6002" cy="-129.7839" rx="129.5681" ry="129.5681"/>
<text text-anchor="middle" x="1593.6002" y="-127.3839" font-family="Fira Code" font-size="12.00" fill="#0c821d">katsu&#45;curry/katsu&#45;curry.js</text>
</g>
<!-- ../f&#45;utility.js&#45;&gt;katsu&#45;curry/katsu&#45;curry.js -->
<g id="edge3" class="edge">
<title>../f&#45;utility.js&#45;&gt;katsu&#45;curry/katsu&#45;curry.js</title>
<path fill="none" stroke="#242424" d="M324.1417,-365.8186C335.4601,-355.3047 348.1392,-345.5373 361.6002,-338.5677 550.5282,-240.7475 1173.1534,-170.262 1454.0043,-142.6469"/>
<polygon fill="#242424" stroke="#242424" points="1454.6472,-146.1007 1464.2584,-141.6427 1453.9649,-139.1341 1454.6472,-146.1007"/>
</g>
<!-- ../package.json -->
<g id="node5" class="node">
<title>../package.json</title>
<ellipse fill="none" stroke="#0c821d" stroke-width="4" cx="2703.6002" cy="-1304.7078" rx="79.3981" ry="79.3981"/>
<text text-anchor="middle" x="2703.6002" y="-1302.3078" font-family="Fira Code" font-size="12.00" fill="#0c821d">../package.json</text>
</g>
<!-- array.js -->
<g id="node6" class="node">
<title>array.js</title>
<ellipse fill="none" stroke="#242424" stroke-width="4" cx="903.6002" cy="-961.5414" rx="47.0167" ry="47.0167"/>
<text text-anchor="middle" x="903.6002" y="-959.1414" font-family="Fira Code" font-size="12.00" fill="#242424">array.js</text>
</g>
<!-- array.js&#45;&gt;entrust/entrust.js -->
<g id="edge4" class="edge">
<title>array.js&#45;&gt;entrust/entrust.js</title>
<path fill="none" stroke="#242424" d="M873.2147,-925.1419C842.9721,-887.9067 796.3253,-827.6637 762.6002,-771.1521 698.2483,-663.3205 682.719,-634.3528 642.6002,-515.3599 616.9236,-439.203 628.6017,-415.269 604.6002,-338.5677 592.597,-300.2095 576.2847,-259.1488 561.0277,-223.6784"/>
<polygon fill="#242424" stroke="#242424" points="564.1549,-222.0924 556.9666,-214.3092 557.7323,-224.8763 564.1549,-222.0924"/>
</g>
<!-- array.js&#45;&gt;katsu&#45;curry/katsu&#45;curry.js -->
<g id="edge5" class="edge">
<title>array.js&#45;&gt;katsu&#45;curry/katsu&#45;curry.js</title>
<path fill="none" stroke="#242424" d="M901.2944,-914.3768C897.8472,-828.1196 894.4693,-648.8002 922.6002,-594.3599 948.6016,-544.0407 993.3164,-563.8425 1022.6002,-515.3599 1063.9259,-446.9405 1004.5623,-400.0833 1055.6002,-338.5677 1154.7132,-219.1074 1330.9082,-167.7713 1454.5853,-145.8562"/>
<polygon fill="#242424" stroke="#242424" points="1455.2575,-149.292 1464.5151,-144.1397 1454.0651,-142.3943 1455.2575,-149.292"/>
</g>
<!-- filter.js -->
<g id="node7" class="node">
<title>filter.js</title>
<ellipse fill="none" stroke="#242424" stroke-width="4" cx="823.6002" cy="-682.756" rx="51.7142" ry="51.7142"/>
<text text-anchor="middle" x="823.6002" y="-680.356" font-family="Fira Code" font-size="12.00" fill="#242424">filter.js</text>
</g>
<!-- array.js&#45;&gt;filter.js -->
<g id="edge6" class="edge">
<title>array.js&#45;&gt;filter.js</title>
<path fill="none" stroke="#242424" d="M890.5687,-916.1292C876.9673,-868.7308 855.5788,-794.1957 840.6443,-742.1516"/>
<polygon fill="#242424" stroke="#242424" points="843.9635,-741.0292 837.841,-732.3826 837.2351,-742.9601 843.9635,-741.0292"/>
</g>
<!-- delegate&#45;fast.js -->
<g id="node9" class="node">
<title>delegate&#45;fast.js</title>
<ellipse fill="none" stroke="#242424" stroke-width="4" cx="929.6002" cy="-426.9638" rx="83.5954" ry="83.5954"/>
<text text-anchor="middle" x="929.6002" y="-424.5638" font-family="Fira Code" font-size="12.00" fill="#242424">delegate&#45;fast.js</text>
</g>
<!-- filter.js&#45;&gt;delegate&#45;fast.js -->
<g id="edge11" class="edge">
<title>filter.js&#45;&gt;delegate&#45;fast.js</title>
<path fill="none" stroke="#242424" d="M843.4136,-634.9435C857.5062,-600.9362 876.8368,-554.2888 893.6201,-513.7886"/>
<polygon fill="#242424" stroke="#242424" points="896.897,-515.0232 897.492,-504.4451 890.4303,-512.3434 896.897,-515.0232"/>
</g>
<!-- fast.js/filter.js -->
<g id="node10" class="node">
<title>fast.js/filter.js</title>
<ellipse fill="none" stroke="#0c821d" stroke-width="4" cx="739.6002" cy="-426.9638" rx="88.2923" ry="88.2923"/>
<text text-anchor="middle" x="739.6002" y="-424.5638" font-family="Fira Code" font-size="12.00" fill="#0c821d">fast.js/filter.js</text>
</g>
<!-- filter.js&#45;&gt;fast.js/filter.js -->
<g id="edge10" class="edge">
<title>filter.js&#45;&gt;fast.js/filter.js</title>
<path fill="none" stroke="#242424" d="M807.4041,-633.4367C796.922,-601.5172 782.9389,-558.9366 770.3947,-520.7375"/>
<polygon fill="#242424" stroke="#242424" points="773.6848,-519.5382 767.2394,-511.1294 767.0342,-521.7223 773.6848,-519.5382"/>
</g>
<!-- choice.js -->
<g id="node8" class="node">
<title>choice.js</title>
<ellipse fill="none" stroke="#242424" stroke-width="4" cx="2514.6002" cy="-682.756" rx="51.7142" ry="51.7142"/>
<text text-anchor="middle" x="2514.6002" y="-680.356" font-family="Fira Code" font-size="12.00" fill="#242424">choice.js</text>
</g>
<!-- choice.js&#45;&gt;katsu&#45;curry/katsu&#45;curry.js -->
<g id="edge7" class="edge">
<title>choice.js&#45;&gt;katsu&#45;curry/katsu&#45;curry.js</title>
<path fill="none" stroke="#242424" d="M2519.8245,-631.3126C2524.3801,-556.49 2520.8584,-417.9347 2444.6002,-338.5677 2347.333,-237.3353 1947.9634,-173.5478 1732.6699,-145.8329"/>
<polygon fill="#242424" stroke="#242424" points="1732.922,-142.3367 1722.5589,-144.5404 1732.0344,-149.2802 1732.922,-142.3367"/>
</g>
<!-- delegate&#45;fast.js&#45;&gt;entrust/entrust.js -->
<g id="edge8" class="edge">
<title>delegate&#45;fast.js&#45;&gt;entrust/entrust.js</title>
<path fill="none" stroke="#242424" d="M870.2451,-367.548C859.3555,-357.5238 847.864,-347.4874 836.6002,-338.5677 762.7307,-280.0713 672.3716,-222.0702 606.7051,-182.1026"/>
<polygon fill="#242424" stroke="#242424" points="608.3784,-179.024 598.0133,-176.8298 604.7478,-185.0089 608.3784,-179.024"/>
</g>
<!-- delegate&#45;fast.js&#45;&gt;katsu&#45;curry/katsu&#45;curry.js -->
<g id="edge9" class="edge">
<title>delegate&#45;fast.js&#45;&gt;katsu&#45;curry/katsu&#45;curry.js</title>
<path fill="none" stroke="#242424" d="M988.6884,-367.2332C1000.9074,-356.7892 1014.1679,-346.6863 1027.6002,-338.5677 1164.2621,-255.968 1338.8996,-197.7004 1457.8059,-164.0799"/>
<polygon fill="#242424" stroke="#242424" points="1459.0178,-167.3751 1467.6999,-161.3029 1457.1261,-160.6356 1459.0178,-167.3751"/>
</g>
<!-- flip.js -->
<g id="node11" class="node">
<title>flip.js</title>
<ellipse fill="none" stroke="#242424" stroke-width="4" cx="1847.6002" cy="-961.5414" rx="42.3196" ry="42.3196"/>
<text text-anchor="middle" x="1847.6002" y="-959.1414" font-family="Fira Code" font-size="12.00" fill="#242424">flip.js</text>
</g>
<!-- flip.js&#45;&gt;katsu&#45;curry/katsu&#45;curry.js -->
<g id="edge12" class="edge">
<title>flip.js&#45;&gt;katsu&#45;curry/katsu&#45;curry.js</title>
<path fill="none" stroke="#242424" d="M1865.5079,-923.0663C1891.108,-868.027 1935.1565,-773.1692 1935.6002,-771.1521 1948.2379,-713.6888 1927.4963,-341.847 1925.6002,-338.5677 1881.7208,-262.6803 1798.0085,-210.3169 1725.6253,-177.0099"/>
<polygon fill="#242424" stroke="#242424" points="1726.9579,-173.7713 1716.4041,-172.8405 1724.0739,-180.1496 1726.9579,-173.7713"/>
</g>
<!-- future.js -->
<g id="node12" class="node">
<title>future.js</title>
<ellipse fill="none" stroke="#242424" stroke-width="4" cx="422.6002" cy="-426.9638" rx="51.7142" ry="51.7142"/>
<text text-anchor="middle" x="422.6002" y="-424.5638" font-family="Fira Code" font-size="12.00" fill="#242424">future.js</text>
</g>
<!-- future.js&#45;&gt;entrust/entrust.js -->
<g id="edge13" class="edge">
<title>future.js&#45;&gt;entrust/entrust.js</title>
<path fill="none" stroke="#242424" d="M438.3941,-377.557C451.3806,-336.9327 470.186,-278.1055 486.2143,-227.9654"/>
<polygon fill="#242424" stroke="#242424" points="489.5653,-228.9773 489.2764,-218.3864 482.8977,-226.8458 489.5653,-228.9773"/>
</g>
<!-- index.js -->
<g id="node13" class="node">
<title>index.js</title>
<ellipse fill="none" stroke="#242424" stroke-width="4" cx="1631.6002" cy="-1583.4931" rx="47.0167" ry="47.0167"/>
<text text-anchor="middle" x="1631.6002" y="-1581.0932" font-family="Fira Code" font-size="12.00" fill="#242424">index.js</text>
</g>
<!-- index.js&#45;&gt;katsu&#45;curry/katsu&#45;curry.js -->
<g id="edge14" class="edge">
<title>index.js&#45;&gt;katsu&#45;curry/katsu&#45;curry.js</title>
<path fill="none" stroke="#242424" d="M1678.8238,-1582.0592C1831.103,-1576.5251 2305.9537,-1551.8879 2420.6002,-1457.4848 2601.154,-1308.8117 2596.6002,-1195.4289 2596.6002,-961.5414 2596.6002,-961.5414 2596.6002,-961.5414 2596.6002,-682.756 2596.6002,-590.4099 2536.3013,-377.8927 2493.6002,-338.5677 2383.7168,-237.3722 1957.2883,-172.9072 1733.1133,-145.2946"/>
<polygon fill="#242424" stroke="#242424" points="1733.2733,-141.7881 1722.9222,-144.0475 1732.423,-148.7363 1733.2733,-141.7881"/>
</g>
<!-- index.js&#45;&gt;../package.json -->
<g id="edge16" class="edge">
<title>index.js&#45;&gt;../package.json</title>
<path fill="none" stroke="#242424" d="M1678.6571,-1582.7319C1852.099,-1579.1326 2453.6788,-1559.3989 2610.6002,-1457.4848 2636.3364,-1440.7702 2656.0619,-1414.1921 2670.5819,-1387.857"/>
<polygon fill="#242424" stroke="#242424" points="2673.7126,-1389.424 2675.3077,-1378.95 2667.529,-1386.1432 2673.7126,-1389.424"/>
</g>
<!-- index.js&#45;&gt;array.js -->
<g id="edge17" class="edge">
<title>index.js&#45;&gt;array.js</title>
<path fill="none" stroke="#242424" d="M1584.6783,-1580.4993C1454.2289,-1571.2061 1091.4487,-1538.4634 1009.6002,-1457.4848 890.2413,-1339.3946 889.8884,-1122.0357 897.4743,-1018.8333"/>
<polygon fill="#242424" stroke="#242424" points="900.9832,-1018.8569 898.2794,-1008.6129 894.0048,-1018.3071 900.9832,-1018.8569"/>
</g>
<!-- index.js&#45;&gt;filter.js -->
<g id="edge19" class="edge">
<title>index.js&#45;&gt;filter.js</title>
<path fill="none" stroke="#242424" d="M1584.4648,-1582.5189C1437.0747,-1578.4369 989.0591,-1557.846 893.6002,-1457.4848 704.5425,-1258.7181 771.4329,-887.6279 807.1296,-742.8152"/>
<polygon fill="#242424" stroke="#242424" points="810.6072,-743.3359 809.6419,-732.7852 803.817,-741.6351 810.6072,-743.3359"/>
</g>
<!-- index.js&#45;&gt;choice.js -->
<g id="edge18" class="edge">
<title>index.js&#45;&gt;choice.js</title>
<path fill="none" stroke="#242424" d="M1678.6445,-1579.5237C1813.3308,-1567.4097 2197.301,-1527.4181 2299.6002,-1457.4848 2465.9186,-1343.787 2484.1219,-1266.6087 2539.6002,-1072.9307 2572.0676,-959.585 2548.9657,-820.4216 2530.7566,-742.6593"/>
<polygon fill="#242424" stroke="#242424" points="2534.0718,-741.4743 2528.339,-732.5645 2527.2643,-743.1046 2534.0718,-741.4743"/>
</g>
<!-- index.js&#45;&gt;flip.js -->
<g id="edge20" class="edge">
<title>index.js&#45;&gt;flip.js</title>
<path fill="none" stroke="#242424" d="M1673.8486,-1562.6906C1711.5651,-1541.6933 1764.8523,-1505.5215 1791.6002,-1457.4848 1871.9467,-1313.1901 1863.6931,-1108.8362 1854.2333,-1013.8476"/>
<polygon fill="#242424" stroke="#242424" points="1857.6868,-1013.2183 1853.169,-1003.635 1850.7245,-1013.944 1857.6868,-1013.2183"/>
</g>
<!-- index.js&#45;&gt;future.js -->
<g id="edge21" class="edge">
<title>index.js&#45;&gt;future.js</title>
<path fill="none" stroke="#242424" d="M1584.5044,-1581.1466C1389.8449,-1571.011 654.8135,-1528.2753 581.6002,-1457.4848 307.4452,-1192.4026 376.8232,-665.7691 409.9974,-487.5426"/>
<polygon fill="#242424" stroke="#242424" points="413.4657,-488.0378 411.8857,-477.5614 406.5877,-486.7365 413.4657,-488.0378"/>
</g>
<!-- katsu&#45;curry/lib/utils/length.js -->
<g id="node14" class="node">
<title>katsu&#45;curry/lib/utils/length.js</title>
<ellipse fill="none" stroke="#0c821d" stroke-width="4" cx="2953.6002" cy="-1304.7078" rx="152.5545" ry="152.5545"/>
<text text-anchor="middle" x="2953.6002" y="-1302.3078" font-family="Fira Code" font-size="12.00" fill="#0c821d">katsu&#45;curry/lib/utils/length.js</text>
</g>
<!-- index.js&#45;&gt;katsu&#45;curry/lib/utils/length.js -->
<g id="edge15" class="edge">
<title>index.js&#45;&gt;katsu&#45;curry/lib/utils/length.js</title>
<path fill="none" stroke="#242424" d="M1678.671,-1582.3463C1869.9023,-1577.0867 2588.1054,-1551.3431 2791.6002,-1457.4848 2809.852,-1449.0665 2827.3723,-1437.7659 2843.7052,-1425.1011"/>
<polygon fill="#242424" stroke="#242424" points="2845.9923,-1427.7539 2851.6258,-1418.7809 2841.6263,-1422.2823 2845.9923,-1427.7539"/>
</g>
<!-- iterate.js -->
<g id="node15" class="node">
<title>iterate.js</title>
<ellipse fill="none" stroke="#242424" stroke-width="4" cx="1239.6002" cy="-682.756" rx="56.412" ry="56.412"/>
<text text-anchor="middle" x="1239.6002" y="-680.356" font-family="Fira Code" font-size="12.00" fill="#242424">iterate.js</text>
</g>
<!-- index.js&#45;&gt;iterate.js -->
<g id="edge22" class="edge">
<title>index.js&#45;&gt;iterate.js</title>
<path fill="none" stroke="#242424" d="M1588.4519,-1564.6569C1547.7074,-1544.4289 1488.5197,-1508.2131 1458.6002,-1457.4848 1389.5014,-1340.3287 1443.5026,-971.7707 1382.6002,-850.1521 1359.9407,-804.9024 1333.3574,-809.7261 1300.6002,-771.1521 1292.0403,-761.0722 1283.5415,-749.7929 1275.7269,-738.7525"/>
<polygon fill="#242424" stroke="#242424" points="1278.4825,-736.5849 1269.8947,-730.3801 1272.7387,-740.5861 1278.4825,-736.5849"/>
</g>
<!-- map.js -->
<g id="node16" class="node">
<title>map.js</title>
<ellipse fill="none" stroke="#242424" stroke-width="4" cx="138.6002" cy="-426.9638" rx="37.623" ry="37.623"/>
<text text-anchor="middle" x="138.6002" y="-424.5638" font-family="Fira Code" font-size="12.00" fill="#242424">map.js</text>
</g>
<!-- index.js&#45;&gt;map.js -->
<g id="edge23" class="edge">
<title>index.js&#45;&gt;map.js</title>
<path fill="none" stroke="#242424" d="M1584.4614,-1581.7574C1371.0013,-1573.4852 501.4259,-1535.2033 410.6002,-1457.4848 106.7401,-1197.4754 122.0785,-641.9719 134.2267,-475.2465"/>
<polygon fill="#242424" stroke="#242424" points="137.7501,-475.0708 135.0188,-464.8341 130.7703,-474.5397 137.7501,-475.0708"/>
</g>
<!-- math.js -->
<g id="node17" class="node">
<title>math.js</title>
<ellipse fill="none" stroke="#242424" stroke-width="4" cx="1631.6002" cy="-961.5414" rx="42.3196" ry="42.3196"/>
<text text-anchor="middle" x="1631.6002" y="-959.1414" font-family="Fira Code" font-size="12.00" fill="#242424">math.js</text>
</g>
<!-- index.js&#45;&gt;math.js -->
<g id="edge24" class="edge">
<title>index.js&#45;&gt;math.js</title>
<path fill="none" stroke="#242424" d="M1631.6002,-1536.2352C1631.6002,-1422.4505 1631.6002,-1133.8705 1631.6002,-1014.4897"/>
<polygon fill="#242424" stroke="#242424" points="1635.1003,-1014.1524 1631.6002,-1004.1524 1628.1003,-1014.1524 1635.1003,-1014.1524"/>
</g>
<!-- object.js -->
<g id="node18" class="node">
<title>object.js</title>
<ellipse fill="none" stroke="#242424" stroke-width="4" cx="1711.6002" cy="-682.756" rx="51.7142" ry="51.7142"/>
<text text-anchor="middle" x="1711.6002" y="-680.356" font-family="Fira Code" font-size="12.00" fill="#242424">object.js</text>
</g>
<!-- index.js&#45;&gt;object.js -->
<g id="edge25" class="edge">
<title>index.js&#45;&gt;object.js</title>
<path fill="none" stroke="#242424" d="M1636.9834,-1536.5373C1639.6576,-1512.8424 1642.8883,-1483.6479 1645.6002,-1457.4848 1663.3029,-1286.6976 1668.0137,-1244.0122 1682.6002,-1072.9307 1692.4854,-956.9891 1702.1268,-821.4998 1707.4241,-744.5424"/>
<polygon fill="#242424" stroke="#242424" points="1710.9177,-744.7541 1708.111,-734.5378 1703.9342,-744.2745 1710.9177,-744.7541"/>
</g>
<!-- path.js -->
<g id="node19" class="node">
<title>path.js</title>
<ellipse fill="none" stroke="#242424" stroke-width="4" cx="1561.6002" cy="-1304.7078" rx="42.3196" ry="42.3196"/>
<text text-anchor="middle" x="1561.6002" y="-1302.3078" font-family="Fira Code" font-size="12.00" fill="#242424">path.js</text>
</g>
<!-- index.js&#45;&gt;path.js -->
<g id="edge26" class="edge">
<title>index.js&#45;&gt;path.js</title>
<path fill="none" stroke="#242424" d="M1620.1195,-1537.7696C1607.5744,-1487.8069 1587.5263,-1407.9623 1574.4609,-1355.9276"/>
<polygon fill="#242424" stroke="#242424" points="1577.7752,-1354.7551 1571.9452,-1345.9085 1570.986,-1356.4598 1577.7752,-1354.7551"/>
</g>
<!-- random&#45;floor.js -->
<g id="node20" class="node">
<title>random&#45;floor.js</title>
<ellipse fill="none" stroke="#242424" stroke-width="4" cx="1010.6002" cy="-682.756" rx="79.3981" ry="79.3981"/>
<text text-anchor="middle" x="1010.6002" y="-680.356" font-family="Fira Code" font-size="12.00" fill="#242424">random&#45;floor.js</text>
</g>
<!-- index.js&#45;&gt;random&#45;floor.js -->
<g id="edge27" class="edge">
<title>index.js&#45;&gt;random&#45;floor.js</title>
<path fill="none" stroke="#242424" d="M1584.4566,-1580.1579C1460.4384,-1570.3377 1129.9328,-1537.0684 1061.6002,-1457.4848 975.2046,-1356.8643 991.495,-953.1794 1003.6551,-771.7959"/>
<polygon fill="#242424" stroke="#242424" points="1007.1516,-771.9653 1004.3397,-761.7504 1000.1678,-771.4893 1007.1516,-771.9653"/>
</g>
<!-- random&#45;shuffle.js -->
<g id="node21" class="node">
<title>random&#45;shuffle.js</title>
<ellipse fill="none" stroke="#0c821d" stroke-width="4" cx="3212.6002" cy="-1304.7078" rx="88.2923" ry="88.2923"/>
<text text-anchor="middle" x="3212.6002" y="-1302.3078" font-family="Fira Code" font-size="12.00" fill="#0c821d">random&#45;shuffle.js</text>
</g>
<!-- index.js&#45;&gt;random&#45;shuffle.js -->
<g id="edge28" class="edge">
<title>index.js&#45;&gt;random&#45;shuffle.js</title>
<path fill="none" stroke="#242424" d="M1678.7931,-1581.9633C1917.9875,-1573.8821 2989.9766,-1533.6273 3115.6002,-1457.4848 3139.7689,-1442.8358 3158.9292,-1419.6184 3173.6167,-1395.663"/>
<polygon fill="#242424" stroke="#242424" points="3176.7669,-1397.2111 3178.8266,-1386.8184 3170.7354,-1393.6583 3176.7669,-1397.2111"/>
</g>
<!-- random&#45;take.js -->
<g id="node22" class="node">
<title>random&#45;take.js</title>
<ellipse fill="none" stroke="#242424" stroke-width="4" cx="1177.6002" cy="-961.5414" rx="74.7005" ry="74.7005"/>
<text text-anchor="middle" x="1177.6002" y="-959.1414" font-family="Fira Code" font-size="12.00" fill="#242424">random&#45;take.js</text>
</g>
<!-- index.js&#45;&gt;random&#45;take.js -->
<g id="edge29" class="edge">
<title>index.js&#45;&gt;random&#45;take.js</title>
<path fill="none" stroke="#242424" d="M1584.771,-1579.0567C1513.2278,-1569.7059 1377.2776,-1541.3522 1303.6002,-1457.4848 1211.381,-1352.5113 1264.4556,-1287.2411 1229.6002,-1151.9307 1220.4205,-1116.2946 1209.7909,-1077.0502 1200.5437,-1043.4971"/>
<polygon fill="#242424" stroke="#242424" points="1203.8839,-1042.4437 1197.8483,-1033.7361 1197.1364,-1044.3069 1203.8839,-1042.4437"/>
</g>
<!-- random&#45;word.js -->
<g id="node23" class="node">
<title>random&#45;word.js</title>
<ellipse fill="none" stroke="#242424" stroke-width="4" cx="1145.6002" cy="-1304.7078" rx="74.7005" ry="74.7005"/>
<text text-anchor="middle" x="1145.6002" y="-1302.3078" font-family="Fira Code" font-size="12.00" fill="#242424">random&#45;word.js</text>
</g>
<!-- index.js&#45;&gt;random&#45;word.js -->
<g id="edge30" class="edge">
<title>index.js&#45;&gt;random&#45;word.js</title>
<path fill="none" stroke="#242424" d="M1585.0488,-1575.3502C1513.0643,-1561.0402 1372.7135,-1526.1576 1273.6002,-1457.4848 1242.1424,-1435.6886 1213.9744,-1404.2091 1192.1255,-1375.4819"/>
<polygon fill="#242424" stroke="#242424" points="1194.9227,-1373.3781 1186.1331,-1367.4627 1189.3153,-1377.5683 1194.9227,-1373.3781"/>
</g>
<!-- random.js -->
<g id="node24" class="node">
<title>random.js</title>
<ellipse fill="none" stroke="#0c821d" stroke-width="4" cx="3370.6002" cy="-1304.7078" rx="51.7142" ry="51.7142"/>
<text text-anchor="middle" x="3370.6002" y="-1302.3078" font-family="Fira Code" font-size="12.00" fill="#0c821d">random.js</text>
</g>
<!-- index.js&#45;&gt;random.js -->
<g id="edge31" class="edge">
<title>index.js&#45;&gt;random.js</title>
<path fill="none" stroke="#242424" d="M1678.7355,-1582.8912C1937.0923,-1579.2079 3174.6737,-1556.4694 3309.6002,-1457.4848 3338.7122,-1436.1277 3353.9474,-1398.6061 3361.9119,-1366.0937"/>
<polygon fill="#242424" stroke="#242424" points="3365.3599,-1366.7142 3364.1575,-1356.1879 3358.5331,-1365.1666 3365.3599,-1366.7142"/>
</g>
<!-- reduce.js -->
<g id="node25" class="node">
<title>reduce.js</title>
<ellipse fill="none" stroke="#242424" stroke-width="4" cx="1481.6002" cy="-961.5414" rx="51.7142" ry="51.7142"/>
<text text-anchor="middle" x="1481.6002" y="-959.1414" font-family="Fira Code" font-size="12.00" fill="#242424">reduce.js</text>
</g>
<!-- index.js&#45;&gt;reduce.js -->
<g id="edge32" class="edge">
<title>index.js&#45;&gt;reduce.js</title>
<path fill="none" stroke="#242424" d="M1593.302,-1555.9332C1564.9342,-1533.1013 1528.262,-1497.9255 1510.6002,-1457.4848 1447.1532,-1312.2084 1459.8641,-1119.8868 1472.0799,-1022.9642"/>
<polygon fill="#242424" stroke="#242424" points="1475.5885,-1023.1247 1473.4096,-1012.7563 1468.6471,-1022.2204 1475.5885,-1023.1247"/>
</g>
<!-- reject.js -->
<g id="node26" class="node">
<title>reject.js</title>
<ellipse fill="none" stroke="#242424" stroke-width="4" cx="1321.6002" cy="-961.5414" rx="51.7142" ry="51.7142"/>
<text text-anchor="middle" x="1321.6002" y="-959.1414" font-family="Fira Code" font-size="12.00" fill="#242424">reject.js</text>
</g>
<!-- index.js&#45;&gt;reject.js -->
<g id="edge33" class="edge">
<title>index.js&#45;&gt;reject.js</title>
<path fill="none" stroke="#242424" d="M1585.2715,-1573.3573C1528.7153,-1558.3774 1434.792,-1524.5482 1387.6002,-1457.4848 1294.5704,-1325.2819 1301.9217,-1123.188 1312.8699,-1022.693"/>
<polygon fill="#242424" stroke="#242424" points="1316.3532,-1023.0371 1314.0067,-1012.7054 1309.3981,-1022.2454 1316.3532,-1023.0371"/>
</g>
<!-- string.js -->
<g id="node27" class="node">
<title>string.js</title>
<ellipse fill="none" stroke="#242424" stroke-width="4" cx="543.6002" cy="-426.9638" rx="51.7142" ry="51.7142"/>
<text text-anchor="middle" x="543.6002" y="-424.5638" font-family="Fira Code" font-size="12.00" fill="#242424">string.js</text>
</g>
<!-- index.js&#45;&gt;string.js -->
<g id="edge34" class="edge">
<title>index.js&#45;&gt;string.js</title>
<path fill="none" stroke="#242424" d="M1584.7236,-1579.7621C1413.4099,-1565.7118 828.0732,-1513.9107 767.6002,-1457.4848 485.9289,-1194.6644 515.9592,-667.6905 535.585,-488.3523"/>
<polygon fill="#242424" stroke="#242424" points="539.0753,-488.6338 536.7138,-478.3055 532.1191,-487.8521 539.0753,-488.6338"/>
</g>
<!-- ternary.js -->
<g id="node28" class="node">
<title>ternary.js</title>
<ellipse fill="none" stroke="#242424" stroke-width="4" cx="1837.6002" cy="-682.756" rx="56.412" ry="56.412"/>
<text text-anchor="middle" x="1837.6002" y="-680.356" font-family="Fira Code" font-size="12.00" fill="#242424">ternary.js</text>
</g>
<!-- index.js&#45;&gt;ternary.js -->
<g id="edge35" class="edge">
<title>index.js&#45;&gt;ternary.js</title>
<path fill="none" stroke="#242424" d="M1648.8429,-1539.4678C1657.6494,-1515.5343 1667.8926,-1485.2328 1674.6002,-1457.4848 1738.7003,-1192.3138 1687.9796,-1112.2704 1763.6002,-850.1521 1774.3422,-812.9178 1791.6445,-773.1677 1806.8183,-741.75"/>
<polygon fill="#242424" stroke="#242424" points="1809.9948,-743.2213 1811.2412,-732.7 1803.7057,-740.1476 1809.9948,-743.2213"/>
</g>
<!-- triplet.js -->
<g id="node29" class="node">
<title>triplet.js</title>
<ellipse fill="none" stroke="#242424" stroke-width="4" cx="2474.6002" cy="-961.5414" rx="56.412" ry="56.412"/>
<text text-anchor="middle" x="2474.6002" y="-959.1414" font-family="Fira Code" font-size="12.00" fill="#242424">triplet.js</text>
</g>
<!-- index.js&#45;&gt;triplet.js -->
<g id="edge36" class="edge">
<title>index.js&#45;&gt;triplet.js</title>
<path fill="none" stroke="#242424" d="M1678.591,-1577.2291C1794.595,-1561.0347 2090.9293,-1514.9994 2170.6002,-1457.4848 2324.2466,-1346.5671 2415.98,-1131.8015 2454.0147,-1025.0153"/>
<polygon fill="#242424" stroke="#242424" points="2457.4027,-1025.9312 2457.4201,-1015.3363 2450.7995,-1023.6079 2457.4027,-1025.9312"/>
</g>
<!-- types.js -->
<g id="node30" class="node">
<title>types.js</title>
<ellipse fill="none" stroke="#242424" stroke-width="4" cx="1869.6002" cy="-426.9638" rx="47.0167" ry="47.0167"/>
<text text-anchor="middle" x="1869.6002" y="-424.5638" font-family="Fira Code" font-size="12.00" fill="#242424">types.js</text>
</g>
<!-- index.js&#45;&gt;types.js -->
<g id="edge37" class="edge">
<title>index.js&#45;&gt;types.js</title>
<path fill="none" stroke="#242424" d="M1660.4214,-1546.1827C1677.4796,-1522.1578 1697.9658,-1489.5283 1709.6002,-1457.4848 1732.8654,-1393.4074 1761.7679,-908.7516 1796.6002,-850.1521 1826.622,-799.6453 1876.2443,-823.6651 1902.6002,-771.1521 1949.7915,-677.1253 1916.9025,-550.5277 1891.4614,-480.0228"/>
<polygon fill="#242424" stroke="#242424" points="1894.6764,-478.6251 1887.9301,-470.4558 1888.1095,-481.0491 1894.6764,-478.6251"/>
</g>
<!-- which.js -->
<g id="node31" class="node">
<title>which.js</title>
<ellipse fill="none" stroke="#242424" stroke-width="4" cx="2114.6002" cy="-1304.7078" rx="47.0167" ry="47.0167"/>
<text text-anchor="middle" x="2114.6002" y="-1302.3078" font-family="Fira Code" font-size="12.00" fill="#242424">which.js</text>
</g>
<!-- index.js&#45;&gt;which.js -->
<g id="edge38" class="edge">
<title>index.js&#45;&gt;which.js</title>
<path fill="none" stroke="#242424" d="M1672.3642,-1559.9643C1760.604,-1509.0327 1969.0575,-1388.7143 2064.8628,-1333.4159"/>
<polygon fill="#242424" stroke="#242424" points="2066.8637,-1336.3023 2073.7749,-1328.2719 2063.3643,-1330.2397 2066.8637,-1336.3023"/>
</g>
<!-- iterate.js&#45;&gt;katsu&#45;curry/katsu&#45;curry.js -->
<g id="edge39" class="edge">
<title>iterate.js&#45;&gt;katsu&#45;curry/katsu&#45;curry.js</title>
<path fill="none" stroke="#242424" d="M1247.3101,-626.7725C1259.2883,-555.0285 1287.549,-429.1249 1347.6002,-338.5677 1381.2584,-287.8111 1430.6978,-242.5091 1476.4432,-207.1834"/>
<polygon fill="#242424" stroke="#242424" points="1478.8124,-209.7782 1484.6389,-200.9293 1474.5658,-204.2134 1478.8124,-209.7782"/>
</g>
<!-- map.js&#45;&gt;entrust/entrust.js -->
<g id="edge40" class="edge">
<title>map.js&#45;&gt;entrust/entrust.js</title>
<path fill="none" stroke="#242424" d="M150.9023,-390.7893C158.5093,-373.038 169.8696,-352.5266 185.6002,-338.5677 258.324,-274.0349 308.3205,-312.9236 389.6002,-259.5677 411.204,-245.3859 432.0494,-227.046 450.422,-208.6437"/>
<polygon fill="#242424" stroke="#242424" points="453.1001,-210.9117 457.6038,-201.3217 448.1028,-206.01 453.1001,-210.9117"/>
</g>
<!-- map.js&#45;&gt;fantasy&#45;land/index.js -->
<g id="edge41" class="edge">
<title>map.js&#45;&gt;fantasy&#45;land/index.js</title>
<path fill="none" stroke="#242424" d="M154.3506,-392.2919C171.6429,-354.2259 200.2592,-291.2317 225.1248,-236.4942"/>
<polygon fill="#242424" stroke="#242424" points="228.4504,-237.6359 229.3998,-227.0837 222.0771,-234.7407 228.4504,-237.6359"/>
</g>
<!-- map.js&#45;&gt;katsu&#45;curry/katsu&#45;curry.js -->
<g id="edge43" class="edge">
<title>map.js&#45;&gt;katsu&#45;curry/katsu&#45;curry.js</title>
<path fill="none" stroke="#242424" d="M149.1574,-390.608C156.4152,-372.1244 167.9926,-350.9966 185.6002,-338.5677 211.5565,-320.2456 1104.944,-196.5574 1454.9459,-148.6685"/>
<polygon fill="#242424" stroke="#242424" points="1455.4543,-152.1316 1464.8877,-147.3086 1454.5056,-145.1962 1455.4543,-152.1316"/>
</g>
<!-- fast.js/map.js -->
<g id="node32" class="node">
<title>fast.js/map.js</title>
<ellipse fill="none" stroke="#0c821d" stroke-width="4" cx="74.6002" cy="-129.7839" rx="74.7005" ry="74.7005"/>
<text text-anchor="middle" x="74.6002" y="-127.3839" font-family="Fira Code" font-size="12.00" fill="#0c821d">fast.js/map.js</text>
</g>
<!-- map.js&#45;&gt;fast.js/map.js -->
<g id="edge42" class="edge">
<title>map.js&#45;&gt;fast.js/map.js</title>
<path fill="none" stroke="#242424" d="M130.6239,-389.9266C121.137,-345.8746 105.0113,-270.9959 92.4898,-212.8532"/>
<polygon fill="#242424" stroke="#242424" points="95.8818,-211.9785 90.3548,-202.9395 89.0386,-213.4523 95.8818,-211.9785"/>
</g>
<!-- math.js&#45;&gt;katsu&#45;curry/katsu&#45;curry.js -->
<g id="edge44" class="edge">
<title>math.js&#45;&gt;katsu&#45;curry/katsu&#45;curry.js</title>
<path fill="none" stroke="#242424" d="M1630.3742,-918.8476C1627.384,-817.9044 1619.1093,-556.6291 1607.6002,-338.5677 1606.4243,-316.2886 1605.0069,-292.6835 1603.5316,-269.6708"/>
<polygon fill="#242424" stroke="#242424" points="1607.0119,-269.2527 1602.8734,-259.4996 1600.0265,-269.7048 1607.0119,-269.2527"/>
</g>
<!-- object.js&#45;&gt;katsu&#45;curry/katsu&#45;curry.js -->
<g id="edge45" class="edge">
<title>object.js&#45;&gt;katsu&#45;curry/katsu&#45;curry.js</title>
<path fill="none" stroke="#242424" d="M1702.7349,-631.8413C1690.8059,-564.5089 1668.4358,-442.2549 1645.6002,-338.5677 1640.3924,-314.9214 1634.4881,-289.8644 1628.5739,-265.6271"/>
<polygon fill="#242424" stroke="#242424" points="1631.9112,-264.5403 1626.1306,-255.6614 1625.1126,-266.2073 1631.9112,-264.5403"/>
</g>
<!-- path.js&#45;&gt;katsu&#45;curry/katsu&#45;curry.js -->
<g id="edge46" class="edge">
<title>path.js&#45;&gt;katsu&#45;curry/katsu&#45;curry.js</title>
<path fill="none" stroke="#242424" d="M1562.758,-1262.1975C1567.1001,-1102.7707 1582.5374,-535.97 1589.7872,-269.7807"/>
<polygon fill="#242424" stroke="#242424" points="1593.2892,-269.7546 1590.0628,-259.6629 1586.2918,-269.5639 1593.2892,-269.7546"/>
</g>
<!-- path.js&#45;&gt;math.js -->
<g id="edge47" class="edge">
<title>path.js&#45;&gt;math.js</title>
<path fill="none" stroke="#242424" d="M1570.1136,-1262.9719C1582.9192,-1200.1938 1607.1168,-1081.5681 1621.0325,-1013.3481"/>
<polygon fill="#242424" stroke="#242424" points="1624.522,-1013.7526 1623.0914,-1003.2548 1617.6632,-1012.3535 1624.522,-1013.7526"/>
</g>
<!-- path.js&#45;&gt;reduce.js -->
<g id="edge48" class="edge">
<title>path.js&#45;&gt;reduce.js</title>
<path fill="none" stroke="#242424" d="M1551.9503,-1263.3139C1537.9285,-1203.1661 1511.8359,-1091.24 1495.6711,-1021.8998"/>
<polygon fill="#242424" stroke="#242424" points="1499.0398,-1020.9337 1493.3608,-1011.9895 1492.2226,-1022.523 1499.0398,-1020.9337"/>
</g>
<!-- random&#45;floor.js&#45;&gt;katsu&#45;curry/katsu&#45;curry.js -->
<g id="edge49" class="edge">
<title>random&#45;floor.js&#45;&gt;katsu&#45;curry/katsu&#45;curry.js</title>
<path fill="none" stroke="#242424" d="M1031.1973,-606.1236C1058.4198,-504.8982 1103.036,-339.2162 1103.6002,-338.5677 1194.0319,-234.6149 1345.1925,-180.9415 1455.7524,-154.2345"/>
<polygon fill="#242424" stroke="#242424" points="1456.7256,-157.6009 1465.6492,-151.8895 1455.1116,-150.7896 1456.7256,-157.6009"/>
</g>
<!-- random&#45;take.js&#45;&gt;katsu&#45;curry/katsu&#45;curry.js -->
<g id="edge50" class="edge">
<title>random&#45;take.js&#45;&gt;katsu&#45;curry/katsu&#45;curry.js</title>
<path fill="none" stroke="#242424" d="M1166.5918,-887.6795C1151.9813,-760.6441 1141.3925,-499.0025 1270.6002,-338.5677 1322.5003,-274.1243 1399.84,-223.1483 1465.8289,-187.7019"/>
<polygon fill="#242424" stroke="#242424" points="1467.8679,-190.5822 1475.0611,-182.8035 1464.587,-184.3987 1467.8679,-190.5822"/>
</g>
<!-- random&#45;take.js&#45;&gt;iterate.js -->
<g id="edge51" class="edge">
<title>random&#45;take.js&#45;&gt;iterate.js</title>
<path fill="none" stroke="#242424" d="M1193.809,-888.658C1203.5081,-845.0456 1215.7303,-790.0877 1225.1076,-747.9226"/>
<polygon fill="#242424" stroke="#242424" points="1228.5508,-748.562 1227.3052,-738.0407 1221.7177,-747.0423 1228.5508,-748.562"/>
</g>
<!-- random&#45;take.js&#45;&gt;random&#45;floor.js -->
<g id="edge52" class="edge">
<title>random&#45;take.js&#45;&gt;random&#45;floor.js</title>
<path fill="none" stroke="#242424" d="M1139.0773,-897.2323C1114.5652,-856.3125 1082.6824,-803.0882 1056.8105,-759.8982"/>
<polygon fill="#242424" stroke="#242424" points="1059.6946,-757.9019 1051.5532,-751.1219 1053.6895,-761.4991 1059.6946,-757.9019"/>
</g>
<!-- random&#45;word.js&#45;&gt;katsu&#45;curry/katsu&#45;curry.js -->
<g id="edge53" class="edge">
<title>random&#45;word.js&#45;&gt;katsu&#45;curry/katsu&#45;curry.js</title>
<path fill="none" stroke="#242424" d="M1125.1721,-1232.8467C1113.3363,-1187.4212 1099.6177,-1127.2405 1093.6002,-1072.9307 1082.6963,-974.5202 1085.0835,-948.7978 1093.6002,-850.1521 1103.5258,-735.1868 1114.0113,-431.3638 1182.6002,-338.5677 1249.1057,-248.5902 1365.5456,-194.6213 1457.5473,-164.1662"/>
<polygon fill="#242424" stroke="#242424" points="1458.7924,-167.4417 1467.2198,-161.0206 1456.6275,-160.7849 1458.7924,-167.4417"/>
</g>
<!-- random&#45;word.js&#45;&gt;array.js -->
<g id="edge54" class="edge">
<title>random&#45;word.js&#45;&gt;array.js</title>
<path fill="none" stroke="#242424" d="M1102.3354,-1243.3565C1054.812,-1175.9662 979.5451,-1069.2345 936.5692,-1008.2928"/>
<polygon fill="#242424" stroke="#242424" points="939.3491,-1006.1617 930.7256,-1000.0064 933.6284,-1010.1959 939.3491,-1006.1617"/>
</g>
<!-- random&#45;word.js&#45;&gt;random&#45;take.js -->
<g id="edge55" class="edge">
<title>random&#45;word.js&#45;&gt;random&#45;take.js</title>
<path fill="none" stroke="#242424" d="M1152.5437,-1230.2458C1157.6071,-1175.9455 1164.4749,-1102.2957 1169.7399,-1045.8343"/>
<polygon fill="#242424" stroke="#242424" points="1173.2265,-1046.1399 1170.6702,-1035.8581 1166.2568,-1045.4899 1173.2265,-1046.1399"/>
</g>
<!-- reduce.js&#45;&gt;delegate&#45;fast.js -->
<g id="edge57" class="edge">
<title>reduce.js&#45;&gt;delegate&#45;fast.js</title>
<path fill="none" stroke="#242424" d="M1456.2551,-916.2972C1435.158,-878.054 1404.7736,-821.5972 1380.6002,-771.1521 1343.64,-694.0236 1364.6567,-655.2539 1304.6002,-594.3599 1226.7062,-515.3798 1104.9758,-470.5695 1021.467,-447.5684"/>
<polygon fill="#242424" stroke="#242424" points="1022.2993,-444.1679 1011.7325,-444.9381 1020.4733,-450.9255 1022.2993,-444.1679"/>
</g>
<!-- fast.js/reduce.js -->
<g id="node33" class="node">
<title>fast.js/reduce.js</title>
<ellipse fill="none" stroke="#0c821d" stroke-width="4" cx="1477.6002" cy="-682.756" rx="88.2923" ry="88.2923"/>
<text text-anchor="middle" x="1477.6002" y="-680.356" font-family="Fira Code" font-size="12.00" fill="#0c821d">fast.js/reduce.js</text>
</g>
<!-- reduce.js&#45;&gt;fast.js/reduce.js -->
<g id="edge56" class="edge">
<title>reduce.js&#45;&gt;fast.js/reduce.js</title>
<path fill="none" stroke="#242424" d="M1480.8572,-909.7574C1480.3405,-873.747 1479.6356,-824.6183 1479.0137,-781.2741"/>
<polygon fill="#242424" stroke="#242424" points="1482.5132,-781.2082 1478.87,-771.2594 1475.5139,-781.3086 1482.5132,-781.2082"/>
</g>
<!-- reject.js&#45;&gt;katsu&#45;curry/katsu&#45;curry.js -->
<g id="edge58" class="edge">
<title>reject.js&#45;&gt;katsu&#45;curry/katsu&#45;curry.js</title>
<path fill="none" stroke="#242424" d="M1325.4543,-910.0735C1331.8286,-838.1366 1347.3243,-704.0245 1380.6002,-594.3599 1417.1271,-473.9812 1478.5265,-344.4446 1526.045,-252.8165"/>
<polygon fill="#242424" stroke="#242424" points="1529.2305,-254.2769 1530.7444,-243.7908 1523.0217,-251.0441 1529.2305,-254.2769"/>
</g>
<!-- reject.js&#45;&gt;filter.js -->
<g id="edge59" class="edge">
<title>reject.js&#45;&gt;filter.js</title>
<path fill="none" stroke="#242424" d="M1305.6764,-912.2083C1296.1799,-890.1611 1281.9279,-865.6963 1261.6002,-850.1521 1138.7085,-756.1794 1059.8992,-842.4418 922.6002,-771.1521 901.8519,-760.379 881.9992,-744.2601 865.5913,-728.7252"/>
<polygon fill="#242424" stroke="#242424" points="867.9168,-726.1048 858.3041,-721.6499 863.0406,-731.127 867.9168,-726.1048"/>
</g>
<!-- string.js&#45;&gt;entrust/entrust.js -->
<g id="edge60" class="edge">
<title>string.js&#45;&gt;entrust/entrust.js</title>
<path fill="none" stroke="#242424" d="M539.101,-375.5383C535.668,-336.2993 530.8266,-280.9623 526.6069,-232.7311"/>
<polygon fill="#242424" stroke="#242424" points="530.075,-232.2122 525.7167,-222.5553 523.1016,-232.8223 530.075,-232.2122"/>
</g>
<!-- ternary.js&#45;&gt;katsu&#45;curry/katsu&#45;curry.js -->
<g id="edge61" class="edge">
<title>ternary.js&#45;&gt;katsu&#45;curry/katsu&#45;curry.js</title>
<path fill="none" stroke="#242424" d="M1814.8644,-631.2303C1777.5927,-546.7624 1702.4148,-376.3882 1650.091,-257.8079"/>
<polygon fill="#242424" stroke="#242424" points="1653.2884,-256.384 1646.0492,-248.648 1646.8841,-259.2099 1653.2884,-256.384"/>
</g>
<!-- triplet.js&#45;&gt;katsu&#45;curry/katsu&#45;curry.js -->
<g id="edge62" class="edge">
<title>triplet.js&#45;&gt;katsu&#45;curry/katsu&#45;curry.js</title>
<path fill="none" stroke="#242424" d="M2468.4152,-905.571C2451.5199,-752.7985 2405.7637,-339.9068 2404.6002,-338.5677 2317.4034,-238.214 1940.9103,-174.6917 1732.9521,-146.5915"/>
<polygon fill="#242424" stroke="#242424" points="1733.249,-143.1001 1722.8724,-145.2394 1732.3183,-150.038 1733.249,-143.1001"/>
</g>
<!-- types.js&#45;&gt;katsu&#45;curry/katsu&#45;curry.js -->
<g id="edge63" class="edge">
<title>types.js&#45;&gt;katsu&#45;curry/katsu&#45;curry.js</title>
<path fill="none" stroke="#242424" d="M1837.3993,-392.2919C1801.1997,-353.3144 1740.7266,-288.2007 1689.0671,-232.5768"/>
<polygon fill="#242424" stroke="#242424" points="1691.5349,-230.0908 1682.1652,-225.1453 1686.4058,-234.8544 1691.5349,-230.0908"/>
</g>
<!-- which.js&#45;&gt;katsu&#45;curry/katsu&#45;curry.js -->
<g id="edge66" class="edge">
<title>which.js&#45;&gt;katsu&#45;curry/katsu&#45;curry.js</title>
<path fill="none" stroke="#242424" d="M2119.9512,-1257.8676C2126.0483,-1224.4857 2139.0323,-1180.6171 2166.6002,-1151.9307 2234.2575,-1081.5282 2316.3476,-1153.4365 2371.6002,-1072.9307 2427.6282,-991.2951 2405.3431,-943.2377 2371.6002,-850.1521 2270.6694,-571.717 2169.9815,-530.704 1944.6002,-338.5677 1876.2978,-280.3403 1789.7213,-228.648 1719.6434,-191.2648"/>
<polygon fill="#242424" stroke="#242424" points="1721.2196,-188.1391 1710.745,-186.5474 1717.9408,-194.3237 1721.2196,-188.1391"/>
</g>
<!-- which.js&#45;&gt;flip.js -->
<g id="edge67" class="edge">
<title>which.js&#45;&gt;flip.js</title>
<path fill="none" stroke="#242424" d="M2079.3602,-1273.3519C2033.5417,-1231.2161 1953.0699,-1152.391 1899.6002,-1072.9307 1886.6401,-1053.6709 1875.3054,-1030.6681 1866.5548,-1010.5801"/>
<polygon fill="#242424" stroke="#242424" points="1869.7334,-1009.1112 1862.5954,-1001.2818 1863.293,-1011.8537 1869.7334,-1009.1112"/>
</g>
<!-- which.js&#45;&gt;triplet.js -->
<g id="edge68" class="edge">
<title>which.js&#45;&gt;triplet.js</title>
<path fill="none" stroke="#242424" d="M2145.9272,-1269.4496C2175.9995,-1236.7632 2223.66,-1187.8994 2270.6002,-1151.9307 2325.4768,-1109.8805 2355.0261,-1121.1185 2404.6002,-1072.9307 2420.0118,-1057.95 2433.5516,-1038.9319 2444.5132,-1020.8688"/>
<polygon fill="#242424" stroke="#242424" points="2447.6194,-1022.4917 2449.6842,-1012.1 2441.5897,-1018.936 2447.6194,-1022.4917"/>
</g>
<!-- fast.js/array/every.js -->
<g id="node34" class="node">
<title>fast.js/array/every.js</title>
<ellipse fill="none" stroke="#0c821d" stroke-width="4" cx="2019.6002" cy="-961.5414" rx="111.2787" ry="111.2787"/>
<text text-anchor="middle" x="2019.6002" y="-959.1414" font-family="Fira Code" font-size="12.00" fill="#0c821d">fast.js/array/every.js</text>
</g>
<!-- which.js&#45;&gt;fast.js/array/every.js -->
<g id="edge64" class="edge">
<title>which.js&#45;&gt;fast.js/array/every.js</title>
<path fill="none" stroke="#242424" d="M2101.9849,-1259.1379C2089.3129,-1213.3631 2069.2585,-1140.921 2052.109,-1078.9722"/>
<polygon fill="#242424" stroke="#242424" points="2055.4243,-1077.8293 2049.3831,-1069.1256 2048.678,-1079.697 2055.4243,-1077.8293"/>
</g>
<!-- fast.js/array/some.js -->
<g id="node35" class="node">
<title>fast.js/array/some.js</title>
<ellipse fill="none" stroke="#0c821d" stroke-width="4" cx="2255.6002" cy="-961.5414" rx="106.5817" ry="106.5817"/>
<text text-anchor="middle" x="2255.6002" y="-959.1414" font-family="Fira Code" font-size="12.00" fill="#0c821d">fast.js/array/some.js</text>
</g>
<!-- which.js&#45;&gt;fast.js/array/some.js -->
<g id="edge65" class="edge">
<title>which.js&#45;&gt;fast.js/array/some.js</title>
<path fill="none" stroke="#242424" d="M2132.6011,-1260.8969C2152.2729,-1213.0197 2184.5258,-1134.5224 2211.0694,-1069.9206"/>
<polygon fill="#242424" stroke="#242424" points="2214.3789,-1071.0752 2214.942,-1060.4953 2207.9041,-1068.4148 2214.3789,-1071.0752"/>
</g>
</g>
</svg>
